<?xml version="1.0" encoding="UTF-8"?>
<svg version="1.1" xmlns="http://www.w3.org/2000/svg" xmlns:xlink="http://www.w3.org/1999/xlink">
<defs>

</defs>
<symbol id="i-facebook-icon-bw" viewBox="0 0 16 16" xmlns="http://www.w3.org/2000/svg"><path d="M7.984 15.12v-5.009H6.125V7.147h1.859V5.864c0-2.056 1.23-3.321 3.13-3.321.664 0 1.376.046 1.71.093l.313.044v2.678h-.363l-1.139.002c-.581 0-.703.15-.703.724v1.063h2.177l-.366 2.964h-1.81v5.01h3.483a.665.665 0 00.665-.666V1.595a.665.665 0 00-.665-.665H1.556a.665.665 0 00-.666.665v12.86c0 .368.298.665.665.665zm2.22-5.737H12.1l.186-1.508h-2.081v-1.79c0-.948.409-1.453 1.43-1.453h.775V3.322c-.346-.029-.834-.052-1.296-.052-1.494 0-2.403.934-2.403 2.593v2.011H6.853v1.508h1.858v5.737h1.494zm4.212 6.465H1.556c-.77 0-1.394-.624-1.394-1.393V1.595C.162.825.786.202 1.555.202h12.861c.77 0 1.393.623 1.393 1.393v12.86c0 .77-.624 1.393-1.393 1.393z" fill="#132530" fill-rule="evenodd"/></symbol>
<symbol id="i-google-icon-bw" viewBox="0 0 16 16" xmlns="http://www.w3.org/2000/svg"><path d="M9.752 10.814a.785.785 0 01.01-.006l.022-.015c.437-.28.759-.671.944-1.154H7.565V6.566h6.34l.063.276c.095.415.148.822.148 1.192 0 1.058-.2 2.032-.582 2.895a5.977 5.977 0 01-1.09 1.657l.012.01-.283.262a6.013 6.013 0 01-2.52 1.407 6.5 6.5 0 01-1.733.234 6.455 6.455 0 01-4.895-2.226 6.383 6.383 0 01-.713-.998l-.012.009-.191-.389a6.375 6.375 0 01-.031-.063l-.098-.198.005-.004a6.469 6.469 0 01-.535-2.42l-.002-.053-.001-.038a2.714 2.714 0 010-.205l.001-.005.002-.053a6.464 6.464 0 01.536-2.42L1.98 5.43l.13-.262a6.398 6.398 0 011.046-1.524A6.456 6.456 0 017.92 1.567c1.59 0 3.074.578 4.266 1.616l.287.25-2.277 2.274-.249-.203a3.183 3.183 0 00-2.027-.726A3.253 3.253 0 004.825 7.01l-.003.01c-.09.275-.141.564-.155.864l-.004.058v.008a1.267 1.267 0 000 .174l.004.06c.014.303.067.594.157.867l.022.066a3.254 3.254 0 001.9 1.952c.374.144.768.22 1.174.22.71 0 1.338-.166 1.832-.475zm1.576 1.832a.933.933 0 01.015-.012l-1.42-1.098C9.35 11.841 8.666 12 7.92 12a3.952 3.952 0 01-2.34-.764A3.975 3.975 0 014.33 9.734L2.883 10.84a5.744 5.744 0 005.038 2.947c.525 0 1.044-.07 1.542-.208a5.336 5.336 0 001.865-.933zm.55-.497a5.257 5.257 0 001.005-1.509c.342-.77.522-1.646.522-2.606 0-.233-.026-.489-.074-.756H8.276v1.65h3.36l-.086.427a3.114 3.114 0 01-1.01 1.76l1.338 1.034zM2.57 5.882a5.763 5.763 0 00-.409 1.993c0 .03 0 .03-.002.059v.005a2.658 2.658 0 000 .158v.035l.002.059c.019.694.158 1.366.408 1.99l1.507-1.153a4.023 4.023 0 01-.12-.81l-.003-.047-.002-.043a1.595 1.595 0 01.002-.225v-.007l.003-.047c.013-.279.054-.551.121-.816zm.313-.657l1.448 1.107A3.97 3.97 0 017.92 4.067c.807 0 1.572.245 2.22.692l1.283-1.282A5.707 5.707 0 007.92 2.278c-.353 0-.7.032-1.038.093a5.727 5.727 0 00-3.999 2.854zm11.392 9.99a.674.674 0 00.675-.675V1.665a.675.675 0 00-.675-.674H1.4a.675.675 0 00-.674.674V14.54c0 .373.302.674.674.674zm0 .711H1.4c-.765 0-1.385-.62-1.385-1.386V1.665C.015.9.635.28 1.4.28h12.875c.766 0 1.386.621 1.386 1.386V14.54c0 .766-.62 1.386-1.386 1.386z" fill="#132530" fill-rule="evenodd"/></symbol>
<symbol id="i-icon-achtung-bw" viewBox="0 0 12 13" fill="none" xmlns="http://www.w3.org/2000/svg"><path d="M5.25 8.5h1.176v1.176H5.25V8.5zm0-4.676h1.176v3.5H5.25v-3.5zM1.695 2.648C2.844 1.5 4.22.926 5.825.926c1.622 0 2.998.574 4.128 1.722 1.149 1.13 1.723 2.498 1.723 4.102s-.574 2.98-1.723 4.129c-1.13 1.13-2.506 1.695-4.129 1.695-1.604 0-2.98-.565-4.129-1.695C.565 9.73 0 8.354 0 6.75c0-1.604.565-2.971 1.695-4.102zm.848 7.41c.911.912 2.005 1.368 3.281 1.368 1.294 0 2.397-.456 3.309-1.367.911-.912 1.367-2.015 1.367-3.309s-.456-2.397-1.367-3.309C8.22 2.53 7.118 2.074 5.824 2.074c-1.276 0-2.37.456-3.281 1.367-.911.912-1.367 2.015-1.367 3.309s.456 2.397 1.367 3.309z" fill="#AE0808"/></symbol>
<symbol id="i-icon-bask-bw" viewBox="0 0 12 15" fill="none" xmlns="http://www.w3.org/2000/svg"><path d="M.82 13.32v-10h10v10c0 .47-.169.873-.508 1.211-.312.313-.69.469-1.132.469H2.5c-.469 0-.872-.156-1.21-.469a1.724 1.724 0 01-.47-1.21zM11.68.82V2.5H0V.82h2.93L3.75 0h4.18l.82.82h2.93z" fill="gray"/></symbol>
<symbol id="i-icon-cam-bw" xmlns="http://www.w3.org/2000/svg" fill="none" viewBox="0 0 21 20"><path fill="#323232" d="M18.028 4.507V2.488c0-.344-.172-.516-.516-.516H15.54c-.344 0-.516.172-.516.516v2.019c0 .313.172.47.516.47h1.972c.344 0 .516-.157.516-.47zM2.488 18.028h15.024c.344 0 .516-.172.516-.516V9.014h-2.112c.062.376.093.704.093.986 0 1.659-.594 3.083-1.784 4.272C13.067 15.43 11.66 16.01 10 16.01c-1.659 0-3.083-.579-4.272-1.737C4.57 13.082 3.99 11.66 3.99 10c0-.344.03-.673.094-.986H2.019v8.498c0 .344.156.516.47.516zM12.864 7.183C12.08 6.401 11.127 6.01 10 6.01c-1.095 0-2.034.392-2.817 1.174C6.401 7.966 6.01 8.905 6.01 10c0 1.095.392 2.034 1.174 2.817.783.782 1.722 1.174 2.817 1.174 1.127 0 2.081-.392 2.864-1.174.782-.783 1.174-1.722 1.174-2.817 0-1.095-.392-2.034-1.174-2.817zM18.028 0c.564 0 1.033.203 1.409.61.406.376.61.83.61 1.362v16.056c0 .532-.204.986-.61 1.362-.376.407-.846.61-1.409.61H2.018a1.987 1.987 0 01-1.455-.61A1.855 1.855 0 010 18.028V1.972C0 1.44.188.986.563.61.97.203 1.455 0 2.02 0h16.01z"/></symbol>
<symbol id="i-icon-check-bw" xmlns="http://www.w3.org/2000/svg" fill="none" viewBox="0 0 26 19"><path fill="#323232" d="M25.53 2.623L23.25.448A1.592 1.592 0 0022.108 0c-.448 0-.828.15-1.141.448L9.964 10.955 5.032 6.237a1.592 1.592 0 00-1.14-.447c-.448 0-.828.149-1.141.447L.47 8.412A1.45 1.45 0 000 9.5c0 .426.157.79.47 1.088l6.072 5.79 2.281 2.174a1.59 1.59 0 001.14.448c.448 0 .828-.15 1.142-.448l2.28-2.175L25.53 4.798c.313-.299.47-.661.47-1.088 0-.426-.157-.789-.47-1.087z"/></symbol>
<symbol id="i-icon-checkround-bw" viewBox="0 0 12 13" fill="none" xmlns="http://www.w3.org/2000/svg"><path d="M1.695 2.648C2.844 1.5 4.22.926 5.825.926c1.622 0 2.998.574 4.128 1.722 1.149 1.13 1.723 2.498 1.723 4.102s-.574 2.98-1.723 4.129c-1.13 1.13-2.506 1.695-4.129 1.695-1.604 0-2.98-.565-4.129-1.695C.565 9.73 0 8.354 0 6.75c0-1.604.565-2.971 1.695-4.102zm2.98 7.028l5.25-5.25-.82-.848-4.43 4.43L2.57 5.93l-.82.82 2.926 2.926z" fill="#323232"/></symbol>
<symbol id="i-icon-clock-bw" viewBox="0 0 12 13" fill="none" xmlns="http://www.w3.org/2000/svg"><path d="M1.695 2.648C2.844 1.5 4.22.926 5.825.926c1.622 0 2.998.574 4.128 1.722 1.149 1.13 1.723 2.498 1.723 4.102s-.574 2.98-1.723 4.129c-1.13 1.13-2.506 1.695-4.129 1.695-1.604 0-2.98-.565-4.129-1.695C.565 9.73 0 8.354 0 6.75c0-1.604.565-2.971 1.695-4.102zm.848 7.41c.911.912 2.005 1.368 3.281 1.368 1.294 0 2.397-.456 3.309-1.367.911-.912 1.367-2.015 1.367-3.309s-.456-2.397-1.367-3.309C8.22 2.53 7.118 2.074 5.824 2.074c-1.276 0-2.37.456-3.281 1.367-.911.912-1.367 2.015-1.367 3.309s.456 2.397 1.367 3.309zm3.582-6.234v3.063L8.75 8.445l-.438.739-3.062-1.86v-3.5h.875z" fill="#E46027"/></symbol>
<symbol id="i-icon-clock-color" xmlns="http://www.w3.org/2000/svg" fill="none" viewBox="0 0 26 25"><path fill="gray" d="M3.639 3.697C6.103 1.232 9.056 0 12.5 0c3.482 0 6.436 1.232 8.861 3.697 2.465 2.426 3.698 5.36 3.698 8.803 0 3.443-1.233 6.397-3.698 8.861C18.936 23.788 15.982 25 12.5 25c-3.443 0-6.397-1.213-8.861-3.639C1.213 18.898 0 15.944 0 12.5c0-3.443 1.213-6.377 3.639-8.803zm1.819 15.904c1.956 1.956 4.303 2.934 7.042 2.934 2.778 0 5.145-.978 7.1-2.934 1.957-1.956 2.935-4.323 2.935-7.101 0-2.778-.978-5.145-2.934-7.1-1.956-1.957-4.323-2.935-7.101-2.935-2.739 0-5.086.978-7.042 2.934C3.502 7.355 2.523 9.722 2.523 12.5c0 2.778.979 5.145 2.935 7.1zm7.688-13.38v6.572l5.633 3.346-.939 1.584-6.572-3.99V6.22h1.877z"/></symbol>
<symbol id="i-icon-copy-bw" xmlns="http://www.w3.org/2000/svg" fill="none" viewBox="0 0 19 23"><path fill="#323232" d="M14.027 0v2.017H2.017v14.027H0V2.017C0 1.454.188.985.563.61.97.203 1.454 0 2.017 0h12.01zm3.003 4.035c.531 0 .985.203 1.36.61.407.375.61.828.61 1.36v14.027c0 .563-.203 1.032-.61 1.407-.375.407-.829.61-1.36.61H6.005a1.985 1.985 0 01-1.454-.61c-.376-.375-.563-.844-.563-1.407V6.005c0-.532.187-.985.563-1.36.406-.407.891-.61 1.454-.61H17.03zm0 15.997V6.005H6.005v14.027H17.03z"/></symbol>
<symbol id="i-icon-cup-color" xmlns="http://www.w3.org/2000/svg" fill="none" viewBox="0 0 26 23"><path fill="gray" d="M23 0c.719 0 1.318.26 1.797.779.519.479.779 1.078.779 1.797v3.833c0 .679-.26 1.278-.78 1.797-.478.479-1.077.718-1.796.718h-2.576v3.834c0 1.437-.499 2.655-1.497 3.654-.998.998-2.196 1.497-3.594 1.497H7.667c-1.398 0-2.596-.5-3.594-1.497-.998-.999-1.497-2.217-1.497-3.654V0H23zm0 6.409V2.576h-2.576v3.833H23zM0 23v-2.576h23V23H0z"/></symbol>
<symbol id="i-icon-eye-color" xmlns="http://www.w3.org/2000/svg" fill="none" viewBox="0 0 28 19"><path fill="gray" d="M5.463 2.672C7.995.89 10.826 0 13.953 0s5.938.89 8.431 2.672c2.534 1.742 4.354 4.018 5.463 6.828-1.109 2.81-2.93 5.106-5.463 6.887C19.891 18.13 17.08 19 13.954 19c-3.128 0-5.958-.87-8.492-2.613C2.93 14.607 1.109 12.31 0 9.5c1.108-2.81 2.93-5.086 5.463-6.828zm3.978 11.34c1.266 1.228 2.77 1.841 4.512 1.841 1.742 0 3.226-.613 4.453-1.84 1.227-1.267 1.84-2.771 1.84-4.513s-.613-3.226-1.84-4.453c-1.227-1.267-2.711-1.9-4.453-1.9-1.742 0-3.246.633-4.512 1.9C8.214 6.274 7.6 7.758 7.6 9.5c0 1.742.614 3.246 1.84 4.512zm1.78-7.184c.753-.752 1.644-1.128 2.673-1.128 1.069 0 1.979.376 2.731 1.128.752.713 1.128 1.603 1.128 2.672 0 1.069-.376 1.98-1.128 2.731-.752.713-1.662 1.069-2.731 1.069-1.03 0-1.92-.356-2.672-1.069-.713-.752-1.069-1.662-1.069-2.731s.356-1.96 1.069-2.672z"/></symbol>
<symbol id="i-icon-fb-bw" xmlns="http://www.w3.org/2000/svg" fill="none" viewBox="0 0 11 20"><path fill="#323232" d="M6.808 20h-3.71v-9.108H0V7.324h3.099v-2.63c0-1.502.422-2.66 1.267-3.473C5.211.407 6.338 0 7.746 0c1.127 0 2.05.047 2.77.14v3.146l-1.924.047c-.689 0-1.159.141-1.409.423-.25.282-.375.704-.375 1.267v2.3h3.568l-.47 3.569H6.808V20z"/></symbol>
<symbol id="i-icon-fullscreen-color" viewBox="0 0 24 24" fill="none" xmlns="http://www.w3.org/2000/svg"><path d="M3.36 15.36v5h5v3.28H0v-8.28h3.36zM0 8.64V.36h8.36v3.28h-5v5H0zm20 11.72v-5h3.36v8.28H15v-3.28h5zm-5-20h8.36v8.28H20v-5h-5V.36z" fill="#fff"/></symbol>
<symbol id="i-icon-info-bw" viewBox="0 0 26 26" fill="none" xmlns="http://www.w3.org/2000/svg"><path d="M11.25 16.5h2.52v2.52h-2.52V16.5zm0-10.02h2.52v7.5h-2.52v-7.5zM3.633 3.96C6.093 1.5 9.043.27 12.48.27c3.477 0 6.426 1.23 8.848 3.69 2.46 2.423 3.691 5.353 3.691 8.79 0 3.438-1.23 6.387-3.691 8.848-2.422 2.422-5.371 3.633-8.848 3.633-3.437 0-6.387-1.212-8.847-3.633C1.21 19.137 0 16.188 0 12.75c0-3.438 1.21-6.367 3.633-8.79zm1.816 15.88c1.953 1.953 4.297 2.93 7.031 2.93 2.774 0 5.137-.977 7.09-2.93 1.953-1.953 2.93-4.317 2.93-7.09 0-2.773-.977-5.137-2.93-7.09-1.953-1.953-4.316-2.93-7.09-2.93-2.734 0-5.078.977-7.031 2.93-1.953 1.953-2.93 4.317-2.93 7.09 0 2.773.977 5.137 2.93 7.09z" fill="#323232"/></symbol>
<symbol id="i-icon-lock-color" viewBox="0 0 20 28" fill="none" xmlns="http://www.w3.org/2000/svg"><path d="M17.52 9.77c.664 0 1.23.253 1.699.761.508.469.761 1.035.761 1.7V24.77c0 .664-.253 1.23-.761 1.699-.469.508-1.035.761-1.7.761h-15a2.48 2.48 0 01-1.816-.761 2.315 2.315 0 01-.703-1.7V12.232c0-.665.234-1.231.703-1.7A2.48 2.48 0 012.52 9.77h1.23V7.25c0-1.719.605-3.184 1.816-4.395C6.816 1.605 8.301.98 10.02.98c1.718 0 3.183.625 4.394 1.875 1.211 1.211 1.816 2.676 1.816 4.395v2.52h1.29zM8.203 20.316c.508.47 1.094.704 1.758.704.703 0 1.289-.235 1.758-.704a2.48 2.48 0 00.761-1.816c0-.703-.253-1.29-.761-1.758-.469-.508-1.055-.762-1.758-.762-.664 0-1.25.254-1.758.762-.469.469-.703 1.055-.703 1.758 0 .703.234 1.309.703 1.816zM13.887 9.77V7.25c0-1.055-.39-1.953-1.172-2.695-.742-.782-1.66-1.172-2.754-1.172-1.055 0-1.953.39-2.695 1.172-.743.742-1.114 1.64-1.114 2.695v2.52h7.735z" fill="#AAA"/></symbol>
<symbol id="i-icon-net-bw" xmlns="http://www.w3.org/2000/svg" fill="none" viewBox="0 0 18 20"><path fill="#323232" d="M15 14.063c.813 0 1.5.296 2.063.89.562.563.844 1.25.844 2.063 0 .78-.282 1.453-.844 2.015-.563.594-1.25.89-2.063.89a2.73 2.73 0 01-2.062-.89c-.563-.562-.844-1.25-.844-2.062 0-.188.016-.407.047-.657l-7.078-4.125A3 3 0 013 12.985c-.843 0-1.562-.28-2.156-.843C.282 11.547 0 10.828 0 9.984c0-.843.282-1.546.844-2.109A2.937 2.937 0 013 6.985a3 3 0 012.063.796l7.031-4.078A3.354 3.354 0 0112 3c0-.844.282-1.547.844-2.11A2.937 2.937 0 0115 0c.844 0 1.547.297 2.11.89.593.563.89 1.266.89 2.11 0 .813-.297 1.516-.89 2.11-.563.593-1.266.89-2.11.89-.78 0-1.468-.281-2.062-.844L5.907 9.281c.062.281.093.516.093.703 0 .188-.03.422-.093.704l7.125 4.124a2.87 2.87 0 011.968-.75z"/></symbol>
<symbol id="i-icon-phone-color" xmlns="http://www.w3.org/2000/svg" viewBox="0 0 60 100"><linearGradient id="a" gradientUnits="userSpaceOnUse" x1="30" y1="1.8" x2="30" y2="101.8" gradientTransform="matrix(1 0 0 -1 0 102)"><stop offset="0" stop-color="#ff8c55"/><stop offset=".991" stop-color="#ffe542"/></linearGradient><path d="M54 100.2H6c-3.3 0-6-2.7-6-6v-88c0-3.3 2.7-6 6-6h48c3.3 0 6 2.7 6 6v88c0 3.3-2.7 6-6 6z" fill="url(#a)"/><linearGradient id="b" gradientUnits="userSpaceOnUse" x1="30" y1="5.921" x2="30" y2="9.921" gradientTransform="matrix(1 0 0 -1 0 102)"><stop offset=".009" stop-color="#ffe542"/><stop offset="1" stop-color="#ff8c55"/></linearGradient><path d="M40 96.1H20c-1.1 0-2-.9-2-2s.9-2 2-2h20c1.1 0 2 .9 2 2s-.9 2-2 2z" fill="url(#b)"/><linearGradient id="c" gradientUnits="userSpaceOnUse" x1="30" y1="93.476" x2="30" y2="97.476" gradientTransform="matrix(1 0 0 -1 0 102)"><stop offset="0" stop-color="#fff"/><stop offset=".991" stop-color="#ffe542"/></linearGradient><path d="M40 8.5H20c-1.1 0-2-.9-2-2s.9-2 2-2h20c1.1 0 2 .9 2 2s-.9 2-2 2z" fill="url(#c)"/><path fill="#ffda00" d="M33.6 41.1l9.9-4.8-4.7 10 10.4 3.5-10.3 3.8 4.8 9.9-10-4.7-3.5 10.4-3.8-10.3-9.9 4.8 4.7-10-10.4-3.5 10.3-3.8-4.8-9.9 10 4.7 3.5-10.4z"/></symbol>
<symbol id="i-icon-phot-bw" viewBox="0 0 17 16" fill="none" xmlns="http://www.w3.org/2000/svg"><path d="M8.32 11.156c-1.77 0-2.656-.885-2.656-2.656 0-1.77.885-2.656 2.656-2.656 1.797 0 2.696.885 2.696 2.656 0 1.77-.899 2.656-2.696 2.656zM5.82.18h5l1.524 1.64H15c.469 0 .86.17 1.172.508.338.313.508.703.508 1.172v10c0 .469-.17.872-.508 1.21-.313.313-.703.47-1.172.47H1.68c-.47 0-.873-.157-1.211-.47A1.724 1.724 0 010 13.5v-10c0-.469.156-.86.469-1.172a1.653 1.653 0 011.21-.508h2.618L5.82.18zm-.43 11.289c.808.807 1.784 1.21 2.93 1.21 1.146 0 2.123-.403 2.93-1.21.833-.834 1.25-1.823 1.25-2.969s-.417-2.122-1.25-2.93c-.807-.833-1.784-1.25-2.93-1.25-1.146 0-2.122.417-2.93 1.25-.807.808-1.21 1.784-1.21 2.93 0 1.146.403 2.135 1.21 2.969z" fill="gray"/></symbol>
<symbol id="i-icon-plane-color" xmlns="http://www.w3.org/2000/svg" viewBox="0 0 97.2 72"><linearGradient id="a" gradientUnits="userSpaceOnUse" x1="83.457" y1="249.2" x2="-9.994" y2="232.722" gradientTransform="rotate(-6.154 -1910.42 35.1)"><stop offset=".009" stop-color="#fde34e"/><stop offset=".904" stop-color="#ff8d54"/></linearGradient><path fill="url(#a)" d="M30.9 43.4L97.2 0 43.6 49l36.7 18.6L97.2 0 0 31.2z"/><linearGradient id="b" gradientUnits="userSpaceOnUse" x1="17.436" y1="262.435" x2="96.099" y2="233.804" gradientTransform="rotate(-6.154 -1910.42 35.1)"><stop offset=".009" stop-color="#f72"/><stop offset="1" stop-color="#ff984b"/></linearGradient><path fill="url(#b)" d="M43.6 49l-4.3 23-8.4-28.6L97.2 0z"/><linearGradient id="c" gradientUnits="userSpaceOnUse" x1="20.765" y1="272.032" x2="43.15" y2="263.885" gradientTransform="rotate(-6.154 -1910.42 35.1)"><stop offset=".009" stop-color="#f2f1b1"/><stop offset=".904" stop-color="#ff8d54"/></linearGradient><path fill="url(#c)" d="M43.6 49l-4.4 23L58 56.3z"/></symbol>
<symbol id="i-icon-road-color" xmlns="http://www.w3.org/2000/svg" viewBox="0 0 86 80.6"><linearGradient id="a" gradientUnits="userSpaceOnUse" x1="43.012" y1="-180.2" x2="43.012" y2="-131" gradientTransform="matrix(1 0 0 -1 0 -99.6)"><stop offset="0" stop-color="#ea833d"/><stop offset="1" stop-color="#f0be48"/></linearGradient><path d="M70.7 80.6H0c-2-27 98.9-31 42.3-42.1-3.3-4.5 3-7.1 6.1-7.1 76.5 10.4 10.6 32 22.3 49.2z" fill="url(#a)"/><linearGradient id="b" gradientUnits="userSpaceOnUse" x1="33.729" y1="-152.277" x2="33.729" y2="-99.67" gradientTransform="matrix(1 0 0 -1 0 -99.6)"><stop offset="0" stop-color="#ff6038"/><stop offset="1" stop-color="#ffca2b"/></linearGradient><path d="M33.7 0C22.5 0 13.3 9.2 13.3 20.4c0 4.7 1.7 8.9 4.2 12.4l13 18.1c1.6 2.2 4.8 2.2 6.4 0l13-18.1c2.5-3.5 4.2-7.7 4.2-12.4C54.1 9.2 44.9 0 33.7 0zm0 29c-5.2 0-9.3-4.1-9.3-9.3s4.1-9.3 9.3-9.3 9.3 4.1 9.3 9.3-4.2 9.3-9.3 9.3z" fill="url(#b)"/></symbol>
<symbol id="i-icon-rotate-left-bw" viewBox="0 0 20 25" fill="none" xmlns="http://www.w3.org/2000/svg"><path d="M3.848 10.414a7.516 7.516 0 00-1.29 3.106H.04a9.81 9.81 0 012.05-4.864l1.759 1.758zm-1.29 5.566a7.974 7.974 0 001.29 3.106L2.09 20.844A9.81 9.81 0 01.04 15.98h2.519zm1.29 6.68l1.757-1.816a7.517 7.517 0 003.106 1.289v2.52c-1.797-.196-3.418-.86-4.863-1.993zM11.23 4.848c2.46.312 4.53 1.406 6.21 3.28 1.68 1.876 2.52 4.083 2.52 6.622 0 2.54-.84 4.746-2.52 6.621-1.68 1.875-3.75 2.969-6.21 3.281v-2.52c1.757-.312 3.222-1.152 4.394-2.519 1.21-1.406 1.816-3.027 1.816-4.863 0-1.836-.605-3.438-1.816-4.805-1.172-1.406-2.637-2.265-4.395-2.578v4.863L5.488 6.664 11.23.98v3.868z" fill="#323232"/></symbol>
<symbol id="i-icon-rotate-right-bw" viewBox="0 0 20 25" fill="none" xmlns="http://www.w3.org/2000/svg"><path d="M14.453 6.664L8.77 12.23V7.367C7.012 7.68 5.527 8.54 4.316 9.945c-1.171 1.367-1.757 2.97-1.757 4.805 0 1.836.586 3.457 1.757 4.863 1.211 1.367 2.696 2.207 4.454 2.52v2.52c-2.461-.313-4.532-1.407-6.211-3.282C.879 19.496.039 17.29.039 14.75c0-2.54.84-4.746 2.52-6.621 1.68-1.875 3.75-2.969 6.21-3.281V.98l5.684 5.684zm5.508 6.856h-2.52a7.516 7.516 0 00-1.289-3.106l1.758-1.758a9.808 9.808 0 012.05 4.864zm-8.672 8.613a7.499 7.499 0 003.047-1.29l1.816 1.817a10.09 10.09 0 01-4.863 1.992v-2.52zm4.863-3.047a7.516 7.516 0 001.29-3.105h2.519a9.809 9.809 0 01-2.05 4.863l-1.759-1.758z" fill="#323232"/></symbol>
<symbol id="i-icon-time-bw" viewBox="0 0 17 17" fill="none" xmlns="http://www.w3.org/2000/svg"><path d="M3.623 6.723c.325 0 .644-.05.95-.148L6.4 8.399l2-1.999-1.825-1.826a3.107 3.107 0 00-.757-3.137A3.07 3.07 0 003.632.532c-.461 0-.923.105-1.338.303a.213.213 0 00-.059.342l1.92 1.921a.744.744 0 010 1.059.765.765 0 01-1.057 0L1.176 2.235a.212.212 0 00-.342.059 3.1 3.1 0 00.603 3.523c.584.583 1.36.905 2.186.905zM13.378 10.276c-.325 0-.645.052-.952.15l-2.02-2.02-2 2 2.02 2.02a3.11 3.11 0 00.757 3.136c.584.584 1.36.906 2.185.906.461 0 .923-.105 1.338-.303a.213.213 0 00.059-.342l-1.92-1.922a.743.743 0 010-1.058.765.765 0 011.057 0l1.921 1.921a.213.213 0 00.343-.059 3.1 3.1 0 00-.603-3.523 3.07 3.07 0 00-2.185-.906z" fill="gray"/><path d="M12.556 5.723s.334.292.61.156c.311-.157 1.188.708 1.468.91l.006.002-.153.154a.515.515 0 00.727.726l1.211-1.21a.515.515 0 00-.727-.727l-.202.201c-.167-.23-.444-.622-.41-.752.149-.57-1.012-1.914-1.012-1.914C11.19.387 9.266.452 8.35.767c-.368.127-.3.207.082.274 2.78.485 3.124 2.124 2.653 2.756-.181.244.083.539.083.539l.1.099-4.693 4.69a.923.923 0 01.18.138l.79.788a.918.918 0 01.135.179l4.692-4.692.184.185zM6.439 9.578a.488.488 0 00-.653-.024L.57 14.23a.41.41 0 00-.023.608l1.42 1.42a.41.41 0 00.608-.022l4.676-5.216a.488.488 0 00-.024-.652l-.789-.789z" fill="gray"/></symbol>
<symbol id="i-icon-tweet-bw" xmlns="http://www.w3.org/2000/svg" fill="none" viewBox="0 0 21 17"><path fill="#323232" d="M18.818 4.225v.54c0 1.475-.279 2.933-.835 4.374a12.705 12.705 0 01-2.31 3.881c-.982 1.18-2.276 2.146-3.881 2.9C10.22 16.64 8.484 17 6.584 17 4.193 17 1.998 16.361 0 15.084c.328.033.671.049 1.032.049 1.998 0 3.783-.606 5.355-1.818a4.459 4.459 0 01-2.555-.884 4.162 4.162 0 01-1.474-2.113 3.281 3.281 0 001.916-.098 4.188 4.188 0 01-2.456-1.474 4.101 4.101 0 01-.983-2.703v-.049a4.648 4.648 0 001.966.54C1.523 5.65.884 4.455.884 2.949c0-.786.197-1.507.59-2.162a12.445 12.445 0 003.881 3.145 12.288 12.288 0 004.963 1.326 5 5 0 01-.098-.982c0-1.18.41-2.179 1.228-2.998C12.3.426 13.315 0 14.494 0c1.245 0 2.293.442 3.145 1.327.982-.197 1.9-.54 2.751-1.032-.327 1.015-.966 1.801-1.916 2.358a9.09 9.09 0 002.506-.639 9.232 9.232 0 01-2.162 2.211z"/></symbol>
<symbol id="i-icon-wapp-bw" xmlns="http://www.w3.org/2000/svg" fill="none" viewBox="0 0 21 20"><path fill="#323232" d="M10.047 0c2.754 0 5.102.97 7.042 2.91 1.972 1.941 2.958 4.289 2.958 7.043 0 2.723-.986 5.055-2.958 6.995-1.94 1.94-4.288 2.911-7.042 2.911a9.64 9.64 0 01-4.742-1.22L0 20l1.408-5.117A9.862 9.862 0 01.094 9.906c0-2.723.97-5.055 2.91-6.995C4.946.97 7.294 0 10.048 0zm0 18.169c2.285 0 4.24-.798 5.868-2.394 1.628-1.628 2.442-3.584 2.442-5.869 0-2.285-.814-4.225-2.441-5.821-1.628-1.628-3.584-2.442-5.87-2.442-2.284 0-4.24.814-5.868 2.442C2.582 5.68 1.784 7.62 1.784 9.906a8.14 8.14 0 001.268 4.413l.187.282-.845 3.052 3.146-.798.282.14a8.122 8.122 0 004.225 1.174zm4.554-6.197c.282.156.438.266.47.329.125.187.078.579-.141 1.173-.094.25-.33.501-.705.751-.375.22-.704.36-.986.423a4.188 4.188 0 01-1.549-.094 54.615 54.615 0 01-1.408-.516l-.751-.376a7.735 7.735 0 00-.658-.423 10.442 10.442 0 01-.61-.469L7.7 12.3l-.47-.469a7.103 7.103 0 00-.422-.47 3.525 3.525 0 00-.33-.375 1.815 1.815 0 00-.234-.329 1.54 1.54 0 00-.188-.235l-.047-.14C5.321 9.374 4.977 8.513 4.977 7.7c0-.752.297-1.44.892-2.066.187-.22.406-.329.657-.329.188 0 .344.016.47.047.25 0 .437.141.563.423.062.094.156.297.281.61.126.313.235.595.329.845.094.22.14.344.14.376.095.156.11.297.048.422-.094.22-.172.36-.235.423l-.14.14a.735.735 0 00-.142.188c-.03.032-.062.063-.094.094-.187.188-.234.36-.14.517a7.126 7.126 0 001.408 1.737c.407.344 1.08.75 2.019 1.22.219.094.391.079.516-.046.376-.47.642-.799.798-.986.126-.188.313-.235.564-.141.188.094.751.36 1.69.798z"/></symbol>
<symbol id="i-icon-arrow-drop-bw" xmlns="http://www.w3.org/2000/svg" viewBox="0 0 100 100"><path d="M0 25.1h100L50.2 74.9 0 25.1z"/></symbol>
<symbol id="i-icon-ava-bw" xmlns="http://www.w3.org/2000/svg" viewBox="0 0 100 100"><path d="M14.6 14.6C24.4 4.9 36.2 0 50 0s25.6 4.9 35.4 14.6c9.8 9.8 14.6 21.5 14.6 35.3 0 13.8-4.9 25.5-14.6 35.3C75.7 95 63.9 99.8 50 99.8S24.4 95 14.6 85.2C4.9 75.4 0 63.7 0 49.9c0-13.7 4.9-25.5 14.6-35.3zm18.2 67.1C38.1 84.6 43.9 86 50 86c6.2 0 11.9-1.4 17.1-4.3 5.2-2.9 9.5-6.8 12.8-11.8 0-3.1-1.8-5.9-5.5-8.3-3.7-2.4-7.7-4.2-12.2-5.4s-8.5-1.8-12.2-1.8c-3.7 0-7.7.6-12.2 1.8s-8.5 3-12.2 5.4c-3.7 2.4-5.6 5.2-5.7 8.3 3.3 4.9 7.6 8.9 12.9 11.8zm27.8-62.4C57.7 16.4 54.2 15 50 15c-4.1 0-7.7 1.4-10.7 4.3-3 2.9-4.5 6.4-4.5 10.5s1.5 7.7 4.5 10.7c3 3 6.5 4.5 10.7 4.5 4.1 0 7.7-1.5 10.5-4.5 2.9-3 4.3-6.5 4.3-10.7.1-4.1-1.3-7.6-4.2-10.5z"/></symbol>
<symbol id="i-icon-burger-bw" xmlns="http://www.w3.org/2000/svg" viewBox="0 0 100 100"><path d="M0 16.7h100v11.1H0V16.7zm0 38.9V44.4h100v11.1H0zm0 27.7V72.2h100v11.1H0z"/></symbol>
<symbol id="i-icon-call-color" xmlns="http://www.w3.org/2000/svg" viewBox="0 0 100 100"><path d="M94.5 69.5c1.4 0 2.6.5 3.8 1.6 1.1 1 1.7 2.3 1.7 3.9v19.5c0 1.4-.6 2.6-1.7 3.8-1.1 1.1-2.4 1.7-3.8 1.7-17.2 0-33-4.2-47.5-12.6C32.5 79 21 67.5 12.6 53 4.2 38.5 0 22.7 0 5.5c0-1.4.6-2.6 1.7-3.8C2.8.6 4.1 0 5.5 0H25c1.6 0 2.9.6 3.9 1.7s1.6 2.4 1.6 3.8c0 6.9 1 13.5 3.1 19.8.7 2.3.3 4.2-1.3 5.7L20.1 43.2c8.2 16.1 20.4 28.4 36.7 36.7L69 67.7c1.6-1.6 3.5-2 5.7-1.3 6.3 2.1 12.9 3.1 19.8 3.1zM50 0h50v38.8H66.7L50 55.5V0z" fill="#ffc125"/></symbol>
<symbol id="i-icon-close-bw" xmlns="http://www.w3.org/2000/svg" viewBox="0 0 100 100"><path d="M100 10L59.9 49.8 100 89.6l-10 10-40.2-39.7L10 99.7l-10-10 39.8-39.8L0 10 10 0l39.8 39.8L90 0l10 10z"/></symbol>
<symbol id="i-icon-cont-1-bw" xmlns="http://www.w3.org/2000/svg" viewBox="0 0 100 100"><path d="M14.7 14.7C24.4 4.9 36.2 0 50 0s25.6 4.9 35.4 14.6c9.8 9.8 14.6 21.5 14.6 35.2 0 13.7-4.9 25.5-14.6 35.2-9.8 9.9-21.5 14.8-35.4 14.8s-25.6-4.9-35.4-14.6C4.9 75.4 0 63.7 0 49.9c0-13.7 4.9-25.5 14.7-35.2zM11.3 60h16.9c-.5-3.9-.7-7.3-.7-10.1s.2-6.2.7-10.1H11.3c-.8 3.6-1.2 6.9-1.2 10.1 0 3.1.4 6.5 1.2 10.1zm18.9-30c1.6-6.4 3.8-12.3 6.8-17.8-9.4 3.1-16.6 9.1-21.5 17.8h14.7zM15.5 69.8c5 8.7 12.2 14.7 21.5 17.8-3-5.5-5.2-11.4-6.8-17.8H15.5zM61.6 60c.6-3.9.9-7.3.9-10.1s-.3-6.2-.9-10.1H38.2c-.5 3.9-.7 7.3-.7 10.1s.2 6.2.7 10.1h23.4zM49.9 10.1c-4.2 6.1-7.3 12.7-9.4 19.9h19c-2.2-7.2-5.4-13.8-9.6-19.9zm0 79.6c4.2-6.1 7.4-12.7 9.6-19.9h-19c2.1 7.2 5.2 13.8 9.4 19.9zM84.6 30c-5-8.7-12.2-14.7-21.5-17.8 3 5.5 5.2 11.4 6.8 17.8h14.7zM63 87.6c9.4-3.1 16.5-9.1 21.5-17.8H69.8C68.3 76.2 66 82.2 63 87.6zM71.7 60h16.9c.9-3.6 1.4-7 1.4-10.1 0-3.1-.5-6.5-1.4-10.1H71.7c.5 3.9.7 7.3.7 10.1s-.2 6.2-.7 10.1z"/></symbol>
<symbol id="i-icon-cont-2-bw" xmlns="http://www.w3.org/2000/svg" viewBox="0 0 100 100"><path d="M25.1 10.2C31.9 3.4 40.2 0 49.9 0c9.7 0 18 3.4 24.9 10.2C81.7 17 85.1 25.3 85.1 35c0 4.9-1.2 10.4-3.6 16.8-2.5 6.3-5.4 12.2-8.8 17.6-3.4 5.4-6.9 10.5-10.3 15.3-3.4 4.8-6.3 8.6-8.7 11.4l-3.8 4c-.9-.9-2.2-2.3-3.8-4.2-1.6-1.9-4.3-5.5-8.3-10.9s-7.6-10.6-10.7-15.7c-3.1-5.3-5.9-11-8.4-17.4-2.5-6.4-3.8-12-3.8-16.9 0-9.7 3.4-18 10.2-24.8zm16 33.6c2.4 2.4 5.4 3.6 8.8 3.6 3.4 0 6.4-1.2 8.9-3.6 2.5-2.4 3.8-5.4 3.8-8.8 0-3.4-1.3-6.4-3.8-8.8-2.5-2.4-5.5-3.6-8.9-3.6-3.4 0-6.4 1.2-8.8 3.6-2.4 2.4-3.6 5.4-3.6 8.8-.1 3.4 1.2 6.4 3.6 8.8z"/></symbol>
<symbol id="i-icon-cont-3-bw" xmlns="http://www.w3.org/2000/svg" viewBox="0 0 100 100"><path d="M89.9 10c2.8 0 5.2 1 7.1 2.9 2 2 2.9 4.3 2.9 7.1v60c0 2.8-1 5.2-2.9 7.1-2 2-4.3 2.9-7.1 2.9H10.1c-2.8 0-5.2-1-7.1-2.9-2-1.9-3-4.3-3-7.1V20c0-2.8 1-5.2 2.9-7.1 2-2 4.3-2.9 7.1-2.9h79.9zm0 20.1V20l-40 25.1L10.1 20v10.1l39.8 24.8 40-24.8z"/></symbol>
<symbol id="i-icon-cont-4-bw" xmlns="http://www.w3.org/2000/svg" viewBox="0 0 100 100"><path d="M20.1 43.2c8.2 16.1 20.4 28.4 36.7 36.7L69 67.7c1.6-1.7 3.5-2.2 5.7-1.3 6.3 2.1 12.8 3.1 19.8 3.1 1.4 0 2.6.5 3.8 1.6 1.1 1 1.7 2.3 1.7 3.9v19.5c0 1.4-.6 2.6-1.7 3.8-1.1 1.1-2.4 1.7-3.8 1.7-17.2 0-33-4.2-47.5-12.6C32.5 79 21 67.5 12.6 53 4.2 38.5 0 22.7 0 5.5c0-1.4.6-2.6 1.7-3.8C2.8.6 4.1 0 5.5 0H25c1.6 0 2.9.6 3.9 1.7s1.6 2.4 1.6 3.8c0 6.9 1 13.5 3.1 19.8.7 2.3.3 4.2-1.3 5.7L20.1 43.2z"/></symbol>
<symbol id="i-icon-edit-bw" viewBox="0 0 15 15" fill="none" xmlns="http://www.w3.org/2000/svg"><path d="M0 11.875l9.219-9.219 3.125 3.125L3.125 15H0v-3.125zm14.766-8.516l-1.524 1.524-3.125-3.125L11.641.234A.795.795 0 0112.227 0c.234 0 .43.078.585.234l1.954 1.954a.795.795 0 01.234.585c0 .235-.078.43-.234.586z" fill="gray"/></symbol>
<symbol id="i-icon-filter-bw" xmlns="http://www.w3.org/2000/svg" viewBox="0 0 100 100"><path d="M0 16.7h100v11.2H0V16.7zm16.7 38.8v-11h66.7v10.9H16.7zm22.1 27.8V72.1h22.4v11.2H38.8z"/></symbol>
<symbol id="i-icon-profile-bw" xmlns="http://www.w3.org/2000/svg" viewBox="0 0 100 100"><path d="M29.7 65.2c7.4-1.8 14.2-2.6 20.3-2.6s12.9.9 20.3 2.6c7.4 1.8 14.2 4.6 20.3 8.6 6.1 4 9.2 8.5 9.2 13.6V100H.1V87.4c0-5.1 3.1-9.6 9.2-13.6 6.2-4 13-6.8 20.4-8.6zm38-22.5C62.8 47.6 56.9 50 50 50c-6.9 0-12.8-2.4-17.7-7.3C27.4 37.8 25 31.9 25 25c0-6.9 2.4-12.8 7.3-17.7C37.2 2.4 43.1 0 50 0c6.9 0 12.8 2.4 17.7 7.3C72.6 12.2 75 18.1 75 25c0 6.9-2.4 12.8-7.3 17.7z"/></symbol>
<symbol id="i-icon-reg-1-bw" xmlns="http://www.w3.org/2000/svg" viewBox="0 0 100 100"><path d="M0 0h100v11.2H0V0zm66.7 22.1v11.2H0V22.1h66.7zM0 55.5v-11h100v10.9H0zm66.7 11.2v11.2H0V66.7h66.7zM0 100V88.8h100V100H0z"/></symbol>
<symbol id="i-icon-reg-2-bw" xmlns="http://www.w3.org/2000/svg" viewBox="0 0 100 100"><path d="M88.8 0c3.1 0 5.8 1.1 7.9 3.3 2.2 2.2 3.3 4.8 3.3 7.9v77.6c0 3.1-1.1 5.8-3.3 7.9-2.2 2.2-4.8 3.3-7.9 3.3H11.2c-3.1 0-5.8-1.1-7.9-3.3C1.1 94.6 0 91.9 0 88.8V11.2c0-3.1 1.1-5.8 3.3-7.9C5.4 1.1 8.1 0 11.2 0h77.6zm-50 77.9l50-50-7.8-8.1L38.8 62 19 42.2 11.2 50l27.6 27.9z"/></symbol>
<symbol id="i-icon-reg-3-bw" xmlns="http://www.w3.org/2000/svg" viewBox="0 0 100 100"><path d="M89.9 0c2.8 0 5.2 1 7.1 2.9 2 2 2.9 4.3 2.9 6.9v60c0 2.8-1 5.2-2.9 7.1-2 2-4.3 2.9-7.1 2.9h-70L0 99.8v-90c0-2.7 1-5 2.9-6.9C4.9 1 7.3 0 10.1 0h79.8zM30 30V19.9H19.9V30H30zm0 15V34.9H19.9V45H30zm0 15V49.9H19.9V60H30zm49.9-30V19.9H40V30h39.9zm0 15V34.9H40V45h39.9zm-15 15V49.9H40V60h24.9z"/></symbol>
<symbol id="i-icon-reg-4-bw" xmlns="http://www.w3.org/2000/svg" viewBox="0 0 100 100"><path d="M98.8 71.9c.8.8 1.2 1.8 1.2 2.9s-.4 2.1-1.2 2.9L88.5 88.1c-.8.8-1.8 1.2-2.9 1.2s-2.1-.4-2.9-1.2c-3.4-3.1-7.1-5.7-11.1-7.8-1.6-.7-2.3-1.9-2.3-3.7V63.7c-6.1-2-12.5-2.9-19.1-2.9s-13 1-19.1 2.9v12.9c0 1.8-.8 3.1-2.3 3.9-4.2 2.1-7.9 4.6-11.1 7.6-.8.8-1.8 1.2-2.9 1.2s-2.1-.4-2.9-1.2L1.2 77.7C.4 77 0 76 0 74.8s.4-2.1 1.2-2.9c13.7-13 29.9-19.5 48.8-19.5 18.9-.1 35.2 6.5 48.8 19.5zm-72-28.7C17.2 33.4 12.2 28.6 12 28.6l5.9-6.1 14.8 14.8-5.9 5.9zm27.3-32.5v20.7h-8.2V10.7h8.2zm34 17.8L73.2 43.2l-5.9-5.9 14.8-14.8 6 6z"/></symbol>
<symbol id="i-icon-star-empty-color" xmlns="http://www.w3.org/2000/svg" viewBox="0 0 100 100"><path d="M100 38.6L72.6 62.3l8.2 35.2-30.9-18.8-31 18.8 8.2-35.2L0 38.6l35.9-3L50 2.6l14.1 33 35.9 3zm-50.1 31l19 11.3-5.2-21.3L80.4 45l-21.8-1.9-8.7-20.2-8.4 20.2L19.6 45 36 59.5l-4.9 21.3 18.8-11.2z" fill="#ffc125"/></symbol>
<symbol id="i-icon-star-empty-gray-color" xmlns="http://www.w3.org/2000/svg" viewBox="0 0 100 100"><path d="M100 38.6L72.6 62.3l8.2 35.2-30.9-18.8-31 18.8 8.2-35.2L0 38.6l35.9-3L50 2.6l14.1 33 35.9 3zm-50.1 31l19 11.3-5.2-21.3L80.4 45l-21.8-1.9-8.7-20.2-8.4 20.2L19.6 45 36 59.5l-4.9 21.3 18.8-11.2z" fill="#e5e5e5"/></symbol>
<symbol id="i-icon-star-full-color" xmlns="http://www.w3.org/2000/svg" viewBox="0 0 100 100"><path d="M49.9 78.7L19 97.5l8.2-35.2L0 38.6l35.9-3L50 2.6l14.1 33 36.1 3-27.5 23.7 8.2 35.2-31-18.8z" fill="#ffc125"/></symbol>
<symbol id="i-icon-star-half-color" xmlns="http://www.w3.org/2000/svg" viewBox="0 0 100 100"><path d="M100 38.8L72.6 62.4l8.2 35.2-30.9-18.8-31 18.8 8.2-35.2L0 38.8l35.9-3 14-33.4L64 35.7l36 3.1zM49.9 69.5l19 11.5-5.2-21.3 16.6-14.5-21.8-1.9L49.9 23v46.5z" fill="#ffc125"/></symbol>
<symbol id="i-in-bw" xmlns="http://www.w3.org/2000/svg" fill="none" viewBox="0 0 19 19"><path fill="#323232" d="M14.55 11.169c0-.653-.118-1.128-.356-1.424-.237-.327-.682-.49-1.335-.49-.8 0-1.364.238-1.69.712-.327.475-.49 1.142-.49 2.003v6.496a.481.481 0 01-.133.356.481.481 0 01-.356.134H6.808a.592.592 0 01-.356-.134.481.481 0 01-.133-.356V6.452c0-.119.044-.222.133-.311.119-.12.237-.178.356-.178h3.293c.118 0 .207.03.267.089a.432.432 0 01.178.267v.222c.03.06.044.163.044.311.83-.8 1.958-1.201 3.382-1.201 1.572 0 2.803.4 3.693 1.201.89.801 1.335 1.973 1.335 3.516v8.098c0 .148-.06.267-.178.356a.427.427 0 01-.311.134H15.04a.592.592 0 01-.356-.134.481.481 0 01-.134-.356v-7.297zM4.583 2.314c0 .623-.222 1.172-.667 1.646-.445.445-.994.668-1.647.668A2.185 2.185 0 01.667 3.96C.222 3.486 0 2.937 0 2.314 0 1.66.222 1.112.667.667A2.185 2.185 0 012.27 0c.653 0 1.202.222 1.647.667.445.445.667.994.667 1.647zm-.089 4.138v12.014c0 .148-.06.267-.178.356a.427.427 0 01-.311.134H.623a.481.481 0 01-.356-.134.481.481 0 01-.134-.356V6.452c0-.119.045-.222.134-.311a.423.423 0 01.356-.178h3.382c.118 0 .222.059.311.178.119.089.178.192.178.311z"/></symbol>
<symbol id="i-logo-color" xmlns="http://www.w3.org/2000/svg" viewBox="0 0 100 100"><path d="M59.3 56c3.3 3.3 7.7 5 12.1 5 4.4 0 8.8-1.7 12.1-5 3.3-3.3 5-7.7 5-12.1 0-4.4-1.7-8.8-5-12.1-3.3-3.3-7.7-5-12.1-5-4.4 0-8.8 1.7-12.1 5-3.3 3.3-5 7.7-5 12.1-.1 4.4 1.6 8.8 5 12.1M45 15.2c-4.2 0-4.2 6.4 0 6.4h.9c4.2 0 4.2 6.4 0 6.4H34c-4.2 0-4.2 6.4 0 6.4H40.7c4.2 0 4.2 6.4 0 6.4H23.8c-4.2 0-4.2 6.4 0 6.4h8.1c4.2 0 4.2 6.4 0 6.4h-2.5c-4.2 0-4.2 6.4 0 6.4h6.4c4.2 0 4.2 6.4 0 6.4H22.9c-4.2 0-4.2 6.4 0 6.4h48.5C87.2 72.8 100 60 100 44.2S87.2 15.6 71.4 15.6H45zM3.2 66.2c-4.2 0-4.2 6.4 0 6.4h5.9c4.2 0 4.2-6.4 0-6.4H3.2zM10.6 53.4c1.8 0 3.2 1.4 3.2 3.2 0 1.8-1.4 3.2-3.2 3.2-1.8 0-3.2-1.4-3.2-3.2 0-1.8 1.4-3.2 3.2-3.2M5 40.7c-4.2 0-4.2 6.4 0 6.4h5.9c4.2 0 4.2-6.4 0-6.4H5zM28.3 15.2c1.8 0 3.2 1.4 3.2 3.2 0 1.8-1.4 3.2-3.2 3.2-1.8 0-3.2-1.4-3.2-3.2.1-1.7 1.5-3.2 3.2-3.2M22.8 28c1.8 0 3.2 1.4 3.2 3.2 0 1.8-1.4 3.2-3.2 3.2s-3.2-1.4-3.2-3.2c.1-1.8 1.5-3.2 3.2-3.2" fill-rule="evenodd" clip-rule="evenodd" fill="#ffc125"/><path d="M88.5 43.9c0-4.4-1.7-8.8-5-12.1-3.3-3.3-7.7-5-12.1-5-4.4 0-8.8 1.7-12.1 5-3.3 3.3-5 7.7-5 12.1 0 4.4 1.7 8.8 5 12.1 3.3 3.3 7.7 5 12.1 5 4.4 0 8.8-1.7 12.1-5 3.3-3.3 5-7.7 5-12.1M43.2 67c.7-.7 1.6-1 2.5-1.1l8.2-8.2c-3.2-4-4.8-8.9-4.8-13.8a22.188 22.188 0 0122.2-22.2c5.7 0 11.4 2.2 15.7 6.5 4.3 4.4 6.5 10 6.5 15.7a22.188 22.188 0 01-22.2 22.2c-4.9 0-9.8-1.6-13.8-4.8l-8.2 8.2c0 .9-.4 1.8-1.1 2.5L36.6 83.7c-1.4 1.4-3.7 1.4-5.1 0-1.4-1.4-1.4-3.7 0-5.1L43.2 67z" fill="#162930"/></symbol>
<symbol id="i-mastercard-color" xmlns="http://www.w3.org/2000/svg" viewBox="16 0 73 32" preserveAspectRatio="xMinYMid slice"><g fill="none" fill-rule="evenodd"><path fill="#231F20" fill-rule="nonzero" d="M54.9 31.331v.099h.074a.066.066 0 00.04-.013.048.048 0 00.015-.037.046.046 0 00-.015-.037.06.06 0 00-.04-.013H54.9v.001zm.075-.056a.137.137 0 01.089.026c.02.017.032.043.03.07a.08.08 0 01-.024.061.122.122 0 01-.071.03l.099.113h-.076l-.092-.112h-.03v.112h-.063v-.3h.139-.001zm-.02.404a.255.255 0 00.23-.153.257.257 0 000-.197.26.26 0 00-.133-.133.26.26 0 00-.197 0 .253.253 0 00-.08.054.256.256 0 000 .357.254.254 0 00.18.074v-.002zm0-.574a.332.332 0 01.303.199.32.32 0 01-.174.423.33.33 0 01-.433-.176.32.32 0 01.175-.423.33.33 0 01.13-.026l-.001.003zm-30.38-1.159c0-.572.374-1.043.987-1.043.586 0 .981.45.981 1.043s-.395 1.043-.98 1.043c-.614 0-.989-.47-.989-1.043zm2.636 0v-1.629h-.708v.397c-.225-.293-.565-.477-1.029-.477-.912 0-1.629.716-1.629 1.71s.716 1.71 1.63 1.71c.462 0 .803-.184 1.028-.477v.395h.707v-1.629zm23.927 0c0-.572.375-1.043.988-1.043.586 0 .98.45.98 1.043s-.394 1.043-.98 1.043c-.613 0-.988-.47-.988-1.043zm2.637 0V27.01h-.709v1.704c-.224-.293-.565-.477-1.028-.477-.913 0-1.63.716-1.63 1.71s.716 1.71 1.63 1.71c.463 0 .804-.184 1.028-.477v.395h.709v-1.629zM36 28.87c.456 0 .75.286.824.79h-1.69c.076-.47.361-.79.866-.79zm.014-.635c-.954 0-1.622.694-1.622 1.71 0 1.036.694 1.71 1.67 1.71.49 0 .94-.122 1.334-.456l-.347-.525c-.273.218-.62.34-.947.34-.456 0-.872-.21-.974-.797h2.418c.007-.088.014-.177.014-.272-.007-1.015-.635-1.71-1.546-1.71zm8.55 1.71c0-.573.374-1.043.987-1.043.586 0 .98.45.98 1.043 0 .592-.394 1.042-.98 1.042-.613 0-.988-.47-.988-1.042zm2.635 0v-1.628h-.707v.397c-.226-.293-.566-.477-1.029-.477-.913 0-1.629.716-1.629 1.71s.716 1.71 1.63 1.71c.462 0 .802-.184 1.028-.477v.395h.708v-1.63zm-6.635 0c0 .988.688 1.71 1.737 1.71.49 0 .818-.11 1.171-.388l-.34-.573a1.431 1.431 0 01-.853.293c-.565-.006-.981-.415-.981-1.042s.416-1.036.98-1.043c.308 0 .587.102.854.293l.34-.572c-.354-.28-.68-.388-1.17-.388-1.05 0-1.738.722-1.738 1.71zm9.129-1.71c-.409 0-.675.19-.859.477v-.395h-.701v3.256h.709v-1.825c0-.539.231-.838.694-.838.152-.002.302.025.443.082l.218-.668a1.506 1.506 0 00-.504-.089zm-18.981.341c-.34-.225-.81-.34-1.328-.34-.825 0-1.356.395-1.356 1.042 0 .53.395.858 1.123.96l.335.048c.388.055.572.157.572.34 0 .253-.258.396-.743.396-.49 0-.844-.157-1.083-.34l-.333.552c.389.286.88.422 1.41.422.94 0 1.486-.443 1.486-1.063 0-.572-.43-.871-1.138-.974l-.334-.048c-.306-.04-.552-.101-.552-.32 0-.238.232-.381.62-.381a2.1 2.1 0 011.016.28l.306-.573-.001-.001zm9.137-.34c-.409 0-.675.191-.858.477v-.396h-.702v3.256h.708v-1.825c0-.539.232-.838.695-.838.151-.002.302.025.443.082l.218-.668a1.506 1.506 0 00-.505-.089zm-6.043.081h-1.158v-.988h-.716v.988h-.66v.647h.66v1.486c0 .755.294 1.205 1.131 1.205.308 0 .662-.095.886-.251l-.204-.607a1.31 1.31 0 01-.627.184c-.354 0-.47-.218-.47-.545v-1.471h1.158v-.648zM23.22 31.574v-2.043c0-.77-.49-1.288-1.281-1.295-.416-.007-.844.123-1.145.58-.224-.362-.578-.58-1.076-.58-.348 0-.687.102-.954.484v-.403h-.708v3.256h.714v-1.805c0-.565.313-.866.798-.866.47 0 .708.307.708.859v1.812h.716v-1.806c0-.565.326-.865.796-.865.484 0 .715.306.715.858v1.813l.717.001z"/><path fill="#F79410" fill-rule="nonzero" d="M55.304 21.266v-1h-.124l-.144.686-.142-.686h-.125v1h.088v-.753l.134.65h.092l.134-.652v.755h.087zm-.787 0v-.829h.159v-.169h-.406v.17h.159v.828h.088z"/><path fill="#FF5F00" d="M41.21 22.784H30.477V3.5H41.21z"/><path fill="#EB001B" d="M31.159 13.142c0-3.912 1.831-7.397 4.684-9.643a12.211 12.211 0 00-7.58-2.622C21.49.877 16 6.368 16 13.142c0 6.774 5.49 12.265 12.264 12.265 2.75.004 5.42-.92 7.579-2.622a12.245 12.245 0 01-4.684-9.643"/><path fill="#F79E1B" d="M55.687 13.142c0 6.774-5.49 12.265-12.264 12.265-2.75.004-5.42-.92-7.58-2.622a12.243 12.243 0 004.685-9.643c0-3.912-1.832-7.397-4.685-9.643a12.215 12.215 0 017.58-2.622c6.773 0 12.264 5.491 12.264 12.265"/></g></symbol>
<symbol id="i-paypal-color" xmlns="http://www.w3.org/2000/svg" viewBox="5 6 64 18"><g fill="none" fill-rule="evenodd"><path fill="#009CDE" fill-rule="nonzero" d="M48.537 12.628c-.268 1.76-1.612 1.76-2.91 1.76h-.74l.519-3.285a.408.408 0 01.403-.345h.34c.884 0 1.72 0 2.15.504.257.301.335.749.238 1.366m-.566-4.59h-4.9a.682.682 0 00-.674.575l-1.98 12.567a.409.409 0 00.402.472h2.515a.476.476 0 00.471-.402l.563-3.564a.681.681 0 01.672-.575h1.55c3.23 0 5.092-1.562 5.579-4.659.22-1.353.009-2.417-.625-3.162-.697-.82-1.932-1.253-3.572-1.253"/><path fill="#003087" fill-rule="nonzero" d="M13.58 12.628c-.268 1.76-1.611 1.76-2.911 1.76h-.74l.52-3.285a.408.408 0 01.403-.345h.339c.885 0 1.72 0 2.15.504.259.301.336.749.24 1.366m-.566-4.59H8.114a.682.682 0 00-.673.575L5.46 21.18a.408.408 0 00.403.472h2.34c.335 0 .62-.244.673-.575l.535-3.39a.68.68 0 01.672-.576h1.55c3.23 0 5.093-1.562 5.58-4.659.219-1.353.008-2.417-.626-3.162-.697-.82-1.932-1.253-3.572-1.253m11.378 9.103c-.227 1.34-1.29 2.241-2.649 2.241-.68 0-1.226-.22-1.576-.634-.347-.41-.477-.996-.367-1.648.21-1.33 1.292-2.258 2.63-2.258.666 0 1.206.221 1.564.64.36.42.501 1.01.398 1.659m3.27-4.569h-2.346a.409.409 0 00-.404.346l-.103.656-.164-.238c-.508-.737-1.641-.984-2.772-.984-2.593 0-4.808 1.965-5.239 4.72-.224 1.376.095 2.69.874 3.606.716.843 1.738 1.193 2.956 1.193 2.09 0 3.249-1.342 3.249-1.342l-.105.652a.408.408 0 00.404.472h2.113c.335 0 .62-.243.673-.575l1.269-8.033a.409.409 0 00-.405-.472"/><path fill="#009CDE" fill-rule="nonzero" d="M59.35 17.14c-.228 1.34-1.291 2.241-2.649 2.241-.68 0-1.226-.22-1.576-.634-.348-.41-.478-.996-.368-1.648.211-1.33 1.292-2.258 2.63-2.258.667 0 1.207.221 1.565.64.36.42.5 1.01.398 1.659m3.27-4.569h-2.346a.409.409 0 00-.405.346l-.102.656-.164-.238c-.508-.737-1.641-.984-2.773-.984-2.592 0-4.806 1.965-5.238 4.72-.224 1.376.095 2.69.875 3.606.716.843 1.737 1.193 2.955 1.193 2.09 0 3.25-1.342 3.25-1.342l-.105.652a.407.407 0 00.402.472h2.113c.335 0 .62-.243.674-.575l1.268-8.033a.409.409 0 00-.404-.472"/><path fill="#003087" d="M40.164 12.572h-2.36a.678.678 0 00-.562.299l-3.255 4.792-1.38-4.605a.682.682 0 00-.652-.487h-2.318a.409.409 0 00-.387.541l2.597 7.625-2.443 3.447a.409.409 0 00.334.644h2.357c.222 0 .431-.11.559-.292l7.844-11.323a.408.408 0 00-.334-.641"/><path fill="#009CDE" d="M65.386 8.384L63.374 21.18a.409.409 0 00.404.472h2.023c.335 0 .62-.244.673-.575L68.457 8.51a.408.408 0 00-.403-.472H65.79a.408.408 0 00-.404.345"/></g></symbol>
<symbol id="i-rechnung-color" xmlns="http://www.w3.org/2000/svg" viewBox="4 5 65 24"><g fill="none" fill-rule="evenodd"><path fill="#FFFFFE" d="M64.884 7.05H8.094c-1.667 0-3.019 1.32-3.019 2.948v10.505c0 1.628 1.352 2.948 3.018 2.948h44.543l6.168 4.523v-4.523h6.08c1.666 0 3.018-1.32 3.018-2.948V9.998c0-1.628-1.352-2.948-3.018-2.948"/><path fill="#10B5C5" fill-rule="nonzero" d="M52.401 24.138H8.093c-2.055 0-3.722-1.627-3.722-3.635V9.998c0-2.008 1.667-3.635 3.722-3.635h56.79c2.056 0 3.723 1.627 3.723 3.635v10.505c0 2.008-1.667 3.635-3.722 3.635h-5.376v5.213L52.4 24.138zm5.698-1.375h6.785c1.277 0 2.313-1.012 2.313-2.26V9.998c0-1.248-1.036-2.26-2.313-2.26H8.094c-1.278 0-2.314 1.012-2.314 2.26v10.505c0 1.248 1.035 2.26 2.313 2.26h44.778l5.228 3.835v-3.835z"/><path fill="#00080B" d="M14.597 18.616H11.8c-1.358 0-1.75-.816-1.75-1.73v-3.419c0-.913.493-1.739 1.75-1.739h2.757c.18 0 .21.079.21.226v.472c0 .167-.03.216-.21.216H11.8c-.503 0-.714.206-.714.678v1.334h3.139c.17 0 .2.059.2.226v.412c0 .148-.03.226-.2.226h-3.14v1.506c0 .393.202.668.715.668h2.797c.181 0 .211.059.211.226v.472c0 .147-.03.226-.211.226m1.501-2.707v-.496c0-.118.02-.177.161-.177h2.344c.141 0 .161.059.161.177v.496c0 .128-.02.177-.16.177h-2.345c-.14 0-.16-.05-.16-.177m6.99-3.257h-1.67v2.171h1.59c.955 0 1.317-.52 1.317-1.1 0-.423-.2-1.071-1.237-1.071zm-2.747-.403c0-.373.151-.53.544-.53h2.313c1.288 0 2.174.805 2.174 1.965 0 .785-.443 1.395-1.107 1.65v.05c.553.156.714.5.845.962l.583 2.073c.02.069.03.197-.14.197h-.755c-.07 0-.16-.01-.201-.138l-.513-1.857c-.212-.737-.684-.923-1.348-.923h-1.328v2.711c0 .177-.06.207-.232.207h-.603c-.151 0-.232-.03-.232-.207v-6.16zm8.431 1.906c-.825 0-1.288.717-1.328 1.415h2.595c0-.776-.241-1.415-1.267-1.415zm2.15 1.336c0 .688-.393.835-.836.845h-2.736c.02 1.14.704 1.553 1.53 1.553.442 0 .915-.138 1.186-.285.111-.05.161-.04.211.059l.242.461c.05.108.04.177-.06.226-.514.295-1.117.374-1.65.374-1.54 0-2.455-.806-2.455-2.663 0-1.72 1.026-2.712 2.354-2.712 1.52 0 2.213.855 2.213 2.142zm4.479 2.122c.13-.068.171-.02.211.06l.232.471c.07.108.03.177-.06.226-.514.285-1.188.354-1.721.354-1.459 0-2.274-.904-2.274-2.633 0-1.66.916-2.742 2.385-2.742.543 0 1.046.099 1.499.344.09.05.13.118.06.226l-.231.472c-.04.078-.07.118-.212.059a2.852 2.852 0 00-1.096-.236c-.996 0-1.409.884-1.409 1.877 0 .972.292 1.798 1.419 1.798.443 0 .915-.128 1.197-.276m5.785.845c0 .138-.06.158-.18.158h-.635c-.13 0-.18-.02-.18-.158v-2.75c0-1.022-.423-1.514-1.298-1.514-.393 0-.835.05-1.137.177v4.087c0 .138-.05.158-.181.158h-.624c-.12 0-.18-.02-.18-.158v-6.867c0-.138.06-.157.18-.157h.624c.13 0 .18.02.18.157v1.965c.403-.147.926-.207 1.309-.207 1.499 0 2.122.895 2.122 2.349v2.76m5.288.158h-.624c-.12 0-.18-.02-.18-.158v-2.593c0-1.12-.333-1.66-1.57-1.66-.151 0-.453 0-.865.068v4.185c0 .138-.05.158-.181.158h-.624c-.121 0-.181-.02-.181-.158v-4.205c0-.481.14-.746.704-.825.282-.04.905-.079 1.227-.079 1.73 0 2.475.708 2.475 2.486v2.623c0 .138-.05.158-.181.158m1.391-5.168h.624c.12 0 .18.02.18.157v2.594c0 1.12.232 1.66 1.47 1.66.15 0 .453 0 .865-.069v-4.185c0-.138.05-.157.181-.157h.624c.12 0 .18.02.18.157v4.205c0 .481-.23.747-.703.825a9.064 9.064 0 01-1.228.079c-1.73 0-2.374-.708-2.374-2.486v-2.623c0-.138.05-.157.181-.157m9.342 5.168h-.624c-.12 0-.18-.02-.18-.158v-2.593c0-1.12-.333-1.66-1.57-1.66-.151 0-.453 0-.865.068v4.185c0 .138-.05.158-.181.158h-.624c-.12 0-.181-.02-.181-.158v-4.205c0-.481.14-.746.704-.825.282-.04.905-.079 1.227-.079 1.73 0 2.475.708 2.475 2.486v2.623c0 .138-.05.158-.181.158m4.69-4.294a3.988 3.988 0 00-1.076-.147c-.895.01-1.509.52-1.509 1.876 0 1.228.523 1.847 1.398 1.847.242 0 .694-.03 1.187-.167v-3.409zm.865-.629c.1.04.131.099.131.197v4.293c0 1.75-.845 2.397-2.585 2.623-.1.01-.161 0-.181-.108l-.08-.619c0-.068.02-.118.11-.137 1.147-.167 1.72-.472 1.72-1.346v-.05a5.369 5.369 0 01-1.287.187c-1.58 0-2.284-1.08-2.284-2.623 0-1.611.774-2.75 2.485-2.75.644 0 1.378.088 1.971.333z"/></g></symbol>
<symbol id="i-sofort-color" xmlns="http://www.w3.org/2000/svg" viewBox="4 7 66 21"><g fill="none" fill-rule="evenodd"><g fill="#F47216"><path d="M57.817 7.256c.224.177.417.38.579.611.412.594.57 1.3.476 2.11h2.11l-3.18 8.741h3.177l3.183-8.741h4.083l.99-2.721H57.817z"/><path fill-rule="nonzero" d="M54.574 10.911c-.34.917-.951 1.483-2.113 1.483h-.607l1.029-2.772h.585c1.069 0 1.469.313 1.106 1.29m3.084-2.532c-.523-.753-1.586-1.123-3.253-1.124h-3.858l-4.172 11.46h3.544l1.517-4.034c.074.166.969 4.034.969 4.034h3.726s-.678-2.842-1.177-3.99c-.127-.295-.261-.626-.44-.903 1.053-.39 2.578-1.23 3.21-2.932.388-1.046.365-1.89-.066-2.511"/><path d="M22.042 7.25h-6.571c-1.036 0-2.043 0-2.944.456-.902.459-1.698 1.374-2.31 3.206-.133.394-.204.733-.213 1.027-.01.295.042.547.154.765.138.266.361.517.64.728.28.211.616.383.976.493l.433.123c.23.066.497.145.666.196.1.03.21.07.308.13a.548.548 0 01.302.483.778.778 0 01-.045.274c-.084.25-.212.41-.455.508-.242.097-.6.13-1.141.133H5.08l-1.07 2.937h7.239c.681 0 1.927 0 3.123-.509 1.197-.508 2.345-1.525 2.83-3.558.183-.764.126-1.386-.173-1.875-.3-.49-.843-.843-1.634-1.07l-.385-.112-.57-.163a.765.765 0 01-.45-.324.64.64 0 01-.067-.514.751.751 0 01.376-.451c.19-.105.44-.163.732-.163h4.207c.03-.043.057-.09.086-.133.77-1.087 1.7-1.967 2.718-2.588"/><path fill-rule="nonzero" d="M25.129 12.926c-.983 2.688-1.696 3.365-2.768 3.365h-.002c-1.046-.001-1.412-.663-.434-3.338.73-1.997 1.676-3.275 2.82-3.275h.001c1.09.002 1.338.632.383 3.248m3.37-4.603c-.573-.82-1.553-1.236-2.917-1.237-.892 0-1.757.205-2.57.587-1.16.55-2.212 1.467-3.072 2.682a11.681 11.681 0 00-1.41 2.73c-.705 1.93-.698 3.498.024 4.531.409.584 1.259 1.281 2.987 1.283h.007c3.148 0 5.498-2.063 6.987-6.133.393-1.077.911-3.087-.036-4.443"/><path d="M41.08 7.25h-6.697c-1.873 0-3.267.946-3.925 2.72l-3.18 8.74h3.484l1.635-4.494 3.08.002.875-2.406-3.07-.002.495-1.393c.103-.25.349-.448.71-.448l3.63.001c.03-.043.058-.09.087-.133.769-1.087 1.857-1.967 2.876-2.588"/><path fill-rule="nonzero" d="M44.126 12.926c-.982 2.688-1.695 3.365-2.768 3.365h-.002c-1.046-.001-1.41-.663-.433-3.338.73-1.997 1.676-3.275 2.82-3.275h.002c1.087.002 1.337.632.38 3.248m3.371-4.603c-.573-.82-1.553-1.236-2.917-1.237-.891 0-1.757.205-2.569.587-1.16.55-2.213 1.467-3.072 2.682a11.626 11.626 0 00-1.41 2.73c-.706 1.93-.698 3.498.024 4.531.408.584 1.258 1.281 2.987 1.283h.006c3.15 0 5.5-2.063 6.987-6.133.394-1.077.912-3.087-.036-4.443"/></g><g fill="#2F2E34"><path fill-rule="nonzero" d="M8.033 23.105a.862.862 0 00.06-.308.365.365 0 00-.076-.226.46.46 0 00-.216-.139 1.34 1.34 0 00-.411-.048h-.585l-.538 1.478h.647c.166 0 .307-.02.421-.06a1.085 1.085 0 00.544-.404 1.25 1.25 0 00.154-.293m-.592 2.437a.897.897 0 00.063-.355.427.427 0 00-.098-.26.563.563 0 00-.266-.164 1.68 1.68 0 00-.495-.057H5.96l-.59 1.618h.836c.161 0 .303-.016.425-.05s.236-.084.34-.15a1.133 1.133 0 00.47-.582m1.215-.04a2.366 2.366 0 01-.673.985 2.517 2.517 0 01-.47.326 3.21 3.21 0 01-.533.224 3.518 3.518 0 01-.572.13 4.527 4.527 0 01-.638.041H4.257c-.096 0-.167-.028-.213-.086-.045-.057-.044-.15.003-.279l1.806-4.96a.542.542 0 01.2-.28.494.494 0 01.275-.086h1.43c.349 0 .633.03.854.088.22.06.392.148.515.267a.726.726 0 01.216.45c.022.182-.012.396-.102.642a1.876 1.876 0 01-.47.721 1.94 1.94 0 01-.747.449c.15.029.28.08.39.154.11.073.195.168.253.283.059.117.09.252.091.408.003.155-.032.33-.102.523m4.431-2.898h-.004l-1.686 2.418h1.614l.076-2.418zm1.093 4.173a1.347 1.347 0 01-.025.25.22.22 0 01-.086.14.396.396 0 01-.192.057 6.936 6.936 0 01-.69.004.725.725 0 01-.182-.026c-.039-.013-.063-.032-.072-.055a.228.228 0 01-.01-.093l.033-1.143H10.82l-.766 1.113a.565.565 0 01-.084.103.292.292 0 01-.116.066.845.845 0 01-.193.033 4.41 4.41 0 01-.62-.004c-.073-.009-.118-.03-.135-.065-.017-.033-.01-.08.02-.142a2.22 2.22 0 01.157-.247l3.592-5.048a.755.755 0 01.105-.12.343.343 0 01.139-.072c.057-.016.131-.026.224-.03a9.065 9.065 0 01.774 0 .961.961 0 01.229.03c.05.017.083.04.096.073a.316.316 0 01.016.132l-.077 5.044z"/><path d="M20.073 26.804a.627.627 0 01-.586.413h-.492a.9.9 0 01-.255-.03.334.334 0 01-.166-.113.609.609 0 01-.102-.22 2.863 2.863 0 01-.068-.358l-.448-2.66a9.209 9.209 0 01-.098-1.048h-.009a29.947 29.947 0 01-.43 1.28l-1.084 2.978a.2.2 0 01-.053.079.29.29 0 01-.105.059.82.82 0 01-.175.038 2.363 2.363 0 01-.514 0 .468.468 0 01-.144-.038c-.033-.016-.052-.035-.058-.059a.136.136 0 01.007-.08l1.861-5.114a.606.606 0 01.234-.31.606.606 0 01.335-.103h.62c.111 0 .201.01.27.028.07.019.127.05.17.095a.435.435 0 01.103.182c.025.078.045.174.058.288l.352 2.08.056.372c.019.122.035.244.05.365a28.125 28.125 0 01.075.71h.004a32.229 32.229 0 01.44-1.28l.972-2.669a.186.186 0 01.055-.08.342.342 0 01.11-.06.693.693 0 01.177-.038 2.42 2.42 0 01.263-.011c.1 0 .182.003.247.01.065.008.112.02.142.038.03.018.049.039.055.061a.134.134 0 01-.007.08l-1.862 5.115zm5.726.233a.23.23 0 01-.056.086.276.276 0 01-.114.061 1.034 1.034 0 01-.2.038 2.938 2.938 0 01-.305.013c-.19 0-.325-.008-.403-.022-.078-.015-.13-.037-.156-.066a.193.193 0 01-.048-.106l-.736-2.7-.983 2.7a.207.207 0 01-.057.084.306.306 0 01-.114.059.955.955 0 01-.19.038 2.6 2.6 0 01-.286.013 2.51 2.51 0 01-.274-.013.628.628 0 01-.165-.038c-.038-.016-.062-.035-.073-.059a.111.111 0 01.002-.084l1.952-5.36a.194.194 0 01.058-.084.32.32 0 01.116-.058 1.25 1.25 0 01.191-.035 2.51 2.51 0 01.284-.014c.114 0 .207.005.277.014.07.01.124.02.163.035.038.015.062.034.07.058.01.023.009.05-.003.083l-.882 2.424 2.547-2.42a.547.547 0 01.11-.094.467.467 0 01.136-.06.971.971 0 01.191-.03 3.542 3.542 0 01.57.004.75.75 0 01.17.038c.039.016.063.035.072.059.01.023.008.05-.003.08a.509.509 0 01-.095.153 5.92 5.92 0 01-.24.25l-2.306 2.046.765 2.573c.021.12.03.2.03.24a.298.298 0 01-.015.094m2.317.013a.186.186 0 01-.057.08.308.308 0 01-.115.056c-.05.015-.112.027-.19.036a2.59 2.59 0 01-.285.013 2.53 2.53 0 01-.275-.013.715.715 0 01-.165-.036c-.039-.014-.064-.033-.074-.057a.102.102 0 010-.079l1.957-5.374c.01-.03.03-.056.057-.08a.32.32 0 01.118-.057c.05-.014.114-.026.19-.035a2.46 2.46 0 01.282-.014c.114 0 .207.005.277.014.07.01.125.02.163.035.038.015.064.034.073.058a.097.097 0 010 .079l-1.956 5.374zm6.436-.246a.627.627 0 01-.585.413h-.493a.898.898 0 01-.255-.03.332.332 0 01-.166-.113.6.6 0 01-.102-.22 2.942 2.942 0 01-.068-.358l-.448-2.66a9.69 9.69 0 01-.063-.513 6.923 6.923 0 01-.035-.535h-.008a27.376 27.376 0 01-.432 1.28l-1.083 2.978a.2.2 0 01-.053.079.293.293 0 01-.105.059.81.81 0 01-.174.038 2.228 2.228 0 01-.265.013c-.102 0-.186-.005-.25-.013a.472.472 0 01-.145-.038c-.032-.016-.05-.035-.057-.059a.136.136 0 01.007-.08l1.861-5.114a.602.602 0 01.568-.413h.62c.112 0 .203.01.272.028.069.019.126.05.17.095a.43.43 0 01.102.182 1.6 1.6 0 01.058.288l.352 2.08.056.372c.018.122.035.244.05.365.014.121.028.241.04.359.014.117.025.234.036.351h.004a34.93 34.93 0 01.44-1.28l.971-2.669a.186.186 0 01.055-.08.342.342 0 01.11-.06.693.693 0 01.177-.038c.07-.008.157-.011.263-.011.1 0 .182.003.247.01.065.008.112.02.142.038.03.018.049.039.055.061a.13.13 0 01-.007.08l-1.862 5.115zm7.824-4.403a2.28 2.28 0 01-.091.22.963.963 0 01-.085.148.272.272 0 01-.076.077.147.147 0 01-.076.022c-.038 0-.09-.027-.156-.08a1.818 1.818 0 00-.276-.171 2.616 2.616 0 00-.44-.172 2.297 2.297 0 00-.652-.079c-.276 0-.542.048-.8.143-.257.095-.497.23-.718.405-.222.174-.42.384-.595.629a3.445 3.445 0 00-.423.81c-.118.327-.18.613-.183.86-.003.25.042.456.137.623a.891.891 0 00.423.378c.187.085.413.128.677.128a1.942 1.942 0 00.798-.176l.48-1.32h-1.077c-.053 0-.082-.032-.087-.099-.005-.065.021-.177.079-.336.03-.082.058-.15.086-.207a.72.72 0 01.082-.133.33.33 0 01.08-.075.153.153 0 01.078-.025h1.922a.25.25 0 01.117.025.16.16 0 01.07.073.235.235 0 01.022.116.516.516 0 01-.035.156l-.825 2.265a.77.77 0 01-.13.231.539.539 0 01-.246.156 5.91 5.91 0 01-1.354.29 5.195 5.195 0 01-.473.022c-.453 0-.837-.065-1.148-.195a1.496 1.496 0 01-.706-.567c-.16-.248-.24-.55-.242-.907-.003-.356.079-.76.243-1.212a4.9 4.9 0 01.668-1.255c.275-.371.59-.686.942-.946a4.116 4.116 0 013.102-.751c.19.033.35.074.484.123.134.047.24.1.32.155a.569.569 0 01.156.146c.025.04.032.098.023.173-.01.075-.042.186-.095.332"/></g></g></symbol>
<symbol id="i-twitter-icon-bw" viewBox="0 0 16 16" xmlns="http://www.w3.org/2000/svg"><path d="M12.295 3.84a.364.364 0 01-.34-.112 2.198 2.198 0 00-1.629-.722c-1.231 0-2.234 1.028-2.234 2.3 0 .181.02.357.058.526a.364.364 0 01-.373.444A7.655 7.655 0 012.545 3.81a2.376 2.376 0 00-.093.66c0 .78.38 1.493.998 1.916.3.205.147.674-.216.664a2.865 2.865 0 01-.741-.12c.202.858.872 1.537 1.732 1.714.372.076.392.601.027.706-.222.063-.454.099-.692.106a2.224 2.224 0 001.852 1.076c.34.007.486.435.221.648a5.507 5.507 0 01-2.642 1.16 6.832 6.832 0 002.55.493c4.127 0 7.03-3.376 7.03-7.217 0-.105-.003-.215-.007-.333a.364.364 0 01.147-.305c.153-.113.3-.235.438-.365a5.394 5.394 0 01-.375.058c-.388.047-.566-.468-.233-.672.157-.096.301-.21.43-.34-.221.074-.447.135-.676.18zm1.39-1.314a.364.364 0 01.536.419c-.075.243-.18.473-.311.686a4.81 4.81 0 00.163-.07c.331-.15.653.224.456.529a5.683 5.683 0 01-1.232 1.356l.001.17c0 4.22-3.201 7.945-7.757 7.945-1.5 0-2.94-.441-4.183-1.256-.32-.21-.14-.71.242-.666a4.75 4.75 0 002.866-.551A3.003 3.003 0 012.63 9.155a.363.363 0 01.16-.421 3.056 3.056 0 01-1.088-2.347v-.032c0-.235.213-.396.425-.36a3.075 3.075 0 01-.403-1.525c0-.54.14-1.062.398-1.52a.364.364 0 01.602-.048c1.158 1.457 2.817 2.397 4.647 2.61a3.197 3.197 0 01-.007-.206c0-1.67 1.325-3.028 2.962-3.028.76 0 1.475.293 2.015.806a4.74 4.74 0 001.344-.558zm.603 12.454a.66.66 0 00.66-.66V1.526a.66.66 0 00-.66-.66H1.493a.66.66 0 00-.66.66V14.32c0 .365.296.66.66.66zm0 .728H1.493A1.387 1.387 0 01.106 14.32V1.526C.106.76.727.14 1.493.14h12.795c.766 0 1.387.62 1.387 1.387V14.32c0 .767-.62 1.388-1.387 1.388z" fill="#132530" fill-rule="evenodd"/></symbol>
<symbol id="i-visa-color" xmlns="http://www.w3.org/2000/svg" viewBox="13 9 45 15"><g fill="none" fill-rule="evenodd"><path fill="#2566AF" fill-rule="nonzero" d="M31.476 23.19h-3.65l2.281-14.018h3.65L31.476 23.19zm-6.72-14.018l-3.48 9.642-.412-2.076-1.227-6.304s-.149-1.262-1.732-1.262h-5.752l-.068.237s1.76.366 3.818 1.603l3.171 12.179h3.803l5.807-14.02h-3.928zM53.463 23.19h3.351L53.892 9.17h-2.934c-1.354 0-1.684 1.045-1.684 1.045L43.83 23.191h3.805l.76-2.083h4.64l.428 2.083zm-4.016-4.96l1.918-5.245 1.078 5.246h-2.996zm-5.331-5.688l.52-3.01s-1.607-.612-3.282-.612c-1.811 0-6.113.792-6.113 4.641 0 3.622 5.049 3.667 5.049 5.57 0 1.902-4.528 1.56-6.023.361l-.542 3.148s1.63.791 4.12.791 6.247-1.29 6.247-4.8c0-3.644-5.093-3.983-5.093-5.568 0-1.585 3.555-1.382 5.117-.521z"/><path fill="#E6A540" d="M20.865 16.738l-1.228-6.304s-.149-1.263-1.732-1.263h-5.752l-.068.238s2.765.573 5.417 2.72c2.536 2.052 3.363 4.609 3.363 4.609z"/></g></symbol>
<symbol id="i-youtube-icon-bw" viewBox="0 0 16 16" xmlns="http://www.w3.org/2000/svg"><path d="M13.222 8.618v-.866a15.37 15.37 0 00-.094-1.637 2.525 2.525 0 00-.049-.32 2.845 2.845 0 00-.114-.391 1.07 1.07 0 00-.207-.365 1.184 1.184 0 00-.167-.147c-.205-.148-.347-.183-.703-.22l-.026-.004a36.016 36.016 0 00-1.268-.065 76.77 76.77 0 00-2.647-.048h-.005a48.26 48.26 0 00-.827.006c-.621.008-1.243.021-1.822.042-.476.017-.902.039-1.25.064l-.042.004c-.36.038-.503.074-.71.226-.056.04-.11.088-.166.147-.07.07-.14.196-.201.36a2.853 2.853 0 00-.163.71 17.855 17.855 0 00-.093 1.638v.866a15.381 15.381 0 00.093 1.64l.016.146a2.858 2.858 0 00.147.566c.061.163.132.29.205.364.09.094.19.165.303.218.172.08.266.1.628.145a.822.822 0 01.089.013c.32.031.937.058 1.759.078a133.028 133.028 0 002.036.036 49.662 49.662 0 00.827-.008c.62-.008 1.241-.023 1.82-.044.478-.018.906-.04 1.253-.064l.043-.005c.357-.037.499-.073.704-.221.058-.042.113-.09.172-.152.07-.071.14-.197.202-.36a2.85 2.85 0 00.163-.712 17.733 17.733 0 00.094-1.64zm.711 0a16.02 16.02 0 01-.097 1.715 3.19 3.19 0 01-.062.398 3.545 3.545 0 01-.143.49 1.715 1.715 0 01-.624.838c-.192.139-.397.23-.614.284a2.345 2.345 0 01-.432.068l-.048.005c-.374.027-.81.049-1.296.067a79.735 79.735 0 01-2.852.05A152.765 152.765 0 015.89 12.5c-.84-.022-1.468-.048-1.841-.086a2.058 2.058 0 01-.919-.218 1.695 1.695 0 01-.512-.367 1.72 1.72 0 01-.36-.608 3.553 3.553 0 01-.205-.888 18.497 18.497 0 01-.096-1.715v-.866a16.109 16.109 0 01.096-1.711 3.193 3.193 0 01.061-.398c.037-.166.084-.333.144-.49.093-.248.209-.454.356-.604a1.777 1.777 0 01.877-.517c.144-.037.185-.042.436-.068l.048-.005c.374-.027.809-.05 1.293-.067a77.493 77.493 0 012.674-.048h.005a48.868 48.868 0 01.836.006c.626.007 1.252.02 1.837.042.484.018.92.04 1.311.068l.03.004c.25.026.29.03.432.067a1.775 1.775 0 01.877.514c.15.153.267.36.36.607a3.54 3.54 0 01.206.888 18.507 18.507 0 01.097 1.712v.004zm-7.507 1.629l-.001-4.363 4.167 2.19zM9.058 8.07l-1.921-1.01v2.012zm5.24 7.067a.664.664 0 00.663-.664V1.724a.664.664 0 00-.664-.664H1.547a.664.664 0 00-.664.664v12.75c0 .367.297.664.664.664zm0 .712H1.547c-.76 0-1.377-.616-1.377-1.376V1.724C.171.964.787.348 1.547.348h12.75c.76 0 1.376.616 1.376 1.376v12.75c0 .76-.616 1.376-1.376 1.376z" fill="#132530" fill-rule="evenodd"/></symbol>
</svg>