<?xml version="1.0" standalone="no"?>
<!DOCTYPE svg PUBLIC "-//W3C//DTD SVG 1.1//EN" "http://www.w3.org/Graphics/SVG/1.1/DTD/svg11.dtd" >
<svg xmlns="http://www.w3.org/2000/svg" xmlns:xlink="http://www.w3.org/1999/xlink" version="1.1">
<metadata>
Created by FontForge 20170731 at Tue Apr  5 04:38:34 2016
 By Aleksey,,,
(c) 2016 Connary Fagen
</metadata>
<defs>
<font id="VisbyCF-BoldOblique" horiz-adv-x="627" >
  <font-face 
    font-family="Visby CF Bold"
    font-weight="700"
    font-style="oblique"
    font-stretch="normal"
    units-per-em="1000"
    panose-1="0 0 8 0 0 0 0 0 0 0"
    ascent="800"
    descent="-200"
    x-height="520"
    cap-height="700"
    bbox="-326 -256 1150 981"
    underline-thickness="50"
    underline-position="-200"
    slope="-6"
    unicode-range="U+0020-FB02"
  />
<missing-glyph horiz-adv-x="495" 
d="M406 800v-990h-314v990h314zM330 734h-164v-33h65v-37h-66v-32h165v32h-66v37h66v33zM264 606h-99v-103h165v34h-66v69zM231 572v-35h-33v35h33zM330 476h-165v-32h66v-37h-66v-33h99v70h66v32zM330 417h-33v-65h-132v-34h165v99zM330 296h-99v-55h33v22h33v-46h-99v79
h-33v-112h165v112zM330 125h-165v-112h165v112zM297 92v-46h-99v46h99zM330 -10h-165v-32h70l-70 -47v-33h165v33h-101l69 47h32v32z" />
    <glyph glyph-name="fi" unicode="fi" horiz-adv-x="589" 
d="M88 547q6 53 27 89.5t51 52.5t56 22t54 6q73 0 126 -34l-49 -87q-35 15 -66 15q-34 0 -50.5 -20.5t-19.5 -48.5l-2 -22h123l-10 -106h-124l-44 -414h-129l44 414h-65l10 106h66zM413 520h128l-55 -520h-128z" />
    <glyph glyph-name="fl" unicode="fl" horiz-adv-x="621" 
d="M88 547q6 53 27 89.5t51 52.5t56 22t54 6q73 0 126 -34l-49 -87q-35 15 -66 15q-34 0 -50.5 -20.5t-19.5 -48.5l-2 -22h123l-10 -106h-124l-44 -414h-129l44 414h-65l10 106h66zM464 707h129l-75 -707h-129z" />
    <glyph glyph-name="f_f" unicode="ff" horiz-adv-x="786" 
d="M662 611q-34 0 -50.5 -20.5t-19.5 -48.5l-3 -22h124l-10 -106h-124l-45 -414h-128l44 414h-184h-62l-44 -414h-129l44 414h-65l10 106h66l2 27q6 53 27 89.5t51 52.5t56 22t54 6q73 0 126 -34l-49 -87q-35 15 -66 15q-34 0 -50.5 -20.5t-19.5 -48.5l-2 -22h219h27l2 27
q6 53 27 89.5t51 52.5t55.5 22t53.5 6q74 0 127 -34l-49 -87q-35 15 -66 15z" />
    <glyph glyph-name=".notdef" horiz-adv-x="495" 
d="M406 800v-990h-314v990h314zM330 734h-164v-33h65v-37h-66v-32h165v32h-66v37h66v33zM264 606h-99v-103h165v34h-66v69zM231 572v-35h-33v35h33zM330 476h-165v-32h66v-37h-66v-33h99v70h66v32zM330 417h-33v-65h-132v-34h165v99zM330 296h-99v-55h33v22h33v-46h-99v79
h-33v-112h165v112zM330 125h-165v-112h165v112zM297 92v-46h-99v46h99zM330 -10h-165v-32h70l-70 -47v-33h165v33h-101l69 47h32v32z" />
    <glyph glyph-name=".null" horiz-adv-x="0" 
 />
    <glyph glyph-name="nonmarkingreturn" horiz-adv-x="333" 
 />
    <glyph glyph-name="space" unicode=" " horiz-adv-x="300" 
 />
    <glyph glyph-name="exclam" unicode="!" horiz-adv-x="262" 
d="M222 700l-51 -479h-147l51 479h147zM80 -5q-33 0 -53.5 23t-16.5 57q3 29 24.5 48.5t51.5 19.5q33 0 53.5 -23t16.5 -57q-3 -29 -24.5 -48.5t-51.5 -19.5z" />
    <glyph glyph-name="quotedbl" unicode="&#x22;" horiz-adv-x="462" 
d="M185 700l-18 -175h-131l18 175h131zM426 700l-18 -175h-131l18 175h131z" />
    <glyph glyph-name="numbersign" unicode="#" horiz-adv-x="550" 
d="M493 408h-58l-19 -115h65l-12 -113h-73l-32 -180h-131l32 180h-81l-32 -180h-132l33 180h-44l12 113h52l19 115h-59l12 112h68l32 180h131l-32 -180h81l32 180h131l-32 -180h49zM285 293l19 115h-81l-19 -115h81z" />
    <glyph glyph-name="dollar" unicode="$" horiz-adv-x="563" 
d="M311 408q97 -37 143.5 -84.5t46.5 -113.5q0 -95 -69.5 -154t-164.5 -69l-8 -77h-66l8 77q-80 9 -135.5 56.5t-71.5 116.5l105 48q30 -90 114 -102l22 208l-13 5q-80 30 -123 72.5t-43 115.5q0 86 65 141.5t156 62.5l8 80h66l-9 -83q66 -11 111.5 -51.5t67.5 -92.5
l-102 -52q-36 64 -89 79zM184 511q0 -28 15 -46t48 -33l17 162q-35 -6 -57.5 -28t-22.5 -55zM280 109q39 9 62.5 34t23.5 65q0 27 -16 45t-52 35z" />
    <glyph glyph-name="percent" unicode="%" horiz-adv-x="698" 
d="M173 705q54 0 88 -37.5t28 -91.5q-5 -49 -43 -83t-88 -34q-54 0 -88 37.5t-28 91.5q5 49 43 83t88 34zM523 702l97 -65l-493 -637l-99 65zM169 621q-18 0 -30.5 -13t-12.5 -32q1 -14 11.5 -23.5t24.5 -9.5q18 0 31 13t12 32q-1 14 -11.5 23.5t-24.5 9.5zM504 241
q54 0 88 -37.5t28 -91.5q-5 -49 -43 -83t-88 -34q-54 0 -88 37.5t-28 91.5q5 49 43 83t88 34zM500 157q-18 0 -30.5 -13t-12.5 -32q1 -14 11.5 -23.5t24.5 -9.5q18 0 30.5 13t12.5 32q-1 14 -11.5 23.5t-24.5 9.5z" />
    <glyph glyph-name="ampersand" unicode="&#x26;" horiz-adv-x="758" 
d="M577 157q-4 -30 4 -40t29 -10q35 0 68 18l-6 -109q-32 -22 -80 -22q-56 0 -81 32t-20 84q-68 -120 -226 -120q-107 0 -178.5 61.5t-60.5 175.5q9 83 63 134t124 66l-113 273h468l-12 -112h-295l105 -248h-49q-62 0 -108.5 -35.5t-52.5 -89.5q-5 -54 29 -83t94 -29
q65 0 117 33.5t60 106.5l19 180h207l-12 -106h-78z" />
    <glyph glyph-name="quotesingle" unicode="'" horiz-adv-x="201" 
d="M185 700l-18 -175h-131l18 175h131z" />
    <glyph glyph-name="parenleft" unicode="(" horiz-adv-x="325" 
d="M301 743q-120 -184 -148 -429q-25 -256 53 -446l-122 4q-87 192 -59 454q25 244 149 421z" />
    <glyph glyph-name="parenright" unicode=")" horiz-adv-x="326" 
d="M72 747l122 -4q89 -180 62 -429q-26 -257 -152 -446l-127 4q124 198 150 454q26 238 -55 421z" />
    <glyph glyph-name="asterisk" unicode="*" horiz-adv-x="518" 
d="M446 548l-101 -27l58 -88l-98 -58l-51 85l-69 -85l-89 58l75 88l-93 27l36 109l105 -31l9 112h106l-13 -112l108 31z" />
    <glyph glyph-name="plus" unicode="+" horiz-adv-x="419" 
d="M356 321l-8 -80h-128l-14 -127h-80l14 127h-126l8 80h126l14 127h80l-14 -127h128z" />
    <glyph glyph-name="comma" unicode="," horiz-adv-x="205" 
d="M-72 -144l118 258h113l-117 -258h-114z" />
    <glyph glyph-name="hyphen" unicode="-" horiz-adv-x="400" 
d="M335 329l-11 -107h-310l11 107h310z" />
    <glyph glyph-name="period" unicode="." horiz-adv-x="218" 
d="M59 -5q-34 0 -54 22.5t-17 57.5q4 29 25 48.5t51 19.5q34 0 54 -22.5t17 -57.5q-4 -29 -25.5 -48.5t-50.5 -19.5z" />
    <glyph glyph-name="slash" unicode="/" horiz-adv-x="554" 
d="M539 745l-432 -875h-136l432 875h136z" />
    <glyph glyph-name="zero" unicode="0" horiz-adv-x="655" 
d="M343 710q112 0 183 -79t71 -223q0 -177 -86.5 -297.5t-233.5 -120.5q-112 0 -183.5 79.5t-71.5 224.5q0 174 87.5 295t233.5 121zM337 598q-62 0 -106.5 -46.5t-63.5 -113.5t-20 -147q0 -81 33 -134.5t102 -53.5q63 0 107.5 45.5t63.5 112.5t19 146q0 83 -32 137t-103 54
z" />
    <glyph glyph-name="one" unicode="1" horiz-adv-x="372" 
d="M318 700l-74 -700h-131l62 588h-114l11 112h246z" />
    <glyph glyph-name="two" unicode="2" horiz-adv-x="563" 
d="M297 707q101 0 159.5 -56.5t58.5 -140.5q0 -18 -1.5 -33.5t-7.5 -32.5t-10 -28.5t-17.5 -30.5t-21 -29t-28.5 -34t-32.5 -36t-41.5 -43.5t-46 -49.5l-77 -79h243l-12 -114h-474v19l203 216q13 14 40.5 43t40.5 43t34.5 38.5t32 40t22 35.5t16.5 37.5t5 34.5
q0 45 -27 64.5t-62 19.5q-43 0 -78 -28t-40 -87l-3 -16h-133l2 21q10 96 78.5 161t176.5 65z" />
    <glyph glyph-name="three" unicode="3" horiz-adv-x="587" 
d="M104 199q36 -96 135 -96q63 0 104.5 40t41.5 102q0 50 -34.5 80.5t-96.5 30.5q-35 0 -77 -9l166 241h-265l11 112h456l-193 -262q69 -8 115.5 -60.5t46.5 -128.5q0 -112 -80.5 -185.5t-199.5 -73.5q-90 0 -151 42.5t-85 111.5z" />
    <glyph glyph-name="four" unicode="4" horiz-adv-x="586" 
d="M521 274l-11 -112h-75l-17 -162h-131l17 162h-302l10 112l347 426h133l-46 -426h75zM148 274h167l28 250z" />
    <glyph glyph-name="five" unicode="5" horiz-adv-x="588" 
d="M494 700l-12 -112h-257l-38 -140q54 30 114 30q90 0 157.5 -61.5t67.5 -158.5q0 -120 -83 -194t-196 -74q-90 0 -154.5 41.5t-85.5 106.5l106 50q12 -33 43 -58t87 -25q57 0 105 38.5t48 111.5q0 56 -36 85t-83 29q-68 0 -121 -53l-107 36l84 348h361z" />
    <glyph glyph-name="six" unicode="6" horiz-adv-x="547" 
d="M473 700l-237 -271q11 8 39 8q84 0 145.5 -61.5t61.5 -146.5q0 -107 -74.5 -173t-183.5 -66q-90 0 -154.5 58.5t-64.5 149.5q0 32 9 65t19 56t33.5 56.5t35.5 48.5t42 52l192 224h137zM251 325q-55 0 -89.5 -35.5t-34.5 -85.5q0 -47 31.5 -75t76.5 -28q56 0 90 36t34 86
q0 44 -30.5 73t-77.5 29z" />
    <glyph glyph-name="seven" unicode="7" horiz-adv-x="519" 
d="M504 700l-362 -700h-130l308 588h-283l12 112h455z" />
    <glyph glyph-name="eight" unicode="8" horiz-adv-x="579" 
d="M412 396q42 -21 69 -64.5t27 -98.5q0 -108 -83.5 -175.5t-186.5 -67.5q-94 0 -162.5 56.5t-68.5 151.5q0 67 38 121.5t97 81.5q-54 44 -54 114q0 78 60 136.5t157 58.5q87 0 138 -48t51 -120q0 -45 -23 -83t-59 -63zM208 514q0 -31 19.5 -50t52.5 -19q39 0 64.5 25
t25.5 59q0 30 -20.5 48.5t-52.5 18.5q-37 0 -63 -23.5t-26 -58.5zM245 106q54 0 91 36.5t37 91.5q0 45 -30 71t-72 26q-57 0 -93.5 -39t-36.5 -86t29 -73.5t75 -26.5z" />
    <glyph glyph-name="nine" unicode="9" horiz-adv-x="557" 
d="M53 0l237 271q-11 -8 -39 -8q-84 0 -145.5 61.5t-61.5 147.5q0 106 74.5 172t183.5 66q90 0 154.5 -58.5t64.5 -149.5q0 -52 -22.5 -105.5t-47 -86.5t-69.5 -86l-192 -224h-137zM275 375q55 0 89.5 35.5t34.5 85.5q0 47 -31.5 75t-76.5 28q-56 0 -90 -36t-34 -85
q0 -45 30.5 -74t77.5 -29z" />
    <glyph glyph-name="colon" unicode=":" horiz-adv-x="248" 
d="M113 371q-33 0 -53.5 23t-16.5 57q2 29 24.5 48.5t52.5 19.5q33 0 53 -23t17 -57q-4 -29 -25.5 -48.5t-51.5 -19.5zM74 -5q-34 0 -54 22.5t-17 57.5q4 29 25 48.5t51 19.5q34 0 54 -22.5t17 -57.5q-4 -29 -25.5 -48.5t-50.5 -19.5z" />
    <glyph glyph-name="semicolon" unicode=";" horiz-adv-x="256" 
d="M137 371q-34 0 -54 23t-16 57q2 29 24 48.5t52 19.5q34 0 53.5 -22.5t16.5 -57.5q-3 -29 -24.5 -48.5t-51.5 -19.5zM-72 -144l118 258h113l-117 -258h-114z" />
    <glyph glyph-name="less" unicode="&#x3c;" horiz-adv-x="492" 
d="M455 481l-13 -122l-246 -119l220 -117l-12 -123l-393 220l4 41z" />
    <glyph glyph-name="equal" unicode="=" horiz-adv-x="395" 
d="M366 413l-11 -107h-335l11 107h335zM348 245l-11 -108h-335l11 108h335z" />
    <glyph glyph-name="greater" unicode="&#x3e;" horiz-adv-x="493" 
d="M29 481l394 -220l-4 -41l-441 -220l13 123l247 117l-222 119z" />
    <glyph glyph-name="question" unicode="?" horiz-adv-x="546" 
d="M294 707q99 0 163 -59.5t54 -156.5q-5 -43 -24 -74t-43 -49t-47.5 -35t-41.5 -44.5t-21 -65.5v-7h-133v11q3 48 21.5 82.5t43.5 55t50 38t44 42.5t22 58q3 32 -19 62t-74 30q-55 0 -85 -35t-35 -77h-130q10 105 82 164.5t173 59.5zM257 -5q-33 0 -53.5 23t-16.5 57
q4 29 25 48.5t51 19.5q34 0 54.5 -23t16.5 -57q-4 -29 -25.5 -48.5t-51.5 -19.5z" />
    <glyph glyph-name="at" unicode="@" horiz-adv-x="799" 
d="M423 710q130 0 224.5 -87t94.5 -226q0 -100 -46 -162.5t-129 -62.5q-56 0 -78.5 19.5t-22.5 41.5q-8 -22 -35.5 -41.5t-69.5 -19.5q-60 0 -105 41.5t-45 117.5q0 66 31.5 111.5t70 62.5t76.5 17q22 0 47.5 -11t32.5 -28l18 32h71l-22 -196q-1 -6 -1 -15q0 -40 32 -40
q23 0 37.5 24.5t19.5 53t5 58.5q0 94 -60 150t-147 56q-119 0 -202 -80t-83 -204q0 -101 65.5 -164.5t151.5 -63.5q15 0 29 0.5t26.5 3.5t21 4t19.5 6t15.5 6.5t15.5 8t13 7.5t14 9l11 8l95 -45q-45 -52 -112 -82t-144 -30q-133 0 -233.5 95t-100.5 241q0 161 121 272.5
t278 111.5zM387 424q-35 0 -55 -26.5t-20 -65.5q0 -25 14.5 -43t40.5 -18q31 0 53.5 25.5t22.5 70.5q0 25 -15.5 41t-40.5 16z" />
    <glyph glyph-name="A" unicode="A" horiz-adv-x="775" 
d="M567 0l-43 135h-347l-72 -135h-142l386 700h117l237 -700h-136zM234 242h253l-95 296z" />
    <glyph glyph-name="B" unicode="B" horiz-adv-x="616" 
d="M419 386q54 -15 90.5 -59.5t36.5 -107.5q0 -107 -74 -163t-200 -56h-269l74 700h253q96 0 147.5 -45.5t51.5 -115.5q0 -57 -30.5 -95.5t-79.5 -57.5zM312 585h-116l-18 -159h111q51 0 80 26t29 68q0 65 -86 65zM273 115q68 0 106 31t38 86q0 88 -122 88h-127l-21 -205
h126z" />
    <glyph glyph-name="C" unicode="C" horiz-adv-x="673" 
d="M598 73q-102 -83 -245 -83q-139 0 -234.5 91t-95.5 233q0 164 118.5 280t278.5 116q138 0 228 -85l-89 -87q-59 49 -139 49q-105 0 -183.5 -76.5t-79.5 -194.5q0 -89 61.5 -146t152.5 -57q83 0 157 56z" />
    <glyph glyph-name="D" unicode="D" horiz-adv-x="692" 
d="M315 700q149 0 241.5 -103t77.5 -250q-16 -146 -127.5 -246.5t-261.5 -100.5h-242l74 700h238zM253 124q103 0 170.5 67t78.5 168q10 91 -42.5 154t-154.5 63h-110l-48 -452h106z" />
    <glyph glyph-name="E" unicode="E" horiz-adv-x="537" 
d="M147 121h305l-13 -121h-436l74 700h427l-13 -121h-296l-17 -168h225l-13 -118h-225z" />
    <glyph glyph-name="F" unicode="F" horiz-adv-x="527" 
d="M500 581h-301l-19 -173h248l-11 -112h-248l-31 -296h-135l74 700h436z" />
    <glyph glyph-name="G" unicode="G" horiz-adv-x="762" 
d="M405 368h295q3 -170 -98 -274t-248 -104q-139 0 -235 91t-96 233q0 164 118.5 280t278.5 116q138 0 228 -85l-89 -87q-59 49 -139 49q-105 0 -183.5 -76.5t-79.5 -194.5q0 -88 60 -145.5t147 -57.5q165 0 204 145h-175z" />
    <glyph glyph-name="H" unicode="H" horiz-adv-x="678" 
d="M508 700h131l-74 -700h-131l29 288h-299l-30 -288h-131l74 700h131l-31 -291h300z" />
    <glyph glyph-name="I" unicode="I" horiz-adv-x="247" 
d="M208 700l-74 -700h-131l74 700h131z" />
    <glyph glyph-name="J" unicode="J" horiz-adv-x="538" 
d="M499 700l-49 -467q-5 -53 -24.5 -95.5t-46.5 -70t-60.5 -46t-65.5 -26t-64 -7.5q-137 0 -204 99l87 90q45 -63 114 -63q48 0 87.5 31.5t48.5 109.5l46 445h131z" />
    <glyph glyph-name="K" unicode="K" horiz-adv-x="689" 
d="M459 0l-197 306l-102 -102l-22 -204h-135l74 700h135l-35 -321l312 321h164l-302 -303l256 -397h-148z" />
    <glyph glyph-name="L" unicode="L" horiz-adv-x="506" 
d="M147 121h284l-13 -121h-415l74 700h131z" />
    <glyph glyph-name="M" unicode="M" horiz-adv-x="861" 
d="M822 700l-74 -700h-135l45 401l-226 -401h-112l-138 400l-44 -400h-135l74 700h128l189 -517l297 517h131z" />
    <glyph glyph-name="N" unicode="N" horiz-adv-x="712" 
d="M542 700h131l-74 -700h-99l-315 461l-51 -461h-131l74 700h100l315 -462z" />
    <glyph glyph-name="O" unicode="O" horiz-adv-x="808" 
d="M419 710q139 0 234.5 -91.5t95.5 -233.5q0 -164 -118 -279.5t-279 -115.5q-139 0 -234 91t-95 233q0 164 117.5 280t278.5 116zM361 113q97 0 174.5 74t77.5 188q0 93 -58.5 152.5t-144.5 59.5q-98 0 -174.5 -74.5t-76.5 -189.5q0 -91 58 -150.5t144 -59.5z" />
    <glyph glyph-name="P" unicode="P" horiz-adv-x="588" 
d="M315 700q117 0 181 -66.5t52 -174.5q-11 -102 -85.5 -161.5t-191.5 -59.5h-112l-25 -238h-131l74 700h238zM271 351q62 0 102 29.5t46 90.5q6 55 -25.5 81.5t-93.5 26.5h-105l-24 -228h100z" />
    <glyph glyph-name="Q" unicode="Q" horiz-adv-x="808" 
d="M749 385q0 -84 -33.5 -158.5t-93.5 -129.5l65 -97h-152l-18 27q-77 -37 -165 -37q-139 0 -234 91t-95 233q0 164 117.5 280t278.5 116q139 0 234.5 -91.5t95.5 -233.5zM361 113q45 0 88 17l-119 181h151l71 -107q61 73 61 171q0 93 -58.5 152.5t-144.5 59.5
q-98 0 -174.5 -74.5t-76.5 -189.5q0 -91 58 -150.5t144 -59.5z" />
    <glyph glyph-name="R" unicode="R" horiz-adv-x="635" 
d="M544 0h-137l-130 238h-118l-25 -238h-131l74 700h238q117 0 181 -66.5t52 -174.5q-7 -69 -45.5 -121t-102.5 -79zM171 351h100q62 0 102 29.5t46 90.5q6 55 -25.5 81.5t-93.5 26.5h-105z" />
    <glyph glyph-name="S" unicode="S" horiz-adv-x="563" 
d="M299 712q83 0 139.5 -43.5t82.5 -104.5l-102 -52q-47 84 -130 84q-44 0 -74.5 -23t-30.5 -62q0 -31 18 -50t59 -35l46 -17q100 -37 147 -85t47 -114q0 -103 -81 -164t-185 -61q-92 0 -157.5 49.5t-83.5 125.5l105 48q34 -104 139 -104q55 0 91.5 27t36.5 77
q0 32 -23 52.5t-78 41.5l-43 17q-80 30 -123 72.5t-43 115.5q0 92 73 148.5t170 56.5z" />
    <glyph glyph-name="T" unicode="T" horiz-adv-x="564" 
d="M545 700l-13 -121h-176l-61 -579h-131l61 579h-176l13 121h483z" />
    <glyph glyph-name="U" unicode="U" horiz-adv-x="646" 
d="M476 700h131l-47 -448q-13 -124 -95.5 -195.5t-194.5 -71.5q-115 0 -185.5 73.5t-57.5 197.5l47 444h131l-47 -449q-9 -75 25.5 -109t90.5 -34q58 0 102.5 36t52.5 112z" />
    <glyph glyph-name="V" unicode="V" horiz-adv-x="780" 
d="M639 700h142l-386 -700h-117l-238 700h137l175 -538z" />
    <glyph glyph-name="W" unicode="W" horiz-adv-x="1025" 
d="M1025 700l-303 -700h-93l-121 467l-219 -467h-94l-155 700h135l96 -442l209 442h101l114 -442l190 442h140z" />
    <glyph glyph-name="X" unicode="X" horiz-adv-x="704" 
d="M617 0h-152l-136 242l-189 -242h-157l278 355l-196 345h151l132 -231l180 231h157l-269 -345z" />
    <glyph glyph-name="Y" unicode="Y" horiz-adv-x="721" 
d="M712 700l-307 -396l-34 -304h-131l34 304l-223 396h146l152 -277l211 277h152z" />
    <glyph glyph-name="Z" unicode="Z" horiz-adv-x="621" 
d="M606 700l-405 -587h345l-12 -113h-556l404 588h-321l12 112h533z" />
    <glyph glyph-name="bracketleft" unicode="[" horiz-adv-x="298" 
d="M277 745l-12 -112h-77l-68 -650h77l-12 -113h-208l92 875h208z" />
    <glyph glyph-name="backslash" unicode="\" horiz-adv-x="549" 
d="M63 745h131l248 -875h-131z" />
    <glyph glyph-name="bracketright" unicode="]" horiz-adv-x="297" 
d="M69 745h207l-92 -875h-207l12 113h76l68 650h-76z" />
    <glyph glyph-name="asciicircum" unicode="^" horiz-adv-x="496" 
d="M302 700l143 -225h-88l-100 107l-125 -107h-93l191 225h72z" />
    <glyph glyph-name="underscore" unicode="_" horiz-adv-x="590" 
d="M490 0l-12 -113h-500l12 113h500z" />
    <glyph glyph-name="grave" unicode="`" horiz-adv-x="230" 
d="M29 700h151l54 -129h-95z" />
    <glyph glyph-name="a" unicode="a" 
d="M292 529q45 0 81 -17t52 -34t17 -28l9 70h128l-55 -520h-128l9 73q-7 -26 -52.5 -54.5t-107.5 -28.5q-59 0 -111 25t-88.5 81.5t-36.5 133.5q0 124 83.5 211.5t199.5 87.5zM297 415q-68 0 -114 -49.5t-46 -124.5q0 -66 38.5 -101.5t96.5 -35.5q60 0 109 45t49 132
q0 64 -39 99t-94 35z" />
    <glyph glyph-name="b" unicode="b" horiz-adv-x="625" 
d="M336 529q89 0 159.5 -65t70.5 -180q0 -121 -83 -207.5t-200 -86.5q-62 0 -105 32t-43 54l-10 -76h-129l75 707h129l-28 -253q7 21 53.5 48t110.5 27zM276 104q63 0 114 45.5t51 130.5q0 64 -39 99.5t-94 35.5q-73 0 -117 -51.5t-44 -128.5q0 -63 38 -97t91 -34z" />
    <glyph glyph-name="c" unicode="c" horiz-adv-x="561" 
d="M305 529q73 0 128 -32.5t84 -95.5l-102 -41q-40 55 -117 55q-66 0 -115 -50t-49 -128q0 -63 39 -98t92 -35q72 0 128 59l98 -50q-86 -122 -234 -122q-44 0 -87 15.5t-79.5 44.5t-59 77t-22.5 108q0 124 87.5 208.5t208.5 84.5z" />
    <glyph glyph-name="d" unicode="d" 
d="M471 707h128l-75 -707h-128l9 73q-7 -26 -52.5 -54.5t-107.5 -28.5q-59 0 -111 25t-88.5 81.5t-36.5 133.5q0 124 83.5 211.5t199.5 87.5q45 0 81 -17t52 -34t17 -28zM297 415q-68 0 -114 -49.5t-46 -124.5q0 -66 38.5 -101.5t96.5 -35.5q60 0 109 45t49 132q0 64 -39 99
t-94 35z" />
    <glyph glyph-name="e" unicode="e" horiz-adv-x="597" 
d="M306 529q40 0 80 -14t74.5 -40.5t56 -72.5t21.5 -104q0 -43 -10 -86h-394q7 -56 45.5 -85.5t97.5 -29.5q47 0 77.5 10.5t62.5 32.5l63 -69q-78 -81 -212 -81q-103 0 -181 64t-78 178q0 123 89 210t208 87zM303 419q-51 0 -94.5 -29.5t-62.5 -85.5h280q-4 57 -39 86
t-84 29z" />
    <glyph glyph-name="f" unicode="f" horiz-adv-x="412" 
d="M287 611q-34 0 -50.5 -20.5t-19.5 -48.5l-2 -22h123l-10 -106h-124l-44 -414h-129l44 414h-65l10 106h66l2 27q6 53 27 89.5t51 52.5t56 22t54 6q73 0 126 -34l-49 -87q-35 15 -66 15z" />
    <glyph glyph-name="g" unicode="g" 
d="M451 520h128l-55 -520q-6 -57 -34.5 -99t-70.5 -64.5t-85 -32.5t-87 -10q-91 0 -144 32l7 104q46 -29 138 -29q66 0 104 29t44 70l9 73q-7 -26 -52.5 -54.5t-107.5 -28.5q-59 0 -111 25t-88.5 81.5t-36.5 133.5q0 124 83.5 211.5t199.5 87.5q45 0 81 -17t52 -34t17 -28z
M297 415q-68 0 -114 -49.5t-46 -124.5q0 -66 38.5 -101.5t96.5 -35.5q60 0 109 45t49 132q0 64 -39 99t-94 35z" />
    <glyph glyph-name="h" unicode="h" horiz-adv-x="597" 
d="M350 528q83 0 135 -57.5t40 -172.5l-32 -298h-128l31 294q8 64 -16.5 93t-67.5 29q-55 0 -98 -39.5t-56 -81.5l-33 -295h-129l75 707h129l-31 -286q13 32 63 69.5t118 37.5z" />
    <glyph glyph-name="i" unicode="i" horiz-adv-x="228" 
d="M200 707l-12 -110h-128l11 110h129zM180 520l-55 -520h-129l55 520h129z" />
    <glyph glyph-name="j" unicode="j" horiz-adv-x="252" 
d="M224 707l-12 -110h-129l12 110h129zM204 520l-61 -574q-16 -152 -161 -152q-65 0 -108 27l8 123q34 -19 73 -19q56 0 65 65l55 530h129z" />
    <glyph glyph-name="k" unicode="k" horiz-adv-x="577" 
d="M364 0l-165 214l-55 -50l-19 -164h-129l20 182l55 525h129l-43 -387l207 200h157l-237 -222l226 -298h-146z" />
    <glyph glyph-name="l" unicode="l" horiz-adv-x="228" 
d="M200 707l-75 -707h-129l75 707h129z" />
    <glyph glyph-name="m" unicode="m" horiz-adv-x="969" 
d="M715 528q88 0 141.5 -60.5t40.5 -181.5l-31 -286h-128l31 289q6 61 -18 94t-77 33q-52 0 -91.5 -36.5t-55.5 -85.5l-31 -294h-129l31 289q6 59 -20.5 93t-74.5 34q-55 0 -93.5 -35.5t-53.5 -86.5l-31 -294h-129l55 520h129l-11 -103q8 32 54 71.5t114 39.5
q58 0 106.5 -31.5t70.5 -88.5q20 41 72.5 80.5t128.5 39.5z" />
    <glyph glyph-name="n" unicode="n" horiz-adv-x="597" 
d="M350 528q83 0 135 -57.5t40 -172.5l-32 -298h-128l31 294q8 64 -16.5 93t-67.5 29q-55 0 -98 -39.5t-56 -81.5l-33 -295h-129l55 520h129l-11 -99q13 32 63 69.5t118 37.5z" />
    <glyph glyph-name="o" unicode="o" horiz-adv-x="614" 
d="M306 529q95 0 172 -65.5t77 -180.5q0 -124 -87.5 -208.5t-209.5 -84.5q-95 0 -172 65.5t-77 180.5q0 124 87.5 208.5t209.5 84.5zM266 104q65 0 114.5 47.5t49.5 128.5q0 64 -40 99.5t-92 35.5q-65 0 -114.5 -47.5t-49.5 -128.5q0 -64 40 -99.5t92 -35.5z" />
    <glyph glyph-name="p" unicode="p" horiz-adv-x="626" 
d="M331 529q101 0 173.5 -73.5t59.5 -201.5q-9 -85 -55.5 -147t-105.5 -89.5t-120 -27.5q-65 0 -106 30.5t-42 57.5l-30 -268h-129l34 310l41 400h129l-8 -66q6 19 52 47t107 28zM268 104q63 0 114 43t59 119q7 70 -32 109.5t-98 39.5q-62 0 -109.5 -42.5t-55.5 -118.5
q-8 -71 28 -110.5t94 -39.5z" />
    <glyph glyph-name="q" unicode="q" 
d="M451 520h128l-55 -520l-20 -190h-128l29 263q-7 -26 -52.5 -54.5t-107.5 -28.5q-94 0 -165 63.5t-71 177.5q0 123 83.5 210.5t199.5 87.5q45 0 81 -17t52 -34t17 -28zM265 104q63 0 114 46t51 138q0 61 -35 94t-87 33q-74 0 -124 -52.5t-50 -128.5q0 -62 38 -96t93 -34z
" />
    <glyph glyph-name="r" unicode="r" horiz-adv-x="421" 
d="M359 528q23 0 40 -4l-13 -121q-12 2 -30 2q-75 0 -133 -49t-73 -127l-25 -229h-129l55 520h129l-15 -127q25 60 76 97.5t118 37.5z" />
    <glyph glyph-name="s" unicode="s" horiz-adv-x="456" 
d="M288 373q-18 53 -71 53q-28 0 -46 -16t-18 -38q0 -31 42 -48l58 -21q33 -13 52 -22t41.5 -25.5t32.5 -39.5t10 -54q0 -81 -64 -126.5t-150 -45.5q-75 0 -129.5 39.5t-63.5 105.5l104 27q18 -70 93 -70q34 0 58 18t24 44q0 32 -45 50l-57 22q-131 47 -131 146
q0 68 55 112.5t132 44.5q73 0 118.5 -35.5t61.5 -96.5z" />
    <glyph glyph-name="t" unicode="t" horiz-adv-x="372" 
d="M328 414h-111l-27 -259q-6 -48 35 -48q28 0 73 10l-10 -105q-36 -18 -102 -18q-65 0 -100 35.5t-25 127.5l28 257h-73l11 106h72l13 122h129l-13 -122h110z" />
    <glyph glyph-name="u" unicode="u" horiz-adv-x="592" 
d="M194 -8q-84 0 -137 58t-41 172l31 298h129l-31 -294q-7 -65 14 -93t66 -28q56 0 99.5 39.5t57.5 80.5l33 295h129l-55 -520h-129l13 99q-16 -33 -64.5 -70t-114.5 -37z" />
    <glyph glyph-name="v" unicode="v" horiz-adv-x="626" 
d="M603 521l-287 -521h-112l-177 521h126l122 -364l197 364h131z" />
    <glyph glyph-name="w" unicode="w" horiz-adv-x="945" 
d="M791 521h131l-246 -521h-122l-96 371l-174 -371h-121l-136 521h126l87 -364l175 364h113l100 -364z" />
    <glyph glyph-name="x" unicode="x" horiz-adv-x="606" 
d="M374 0l-105 173l-145 -173h-150l228 266l-154 254h144l92 -160l127 160h149l-210 -254l169 -266h-145z" />
    <glyph glyph-name="y" unicode="y" horiz-adv-x="626" 
d="M473 521h130l-392 -711h-131l118 208l-171 503h126l122 -364z" />
    <glyph glyph-name="z" unicode="z" horiz-adv-x="537" 
d="M514 520l-324 -407h265l-12 -113h-474l323 408h-254l12 112h464z" />
    <glyph glyph-name="braceleft" unicode="{" horiz-adv-x="336" 
d="M315 745l-12 -112h-32q-16 0 -28.5 -9.5t-13.5 -24.5l-22 -225l-61 -68l45 -66l-23 -229q-3 -28 30 -28h37l-12 -113h-92q-43 0 -73.5 25t-24.5 85l28 255l-38 71l51 73l28 261q13 105 116 105h97z" />
    <glyph glyph-name="bar" unicode="|" horiz-adv-x="263" 
d="M217 800l-104 -990h-113l104 990h113z" />
    <glyph glyph-name="braceright" unicode="}" horiz-adv-x="336" 
d="M69 745h92q42 0 72.5 -25t24.5 -85l-28 -256l39 -73l-52 -71l-28 -260q-11 -105 -115 -105h-97l12 113h33q16 0 27.5 9t12.5 24l23 224l62 66l-46 68l24 230q1 15 -6.5 22t-23.5 7h-38z" />
    <glyph glyph-name="asciitilde" unicode="~" horiz-adv-x="521" 
d="M152 371q45 0 107.5 -35t94.5 -35q17 0 34.5 9.5t18.5 19.5l48 -5q-6 -55 -40.5 -89.5t-93.5 -34.5q-43 0 -106 40t-99 40q-17 0 -33.5 -12t-17.5 -26l-48 5q6 55 40.5 89t94.5 34z" />
    <glyph glyph-name="exclamdown" unicode="&#xa1;" horiz-adv-x="262" 
d="M127 525q33 0 53.5 -23t16.5 -57q-3 -29 -24.5 -48.5t-51.5 -19.5q-33 0 -53.5 23t-16.5 57q3 29 24.5 48.5t51.5 19.5zM-15 -180l51 479h147l-51 -479h-147z" />
    <glyph glyph-name="cent" unicode="&#xa2;" horiz-adv-x="562" 
d="M304 197q54 9 99 57l98 -50q-78 -112 -209 -121l-9 -83h-62l9 85q-86 13 -148.5 75.5t-62.5 166.5q0 116 77.5 198.5t189.5 93.5l9 81h62l-9 -82q128 -14 179 -126l-102 -41q-32 44 -89 53zM144 328q0 -53 27.5 -86t70.5 -43l32 303q-56 -13 -93 -60t-37 -114z" />
    <glyph glyph-name="sterling" unicode="&#xa3;" horiz-adv-x="603" 
d="M551 473h-126q0 10 3 20q6 35 -19.5 67.5t-83.5 32.5t-92 -35.5t-34 -86.5q0 -40 29 -102l159 3l-10 -99l-119 -2v-7q0 -42 -24 -86.5t-59 -65.5l329 1l-12 -113h-488l9 114q47 26 84 66.5t37 80.5q0 10 1 14l-100 -2l10 99l61 2q-29 58 -29 118q0 96 76 155.5t181 59.5
q100 0 160 -50t60 -134q0 -17 -3 -50z" />
    <glyph glyph-name="currency" unicode="&#xa4;" horiz-adv-x="561" 
d="M499 470q-5 -51 -32 -96l41 -44l-87 -79l-37 39q-58 -38 -127 -38t-121 39l-44 -40l-75 79l49 46q-20 51 -14 106q7 58 36 101l-40 44l86 79l38 -40q59 34 123 34q69 0 121 -38l48 44l75 -79l-55 -51q20 -51 15 -106zM157 470q-4 -38 20 -75t81 -37q61 0 97 40.5t40 83.5
q4 37 -21 74.5t-82 37.5q-60 0 -95 -40.5t-40 -83.5z" />
    <glyph glyph-name="yen" unicode="&#xa5;" horiz-adv-x="721" 
d="M405 304l-3 -17h113l-9 -86h-113l-6 -53h113l-9 -86h-113l-7 -62h-131l7 62h-114l10 86h113l6 53h-114l10 86h113l3 17l-223 396h146l152 -277l211 277h152z" />
    <glyph glyph-name="brokenbar" unicode="&#xa6;" horiz-adv-x="263" 
d="M217 800l-29 -280h-113l29 280h113zM143 90l-30 -280h-113l30 280h113z" />
    <glyph glyph-name="section" unicode="&#xa7;" horiz-adv-x="594" 
d="M323 744q108 0 174 -64.5t72 -150.5l-147 -36q14 42 -15.5 79.5t-88.5 37.5q-45 0 -74.5 -21t-31.5 -54q-3 -26 11.5 -42.5t51.5 -28.5l68 -25q202 -65 184 -230q-3 -45 -37 -93q23 -46 17 -106q-6 -62 -51 -110t-105 -71.5t-121 -23.5q-104 0 -172.5 63.5t-77.5 163.5
l140 38q0 -61 31 -96t84 -35q52 0 89 22t42 61q3 33 -16.5 52.5t-59.5 33.5l-85 30q-172 57 -156 205q3 41 38 99q-23 51 -17 105q8 85 82.5 141t170.5 56zM191 349q-1 -3 -1.5 -9t-0.5 -9q-5 -51 65 -69l68 -25q64 -22 73 -25l-3.5 3.5t-3 2t-2 1.5t-0.5 2q8 62 -74 91
l-87 26q-26 11 -34 11z" />
    <glyph glyph-name="dieresis" unicode="&#xa8;" horiz-adv-x="385" 
d="M152 700l-11 -108h-134l12 108h133zM404 700l-12 -108h-133l11 108h134z" />
    <glyph glyph-name="copyright" unicode="&#xa9;" horiz-adv-x="789" 
d="M409 707q130 0 225.5 -91t95.5 -233q0 -160 -112.5 -275t-274.5 -115q-130 0 -225 90.5t-95 231.5q0 162 112 277t274 115zM346 104q116 0 194.5 83t78.5 196q0 93 -62 153t-150 60q-110 0 -191.5 -77.5t-81.5 -201.5q0 -93 62 -153t150 -60zM373 268q34 0 65 25l58 -78
q-47 -53 -129 -53q-71 0 -120.5 47.5t-49.5 122.5q0 88 61 147t140 59q84 0 125 -58l-68 -68q-18 20 -56 20q-35 0 -64 -28.5t-29 -66.5q0 -29 19.5 -49t47.5 -20z" />
    <glyph glyph-name="ordfeminine" unicode="&#xaa;" horiz-adv-x="416" 
d="M210 714q73 0 108.5 -40.5t27.5 -117.5l-10 -96q-4 -29 -0.5 -45t17.5 -40l-84 5q-11 17 -12 38q-40 -43 -95 -43q-64 0 -98.5 29.5t-29.5 82.5q5 46 46 70t100 28l77 8q3 23 -11 35.5t-35 12.5q-53 0 -107 -39l-39 55q59 57 145 57zM251 524l-73 -8q-53 -5 -58 -41
q-2 -28 41 -28q56 0 86 56z" />
    <glyph glyph-name="guillemotleft" unicode="&#xab;" horiz-adv-x="371" 
d="M24 386l143 103l-7 -90l-98 -102l75 -103l-7 -89l-122 103zM203 386l143 103l-7 -90l-98 -102l75 -103l-7 -89l-122 103z" />
    <glyph glyph-name="logicalnot" unicode="&#xac;" horiz-adv-x="516" 
d="M448 302l-19 -181h-131l8 74h-295l11 107h426z" />
    <glyph glyph-name="uni00AD" unicode="&#xad;" horiz-adv-x="400" 
d="M335 329l-11 -107h-310l11 107h310z" />
    <glyph glyph-name="registered" unicode="&#xae;" horiz-adv-x="789" 
d="M409 707q130 0 225.5 -91t95.5 -233q0 -160 -112.5 -275t-274.5 -115q-130 0 -225 90.5t-95 231.5q0 162 112 277t274 115zM346 104q116 0 194.5 83t78.5 196q0 93 -62 153t-150 60q-110 0 -191.5 -77.5t-81.5 -201.5q0 -93 62 -153t150 -60zM383 529q64 0 99 -33t30 -83
q-7 -73 -78 -106l73 -128h-83l-67 126h-33l-13 -126h-80l37 350h115zM389 459h-52l-9 -89h46q52 0 59 51q3 38 -44 38z" />
    <glyph glyph-name="macron" unicode="&#xaf;" horiz-adv-x="376" 
d="M395 700l-12 -106h-376l12 106h376z" />
    <glyph glyph-name="degree" unicode="&#xb0;" horiz-adv-x="288" 
d="M187 719q54 0 88 -37.5t28 -91.5q-5 -49 -43 -83t-88 -34q-54 0 -88 37.5t-28 91.5q5 49 43 83t88 34zM183 635q-18 0 -30.5 -13t-12.5 -32q1 -14 11.5 -23.5t24.5 -9.5q18 0 30.5 13t12.5 32q-1 14 -11.5 23.5t-24.5 9.5z" />
    <glyph glyph-name="plusminus" unicode="&#xb1;" horiz-adv-x="421" 
d="M239 343h120l-11 -108h-120l-12 -107h-107l12 107h-108l11 108h108l13 120h107zM-12 1l12 108h335l-12 -108h-335z" />
    <glyph glyph-name="uni00B2" unicode="&#xb2;" horiz-adv-x="259" 
d="M144 704q35 0 58 -23.5t20 -53.5q-3 -26 -19.5 -47t-58.5 -60l-53 -48h118l-3 -32h-168l3 32l74 70q5 4 14 12.5t12 11.5t10 9.5t9 9.5t7 8t6.5 7.5t4 7t3.5 7.5l2.5 7.5t1.5 8.5q1 18 -10.5 30t-29.5 12q-20 0 -36 -13.5t-18 -37.5l-2 -13h-37l2 15q4 35 30 57.5
t60 22.5z" />
    <glyph glyph-name="uni00B3" unicode="&#xb3;" horiz-adv-x="262" 
d="M145 703q33 0 55.5 -21t19.5 -49q-3 -32 -36 -52q17 -7 27.5 -24.5t7.5 -42.5q-3 -33 -32 -55.5t-66 -22.5q-41 0 -64.5 27.5t-18.5 64.5l38 -2q-3 -24 9 -41t35 -17t41.5 14t20.5 36q3 26 -14.5 36t-53.5 10l1 29q64 0 68 44q1 15 -9.5 25t-27.5 10q-22 0 -37 -14.5
t-18 -41.5l-37 2q4 38 29.5 61.5t61.5 23.5z" />
    <glyph glyph-name="acute" unicode="&#xb4;" horiz-adv-x="222" 
d="M242 700l-138 -129h-100l82 129h156z" />
    <glyph glyph-name="uni00B5" unicode="&#xb5;" horiz-adv-x="593" 
d="M416 520h129l-55 -520h-129l13 99q-16 -33 -64.5 -70t-114.5 -37q-31 0 -71 5l-22 -187h-129l75 710h129l-31 -294q-7 -65 14 -93t66 -28q56 0 99.5 39.5t57.5 80.5z" />
    <glyph glyph-name="paragraph" unicode="&#xb6;" horiz-adv-x="885" 
d="M89 471q11 103 86 166t192 63h243l-74 -700h-131l25 238h-107q-118 0 -181.5 63.5t-52.5 169.5zM703 700h131l-74 -700h-131zM466 579h-100q-62 0 -101.5 -30t-46.5 -90q-6 -56 25.5 -82t93.5 -26h105z" />
    <glyph glyph-name="periodcentered" unicode="&#xb7;" horiz-adv-x="251" 
d="M81 204q-34 0 -54 22.5t-17 56.5q4 30 25 49t51 19q34 0 54 -22.5t17 -57.5q-4 -29 -25.5 -48t-50.5 -19z" />
    <glyph glyph-name="cedilla" unicode="&#xb8;" horiz-adv-x="208" 
d="M53 -43q37 -7 63.5 -30.5t21.5 -59.5q-5 -56 -67 -78t-146 0l9 30q44 -9 73.5 10.5t32.5 49.5q1 20 -18.5 30.5t-46.5 -5.5l-39 38l38 58h134z" />
    <glyph glyph-name="uni00B9" unicode="&#xb9;" horiz-adv-x="199" 
d="M144 701l-27 -261h-37l24 221l-18 -11l-16 31l37 20h37z" />
    <glyph glyph-name="ordmasculine" unicode="&#xba;" horiz-adv-x="390" 
d="M213 705q62 0 108 -46.5t38 -122.5q-7 -71 -59.5 -114t-111.5 -43q-63 0 -109.5 46.5t-38.5 122.5q8 70 61 113.5t112 43.5zM213 619q-32 0 -58.5 -23t-30.5 -60q-3 -32 16 -52t47 -20q31 0 57.5 23.5t30.5 60.5q4 32 -15 51.5t-47 19.5z" />
    <glyph glyph-name="guillemotright" unicode="&#xbb;" horiz-adv-x="374" 
d="M140 386l-16 -178l-145 -103l7 89l100 103l-77 102l7 90zM319 386l-16 -178l-145 -103l7 89l99 103l-76 102l7 90z" />
    <glyph glyph-name="onequarter" unicode="&#xbc;" horiz-adv-x="570" 
d="M120 701l-27 -261h-37l23 221l-17 -11l-16 31l37 20h37zM523 700l-504 -700h-48l510 700h42zM491 261l-16 -154h27l-4 -31h-27l-8 -76h-37l8 76h-132l152 185h37zM448 202l-75 -95h65z" />
    <glyph glyph-name="onehalf" unicode="&#xbd;" horiz-adv-x="545" 
d="M120 701l-27 -261h-37l23 221l-17 -11l-16 31l37 20h37zM523 700l-504 -700h-48l510 700h42zM404 264q35 0 58 -23.5t20 -53.5q-3 -26 -19.5 -47t-58.5 -60l-53 -48h118l-4 -32h-168l4 32l74 70q53 50 61 65q7 11 8 24q2 18 -9.5 30t-29.5 12q-20 0 -36 -13.5t-19 -37.5
l-1 -13h-37l2 15q4 35 30 57.5t60 22.5z" />
    <glyph glyph-name="threequarters" unicode="&#xbe;" horiz-adv-x="587" 
d="M134 703q33 0 55 -21t19 -49q-3 -32 -35 -52q39 -17 35 -67q-4 -33 -33 -55.5t-66 -22.5q-41 0 -64.5 27.5t-18.5 64.5l38 -2q-2 -24 10 -41t35 -17t41 14t20 36q3 26 -14.5 36t-53.5 10l1 29q64 0 69 44q1 15 -10 25t-28 10q-22 0 -37 -14.5t-18 -41.5l-36 2
q3 38 29 61.5t62 23.5zM550 700l-503 -700h-48l509 700h42zM508 261l-16 -154h27l-3 -31h-27l-8 -76h-37l8 76h-132l151 185h37zM465 202l-75 -95h65z" />
    <glyph glyph-name="questiondown" unicode="&#xbf;" horiz-adv-x="546" 
d="M244 525q33 0 53.5 -23t16.5 -57q-4 -29 -25 -48.5t-51 -19.5q-34 0 -54.5 23t-16.5 57q4 29 25.5 48.5t51.5 19.5zM207 -187q-99 0 -163 59.5t-54 156.5q5 43 24 74t43 49t47.5 35t41.5 44.5t21 65.5v7h133v-11q-3 -48 -21.5 -82.5t-43.5 -55t-50 -38t-44 -42.5t-22 -58
q-3 -32 19 -62t74 -30q55 0 85 35t35 77h130q-10 -105 -82 -164.5t-173 -59.5z" />
    <glyph glyph-name="Agrave" unicode="&#xc0;" horiz-adv-x="775" 
d="M470 751h-95l-110 129h151zM567 0l-43 135h-347l-72 -135h-142l386 700h117l237 -700h-136zM235 242h252l-95 296z" />
    <glyph glyph-name="Aacute" unicode="&#xc1;" horiz-adv-x="775" 
d="M601 880l-138 -129h-101l82 129h157zM567 0l-43 135h-347l-72 -135h-142l386 700h117l237 -700h-136zM234 242h253l-95 296z" />
    <glyph glyph-name="Acircumflex" unicode="&#xc2;" horiz-adv-x="775" 
d="M424 833l-112 -87h-92l117 134h178l88 -134h-86zM567 0l-43 135h-347l-72 -135h-142l386 700h117l237 -700h-136zM235 242h252l-95 296z" />
    <glyph glyph-name="Atilde" unicode="&#xc3;" horiz-adv-x="775" 
d="M324 832q-19 0 -35.5 -11t-17.5 -25l-48 5q5 54 38 88.5t87 34.5q41 0 96 -34.5t76 -34.5q18 0 35 8.5t18 18.5l50 -4q-5 -54 -38 -89.5t-85 -35.5q-40 0 -96 39.5t-80 39.5zM567 0l-43 135h-347l-72 -135h-142l386 700h117l237 -700h-136zM235 242h252l-95 296z" />
    <glyph glyph-name="Adieresis" unicode="&#xc4;" horiz-adv-x="775" 
d="M368 880l-11 -108h-134l12 108h133zM620 880l-12 -108h-133l12 108h133zM567 0l-43 135h-347l-72 -135h-142l386 700h117l237 -700h-136zM235 242h252l-95 296z" />
    <glyph glyph-name="Aring" unicode="&#xc5;" horiz-adv-x="775" 
d="M421 765q-48 0 -78.5 33.5t-25.5 79.5q5 43 39 73t78 30q45 0 75 -34t25 -81q-4 -40 -38 -70.5t-75 -30.5zM433 902q-13 0 -24 -10t-12 -25q0 -9 6.5 -15t15.5 -6q13 0 23.5 10t11.5 24q1 9 -5.5 15.5t-15.5 6.5zM567 0l-43 135h-347l-72 -135h-142l386 700h117l237 -700
h-136zM235 242h252l-95 296z" />
    <glyph glyph-name="AE" unicode="&#xc6;" horiz-adv-x="985" 
d="M595 121h305l-13 -121h-436l20 191h-210l-150 -191h-148l553 700h146h290l-13 -121h-296l-17 -168h225l-13 -118h-225zM350 303h133l22 196z" />
    <glyph glyph-name="Ccedilla" unicode="&#xc7;" horiz-adv-x="673" 
d="M340 -43q38 -7 64 -30.5t22 -59.5q-5 -56 -67 -78t-146 0l8 30q44 -9 73.5 10.5t32.5 49.5q1 20 -18.5 30.5t-45.5 -5.5l-40 38l42 57q-117 30 -186 127t-54 230q16 153 132.5 253.5t262.5 100.5q138 0 228 -85l-84 -87q-60 49 -140 49q-100 0 -176.5 -69t-87.5 -174
q-11 -99 48.5 -165t156.5 -66q85 0 158 56l75 -96q-87 -71 -212 -82z" />
    <glyph glyph-name="Egrave" unicode="&#xc8;" horiz-adv-x="537" 
d="M361 751h-95l-110 129h151zM147 121h305l-13 -121h-436l74 700h427l-13 -121h-296l-17 -168h225l-13 -118h-225z" />
    <glyph glyph-name="Eacute" unicode="&#xc9;" horiz-adv-x="537" 
d="M492 880l-138 -129h-100l82 129h156zM147 121h305l-13 -121h-436l74 700h427l-13 -121h-296l-17 -168h225l-13 -118h-225z" />
    <glyph glyph-name="Ecircumflex" unicode="&#xca;" horiz-adv-x="537" 
d="M316 833l-113 -87h-92l117 134h178l89 -134h-87zM147 121h305l-13 -121h-436l74 700h427l-13 -121h-296l-17 -168h225l-13 -118h-225z" />
    <glyph glyph-name="Edieresis" unicode="&#xcb;" horiz-adv-x="537" 
d="M260 880l-12 -108h-133l12 108h133zM511 880l-11 -108h-134l12 108h133zM147 121h305l-13 -121h-436l74 700h427l-13 -121h-296l-17 -168h225l-13 -118h-225z" />
    <glyph glyph-name="Igrave" unicode="&#xcc;" horiz-adv-x="251" 
d="M1 880h151l54 -129h-95zM210 700l-74 -700h-131l74 700h131z" />
    <glyph glyph-name="Iacute" unicode="&#xcd;" horiz-adv-x="251" 
d="M337 880l-138 -129h-101l82 129h157zM210 700l-74 -700h-131l74 700h131z" />
    <glyph glyph-name="Icircumflex" unicode="&#xce;" horiz-adv-x="251" 
d="M251 880l88 -134h-86l-93 87l-112 -87h-93l118 134h178zM210 700l-74 -700h-131l74 700h131z" />
    <glyph glyph-name="Idieresis" unicode="&#xcf;" horiz-adv-x="251" 
d="M104 880l-11 -108h-134l12 108h133zM356 880l-12 -108h-133l12 108h133zM210 700l-74 -700h-131l74 700h131z" />
    <glyph glyph-name="Eth" unicode="&#xd0;" horiz-adv-x="767" 
d="M389 700q150 0 242.5 -103t77.5 -250q-16 -146 -128 -246.5t-261 -100.5h-242l31 290h-58l11 107h58l32 303h237zM328 124q103 0 170.5 67t78.5 168q9 92 -43 154.5t-154 62.5h-110l-19 -179h121l-11 -107h-121l-18 -166h106z" />
    <glyph glyph-name="Ntilde" unicode="&#xd1;" horiz-adv-x="712" 
d="M316 924q40 0 95 -34.5t76 -34.5q18 0 35 8.5t18 18.5l50 -4q-5 -54 -38 -89.5t-85 -35.5q-40 0 -96 39.5t-80 39.5q-18 0 -35 -11t-18 -25l-47 5q6 54 38 88.5t87 34.5zM542 700h131l-74 -700h-99l-315 461l-51 -461h-131l74 700h100l315 -462z" />
    <glyph glyph-name="Ograve" unicode="&#xd2;" horiz-adv-x="808" 
d="M277 880h151l54 -129h-95zM419 710q149 0 246.5 -104t81.5 -262q-16 -153 -132.5 -253.5t-262.5 -100.5q-149 0 -246.5 104t-80.5 262q16 153 132 253.5t262 100.5zM356 113q96 0 171 69t85 174q10 99 -48 165t-149 66q-95 0 -169.5 -69t-85.5 -174q-11 -99 46.5 -165
t149.5 -66z" />
    <glyph glyph-name="Oacute" unicode="&#xd3;" horiz-adv-x="808" 
d="M613 880l-138 -129h-100l82 129h156zM419 710q149 0 246.5 -104t81.5 -262q-16 -153 -132.5 -253.5t-262.5 -100.5q-149 0 -246.5 104t-80.5 262q16 153 132 253.5t262 100.5zM356 113q96 0 171 69t85 174q10 99 -48 165t-149 66q-95 0 -169.5 -69t-85.5 -174
q-11 -99 46.5 -165t149.5 -66z" />
    <glyph glyph-name="Ocircumflex" unicode="&#xd4;" horiz-adv-x="808" 
d="M527 880l89 -134h-87l-92 87l-113 -87h-92l117 134h178zM419 710q149 0 246.5 -104t81.5 -262q-16 -153 -132.5 -253.5t-262.5 -100.5q-149 0 -246.5 104t-80.5 262q16 153 132 253.5t262 100.5zM356 113q96 0 171 69t85 174q10 99 -48 165t-149 66q-95 0 -169.5 -69
t-85.5 -174q-11 -99 46.5 -165t149.5 -66z" />
    <glyph glyph-name="Otilde" unicode="&#xd5;" horiz-adv-x="808" 
d="M361 924q41 0 95.5 -34.5t76.5 -34.5q18 0 34.5 8.5t17.5 18.5l50 -4q-5 -54 -38 -89.5t-84 -35.5q-41 0 -97 39.5t-80 39.5q-18 0 -34.5 -11t-17.5 -25l-48 5q5 54 38 88.5t87 34.5zM419 710q149 0 246.5 -104t81.5 -262q-16 -153 -132.5 -253.5t-262.5 -100.5
q-149 0 -246.5 104t-80.5 262q16 153 132 253.5t262 100.5zM356 113q96 0 171 69t85 174q10 99 -48 165t-149 66q-95 0 -169.5 -69t-85.5 -174q-11 -99 46.5 -165t149.5 -66z" />
    <glyph glyph-name="Odieresis" unicode="&#xd6;" horiz-adv-x="808" 
d="M381 880l-12 -108h-133l12 108h133zM632 880l-11 -108h-134l12 108h133zM419 710q149 0 246.5 -104t81.5 -262q-16 -153 -132.5 -253.5t-262.5 -100.5q-149 0 -246.5 104t-80.5 262q16 153 132 253.5t262 100.5zM356 113q96 0 171 69t85 174q10 99 -48 165t-149 66
q-95 0 -169.5 -69t-85.5 -174q-11 -99 46.5 -165t149.5 -66z" />
    <glyph glyph-name="multiply" unicode="&#xd7;" horiz-adv-x="386" 
d="M352 363l-90 -81l72 -80l-85 -76l-71 80l-88 -80l-69 75l89 81l-73 82l85 75l72 -81l89 81z" />
    <glyph glyph-name="Oslash" unicode="&#xd8;" horiz-adv-x="808" 
d="M628 640q64 -48 96 -124.5t23 -171.5q-16 -153 -132.5 -253.5t-262.5 -100.5q-46 0 -92 13l-32 -53h-149l66 107q-65 50 -97.5 127t-22.5 172q16 153 132 253.5t262 100.5q48 0 95 -13l29 48h149zM160 344q-12 -104 49 -173l244 415q-13 1 -38 1q-95 0 -169.5 -69
t-85.5 -174zM356 113q96 0 171 69t85 174q11 105 -48 170l-243 -412q6 -1 35 -1z" />
    <glyph glyph-name="Ugrave" unicode="&#xd9;" horiz-adv-x="646" 
d="M206 880h151l54 -129h-95zM476 700h131l-47 -448q-13 -124 -95.5 -195.5t-194.5 -71.5q-115 0 -185.5 73.5t-57.5 197.5l47 444h131l-47 -449q-9 -75 25.5 -109t90.5 -34q58 0 102.5 36t52.5 112z" />
    <glyph glyph-name="Uacute" unicode="&#xda;" horiz-adv-x="646" 
d="M542 880l-138 -129h-101l82 129h157zM476 700h131l-47 -448q-13 -124 -95.5 -195.5t-194.5 -71.5q-115 0 -185.5 73.5t-57.5 197.5l47 444h131l-47 -449q-9 -75 25.5 -109t90.5 -34q58 0 102.5 36t52.5 112z" />
    <glyph glyph-name="Ucircumflex" unicode="&#xdb;" horiz-adv-x="646" 
d="M456 880l88 -134h-86l-93 87l-112 -87h-92l117 134h178zM476 700h131l-47 -448q-13 -124 -95.5 -195.5t-194.5 -71.5q-115 0 -185.5 73.5t-57.5 197.5l47 444h131l-47 -449q-9 -75 25.5 -109t90.5 -34q58 0 102.5 36t52.5 112z" />
    <glyph glyph-name="Udieresis" unicode="&#xdc;" horiz-adv-x="646" 
d="M310 880l-12 -108h-134l12 108h134zM561 880l-12 -108h-133l12 108h133zM476 700h131l-47 -448q-13 -124 -95.5 -195.5t-194.5 -71.5q-115 0 -185.5 73.5t-57.5 197.5l47 444h131l-47 -449q-9 -75 25.5 -109t90.5 -34q58 0 102.5 36t52.5 112z" />
    <glyph glyph-name="Yacute" unicode="&#xdd;" horiz-adv-x="721" 
d="M572 880l-138 -129h-100l82 129h156zM712 700l-307 -396l-34 -304h-131l34 304l-223 396h146l152 -277l211 277h152z" />
    <glyph glyph-name="Thorn" unicode="&#xde;" horiz-adv-x="641" 
d="M331 565q127 0 198 -60.5t61 -158.5t-90.5 -152.5t-208.5 -54.5h-142l-15 -139h-131l74 700h131l-14 -135h137zM300 252h28.5t26 1t26.5 3.5t22 7.5t21.5 12.5t15.5 18.5t13.5 27t6.5 36q3 27 -3.5 45t-17 27.5t-32 14.5t-37.5 6t-44 1h-144l-21 -200h139z" />
    <glyph glyph-name="germandbls" unicode="&#xdf;" horiz-adv-x="643" 
d="M328 700q113 0 179 -49t56 -144q-4 -50 -39.5 -83t-81.5 -41q68 -8 103.5 -57t27.5 -122q-12 -105 -86 -154.5t-216 -49.5h-59l11 113h57q70 0 113 23.5t50 86.5q5 56 -36.5 77.5t-112.5 21.5h-48l11 105h45q67 0 97 20.5t35 66.5q4 37 -25.5 55.5t-82.5 18.5
q-71 0 -104.5 -26t-40.5 -90l-49 -472h-129l51 476q22 224 274 224z" />
    <glyph glyph-name="agrave" unicode="&#xe0;" 
d="M206 700h151l54 -129h-95zM292 529q45 0 81 -17t52 -34t17 -28l9 70h128l-55 -520h-128l9 73q-7 -26 -52.5 -54.5t-107.5 -28.5q-59 0 -111 25t-88.5 81.5t-36.5 133.5q0 124 83.5 211.5t199.5 87.5zM297 415q-68 0 -114 -49.5t-46 -124.5q0 -66 38.5 -101.5t96.5 -35.5
q60 0 109 45t49 132q0 64 -39 99t-94 35z" />
    <glyph glyph-name="aacute" unicode="&#xe1;" 
d="M542 700l-138 -129h-100l82 129h156zM292 529q45 0 81 -17t52 -34t17 -28l9 70h128l-55 -520h-128l9 73q-7 -26 -52.5 -54.5t-107.5 -28.5q-59 0 -111 25t-88.5 81.5t-36.5 133.5q0 124 83.5 211.5t199.5 87.5zM297 415q-68 0 -114 -49.5t-46 -124.5q0 -66 38.5 -101.5
t96.5 -35.5q60 0 109 45t49 132q0 64 -39 99t-94 35z" />
    <glyph glyph-name="acircumflex" unicode="&#xe2;" 
d="M456 700l89 -134h-87l-92 87l-113 -87h-92l117 134h178zM292 529q45 0 81 -17t52 -34t17 -28l9 70h128l-55 -520h-128l9 73q-7 -26 -52.5 -54.5t-107.5 -28.5q-59 0 -111 25t-88.5 81.5t-36.5 133.5q0 124 83.5 211.5t199.5 87.5zM297 415q-68 0 -114 -49.5t-46 -124.5
q0 -66 38.5 -101.5t96.5 -35.5q60 0 109 45t49 132q0 64 -39 99t-94 35z" />
    <glyph glyph-name="atilde" unicode="&#xe3;" 
d="M290 744q40 0 95 -34.5t77 -34.5q18 0 34.5 8.5t17.5 18.5l50 -4q-5 -54 -38 -89.5t-85 -35.5q-40 0 -96 39.5t-80 39.5q-18 0 -34.5 -11t-17.5 -25l-48 5q5 54 38 88.5t87 34.5zM292 529q45 0 81 -17t52 -34t17 -28l9 70h128l-55 -520h-128l9 73q-7 -26 -52.5 -54.5
t-107.5 -28.5q-59 0 -111 25t-88.5 81.5t-36.5 133.5q0 124 83.5 211.5t199.5 87.5zM297 415q-68 0 -114 -49.5t-46 -124.5q0 -66 38.5 -101.5t96.5 -35.5q60 0 109 45t49 132q0 64 -39 99t-94 35z" />
    <glyph glyph-name="adieresis" unicode="&#xe4;" 
d="M310 700l-12 -108h-133l12 108h133zM561 700l-11 -108h-134l12 108h133zM292 529q45 0 81 -17t52 -34t17 -28l9 70h128l-55 -520h-128l9 73q-7 -26 -52.5 -54.5t-107.5 -28.5q-59 0 -111 25t-88.5 81.5t-36.5 133.5q0 124 83.5 211.5t199.5 87.5zM297 415
q-68 0 -114 -49.5t-46 -124.5q0 -66 38.5 -101.5t96.5 -35.5q60 0 109 45t49 132q0 64 -39 99t-94 35z" />
    <glyph glyph-name="aring" unicode="&#xe5;" 
d="M375 801q45 0 75 -34t25 -81q-4 -40 -38 -70.5t-75 -30.5q-48 0 -78 33.5t-25 79.5q5 43 38.5 73t77.5 30zM374 722q-13 0 -23 -10t-13 -25q0 -9 6 -15t16 -6q13 0 23.5 10t11.5 24q1 9 -5 15.5t-16 6.5zM292 529q45 0 81 -17t52 -34t17 -28l9 70h128l-55 -520h-128l9 73
q-7 -26 -52.5 -54.5t-107.5 -28.5q-59 0 -111 25t-88.5 81.5t-36.5 133.5q0 124 83.5 211.5t199.5 87.5zM297 415q-68 0 -114 -49.5t-46 -124.5q0 -66 38.5 -101.5t96.5 -35.5q60 0 109 45t49 132q0 64 -39 99t-94 35z" />
    <glyph glyph-name="ae" unicode="&#xe6;" horiz-adv-x="1015" 
d="M724 529q48 0 93 -18t83 -56t51 -98.5t-4 -144.5h-395q8 -56 45.5 -84.5t95.5 -28.5q32 0 59 6.5t41.5 13.5t39.5 22l68 -73q-81 -78 -215 -78q-84 0 -159 39l-3 -29h-128l9 73q-7 -26 -52.5 -54.5t-107.5 -28.5q-59 0 -111 25t-88.5 81.5t-36.5 133.5q0 124 83.5 211.5
t199.5 87.5q45 0 81 -17t52 -34t17 -28l9 70h128l-3 -25q80 34 148 34zM722 419q-49 0 -93.5 -30.5t-64.5 -84.5l281 5q-4 53 -40.5 81.5t-82.5 28.5zM272 104q60 0 109 45t49 132q0 64 -39 99t-94 35q-68 0 -114 -49.5t-46 -124.5q0 -66 38.5 -101.5t96.5 -35.5z" />
    <glyph glyph-name="ccedilla" unicode="&#xe7;" horiz-adv-x="559" 
d="M260 105q76 0 132 58l97 -50q-61 -91 -170 -117l-53 -38q38 -7 64 -30t23 -59q-6 -56 -68 -78t-146 -1l8 31q44 -9 73.5 10.5t32.5 49.5q1 19 -18.5 29.5t-45.5 -4.5l-40 37l41 57q-83 23 -136.5 91t-43.5 174q7 63 37.5 115t73.5 83.5t90.5 48.5t92.5 17q73 0 128 -33
t84 -95l-100 -41q-42 55 -113 55q-60 0 -110.5 -43t-58.5 -119q-8 -70 31 -109t95 -39z" />
    <glyph glyph-name="egrave" unicode="&#xe8;" horiz-adv-x="597" 
d="M359 571h-95l-110 129h151zM306 529q40 0 80 -14t74.5 -40.5t56 -72.5t21.5 -104q0 -43 -10 -86h-394q7 -56 45.5 -85.5t97.5 -29.5q47 0 77.5 10.5t62.5 32.5l63 -69q-78 -81 -212 -81q-103 0 -181 64t-78 178q0 123 89 210t208 87zM303 419q-51 0 -94.5 -29.5
t-62.5 -85.5h280q-4 57 -39 86t-84 29z" />
    <glyph glyph-name="eacute" unicode="&#xe9;" horiz-adv-x="597" 
d="M490 700l-138 -129h-101l82 129h157zM306 529q40 0 80 -14t74.5 -40.5t56 -72.5t21.5 -104q0 -43 -10 -86h-394q7 -56 45.5 -85.5t97.5 -29.5q47 0 77.5 10.5t62.5 32.5l63 -69q-78 -81 -212 -81q-103 0 -181 64t-78 178q0 123 89 210t208 87zM303 419q-51 0 -94.5 -29.5
t-62.5 -85.5h280q-4 57 -39 86t-84 29z" />
    <glyph glyph-name="ecircumflex" unicode="&#xea;" horiz-adv-x="597" 
d="M313 653l-112 -87h-92l117 134h178l88 -134h-86zM306 529q40 0 80 -14t74.5 -40.5t56 -72.5t21.5 -104q0 -43 -10 -86h-394q7 -56 45.5 -85.5t97.5 -29.5q47 0 77.5 10.5t62.5 32.5l63 -69q-78 -81 -212 -81q-103 0 -181 64t-78 178q0 123 89 210t208 87zM303 419
q-51 0 -94.5 -29.5t-62.5 -85.5h280q-4 57 -39 86t-84 29z" />
    <glyph glyph-name="edieresis" unicode="&#xeb;" horiz-adv-x="597" 
d="M258 700l-12 -108h-134l12 108h134zM509 700l-12 -108h-133l12 108h133zM306 529q40 0 80 -14t74.5 -40.5t56 -72.5t21.5 -104q0 -43 -10 -86h-394q7 -56 45.5 -85.5t97.5 -29.5q47 0 77.5 10.5t62.5 32.5l63 -69q-78 -81 -212 -81q-103 0 -181 64t-78 178q0 123 89 210
t208 87zM303 419q-51 0 -94.5 -29.5t-62.5 -85.5h280q-4 57 -39 86t-84 29z" />
    <glyph glyph-name="igrave" unicode="&#xec;" horiz-adv-x="230" 
d="M-27 700h152l54 -129h-95zM182 520l-55 -520h-129l55 520h129z" />
    <glyph glyph-name="iacute" unicode="&#xed;" horiz-adv-x="233" 
d="M308 700l-139 -129h-100l82 129h157zM180 520l-55 -520h-129l55 520h129z" />
    <glyph glyph-name="icircumflex" unicode="&#xee;" horiz-adv-x="235" 
d="M224 700l88 -134h-87l-92 87l-113 -87h-92l117 134h179zM182 520l-55 -520h-129l55 520h129z" />
    <glyph glyph-name="idieresis" unicode="&#xef;" horiz-adv-x="235" 
d="M77 700l-11 -108h-134l12 108h133zM329 700l-12 -108h-133l11 108h134zM182 520l-55 -520h-129l55 520h129z" />
    <glyph glyph-name="eth" unicode="&#xf0;" horiz-adv-x="595" 
d="M452 578q49 -82 63.5 -158t3.5 -174q-13 -123 -94 -189.5t-189 -66.5q-104 0 -171.5 70t-54.5 198q15 127 88.5 194.5t184.5 67.5q48 0 69 -16l-29 55l-94 -15l7 62l52 8l-54 86h143l41 -65l97 16l-5 -62zM239 103q59 0 100.5 38.5t49.5 116.5t-23 113.5t-86 35.5
q-52 0 -91.5 -39t-48.5 -122q-8 -72 23 -107.5t76 -35.5z" />
    <glyph glyph-name="ntilde" unicode="&#xf1;" horiz-adv-x="597" 
d="M234 744q40 0 95 -34.5t76 -34.5q18 0 35 8.5t18 18.5l50 -4q-5 -54 -38 -89.5t-85 -35.5q-40 0 -96 39.5t-80 39.5q-18 0 -35 -11t-18 -25l-48 5q6 55 38.5 89t87.5 34zM350 528q83 0 135 -57.5t40 -172.5l-32 -298h-128l31 294q8 64 -16.5 93t-67.5 29q-55 0 -98 -39.5
t-56 -81.5l-33 -295h-129l55 520h129l-11 -99q13 32 63 69.5t118 37.5z" />
    <glyph glyph-name="ograve" unicode="&#xf2;" horiz-adv-x="613" 
d="M164 700h151l54 -129h-95zM304 529q47 0 92.5 -18t83 -50.5t58 -87t13.5 -120.5q-9 -84 -59 -146t-112 -89.5t-123 -27.5q-47 0 -92.5 17.5t-83.5 50t-58 86.5t-13 121q7 63 37.5 115t73.5 83.5t90.5 48.5t92.5 17zM302 415q-59 0 -109.5 -43.5t-58.5 -118.5
q-8 -70 31 -109.5t94 -39.5q59 0 110 43t59 118q7 70 -32 110t-94 40z" />
    <glyph glyph-name="oacute" unicode="&#xf3;" horiz-adv-x="613" 
d="M500 700l-138 -129h-100l82 129h156zM304 529q47 0 92.5 -18t83 -50.5t58 -87t13.5 -120.5q-9 -84 -59 -146t-112 -89.5t-123 -27.5q-47 0 -92.5 17.5t-83.5 50t-58 86.5t-13 121q7 63 37.5 115t73.5 83.5t90.5 48.5t92.5 17zM302 415q-59 0 -109.5 -43.5t-58.5 -118.5
q-8 -70 31 -109.5t94 -39.5q59 0 110 43t59 118q7 70 -32 110t-94 40z" />
    <glyph glyph-name="ocircumflex" unicode="&#xf4;" horiz-adv-x="613" 
d="M414 700l89 -134h-87l-92 87l-113 -87h-92l117 134h178zM304 529q47 0 92.5 -18t83 -50.5t58 -87t13.5 -120.5q-9 -84 -59 -146t-112 -89.5t-123 -27.5q-47 0 -92.5 17.5t-83.5 50t-58 86.5t-13 121q7 63 37.5 115t73.5 83.5t90.5 48.5t92.5 17zM302 415
q-59 0 -109.5 -43.5t-58.5 -118.5q-8 -70 31 -109.5t94 -39.5q59 0 110 43t59 118q7 70 -32 110t-94 40z" />
    <glyph glyph-name="otilde" unicode="&#xf5;" horiz-adv-x="613" 
d="M248 744q41 0 95.5 -34.5t76.5 -34.5q18 0 34.5 8.5t17.5 18.5l50 -4q-5 -54 -38 -89.5t-85 -35.5q-40 0 -96 39.5t-80 39.5q-18 0 -34.5 -11t-17.5 -25l-48 5q5 54 38 88.5t87 34.5zM304 529q47 0 92.5 -18t83 -50.5t58 -87t13.5 -120.5q-9 -84 -59 -146t-112 -89.5
t-123 -27.5q-47 0 -92.5 17.5t-83.5 50t-58 86.5t-13 121q7 63 37.5 115t73.5 83.5t90.5 48.5t92.5 17zM302 415q-59 0 -109.5 -43.5t-58.5 -118.5q-8 -70 31 -109.5t94 -39.5q59 0 110 43t59 118q7 70 -32 110t-94 40z" />
    <glyph glyph-name="odieresis" unicode="&#xf6;" horiz-adv-x="613" 
d="M268 700l-12 -108h-133l12 108h133zM520 700l-12 -108h-134l12 108h134zM304 529q47 0 92.5 -18t83 -50.5t58 -87t13.5 -120.5q-9 -84 -59 -146t-112 -89.5t-123 -27.5q-47 0 -92.5 17.5t-83.5 50t-58 86.5t-13 121q7 63 37.5 115t73.5 83.5t90.5 48.5t92.5 17zM302 415
q-59 0 -109.5 -43.5t-58.5 -118.5q-8 -70 31 -109.5t94 -39.5q59 0 110 43t59 118q7 70 -32 110t-94 40z" />
    <glyph glyph-name="divide" unicode="&#xf7;" horiz-adv-x="396" 
d="M197 374q-34 0 -54.5 22.5t-16.5 56.5q4 29 25.5 48.5t51.5 19.5q33 0 53.5 -23t16.5 -57q-4 -29 -25 -48t-51 -19zM358 329l-11 -107h-335l11 107h335zM164 27q-33 0 -53.5 23t-16.5 57q2 28 24 47.5t52 19.5q33 0 53.5 -23t16.5 -56q-3 -29 -24.5 -48.5t-51.5 -19.5z
" />
    <glyph glyph-name="oslash" unicode="&#xf8;" horiz-adv-x="613" 
d="M464 475q102 -82 87 -222q-9 -84 -59 -146t-112 -89.5t-123 -27.5q-28 0 -66 9l-31 -49h-124l59 95q-100 80 -85 220q7 63 37.5 115t73.5 83.5t90.5 48.5t92.5 17q35 0 65 -9l34 58h124zM134 253q-7 -59 20 -102l159 265q-3 0 -6.5 -0.5t-4.5 -0.5q-59 0 -109.5 -43.5
t-58.5 -118.5zM259 104q59 0 110 43t59 118q7 63 -24 105l-158 -267q3 0 7 0.5t6 0.5z" />
    <glyph glyph-name="ugrave" unicode="&#xf9;" horiz-adv-x="592" 
d="M154 700h151l54 -129h-95zM194 -8q-84 0 -137 58t-41 172l31 298h129l-31 -294q-7 -65 14 -93t66 -28q56 0 99.5 39.5t57.5 80.5l33 295h129l-55 -520h-129l13 99q-16 -33 -64.5 -70t-114.5 -37z" />
    <glyph glyph-name="uacute" unicode="&#xfa;" horiz-adv-x="592" 
d="M490 700l-138 -129h-101l82 129h157zM194 -8q-84 0 -137 58t-41 172l31 298h129l-31 -294q-7 -65 14 -93t66 -28q56 0 99.5 39.5t57.5 80.5l33 295h129l-55 -520h-129l13 99q-16 -33 -64.5 -70t-114.5 -37z" />
    <glyph glyph-name="ucircumflex" unicode="&#xfb;" horiz-adv-x="592" 
d="M404 700l88 -134h-86l-93 87l-112 -87h-92l117 134h178zM194 -8q-84 0 -137 58t-41 172l31 298h129l-31 -294q-7 -65 14 -93t66 -28q56 0 99.5 39.5t57.5 80.5l33 295h129l-55 -520h-129l13 99q-16 -33 -64.5 -70t-114.5 -37z" />
    <glyph glyph-name="udieresis" unicode="&#xfc;" horiz-adv-x="592" 
d="M258 700l-12 -108h-134l12 108h134zM509 700l-12 -108h-133l12 108h133zM194 -8q-84 0 -137 58t-41 172l31 298h129l-31 -294q-7 -65 14 -93t66 -28q56 0 99.5 39.5t57.5 80.5l33 295h129l-55 -520h-129l13 99q-16 -33 -64.5 -70t-114.5 -37z" />
    <glyph glyph-name="yacute" unicode="&#xfd;" horiz-adv-x="626" 
d="M486 700l-138 -129h-100l82 129h156zM473 521h130l-392 -711h-131l118 208l-171 503h126l122 -364z" />
    <glyph glyph-name="thorn" unicode="&#xfe;" horiz-adv-x="626" 
d="M331 529q101 0 173.5 -73.5t59.5 -201.5q-9 -85 -55.5 -147t-105.5 -89.5t-120 -27.5q-65 0 -106 30.5t-42 57.5l-30 -268h-129l34 310l41 400l20 187h129l-28 -253q6 19 52 47t107 28zM268 104q63 0 114 43t59 119q7 70 -32 109.5t-98 39.5q-62 0 -109.5 -42.5
t-55.5 -118.5q-8 -71 28 -110.5t94 -39.5z" />
    <glyph glyph-name="ydieresis" unicode="&#xff;" horiz-adv-x="626" 
d="M277 700l-11 -108h-134l12 108h133zM529 700l-12 -108h-133l12 108h133zM473 521h130l-392 -711h-131l118 208l-171 503h126l122 -364z" />
    <glyph glyph-name="Amacron" unicode="&#x100;" horiz-adv-x="775" 
d="M615 880l-11 -106h-376l12 106h375zM567 0l-43 135h-347l-72 -135h-142l386 700h117l237 -700h-136zM235 242h252l-95 296z" />
    <glyph glyph-name="amacron" unicode="&#x101;" 
d="M557 700l-12 -106h-376l12 106h376zM292 529q45 0 81 -17t52 -34t17 -28l9 70h128l-55 -520h-128l9 73q-7 -26 -52.5 -54.5t-107.5 -28.5q-59 0 -111 25t-88.5 81.5t-36.5 133.5q0 124 83.5 211.5t199.5 87.5zM297 415q-68 0 -114 -49.5t-46 -124.5q0 -66 38.5 -101.5
t96.5 -35.5q60 0 109 45t49 132q0 64 -39 99t-94 35z" />
    <glyph glyph-name="Abreve" unicode="&#x102;" horiz-adv-x="775" 
d="M417 737q-71 0 -111.5 45t-35.5 100l80 -4q2 -23 19 -38.5t48 -15.5q33 0 56.5 17.5t30.5 40.5l80 -4q-7 -58 -50 -99.5t-117 -41.5zM567 0l-43 135h-347l-72 -135h-142l386 700h117l237 -700h-136zM235 242h252l-95 296z" />
    <glyph glyph-name="abreve" unicode="&#x103;" 
d="M525 698q-6 -57 -49 -99t-118 -42q-71 0 -111.5 45t-34.5 100l79 -4q2 -22 19.5 -38t47.5 -16q34 0 57.5 17.5t30.5 40.5zM292 529q45 0 81 -17t52 -34t17 -28l9 70h128l-55 -520h-128l9 73q-7 -26 -52.5 -54.5t-107.5 -28.5q-59 0 -111 25t-88.5 81.5t-36.5 133.5
q0 124 83.5 211.5t199.5 87.5zM297 415q-68 0 -114 -49.5t-46 -124.5q0 -66 38.5 -101.5t96.5 -35.5q60 0 109 45t49 132q0 64 -39 99t-94 35z" />
    <glyph glyph-name="Aogonek" unicode="&#x104;" horiz-adv-x="779" 
d="M540 -114q-3 -24 23 -31.5t51 5.5l27 -59q-25 -13 -64.5 -17t-77 3.5t-62.5 33t-21 65.5q9 78 148 115l-40 134h-347l-72 -135h-142l386 700h117l241 -701q-160 -48 -167 -113zM235 242h252l-95 296z" />
    <glyph glyph-name="aogonek" unicode="&#x105;" horiz-adv-x="629" 
d="M527 -1q-86 -29 -119 -51.5t-36 -57.5q-3 -25 23 -34t50 3l28 -58q-25 -13 -64.5 -16.5t-77 3.5t-63 31.5t-21.5 62.5q9 77 146 119l12 72q-7 -26 -52.5 -54.5t-107.5 -28.5q-101 0 -174 72.5t-60 203.5q14 123 99 193t182 70q45 0 81 -17t52 -34t17 -28l9 70h128z
M265 104q62 0 109.5 42.5t55.5 119.5q7 71 -28.5 110t-93.5 39q-63 0 -113.5 -43t-59.5 -118q-8 -71 31 -110.5t99 -39.5z" />
    <glyph glyph-name="Cacute" unicode="&#x106;" horiz-adv-x="673" 
d="M589 880l-138 -129h-100l82 129h156zM598 73q-102 -83 -245 -83q-139 0 -234.5 91t-95.5 233q0 164 118.5 280t278.5 116q138 0 228 -85l-89 -87q-59 49 -139 49q-105 0 -183.5 -76.5t-79.5 -194.5q0 -89 61.5 -146t152.5 -57q83 0 157 56z" />
    <glyph glyph-name="cacute" unicode="&#x107;" horiz-adv-x="559" 
d="M484 700l-139 -129h-100l82 129h157zM304 529q73 0 128 -33t84 -95l-100 -41q-42 55 -112 55q-54 0 -106 -38.5t-64 -114.5q-11 -74 28.5 -115.5t97.5 -41.5q76 0 132 58l97 -50q-84 -122 -233 -122q-48 0 -94 18t-84 51.5t-57 90t-10 125.5q9 64 41.5 115t77 80
t89.5 43.5t85 14.5z" />
    <glyph glyph-name="Cdotaccent" unicode="&#x10a;" horiz-adv-x="673" 
d="M483 880l-12 -108h-133l11 108h134zM598 73q-102 -83 -245 -83q-139 0 -234.5 91t-95.5 233q0 164 118.5 280t278.5 116q138 0 228 -85l-89 -87q-59 49 -139 49q-105 0 -183.5 -76.5t-79.5 -194.5q0 -89 61.5 -146t152.5 -57q83 0 157 56z" />
    <glyph glyph-name="cdotaccent" unicode="&#x10b;" horiz-adv-x="561" 
d="M379 700l-12 -108h-134l12 108h134zM305 529q73 0 128 -32.5t84 -95.5l-102 -41q-40 55 -117 55q-66 0 -115 -50t-49 -128q0 -63 39 -98t92 -35q72 0 128 59l98 -50q-86 -122 -234 -122q-44 0 -87 15.5t-79.5 44.5t-59 77t-22.5 108q0 124 87.5 208.5t208.5 84.5z" />
    <glyph glyph-name="Ccaron" unicode="&#x10c;" horiz-adv-x="673" 
d="M492 746h-179l-88 134h87l93 -87l112 87h92zM598 73q-102 -83 -245 -83q-139 0 -234.5 91t-95.5 233q0 164 118.5 280t278.5 116q138 0 228 -85l-89 -87q-59 49 -139 49q-105 0 -183.5 -76.5t-79.5 -194.5q0 -89 61.5 -146t152.5 -57q83 0 157 56z" />
    <glyph glyph-name="ccaron" unicode="&#x10d;" horiz-adv-x="561" 
d="M387 566h-178l-88 134h86l94 -87l111 87h92zM305 529q73 0 128 -32.5t84 -95.5l-102 -41q-40 55 -117 55q-66 0 -115 -50t-49 -128q0 -63 39 -98t92 -35q72 0 128 59l98 -50q-86 -122 -234 -122q-44 0 -87 15.5t-79.5 44.5t-59 77t-22.5 108q0 124 87.5 208.5t208.5 84.5
z" />
    <glyph glyph-name="Dcaron" unicode="&#x10e;" horiz-adv-x="692" 
d="M459 746h-178l-89 134h87l93 -87l112 87h92zM315 700q149 0 241.5 -103t77.5 -250q-16 -146 -127.5 -246.5t-261.5 -100.5h-242l74 700h238zM253 124q103 0 170.5 67t78.5 168q10 91 -42.5 154t-154.5 63h-110l-48 -452h106z" />
    <glyph glyph-name="dcaron" unicode="&#x10f;" horiz-adv-x="841" 
d="M471 707h128l-75 -707h-128l9 73q-7 -26 -52.5 -54.5t-107.5 -28.5q-59 0 -111 25t-88.5 81.5t-36.5 133.5q0 124 83.5 211.5t199.5 87.5q45 0 81 -17t52 -34t17 -28zM704 700h157l-138 -129h-100zM297 415q-68 0 -114 -49.5t-46 -124.5q0 -66 38.5 -101.5t96.5 -35.5
q60 0 109 45t49 132q0 64 -39 99t-94 35z" />
    <glyph glyph-name="Dcroat" unicode="&#x110;" horiz-adv-x="770" 
d="M392 700q149 0 242 -103t78 -250q-16 -146 -128 -246.5t-261 -100.5h-242l30 290h-58l11 107h58l33 303h237zM330 124q103 0 171 67t79 168q9 92 -43 154.5t-154 62.5h-111l-19 -179h121l-11 -107h-121l-17 -166h105z" />
    <glyph glyph-name="dcroat" unicode="&#x111;" horiz-adv-x="660" 
d="M675 663l-11 -106h-81l-13 -125l-46 -432h-128l9 73q-7 -26 -52.5 -54.5t-107.5 -28.5q-101 0 -174 72.5t-60 203.5q14 123 99 193t182 70q45 0 81 -17t52 -34t17 -28l13 107h-167l11 106h166l6 44h128l-5 -44h81zM265 104q62 0 109.5 42.5t55.5 119.5q7 71 -28.5 110
t-93.5 39q-63 0 -113.5 -43t-59.5 -118q-8 -71 31 -110.5t99 -39.5z" />
    <glyph glyph-name="Emacron" unicode="&#x112;" horiz-adv-x="537" 
d="M507 880l-12 -106h-376l12 106h376zM147 121h305l-13 -121h-436l74 700h427l-13 -121h-296l-17 -168h225l-13 -118h-225z" />
    <glyph glyph-name="emacron" unicode="&#x113;" horiz-adv-x="597" 
d="M504 700l-11 -106h-376l12 106h375zM306 529q40 0 80 -14t74.5 -40.5t56 -72.5t21.5 -104q0 -43 -10 -86h-394q7 -56 45.5 -85.5t97.5 -29.5q47 0 77.5 10.5t62.5 32.5l63 -69q-78 -81 -212 -81q-103 0 -181 64t-78 178q0 123 89 210t208 87zM303 419q-51 0 -94.5 -29.5
t-62.5 -85.5h280q-4 57 -39 86t-84 29z" />
    <glyph glyph-name="Edotaccent" unicode="&#x116;" horiz-adv-x="537" 
d="M386 880l-12 -108h-133l11 108h134zM147 121h305l-13 -121h-436l74 700h427l-13 -121h-296l-17 -168h225l-13 -118h-225z" />
    <glyph glyph-name="edotaccent" unicode="&#x117;" horiz-adv-x="597" 
d="M383 700l-11 -108h-134l12 108h133zM306 529q40 0 80 -14t74.5 -40.5t56 -72.5t21.5 -104q0 -43 -10 -86h-394q7 -56 45.5 -85.5t97.5 -29.5q47 0 77.5 10.5t62.5 32.5l63 -69q-78 -81 -212 -81q-103 0 -181 64t-78 178q0 123 89 210t208 87zM303 419q-51 0 -94.5 -29.5
t-62.5 -85.5h280q-4 57 -39 86t-84 29z" />
    <glyph glyph-name="Eogonek" unicode="&#x118;" horiz-adv-x="538" 
d="M441 -1q-150 -47 -155 -113q-3 -24 22.5 -31.5t51.5 5.5l26 -59q-25 -13 -64 -17t-77 3.5t-63 33t-21 65.5q9 77 153 115l-311 -1l74 700h427l-13 -121h-296l-17 -168h225l-13 -118h-225l-18 -172h305z" />
    <glyph glyph-name="eogonek" unicode="&#x119;" horiz-adv-x="595" 
d="M304 529q48 0 93 -18t83 -56t51 -98.5t-4 -144.5h-394q8 -56 45.5 -84.5t94.5 -28.5q32 0 59.5 6.5t41.5 13.5t40 22l68 -73q-55 -52 -127 -69q-87 -29 -120.5 -51.5t-35.5 -57.5q-3 -25 22.5 -34t50.5 3l27 -58q-25 -13 -64.5 -16.5t-77 3.5t-62.5 31.5t-21 62.5
q8 73 131 113q-90 18 -148 88.5t-47 181.5q7 63 37.5 115t73.5 83.5t90.5 48.5t92.5 17zM302 419q-48 0 -93 -30.5t-65 -84.5l281 5q-4 53 -40 81.5t-83 28.5z" />
    <glyph glyph-name="Ecaron" unicode="&#x11a;" horiz-adv-x="537" 
d="M395 746h-179l-88 134h87l93 -87l112 87h92zM147 121h305l-13 -121h-436l74 700h427l-13 -121h-296l-17 -168h225l-13 -118h-225z" />
    <glyph glyph-name="ecaron" unicode="&#x11b;" horiz-adv-x="597" 
d="M392 566h-178l-88 134h86l94 -87l111 87h92zM306 529q40 0 80 -14t74.5 -40.5t56 -72.5t21.5 -104q0 -43 -10 -86h-394q7 -56 45.5 -85.5t97.5 -29.5q47 0 77.5 10.5t62.5 32.5l63 -69q-78 -81 -212 -81q-103 0 -181 64t-78 178q0 123 89 210t208 87zM303 419
q-51 0 -94.5 -29.5t-62.5 -85.5h280q-4 57 -39 86t-84 29z" />
    <glyph glyph-name="Gbreve" unicode="&#x11e;" horiz-adv-x="762" 
d="M435 737q-71 0 -111.5 45t-35.5 100l80 -4q2 -23 19 -38.5t48 -15.5q33 0 56.5 17.5t30.5 40.5l80 -4q-7 -58 -49.5 -99.5t-117.5 -41.5zM405 368h295q3 -170 -98 -274t-248 -104q-139 0 -235 91t-96 233q0 164 118.5 280t278.5 116q138 0 228 -85l-89 -87
q-59 49 -139 49q-105 0 -183.5 -76.5t-79.5 -194.5q0 -88 60 -145.5t147 -57.5q165 0 204 145h-175z" />
    <glyph glyph-name="gbreve" unicode="&#x11f;" 
d="M335 557q-70 0 -111 45t-35 100l79 -4q2 -22 19.5 -38t47.5 -16q34 0 57.5 17.5t30.5 40.5l79 -4q-6 -57 -49 -99t-118 -42zM451 520h128l-55 -520q-6 -57 -34.5 -99t-70.5 -64.5t-85 -32.5t-87 -10q-91 0 -144 32l7 104q46 -29 138 -29q66 0 104 29t44 70l9 73
q-7 -26 -52.5 -54.5t-107.5 -28.5q-59 0 -111 25t-88.5 81.5t-36.5 133.5q0 124 83.5 211.5t199.5 87.5q45 0 81 -17t52 -34t17 -28zM297 415q-68 0 -114 -49.5t-46 -124.5q0 -66 38.5 -101.5t96.5 -35.5q60 0 109 45t49 132q0 64 -39 99t-94 35z" />
    <glyph glyph-name="Gdotaccent" unicode="&#x120;" horiz-adv-x="762" 
d="M513 880l-12 -108h-134l12 108h134zM405 368h295q3 -170 -98 -274t-248 -104q-139 0 -235 91t-96 233q0 164 118.5 280t278.5 116q138 0 228 -85l-89 -87q-59 49 -139 49q-105 0 -183.5 -76.5t-79.5 -194.5q0 -88 60 -145.5t147 -57.5q165 0 204 145h-175z" />
    <glyph glyph-name="gdotaccent" unicode="&#x121;" 
d="M413 700l-12 -108h-133l12 108h133zM451 520h128l-55 -520q-6 -57 -34.5 -99t-70.5 -64.5t-85 -32.5t-87 -10q-91 0 -144 32l7 104q46 -29 138 -29q66 0 104 29t44 70l9 73q-7 -26 -52.5 -54.5t-107.5 -28.5q-59 0 -111 25t-88.5 81.5t-36.5 133.5q0 124 83.5 211.5
t199.5 87.5q45 0 81 -17t52 -34t17 -28zM297 415q-68 0 -114 -49.5t-46 -124.5q0 -66 38.5 -101.5t96.5 -35.5q60 0 109 45t49 132q0 64 -39 99t-94 35z" />
    <glyph glyph-name="Gcommaaccent" unicode="&#x122;" horiz-adv-x="762" 
d="M405 368h295q3 -170 -98 -274t-248 -104q-139 0 -235 91t-96 233q0 164 118.5 280t278.5 116q138 0 228 -85l-89 -87q-59 49 -139 49q-105 0 -183.5 -76.5t-79.5 -194.5q0 -88 60 -145.5t147 -57.5q165 0 204 145h-175zM175 -256l76 228h172l-131 -228h-117z" />
    <glyph glyph-name="gcommaaccent" unicode="&#x123;" 
d="M465 801l-78 -228h-172l132 228h118zM451 520h128l-55 -520q-6 -57 -34.5 -99t-70.5 -64.5t-85 -32.5t-87 -10q-91 0 -144 32l7 104q46 -29 138 -29q66 0 104 29t44 70l9 73q-7 -26 -52.5 -54.5t-107.5 -28.5q-59 0 -111 25t-88.5 81.5t-36.5 133.5q0 124 83.5 211.5
t199.5 87.5q45 0 81 -17t52 -34t17 -28zM297 415q-68 0 -114 -49.5t-46 -124.5q0 -66 38.5 -101.5t96.5 -35.5q60 0 109 45t49 132q0 64 -39 99t-94 35z" />
    <glyph glyph-name="Hbar" unicode="&#x126;" horiz-adv-x="678" 
d="M508 700h131l-74 -700h-131l29 288h-299l-30 -288h-131l74 700h131l-10 -92h299zM177 409h300l9 78h-300z" />
    <glyph glyph-name="hbar" unicode="&#x127;" horiz-adv-x="610" 
d="M360 528q84 0 137 -58t41 -172l-32 -298h-128l31 294q13 122 -81 122q-55 0 -99 -40t-58 -81l-33 -295h-129l60 558h-64l6 70h65l8 79h129l-9 -79h128l-6 -70h-128l-16 -137q13 32 62.5 69.5t115.5 37.5z" />
    <glyph glyph-name="Imacron" unicode="&#x12a;" horiz-adv-x="251" 
d="M351 880l-11 -106h-376l12 106h375zM210 700l-74 -700h-131l74 700h131z" />
    <glyph glyph-name="imacron" unicode="&#x12b;" horiz-adv-x="235" 
d="M324 700l-12 -106h-375l12 106h375zM182 520l-55 -520h-129l55 520h129z" />
    <glyph glyph-name="Iogonek" unicode="&#x12e;" horiz-adv-x="255" 
d="M143 -1q-157 -46 -162 -113q-3 -24 22.5 -31.5t51.5 5.5l26 -59q-25 -13 -64 -17t-77 3.5t-63 33t-21 65.5q9 77 151 115l76 699h131z" />
    <glyph glyph-name="iogonek" unicode="&#x12f;" horiz-adv-x="232" 
d="M70 700h133l-11 -108h-134zM-4 1l57 519h129l-53 -521q-155 -46 -162 -113q-3 -24 23 -31.5t51 5.5l27 -59q-25 -13 -64.5 -17t-77 3.5t-62.5 33t-21 65.5q9 77 153 115z" />
    <glyph glyph-name="Idotaccent" unicode="&#x130;" horiz-adv-x="251" 
d="M230 880l-11 -108h-134l12 108h133zM210 700l-74 -700h-131l74 700h131z" />
    <glyph glyph-name="dotlessi" unicode="&#x131;" horiz-adv-x="228" 
d="M180 520l-55 -520h-129l55 520h129z" />
    <glyph glyph-name="IJ" unicode="&#x132;" horiz-adv-x="786" 
d="M208 700l-74 -700h-131l74 700h131zM747 700l-49 -467q-5 -53 -24.5 -95.5t-46.5 -70t-60.5 -46t-65.5 -26t-64 -7.5q-137 0 -204 99l87 90q45 -63 114 -63q48 0 87.5 31.5t48.5 109.5l46 445h131z" />
    <glyph glyph-name="ij" unicode="&#x133;" horiz-adv-x="485" 
d="M200 707l-12 -110h-128l11 110h129zM457 707l-12 -110h-128l11 110h129zM180 520l-55 -520h-129l55 520h129zM437 520l-61 -574q-16 -152 -161 -152q-66 0 -107 27l7 123q35 -19 73 -19q56 0 65 65l55 530h129z" />
    <glyph glyph-name="Kcommaaccent" unicode="&#x136;" horiz-adv-x="689" 
d="M351 397l256 -397h-148l-197 306l-102 -102l-22 -204h-135l74 700h135l-35 -321l312 321h164zM153 -256l77 228h172l-131 -228h-118z" />
    <glyph glyph-name="kcommaaccent" unicode="&#x137;" horiz-adv-x="577" 
d="M284 298l226 -298h-146l-165 214l-55 -50l-19 -164h-129l20 182l55 525h129l-43 -387l207 200h157zM78 -256l77 228h171l-131 -228h-117z" />
    <glyph glyph-name="Lacute" unicode="&#x139;" horiz-adv-x="506" 
d="M341 878l-139 -129h-100l82 129h157zM147 121h284l-13 -121h-415l74 700h131z" />
    <glyph glyph-name="lacute" unicode="&#x13a;" horiz-adv-x="233" 
d="M328 887l-138 -129h-100l82 129h156zM200 707l-75 -707h-129l75 707h129z" />
    <glyph glyph-name="Lcommaaccent" unicode="&#x13b;" horiz-adv-x="506" 
d="M147 121h284l-13 -121h-415l74 700h131zM45 -256l77 228h171l-131 -228h-117z" />
    <glyph glyph-name="lcommaaccent" unicode="&#x13c;" horiz-adv-x="254" 
d="M202 707l-75 -707h-129l75 707h129zM-99 -256l76 228h172l-131 -228h-117z" />
    <glyph glyph-name="Lcaron" unicode="&#x13d;" horiz-adv-x="506" 
d="M486 710l-117 -257h-114l118 257h113zM147 121h284l-13 -121h-415l74 700h131z" />
    <glyph glyph-name="lcaron" unicode="&#x13e;" horiz-adv-x="458" 
d="M200 707l-75 -707h-129l75 707h129zM228 443l118 257h113l-118 -257h-113z" />
    <glyph glyph-name="Ldot" unicode="&#x13f;" horiz-adv-x="506" 
d="M147 121h284l-13 -121h-415l74 700h131zM374 291q-33 0 -53.5 22.5t-16.5 56.5q3 29 24.5 48.5t51.5 19.5q34 0 54 -23t16 -57q-3 -29 -24.5 -48t-51.5 -19z" />
    <glyph glyph-name="ldot" unicode="&#x140;" horiz-adv-x="419" 
d="M200 707l-75 -707h-129l75 707h129zM299 289q-34 0 -54 22.5t-16 56.5q3 29 24.5 48.5t51.5 19.5q33 0 53.5 -23t16.5 -57q-3 -29 -24.5 -48t-51.5 -19z" />
    <glyph glyph-name="Lslash" unicode="&#x141;" horiz-adv-x="564" 
d="M205 121h284l-13 -121h-415l23 204l-68 -64l11 133l68 64l40 363h131l-25 -225l101 96h2l-12 -132l-103 -97z" />
    <glyph glyph-name="lslash" unicode="&#x142;" horiz-adv-x="321" 
d="M295 561l-12 -133l-72 -69l-40 -359h-129l25 223l-74 -70l11 134l75 70l38 350h129l-24 -214l71 68h2z" />
    <glyph glyph-name="Nacute" unicode="&#x143;" horiz-adv-x="712" 
d="M568 880l-138 -129h-100l81 129h157zM542 700h131l-74 -700h-99l-315 461l-51 -461h-131l74 700h100l315 -462z" />
    <glyph glyph-name="nacute" unicode="&#x144;" horiz-adv-x="597" 
d="M486 700l-138 -129h-101l82 129h157zM350 528q83 0 135 -57.5t40 -172.5l-32 -298h-128l31 294q8 64 -16.5 93t-67.5 29q-55 0 -98 -39.5t-56 -81.5l-33 -295h-129l55 520h129l-11 -99q13 32 63 69.5t118 37.5z" />
    <glyph glyph-name="Ncommaaccent" unicode="&#x145;" horiz-adv-x="712" 
d="M542 700h131l-74 -700h-99l-315 461l-51 -461h-131l74 700h100l315 -462zM140 -256l76 228h172l-131 -228h-117z" />
    <glyph glyph-name="ncommaaccent" unicode="&#x146;" horiz-adv-x="597" 
d="M350 528q83 0 135 -57.5t40 -172.5l-32 -298h-128l31 294q8 64 -16.5 93t-67.5 29q-55 0 -98 -39.5t-56 -81.5l-33 -295h-129l55 520h129l-11 -99q13 32 63 69.5t118 37.5zM76 -256l77 228h172l-131 -228h-118z" />
    <glyph glyph-name="Ncaron" unicode="&#x147;" horiz-adv-x="712" 
d="M470 746h-178l-88 134h86l94 -87l111 87h92zM542 700h131l-74 -700h-99l-315 461l-51 -461h-131l74 700h100l315 -462z" />
    <glyph glyph-name="ncaron" unicode="&#x148;" horiz-adv-x="597" 
d="M388 566h-178l-88 134h86l94 -87l111 87h92zM350 528q83 0 135 -57.5t40 -172.5l-32 -298h-128l31 294q8 64 -16.5 93t-67.5 29q-55 0 -98 -39.5t-56 -81.5l-33 -295h-129l55 520h129l-11 -99q13 32 63 69.5t118 37.5z" />
    <glyph glyph-name="Eng" unicode="&#x14a;" horiz-adv-x="712" 
d="M540 700h133l-67 -646l-3 -19q-5 -53 -24.5 -95.5t-46.5 -70t-60.5 -46t-65.5 -26t-64 -7.5q-136 0 -203 99l86 90q47 -63 114 -63q28 0 52.5 9t49.5 39t33 79l-289 419l-51 -462h-131l74 700h100l315 -462z" />
    <glyph glyph-name="eng" unicode="&#x14b;" horiz-adv-x="597" 
d="M347 528q84 0 137 -58t41 -172l-32 -298l-5 -54q-8 -77 -50.5 -114.5t-111.5 -37.5q-64 0 -107 27l7 123q35 -19 73 -19q58 0 65 65l3 30l29 274q13 122 -81 122q-55 0 -99 -40t-58 -81l-33 -295h-129l55 520h129l-11 -99q13 32 62.5 69.5t115.5 37.5z" />
    <glyph glyph-name="Omacron" unicode="&#x14c;" horiz-adv-x="808" 
d="M628 880l-12 -106h-375l11 106h376zM419 710q149 0 246.5 -104t81.5 -262q-16 -153 -132.5 -253.5t-262.5 -100.5q-149 0 -246.5 104t-80.5 262q16 153 132 253.5t262 100.5zM356 113q96 0 171 69t85 174q10 99 -48 165t-149 66q-95 0 -169.5 -69t-85.5 -174
q-11 -99 46.5 -165t149.5 -66z" />
    <glyph glyph-name="omacron" unicode="&#x14d;" horiz-adv-x="613" 
d="M515 700l-12 -106h-375l11 106h376zM304 529q47 0 92.5 -18t83 -50.5t58 -87t13.5 -120.5q-9 -84 -59 -146t-112 -89.5t-123 -27.5q-47 0 -92.5 17.5t-83.5 50t-58 86.5t-13 121q7 63 37.5 115t73.5 83.5t90.5 48.5t92.5 17zM302 415q-59 0 -109.5 -43.5t-58.5 -118.5
q-8 -70 31 -109.5t94 -39.5q59 0 110 43t59 118q7 70 -32 110t-94 40z" />
    <glyph glyph-name="Ohungarumlaut" unicode="&#x150;" horiz-adv-x="808" 
d="M536 880l-138 -129h-100l82 129h156zM735 880l-138 -129h-100l82 129h156zM419 710q149 0 246.5 -104t81.5 -262q-16 -153 -132.5 -253.5t-262.5 -100.5q-149 0 -246.5 104t-80.5 262q16 153 132 253.5t262 100.5zM356 113q96 0 171 69t85 174q10 99 -48 165t-149 66
q-95 0 -169.5 -69t-85.5 -174q-11 -99 46.5 -165t149.5 -66z" />
    <glyph glyph-name="ohungarumlaut" unicode="&#x151;" horiz-adv-x="613" 
d="M423 700l-138 -129h-100l82 129h156zM622 700l-138 -129h-100l82 129h156zM304 529q47 0 92.5 -18t83 -50.5t58 -87t13.5 -120.5q-9 -84 -59 -146t-112 -89.5t-123 -27.5q-47 0 -92.5 17.5t-83.5 50t-58 86.5t-13 121q7 63 37.5 115t73.5 83.5t90.5 48.5t92.5 17z
M302 415q-59 0 -109.5 -43.5t-58.5 -118.5q-8 -70 31 -109.5t94 -39.5q59 0 110 43t59 118q7 70 -32 110t-94 40z" />
    <glyph glyph-name="OE" unicode="&#x152;" horiz-adv-x="1113" 
d="M723 121h305l-13 -121h-436l9 61q-104 -71 -236 -71q-149 0 -246.5 104t-80.5 262q16 153 132 253.5t262 100.5q127 0 224 -75l10 65h427l-13 -121h-296l-17 -168h225l-13 -118h-225zM356 113q90 0 168 70t89 173q9 98 -51 164.5t-147 66.5q-95 0 -169.5 -69t-85.5 -174
q-11 -99 46.5 -165t149.5 -66z" />
    <glyph glyph-name="oe" unicode="&#x153;" horiz-adv-x="1013" 
d="M722 529q48 0 93 -18t83 -56t51 -98.5t-4 -144.5h-395q8 -56 45.5 -84.5t94.5 -28.5q33 0 60 6.5t41.5 13.5t39.5 22l68 -73q-83 -78 -215 -78q-60 0 -117 24t-92 66q-96 -90 -218 -90q-47 0 -92.5 17.5t-83.5 50t-58 86.5t-13 121q7 63 37.5 115t73.5 83.5t90.5 48.5
t92.5 17q55 0 110 -24t91 -67q46 45 104.5 68t112.5 23zM720 419q-49 0 -93.5 -30.5t-64.5 -84.5l281 5q-4 53 -40.5 81.5t-82.5 28.5zM259 104q59 0 110 43t59 118q7 70 -32 110t-94 40q-59 0 -109.5 -43.5t-58.5 -118.5q-8 -70 31 -109.5t94 -39.5z" />
    <glyph glyph-name="Racute" unicode="&#x154;" horiz-adv-x="635" 
d="M502 880l-138 -129h-100l82 129h156zM544 0h-137l-130 238h-118l-25 -238h-131l74 700h238q117 0 181 -66.5t52 -174.5q-7 -69 -45.5 -121t-102.5 -79zM171 351h100q62 0 102 29.5t46 90.5q6 55 -25.5 81.5t-93.5 26.5h-105z" />
    <glyph glyph-name="racute" unicode="&#x155;" horiz-adv-x="423" 
d="M405 700l-138 -129h-100l82 129h156zM359 528q26 0 37 -2l-8 -123q-11 2 -29 2q-76 0 -135 -49.5t-74 -126.5l-25 -229h-129l55 520h129l-15 -127q25 60 76 97.5t118 37.5z" />
    <glyph glyph-name="Rcommaaccent" unicode="&#x156;" horiz-adv-x="635" 
d="M544 0h-137l-130 238h-118l-25 -238h-131l74 700h238q117 0 181 -66.5t52 -174.5q-7 -69 -45.5 -121t-102.5 -79zM171 351h100q62 0 102 29.5t46 90.5q6 55 -25.5 81.5t-93.5 26.5h-105zM94 -256l77 228h172l-131 -228h-118z" />
    <glyph glyph-name="rcommaaccent" unicode="&#x157;" horiz-adv-x="425" 
d="M361 528q26 0 37 -2l-8 -123q-11 2 -29 2q-76 0 -135 -49.5t-74 -126.5l-25 -229h-129l55 520h129l-15 -127q25 60 76 97.5t118 37.5zM-102 -256l76 228h172l-131 -228h-117z" />
    <glyph glyph-name="Rcaron" unicode="&#x158;" horiz-adv-x="635" 
d="M405 746h-179l-88 134h87l93 -87l112 87h92zM544 0h-137l-130 238h-118l-25 -238h-131l74 700h238q117 0 181 -66.5t52 -174.5q-7 -69 -45.5 -121t-102.5 -79zM171 351h100q62 0 102 29.5t46 90.5q6 55 -25.5 81.5t-93.5 26.5h-105z" />
    <glyph glyph-name="rcaron" unicode="&#x159;" horiz-adv-x="454" 
d="M336 566h-178l-89 134h87l93 -87l112 87h92zM387 528q26 0 37 -2l-8 -123q-11 2 -29 2q-76 0 -135 -49.5t-74 -126.5l-25 -229h-129l55 520h129l-15 -127q25 60 76 97.5t118 37.5z" />
    <glyph glyph-name="Sacute" unicode="&#x15a;" horiz-adv-x="563" 
d="M496 880l-138 -129h-100l82 129h156zM299 712q83 0 139.5 -43.5t82.5 -104.5l-102 -52q-47 84 -130 84q-44 0 -74.5 -23t-30.5 -62q0 -31 18 -50t59 -35l46 -17q100 -37 147 -85t47 -114q0 -103 -81 -164t-185 -61q-92 0 -157.5 49.5t-83.5 125.5l105 48
q34 -104 139 -104q55 0 91.5 27t36.5 77q0 32 -23 52.5t-78 41.5l-43 17q-80 30 -123 72.5t-43 115.5q0 92 73 148.5t170 56.5z" />
    <glyph glyph-name="sacute" unicode="&#x15b;" horiz-adv-x="456" 
d="M411 700l-138 -129h-100l82 129h156zM288 373q-18 53 -66 53q-27 0 -47 -14.5t-23 -37.5q-3 -34 43 -50l58 -21q35 -13 55.5 -23.5t43 -28.5t31.5 -45t5 -64q-7 -70 -70.5 -111.5t-143.5 -41.5q-74 0 -128.5 40t-63.5 106l104 27q18 -71 89 -71q32 0 57.5 18.5t29.5 45.5
q2 31 -46 49l-57 22q-142 52 -130 162q7 63 62 102t127 39q71 0 116 -35.5t61 -96.5z" />
    <glyph glyph-name="Scedilla" unicode="&#x15e;" horiz-adv-x="562" 
d="M500 186q-8 -81 -69.5 -132t-146.5 -65l-44 -32q38 -7 64 -30.5t22 -59.5q-5 -56 -67 -78t-146 0l8 30q44 -9 73.5 10.5t32.5 49.5q1 20 -18.5 30.5t-45.5 -5.5l-40 38l38 52q-64 17 -108.5 61.5t-58.5 104.5l104 48q39 -104 140 -104q51 0 86.5 24t40.5 68
q4 39 -18.5 61t-81.5 45l-44 17q-85 33 -128 80t-35 131q8 78 78 130t162 52q84 0 140.5 -43.5t82.5 -104.5l-102 -52q-47 84 -123 84q-44 0 -75 -23.5t-35 -60.5q-3 -30 14 -49.5t61 -36.5l46 -17q108 -41 154.5 -94t38.5 -129z" />
    <glyph glyph-name="scedilla" unicode="&#x15f;" horiz-adv-x="456" 
d="M388 142q-6 -54 -47 -92.5t-100 -54.5l-50 -35q37 -8 63 -31t23 -59q-6 -56 -68 -78t-146 -1l8 31q44 -9 73.5 10.5t32.5 49.5q2 19 -18 30t-46 -5l-40 37l39 53q-51 14 -87 51t-43 87l104 27q18 -71 89 -71q32 0 57.5 18.5t29.5 45.5q2 31 -46 49l-57 22
q-142 52 -130 162q7 63 62 102t127 39q71 0 116 -35.5t61 -96.5l-107 -24q-18 53 -66 53q-27 0 -47 -14.5t-23 -37.5q-3 -34 43 -50l58 -21q35 -13 55.5 -23.5t43 -28.5t31.5 -45t5 -64z" />
    <glyph glyph-name="Scaron" unicode="&#x160;" horiz-adv-x="563" 
d="M399 746h-179l-88 134h87l93 -87l112 87h92zM299 712q83 0 139.5 -43.5t82.5 -104.5l-102 -52q-47 84 -130 84q-44 0 -74.5 -23t-30.5 -62q0 -31 18 -50t59 -35l46 -17q100 -37 147 -85t47 -114q0 -103 -81 -164t-185 -61q-92 0 -157.5 49.5t-83.5 125.5l105 48
q34 -104 139 -104q55 0 91.5 27t36.5 77q0 32 -23 52.5t-78 41.5l-43 17q-80 30 -123 72.5t-43 115.5q0 92 73 148.5t170 56.5z" />
    <glyph glyph-name="scaron" unicode="&#x161;" horiz-adv-x="456" 
d="M314 566h-179l-88 134h87l93 -87l112 87h92zM288 373q-18 53 -66 53q-27 0 -47 -14.5t-23 -37.5q-3 -34 43 -50l58 -21q35 -13 55.5 -23.5t43 -28.5t31.5 -45t5 -64q-7 -70 -70.5 -111.5t-143.5 -41.5q-74 0 -128.5 40t-63.5 106l104 27q18 -71 89 -71q32 0 57.5 18.5
t29.5 45.5q2 31 -46 49l-57 22q-142 52 -130 162q7 63 62 102t127 39q71 0 116 -35.5t61 -96.5z" />
    <glyph glyph-name="uni0162" unicode="&#x162;" horiz-adv-x="564" 
d="M356 579l-60 -579l-55 -43q38 -7 64 -30.5t22 -59.5q-5 -56 -67 -78t-146 0l8 30q44 -9 73.5 10.5t32.5 49.5q1 20 -18.5 30.5t-45.5 -5.5l-40 38l39 58l62 579h-176l13 121h483l-13 -121h-176z" />
    <glyph glyph-name="uni0163" unicode="&#x163;" horiz-adv-x="380" 
d="M328 414h-111l-27 -259q-6 -48 32 -48q35 0 72 13l-6 -110q-22 -8 -35 -11l-57 -42q37 -7 63.5 -30.5t21.5 -59.5q-5 -56 -67 -78t-146 0l9 30q44 -9 73.5 10.5t32.5 49.5q1 20 -18.5 30.5t-46.5 -5.5l-39 38l48 61q-79 27 -66 154l28 257h-73l11 106h72l13 122h129
l-13 -122h110z" />
    <glyph glyph-name="Tcaron" unicode="&#x164;" horiz-adv-x="564" 
d="M398 746h-178l-88 134h86l94 -87l111 87h92zM545 700l-13 -121h-176l-61 -579h-131l61 579h-176l13 121h483z" />
    <glyph glyph-name="tcaron" unicode="&#x165;" horiz-adv-x="517" 
d="M326 700l217 45l-166 -174l-144 -45zM241 642l-13 -122h110l-10 -106h-111l-27 -259q-6 -48 32 -48q35 0 72 13l-6 -109q-37 -17 -102 -17t-100 35.5t-25 127.5l28 257h-73l11 106h72l13 122h129z" />
    <glyph glyph-name="Tbar" unicode="&#x166;" horiz-adv-x="564" 
d="M532 579h-176l-7 -73h122l-12 -106h-122l-42 -400h-131l42 400h-122l11 106h123l7 73h-176l13 121h483z" />
    <glyph glyph-name="tbar" unicode="&#x167;" horiz-adv-x="374" 
d="M328 414h-111l-8 -74h108l-12 -106h-107l-8 -79q-6 -48 32 -48q35 0 72 13l-6 -109q-37 -17 -102 -17t-100 35.5t-25 127.5l8 77h-73l12 106h73l8 74h-73l11 106h72l13 122h129l-13 -122h110z" />
    <glyph glyph-name="Umacron" unicode="&#x16a;" horiz-adv-x="646" 
d="M556 880l-11 -106h-376l12 106h375zM476 700h131l-47 -448q-13 -124 -95.5 -195.5t-194.5 -71.5q-115 0 -185.5 73.5t-57.5 197.5l47 444h131l-47 -449q-9 -75 25.5 -109t90.5 -34q58 0 102.5 36t52.5 112z" />
    <glyph glyph-name="umacron" unicode="&#x16b;" horiz-adv-x="592" 
d="M504 700l-11 -106h-376l12 106h375zM194 -8q-84 0 -137 58t-41 172l31 298h129l-31 -294q-7 -65 14 -93t66 -28q56 0 99.5 39.5t57.5 80.5l33 295h129l-55 -520h-129l13 99q-16 -33 -64.5 -70t-114.5 -37z" />
    <glyph glyph-name="Ubreve" unicode="&#x16c;" horiz-adv-x="646" 
d="M525 878q-7 -58 -49.5 -99.5t-117.5 -41.5q-71 0 -111.5 45t-35.5 100l80 -4q2 -23 19 -38.5t48 -15.5q33 0 56.5 17.5t30.5 40.5zM476 700h131l-47 -448q-13 -124 -95.5 -195.5t-194.5 -71.5q-115 0 -185.5 73.5t-57.5 197.5l47 444h131l-47 -449q-9 -75 25.5 -109
t90.5 -34q58 0 102.5 36t52.5 112z" />
    <glyph glyph-name="ubreve" unicode="&#x16d;" horiz-adv-x="592" 
d="M473 698q-7 -58 -49.5 -99.5t-117.5 -41.5q-71 0 -111.5 45t-35.5 100l80 -4q2 -23 19 -38.5t48 -15.5q33 0 56.5 17.5t30.5 40.5zM194 -8q-84 0 -137 58t-41 172l31 298h129l-31 -294q-7 -65 14 -93t66 -28q56 0 99.5 39.5t57.5 80.5l33 295h129l-55 -520h-129l13 99
q-16 -33 -64.5 -70t-114.5 -37z" />
    <glyph glyph-name="Uring" unicode="&#x16e;" horiz-adv-x="646" 
d="M375 981q45 0 75 -34t25 -81q-4 -40 -38 -70.5t-75 -30.5q-48 0 -78.5 33.5t-25.5 79.5q5 43 39 73t78 30zM374 902q-13 0 -24 -10t-12 -25q0 -9 6 -15t16 -6q13 0 23.5 10t11.5 24q1 9 -5.5 15.5t-15.5 6.5zM476 700h131l-47 -448q-13 -124 -95.5 -195.5t-194.5 -71.5
q-115 0 -185.5 73.5t-57.5 197.5l47 444h131l-47 -449q-9 -75 25.5 -109t90.5 -34q58 0 102.5 36t52.5 112z" />
    <glyph glyph-name="uring" unicode="&#x16f;" horiz-adv-x="592" 
d="M323 801q45 0 75 -34t25 -81q-4 -40 -38 -70.5t-75 -30.5q-48 0 -78.5 33.5t-25.5 79.5q5 43 39 73t78 30zM322 722q-13 0 -23.5 -10t-12.5 -25q0 -9 6 -15t16 -6q13 0 23.5 10t11.5 24q1 9 -5 15.5t-16 6.5zM194 -8q-84 0 -137 58t-41 172l31 298h129l-31 -294
q-7 -65 14 -93t66 -28q56 0 99.5 39.5t57.5 80.5l33 295h129l-55 -520h-129l13 99q-16 -33 -64.5 -70t-114.5 -37z" />
    <glyph glyph-name="Uhungarumlaut" unicode="&#x170;" horiz-adv-x="655" 
d="M465 880l-139 -129h-100l82 129h157zM664 880l-139 -129h-100l82 129h157zM476 700h131l-47 -448q-13 -124 -95.5 -195.5t-194.5 -71.5q-115 0 -185.5 73.5t-57.5 197.5l47 444h131l-47 -449q-9 -75 25.5 -109t90.5 -34q58 0 102.5 36t52.5 112z" />
    <glyph glyph-name="uhungarumlaut" unicode="&#x171;" horiz-adv-x="618" 
d="M413 700l-139 -129h-100l82 129h157zM612 700l-139 -129h-100l82 129h157zM194 -8q-84 0 -137 58t-41 172l31 298h129l-31 -294q-7 -65 14 -93t66 -28q56 0 99.5 39.5t57.5 80.5l33 295h129l-55 -520h-129l13 99q-16 -33 -64.5 -70t-114.5 -37z" />
    <glyph glyph-name="Uogonek" unicode="&#x172;" horiz-adv-x="646" 
d="M476 700h131l-47 -448q-11 -99 -66 -165t-137 -92q-105 -38 -112 -95q-3 -25 23 -32.5t51 5.5l27 -59q-25 -13 -64.5 -16.5t-77 3.5t-62.5 32.5t-21 65.5q4 54 86 91q-88 18 -140 89t-40 177l47 444h131l-47 -449q-9 -75 25.5 -109t90.5 -34q58 0 102.5 36t52.5 112z" />
    <glyph glyph-name="uogonek" unicode="&#x173;" horiz-adv-x="593" 
d="M357 -101q-3 -28 22 -39t50 1l27 -60q-25 -13 -64 -14.5t-76.5 9t-62.5 37.5t-21 65q5 40 40 67.5t86 34.5l15 99q-16 -33 -64.5 -70t-114.5 -37q-84 0 -137 58t-41 172l31 298h129l-31 -294q-7 -65 14 -93t66 -28q56 0 99.5 39.5t57.5 80.5l33 295h129l-53 -521
q-67 -19 -99 -45.5t-35 -54.5z" />
    <glyph glyph-name="Wcircumflex" unicode="&#x174;" horiz-adv-x="1025" 
d="M638 880l88 -134h-87l-92 87l-113 -87h-92l117 134h179zM1025 700l-303 -700h-93l-121 467l-219 -467h-94l-155 700h135l96 -442l209 442h101l114 -442l190 442h140z" />
    <glyph glyph-name="wcircumflex" unicode="&#x175;" horiz-adv-x="945" 
d="M571 700l88 -134h-87l-92 87l-113 -87h-92l117 134h179zM791 521h131l-246 -521h-122l-96 371l-174 -371h-121l-136 521h126l87 -364l175 364h113l100 -364z" />
    <glyph glyph-name="Ycircumflex" unicode="&#x176;" horiz-adv-x="721" 
d="M486 880l89 -134h-87l-92 87l-113 -87h-92l117 134h178zM712 700l-307 -396l-34 -304h-131l34 304l-223 396h146l152 -277l211 277h152z" />
    <glyph glyph-name="ycircumflex" unicode="&#x177;" horiz-adv-x="626" 
d="M333 653l-113 -87h-92l117 134h179l88 -134h-87zM473 521h130l-392 -711h-131l118 208l-171 503h126l122 -364z" />
    <glyph glyph-name="Ydieresis" unicode="&#x178;" horiz-adv-x="721" 
d="M340 880l-12 -108h-133l12 108h133zM591 880l-11 -108h-134l12 108h133zM712 700l-307 -396l-34 -304h-131l34 304l-223 396h146l152 -277l211 277h152z" />
    <glyph glyph-name="Zacute" unicode="&#x179;" horiz-adv-x="621" 
d="M506 880l-139 -129h-100l82 129h157zM606 700l-405 -587h345l-12 -113h-556l404 588h-321l12 112h533z" />
    <glyph glyph-name="zacute" unicode="&#x17a;" horiz-adv-x="537" 
d="M472 700l-139 -129h-100l82 129h157zM514 520l-324 -407h265l-12 -113h-474l323 408h-254l12 112h464z" />
    <glyph glyph-name="Zdotaccent" unicode="&#x17b;" horiz-adv-x="621" 
d="M399 880l-12 -108h-133l12 108h133zM606 700l-405 -587h345l-12 -113h-556l404 588h-321l12 112h533z" />
    <glyph glyph-name="zdotaccent" unicode="&#x17c;" horiz-adv-x="537" 
d="M365 700l-12 -108h-133l12 108h133zM514 520l-324 -407h265l-12 -113h-474l323 408h-254l12 112h464z" />
    <glyph glyph-name="Zcaron" unicode="&#x17d;" horiz-adv-x="621" 
d="M408 746h-178l-89 134h87l93 -87l112 87h92zM606 700l-405 -587h345l-12 -113h-556l404 588h-321l12 112h533z" />
    <glyph glyph-name="zcaron" unicode="&#x17e;" horiz-adv-x="537" 
d="M374 566h-178l-89 134h87l93 -87l112 87h92zM514 520l-324 -407h265l-12 -113h-474l323 408h-254l12 112h464z" />
    <glyph glyph-name="florin" unicode="&#x192;" horiz-adv-x="321" 
d="M303 612q-46 0 -61 -23t-20 -76l1 7h68l-12 -110h-68l-45 -434q-10 -94 -57.5 -130t-157.5 -36l7 113q47 0 61 17.5t19 67.5l42 402h-70l12 110h70l3 25q10 97 58.5 138.5t156.5 41.5z" />
    <glyph glyph-name="uni01CD" unicode="&#x1cd;" horiz-adv-x="775" 
d="M503 746h-178l-88 134h86l94 -87l111 87h92zM567 0l-43 135h-347l-72 -135h-142l386 700h117l237 -700h-136zM235 242h252l-95 296z" />
    <glyph glyph-name="uni01CE" unicode="&#x1ce;" 
d="M445 566h-179l-88 134h87l93 -87l112 87h92zM292 529q45 0 81 -17t52 -34t17 -28l9 70h128l-55 -520h-128l9 73q-7 -26 -52.5 -54.5t-107.5 -28.5q-59 0 -111 25t-88.5 81.5t-36.5 133.5q0 124 83.5 211.5t199.5 87.5zM297 415q-68 0 -114 -49.5t-46 -124.5
q0 -66 38.5 -101.5t96.5 -35.5q60 0 109 45t49 132q0 64 -39 99t-94 35z" />
    <glyph glyph-name="uni01CF" unicode="&#x1cf;" horiz-adv-x="251" 
d="M239 746h-178l-88 134h86l94 -87l111 87h92zM210 700l-74 -700h-131l74 700h131z" />
    <glyph glyph-name="uni01D0" unicode="&#x1d0;" horiz-adv-x="235" 
d="M212 566h-178l-89 134h87l93 -87l112 87h92zM182 520l-55 -520h-129l55 520h129z" />
    <glyph glyph-name="uni01D1" unicode="&#x1d1;" horiz-adv-x="808" 
d="M516 746h-179l-88 134h87l93 -87l112 87h92zM419 710q149 0 246.5 -104t81.5 -262q-16 -153 -132.5 -253.5t-262.5 -100.5q-149 0 -246.5 104t-80.5 262q16 153 132 253.5t262 100.5zM356 113q96 0 171 69t85 174q10 99 -48 165t-149 66q-95 0 -169.5 -69t-85.5 -174
q-11 -99 46.5 -165t149.5 -66z" />
    <glyph glyph-name="uni01D2" unicode="&#x1d2;" horiz-adv-x="613" 
d="M403 566h-179l-88 134h87l93 -87l112 87h92zM304 529q47 0 92.5 -18t83 -50.5t58 -87t13.5 -120.5q-9 -84 -59 -146t-112 -89.5t-123 -27.5q-47 0 -92.5 17.5t-83.5 50t-58 86.5t-13 121q7 63 37.5 115t73.5 83.5t90.5 48.5t92.5 17zM302 415q-59 0 -109.5 -43.5
t-58.5 -118.5q-8 -70 31 -109.5t94 -39.5q59 0 110 43t59 118q7 70 -32 110t-94 40z" />
    <glyph glyph-name="uni01D3" unicode="&#x1d3;" horiz-adv-x="646" 
d="M444 746h-178l-88 134h86l94 -87l111 87h92zM476 700h131l-47 -448q-13 -124 -95.5 -195.5t-194.5 -71.5q-115 0 -185.5 73.5t-57.5 197.5l47 444h131l-47 -449q-9 -75 25.5 -109t90.5 -34q58 0 102.5 36t52.5 112z" />
    <glyph glyph-name="uni01D4" unicode="&#x1d4;" horiz-adv-x="592" 
d="M392 566h-178l-88 134h86l94 -87l111 87h92zM194 -8q-84 0 -137 58t-41 172l31 298h129l-31 -294q-7 -65 14 -93t66 -28q56 0 99.5 39.5t57.5 80.5l33 295h129l-55 -520h-129l13 99q-16 -33 -64.5 -70t-114.5 -37z" />
    <glyph glyph-name="uni01EA" unicode="&#x1ea;" horiz-adv-x="808" 
d="M438 -1q-150 -46 -157 -113q-3 -24 23 -31.5t51 5.5l27 -59q-25 -13 -64.5 -17t-77 3.5t-62.5 33t-21 65.5q7 71 134 109q-126 20 -203.5 120t-62.5 241q16 153 132 253.5t262 100.5q149 0 246.5 -104t81.5 -262q-14 -129 -101 -223t-208 -122zM160 344
q-11 -99 46.5 -165t149.5 -66q96 0 171 69t85 174q10 99 -48 165t-149 66q-95 0 -169.5 -69t-85.5 -174z" />
    <glyph glyph-name="uni01EB" unicode="&#x1eb;" horiz-adv-x="613" 
d="M323 -2q-146 -45 -153 -112q-3 -24 23 -31.5t51 5.5l27 -59q-25 -13 -64.5 -17t-77 3.5t-62.5 33t-21 65.5q9 75 142 112q-82 22 -135.5 91t-42.5 176q7 63 37.5 115t73.5 83.5t90.5 48.5t92.5 17q47 0 92.5 -18t83 -50.5t58 -87t13.5 -120.5q-10 -101 -76.5 -167.5
t-151.5 -87.5zM134 253q-8 -70 31 -109.5t94 -39.5q59 0 110 43t59 118q7 70 -32 110t-94 40q-59 0 -109.5 -43.5t-58.5 -118.5z" />
    <glyph glyph-name="Scommaaccent" unicode="&#x218;" horiz-adv-x="563" 
d="M299 712q83 0 139.5 -43.5t82.5 -104.5l-102 -52q-47 84 -130 84q-44 0 -74.5 -23t-30.5 -62q0 -31 18 -50t59 -35l46 -17q100 -37 147 -85t47 -114q0 -103 -81 -164t-185 -61q-92 0 -157.5 49.5t-83.5 125.5l105 48q34 -104 139 -104q55 0 91.5 27t36.5 77
q0 32 -23 52.5t-78 41.5l-43 17q-80 30 -123 72.5t-43 115.5q0 92 73 148.5t170 56.5zM66 -256l77 228h171l-131 -228h-117z" />
    <glyph glyph-name="scommaaccent" unicode="&#x219;" horiz-adv-x="456" 
d="M288 373q-18 53 -66 53q-27 0 -47 -14.5t-23 -37.5q-3 -34 43 -50l58 -21q35 -13 55.5 -23.5t43 -28.5t31.5 -45t5 -64q-7 -70 -70.5 -111.5t-143.5 -41.5q-74 0 -128.5 40t-63.5 106l104 27q18 -71 89 -71q32 0 57.5 18.5t29.5 45.5q2 31 -46 49l-57 22
q-142 52 -130 162q7 63 62 102t127 39q71 0 116 -35.5t61 -96.5zM14 -256l77 228h171l-130 -228h-118z" />
    <glyph glyph-name="uni021A" unicode="&#x21a;" horiz-adv-x="564" 
d="M62 700h483l-13 -121h-176l-61 -579h-131l61 579h-176zM69 -256l77 228h171l-131 -228h-117z" />
    <glyph glyph-name="uni021B" unicode="&#x21b;" horiz-adv-x="374" 
d="M328 414h-111l-27 -259q-6 -48 32 -48q35 0 72 13l-6 -109q-37 -17 -102 -17t-100 35.5t-25 127.5l28 257h-73l11 106h72l13 122h129l-13 -122h110zM19 -256l77 228h172l-131 -228h-118z" />
    <glyph glyph-name="uni0237" unicode="&#x237;" horiz-adv-x="252" 
d="M204 520l-61 -574q-16 -152 -161 -152q-65 0 -108 27l8 123q34 -19 73 -19q56 0 65 65l55 530h129z" />
    <glyph glyph-name="circumflex" unicode="&#x2c6;" horiz-adv-x="384" 
d="M299 700l88 -134h-87l-92 87l-113 -87h-92l117 134h179z" />
    <glyph glyph-name="caron" unicode="&#x2c7;" horiz-adv-x="384" 
d="M287 566h-178l-89 134h87l93 -87l112 87h92z" />
    <glyph glyph-name="breve" unicode="&#x2d8;" horiz-adv-x="314" 
d="M333 698q-7 -58 -50 -99.5t-117 -41.5q-71 0 -112 45t-35 100l80 -4q2 -23 19 -38.5t48 -15.5q33 0 56.5 17.5t30.5 40.5z" />
    <glyph glyph-name="dotaccent" unicode="&#x2d9;" horiz-adv-x="141" 
d="M156 700l-11 -108h-134l12 108h133z" />
    <glyph glyph-name="ring" unicode="&#x2da;" horiz-adv-x="218" 
d="M135 801q45 0 75 -34t25 -81q-4 -40 -38 -70.5t-75 -30.5q-48 0 -78.5 33.5t-25.5 79.5q5 43 39 73t78 30zM134 722q-13 0 -23 -10t-13 -25q0 -9 6 -15t16 -6q13 0 23.5 10t11.5 24q1 9 -5 15.5t-16 6.5z" />
    <glyph glyph-name="ogonek" unicode="&#x2db;" horiz-adv-x="265" 
d="M213 -1q-149 -46 -156 -113q-3 -24 23 -31.5t51 5.5l27 -59q-25 -13 -64.5 -17t-77 3.5t-62.5 33t-21 65.5q9 77 153 115z" />
    <glyph glyph-name="tilde" unicode="&#x2dc;" horiz-adv-x="391" 
d="M136 744q41 0 95.5 -34.5t76.5 -34.5q18 0 34.5 8.5t17.5 18.5l50 -4q-5 -54 -38 -89.5t-85 -35.5q-40 0 -96 39.5t-80 39.5q-18 0 -34.5 -11t-17.5 -25l-48 5q5 54 38 88.5t87 34.5z" />
    <glyph glyph-name="hungarumlaut" unicode="&#x2dd;" horiz-adv-x="429" 
d="M242 700l-138 -129h-100l82 129h156zM441 700l-138 -129h-100l82 129h156z" />
    <glyph glyph-name="uni0326" unicode="&#x326;" horiz-adv-x="0" 
d="M-326 -215l77 228h171l-131 -228h-117z" />
    <glyph glyph-name="uni0394" unicode="&#x394;" horiz-adv-x="733" 
d="M399 700l228 -700h-633l375 700h30zM365 488l-192 -375h304z" />
    <glyph glyph-name="uni03A9" unicode="&#x3a9;" horiz-adv-x="779" 
d="M404 707q65 0 125.5 -26.5t105.5 -72.5t68.5 -114t15.5 -144q-15 -135 -116 -233l16 8h51l-13 -125h-229l14 152l35 27q97 73 110 183q11 98 -44.5 156.5t-141.5 58.5q-90 0 -160 -61.5t-81 -165.5q-5 -51 12.5 -97t53.5 -77l31 -24l-14 -152h-230l13 125h56l15 -3
q-85 105 -71 240q10 98 69 178.5t141.5 123.5t167.5 43z" />
    <glyph glyph-name="uni03BC" unicode="&#x3bc;" horiz-adv-x="593" 
d="M416 520h129l-55 -520h-129l13 99q-16 -33 -65 -70t-115 -37q-30 0 -70 5l-22 -187h-129l75 710h129l-31 -294q-7 -65 14 -93t66 -28q56 0 99.5 39.5t57.5 80.5z" />
    <glyph glyph-name="pi" unicode="&#x3c0;" horiz-adv-x="724" 
d="M563 107q33 0 73 19l-8 -115q-37 -17 -108 -17q-51 0 -91.5 25t-35.5 77l33 312h-157l-43 -408h-131l43 408h-100l12 112h618l-12 -112h-99l-26 -249q-4 -33 3.5 -42.5t28.5 -9.5z" />
    <glyph glyph-name="uni0401" unicode="&#x401;" horiz-adv-x="537" 
d="M260 880l-12 -108h-133l12 108h133zM511 880l-11 -108h-134l12 108h133zM147 121h305l-13 -121h-436l74 700h427l-13 -121h-296l-17 -168h225l-13 -118h-225z" />
    <glyph glyph-name="uni0403" unicode="&#x403;" horiz-adv-x="537" 
d="M503 880l-138 -129h-100l82 129h156zM519 700l-14 -121h-310l-61 -579h-131l74 700h442z" />
    <glyph glyph-name="uni0404" unicode="&#x404;" horiz-adv-x="673" 
d="M523 169l75 -96q-101 -83 -243 -83q-150 0 -248.5 104t-81.5 262q16 153 132.5 253.5t262.5 100.5q138 0 228 -85l-83 -87q-62 49 -141 49q-85 0 -155 -51t-98 -132l173 3l-12 -113l-173 -2q10 -81 67.5 -130t140.5 -49t156 56z" />
    <glyph glyph-name="uni0406" unicode="&#x406;" horiz-adv-x="247" 
d="M208 700l-74 -700h-131l74 700h131z" />
    <glyph glyph-name="uni0407" unicode="&#x407;" horiz-adv-x="258" 
d="M108 880l-12 -108h-133l11 108h134zM359 880l-11 -108h-134l12 108h133zM213 700l-74 -700h-131l74 700h131z" />
    <glyph glyph-name="uni0410" unicode="&#x410;" horiz-adv-x="775" 
d="M567 0l-43 135h-347l-72 -135h-142l386 700h117l237 -700h-136zM234 242h253l-95 296z" />
    <glyph glyph-name="uni0411" unicode="&#x411;" horiz-adv-x="590" 
d="M290 462q118 0 182 -63.5t52 -169.5q-11 -103 -86 -166t-192 -63h-243l74 700h435l-14 -121h-303l-12 -117h107zM247 121q62 0 102 30t45 90q7 56 -24.5 82t-93.5 26h-105l-24 -228h100z" />
    <glyph glyph-name="uni0412" unicode="&#x412;" horiz-adv-x="616" 
d="M419 386q54 -15 90.5 -59.5t36.5 -107.5q0 -107 -74 -163t-200 -56h-269l74 700h253q96 0 147.5 -45.5t51.5 -115.5q0 -57 -30.5 -95.5t-79.5 -57.5zM312 585h-116l-18 -159h111q51 0 80 26t29 68q0 65 -86 65zM273 115q68 0 106 31t38 86q0 88 -122 88h-127l-21 -205
h126z" />
    <glyph glyph-name="uni0413" unicode="&#x413;" horiz-adv-x="537" 
d="M519 700l-14 -121h-310l-61 -579h-131l74 700h442z" />
    <glyph glyph-name="uni0414" unicode="&#x414;" horiz-adv-x="876" 
d="M678 121h116l-20 -190h-131l7 69h-534l-7 -69h-131l20 190l103 2q20 45 35.5 120t23.5 136t21 183l15 138h543zM233 119l314 2l48 458h-282l-1 -21q-14 -129 -20.5 -184.5t-22 -132.5t-36.5 -122z" />
    <glyph glyph-name="uni0415" unicode="&#x415;" horiz-adv-x="537" 
d="M147 121h305l-13 -121h-436l74 700h427l-13 -121h-296l-17 -168h225l-13 -118h-225z" />
    <glyph glyph-name="uni0416" unicode="&#x416;" horiz-adv-x="1127" 
d="M897 0l-197 306l-102 -102l-22 -204h-135l23 204l-78 102l-263 -306h-154l342 397l-235 303h159l245 -321l35 321h135l-35 -321l312 321h164l-302 -303l256 -397h-148z" />
    <glyph glyph-name="uni0417" unicode="&#x417;" horiz-adv-x="604" 
d="M314 707q97 0 160 -56.5t54 -141.5q-5 -51 -45.5 -91t-89.5 -50q50 1 97.5 -47t39.5 -124q-11 -98 -91.5 -152.5t-190.5 -54.5q-113 0 -182 62t-59 156l136 -4q-5 -44 31 -67t77 -23q51 0 95.5 24.5t49.5 77.5q5 44 -31.5 71t-113.5 28l6 97q126 7 136 100q3 33 -22 52
t-60 19q-42 0 -77 -23.5t-40 -67.5l-134 4q10 99 82 155t172 56z" />
    <glyph glyph-name="uni0418" unicode="&#x418;" horiz-adv-x="712" 
d="M208 700l-50 -462l412 462h103l-74 -700h-131l51 461l-415 -461h-101l74 700h131z" />
    <glyph glyph-name="uni0419" unicode="&#x419;" horiz-adv-x="712" 
d="M574 878q-7 -58 -50 -99.5t-117 -41.5q-71 0 -111.5 45t-35.5 100l80 -4q2 -23 19 -38.5t48 -15.5q33 0 56.5 17.5t30.5 40.5zM208 700l-50 -462l412 462h103l-74 -700h-131l51 461l-415 -461h-101l74 700h131z" />
    <glyph glyph-name="uni041A" unicode="&#x41a;" horiz-adv-x="689" 
d="M459 0l-197 306l-102 -102l-22 -204h-135l74 700h135l-35 -321l312 321h164l-302 -303l256 -397h-148z" />
    <glyph glyph-name="uni041B" unicode="&#x41b;" horiz-adv-x="744" 
d="M705 700l-74 -700h-131l61 579h-289l-45 -426q-10 -94 -49 -126.5t-104 -32.5q-62 0 -100 19l6 110q31 -16 65 -16q22 0 36.5 17.5t15.5 34.5l57 541h551z" />
    <glyph glyph-name="uni041C" unicode="&#x41c;" horiz-adv-x="861" 
d="M822 700l-74 -700h-135l45 401l-226 -401h-112l-138 400l-44 -400h-135l74 700h128l189 -517l297 517h131z" />
    <glyph glyph-name="uni041D" unicode="&#x41d;" horiz-adv-x="678" 
d="M508 700h131l-74 -700h-131l29 288h-299l-30 -288h-131l74 700h131l-31 -291h300z" />
    <glyph glyph-name="uni041E" unicode="&#x41e;" horiz-adv-x="808" 
d="M419 710q139 0 234.5 -91.5t95.5 -233.5q0 -164 -118 -279.5t-279 -115.5q-139 0 -234 91t-95 233q0 164 117.5 280t278.5 116zM361 113q97 0 174.5 74t77.5 188q0 93 -58.5 152.5t-144.5 59.5q-98 0 -174.5 -74.5t-76.5 -189.5q0 -91 58 -150.5t144 -59.5z" />
    <glyph glyph-name="uni041F" unicode="&#x41f;" horiz-adv-x="683" 
d="M644 700l-74 -700h-131l61 579h-305l-61 -579h-131l74 700h567z" />
    <glyph glyph-name="uni0420" unicode="&#x420;" horiz-adv-x="588" 
d="M315 700q117 0 181 -66.5t52 -174.5q-11 -102 -85.5 -161.5t-191.5 -59.5h-112l-25 -238h-131l74 700h238zM271 351q62 0 102 29.5t46 90.5q6 55 -25.5 81.5t-93.5 26.5h-105l-24 -228h100z" />
    <glyph glyph-name="uni0421" unicode="&#x421;" horiz-adv-x="673" 
d="M598 73q-102 -83 -245 -83q-139 0 -234.5 91t-95.5 233q0 164 118.5 280t278.5 116q138 0 228 -85l-89 -87q-59 49 -139 49q-105 0 -183.5 -76.5t-79.5 -194.5q0 -89 61.5 -146t152.5 -57q83 0 157 56z" />
    <glyph glyph-name="uni0422" unicode="&#x422;" horiz-adv-x="564" 
d="M545 700l-13 -121h-176l-61 -579h-131l61 579h-176l13 121h483z" />
    <glyph glyph-name="uni0423" unicode="&#x423;" horiz-adv-x="711" 
d="M555 700h147l-456 -700h-145l154 234l-204 466h141l146 -333z" />
    <glyph glyph-name="uni0424" unicode="&#x424;" horiz-adv-x="904" 
d="M526 635q150 -5 241.5 -87.5t78.5 -203.5q-13 -117 -119 -195.5t-256 -83.5l-9 -65h-131l9 65q-149 6 -239.5 88t-77.5 203q12 116 117.5 194.5t254.5 84.5l10 65h131zM347 178l41 345q-61 -3 -107.5 -20.5t-72 -44.5t-39 -55t-16.5 -59q-3 -28 4 -54t26.5 -51
t61.5 -41.5t102 -19.5zM478 178q61 2 108 19t73 44t40 55.5t17 59.5q3 29 -4 55t-27 51.5t-62.5 42t-103.5 18.5z" />
    <glyph glyph-name="uni0425" unicode="&#x425;" horiz-adv-x="704" 
d="M617 0h-152l-136 242l-189 -242h-157l278 355l-196 345h151l132 -231l180 231h157l-269 -345z" />
    <glyph glyph-name="uni0426" unicode="&#x426;" horiz-adv-x="778" 
d="M715 121l-20 -190h-132l7 69h-436h-131l74 700h131l-61 -579h305l61 579h131l-61 -579h132z" />
    <glyph glyph-name="uni0427" unicode="&#x427;" horiz-adv-x="638" 
d="M468 700h131l-74 -700h-131l33 293q-19 -31 -65 -60t-107 -29q-102 0 -161 56.5t-48 169.5l28 270h131l-30 -275q-5 -55 25.5 -79t77.5 -24q95 0 160 101z" />
    <glyph glyph-name="uni0428" unicode="&#x428;" horiz-adv-x="1120" 
d="M950 700h131l-74 -700h-500h-436h-68l74 700h131l-61 -579h305l61 579h131l-61 -579h306z" />
    <glyph glyph-name="uni0429" unicode="&#x429;" horiz-adv-x="1213" 
d="M1150 121l-20 -190h-130l7 69h-500h-436h-68l74 700h131l-61 -579h305l61 579h131l-61 -579h306l61 579h131l-61 -579h130z" />
    <glyph glyph-name="uni042A" unicode="&#x42a;" horiz-adv-x="699" 
d="M396 462q118 0 182.5 -63.5t52.5 -169.5q-11 -103 -86.5 -166t-192.5 -63h-242l60 579h-134l13 121h266l-26 -238h107zM354 121q62 0 101.5 30t45.5 90q6 56 -25.5 82t-93.5 26h-105l-23 -228h100z" />
    <glyph glyph-name="uni042B" unicode="&#x42b;" horiz-adv-x="858" 
d="M290 462q118 0 182 -63.5t52 -169.5q-11 -103 -86 -166t-192 -63h-243l74 700h131l-25 -238h107zM688 700h131l-74 -700h-131zM247 121q62 0 102 30t45 90q7 56 -24.5 82t-93.5 26h-105l-24 -228h100z" />
    <glyph glyph-name="uni042C" unicode="&#x42c;" horiz-adv-x="588" 
d="M290 462q118 0 182 -63.5t52 -169.5q-11 -103 -86 -166t-192 -63h-243l74 700h131l-25 -238h107zM247 121q62 0 102 30t45 90q7 56 -24.5 82t-93.5 26h-105l-24 -228h100z" />
    <glyph glyph-name="uni042D" unicode="&#x42d;" horiz-adv-x="670" 
d="M294 710q150 0 248 -104t81 -262q-16 -153 -132.5 -253.5t-262.5 -100.5q-142 0 -232 87l85 87q57 -51 142 -51q86 0 156 51t98 133l-172 -3l11 113l173 2q-10 81 -66.5 129.5t-139.5 48.5q-82 0 -153 -51l-76 93q102 81 240 81z" />
    <glyph glyph-name="uni042E" unicode="&#x42e;" horiz-adv-x="1037" 
d="M648 710q139 0 234.5 -91.5t95.5 -233.5q0 -164 -118 -279.5t-279 -115.5q-134 0 -228 85t-101 220l-87 1l-31 -296h-131l74 700h131l-31 -292h86q33 131 141 216.5t244 85.5zM590 113q97 0 174.5 74t77.5 188q0 93 -58.5 152.5t-144.5 59.5q-98 0 -174.5 -74.5
t-76.5 -189.5q0 -91 58 -150.5t144 -59.5z" />
    <glyph glyph-name="uni042F" unicode="&#x42f;" horiz-adv-x="635" 
d="M353 700h243l-74 -700h-131l26 238h-115l-181 -238h-142l205 262q-58 27 -87 81t-22 128q11 103 86 166t192 63zM323 351h105l24 228h-100q-62 0 -101.5 -30t-46.5 -90q-6 -56 25.5 -82t93.5 -26z" />
    <glyph glyph-name="uni0430" unicode="&#x430;" 
d="M292 529q45 0 81 -17t52 -34t17 -28l9 70h128l-55 -520h-128l9 73q-7 -26 -52.5 -54.5t-107.5 -28.5q-59 0 -111 25t-88.5 81.5t-36.5 133.5q0 124 83.5 211.5t199.5 87.5zM297 415q-68 0 -114 -49.5t-46 -124.5q0 -66 38.5 -101.5t96.5 -35.5q60 0 109 45t49 132
q0 64 -39 99t-94 35z" />
    <glyph glyph-name="uni0431" unicode="&#x431;" horiz-adv-x="626" 
d="M331 529q101 0 173.5 -73.5t59.5 -201.5q-9 -85 -55.5 -147t-105.5 -89.5t-120 -27.5q-65 0 -106 30.5t-42 57.5l-10 -78h-129l55 522q10 93 59.5 135.5t151.5 42.5h84q57 0 77 22l128 -4q-32 -66 -78.5 -95t-124.5 -29h-80q-37 0 -61 -20t-27 -56l-8 -64q6 19 52 47
t107 28zM268 104q63 0 114 43t59 119q7 70 -32 109.5t-98 39.5q-62 0 -109.5 -42.5t-55.5 -118.5q-8 -71 28 -110.5t94 -39.5z" />
    <glyph glyph-name="uni0432" unicode="&#x432;" horiz-adv-x="584" 
d="M417 286q92 -37 92 -121t-68.5 -124.5t-176.5 -40.5h-268l55 520h264q79 0 128 -33t49 -90q0 -77 -75 -111zM308 414h-138l-10 -91h132q37 0 53 17.5t16 35.5q0 38 -53 38zM272 106q107 0 107 62q0 10 -2.5 17.5t-10 17.5t-27.5 15.5t-51 5.5h-139l-12 -118h135z" />
    <glyph glyph-name="uni0433" unicode="&#x433;" horiz-adv-x="497" 
d="M457 520l-11 -112h-278l-43 -408h-129l55 520h406z" />
    <glyph glyph-name="uni0434" unicode="&#x434;" horiz-adv-x="714" 
d="M570 113h73l-18 -169h-128l5 56h-395l-6 -56h-128l17 169l60 2q33 41 47 108.5t28 198.5l10 98h479zM178 110l264 3l31 295h-221l1 10q-10 -94 -15.5 -135t-20.5 -93t-39 -80z" />
    <glyph glyph-name="uni0435" unicode="&#x435;" horiz-adv-x="597" 
d="M306 529q40 0 80 -14t74.5 -40.5t56 -72.5t21.5 -104q0 -43 -10 -86h-394q7 -56 45.5 -85.5t97.5 -29.5q47 0 77.5 10.5t62.5 32.5l63 -69q-78 -81 -212 -81q-103 0 -181 64t-78 178q0 123 89 210t208 87zM303 419q-51 0 -94.5 -29.5t-62.5 -85.5h280q-4 57 -39 86
t-84 29z" />
    <glyph glyph-name="uni0436" unicode="&#x436;" horiz-adv-x="931" 
d="M697 0l-166 189l-32 -29l-19 -160h-129l19 160l-24 29l-209 -189h-173l303 276l-212 244h161l169 -186l21 186h129l-21 -186l208 186h167l-268 -244l243 -276h-167z" />
    <glyph glyph-name="uni0437" unicode="&#x437;" horiz-adv-x="528" 
d="M255 529q90 0 143.5 -45t45.5 -107q-6 -70 -95 -100q13 -2 29.5 -9.5t34.5 -21.5t28.5 -39.5t7.5 -57.5q-9 -74 -78.5 -116.5t-160.5 -42.5q-101 0 -158 51.5t-48 133.5l121 -4q-3 -33 23.5 -54.5t65.5 -21.5q43 0 75.5 19.5t35.5 53.5q4 31 -24 47.5t-84 16.5l4 86
q93 1 98 59q3 18 -14 32t-49 14q-34 0 -59.5 -17t-28.5 -41l-122 5q8 71 63 115t146 44z" />
    <glyph glyph-name="uni0438" unicode="&#x438;" horiz-adv-x="586" 
d="M538 520l-55 -520h-129l32 289l-370 -289h-20l55 520h129l-32 -289l369 289h21z" />
    <glyph glyph-name="uni0439" unicode="&#x439;" horiz-adv-x="586" 
d="M470 698q-6 -57 -49 -99t-118 -42q-71 0 -111.5 45t-34.5 100l79 -4q2 -22 19.5 -38t47.5 -16q34 0 57.5 17.5t30.5 40.5zM538 520l-55 -520h-129l32 289l-370 -289h-20l55 520h129l-32 -289l369 289h21z" />
    <glyph glyph-name="uni043A" unicode="&#x43a;" horiz-adv-x="577" 
d="M342 0l-166 189l-32 -29l-19 -160h-129l55 520h129l-21 -186l208 186h167l-268 -244l244 -276h-168z" />
    <glyph glyph-name="uni043B" unicode="&#x43b;" horiz-adv-x="662" 
d="M614 520l-55 -520h-129l43 408h-229l-27 -255q-10 -94 -48.5 -126.5t-103.5 -32.5q-60 0 -96 19l10 101q18 -8 53 -8q51 0 57 47l38 367h487z" />
    <glyph glyph-name="uni043C" unicode="&#x43c;" horiz-adv-x="721" 
d="M673 520l-55 -520h-129l25 220l-205 -220l-159 220l-25 -220h-129l55 520h23l249 -342l324 342h26z" />
    <glyph glyph-name="uni043D" unicode="&#x43d;" horiz-adv-x="576" 
d="M399 520h129l-55 -520h-129l21 195h-219l-21 -195h-129l55 520h129l-22 -213h219z" />
    <glyph glyph-name="uni043E" unicode="&#x43e;" horiz-adv-x="614" 
d="M306 529q95 0 172 -65.5t77 -180.5q0 -124 -87.5 -208.5t-209.5 -84.5q-95 0 -172 65.5t-77 180.5q0 124 87.5 208.5t209.5 84.5zM266 104q65 0 114.5 47.5t49.5 128.5q0 64 -40 99.5t-92 35.5q-65 0 -114.5 -47.5t-49.5 -128.5q0 -64 40 -99.5t92 -35.5z" />
    <glyph glyph-name="uni043F" unicode="&#x43f;" horiz-adv-x="592" 
d="M544 520l-55 -520h-129l43 408h-235l-43 -408h-129l55 520h493z" />
    <glyph glyph-name="uni0440" unicode="&#x440;" horiz-adv-x="626" 
d="M331 529q101 0 173.5 -73.5t59.5 -201.5q-9 -85 -55.5 -147t-105.5 -89.5t-120 -27.5q-65 0 -106 30.5t-42 57.5l-30 -268h-129l34 310l41 400h129l-8 -66q6 19 52 47t107 28zM268 104q63 0 114 43t59 119q7 70 -32 109.5t-98 39.5q-62 0 -109.5 -42.5t-55.5 -118.5
q-8 -71 28 -110.5t94 -39.5z" />
    <glyph glyph-name="uni0441" unicode="&#x441;" horiz-adv-x="561" 
d="M305 529q73 0 128 -32.5t84 -95.5l-102 -41q-40 55 -117 55q-66 0 -115 -50t-49 -128q0 -63 39 -98t92 -35q72 0 128 59l98 -50q-86 -122 -234 -122q-44 0 -87 15.5t-79.5 44.5t-59 77t-22.5 108q0 124 87.5 208.5t208.5 84.5z" />
    <glyph glyph-name="uni0442" unicode="&#x442;" horiz-adv-x="469" 
d="M439 520l-12 -112h-140l-44 -408h-128l43 408h-140l12 112h409z" />
    <glyph glyph-name="uni0443" unicode="&#x443;" horiz-adv-x="626" 
d="M473 521h130l-392 -711h-131l118 208l-171 503h126l122 -364z" />
    <glyph glyph-name="uni0444" unicode="&#x444;" horiz-adv-x="1025" 
d="M730 529q101 0 174 -73.5t60 -201.5q-14 -125 -99 -194.5t-182 -69.5q-66 0 -107 30.5t-41 57.5l-31 -268h-128l29 256q-8 -20 -54 -47.5t-106 -27.5q-101 0 -174 73.5t-60 201.5q9 85 55.5 147t105.5 89.5t120 27.5q66 0 107 -30t42 -57l30 267h128l-28 -256
q6 19 52.5 47t106.5 28zM265 105q49 0 91 27.5t62 76.5l11 106q-9 50 -42 75.5t-79 25.5q-63 0 -113.5 -43t-59.5 -119q-8 -70 31 -109.5t99 -39.5zM667 104q63 0 114 43t59 119q8 70 -31.5 109.5t-98.5 39.5q-49 0 -91 -27.5t-61 -76.5l-12 -106q9 -50 42 -75.5t79 -25.5z
" />
    <glyph glyph-name="uni0445" unicode="&#x445;" horiz-adv-x="606" 
d="M374 0l-105 173l-145 -173h-150l228 266l-154 254h144l92 -160l127 160h149l-210 -254l169 -266h-145z" />
    <glyph glyph-name="uni0446" unicode="&#x446;" horiz-adv-x="631" 
d="M197 686l-173 -573l223 -113h-183l-87 -182l57 702zM483 113l87 39l-6 -221l-148 -24l27 93h-85l40 520l163 166zM354 -54l-107 54h111z" />
    <glyph glyph-name="uni0447" unicode="&#x447;" horiz-adv-x="589" 
d="M412 520h129l-55 -520h-129l25 222q-6 -10 -16.5 -21.5t-31 -27.5t-54 -26.5t-73.5 -10.5q-81 0 -135 49.5t-43 155.5l19 179h129l-20 -184q-8 -86 77 -86q50 0 92.5 32t67.5 83z" />
    <glyph glyph-name="uni0448" unicode="&#x448;" horiz-adv-x="811" 
d="M763 520l-55 -520h-712l55 520h129l-43 -407h163l43 407h129l-44 -407h163l44 407h128z" />
    <glyph glyph-name="uni0449" unicode="&#x449;" horiz-adv-x="850" 
d="M785 113l-19 -182h-128l7 69h-649l55 520h129l-43 -407h163l43 407h129l-44 -407h163l44 407h128l-43 -407h65z" />
    <glyph glyph-name="uni044A" unicode="&#x44a;" horiz-adv-x="630" 
d="M371 324q85 0 137 -40.5t52 -110.5q0 -80 -61.5 -126.5t-157.5 -46.5h-295l43 408h-81l12 112h209l-20 -196h162zM347 113q48 0 68 17.5t20 41.5q0 39 -72 39h-166l-11 -98h161z" />
    <glyph glyph-name="uni044B" unicode="&#x44b;" horiz-adv-x="805" 
d="M321 324q85 0 137 -40.5t52 -110.5q0 -80 -61 -126.5t-158 -46.5h-295l55 520h129l-20 -196h161zM629 520h128l-55 -520h-128zM298 113q88 0 88 56q0 42 -72 42h-166l-11 -98h161z" />
    <glyph glyph-name="uni044C" unicode="&#x44c;" horiz-adv-x="580" 
d="M321 324q85 0 137 -40.5t52 -110.5q0 -80 -61 -126.5t-158 -46.5h-295l55 520h129l-20 -196h161zM298 113q88 0 88 56q0 42 -72 42h-166l-11 -98h161z" />
    <glyph glyph-name="uni044D" unicode="&#x44d;" horiz-adv-x="564" 
d="M257 529q47 0 92.5 -18t83 -50.5t58 -87t12.5 -120.5q-8 -84 -58 -146t-111.5 -89t-122.5 -27q-153 0 -215 127l102 41q40 -54 114 -54q47 0 92.5 29.5t65.5 79.5l-133 -2l9 89l135 2q-7 54 -43.5 83t-83.5 29q-77 0 -131 -59l-98 50q83 123 232 123z" />
    <glyph glyph-name="uni044E" unicode="&#x44e;" horiz-adv-x="823" 
d="M515 529q95 0 172 -65.5t77 -180.5q0 -124 -87.5 -208.5t-209.5 -84.5q-87 0 -160 55t-86 153h-75l-21 -198h-129l55 520h129l-21 -203h70q27 94 106.5 153t179.5 59zM475 104q65 0 114.5 47.5t49.5 128.5q0 64 -40 99.5t-92 35.5q-65 0 -114.5 -47.5t-49.5 -128.5
q0 -64 40 -99.5t92 -35.5z" />
    <glyph glyph-name="uni044F" unicode="&#x44f;" horiz-adv-x="598" 
d="M550 520l-55 -520h-129l16 153h-93l-160 -153h-150l175 166q-52 20 -83 60.5t-31 96.5q0 88 69 142.5t169 54.5h272zM394 266l15 142h-137q-49 0 -78.5 -22.5t-29.5 -57.5q0 -62 88 -62h142z" />
    <glyph glyph-name="uni0451" unicode="&#x451;" horiz-adv-x="597" 
d="M260 700l-12 -108h-133l12 108h133zM511 700l-11 -108h-134l12 108h133zM306 529q40 0 80 -14t74.5 -40.5t56 -72.5t21.5 -104q0 -43 -10 -86h-394q7 -56 45.5 -85.5t97.5 -29.5q47 0 77.5 10.5t62.5 32.5l63 -69q-78 -81 -212 -81q-103 0 -181 64t-78 178q0 123 89 210
t208 87zM303 419q-51 0 -94.5 -29.5t-62.5 -85.5h280q-4 57 -39 86t-84 29z" />
    <glyph glyph-name="uni0453" unicode="&#x453;" horiz-adv-x="497" 
d="M446 700l-138 -129h-100l82 129h156zM457 520l-11 -112h-278l-43 -408h-129l55 520h406z" />
    <glyph glyph-name="uni0454" unicode="&#x454;" horiz-adv-x="559" 
d="M260 105q76 0 132 58l97 -50q-84 -122 -233 -122q-47 0 -92 17t-83 49.5t-58 86.5t-13 121q7 63 37.5 115t73.5 83.5t90.5 48.5t92.5 17q73 0 128 -33t84 -95l-100 -41q-42 55 -113 55q-50 0 -96 -31.5t-65 -85.5l134 3l-9 -89l-133 -3q10 -50 45.5 -77t80.5 -27z" />
    <glyph glyph-name="uni0457" unicode="&#x457;" horiz-adv-x="258" 
d="M89 700l-12 -108h-133l11 108h134zM340 700l-11 -108h-134l12 108h133zM193 520l-55 -520h-128l55 520h128z" />
    <glyph glyph-name="uni0490" unicode="&#x490;" horiz-adv-x="537" 
d="M393 747h131l-11 -107l-8 -61h-310l-61 -579h-131l74 700h311z" />
    <glyph glyph-name="uni0491" unicode="&#x491;" horiz-adv-x="497" 
d="M334 566h128l-16 -158h-278l-43 -408h-129l55 520h278z" />
    <glyph glyph-name="Wgrave" unicode="&#x1e80;" horiz-adv-x="1025" 
d="M387 880h152l54 -129h-95zM1025 700l-303 -700h-93l-121 467l-219 -467h-94l-155 700h135l96 -442l209 442h101l114 -442l190 442h140z" />
    <glyph glyph-name="wgrave" unicode="&#x1e81;" horiz-adv-x="945" 
d="M320 700h152l54 -129h-95zM791 521h131l-246 -521h-122l-96 371l-174 -371h-121l-136 521h126l87 -364l175 364h113l100 -364z" />
    <glyph glyph-name="Wacute" unicode="&#x1e82;" horiz-adv-x="1025" 
d="M724 880l-139 -129h-100l82 129h157zM1025 700l-303 -700h-93l-121 467l-219 -467h-94l-155 700h135l96 -442l209 442h101l114 -442l190 442h140z" />
    <glyph glyph-name="wacute" unicode="&#x1e83;" horiz-adv-x="945" 
d="M657 700l-139 -129h-100l82 129h157zM791 521h131l-246 -521h-122l-96 371l-174 -371h-121l-136 521h126l87 -364l175 364h113l100 -364z" />
    <glyph glyph-name="Wdieresis" unicode="&#x1e84;" horiz-adv-x="1025" 
d="M491 880l-11 -108h-134l12 108h133zM743 880l-12 -108h-133l11 108h134zM1025 700l-303 -700h-93l-121 467l-219 -467h-94l-155 700h135l96 -442l209 442h101l114 -442l190 442h140z" />
    <glyph glyph-name="wdieresis" unicode="&#x1e85;" horiz-adv-x="945" 
d="M424 700l-11 -108h-134l12 108h133zM676 700l-12 -108h-133l11 108h134zM791 521h131l-246 -521h-122l-96 371l-174 -371h-121l-136 521h126l87 -364l175 364h113l100 -364z" />
    <glyph glyph-name="Ygrave" unicode="&#x1ef2;" horiz-adv-x="721" 
d="M236 880h151l54 -129h-95zM712 700l-307 -396l-34 -304h-131l34 304l-223 396h146l152 -277l211 277h152z" />
    <glyph glyph-name="ygrave" unicode="&#x1ef3;" horiz-adv-x="626" 
d="M379 571h-95l-110 129h151zM473 521h130l-392 -711h-131l118 208l-171 503h126l122 -364z" />
    <glyph glyph-name="endash" unicode="&#x2013;" horiz-adv-x="600" 
d="M535 329l-11 -107h-510l11 107h510z" />
    <glyph glyph-name="emdash" unicode="&#x2014;" horiz-adv-x="660" 
d="M595 329l-11 -107h-570l11 107h570z" />
    <glyph glyph-name="quoteleft" unicode="&#x2018;" horiz-adv-x="235" 
d="M230 700l-118 -257h-112l117 257h113z" />
    <glyph glyph-name="quoteright" unicode="&#x2019;" horiz-adv-x="250" 
d="M15 443l118 257h113l-118 -257h-113z" />
    <glyph glyph-name="quotesinglbase" unicode="&#x201a;" horiz-adv-x="315" 
d="M-72 -144l118 258h113l-117 -258h-114z" />
    <glyph glyph-name="quotedblleft" unicode="&#x201c;" horiz-adv-x="393" 
d="M230 700l-118 -257h-112l117 257h113zM388 700l-118 -257h-112l117 257h113z" />
    <glyph glyph-name="quotedblright" unicode="&#x201d;" horiz-adv-x="408" 
d="M15 443l118 257h113l-118 -257h-113zM173 443l118 257h113l-118 -257h-113z" />
    <glyph glyph-name="quotedblbase" unicode="&#x201e;" horiz-adv-x="408" 
d="M-47 -144l118 258h113l-117 -258h-114zM111 -144l118 258h113l-118 -258h-113z" />
    <glyph glyph-name="dagger" unicode="&#x2020;" horiz-adv-x="380" 
d="M335 568l-9 -84h-99l-33 -172h-51l3 172h-100l9 84h94l3 132h115l-24 -132h92z" />
    <glyph glyph-name="daggerdbl" unicode="&#x2021;" horiz-adv-x="380" 
d="M240 568h95l-9 -84h-103l-22 -110h-51l-1 110h-103l9 84h96l1 132h114zM196 326l-1 -110h103l-8 -84h-96l-2 -132h-114l28 132h-96l8 84h103l24 110h51z" />
    <glyph glyph-name="bullet" unicode="&#x2022;" horiz-adv-x="209" 
d="M98 228q-32 0 -53 21t-21 53t21 53t53 21t53 -21t21 -53t-21 -53t-53 -21z" />
    <glyph glyph-name="ellipsis" unicode="&#x2026;" horiz-adv-x="712" 
d="M59 -5q-34 0 -54 22.5t-17 57.5q4 29 25 48.5t51 19.5q34 0 54 -22.5t17 -57.5q-4 -29 -25.5 -48.5t-50.5 -19.5zM306 -5q-34 0 -54 22.5t-17 57.5q4 29 25 48.5t51 19.5q34 0 54 -22.5t17 -57.5q-4 -29 -25.5 -48.5t-50.5 -19.5zM553 -5q-34 0 -54 22.5t-17 57.5
q4 29 25 48.5t51 19.5q34 0 54 -22.5t17 -57.5q-4 -29 -25.5 -48.5t-50.5 -19.5z" />
    <glyph glyph-name="perthousand" unicode="&#x2030;" horiz-adv-x="1023" 
d="M173 705q54 0 88 -37.5t28 -91.5q-5 -49 -43 -83t-88 -34q-54 0 -88 37.5t-28 91.5q5 49 43 83t88 34zM523 702l97 -65l-493 -637l-99 65zM169 621q-18 0 -30.5 -13t-12.5 -32q1 -14 11.5 -23.5t24.5 -9.5q18 0 31 13t12 32q-1 14 -11.5 23.5t-24.5 9.5zM504 241
q54 0 88 -37.5t28 -91.5q-5 -49 -43 -83t-88 -34q-54 0 -88 37.5t-28 91.5q5 49 43 83t88 34zM829 241q54 0 88 -37.5t28 -91.5q-5 -49 -43 -83t-88 -34q-54 0 -88 37.5t-28 91.5q5 49 43 83t88 34zM500 157q-18 0 -30.5 -13t-12.5 -32q1 -14 11.5 -23.5t24.5 -9.5
q18 0 30.5 13t12.5 32q-1 14 -11.5 23.5t-24.5 9.5zM825 157q-18 0 -30.5 -13t-12.5 -32q1 -14 11.5 -23.5t24.5 -9.5q18 0 30.5 13t12.5 32q-1 14 -11.5 23.5t-24.5 9.5z" />
    <glyph glyph-name="guilsinglleft" unicode="&#x2039;" horiz-adv-x="194" 
d="M24 385l145 102l-7 -89l-98 -102l74 -103l-6 -89l-123 102z" />
    <glyph glyph-name="guilsinglright" unicode="&#x203a;" horiz-adv-x="194" 
d="M144 440l-16 -178l-145 -103l7 89l100 103l-75 102l6 90z" />
    <glyph glyph-name="fraction" unicode="&#x2044;" horiz-adv-x="108" 
d="M308 700l-504 -700h-50l510 700h44z" />
    <glyph glyph-name="Euro" unicode="&#x20ac;" horiz-adv-x="743" 
d="M592 169l75 -96q-102 -83 -244 -83q-118 0 -206.5 67t-115.5 176l-88 -2l8 86l71 2q0 22 2 37q0 6 3 17l-70 -3l9 86l82 3q45 113 148.5 182t222.5 69q138 0 229 -85l-85 -87q-60 49 -139 49q-72 0 -133.5 -36t-97.5 -97l131 2l-10 -86l-152 -2q-1 -3 -3 -24
q-2 -16 -2 -30l152 3l-8 -86l-129 -2q26 -55 76.5 -85.5t115.5 -30.5q84 0 158 56z" />
    <glyph glyph-name="trademark" unicode="&#x2122;" horiz-adv-x="571" 
d="M255 700l-4 -43h-61l-15 -137h-49l15 137h-61l4 43h171zM525 700l-19 -180h-49l12 97l-60 -97h-38l-39 97l-12 -97h-49l19 180h48l53 -127l84 127h50z" />
    <glyph glyph-name="oneeighth" unicode="&#x215b;" horiz-adv-x="556" 
d="M120 701l-27 -261h-37l23 221l-17 -11l-16 31l37 20h37zM523 700l-504 -700h-48l510 700h42zM411 263q37 0 56.5 -21t17.5 -48q-4 -34 -36 -52q41 -20 36 -67q-4 -33 -32.5 -55t-65.5 -22q-38 0 -63 23t-21 58q5 44 49 65q-27 21 -24 54q3 26 26 45.5t57 19.5zM412 232
q-20 0 -32.5 -11t-14.5 -27q-2 -14 9 -25.5t26 -11.5q18 0 31.5 12.5t15.5 28.5q2 15 -6 24.5t-29 9.5zM401 126q-23 0 -41.5 -14.5t-20.5 -36.5q-2 -20 12 -33t35 -13q25 0 42 14t20 36q2 21 -11 34t-36 13z" />
    <glyph glyph-name="threeeighths" unicode="&#x215c;" horiz-adv-x="574" 
d="M134 703q33 0 55 -21t19 -49q-3 -32 -35 -52q39 -17 35 -67q-4 -33 -33 -55.5t-66 -22.5q-41 0 -64.5 27.5t-18.5 64.5l38 -2q-2 -24 10 -41t35 -17t41 14t20 36q3 26 -14.5 36t-53.5 10l1 29q64 0 69 44q1 15 -10 25t-28 10q-22 0 -37 -14.5t-18 -41.5l-36 2
q3 38 29 61.5t62 23.5zM542 700l-503 -700h-48l509 700h42zM428 263q37 0 57 -21t17 -48q-4 -34 -35 -52q41 -21 36 -67q-4 -33 -33 -55t-66 -22q-38 0 -63 23t-21 58q5 44 50 65q-28 20 -25 54q3 26 26 45.5t57 19.5zM429 232q-21 0 -33 -11t-14 -27q-2 -14 9 -25.5
t26 -11.5q18 0 31.5 12.5t15.5 28.5q2 15 -6 24.5t-29 9.5zM418 126q-22 0 -40.5 -14.5t-20.5 -36.5q-2 -20 12 -33t35 -13q25 0 42 14t19 36q2 21 -11 34t-36 13z" />
    <glyph glyph-name="fiveeighths" unicode="&#x215d;" horiz-adv-x="576" 
d="M205 701l-3 -32h-104l-15 -58q22 10 45 10q36 0 61.5 -27.5t21.5 -66.5q-4 -38 -34.5 -64.5t-68.5 -26.5q-34 0 -57.5 19t-27.5 44l35 17q-1 -20 13 -34t37 -14q24 0 43 18t22 45q3 24 -11 41t-34 17q-35 0 -61 -30l-32 9l32 133h138zM542 700l-504 -700h-48l510 700h42z
M430 263q37 0 56.5 -21t17.5 -48q-4 -34 -36 -52q41 -20 36 -67q-4 -33 -32.5 -55t-65.5 -22q-38 0 -63 23t-21 58q5 44 49 65q-27 21 -24 54q3 26 26 45.5t57 19.5zM431 232q-21 0 -33 -11t-14 -27q-2 -14 9 -25.5t26 -11.5q18 0 31.5 12.5t15.5 28.5q2 15 -6 24.5t-29 9.5
zM420 126q-23 0 -41.5 -14.5t-20.5 -36.5q-2 -20 12 -33t35 -13q25 0 42 14t20 36q2 21 -11 34t-36 13z" />
    <glyph glyph-name="seveneighths" unicode="&#x215e;" horiz-adv-x="555" 
d="M219 701l-129 -261h-39l113 229h-121l3 32h173zM522 700l-504 -700h-48l510 700h42zM410 263q37 0 56.5 -21t17.5 -48q-4 -34 -36 -52q41 -20 36 -67q-4 -33 -32.5 -55t-65.5 -22q-38 0 -63 23t-21 58q5 44 49 65q-27 21 -24 54q3 26 26 45.5t57 19.5zM411 232
q-21 0 -33 -11t-14 -27q-2 -14 9 -25.5t26 -11.5q18 0 31.5 12.5t15.5 28.5q2 15 -6 24.5t-29 9.5zM400 126q-23 0 -41.5 -14.5t-20.5 -36.5q-2 -20 12 -33t35 -13q25 0 42 14t20 36q2 21 -11 34t-36 13z" />
    <glyph glyph-name="partialdiff" unicode="&#x2202;" horiz-adv-x="543" 
d="M115 700h132l145 -228q50 -81 63 -112q31 -73 23 -150q-9 -95 -86 -157.5t-169 -62.5q-97 0 -162.5 65.5t-55.5 163.5q10 87 83 152.5t159 65.5q32 0 43 -10zM258 325q-51 0 -89 -34t-43 -83q-5 -47 23.5 -77t75.5 -30q51 0 89 33.5t43 85.5q4 42 -22.5 73.5t-76.5 31.5z
" />
    <glyph glyph-name="product" unicode="&#x220f;" horiz-adv-x="729" 
d="M74 800h639l-104 -990h-126l92 873h-387l-92 -873h-126z" />
    <glyph glyph-name="summation" unicode="&#x2211;" horiz-adv-x="689" 
d="M673 800l-12 -117h-393l170 -378l-246 -378h389l-12 -117h-600l328 495l-222 495h598z" />
    <glyph glyph-name="minus" unicode="&#x2212;" horiz-adv-x="425" 
d="M360 329l-11 -107h-335l11 107h335z" />
    <glyph glyph-name="radical" unicode="&#x221a;" horiz-adv-x="818" 
d="M803 800l-376 -990h-151l-138 432h-122l14 144h207l123 -406l312 820h131z" />
    <glyph glyph-name="infinity" unicode="&#x221e;" horiz-adv-x="821" 
d="M591 433q78 0 123 -49.5t37 -121.5q-8 -74 -62.5 -124t-133.5 -50q-93 0 -180 100q-107 -100 -199 -100q-80 0 -124.5 49.5t-36.5 124.5q8 73 63 122t134 49q90 0 178 -99q110 99 201 99zM188 189q71 0 130 73q-46 73 -114 73q-34 0 -58.5 -21.5t-27.5 -51.5t17 -51.5
t53 -21.5zM648 262q3 30 -17 51.5t-53 21.5q-72 0 -132 -73q45 -73 116 -73q33 0 57.5 21.5t28.5 51.5z" />
    <glyph glyph-name="integral" unicode="&#x222b;" horiz-adv-x="320" 
d="M318 800l-8 -112q-45 0 -59.5 -22.5t-19.5 -76.5l-65 -613q-10 -94 -57.5 -130t-157.5 -36l7 113q47 0 61 17.5t19 67.5l64 612q11 97 59.5 138.5t156.5 41.5z" />
    <glyph glyph-name="approxequal" unicode="&#x2248;" horiz-adv-x="485" 
d="M159 442q44 0 107.5 -35.5t95.5 -35.5q17 0 34 9.5t18 19.5l50 -4q-6 -55 -41 -90t-93 -35q-44 0 -107.5 40.5t-99.5 40.5q-17 0 -33.5 -12t-17.5 -26l-48 5q6 54 40.5 88.5t94.5 34.5zM142 276q45 0 107.5 -35t94.5 -35q17 0 34 9.5t18 19.5l51 -5q-7 -54 -42 -89
t-94 -35q-43 0 -106 40t-99 40q-17 0 -33.5 -12t-17.5 -25l-48 4q6 55 40.5 89t94.5 34z" />
    <glyph glyph-name="notequal" unicode="&#x2260;" horiz-adv-x="396" 
d="M355 302h-103l-25 -53h123l-12 -107h-165l-70 -142h-113l70 142h-57l12 107h98l26 53h-119l12 107h161l74 152h113l-74 -152h61z" />
    <glyph glyph-name="lessequal" unicode="&#x2264;" horiz-adv-x="423" 
d="M393 593l-12 -110l-203 -108l181 -107l-12 -111l-322 199l4 38zM342 109l-12 -108h-335l12 108h335z" />
    <glyph glyph-name="greaterequal" unicode="&#x2265;" horiz-adv-x="404" 
d="M51 593l322 -199l-4 -38l-364 -199l12 111l203 107l-181 108zM0 109h335l-12 -108h-335z" />
    <glyph glyph-name="lozenge" unicode="&#x25ca;" horiz-adv-x="584" 
d="M401 700l120 -350l-191 -350h-184l-119 350l191 350h183zM246 93l142 257l-87 257l-141 -257z" />
    <glyph glyph-name="i.loclTRK" horiz-adv-x="233" 
d="M204 700l-12 -108h-133l12 108h133zM183 520l-55 -520h-129l55 520h129z" />
    <glyph glyph-name="f_t" horiz-adv-x="724" 
d="M678 414h-110l-27 -259q-6 -48 32 -48q35 0 72 13l-6 -109q-37 -17 -102 -17t-100 35.5t-25 127.5l27 257h-235l-44 -414h-129l44 414h-65l10 106h66l2 27q6 53 27 89.5t51 52.5t56 22t54 6q73 0 126 -34l-49 -87q-35 15 -66 15q-34 0 -50.5 -20.5t-19.5 -48.5l-2 -22
h235l13 122h128l-13 -122h111z" />
    <glyph glyph-name="t_t" horiz-adv-x="739" 
d="M693 414h-110l-28 -259q-6 -48 33 -48q35 0 72 13l-6 -109q-37 -17 -102 -17t-100 35.5t-25 127.5l27 257h-237l-27 -259q-6 -48 32 -48q35 0 72 13l-6 -109q-37 -17 -102 -17t-100 35.5t-25 127.5l28 257h-73l11 106h72l13 122h129l-13 -122h237l13 122h128l-13 -122
h111z" />
    <glyph glyph-name="zero.tf" horiz-adv-x="700" 
d="M391 710q112 0 183 -79t71 -223q0 -177 -86.5 -297.5t-233.5 -120.5q-112 0 -183.5 79.5t-71.5 224.5q0 174 87.5 295t233.5 121zM385 598q-62 0 -106.5 -46.5t-63.5 -113.5t-20 -147q0 -81 33 -134.5t102 -53.5q63 0 107.5 45.5t63.5 112.5t19 146q0 83 -32 137t-103 54
z" />
    <glyph glyph-name="one.tf" horiz-adv-x="700" 
d="M467 700l-74 -700h-131l62 588h-114l11 112h246z" />
    <glyph glyph-name="two.tf" horiz-adv-x="700" 
d="M389 708q101 0 159.5 -56.5t58.5 -140.5q0 -18 -1.5 -33.5t-7.5 -32.5t-10 -28.5t-17.5 -30.5t-21 -29t-28.5 -34t-32.5 -36t-41.5 -43.5t-46 -49.5l-77 -79h243l-12 -114h-474v19l203 216q13 14 40.5 43t40.5 43t34.5 38.5t32 40t22 35.5t16.5 37.5t5 34.5
q0 45 -27 64.5t-62 19.5q-43 0 -78 -28t-40 -87l-3 -16h-133l2 21q10 96 78.5 161t176.5 65z" />
    <glyph glyph-name="three.tf" horiz-adv-x="700" 
d="M194 199q36 -96 135 -96q63 0 104.5 40t41.5 102q0 50 -34.5 80.5t-96.5 30.5q-35 0 -77 -9l166 241h-265l11 112h456l-193 -262q69 -8 115.5 -60.5t46.5 -128.5q0 -112 -80.5 -185.5t-199.5 -73.5q-90 0 -151 42.5t-85 111.5z" />
    <glyph glyph-name="four.tf" horiz-adv-x="700" 
d="M611 274l-11 -112h-75l-17 -162h-131l17 162h-302l10 112l347 426h133l-46 -426h75zM238 274h167l28 250z" />
    <glyph glyph-name="five.tf" horiz-adv-x="700" 
d="M570 700l-12 -112h-257l-38 -140q54 30 114 30q90 0 157.5 -61.5t67.5 -158.5q0 -120 -83 -194t-196 -74q-90 0 -154.5 41.5t-85.5 106.5l106 50q12 -33 43 -58t87 -25q57 0 105 38.5t48 111.5q0 56 -36 85t-83 29q-68 0 -121 -53l-107 36l84 348h361z" />
    <glyph glyph-name="six.tf" horiz-adv-x="700" 
d="M575 700l-237 -271q11 8 39 8q84 0 145.5 -61.5t61.5 -146.5q0 -107 -74.5 -173t-183.5 -66q-90 0 -154.5 58.5t-64.5 149.5q0 32 9 65t19 56t33.5 56.5t35.5 48.5t42 52l192 224h137zM353 325q-55 0 -89.5 -35.5t-34.5 -85.5q0 -47 31.5 -75t76.5 -28q56 0 90 36t34 86
q0 44 -30.5 73t-77.5 29z" />
    <glyph glyph-name="seven.tf" horiz-adv-x="700" 
d="M647 700l-362 -700h-130l308 588h-283l12 112h455z" />
    <glyph glyph-name="eight.tf" horiz-adv-x="700" 
d="M499 396q42 -21 69 -64.5t27 -98.5q0 -108 -83.5 -175.5t-186.5 -67.5q-94 0 -162.5 56.5t-68.5 151.5q0 67 38 121.5t97 81.5q-54 44 -54 114q0 78 60 136.5t157 58.5q87 0 138 -48t51 -120q0 -45 -23 -83t-59 -63zM295 514q0 -31 19.5 -50t52.5 -19q39 0 64.5 25
t25.5 59q0 30 -20.5 48.5t-52.5 18.5q-37 0 -63 -23.5t-26 -58.5zM332 106q54 0 91 36.5t37 91.5q0 45 -30 71t-72 26q-57 0 -93.5 -39t-36.5 -86t29 -73.5t75 -26.5z" />
    <glyph glyph-name="nine.tf" horiz-adv-x="700" 
d="M146 0l237 271q-11 -8 -39 -8q-84 0 -145.5 61.5t-61.5 147.5q0 106 74.5 172t183.5 66q90 0 154.5 -58.5t64.5 -149.5q0 -52 -22.5 -105.5t-47 -86.5t-69.5 -86l-192 -224h-137zM368 375q55 0 89.5 35.5t34.5 85.5q0 47 -31.5 75t-76.5 28q-56 0 -90 -36t-34 -85
q0 -45 30.5 -74t77.5 -29z" />
    <glyph glyph-name="zero.dnom" horiz-adv-x="260" 
d="M101 263q47 0 73.5 -35.5t20.5 -91.5l-2 -13q-6 -56 -38 -90.5t-78 -34.5t-72.5 35.5t-21.5 91.5l2 13q6 56 38.5 90.5t77.5 34.5zM102 232q-30 0 -53 -26t-27 -70l-2 -13q-4 -44 11.5 -69t44.5 -25q32 0 54 25.5t26 70.5l2 13q4 45 -11 69.5t-45 24.5z" />
    <glyph glyph-name="one.dnom" horiz-adv-x="122" 
d="M70 261l-28 -261h-37l25 221l-19 -11l-15 31l37 20h37z" />
    <glyph glyph-name="two.dnom" horiz-adv-x="221" 
d="M80 264q35 0 58 -23.5t20 -53.5q-3 -26 -19.5 -47t-58.5 -60l-53 -48h118l-4 -32h-168l4 32l74 70q53 50 61 65q7 11 8 24q2 18 -9.5 30t-29.5 12q-20 0 -36 -13.5t-19 -37.5l-1 -13h-37l2 15q4 35 30 57.5t60 22.5z" />
    <glyph glyph-name="three.dnom" horiz-adv-x="233" 
d="M87 263q33 0 55.5 -21t19.5 -49q-3 -32 -36 -52q17 -7 27.5 -24.5t7.5 -42.5q-4 -33 -32.5 -55.5t-65.5 -22.5q-41 0 -64.5 27.5t-18.5 64.5l37 -2q-2 -24 10 -41t35 -17t41 14t21 36q2 26 -15.5 36t-53.5 10l1 29q64 0 69 44q1 15 -9.5 25t-27.5 10q-22 0 -37 -14.5
t-18 -41.5l-37 2q3 38 29 61.5t62 23.5z" />
    <glyph glyph-name="four.dnom" horiz-adv-x="246" 
d="M167 261l-16 -154h27l-4 -31h-27l-8 -76h-37l8 76h-132l152 185h37zM124 202l-75 -95h65z" />
    <glyph glyph-name="five.dnom" horiz-adv-x="235" 
d="M159 261l-4 -32h-104l-15 -58q23 10 45 10q36 0 61.5 -27.5t21.5 -66.5q-4 -38 -34 -64.5t-68 -26.5q-34 0 -58 19t-27 44l34 17q0 -20 13.5 -34t36.5 -14q24 0 43.5 18t22.5 45q2 24 -12 41t-33 17q-35 0 -61 -30l-32 9l32 133h138z" />
    <glyph glyph-name="six.dnom" horiz-adv-x="223" 
d="M147 261l-78 -96h5q34 0 57.5 -26t20.5 -60q-4 -34 -32 -58.5t-61 -24.5q-35 0 -59.5 26t-20.5 61q1 13 5 23.5t11 22t12 17.5t16.5 19t15.5 18l66 78h42zM73 133q-23 0 -39 -15t-18 -39q-3 -22 10.5 -36.5t31.5 -14.5q19 0 37 15.5t20 39.5q2 22 -11 36t-31 14z" />
    <glyph glyph-name="seven.dnom" horiz-adv-x="223" 
d="M171 261l-130 -261h-39l113 229h-121l4 32h173z" />
    <glyph glyph-name="eight.dnom" horiz-adv-x="233" 
d="M87 263q37 0 56.5 -21t17.5 -48q-4 -34 -36 -52q41 -20 36 -67q-4 -33 -32.5 -55t-65.5 -22q-38 0 -63 23t-21 58q5 44 49 65q-27 21 -24 54q3 26 26 45.5t57 19.5zM88 232q-20 0 -32.5 -11t-14.5 -27q-2 -14 9 -25.5t26 -11.5q18 0 31.5 12.5t15.5 28.5q2 15 -6 24.5
t-29 9.5zM77 126q-23 0 -41.5 -14.5t-20.5 -36.5q-2 -20 12 -33t35 -13q25 0 42 14t20 36q2 21 -11 34t-36 13z" />
    <glyph glyph-name="nine.dnom" horiz-adv-x="224" 
d="M83 264q35 0 59.5 -25.5t20.5 -60.5q-1 -11 -4.5 -21t-7 -17t-11 -17.5t-11 -14.5t-14 -15.5t-13.5 -15.5l-65 -77h-43l78 95h-4q-34 0 -58 26t-21 61q4 34 32 58t62 24zM84 232q-20 0 -38 -15.5t-20 -38.5q-2 -22 11.5 -36.5t31.5 -14.5q23 0 38.5 15t17.5 40
q3 21 -10 35.5t-31 14.5z" />
    <glyph glyph-name="zero.numr" horiz-adv-x="259" 
d="M146 703q47 0 73.5 -35.5t20.5 -91.5l-1 -13q-6 -56 -38 -90.5t-78 -34.5t-73 35.5t-21 91.5l1 13q6 56 38.5 90.5t77.5 34.5zM147 672q-30 0 -53 -26t-27 -70l-1 -13q-5 -44 11 -69t45 -25q32 0 54 25.5t26 70.5l1 13q5 44 -10 69t-46 25z" />
    <glyph glyph-name="one.numr" horiz-adv-x="122" 
d="M116 701l-27 -261h-37l24 221l-18 -11l-16 31l37 20h37z" />
    <glyph glyph-name="two.numr" horiz-adv-x="222" 
d="M127 704q35 0 58 -23.5t20 -53.5q-3 -26 -19.5 -47t-58.5 -60l-53 -48h118l-3 -32h-168l3 32l74 70q5 4 14 12.5t12 11.5t10 9.5t9 9.5t7 8t6.5 7.5t4 7t3.5 7.5l2.5 7.5t1.5 8.5q1 18 -10.5 30t-29.5 12q-20 0 -36 -13.5t-18 -37.5l-2 -13h-37l2 15q4 35 30 57.5
t60 22.5z" />
    <glyph glyph-name="three.numr" horiz-adv-x="232" 
d="M133 703q33 0 55.5 -21t19.5 -49q-3 -32 -36 -52q17 -7 27.5 -24.5t7.5 -42.5q-3 -33 -32 -55.5t-66 -22.5q-41 0 -64.5 27.5t-18.5 64.5l38 -2q-3 -24 9.5 -41t35.5 -17t41 14t20 36q3 26 -14.5 36t-53.5 10l1 29q64 0 68 44q1 15 -9.5 25t-27.5 10q-22 0 -37 -14.5
t-18 -41.5l-37 2q4 38 29.5 61.5t61.5 23.5z" />
    <glyph glyph-name="four.numr" horiz-adv-x="245" 
d="M212 701l-16 -154h27l-3 -31h-27l-8 -76h-37l8 76h-132l151 185h37zM169 642l-75 -95h65z" />
    <glyph glyph-name="five.numr" horiz-adv-x="236" 
d="M205 701l-3 -32h-104l-15 -58q22 10 45 10q36 0 61.5 -27.5t21.5 -66.5q-4 -38 -34.5 -64.5t-68.5 -26.5q-34 0 -57.5 19t-27.5 44l35 17q-1 -20 13 -34t37 -14q24 0 43 18t22 45q3 24 -11 41t-34 17q-35 0 -61 -30l-32 9l32 133h138z" />
    <glyph glyph-name="six.numr" horiz-adv-x="224" 
d="M194 701l-78 -96h5q34 0 58 -26t20 -60t-32 -58.5t-61 -24.5q-35 0 -59.5 26t-20.5 61q1 13 5 23.5t11 22t12 17.5t16.5 19t15.5 18l66 78h42zM121 573q-23 0 -39.5 -15t-18.5 -39q-2 -22 11.5 -36.5t31.5 -14.5q19 0 36.5 15.5t19.5 39.5q3 22 -10 36t-31 14z" />
    <glyph glyph-name="seven.numr" horiz-adv-x="222" 
d="M216 701l-129 -261h-39l113 229h-121l3 32h173z" />
    <glyph glyph-name="eight.numr" horiz-adv-x="233" 
d="M133 703q37 0 57 -21t17 -48q-4 -34 -35 -52q41 -21 35 -67q-3 -33 -31.5 -55t-66.5 -22t-63 23t-21 58q5 44 50 65q-28 20 -25 54q3 26 26 45.5t57 19.5zM134 672q-20 0 -32.5 -11t-14.5 -27q-2 -14 9 -25.5t26 -11.5q18 0 31.5 12.5t15.5 28.5q2 15 -6 24.5t-29 9.5z
M123 566q-22 0 -40.5 -14.5t-21.5 -36.5q-1 -20 13 -33t35 -13q25 0 42 14t19 36q2 21 -11 34t-36 13z" />
    <glyph glyph-name="nine.numr" horiz-adv-x="222" 
d="M128 704q35 0 59.5 -25.5t20.5 -60.5q-1 -13 -4.5 -24t-11 -22t-12.5 -17.5t-16.5 -19.5t-15.5 -18l-65 -77h-43l78 95h-4q-35 0 -59 26.5t-20 60.5t31.5 58t61.5 24zM129 672q-20 0 -37.5 -15.5t-20.5 -38.5q-2 -22 11.5 -36.5t31.5 -14.5q23 0 38.5 15t18.5 40
q2 21 -11 35.5t-31 14.5z" />
    </font>
</defs>
</svg>
