<?xml version="1.0" standalone="no"?>
<!DOCTYPE svg PUBLIC "-//W3C//DTD SVG 1.1//EN" "http://www.w3.org/Graphics/SVG/1.1/DTD/svg11.dtd" >
<svg xmlns="http://www.w3.org/2000/svg" xmlns:xlink="http://www.w3.org/1999/xlink" version="1.1">
<metadata>
Created by FontForge 20170731 at Tue Apr  5 04:38:34 2016
 By Aleksey,,,
(c) 2016 Connary Fagen
</metadata>
<defs>
<font id="VisbyCF-DemiBoldOblique" horiz-adv-x="622" >
  <font-face 
    font-family="Visby CF Demi Bold"
    font-weight="600"
    font-style="oblique"
    font-stretch="normal"
    units-per-em="1000"
    panose-1="0 0 7 0 0 0 0 0 0 0"
    ascent="800"
    descent="-200"
    x-height="520"
    cap-height="700"
    bbox="-304 -245 1109 970"
    underline-thickness="50"
    underline-position="-200"
    slope="-6"
    unicode-range="U+0020-FB02"
  />
<missing-glyph horiz-adv-x="495" 
d="M406 800v-990h-314v990h314zM330 734h-164v-33h65v-37h-66v-32h165v32h-66v37h66v33zM264 606h-99v-103h165v34h-66v69zM231 572v-35h-33v35h33zM330 476h-165v-32h66v-37h-66v-33h99v70h66v32zM330 417h-33v-65h-132v-34h165v99zM330 296h-99v-55h33v22h33v-46h-99v79
h-33v-112h165v112zM330 125h-165v-112h165v112zM297 92v-46h-99v46h99zM330 -10h-165v-32h70l-70 -47v-33h165v33h-101l69 47h32v32z" />
    <glyph glyph-name="fi" unicode="fi" horiz-adv-x="556" 
d="M85 552q18 165 180 165q69 0 120 -33l-42 -73q-35 16 -69 16q-72 0 -81 -79l-3 -28h134l-9 -90h-134l-46 -430h-108l46 430h-62l9 90h62zM400 520h108l-55 -520h-108z" />
    <glyph glyph-name="fl" unicode="fl" horiz-adv-x="586" 
d="M85 552q18 165 180 165q69 0 120 -33l-42 -73q-35 16 -69 16q-72 0 -81 -79l-3 -28h134l-9 -90h-134l-46 -430h-108l46 430h-62l9 90h62zM450 707h108l-75 -707h-108z" />
    <glyph glyph-name="f_f" unicode="ff" horiz-adv-x="757" 
d="M637 627q-72 0 -81 -79l-3 -28h134l-9 -90h-134l-46 -430h-108l46 430h-179h-76l-46 -430h-108l46 430h-62l9 90h62l3 32q18 165 180 165q69 0 120 -33l-42 -73q-35 16 -69 16q-72 0 -81 -79l-3 -28h231h24l3 32q18 165 180 165q69 0 120 -33l-42 -73q-35 16 -69 16z" />
    <glyph glyph-name=".notdef" horiz-adv-x="495" 
d="M406 800v-990h-314v990h314zM330 734h-164v-33h65v-37h-66v-32h165v32h-66v37h66v33zM264 606h-99v-103h165v34h-66v69zM231 572v-35h-33v35h33zM330 476h-165v-32h66v-37h-66v-33h99v70h66v32zM330 417h-33v-65h-132v-34h165v99zM330 296h-99v-55h33v22h33v-46h-99v79
h-33v-112h165v112zM330 125h-165v-112h165v112zM297 92v-46h-99v46h99zM330 -10h-165v-32h70l-70 -47v-33h165v33h-101l69 47h32v32z" />
    <glyph glyph-name=".null" horiz-adv-x="0" 
 />
    <glyph glyph-name="nonmarkingreturn" horiz-adv-x="333" 
 />
    <glyph glyph-name="space" unicode=" " horiz-adv-x="300" 
 />
    <glyph glyph-name="exclam" unicode="!" horiz-adv-x="241" 
d="M200 700l-52 -490h-123l52 490h123zM69 -5q-30 0 -47 18.5t-13 49.5q3 26 20.5 42t44.5 16q30 0 47 -18.5t13 -49.5q-3 -26 -20.5 -42t-44.5 -16z" />
    <glyph glyph-name="quotedbl" unicode="&#x22;" horiz-adv-x="407" 
d="M164 700l-18 -175h-110l18 175h110zM371 700l-18 -175h-110l18 175h110z" />
    <glyph glyph-name="numbersign" unicode="#" horiz-adv-x="550" 
d="M495 425h-67l-26 -150h77l-10 -95h-84l-32 -180h-110l32 180h-102l-32 -180h-110l32 180h-54l10 95h61l26 150h-71l10 95h78l32 180h110l-32 -180h102l32 180h110l-32 -180h60zM292 275l26 150h-102l-26 -150h102z" />
    <glyph glyph-name="dollar" unicode="$" horiz-adv-x="551" 
d="M301 400q96 -37 142 -82.5t46 -112.5q0 -93 -68 -151.5t-163 -67.5l-8 -76h-59l8 77q-80 8 -135.5 55.5t-69.5 116.5l89 40q13 -46 45 -76t81 -37l25 236l-15 6q-78 30 -120 72.5t-42 111.5q0 84 63.5 139t154.5 60l8 80h59l-9 -82q66 -11 111.5 -51.5t65.5 -93.5
l-86 -43q-37 75 -101 89zM165 515q0 -33 19 -54.5t60 -38.5l20 191q-44 -6 -71.5 -32t-27.5 -66zM269 88q47 9 77 39t30 76q0 34 -20.5 55.5t-64.5 40.5z" />
    <glyph glyph-name="percent" unicode="%" horiz-adv-x="698" 
d="M174 705q54 0 87.5 -37t27.5 -91q-5 -50 -43.5 -84t-88.5 -34q-54 0 -87.5 37t-27.5 91q5 50 43.5 84t88.5 34zM536 702l81 -55l-501 -647l-82 55zM171 633q-23 0 -39.5 -16t-17.5 -40q-1 -19 12.5 -32.5t33.5 -13.5q23 0 39.5 16t17.5 40q1 19 -12.5 32.5t-33.5 13.5z
M505 241q54 0 87.5 -37t27.5 -91q-5 -50 -43.5 -84t-88.5 -34q-54 0 -87.5 37t-27.5 91q5 50 43.5 84t88.5 34zM502 169q-23 0 -39.5 -16t-17.5 -40q-1 -19 12.5 -32.5t33.5 -13.5q23 0 39.5 16t17.5 40q1 19 -12.5 32.5t-33.5 13.5z" />
    <glyph glyph-name="ampersand" unicode="&#x26;" horiz-adv-x="743" 
d="M594 89q33 0 68 19l-5 -92q-32 -22 -77 -22q-53 0 -76 30.5t-18 81.5l2 10q-66 -126 -228 -126q-107 0 -176 61t-58 172q9 85 66 137.5t133 64.5l-121 275h458l-10 -95h-310l114 -255h-46q-69 0 -118.5 -38t-56.5 -99q-6 -61 32.5 -94.5t103.5 -33.5q72 0 127 40t63 113
l19 178h186l-10 -90h-78l-19 -186q-4 -29 5 -40t30 -11z" />
    <glyph glyph-name="quotesingle" unicode="'" horiz-adv-x="180" 
d="M164 700l-18 -175h-110l18 175h110z" />
    <glyph glyph-name="parenleft" unicode="(" horiz-adv-x="301" 
d="M280 743q-120 -185 -147 -428q-26 -254 53 -447l-102 4q-88 192 -59 453q25 245 149 422z" />
    <glyph glyph-name="parenright" unicode=")" horiz-adv-x="301" 
d="M71 747l102 -4q89 -180 62 -428q-26 -258 -152 -447l-106 4q122 196 149 453q26 239 -55 422z" />
    <glyph glyph-name="asterisk" unicode="*" horiz-adv-x="498" 
d="M427 555l-106 -28l60 -91l-83 -49l-52 88l-72 -88l-75 49l78 91l-98 28l30 91l107 -32l9 114h90l-13 -114l111 32z" />
    <glyph glyph-name="plus" unicode="+" horiz-adv-x="419" 
d="M355 316l-7 -70h-133l-14 -132h-70l14 132h-131l7 70h132l14 132h70l-14 -132h132z" />
    <glyph glyph-name="comma" unicode="," horiz-adv-x="190" 
d="M-70 -132l111 242h97l-114 -242h-94z" />
    <glyph glyph-name="hyphen" unicode="-" horiz-adv-x="400" 
d="M334 322l-9 -90h-310l9 90h310z" />
    <glyph glyph-name="period" unicode="." horiz-adv-x="196" 
d="M47 -5q-30 0 -46.5 18.5t-13.5 49.5q3 26 20.5 42t44.5 16q30 0 46.5 -18.5t13.5 -49.5q-3 -26 -20.5 -42t-44.5 -16z" />
    <glyph glyph-name="slash" unicode="/" horiz-adv-x="532" 
d="M517 745l-432 -875h-114l432 875h114z" />
    <glyph glyph-name="zero" unicode="0" horiz-adv-x="647" 
d="M339 710q111 0 180.5 -79t69.5 -222q0 -114 -36.5 -208t-109.5 -152.5t-171 -58.5q-111 0 -180.5 79t-69.5 223q0 113 37 207t110 152.5t170 58.5zM335 615q-99 0 -153 -96.5t-55 -228.5q0 -91 37.5 -148t111.5 -57q99 0 153.5 96t54.5 227q0 92 -37 149.5t-112 57.5z
" />
    <glyph glyph-name="one" unicode="1" horiz-adv-x="348" 
d="M292 700l-74 -700h-110l64 605h-108l10 95h218z" />
    <glyph glyph-name="two" unicode="2" horiz-adv-x="549" 
d="M291 707q96 0 153.5 -55t57.5 -137q0 -18 -2 -34t-8.5 -33t-11 -29t-18.5 -31t-21.5 -29.5t-29.5 -34.5t-33.5 -36.5t-41 -43.5t-45.5 -48l-98 -100h266l-10 -96h-459l1 18l204 216q13 14 44.5 46.5t43 45t34.5 38.5t32 40.5t21 35t16.5 38t4.5 35.5q0 49 -30.5 72.5
t-72.5 23.5q-49 0 -88.5 -32.5t-45.5 -95.5l-2 -16h-112l2 20q10 96 78 159t171 63z" />
    <glyph glyph-name="three" unicode="3" horiz-adv-x="576" 
d="M87 188q37 -103 145 -103q70 0 116.5 44.5t46.5 112.5q0 56 -38 88.5t-104 32.5q-30 0 -70 -8l177 250h-281l10 95h442l-199 -267q72 -5 121.5 -57t49.5 -131q0 -112 -79.5 -183.5t-195.5 -71.5q-89 0 -148.5 42.5t-81.5 110.5z" />
    <glyph glyph-name="four" unicode="4" horiz-adv-x="566" 
d="M502 266l-10 -95h-75l-18 -171h-110l18 171h-305l9 95l351 434h111l-46 -434h75zM126 266h191l31 284z" />
    <glyph glyph-name="five" unicode="5" horiz-adv-x="579" 
d="M487 700l-10 -95h-267l-44 -169q45 40 129 40q89 0 155.5 -61t66.5 -157q0 -119 -82 -193.5t-194 -74.5q-90 0 -152 41.5t-82 105.5l89 42q13 -37 47.5 -64.5t94.5 -27.5q65 0 117.5 45t52.5 123q0 61 -39.5 95t-92.5 34q-77 0 -136 -61l-91 30l84 347h354z" />
    <glyph glyph-name="six" unicode="6" horiz-adv-x="540" 
d="M451 700l-242 -280q22 15 60 15q85 0 145.5 -60t60.5 -146q0 -105 -74 -172t-181 -67q-89 0 -152 58t-63 148q0 41 10.5 78.5t37 78.5t41 60t51.5 64l190 223h116zM250 340q-63 0 -103 -40.5t-40 -99.5q0 -52 35.5 -84t86.5 -32q61 0 102 41t41 100q0 51 -35.5 83
t-86.5 32z" />
    <glyph glyph-name="seven" unicode="7" horiz-adv-x="506" 
d="M491 700l-358 -700h-109l312 605h-297l10 95h442z" />
    <glyph glyph-name="eight" unicode="8" horiz-adv-x="566" 
d="M394 394q44 -21 72 -64.5t28 -99.5q0 -107 -81 -173.5t-182 -66.5q-92 0 -158 55.5t-66 147.5q0 68 38.5 123t100.5 82q-60 44 -60 119q0 78 60 135.5t153 57.5q84 0 134 -47t50 -118q0 -46 -24 -86t-65 -65zM187 516q0 -36 23 -58.5t62 -22.5q45 0 76 30t31 70
q0 35 -23.5 57t-62.5 22q-46 0 -76 -29t-30 -69zM236 88q60 0 102.5 40t42.5 102q0 50 -33.5 79.5t-82.5 29.5q-62 0 -104 -42.5t-42 -97.5q0 -51 33 -81t84 -30z" />
    <glyph glyph-name="nine" unicode="9" horiz-adv-x="550" 
d="M68 0l242 280q-22 -15 -60 -15q-85 0 -145.5 60t-60.5 146q0 105 74 172t181 67q89 0 152 -58t63 -148q0 -41 -11 -79.5t-35.5 -77.5t-42 -61.5t-51.5 -62.5l-190 -223h-116zM269 360q63 0 103 40.5t40 99.5q0 52 -35.5 84t-86.5 32q-61 0 -102 -41t-41 -100
q0 -51 35.5 -83t86.5 -32z" />
    <glyph glyph-name="colon" unicode=":" horiz-adv-x="226" 
d="M104 392q-30 0 -47 18.5t-13 49.5q2 26 20 42t45 16q30 0 46.5 -18.5t13.5 -49.5q-3 -26 -20.5 -42t-44.5 -16zM62 -5q-30 0 -46.5 18.5t-13.5 49.5q3 26 20.5 42t44.5 16q30 0 46.5 -18.5t13.5 -49.5q-3 -26 -20.5 -42t-44.5 -16z" />
    <glyph glyph-name="semicolon" unicode=";" horiz-adv-x="232" 
d="M125 392q-30 0 -47 18.5t-13 49.5q2 26 20 42t45 16q30 0 46.5 -18.5t13.5 -49.5q-3 -26 -20.5 -42t-44.5 -16zM-70 -132l111 242h97l-114 -242h-94z" />
    <glyph glyph-name="less" unicode="&#x3c;" horiz-adv-x="492" 
d="M455 481l-11 -103l-278 -138l249 -136l-11 -104l-393 222l4 37z" />
    <glyph glyph-name="equal" unicode="=" horiz-adv-x="395" 
d="M365 405l-9 -90h-335l9 90h335zM348 239l-10 -90h-335l10 90h335z" />
    <glyph glyph-name="greater" unicode="&#x3e;" horiz-adv-x="493" 
d="M29 481l394 -222l-4 -37l-441 -222l11 104l279 136l-250 138z" />
    <glyph glyph-name="question" unicode="?" horiz-adv-x="532" 
d="M287 707q97 0 158.5 -58t51.5 -153q-4 -42 -24 -73.5t-45.5 -51t-51 -38.5t-44.5 -47.5t-22 -66.5l-1 -12h-111l1 15q3 47 22.5 82t46 56.5t52.5 40.5t46 45.5t23 59.5q4 41 -23 73.5t-83 32.5q-58 0 -93.5 -37t-41.5 -90h-109q10 104 80 163t168 59zM244 -5
q-30 0 -47 18.5t-13 49.5q3 26 20.5 42t44.5 16q30 0 47 -18.5t13 -49.5q-3 -26 -20.5 -42t-44.5 -16z" />
    <glyph glyph-name="at" unicode="@" horiz-adv-x="795" 
d="M420 710q131 0 224 -87.5t93 -229.5q0 -99 -43.5 -163t-122.5 -64q-53 0 -75.5 21.5t-21.5 52.5q-13 -31 -44 -52.5t-74 -21.5q-61 0 -106.5 42t-45.5 120q0 94 57 146.5t125 52.5q29 0 57 -14.5t35 -38.5l18 45h61l-22 -202q-1 -8 -1 -21q0 -51 37 -51t54 47t17 103
q0 104 -64.5 165.5t-158.5 61.5q-125 0 -212.5 -85t-87.5 -215q0 -108 70 -176t161 -68q43 0 77 9t50.5 18t43.5 27l81 -38q-93 -104 -249 -104q-131 0 -230 94.5t-99 240.5q0 107 56.5 196.5t147.5 139t192 49.5zM385 443q-40 0 -67.5 -32t-27.5 -82q0 -36 19.5 -57.5
t50.5 -21.5q39 0 67 33t28 85q0 34 -19.5 54.5t-50.5 20.5z" />
    <glyph glyph-name="A" unicode="A" horiz-adv-x="755" 
d="M568 0l-48 148h-358l-80 -148h-119l386 700h96l238 -700h-115zM211 239h278l-105 322z" />
    <glyph glyph-name="B" unicode="B" horiz-adv-x="602" 
d="M402 385q57 -15 93.5 -60t36.5 -107q0 -107 -74 -162.5t-200 -55.5h-255l74 700h246q94 0 144.5 -44.5t50.5 -113.5q0 -56 -31.5 -97t-84.5 -60zM308 603h-131l-20 -183h127q56 0 90 30t34 77q0 76 -100 76zM260 97q77 0 120.5 34.5t43.5 96.5q0 47 -34 74.5t-102 27.5
h-140l-24 -233h136z" />
    <glyph glyph-name="C" unicode="C" horiz-adv-x="671" 
d="M594 73q-104 -83 -243 -83q-137 0 -232.5 91t-95.5 233q0 162 118.5 279t277.5 117q136 0 227 -85l-75 -73q-64 54 -152 54q-113 0 -198 -83.5t-85 -206.5q0 -97 67 -159.5t163 -62.5q91 0 169 60z" />
    <glyph glyph-name="D" unicode="D" horiz-adv-x="678" 
d="M301 700q151 0 242.5 -102.5t76.5 -250.5q-16 -146 -127 -246.5t-262 -100.5h-228l74 700h224zM237 104q112 0 186 72.5t86 180.5q11 101 -47 170t-169 69h-117l-52 -492h113z" />
    <glyph glyph-name="E" unicode="E" horiz-adv-x="528" 
d="M124 102h317l-11 -102h-427l74 700h418l-11 -102h-308l-20 -196h237l-11 -100h-237z" />
    <glyph glyph-name="F" unicode="F" horiz-adv-x="517" 
d="M492 600h-313l-21 -201h258l-10 -94h-258l-32 -305h-113l74 700h426z" />
    <glyph glyph-name="G" unicode="G" horiz-adv-x="763" 
d="M412 361h289q-1 -167 -102.5 -269t-246.5 -102q-137 0 -233 91t-96 233q0 162 118.5 279t277.5 117q136 0 227 -85l-75 -73q-64 54 -152 54q-113 0 -198 -83.5t-85 -206.5q0 -96 65.5 -159t158.5 -63q87 0 148 44t82 130h-188z" />
    <glyph glyph-name="H" unicode="H" horiz-adv-x="660" 
d="M511 700h110l-74 -700h-110l31 296h-324l-31 -296h-110l74 700h110l-32 -302h324z" />
    <glyph glyph-name="I" unicode="I" horiz-adv-x="226" 
d="M187 700l-74 -700h-110l74 700h110z" />
    <glyph glyph-name="J" unicode="J" horiz-adv-x="519" 
d="M480 700l-49 -467q-13 -125 -87 -185t-165 -60q-134 0 -194 98l74 75q42 -67 118 -67q55 0 95.5 35.5t50.5 120.5l47 450h110z" />
    <glyph glyph-name="K" unicode="K" horiz-adv-x="667" 
d="M460 0l-214 315l-107 -106l-23 -209h-113l74 700h113l-37 -344l342 344h138l-312 -309l265 -391h-126z" />
    <glyph glyph-name="L" unicode="L" horiz-adv-x="498" 
d="M124 102h297l-11 -102h-407l74 700h110z" />
    <glyph glyph-name="M" unicode="M" horiz-adv-x="854" 
d="M815 700l-74 -700h-113l49 450l-258 -450h-93l-161 449l-49 -449h-113l74 700h108l202 -546l318 546h110z" />
    <glyph glyph-name="N" unicode="N" horiz-adv-x="701" 
d="M552 700h110l-74 -700h-83l-338 499l-54 -499h-110l74 700h84l337 -500z" />
    <glyph glyph-name="O" unicode="O" horiz-adv-x="805" 
d="M418 710q136 0 232 -91.5t96 -233.5q0 -162 -118.5 -278.5t-277.5 -116.5q-136 0 -231.5 91t-95.5 233q0 162 118 279t277 117zM357 94q107 0 191 82t84 202q0 99 -64.5 163.5t-156.5 64.5q-107 0 -190.5 -82.5t-83.5 -202.5q0 -99 64 -163t156 -64z" />
    <glyph glyph-name="P" unicode="P" horiz-adv-x="579" 
d="M310 700q116 0 178.5 -65.5t51.5 -170.5q-11 -100 -84 -160t-190 -60h-127l-26 -244h-110l74 700h233zM267 340q69 0 113 34t51 100q7 61 -28.5 92.5t-104.5 31.5h-122l-27 -258h118z" />
    <glyph glyph-name="Q" unicode="Q" horiz-adv-x="805" 
d="M746 385q0 -86 -36 -162t-99 -132l62 -91h-128l-22 32q-82 -42 -173 -42q-136 0 -231.5 91t-95.5 233q0 162 118 279t277 117q136 0 232 -91.5t96 -233.5zM357 94q54 0 108 24l-126 186h128l84 -124q81 83 81 198q0 99 -64.5 163.5t-156.5 64.5q-107 0 -190.5 -82.5
t-83.5 -202.5q0 -99 64 -163t156 -64z" />
    <glyph glyph-name="R" unicode="R" horiz-adv-x="623" 
d="M532 0h-116l-139 244h-138l-26 -244h-110l74 700h233q116 0 178.5 -65.5t51.5 -170.5q-8 -72 -49 -124.5t-110 -77.5zM149 340h118q69 0 113 34t51 100q7 61 -28.5 92.5t-104.5 31.5h-122z" />
    <glyph glyph-name="S" unicode="S" horiz-adv-x="551" 
d="M294 712q81 0 137 -43.5t79 -104.5l-86 -43q-46 93 -137 93q-53 0 -87.5 -27t-34.5 -72q0 -34 20.5 -56t66.5 -40l47 -18q97 -37 143.5 -82.5t46.5 -113.5q0 -100 -78.5 -160t-180.5 -60q-91 0 -155.5 49t-80.5 125l89 40q14 -51 52.5 -82.5t97.5 -31.5q60 0 101.5 31.5
t41.5 86.5q0 39 -26 61.5t-85 45.5l-46 18q-78 30 -120 72.5t-42 111.5q0 89 70 144.5t167 55.5z" />
    <glyph glyph-name="T" unicode="T" horiz-adv-x="557" 
d="M538 700l-11 -102h-183l-63 -598h-110l63 598h-183l11 102h476z" />
    <glyph glyph-name="U" unicode="U" horiz-adv-x="635" 
d="M486 700h110l-47 -448q-13 -124 -93.5 -195.5t-191.5 -71.5q-113 0 -181.5 73.5t-55.5 197.5l47 444h110l-47 -448q-9 -83 29 -123t101 -40q66 0 115 41.5t57 125.5z" />
    <glyph glyph-name="V" unicode="V" horiz-adv-x="760" 
d="M641 700h119l-386 -700h-96l-238 700h115l184 -561z" />
    <glyph glyph-name="W" unicode="W" horiz-adv-x="1008" 
d="M1008 700l-302 -700h-76l-127 502l-233 -502h-76l-154 700h113l104 -480l224 480h82l122 -480l206 480h117z" />
    <glyph glyph-name="X" unicode="X" horiz-adv-x="689" 
d="M602 0h-128l-151 262l-208 -262h-132l283 357l-199 343h128l144 -248l196 248h132l-271 -343z" />
    <glyph glyph-name="Y" unicode="Y" horiz-adv-x="696" 
d="M687 700l-304 -388l-34 -312h-110l34 312l-222 388h123l162 -288l224 288h127z" />
    <glyph glyph-name="Z" unicode="Z" horiz-adv-x="614" 
d="M598 700l-431 -605h370l-10 -95h-549l431 605h-345l10 95h524z" />
    <glyph glyph-name="bracketleft" unicode="[" horiz-adv-x="280" 
d="M259 745l-10 -95h-80l-72 -685h80l-10 -95h-190l92 875h190z" />
    <glyph glyph-name="backslash" unicode="\" horiz-adv-x="528" 
d="M63 745h110l248 -875h-110z" />
    <glyph glyph-name="bracketright" unicode="]" horiz-adv-x="280" 
d="M69 745h190l-92 -875h-190l10 95h80l72 685h-80z" />
    <glyph glyph-name="asciicircum" unicode="^" horiz-adv-x="489" 
d="M295 700l143 -225h-78l-105 124l-134 -124h-82l191 225h65z" />
    <glyph glyph-name="underscore" unicode="_" horiz-adv-x="590" 
d="M490 0l-10 -95h-500l10 95h500z" />
    <glyph glyph-name="grave" unicode="`" horiz-adv-x="209" 
d="M30 700h127l56 -129h-79z" />
    <glyph glyph-name="a" unicode="a" 
d="M294 529q65 0 109.5 -30.5t52.5 -61.5l10 83h108l-55 -520h-108l10 84q-14 -35 -63 -64.5t-113 -29.5q-93 0 -164.5 63.5t-71.5 176.5q0 124 84 211.5t201 87.5zM298 433q-77 0 -129.5 -56t-52.5 -138q0 -73 44 -113t106 -40q71 0 125 53t54 145q0 71 -43.5 110
t-103.5 39z" />
    <glyph glyph-name="b" unicode="b" 
d="M331 529q90 0 161 -64.5t71 -179.5q0 -122 -83.5 -208.5t-201.5 -86.5q-65 0 -111 33.5t-50 64.5l-11 -88h-108l75 707h108l-29 -266q14 31 64 59.5t115 28.5zM274 86q71 0 127.5 53t56.5 143q0 72 -44.5 111.5t-104.5 39.5q-80 0 -130.5 -57.5t-50.5 -142.5
q0 -71 43 -109t103 -38z" />
    <glyph glyph-name="c" unicode="c" horiz-adv-x="558" 
d="M304 529q73 0 128 -33t83 -95l-87 -34q-41 66 -131 66q-74 0 -128.5 -56.5t-54.5 -141.5q0 -71 44 -110t103 -39q86 0 144 70l83 -42q-83 -123 -233 -123q-44 0 -86.5 15.5t-78.5 44t-58.5 76.5t-22.5 107q0 124 87 209.5t208 85.5z" />
    <glyph glyph-name="d" unicode="d" 
d="M486 707h108l-75 -707h-108l10 84q-14 -35 -63 -64.5t-113 -29.5q-93 0 -164.5 63.5t-71.5 176.5q0 124 84 211.5t201 87.5q65 0 109.5 -30.5t52.5 -61.5zM298 433q-77 0 -129.5 -56t-52.5 -138q0 -73 44 -113t106 -40q71 0 125 53t54 145q0 71 -43.5 110t-103.5 39z" />
    <glyph glyph-name="e" unicode="e" horiz-adv-x="595" 
d="M304 529q89 0 161 -60t72 -171q0 -37 -9 -79h-414q4 -67 48 -102.5t110 -35.5q87 0 151 49l54 -58q-77 -82 -212 -82q-103 0 -179.5 64t-76.5 177q0 123 88 210.5t207 87.5zM302 436q-58 0 -109 -36t-69 -102h318q-1 67 -42.5 102.5t-97.5 35.5z" />
    <glyph glyph-name="f" unicode="f" horiz-adv-x="394" 
d="M274 627q-72 0 -81 -79l-3 -28h134l-9 -90h-134l-46 -430h-108l46 430h-62l9 90h62l3 32q18 165 180 165q69 0 120 -33l-42 -73q-35 16 -69 16z" />
    <glyph glyph-name="g" unicode="g" 
d="M466 520h108l-55 -520q-6 -57 -34 -99t-68 -64t-82 -32.5t-84 -10.5q-96 0 -148 36l6 88q46 -33 143 -33q68 0 110.5 32t48.5 83l10 84q-14 -35 -63 -64.5t-113 -29.5q-93 0 -164.5 63.5t-71.5 176.5q0 124 84 211.5t201 87.5q65 0 109.5 -30.5t52.5 -61.5zM298 433
q-77 0 -129.5 -56t-52.5 -138q0 -73 44 -113t106 -40q71 0 125 53t54 145q0 71 -43.5 110t-103.5 39z" />
    <glyph glyph-name="h" unicode="h" horiz-adv-x="585" 
d="M338 528q83 0 135.5 -57t40.5 -171l-32 -300h-108l32 297q8 70 -20 103t-78 33q-60 0 -107.5 -43t-61.5 -90l-33 -300h-108l75 707h108l-32 -295q14 35 66 75.5t123 40.5z" />
    <glyph glyph-name="i" unicode="i" horiz-adv-x="209" 
d="M181 707l-10 -94h-108l10 94h108zM161 520l-55 -520h-108l55 520h108z" />
    <glyph glyph-name="j" unicode="j" horiz-adv-x="236" 
d="M208 707l-10 -94h-108l10 94h108zM188 520l-61 -577q-15 -149 -152 -149q-61 0 -101 27l6 103q35 -20 74 -20q61 0 69 72l57 544h108z" />
    <glyph glyph-name="k" unicode="k" horiz-adv-x="561" 
d="M370 0l-179 222l-67 -61l-18 -161h-108l19 177l56 530h108l-45 -414l236 227h132l-241 -227l231 -293h-124z" />
    <glyph glyph-name="l" unicode="l" horiz-adv-x="209" 
d="M181 707l-75 -707h-108l75 707h108z" />
    <glyph glyph-name="m" unicode="m" horiz-adv-x="947" 
d="M697 528q85 0 138 -58.5t40 -176.5l-31 -293h-108l32 297q7 66 -20 101t-83 35q-57 0 -99 -39.5t-59 -93.5l-32 -300h-108l32 297q7 64 -23 100t-81 36q-59 0 -100.5 -39.5t-56.5 -93.5l-32 -300h-108l55 520h108l-12 -111q9 36 55.5 77.5t117.5 41.5q58 0 106.5 -32.5
t67.5 -92.5q21 45 74 85t127 40z" />
    <glyph glyph-name="n" unicode="n" horiz-adv-x="585" 
d="M338 528q83 0 135.5 -57t40.5 -171l-32 -300h-108l32 297q8 70 -20 103t-78 33q-60 0 -107.5 -43t-61.5 -90l-33 -300h-108l55 520h108l-12 -108q14 35 66 75.5t123 40.5z" />
    <glyph glyph-name="o" unicode="o" horiz-adv-x="609" 
d="M304 529q94 0 170 -65t76 -179q0 -124 -87 -209.5t-208 -85.5q-94 0 -170 65t-76 179q0 124 87 209.5t208 85.5zM262 86q71 0 127 53t56 143q0 71 -45 111t-103 40q-71 0 -127 -53t-56 -143q0 -71 45 -111t103 -40z" />
    <glyph glyph-name="p" unicode="p" 
d="M327 529q100 0 173.5 -73.5t60.5 -200.5q-5 -52 -25.5 -96t-49 -74.5t-64 -52.5t-72 -32t-72.5 -10q-66 0 -110 31t-51 67l-31 -278h-108l34 317l41 393h108l-9 -79q14 31 63 59.5t112 28.5zM266 86q68 0 125.5 47.5t65.5 131.5q8 79 -36.5 123.5t-109.5 44.5
q-67 0 -120.5 -47t-62.5 -131q-9 -81 32.5 -125t105.5 -44z" />
    <glyph glyph-name="q" unicode="q" 
d="M466 520h108l-55 -520l-20 -190h-108l30 274q-14 -35 -63 -64.5t-113 -29.5q-93 0 -164.5 63.5t-71.5 176.5q0 124 84 211.5t201 87.5q65 0 109.5 -30.5t52.5 -61.5zM261 86q73 0 128.5 53.5t55.5 149.5q0 69 -40 106.5t-99 37.5q-81 0 -136.5 -58t-55.5 -142
q0 -69 43.5 -108t103.5 -39z" />
    <glyph glyph-name="r" unicode="r" horiz-adv-x="403" 
d="M345 528q20 0 36 -3l-11 -102q-11 2 -27 2q-76 0 -135 -50t-76 -132l-26 -243h-108l55 520h108l-15 -131q24 61 77 100t122 39z" />
    <glyph glyph-name="s" unicode="s" horiz-adv-x="442" 
d="M291 383q-21 59 -81 59q-34 0 -55.5 -19t-21.5 -47q0 -39 51 -58l55 -20q67 -25 101.5 -54.5t34.5 -85.5q0 -79 -62 -123.5t-144 -44.5q-74 0 -126.5 39t-60.5 104l88 22q17 -78 102 -78q39 0 67.5 21t28.5 54q0 40 -58 62l-57 21q-125 46 -125 141q0 66 53 109.5
t128 43.5q68 0 112 -33.5t60 -91.5z" />
    <glyph glyph-name="t" unicode="t" horiz-adv-x="351" 
d="M308 430h-110l-31 -293q-5 -48 35 -48q30 0 72 13l-9 -90q-35 -18 -95 -18q-126 0 -111 143l31 293h-72l9 90h72l13 122h108l-13 -122h110z" />
    <glyph glyph-name="u" unicode="u" horiz-adv-x="579" 
d="M194 -8q-84 0 -137 57.5t-41 171.5l31 299h108l-31 -297q-15 -136 95 -136q60 0 108 43.5t63 89.5l33 300h108l-55 -520h-108l13 108q-16 -36 -66.5 -76t-120.5 -40z" />
    <glyph glyph-name="v" unicode="v" horiz-adv-x="606" 
d="M583 521l-287 -521h-92l-177 521h106l130 -386l210 386h110z" />
    <glyph glyph-name="w" unicode="w" horiz-adv-x="938" 
d="M805 521h110l-250 -521h-99l-108 395l-192 -395h-99l-140 521h106l98 -386l190 386h96l110 -386z" />
    <glyph glyph-name="x" unicode="x" horiz-adv-x="584" 
d="M375 0l-116 187l-158 -187h-127l229 266l-157 254h121l105 -175l143 175h125l-213 -254l171 -266h-123z" />
    <glyph glyph-name="y" unicode="y" horiz-adv-x="606" 
d="M473 521h110l-392 -711h-110l117 208l-171 503h106l130 -386z" />
    <glyph glyph-name="z" unicode="z" horiz-adv-x="527" 
d="M503 520l-346 -425h288l-10 -95h-466l346 425h-274l10 95h452z" />
    <glyph glyph-name="braceleft" unicode="{" horiz-adv-x="315" 
d="M294 745l-10 -95h-33q-16 0 -28 -9.5t-13 -24.5l-24 -242l-58 -68l42 -66l-25 -245q-3 -30 30 -30h37l-10 -95h-80q-40 0 -67.5 24t-22.5 77l29 264l-38 71l51 73l29 269q6 52 37 74.5t70 22.5h84z" />
    <glyph glyph-name="bar" unicode="|" horiz-adv-x="245" 
d="M199 800l-104 -990h-95l104 990h95z" />
    <glyph glyph-name="braceright" unicode="}" horiz-adv-x="315" 
d="M69 745h80q39 0 66.5 -24.5t22.5 -76.5l-29 -265l39 -73l-52 -71l-29 -268q-5 -52 -35.5 -74.5t-70.5 -22.5h-84l10 95h33q16 0 27.5 9.5t12.5 24.5l25 241l58 66l-42 68l25 246q3 30 -30 30h-37z" />
    <glyph glyph-name="asciitilde" unicode="~" horiz-adv-x="506" 
d="M145 364q45 0 103 -35t91 -35q21 0 38 11t19 23l44 -4q-5 -52 -38.5 -83.5t-87.5 -31.5q-44 0 -103 39t-95 39q-21 0 -38 -13.5t-18 -28.5l-43 4q5 52 38.5 83.5t89.5 31.5z" />
    <glyph glyph-name="exclamdown" unicode="&#xa1;" horiz-adv-x="241" 
d="M117 525q30 0 47 -18.5t13 -49.5q-3 -26 -20.5 -42t-44.5 -16q-30 0 -47 18.5t-13 49.5q3 26 20.5 42t44.5 16zM-14 -180l52 490h123l-52 -490h-123z" />
    <glyph glyph-name="cent" unicode="&#xa2;" horiz-adv-x="559" 
d="M295 178q72 10 120 69l83 -42q-77 -114 -213 -122l-9 -83h-55l9 84q-86 12 -148.5 75t-62.5 166q0 116 78 199.5t189 94.5l9 81h55l-9 -81q133 -13 184 -127l-87 -34q-34 56 -107 65zM124 326q0 -61 33 -98.5t83 -47.5l36 341q-64 -12 -108 -66t-44 -129z" />
    <glyph glyph-name="sterling" unicode="&#xa3;" horiz-adv-x="589" 
d="M537 475h-106l3 25q4 44 -26 77.5t-88 33.5q-62 0 -101 -38t-39 -96q0 -40 30 -115l162 2l-9 -84l-127 -2q1 -6 1 -21q0 -45 -26 -91.5t-65 -71.5l342 1l-10 -95h-478l8 96q52 32 88.5 75t36.5 87q0 16 -1 24l-97 -2l9 84l64 2q-31 70 -31 126q0 95 73.5 155t176.5 60
q97 0 155 -50t58 -134q0 -18 -3 -48z" />
    <glyph glyph-name="currency" unicode="&#xa4;" horiz-adv-x="551" 
d="M495 471q-6 -58 -39 -106l41 -44l-76 -70l-38 41q-60 -40 -131 -40q-70 0 -124 41l-46 -42l-66 70l50 46q-25 55 -18 114q6 61 42 110l-41 44l76 70l39 -42q60 37 127 37q71 0 124 -40l49 45l66 -70l-54 -50q25 -52 19 -114zM138 471q-5 -46 24.5 -87t90.5 -41
q64 0 106 44t47 94q4 46 -26.5 87t-90.5 41q-64 0 -105 -44t-46 -94z" />
    <glyph glyph-name="yen" unicode="&#xa5;" horiz-adv-x="696" 
d="M383 312l-4 -31h114l-8 -74h-114l-6 -57h114l-8 -74h-114l-8 -76h-110l8 76h-114l8 74h114l6 57h-114l8 74h114l4 31l-222 388h123l162 -288l224 288h127z" />
    <glyph glyph-name="brokenbar" unicode="&#xa6;" horiz-adv-x="245" 
d="M199 800l-29 -280h-95l29 280h95zM125 90l-30 -280h-95l30 280h95z" />
    <glyph glyph-name="section" unicode="&#xa7;" horiz-adv-x="576" 
d="M314 744q101 0 164.5 -59t72.5 -139l-121 -30q7 44 -26 80.5t-94 36.5q-51 0 -85.5 -24.5t-38.5 -64.5q-4 -33 14 -53t60 -34l71 -25q197 -64 180 -223q-5 -49 -42 -97q27 -47 21 -109q-9 -88 -92 -143t-178 -55q-98 0 -164 59t-77 152l115 31q4 -60 38.5 -95.5
t91.5 -35.5q58 0 101 26t48 71q4 41 -19.5 64t-67.5 39l-87 30q-167 56 -152 198q4 48 43 102q-28 50 -21 108q8 82 80 136t165 54zM176 370q-10 -14 -13 -36q-6 -62 76 -85l70 -25q46 -15 81 -32q3 13 4 27q9 73 -86 106l-88 28q-5 2 -21 8.5t-23 8.5z" />
    <glyph glyph-name="dieresis" unicode="&#xa8;" horiz-adv-x="354" 
d="M131 700l-10 -92h-112l10 92h112zM373 700l-10 -92h-112l10 92h112z" />
    <glyph glyph-name="copyright" unicode="&#xa9;" horiz-adv-x="787" 
d="M409 707q129 0 224 -91t95 -232q0 -160 -112.5 -275.5t-273.5 -115.5q-129 0 -224 90.5t-95 231.5q0 161 112.5 276.5t273.5 115.5zM344 88q122 0 205.5 88t83.5 208q0 99 -66.5 163.5t-159.5 64.5q-118 0 -203.5 -84t-85.5 -212q0 -99 66.5 -163.5t159.5 -64.5zM370 244
q45 0 79 31l51 -67q-52 -55 -135 -55q-73 0 -125 50t-52 128q0 92 64.5 154t146.5 62q83 0 129 -59l-59 -59q-24 27 -69 27q-44 0 -81.5 -36t-37.5 -85q0 -38 26.5 -64.5t62.5 -26.5z" />
    <glyph glyph-name="ordfeminine" unicode="&#xaa;" horiz-adv-x="404" 
d="M205 712q145 0 130 -156l-10 -96q-4 -30 -0.5 -45t16.5 -37l-74 4q-12 16 -12 41q-41 -46 -98 -46q-61 0 -94.5 28.5t-28.5 80.5q5 45 44 68t97 28l84 9q3 27 -12 41.5t-41 14.5q-55 0 -107 -40l-35 48q55 57 141 57zM253 530l-80 -9q-59 -6 -64 -45q-2 -15 9.5 -25
t37.5 -10q32 0 56 18.5t37 40.5z" />
    <glyph glyph-name="guillemotleft" unicode="&#xab;" horiz-adv-x="357" 
d="M23 373l141 103l-6 -76l-101 -102l78 -103l-6 -76l-120 103zM190 373l141 103l-6 -76l-101 -102l78 -103l-6 -76l-120 103z" />
    <glyph glyph-name="logicalnot" unicode="&#xac;" horiz-adv-x="505" 
d="M437 302l-18 -174h-110l9 84h-305l9 90h415z" />
    <glyph glyph-name="uni00AD" unicode="&#xad;" horiz-adv-x="400" 
d="M334 322l-9 -90h-310l9 90h310z" />
    <glyph glyph-name="registered" unicode="&#xae;" horiz-adv-x="787" 
d="M409 707q129 0 224 -91t95 -232q0 -160 -112.5 -275.5t-273.5 -115.5q-129 0 -224 90.5t-95 231.5q0 161 112.5 276.5t273.5 115.5zM344 88q122 0 205.5 88t83.5 208q0 99 -66.5 163.5t-159.5 64.5q-118 0 -203.5 -84t-85.5 -212q0 -99 66.5 -163.5t159.5 -64.5zM385 535
q64 0 99.5 -34t30.5 -85q-9 -78 -86 -109l80 -134h-75l-75 132h-47l-13 -132h-70l38 362h118zM389 473h-61l-12 -110h57q65 0 72 60q2 24 -12.5 37t-43.5 13z" />
    <glyph glyph-name="macron" unicode="&#xaf;" horiz-adv-x="372" 
d="M391 700l-10 -90h-372l10 90h372z" />
    <glyph glyph-name="degree" unicode="&#xb0;" horiz-adv-x="288" 
d="M188 719q54 0 87.5 -37t27.5 -91q-5 -50 -43.5 -84t-88.5 -34q-54 0 -87.5 37t-27.5 91q5 50 43.5 84t88.5 34zM185 647q-23 0 -39.5 -16t-17.5 -40q-1 -19 12.5 -32.5t33.5 -13.5q23 0 39.5 16t17.5 40q1 19 -12.5 32.5t-33.5 13.5z" />
    <glyph glyph-name="plusminus" unicode="&#xb1;" horiz-adv-x="421" 
d="M231 332h127l-9 -90h-127l-13 -118h-90l13 118h-118l9 90h118l14 127h90zM-12 1l10 90h335l-10 -90h-335z" />
    <glyph glyph-name="uni00B2" unicode="&#xb2;" horiz-adv-x="260" 
d="M145 704q35 0 58 -23.5t20 -53.5q-3 -26 -19.5 -47t-58.5 -60l-53 -48h118l-3 -32h-168l3 32l74 70q5 4 14 12.5t12 11.5t10 9.5t9 9.5t7 8t6.5 7.5t4 7t3.5 7.5l2.5 7.5t1.5 8.5q1 18 -10.5 30t-29.5 12q-20 0 -36 -13.5t-18 -37.5l-2 -13h-37l2 15q4 35 30 57.5
t60 22.5z" />
    <glyph glyph-name="uni00B3" unicode="&#xb3;" horiz-adv-x="262" 
d="M145 703q33 0 55.5 -21t19.5 -49q-3 -32 -36 -52q17 -7 27.5 -24.5t7.5 -42.5q-3 -33 -32 -55.5t-66 -22.5q-41 0 -64.5 27.5t-18.5 64.5l38 -2q-3 -24 9 -41t35 -17t41.5 14t20.5 36q3 26 -14.5 36t-53.5 10l1 29q64 0 68 44q1 15 -9.5 25t-27.5 10q-22 0 -37 -14.5
t-18 -41.5l-37 2q4 38 29.5 61.5t61.5 23.5z" />
    <glyph glyph-name="acute" unicode="&#xb4;" horiz-adv-x="199" 
d="M219 700l-132 -129h-83l84 129h131z" />
    <glyph glyph-name="uni00B5" unicode="&#xb5;" horiz-adv-x="580" 
d="M424 520h108l-55 -520h-108l13 108q-16 -36 -66.5 -76t-120.5 -40q-51 0 -90 21l-24 -203h-108l75 710h108l-31 -297q-15 -136 95 -136q60 0 108 43.5t63 89.5z" />
    <glyph glyph-name="paragraph" unicode="&#xb6;" horiz-adv-x="840" 
d="M84 474q11 101 85 163.5t190 62.5h237l-74 -700h-110l26 244h-123q-117 0 -179.5 63t-51.5 167zM679 700h110l-74 -700h-110zM475 598h-118q-69 0 -113 -34t-51 -100q-7 -61 28.5 -92.5t104.5 -31.5h122z" />
    <glyph glyph-name="periodcentered" unicode="&#xb7;" horiz-adv-x="226" 
d="M70 214q-30 0 -46.5 18.5t-13.5 49.5q3 26 20.5 42t44.5 16q30 0 46.5 -18.5t13.5 -49.5q-3 -26 -20.5 -42t-44.5 -16z" />
    <glyph glyph-name="cedilla" unicode="&#xb8;" horiz-adv-x="193" 
d="M40 -44q37 -5 62.5 -28.5t21.5 -59.5q-5 -53 -63 -75.5t-136 -3.5l9 29q43 -8 72.5 11t32.5 49q2 22 -18 33.5t-48 -3.5l-34 33l43 59h112z" />
    <glyph glyph-name="uni00B9" unicode="&#xb9;" horiz-adv-x="202" 
d="M146 701l-27 -261h-37l24 221l-18 -11l-16 31l37 20h37z" />
    <glyph glyph-name="ordmasculine" unicode="&#xba;" horiz-adv-x="387" 
d="M212 705q61 0 106.5 -46t37.5 -121q-7 -71 -59.5 -114.5t-110.5 -43.5q-62 0 -108 46t-38 122q8 71 60.5 114t111.5 43zM212 631q-35 0 -65 -25.5t-34 -67.5q-4 -39 18 -61.5t54 -22.5q35 0 64.5 25.5t33.5 68.5q4 38 -17.5 60.5t-53.5 22.5z" />
    <glyph glyph-name="guillemotright" unicode="&#xbb;" horiz-adv-x="359" 
d="M136 373l-14 -151l-142 -103l6 76l102 103l-79 102l6 76zM303 373l-14 -151l-142 -103l6 76l102 103l-79 102l6 76z" />
    <glyph glyph-name="onequarter" unicode="&#xbc;" horiz-adv-x="570" 
d="M120 701l-27 -261h-37l23 221l-17 -11l-16 31l37 20h37zM523 700l-504 -700h-48l510 700h42zM491 261l-16 -154h27l-4 -31h-27l-8 -76h-37l8 76h-132l152 185h37zM448 202l-75 -95h65z" />
    <glyph glyph-name="onehalf" unicode="&#xbd;" horiz-adv-x="545" 
d="M120 701l-27 -261h-37l23 221l-17 -11l-16 31l37 20h37zM523 700l-504 -700h-48l510 700h42zM404 264q35 0 58 -23.5t20 -53.5q-3 -26 -19.5 -47t-58.5 -60l-53 -48h118l-4 -32h-168l4 32l74 70q53 50 61 65q7 11 8 24q2 18 -9.5 30t-29.5 12q-20 0 -36 -13.5t-19 -37.5
l-1 -13h-37l2 15q4 35 30 57.5t60 22.5z" />
    <glyph glyph-name="threequarters" unicode="&#xbe;" horiz-adv-x="587" 
d="M134 703q33 0 55 -21t19 -49q-3 -32 -35 -52q39 -17 35 -67q-4 -33 -33 -55.5t-66 -22.5q-41 0 -64.5 27.5t-18.5 64.5l38 -2q-2 -24 10 -41t35 -17t41 14t20 36q3 26 -14.5 36t-53.5 10l1 29q64 0 69 44q1 15 -10 25t-28 10q-22 0 -37 -14.5t-18 -41.5l-36 2
q3 38 29 61.5t62 23.5zM550 700l-503 -700h-48l509 700h42zM508 261l-16 -154h27l-3 -31h-27l-8 -76h-37l8 76h-132l151 185h37zM465 202l-75 -95h65z" />
    <glyph glyph-name="questiondown" unicode="&#xbf;" horiz-adv-x="532" 
d="M243 525q30 0 47 -18.5t13 -49.5q-3 -26 -20.5 -42t-44.5 -16q-30 0 -47 18.5t-13 49.5q3 26 20.5 42t44.5 16zM200 -187q-97 0 -158.5 58t-51.5 153q4 42 24 73.5t45.5 51t51 38.5t44.5 47.5t22 66.5l1 12h111l-1 -15q-3 -47 -22.5 -82t-46 -56.5t-52.5 -40.5t-46 -45.5
t-23 -59.5q-4 -41 23 -73.5t83 -32.5q58 0 93.5 37t41.5 90h109q-10 -104 -80 -163t-168 -59z" />
    <glyph glyph-name="Agrave" unicode="&#xc0;" horiz-adv-x="755" 
d="M450 751h-79l-104 129h127zM568 0l-48 148h-358l-80 -148h-119l386 700h96l238 -700h-115zM211 239h278l-105 322z" />
    <glyph glyph-name="Aacute" unicode="&#xc1;" horiz-adv-x="755" 
d="M576 880l-132 -129h-83l84 129h131zM568 0l-48 148h-358l-80 -148h-119l386 700h96l238 -700h-115zM211 239h278l-105 322z" />
    <glyph glyph-name="Acircumflex" unicode="&#xc2;" horiz-adv-x="755" 
d="M414 839l-113 -90h-78l117 131h151l89 -131h-74zM568 0l-48 148h-358l-80 -148h-119l386 700h96l238 -700h-115zM211 239h278l-105 322z" />
    <glyph glyph-name="Atilde" unicode="&#xc3;" horiz-adv-x="755" 
d="M320 840q-21 0 -38 -13t-18 -28l-43 4q5 51 37 83t81 32q41 0 92 -34.5t73 -34.5q21 0 37.5 10.5t18.5 22.5l45 -4q-5 -51 -37 -83t-79 -32q-32 0 -63 19.5t-57.5 38.5t-48.5 19zM568 0l-48 148h-358l-80 -148h-119l386 700h96l238 -700h-115zM211 239h278l-105 322z" />
    <glyph glyph-name="Adieresis" unicode="&#xc4;" horiz-adv-x="755" 
d="M352 880l-10 -92h-112l10 92h112zM594 880l-10 -92h-112l10 92h112zM568 0l-48 148h-358l-80 -148h-119l386 700h96l238 -700h-115zM211 239h278l-105 322z" />
    <glyph glyph-name="Aring" unicode="&#xc5;" horiz-adv-x="755" 
d="M410 769q-45 0 -73 31t-23 74q5 40 36.5 68t72.5 28q42 0 69.5 -31.5t23.5 -74.5q-4 -38 -35.5 -66.5t-70.5 -28.5zM422 902q-14 0 -26 -10.5t-13 -26.5q-1 -11 6.5 -18.5t18.5 -7.5q14 0 26 10.5t13 25.5q1 11 -6.5 19t-18.5 8zM568 0l-48 148h-358l-80 -148h-119
l386 700h96l238 -700h-115zM211 239h278l-105 322z" />
    <glyph glyph-name="AE" unicode="&#xc6;" horiz-adv-x="974" 
d="M570 102h317l-11 -102h-427l21 201h-224l-158 -201h-125l553 700h123h302l-11 -102h-308l-20 -196h237l-11 -100h-237zM321 296h159l26 234z" />
    <glyph glyph-name="Ccedilla" unicode="&#xc7;" horiz-adv-x="671" 
d="M334 -44q37 -5 62.5 -28.5t21.5 -59.5q-5 -53 -63 -75.5t-136 -3.5l9 29q43 -8 72.5 11t32.5 49q2 22 -18 33.5t-48 -3.5l-34 33l44 56q-120 26 -193.5 124t-58.5 234q11 101 70 183.5t145 127t179 44.5q136 0 227 -85l-72 -73q-64 54 -151 54q-106 0 -189.5 -74.5
t-95.5 -186.5q-12 -108 54 -179.5t169 -71.5q92 0 170 60l63 -81q-90 -73 -215 -82z" />
    <glyph glyph-name="Egrave" unicode="&#xc8;" horiz-adv-x="528" 
d="M347 751h-79l-104 129h127zM124 102h317l-11 -102h-427l74 700h418l-11 -102h-308l-20 -196h237l-11 -100h-237z" />
    <glyph glyph-name="Eacute" unicode="&#xc9;" horiz-adv-x="528" 
d="M473 880l-132 -129h-83l84 129h131zM124 102h317l-11 -102h-427l74 700h418l-11 -102h-308l-20 -196h237l-11 -100h-237z" />
    <glyph glyph-name="Ecircumflex" unicode="&#xca;" horiz-adv-x="528" 
d="M311 839l-113 -90h-78l117 131h151l89 -131h-74zM124 102h317l-11 -102h-427l74 700h418l-11 -102h-308l-20 -196h237l-11 -100h-237z" />
    <glyph glyph-name="Edieresis" unicode="&#xcb;" horiz-adv-x="528" 
d="M249 880l-10 -92h-112l10 92h112zM491 880l-10 -92h-112l10 92h112zM124 102h317l-11 -102h-427l74 700h418l-11 -102h-308l-20 -196h237l-11 -100h-237z" />
    <glyph glyph-name="Igrave" unicode="&#xcc;" horiz-adv-x="230" 
d="M3 880h127l56 -129h-79zM189 700l-74 -700h-110l74 700h110z" />
    <glyph glyph-name="Iacute" unicode="&#xcd;" horiz-adv-x="230" 
d="M312 880l-132 -129h-83l84 129h131zM189 700l-74 -700h-110l74 700h110z" />
    <glyph glyph-name="Icircumflex" unicode="&#xce;" horiz-adv-x="230" 
d="M227 880l89 -131h-74l-92 90l-113 -90h-78l117 131h151zM189 700l-74 -700h-110l74 700h110z" />
    <glyph glyph-name="Idieresis" unicode="&#xcf;" horiz-adv-x="230" 
d="M88 880l-10 -92h-112l10 92h112zM330 880l-10 -92h-112l10 92h112zM189 700l-74 -700h-110l74 700h110z" />
    <glyph glyph-name="Eth" unicode="&#xd0;" horiz-adv-x="736" 
d="M359 700q151 0 242.5 -102.5t76.5 -250.5q-16 -146 -127 -246.5t-262 -100.5h-228l32 300h-58l9 90h58l33 310h224zM295 104q112 0 186 72.5t86 180.5q11 101 -47 170t-169 69h-117l-22 -206h142l-9 -90h-142l-21 -196h113z" />
    <glyph glyph-name="Ntilde" unicode="&#xd1;" horiz-adv-x="701" 
d="M311 918q41 0 92 -34.5t73 -34.5q21 0 37.5 10.5t18.5 22.5l45 -4q-5 -51 -37 -83t-79 -32q-32 0 -63 19.5t-57.5 38.5t-48.5 19q-21 0 -38 -13t-18 -28l-43 4q5 51 37 83t81 32zM552 700h110l-74 -700h-83l-338 499l-54 -499h-110l74 700h84l337 -500z" />
    <glyph glyph-name="Ograve" unicode="&#xd2;" horiz-adv-x="805" 
d="M289 880h127l56 -129h-79zM418 710q147 0 244.5 -104t81.5 -261q-11 -101 -70 -183.5t-145 -127t-179 -44.5q-95 0 -173 45.5t-120.5 130.5t-31.5 189q11 101 69.5 183.5t144.5 127t179 44.5zM353 94q101 0 183.5 74.5t94.5 186.5q11 108 -53.5 179.5t-162.5 71.5
q-101 0 -183 -74.5t-94 -186.5q-12 -108 52.5 -179.5t162.5 -71.5z" />
    <glyph glyph-name="Oacute" unicode="&#xd3;" horiz-adv-x="805" 
d="M598 880l-132 -129h-83l84 129h131zM418 710q147 0 244.5 -104t81.5 -261q-11 -101 -70 -183.5t-145 -127t-179 -44.5q-95 0 -173 45.5t-120.5 130.5t-31.5 189q11 101 69.5 183.5t144.5 127t179 44.5zM353 94q101 0 183.5 74.5t94.5 186.5q11 108 -53.5 179.5
t-162.5 71.5q-101 0 -183 -74.5t-94 -186.5q-12 -108 52.5 -179.5t162.5 -71.5z" />
    <glyph glyph-name="Ocircumflex" unicode="&#xd4;" horiz-adv-x="805" 
d="M513 880l89 -131h-74l-92 90l-113 -90h-78l117 131h151zM418 710q147 0 244.5 -104t81.5 -261q-11 -101 -70 -183.5t-145 -127t-179 -44.5q-95 0 -173 45.5t-120.5 130.5t-31.5 189q11 101 69.5 183.5t144.5 127t179 44.5zM353 94q101 0 183.5 74.5t94.5 186.5
q11 108 -53.5 179.5t-162.5 71.5q-101 0 -183 -74.5t-94 -186.5q-12 -108 52.5 -179.5t162.5 -71.5z" />
    <glyph glyph-name="Otilde" unicode="&#xd5;" horiz-adv-x="805" 
d="M361 918q41 0 92 -34.5t73 -34.5q21 0 37.5 10.5t18.5 22.5l45 -4q-5 -51 -37 -83t-79 -32q-32 0 -63 19.5t-57.5 38.5t-48.5 19q-21 0 -38 -13t-18 -28l-43 4q5 51 37 83t81 32zM418 710q147 0 244.5 -104t81.5 -261q-11 -101 -70 -183.5t-145 -127t-179 -44.5
q-95 0 -173 45.5t-120.5 130.5t-31.5 189q11 101 69.5 183.5t144.5 127t179 44.5zM353 94q101 0 183.5 74.5t94.5 186.5q11 108 -53.5 179.5t-162.5 71.5q-101 0 -183 -74.5t-94 -186.5q-12 -108 52.5 -179.5t162.5 -71.5z" />
    <glyph glyph-name="Odieresis" unicode="&#xd6;" horiz-adv-x="805" 
d="M374 880l-10 -92h-112l10 92h112zM616 880l-10 -92h-112l10 92h112zM418 710q147 0 244.5 -104t81.5 -261q-11 -101 -70 -183.5t-145 -127t-179 -44.5q-95 0 -173 45.5t-120.5 130.5t-31.5 189q11 101 69.5 183.5t144.5 127t179 44.5zM353 94q101 0 183.5 74.5
t94.5 186.5q11 108 -53.5 179.5t-162.5 71.5q-101 0 -183 -74.5t-94 -186.5q-12 -108 52.5 -179.5t162.5 -71.5z" />
    <glyph glyph-name="multiply" unicode="&#xd7;" horiz-adv-x="373" 
d="M339 369l-96 -87l77 -86l-71 -64l-77 86l-95 -86l-57 63l96 87l-79 88l71 63l78 -87l96 87z" />
    <glyph glyph-name="Oslash" unicode="&#xd8;" horiz-adv-x="805" 
d="M618 645q67 -48 101 -126t25 -174q-11 -101 -70 -183.5t-145 -127t-179 -44.5q-51 0 -101 16l-34 -56h-124l62 102q-68 49 -103 128t-25 175q11 101 69.5 183.5t144.5 127t179 44.5q56 0 105 -17l32 52h124zM138 345q-13 -121 69 -197l265 451q-27 7 -57 7
q-101 0 -183 -74.5t-94 -186.5zM353 94q101 0 183.5 74.5t94.5 186.5q12 121 -67 194l-264 -449q20 -6 53 -6z" />
    <glyph glyph-name="Ugrave" unicode="&#xd9;" horiz-adv-x="635" 
d="M214 880h127l56 -129h-79zM486 700h110l-47 -448q-13 -124 -93.5 -195.5t-191.5 -71.5q-113 0 -181.5 73.5t-55.5 197.5l47 444h110l-47 -448q-9 -83 29 -123t101 -40q66 0 115 41.5t57 125.5z" />
    <glyph glyph-name="Uacute" unicode="&#xda;" horiz-adv-x="635" 
d="M523 880l-132 -129h-83l84 129h131zM486 700h110l-47 -448q-13 -124 -93.5 -195.5t-191.5 -71.5q-113 0 -181.5 73.5t-55.5 197.5l47 444h110l-47 -448q-9 -83 29 -123t101 -40q66 0 115 41.5t57 125.5z" />
    <glyph glyph-name="Ucircumflex" unicode="&#xdb;" horiz-adv-x="635" 
d="M438 880l89 -131h-74l-92 90l-113 -90h-78l117 131h151zM486 700h110l-47 -448q-13 -124 -93.5 -195.5t-191.5 -71.5q-113 0 -181.5 73.5t-55.5 197.5l47 444h110l-47 -448q-9 -83 29 -123t101 -40q66 0 115 41.5t57 125.5z" />
    <glyph glyph-name="Udieresis" unicode="&#xdc;" horiz-adv-x="635" 
d="M299 880l-10 -92h-112l10 92h112zM541 880l-10 -92h-112l10 92h112zM486 700h110l-47 -448q-13 -124 -93.5 -195.5t-191.5 -71.5q-113 0 -181.5 73.5t-55.5 197.5l47 444h110l-47 -448q-9 -83 29 -123t101 -40q66 0 115 41.5t57 125.5z" />
    <glyph glyph-name="Yacute" unicode="&#xdd;" horiz-adv-x="696" 
d="M546 880l-132 -129h-83l84 129h131zM687 700l-304 -388l-34 -312h-110l34 312l-222 388h123l162 -288l224 288h127z" />
    <glyph glyph-name="Thorn" unicode="&#xde;" horiz-adv-x="623" 
d="M321 565q124 0 192.5 -60.5t58.5 -157.5q-10 -99 -88 -153.5t-204 -54.5h-152l-15 -139h-110l74 700h110l-14 -135h148zM288 234q79 0 123 24t52 99q7 65 -31.5 89t-114.5 24h-154l-25 -236h150z" />
    <glyph glyph-name="germandbls" unicode="&#xdf;" horiz-adv-x="625" 
d="M319 700q110 0 173.5 -48.5t54.5 -138.5q-5 -52 -39 -86t-83 -44q69 -10 103.5 -59t26.5 -121q-22 -203 -295 -203h-69l10 95h67q165 0 178 123q6 61 -38 87.5t-123 26.5h-59l10 89h55q72 0 107 23t40 75q4 43 -28.5 64.5t-92.5 21.5q-75 0 -111.5 -28.5t-43.5 -92.5
l-51 -484h-108l52 488q11 108 79.5 160t184.5 52z" />
    <glyph glyph-name="agrave" unicode="&#xe0;" 
d="M214 700h127l56 -129h-79zM294 529q65 0 109.5 -30.5t52.5 -61.5l10 83h108l-55 -520h-108l10 84q-14 -35 -63 -64.5t-113 -29.5q-93 0 -164.5 63.5t-71.5 176.5q0 124 84 211.5t201 87.5zM298 433q-77 0 -129.5 -56t-52.5 -138q0 -73 44 -113t106 -40q71 0 125 53
t54 145q0 71 -43.5 110t-103.5 39z" />
    <glyph glyph-name="aacute" unicode="&#xe1;" 
d="M523 700l-132 -129h-83l84 129h131zM294 529q65 0 109.5 -30.5t52.5 -61.5l10 83h108l-55 -520h-108l10 84q-14 -35 -63 -64.5t-113 -29.5q-93 0 -164.5 63.5t-71.5 176.5q0 124 84 211.5t201 87.5zM298 433q-77 0 -129.5 -56t-52.5 -138q0 -73 44 -113t106 -40
q71 0 125 53t54 145q0 71 -43.5 110t-103.5 39z" />
    <glyph glyph-name="acircumflex" unicode="&#xe2;" 
d="M438 700l89 -131h-74l-92 90l-113 -90h-78l117 131h151zM294 529q65 0 109.5 -30.5t52.5 -61.5l10 83h108l-55 -520h-108l10 84q-14 -35 -63 -64.5t-113 -29.5q-93 0 -164.5 63.5t-71.5 176.5q0 124 84 211.5t201 87.5zM298 433q-77 0 -129.5 -56t-52.5 -138
q0 -73 44 -113t106 -40q71 0 125 53t54 145q0 71 -43.5 110t-103.5 39z" />
    <glyph glyph-name="atilde" unicode="&#xe3;" 
d="M286 738q41 0 92 -34.5t73 -34.5q21 0 37.5 10.5t18.5 22.5l45 -4q-5 -51 -37 -83t-79 -32q-32 0 -63 19.5t-57.5 38.5t-48.5 19q-21 0 -38 -13t-18 -28l-43 4q5 51 37 83t81 32zM294 529q65 0 109.5 -30.5t52.5 -61.5l10 83h108l-55 -520h-108l10 84q-14 -35 -63 -64.5
t-113 -29.5q-93 0 -164.5 63.5t-71.5 176.5q0 124 84 211.5t201 87.5zM298 433q-77 0 -129.5 -56t-52.5 -138q0 -73 44 -113t106 -40q71 0 125 53t54 145q0 71 -43.5 110t-103.5 39z" />
    <glyph glyph-name="adieresis" unicode="&#xe4;" 
d="M299 700l-10 -92h-112l10 92h112zM541 700l-10 -92h-112l10 92h112zM294 529q65 0 109.5 -30.5t52.5 -61.5l10 83h108l-55 -520h-108l10 84q-14 -35 -63 -64.5t-113 -29.5q-93 0 -164.5 63.5t-71.5 176.5q0 124 84 211.5t201 87.5zM298 433q-77 0 -129.5 -56t-52.5 -138
q0 -73 44 -113t106 -40q71 0 125 53t54 145q0 71 -43.5 110t-103.5 39z" />
    <glyph glyph-name="aring" unicode="&#xe5;" 
d="M370 790q42 0 69.5 -31.5t23.5 -74.5q-4 -38 -35.5 -66.5t-70.5 -28.5q-45 0 -73 31t-23 74q5 40 36.5 68t72.5 28zM369 722q-14 0 -25.5 -10.5t-13.5 -26.5q-1 -11 6.5 -18.5t18.5 -7.5q14 0 26 10.5t13 25.5q1 11 -6.5 19t-18.5 8zM294 529q65 0 109.5 -30.5
t52.5 -61.5l10 83h108l-55 -520h-108l10 84q-14 -35 -63 -64.5t-113 -29.5q-93 0 -164.5 63.5t-71.5 176.5q0 124 84 211.5t201 87.5zM298 433q-77 0 -129.5 -56t-52.5 -138q0 -73 44 -113t106 -40q71 0 125 53t54 145q0 71 -43.5 110t-103.5 39z" />
    <glyph glyph-name="ae" unicode="&#xe6;" horiz-adv-x="1028" 
d="M737 529q47 0 92 -18t83 -55.5t51.5 -96t-2.5 -140.5h-414q5 -67 48 -102t108 -35q83 0 151 50l58 -62q-80 -80 -214 -80q-102 0 -174 58l-5 -48h-108l10 84q-14 -35 -63 -64.5t-113 -29.5q-93 0 -164.5 63.5t-71.5 176.5q0 124 84 211.5t201 87.5q65 0 109.5 -30.5
t52.5 -61.5l10 83h108l-5 -45q81 54 168 54zM735 436q-56 0 -107.5 -36.5t-70.5 -101.5l318 4q-1 64 -43.5 99t-96.5 35zM266 86q71 0 125 53t54 145q0 71 -43.5 110t-103.5 39q-77 0 -129.5 -56t-52.5 -138q0 -73 44 -113t106 -40z" />
    <glyph glyph-name="ccedilla" unicode="&#xe7;" horiz-adv-x="557" 
d="M257 87q89 0 147 69l83 -42q-65 -98 -182 -119l-50 -38q37 -5 62.5 -28.5t22.5 -59.5q-6 -53 -64 -75.5t-136 -3.5l9 29q43 -8 72.5 11t32.5 49q2 22 -18 33.5t-48 -3.5l-34 33l43 56q-85 19 -141.5 88t-45.5 178q9 83 58.5 146t111.5 91t123 28q73 0 128 -33t83 -95
l-85 -34q-42 66 -127 66q-65 0 -122 -47.5t-66 -131.5q-8 -78 36.5 -122.5t106.5 -44.5z" />
    <glyph glyph-name="egrave" unicode="&#xe8;" horiz-adv-x="595" 
d="M345 571h-79l-104 129h127zM304 529q89 0 161 -60t72 -171q0 -37 -9 -79h-414q4 -67 48 -102.5t110 -35.5q87 0 151 49l54 -58q-77 -82 -212 -82q-103 0 -179.5 64t-76.5 177q0 123 88 210.5t207 87.5zM302 436q-58 0 -109 -36t-69 -102h318q-1 67 -42.5 102.5
t-97.5 35.5z" />
    <glyph glyph-name="eacute" unicode="&#xe9;" horiz-adv-x="595" 
d="M471 700l-132 -129h-83l84 129h131zM304 529q89 0 161 -60t72 -171q0 -37 -9 -79h-414q4 -67 48 -102.5t110 -35.5q87 0 151 49l54 -58q-77 -82 -212 -82q-103 0 -179.5 64t-76.5 177q0 123 88 210.5t207 87.5zM302 436q-58 0 -109 -36t-69 -102h318q-1 67 -42.5 102.5
t-97.5 35.5z" />
    <glyph glyph-name="ecircumflex" unicode="&#xea;" horiz-adv-x="595" 
d="M309 659l-113 -90h-78l117 131h151l89 -131h-74zM304 529q89 0 161 -60t72 -171q0 -37 -9 -79h-414q4 -67 48 -102.5t110 -35.5q87 0 151 49l54 -58q-77 -82 -212 -82q-103 0 -179.5 64t-76.5 177q0 123 88 210.5t207 87.5zM302 436q-58 0 -109 -36t-69 -102h318
q-1 67 -42.5 102.5t-97.5 35.5z" />
    <glyph glyph-name="edieresis" unicode="&#xeb;" horiz-adv-x="595" 
d="M247 700l-10 -92h-112l10 92h112zM489 700l-10 -92h-112l10 92h112zM304 529q89 0 161 -60t72 -171q0 -37 -9 -79h-414q4 -67 48 -102.5t110 -35.5q87 0 151 49l54 -58q-77 -82 -212 -82q-103 0 -179.5 64t-76.5 177q0 123 88 210.5t207 87.5zM302 436q-58 0 -109 -36
t-69 -102h318q-1 67 -42.5 102.5t-97.5 35.5z" />
    <glyph glyph-name="igrave" unicode="&#xec;" horiz-adv-x="211" 
d="M-22 700h127l56 -129h-79zM163 520l-55 -520h-108l55 520h108z" />
    <glyph glyph-name="iacute" unicode="&#xed;" horiz-adv-x="216" 
d="M285 700l-132 -129h-83l84 129h131zM161 520l-55 -520h-108l55 520h108z" />
    <glyph glyph-name="icircumflex" unicode="&#xee;" horiz-adv-x="218" 
d="M202 700l89 -131h-74l-92 90l-113 -90h-78l117 131h151zM163 520l-55 -520h-108l55 520h108z" />
    <glyph glyph-name="idieresis" unicode="&#xef;" horiz-adv-x="218" 
d="M63 700l-10 -92h-112l10 92h112zM305 700l-10 -92h-112l10 92h112zM163 520l-55 -520h-108l55 520h108z" />
    <glyph glyph-name="eth" unicode="&#xf0;" horiz-adv-x="584" 
d="M434 580q51 -83 68 -160t6 -173q-13 -123 -92 -190t-186 -67q-103 0 -168 70t-52 197q14 127 86 195t182 68q60 0 87 -25l-40 70l-97 -15l6 54l60 9l-55 87h120l45 -70l95 15l-5 -54zM232 85q65 0 111.5 43t55.5 129q9 87 -24.5 127t-98.5 40q-62 0 -104.5 -43
t-52.5 -134q-8 -80 26.5 -121t86.5 -41z" />
    <glyph glyph-name="ntilde" unicode="&#xf1;" horiz-adv-x="585" 
d="M230 738q41 0 92 -34.5t73 -34.5q21 0 37.5 10.5t18.5 22.5l45 -4q-5 -51 -37 -83t-79 -32q-32 0 -63 19.5t-57.5 38.5t-48.5 19q-21 0 -38 -13t-18 -28l-43 4q5 51 37 83t81 32zM338 528q83 0 135.5 -57t40.5 -171l-32 -300h-108l32 297q8 70 -20 103t-78 33
q-60 0 -107.5 -43t-61.5 -90l-33 -300h-108l55 520h108l-12 -108q14 35 66 75.5t123 40.5z" />
    <glyph glyph-name="ograve" unicode="&#xf2;" horiz-adv-x="608" 
d="M175 700h127l56 -129h-79zM303 529q101 0 179 -74t65 -201q-7 -64 -37.5 -116t-73 -83.5t-90 -48t-92.5 -16.5q-47 0 -92 17.5t-82 50t-57 86.5t-13 120q9 83 58.5 146t111.5 91t123 28zM301 433q-65 0 -121.5 -48t-65.5 -131q-8 -78 36 -123t106 -45q65 0 122 47.5
t65 130.5q8 79 -36 124t-106 45z" />
    <glyph glyph-name="oacute" unicode="&#xf3;" horiz-adv-x="608" 
d="M484 700l-132 -129h-83l84 129h131zM303 529q101 0 179 -74t65 -201q-7 -64 -37.5 -116t-73 -83.5t-90 -48t-92.5 -16.5q-47 0 -92 17.5t-82 50t-57 86.5t-13 120q9 83 58.5 146t111.5 91t123 28zM301 433q-65 0 -121.5 -48t-65.5 -131q-8 -78 36 -123t106 -45
q65 0 122 47.5t65 130.5q8 79 -36 124t-106 45z" />
    <glyph glyph-name="ocircumflex" unicode="&#xf4;" horiz-adv-x="608" 
d="M399 700l89 -131h-74l-92 90l-113 -90h-78l117 131h151zM303 529q101 0 179 -74t65 -201q-7 -64 -37.5 -116t-73 -83.5t-90 -48t-92.5 -16.5q-47 0 -92 17.5t-82 50t-57 86.5t-13 120q9 83 58.5 146t111.5 91t123 28zM301 433q-65 0 -121.5 -48t-65.5 -131
q-8 -78 36 -123t106 -45q65 0 122 47.5t65 130.5q8 79 -36 124t-106 45z" />
    <glyph glyph-name="otilde" unicode="&#xf5;" horiz-adv-x="608" 
d="M247 738q41 0 92 -34.5t73 -34.5q21 0 37.5 10.5t18.5 22.5l45 -4q-5 -51 -37 -83t-79 -32q-32 0 -63 19.5t-57.5 38.5t-48.5 19q-21 0 -38 -13t-18 -28l-43 4q5 51 37 83t81 32zM303 529q101 0 179 -74t65 -201q-7 -64 -37.5 -116t-73 -83.5t-90 -48t-92.5 -16.5
q-47 0 -92 17.5t-82 50t-57 86.5t-13 120q9 83 58.5 146t111.5 91t123 28zM301 433q-65 0 -121.5 -48t-65.5 -131q-8 -78 36 -123t106 -45q65 0 122 47.5t65 130.5q8 79 -36 124t-106 45z" />
    <glyph glyph-name="odieresis" unicode="&#xf6;" horiz-adv-x="608" 
d="M260 700l-10 -92h-112l10 92h112zM502 700l-10 -92h-112l10 92h112zM303 529q101 0 179 -74t65 -201q-7 -64 -37.5 -116t-73 -83.5t-90 -48t-92.5 -16.5q-47 0 -92 17.5t-82 50t-57 86.5t-13 120q9 83 58.5 146t111.5 91t123 28zM301 433q-65 0 -121.5 -48t-65.5 -131
q-8 -78 36 -123t106 -45q65 0 122 47.5t65 130.5q8 79 -36 124t-106 45z" />
    <glyph glyph-name="divide" unicode="&#xf7;" horiz-adv-x="396" 
d="M194 377q-30 0 -47 18.5t-13 49.5q3 26 20.5 42t44.5 16q30 0 47 -18.5t13 -49.5q-3 -26 -20.5 -42t-44.5 -16zM357 322l-9 -90h-335l9 90h335zM162 46q-30 0 -46.5 18.5t-13.5 49.5q2 26 20 42t45 16q30 0 47 -18.5t13 -49.5q-3 -26 -20.5 -42t-44.5 -16z" />
    <glyph glyph-name="oslash" unicode="&#xf8;" horiz-adv-x="608" 
d="M455 479q107 -80 92 -225q-7 -64 -37.5 -116t-73 -83.5t-90 -48t-92.5 -16.5q-33 0 -74 12l-32 -52h-104l56 91q-105 78 -90 223q9 83 58.5 146t111.5 91t123 28q36 0 72 -11l36 60h104zM114 254q-9 -75 35 -124l179 300q-15 3 -27 3q-65 0 -121.5 -48t-65.5 -131z
M256 86q65 0 122 47.5t65 130.5q9 79 -38 127l-178 -302q15 -3 29 -3z" />
    <glyph glyph-name="ugrave" unicode="&#xf9;" horiz-adv-x="579" 
d="M161 700h127l56 -129h-79zM194 -8q-84 0 -137 57.5t-41 171.5l31 299h108l-31 -297q-15 -136 95 -136q60 0 108 43.5t63 89.5l33 300h108l-55 -520h-108l13 108q-16 -36 -66.5 -76t-120.5 -40z" />
    <glyph glyph-name="uacute" unicode="&#xfa;" horiz-adv-x="579" 
d="M470 700l-132 -129h-83l84 129h131zM194 -8q-84 0 -137 57.5t-41 171.5l31 299h108l-31 -297q-15 -136 95 -136q60 0 108 43.5t63 89.5l33 300h108l-55 -520h-108l13 108q-16 -36 -66.5 -76t-120.5 -40z" />
    <glyph glyph-name="ucircumflex" unicode="&#xfb;" horiz-adv-x="579" 
d="M385 700l89 -131h-74l-92 90l-113 -90h-78l117 131h151zM194 -8q-84 0 -137 57.5t-41 171.5l31 299h108l-31 -297q-15 -136 95 -136q60 0 108 43.5t63 89.5l33 300h108l-55 -520h-108l13 108q-16 -36 -66.5 -76t-120.5 -40z" />
    <glyph glyph-name="udieresis" unicode="&#xfc;" horiz-adv-x="579" 
d="M246 700l-10 -92h-112l10 92h112zM488 700l-10 -92h-112l10 92h112zM194 -8q-84 0 -137 57.5t-41 171.5l31 299h108l-31 -297q-15 -136 95 -136q60 0 108 43.5t63 89.5l33 300h108l-55 -520h-108l13 108q-16 -36 -66.5 -76t-120.5 -40z" />
    <glyph glyph-name="yacute" unicode="&#xfd;" horiz-adv-x="606" 
d="M466 700l-132 -129h-83l84 129h131zM473 521h110l-392 -711h-110l117 208l-171 503h106l130 -386z" />
    <glyph glyph-name="thorn" unicode="&#xfe;" 
d="M327 529q100 0 173.5 -73.5t60.5 -200.5q-5 -52 -25.5 -96t-49 -74.5t-64 -52.5t-72 -32t-72.5 -10q-66 0 -110 31t-51 67l-31 -278h-108l34 317l41 393l20 187h108l-29 -266q14 31 63 59.5t112 28.5zM266 86q68 0 125.5 47.5t65.5 131.5q8 79 -36.5 123.5t-109.5 44.5
q-67 0 -120.5 -47t-62.5 -131q-9 -81 32.5 -125t105.5 -44z" />
    <glyph glyph-name="ydieresis" unicode="&#xff;" horiz-adv-x="606" 
d="M262 700l-10 -92h-112l10 92h112zM504 700l-10 -92h-112l10 92h112zM473 521h110l-392 -711h-110l117 208l-171 503h106l130 -386z" />
    <glyph glyph-name="Amacron" unicode="&#x100;" horiz-adv-x="755" 
d="M603 880l-10 -90h-372l10 90h372zM568 0l-48 148h-358l-80 -148h-119l386 700h96l238 -700h-115zM211 239h278l-105 322z" />
    <glyph glyph-name="amacron" unicode="&#x101;" 
d="M550 700l-10 -90h-372l10 90h372zM294 529q65 0 109.5 -30.5t52.5 -61.5l10 83h108l-55 -520h-108l10 84q-14 -35 -63 -64.5t-113 -29.5q-93 0 -164.5 63.5t-71.5 176.5q0 124 84 211.5t201 87.5zM298 433q-77 0 -129.5 -56t-52.5 -138q0 -73 44 -113t106 -40
q71 0 125 53t54 145q0 71 -43.5 110t-103.5 39z" />
    <glyph glyph-name="Abreve" unicode="&#x102;" horiz-adv-x="755" 
d="M406 740q-69 0 -107.5 44t-33.5 98l68 -4q2 -26 20.5 -44.5t52.5 -18.5q36 0 61 20t33 47l68 -4q-7 -56 -49 -97t-113 -41zM568 0l-48 148h-358l-80 -148h-119l386 700h96l238 -700h-115zM211 239h278l-105 322z" />
    <glyph glyph-name="abreve" unicode="&#x103;" 
d="M515 698q-7 -56 -49 -97t-113 -41q-69 0 -107.5 44t-33.5 98l68 -4q2 -26 20.5 -44.5t52.5 -18.5q36 0 61 20t33 47zM294 529q65 0 109.5 -30.5t52.5 -61.5l10 83h108l-55 -520h-108l10 84q-14 -35 -63 -64.5t-113 -29.5q-93 0 -164.5 63.5t-71.5 176.5q0 124 84 211.5
t201 87.5zM298 433q-77 0 -129.5 -56t-52.5 -138q0 -73 44 -113t106 -40q71 0 125 53t54 145q0 71 -43.5 110t-103.5 39z" />
    <glyph glyph-name="Aogonek" unicode="&#x104;" horiz-adv-x="758" 
d="M524 -116q-3 -26 22.5 -35t52.5 3l23 -51q-24 -12 -59 -14.5t-69 4.5t-56 31.5t-18 61.5q9 78 146 117l-46 147h-358l-80 -148h-119l386 700h96l241 -701q-155 -49 -162 -115zM211 239h278l-105 322z" />
    <glyph glyph-name="aogonek" unicode="&#x105;" horiz-adv-x="623" 
d="M521 -1q-83 -28 -115.5 -52t-35.5 -59q-3 -27 22 -37.5t52 1.5l23 -51q-23 -12 -58.5 -14.5t-69.5 4.5t-56 30.5t-18 59.5q4 43 44.5 73t99.5 47l12 83q-14 -35 -63 -64.5t-113 -29.5q-101 0 -174 73t-60 202q9 83 56 145.5t106.5 90.5t120.5 28q65 0 109.5 -30.5
t52.5 -61.5l10 83h108zM261 86q67 0 121 47t62 132q9 80 -32.5 124t-105.5 44q-68 0 -125 -47.5t-66 -130.5q-8 -80 36.5 -124.5t109.5 -44.5z" />
    <glyph glyph-name="Cacute" unicode="&#x106;" horiz-adv-x="671" 
d="M571 880l-132 -129h-83l84 129h131zM594 73q-104 -83 -243 -83q-137 0 -232.5 91t-95.5 233q0 162 118.5 279t277.5 117q136 0 227 -85l-75 -73q-64 54 -152 54q-113 0 -198 -83.5t-85 -206.5q0 -97 67 -159.5t163 -62.5q91 0 169 60z" />
    <glyph glyph-name="cacute" unicode="&#x107;" horiz-adv-x="557" 
d="M470 700l-132 -129h-83l84 129h131zM303 529q73 0 128 -33t83 -95l-85 -34q-42 66 -127 66q-65 0 -122 -47.5t-66 -131.5q-8 -78 36.5 -122.5t106.5 -44.5q89 0 147 69l83 -42q-83 -123 -233 -123q-47 0 -92 17.5t-82 49.5t-57 86t-13 120q9 83 58.5 146t111.5 91t123 28
z" />
    <glyph glyph-name="Cdotaccent" unicode="&#x10a;" horiz-adv-x="671" 
d="M468 880l-10 -92h-112l10 92h112zM594 73q-104 -83 -243 -83q-137 0 -232.5 91t-95.5 233q0 162 118.5 279t277.5 117q136 0 227 -85l-75 -73q-64 54 -152 54q-113 0 -198 -83.5t-85 -206.5q0 -97 67 -159.5t163 -62.5q91 0 169 60z" />
    <glyph glyph-name="cdotaccent" unicode="&#x10b;" horiz-adv-x="558" 
d="M368 700l-10 -92h-112l10 92h112zM304 529q73 0 128 -33t83 -95l-87 -34q-41 66 -131 66q-74 0 -128.5 -56.5t-54.5 -141.5q0 -71 44 -110t103 -39q86 0 144 70l83 -42q-83 -123 -233 -123q-44 0 -86.5 15.5t-78.5 44t-58.5 76.5t-22.5 107q0 124 87 209.5t208 85.5z" />
    <glyph glyph-name="Ccaron" unicode="&#x10c;" horiz-adv-x="671" 
d="M474 749h-151l-89 131h74l93 -90l112 90h78zM594 73q-104 -83 -243 -83q-137 0 -232.5 91t-95.5 233q0 162 118.5 279t277.5 117q136 0 227 -85l-75 -73q-64 54 -152 54q-113 0 -198 -83.5t-85 -206.5q0 -97 67 -159.5t163 -62.5q91 0 169 60z" />
    <glyph glyph-name="ccaron" unicode="&#x10d;" horiz-adv-x="558" 
d="M374 569h-151l-89 131h74l93 -90l112 90h78zM304 529q73 0 128 -33t83 -95l-87 -34q-41 66 -131 66q-74 0 -128.5 -56.5t-54.5 -141.5q0 -71 44 -110t103 -39q86 0 144 70l83 -42q-83 -123 -233 -123q-44 0 -86.5 15.5t-78.5 44t-58.5 76.5t-22.5 107q0 124 87 209.5
t208 85.5z" />
    <glyph glyph-name="Dcaron" unicode="&#x10e;" horiz-adv-x="678" 
d="M439 749h-151l-89 131h74l93 -90l112 90h78zM301 700q151 0 242.5 -102.5t76.5 -250.5q-16 -146 -127 -246.5t-262 -100.5h-228l74 700h224zM237 104q112 0 186 72.5t86 180.5q11 101 -47 170t-169 69h-117l-52 -492h113z" />
    <glyph glyph-name="dcaron" unicode="&#x10f;" horiz-adv-x="807" 
d="M486 707h108l-75 -707h-108l10 84q-14 -35 -63 -64.5t-113 -29.5q-93 0 -164.5 63.5t-71.5 176.5q0 124 84 211.5t201 87.5q65 0 109.5 -30.5t52.5 -61.5zM696 700h131l-132 -129h-83zM298 433q-77 0 -129.5 -56t-52.5 -138q0 -73 44 -113t106 -40q71 0 125 53t54 145
q0 71 -43.5 110t-103.5 39z" />
    <glyph glyph-name="Dcroat" unicode="&#x110;" horiz-adv-x="738" 
d="M361 700q151 0 242.5 -102.5t76.5 -250.5q-16 -146 -127 -246.5t-262 -100.5h-228l32 300h-58l9 90h58l33 310h224zM297 104q112 0 186 72.5t86 180.5q11 101 -47 170t-169 69h-117l-22 -206h142l-9 -90h-142l-21 -196h113z" />
    <glyph glyph-name="dcroat" unicode="&#x111;" horiz-adv-x="650" 
d="M664 656l-9 -90h-76l-16 -149l-44 -417h-108l10 84q-14 -35 -63 -64.5t-113 -29.5q-101 0 -174 73t-60 202q9 83 56 145.5t106.5 90.5t120.5 28q65 0 109.5 -30.5t52.5 -61.5l15 129h-188l9 90h188l6 51h108l-6 -51h76zM261 86q67 0 121 47t62 132q9 80 -32.5 124
t-105.5 44q-68 0 -125 -47.5t-66 -130.5q-8 -80 36.5 -124.5t109.5 -44.5z" />
    <glyph glyph-name="Emacron" unicode="&#x112;" horiz-adv-x="528" 
d="M500 880l-10 -90h-372l10 90h372zM124 102h317l-11 -102h-427l74 700h418l-11 -102h-308l-20 -196h237l-11 -100h-237z" />
    <glyph glyph-name="emacron" unicode="&#x113;" horiz-adv-x="595" 
d="M498 700l-10 -90h-372l10 90h372zM304 529q89 0 161 -60t72 -171q0 -37 -9 -79h-414q4 -67 48 -102.5t110 -35.5q87 0 151 49l54 -58q-77 -82 -212 -82q-103 0 -179.5 64t-76.5 177q0 123 88 210.5t207 87.5zM302 436q-58 0 -109 -36t-69 -102h318q-1 67 -42.5 102.5
t-97.5 35.5z" />
    <glyph glyph-name="Edotaccent" unicode="&#x116;" horiz-adv-x="528" 
d="M370 880l-10 -92h-112l10 92h112zM124 102h317l-11 -102h-427l74 700h418l-11 -102h-308l-20 -196h237l-11 -100h-237z" />
    <glyph glyph-name="edotaccent" unicode="&#x117;" horiz-adv-x="595" 
d="M368 700l-10 -92h-112l10 92h112zM304 529q89 0 161 -60t72 -171q0 -37 -9 -79h-414q4 -67 48 -102.5t110 -35.5q87 0 151 49l54 -58q-77 -82 -212 -82q-103 0 -179.5 64t-76.5 177q0 123 88 210.5t207 87.5zM302 436q-58 0 -109 -36t-69 -102h318q-1 67 -42.5 102.5
t-97.5 35.5z" />
    <glyph glyph-name="Eogonek" unicode="&#x118;" horiz-adv-x="529" 
d="M432 -1q-146 -48 -153 -115q-3 -26 22.5 -35t52.5 3l23 -51q-24 -12 -59 -14.5t-69 4.5t-56 31.5t-18 61.5q8 77 150 117l-322 -1l74 700h418l-11 -102h-308l-20 -196h237l-11 -100h-237l-21 -200h317z" />
    <glyph glyph-name="eogonek" unicode="&#x119;" horiz-adv-x="594" 
d="M303 529q47 0 92 -18t83 -55.5t51.5 -96t-2.5 -140.5h-414q5 -67 48 -102t108 -35q83 0 151 50l58 -62q-54 -54 -127 -71q-84 -28 -116.5 -52t-35.5 -59q-3 -27 22 -37.5t52 1.5l23 -51q-23 -12 -58.5 -14.5t-69.5 4.5t-56 30.5t-18 59.5q8 74 124 113q-95 13 -157.5 84
t-50.5 186q9 83 58.5 146t111.5 91t123 28zM301 436q-56 0 -107.5 -36.5t-70.5 -101.5l318 4q-1 64 -43.5 99t-96.5 35z" />
    <glyph glyph-name="Ecaron" unicode="&#x11a;" horiz-adv-x="528" 
d="M376 749h-151l-89 131h74l93 -90l112 90h78zM124 102h317l-11 -102h-427l74 700h418l-11 -102h-308l-20 -196h237l-11 -100h-237z" />
    <glyph glyph-name="ecaron" unicode="&#x11b;" horiz-adv-x="595" 
d="M374 569h-151l-89 131h74l93 -90l112 90h78zM304 529q89 0 161 -60t72 -171q0 -37 -9 -79h-414q4 -67 48 -102.5t110 -35.5q87 0 151 49l54 -58q-77 -82 -212 -82q-103 0 -179.5 64t-76.5 177q0 123 88 210.5t207 87.5zM302 436q-58 0 -109 -36t-69 -102h318
q-1 67 -42.5 102.5t-97.5 35.5z" />
    <glyph glyph-name="Gbreve" unicode="&#x11e;" horiz-adv-x="763" 
d="M434 740q-69 0 -107.5 44t-33.5 98l68 -4q2 -26 20.5 -44.5t52.5 -18.5q36 0 61 20t33 47l68 -4q-7 -56 -49 -97t-113 -41zM412 361h289q-1 -167 -102.5 -269t-246.5 -102q-137 0 -233 91t-96 233q0 162 118.5 279t277.5 117q136 0 227 -85l-75 -73q-64 54 -152 54
q-113 0 -198 -83.5t-85 -206.5q0 -96 65.5 -159t158.5 -63q87 0 148 44t82 130h-188z" />
    <glyph glyph-name="gbreve" unicode="&#x11f;" 
d="M334 560q-69 0 -107.5 44t-33.5 98l68 -4q2 -26 20.5 -44.5t52.5 -18.5q36 0 61 20t33 47l68 -4q-7 -56 -49 -97t-113 -41zM466 520h108l-55 -520q-6 -57 -34 -99t-68 -64t-82 -32.5t-84 -10.5q-96 0 -148 36l6 88q46 -33 143 -33q68 0 110.5 32t48.5 83l10 84
q-14 -35 -63 -64.5t-113 -29.5q-93 0 -164.5 63.5t-71.5 176.5q0 124 84 211.5t201 87.5q65 0 109.5 -30.5t52.5 -61.5zM298 433q-77 0 -129.5 -56t-52.5 -138q0 -73 44 -113t106 -40q71 0 125 53t54 145q0 71 -43.5 110t-103.5 39z" />
    <glyph glyph-name="Gdotaccent" unicode="&#x120;" horiz-adv-x="763" 
d="M501 880l-10 -92h-112l10 92h112zM412 361h289q-1 -167 -102.5 -269t-246.5 -102q-137 0 -233 91t-96 233q0 162 118.5 279t277.5 117q136 0 227 -85l-75 -73q-64 54 -152 54q-113 0 -198 -83.5t-85 -206.5q0 -96 65.5 -159t158.5 -63q87 0 148 44t82 130h-188z" />
    <glyph glyph-name="gdotaccent" unicode="&#x121;" 
d="M401 700l-10 -92h-112l10 92h112zM466 520h108l-55 -520q-6 -57 -34 -99t-68 -64t-82 -32.5t-84 -10.5q-96 0 -148 36l6 88q46 -33 143 -33q68 0 110.5 32t48.5 83l10 84q-14 -35 -63 -64.5t-113 -29.5q-93 0 -164.5 63.5t-71.5 176.5q0 124 84 211.5t201 87.5
q65 0 109.5 -30.5t52.5 -61.5zM298 433q-77 0 -129.5 -56t-52.5 -138q0 -73 44 -113t106 -40q71 0 125 53t54 145q0 71 -43.5 110t-103.5 39z" />
    <glyph glyph-name="Gcommaaccent" unicode="&#x122;" horiz-adv-x="763" 
d="M412 361h289q-1 -167 -102.5 -269t-246.5 -102q-137 0 -233 91t-96 233q0 162 118.5 279t277.5 117q136 0 227 -85l-75 -73q-64 54 -152 54q-113 0 -198 -83.5t-85 -206.5q0 -96 65.5 -159t158.5 -63q87 0 148 44t82 130h-188zM184 -245l80 215h145l-127 -215h-98z" />
    <glyph glyph-name="gcommaaccent" unicode="&#x123;" 
d="M453 801l-81 -215h-145l128 215h98zM466 520h108l-55 -520q-6 -57 -34 -99t-68 -64t-82 -32.5t-84 -10.5q-96 0 -148 36l6 88q46 -33 143 -33q68 0 110.5 32t48.5 83l10 84q-14 -35 -63 -64.5t-113 -29.5q-93 0 -164.5 63.5t-71.5 176.5q0 124 84 211.5t201 87.5
q65 0 109.5 -30.5t52.5 -61.5zM298 433q-77 0 -129.5 -56t-52.5 -138q0 -73 44 -113t106 -40q71 0 125 53t54 145q0 71 -43.5 110t-103.5 39z" />
    <glyph glyph-name="Hbar" unicode="&#x126;" horiz-adv-x="660" 
d="M511 700h110l-74 -700h-110l31 296h-324l-31 -296h-110l74 700h110l-12 -110h324zM155 398h324l10 90h-324z" />
    <glyph glyph-name="hbar" unicode="&#x127;" horiz-adv-x="598" 
d="M349 528q84 0 137 -57.5t41 -171.5l-32 -299h-108l32 297q14 136 -96 136q-60 0 -108 -43.5t-63 -89.5l-33 -300h-108l60 564h-66l6 60h66l9 83h108l-9 -83h126l-6 -60h-126l-17 -152q14 35 65.5 75.5t121.5 40.5z" />
    <glyph glyph-name="Imacron" unicode="&#x12a;" horiz-adv-x="230" 
d="M339 880l-10 -90h-372l10 90h372zM189 700l-74 -700h-110l74 700h110z" />
    <glyph glyph-name="imacron" unicode="&#x12b;" horiz-adv-x="218" 
d="M314 700l-10 -90h-372l10 90h372zM163 520l-55 -520h-108l55 520h108z" />
    <glyph glyph-name="Iogonek" unicode="&#x12e;" horiz-adv-x="232" 
d="M120 -1q-151 -48 -158 -115q-3 -26 22.5 -35t52.5 3l23 -51q-24 -12 -59 -14.5t-69 4.5t-56 31.5t-18 61.5q8 77 148 117l76 699h110z" />
    <glyph glyph-name="iogonek" unicode="&#x12f;" horiz-adv-x="213" 
d="M72 700h112l-10 -92h-112zM-2 1l57 519h108l-53 -521q-151 -47 -158 -115q-3 -26 22.5 -35t52.5 3l23 -51q-24 -12 -59 -14.5t-69 4.5t-56 31.5t-18 61.5q8 77 150 117z" />
    <glyph glyph-name="Idotaccent" unicode="&#x130;" horiz-adv-x="230" 
d="M209 880l-10 -92h-112l10 92h112zM189 700l-74 -700h-110l74 700h110z" />
    <glyph glyph-name="dotlessi" unicode="&#x131;" horiz-adv-x="209" 
d="M161 520l-55 -520h-108l55 520h108z" />
    <glyph glyph-name="IJ" unicode="&#x132;" horiz-adv-x="746" 
d="M187 700l-74 -700h-110l74 700h110zM707 700l-49 -467q-13 -125 -87 -185t-165 -60q-134 0 -194 98l74 75q42 -67 118 -67q55 0 95.5 35.5t50.5 120.5l47 450h110z" />
    <glyph glyph-name="ij" unicode="&#x133;" horiz-adv-x="452" 
d="M181 707l-10 -94h-108l10 94h108zM424 707l-10 -94h-108l10 94h108zM161 520l-55 -520h-108l55 520h108zM404 520l-61 -577q-15 -149 -152 -149q-61 0 -101 27l6 103q35 -20 74 -20q61 0 69 72l57 544h108z" />
    <glyph glyph-name="Kcommaaccent" unicode="&#x136;" horiz-adv-x="667" 
d="M321 391l265 -391h-126l-214 315l-107 -106l-23 -209h-113l74 700h113l-37 -344l342 344h138zM150 -245l80 215h145l-127 -215h-98z" />
    <glyph glyph-name="kcommaaccent" unicode="&#x137;" horiz-adv-x="561" 
d="M263 293l231 -293h-124l-179 222l-67 -61l-18 -161h-108l19 177l56 530h108l-45 -414l236 227h132zM78 -245l80 215h145l-127 -215h-98z" />
    <glyph glyph-name="Lacute" unicode="&#x139;" horiz-adv-x="498" 
d="M318 878l-132 -129h-83l84 129h131zM124 102h297l-11 -102h-407l74 700h110z" />
    <glyph glyph-name="lacute" unicode="&#x13a;" horiz-adv-x="216" 
d="M305 887l-132 -129h-83l84 129h131zM181 707l-75 -707h-108l75 707h108z" />
    <glyph glyph-name="Lcommaaccent" unicode="&#x13b;" horiz-adv-x="498" 
d="M124 102h297l-11 -102h-407l74 700h110zM51 -245l80 215h145l-127 -215h-98z" />
    <glyph glyph-name="lcommaaccent" unicode="&#x13c;" horiz-adv-x="231" 
d="M183 707l-75 -707h-108l75 707h108zM-99 -245l80 215h145l-127 -215h-98z" />
    <glyph glyph-name="Lcaron" unicode="&#x13d;" horiz-adv-x="498" 
d="M449 717l-114 -242h-94l111 242h97zM124 102h297l-11 -102h-407l74 700h110z" />
    <glyph glyph-name="lcaron" unicode="&#x13e;" horiz-adv-x="427" 
d="M181 707l-75 -707h-108l75 707h108zM216 458l111 242h97l-114 -242h-94z" />
    <glyph glyph-name="Ldot" unicode="&#x13f;" horiz-adv-x="498" 
d="M124 102h297l-11 -102h-407l74 700h110zM348 301q-30 0 -46.5 18.5t-13.5 49.5q3 26 20.5 42t44.5 16q30 0 46.5 -18.5t13.5 -49.5q-3 -26 -20.5 -42t-44.5 -16z" />
    <glyph glyph-name="ldot" unicode="&#x140;" horiz-adv-x="380" 
d="M181 707l-75 -707h-108l75 707h108zM271 299q-30 0 -46.5 18.5t-13.5 49.5q3 26 20.5 42t44.5 16q30 0 46.5 -18.5t13.5 -49.5q-3 -26 -20.5 -42t-44.5 -16z" />
    <glyph glyph-name="Lslash" unicode="&#x141;" horiz-adv-x="556" 
d="M182 102h297l-11 -102h-407l24 214l-68 -64l10 116l68 64l40 370h110l-28 -254l118 112h2l-11 -115l-119 -113z" />
    <glyph glyph-name="lslash" unicode="&#x142;" horiz-adv-x="321" 
d="M294 550l-11 -115l-84 -80l-39 -355h-108l27 241l-86 -81l10 116l86 81l38 350h108l-26 -236l83 79h2z" />
    <glyph glyph-name="Nacute" unicode="&#x143;" horiz-adv-x="701" 
d="M548 880l-132 -129h-83l84 129h131zM552 700h110l-74 -700h-83l-338 499l-54 -499h-110l74 700h84l337 -500z" />
    <glyph glyph-name="nacute" unicode="&#x144;" horiz-adv-x="585" 
d="M467 700l-132 -129h-83l84 129h131zM338 528q83 0 135.5 -57t40.5 -171l-32 -300h-108l32 297q8 70 -20 103t-78 33q-60 0 -107.5 -43t-61.5 -90l-33 -300h-108l55 520h108l-12 -108q14 35 66 75.5t123 40.5z" />
    <glyph glyph-name="Ncommaaccent" unicode="&#x145;" horiz-adv-x="701" 
d="M552 700h110l-74 -700h-83l-338 499l-54 -499h-110l74 700h84l337 -500zM143 -245l80 215h145l-127 -215h-98z" />
    <glyph glyph-name="ncommaaccent" unicode="&#x146;" horiz-adv-x="585" 
d="M338 528q83 0 135.5 -57t40.5 -171l-32 -300h-108l32 297q8 70 -20 103t-78 33q-60 0 -107.5 -43t-61.5 -90l-33 -300h-108l55 520h108l-12 -108q14 35 66 75.5t123 40.5zM81 -245l80 215h145l-127 -215h-98z" />
    <glyph glyph-name="Ncaron" unicode="&#x147;" horiz-adv-x="701" 
d="M451 749h-151l-89 131h74l93 -90l112 90h78zM552 700h110l-74 -700h-83l-338 499l-54 -499h-110l74 700h84l337 -500z" />
    <glyph glyph-name="ncaron" unicode="&#x148;" horiz-adv-x="585" 
d="M370 569h-151l-89 131h74l93 -90l112 90h78zM338 528q83 0 135.5 -57t40.5 -171l-32 -300h-108l32 297q8 70 -20 103t-78 33q-60 0 -107.5 -43t-61.5 -90l-33 -300h-108l55 520h108l-12 -108q14 35 66 75.5t123 40.5z" />
    <glyph glyph-name="Eng" unicode="&#x14a;" horiz-adv-x="701" 
d="M550 700h112l-68 -650l-2 -15q-13 -125 -87 -185t-165 -60q-134 0 -193 98l73 75q43 -67 118 -67q121 0 145 140l-316 463l-54 -499h-110l74 700h84l337 -500z" />
    <glyph glyph-name="eng" unicode="&#x14b;" horiz-adv-x="585" 
d="M336 528q84 0 137 -57.5t41 -171.5l-32 -299l-6 -57q-15 -149 -152 -149q-61 0 -101 27l6 103q35 -20 74 -20q61 0 69 72l5 51l29 270q14 136 -96 136q-60 0 -108 -43.5t-63 -89.5l-33 -300h-108l55 520h108l-12 -108q14 35 65.5 75.5t121.5 40.5z" />
    <glyph glyph-name="Omacron" unicode="&#x14c;" horiz-adv-x="805" 
d="M625 880l-10 -90h-372l10 90h372zM418 710q147 0 244.5 -104t81.5 -261q-11 -101 -70 -183.5t-145 -127t-179 -44.5q-95 0 -173 45.5t-120.5 130.5t-31.5 189q11 101 69.5 183.5t144.5 127t179 44.5zM353 94q101 0 183.5 74.5t94.5 186.5q11 108 -53.5 179.5t-162.5 71.5
q-101 0 -183 -74.5t-94 -186.5q-12 -108 52.5 -179.5t162.5 -71.5z" />
    <glyph glyph-name="omacron" unicode="&#x14d;" horiz-adv-x="608" 
d="M511 700l-10 -90h-372l10 90h372zM303 529q101 0 179 -74t65 -201q-7 -64 -37.5 -116t-73 -83.5t-90 -48t-92.5 -16.5q-47 0 -92 17.5t-82 50t-57 86.5t-13 120q9 83 58.5 146t111.5 91t123 28zM301 433q-65 0 -121.5 -48t-65.5 -131q-8 -78 36 -123t106 -45
q65 0 122 47.5t65 130.5q8 79 -36 124t-106 45z" />
    <glyph glyph-name="Ohungarumlaut" unicode="&#x150;" horiz-adv-x="805" 
d="M512 880l-132 -129h-83l84 129h131zM697 880l-132 -129h-83l84 129h131zM418 710q147 0 244.5 -104t81.5 -261q-11 -101 -70 -183.5t-145 -127t-179 -44.5q-95 0 -173 45.5t-120.5 130.5t-31.5 189q11 101 69.5 183.5t144.5 127t179 44.5zM353 94q101 0 183.5 74.5
t94.5 186.5q11 108 -53.5 179.5t-162.5 71.5q-101 0 -183 -74.5t-94 -186.5q-12 -108 52.5 -179.5t162.5 -71.5z" />
    <glyph glyph-name="ohungarumlaut" unicode="&#x151;" horiz-adv-x="608" 
d="M398 700l-132 -129h-83l84 129h131zM583 700l-132 -129h-83l84 129h131zM303 529q101 0 179 -74t65 -201q-7 -64 -37.5 -116t-73 -83.5t-90 -48t-92.5 -16.5q-47 0 -92 17.5t-82 50t-57 86.5t-13 120q9 83 58.5 146t111.5 91t123 28zM301 433q-65 0 -121.5 -48
t-65.5 -131q-8 -78 36 -123t106 -45q65 0 122 47.5t65 130.5q8 79 -36 124t-106 45z" />
    <glyph glyph-name="OE" unicode="&#x152;" horiz-adv-x="1121" 
d="M717 102h317l-11 -102h-427l11 87q-111 -97 -257 -97q-95 0 -173 45.5t-120.5 130.5t-31.5 189q11 101 69.5 183.5t144.5 127t179 44.5q145 0 240 -101l12 91h418l-11 -102h-308l-20 -196h237l-11 -100h-237zM353 94q101 0 183.5 74.5t94.5 186.5q11 108 -53.5 179.5
t-162.5 71.5q-101 0 -183 -74.5t-94 -186.5q-12 -108 52.5 -179.5t162.5 -71.5z" />
    <glyph glyph-name="oe" unicode="&#x153;" horiz-adv-x="1027" 
d="M736 529q47 0 92 -18t83 -55.5t51.5 -96t-2.5 -140.5h-414q5 -67 48 -102t108 -35q83 0 151 50l58 -62q-80 -80 -214 -80q-65 0 -124 28t-92 78q-46 -52 -107.5 -79t-119.5 -27q-47 0 -92 17.5t-82 50t-57 86.5t-13 120q9 83 58.5 146t111.5 91t123 28q59 0 116.5 -28.5
t90.5 -78.5q45 52 106.5 79.5t119.5 27.5zM734 436q-56 0 -107.5 -36.5t-70.5 -101.5l318 4q-1 64 -43.5 99t-96.5 35zM256 86q65 0 122 47.5t65 130.5q8 79 -36 124t-106 45q-65 0 -121.5 -48t-65.5 -131q-8 -78 36 -123t106 -45z" />
    <glyph glyph-name="Racute" unicode="&#x154;" horiz-adv-x="623" 
d="M488 880l-132 -129h-83l84 129h131zM532 0h-116l-139 244h-138l-26 -244h-110l74 700h233q116 0 178.5 -65.5t51.5 -170.5q-8 -72 -49 -124.5t-110 -77.5zM149 340h118q69 0 113 34t51 100q7 61 -28.5 92.5t-104.5 31.5h-122z" />
    <glyph glyph-name="racute" unicode="&#x155;" horiz-adv-x="404" 
d="M382 700l-132 -129h-83l84 129h131zM345 528q23 0 33 -2l-7 -103q-10 2 -26 2q-76 0 -136 -50.5t-77 -131.5l-26 -243h-108l55 520h108l-15 -131q24 61 77 100t122 39z" />
    <glyph glyph-name="Rcommaaccent" unicode="&#x156;" horiz-adv-x="623" 
d="M532 0h-116l-139 244h-138l-26 -244h-110l74 700h233q116 0 178.5 -65.5t51.5 -170.5q-8 -72 -49 -124.5t-110 -77.5zM149 340h118q69 0 113 34t51 100q7 61 -28.5 92.5t-104.5 31.5h-122zM98 -245l80 215h145l-127 -215h-98z" />
    <glyph glyph-name="rcommaaccent" unicode="&#x157;" horiz-adv-x="406" 
d="M347 528q23 0 33 -2l-7 -103q-10 2 -26 2q-76 0 -136 -50.5t-77 -131.5l-26 -243h-108l55 520h108l-15 -131q24 61 77 100t122 39zM-101 -245l80 215h145l-127 -215h-98z" />
    <glyph glyph-name="Rcaron" unicode="&#x158;" horiz-adv-x="623" 
d="M391 749h-151l-89 131h74l93 -90l112 90h78zM532 0h-116l-139 244h-138l-26 -244h-110l74 700h233q116 0 178.5 -65.5t51.5 -170.5q-8 -72 -49 -124.5t-110 -77.5zM149 340h118q69 0 113 34t51 100q7 61 -28.5 92.5t-104.5 31.5h-122z" />
    <glyph glyph-name="rcaron" unicode="&#x159;" horiz-adv-x="432" 
d="M311 569h-151l-89 131h74l93 -90l112 90h78zM371 528q23 0 33 -2l-7 -103q-10 2 -26 2q-76 0 -136 -50.5t-77 -131.5l-26 -243h-108l55 520h108l-15 -131q24 61 77 100t122 39z" />
    <glyph glyph-name="Sacute" unicode="&#x15a;" horiz-adv-x="551" 
d="M477 880l-132 -129h-83l84 129h131zM294 712q81 0 137 -43.5t79 -104.5l-86 -43q-46 93 -137 93q-53 0 -87.5 -27t-34.5 -72q0 -34 20.5 -56t66.5 -40l47 -18q97 -37 143.5 -82.5t46.5 -113.5q0 -100 -78.5 -160t-180.5 -60q-91 0 -155.5 49t-80.5 125l89 40
q14 -51 52.5 -82.5t97.5 -31.5q60 0 101.5 31.5t41.5 86.5q0 39 -26 61.5t-85 45.5l-46 18q-78 30 -120 72.5t-42 111.5q0 89 70 144.5t167 55.5z" />
    <glyph glyph-name="sacute" unicode="&#x15b;" horiz-adv-x="442" 
d="M391 700l-132 -129h-83l84 129h131zM291 383q-21 59 -77 59q-32 0 -55 -17.5t-26 -44.5q-5 -42 51 -62l55 -20q35 -13 56.5 -24t43.5 -29t30.5 -44.5t4.5 -61.5q-7 -69 -69 -109.5t-138 -40.5q-72 0 -124.5 39.5t-60.5 104.5l88 22q8 -36 33.5 -57.5t64.5 -21.5
q37 0 66.5 20.5t33.5 52.5q4 41 -58 65l-57 21q-135 50 -124 156q7 61 59.5 99.5t122.5 38.5q67 0 110.5 -34t59.5 -91z" />
    <glyph glyph-name="Scedilla" unicode="&#x15e;" horiz-adv-x="551" 
d="M488 181q-8 -79 -70.5 -130.5t-147.5 -62.5l-42 -32q37 -5 62.5 -28.5t21.5 -59.5q-5 -53 -63 -75.5t-136 -3.5l9 29q43 -8 72.5 11t32.5 49q2 22 -18 33.5t-48 -3.5l-34 33l40 51q-67 15 -113.5 60t-59.5 107l89 40q15 -52 52.5 -83t96.5 -31q56 0 97 28.5t46 76.5
q5 45 -21 70t-89 50l-46 18q-84 32 -126 79.5t-34 125.5q8 77 75.5 128t159.5 51q81 0 137 -43.5t79 -104.5l-86 -43q-46 93 -132 93q-50 0 -85 -27t-40 -68q-4 -34 16.5 -57.5t68.5 -42.5l47 -18q105 -40 151.5 -91t37.5 -129z" />
    <glyph glyph-name="scedilla" unicode="&#x15f;" horiz-adv-x="442" 
d="M374 139q-6 -56 -49.5 -94t-104.5 -51l-48 -36q37 -5 62.5 -28.5t22.5 -59.5q-6 -53 -64 -75.5t-136 -3.5l9 29q43 -8 72.5 11t32.5 49q2 22 -18 33.5t-48 -3.5l-34 33l42 53q-52 12 -88 48.5t-43 88.5l88 22q8 -36 33.5 -57.5t64.5 -21.5q37 0 66.5 20.5t33.5 52.5
q4 41 -58 65l-57 21q-135 50 -124 156q7 61 59.5 99.5t122.5 38.5q67 0 110.5 -34t59.5 -91l-90 -21q-21 59 -77 59q-32 0 -55 -17.5t-26 -44.5q-5 -42 51 -62l55 -20q35 -13 56.5 -24t43.5 -29t30.5 -44.5t4.5 -61.5z" />
    <glyph glyph-name="Scaron" unicode="&#x160;" horiz-adv-x="551" 
d="M380 749h-151l-89 131h74l93 -90l112 90h78zM294 712q81 0 137 -43.5t79 -104.5l-86 -43q-46 93 -137 93q-53 0 -87.5 -27t-34.5 -72q0 -34 20.5 -56t66.5 -40l47 -18q97 -37 143.5 -82.5t46.5 -113.5q0 -100 -78.5 -160t-180.5 -60q-91 0 -155.5 49t-80.5 125l89 40
q14 -51 52.5 -82.5t97.5 -31.5q60 0 101.5 31.5t41.5 86.5q0 39 -26 61.5t-85 45.5l-46 18q-78 30 -120 72.5t-42 111.5q0 89 70 144.5t167 55.5z" />
    <glyph glyph-name="scaron" unicode="&#x161;" horiz-adv-x="442" 
d="M294 569h-151l-89 131h74l93 -90l112 90h78zM291 383q-21 59 -77 59q-32 0 -55 -17.5t-26 -44.5q-5 -42 51 -62l55 -20q35 -13 56.5 -24t43.5 -29t30.5 -44.5t4.5 -61.5q-7 -69 -69 -109.5t-138 -40.5q-72 0 -124.5 39.5t-60.5 104.5l88 22q8 -36 33.5 -57.5t64.5 -21.5
q37 0 66.5 20.5t33.5 52.5q4 41 -58 65l-57 21q-135 50 -124 156q7 61 59.5 99.5t122.5 38.5q67 0 110.5 -34t59.5 -91z" />
    <glyph glyph-name="uni0162" unicode="&#x162;" horiz-adv-x="557" 
d="M344 598l-62 -598l-54 -44q37 -5 62.5 -28.5t21.5 -59.5q-5 -53 -63 -75.5t-136 -3.5l9 29q43 -8 72.5 11t32.5 49q2 22 -18 33.5t-48 -3.5l-34 33l43 59l64 598h-183l11 102h476l-11 -102h-183z" />
    <glyph glyph-name="uni0163" unicode="&#x163;" horiz-adv-x="357" 
d="M308 430h-110l-31 -293q-5 -48 33 -48q33 0 71 15l-5 -93q-23 -10 -39 -13l-55 -42q37 -5 62.5 -28.5t21.5 -59.5q-5 -53 -63 -75.5t-136 -3.5l9 29q43 -8 72.5 11t32.5 49q2 22 -18 33.5t-48 -3.5l-34 33l50 60q-74 23 -62 136l31 293h-72l9 90h72l13 122h108l-13 -122
h110z" />
    <glyph glyph-name="Tcaron" unicode="&#x164;" horiz-adv-x="557" 
d="M381 749h-151l-89 131h74l93 -90l112 90h78zM538 700l-11 -102h-183l-63 -598h-110l63 598h-183l11 102h476z" />
    <glyph glyph-name="tcaron" unicode="&#x165;" horiz-adv-x="477" 
d="M332 700h131l-132 -129h-83zM220 642l-13 -122h110l-9 -90h-110l-31 -293q-5 -48 33 -48q33 0 71 15l-5 -93q-37 -17 -96 -17q-126 0 -111 143l31 293h-72l9 90h72l13 122h108z" />
    <glyph glyph-name="Tbar" unicode="&#x166;" horiz-adv-x="557" 
d="M527 598h-183l-9 -88h131l-10 -90h-131l-44 -420h-110l44 420h-131l10 90h131l9 88h-183l11 102h476z" />
    <glyph glyph-name="tbar" unicode="&#x167;" horiz-adv-x="352" 
d="M308 430h-110l-8 -76h108l-10 -90h-108l-13 -127q-5 -48 33 -48q33 0 71 15l-5 -93q-37 -17 -96 -17q-126 0 -111 143l13 127h-72l10 90h72l8 76h-72l9 90h72l13 122h108l-13 -122h110z" />
    <glyph glyph-name="Umacron" unicode="&#x16a;" horiz-adv-x="635" 
d="M550 880l-10 -90h-372l10 90h372zM486 700h110l-47 -448q-13 -124 -93.5 -195.5t-191.5 -71.5q-113 0 -181.5 73.5t-55.5 197.5l47 444h110l-47 -448q-9 -83 29 -123t101 -40q66 0 115 41.5t57 125.5z" />
    <glyph glyph-name="umacron" unicode="&#x16b;" horiz-adv-x="579" 
d="M497 700l-10 -90h-372l10 90h372zM194 -8q-84 0 -137 57.5t-41 171.5l31 299h108l-31 -297q-15 -136 95 -136q60 0 108 43.5t63 89.5l33 300h108l-55 -520h-108l13 108q-16 -36 -66.5 -76t-120.5 -40z" />
    <glyph glyph-name="Ubreve" unicode="&#x16c;" horiz-adv-x="635" 
d="M515 878q-7 -56 -49 -97t-113 -41q-69 0 -107.5 44t-33.5 98l68 -4q2 -26 20.5 -44.5t52.5 -18.5q36 0 61 20t33 47zM486 700h110l-47 -448q-13 -124 -93.5 -195.5t-191.5 -71.5q-113 0 -181.5 73.5t-55.5 197.5l47 444h110l-47 -448q-9 -83 29 -123t101 -40
q66 0 115 41.5t57 125.5z" />
    <glyph glyph-name="ubreve" unicode="&#x16d;" horiz-adv-x="579" 
d="M462 698q-7 -56 -49 -97t-113 -41q-69 0 -107.5 44t-33.5 98l68 -4q2 -26 20.5 -44.5t52.5 -18.5q36 0 61 20t33 47zM194 -8q-84 0 -137 57.5t-41 171.5l31 299h108l-31 -297q-15 -136 95 -136q60 0 108 43.5t63 89.5l33 300h108l-55 -520h-108l13 108q-16 -36 -66.5 -76
t-120.5 -40z" />
    <glyph glyph-name="Uring" unicode="&#x16e;" horiz-adv-x="635" 
d="M370 970q42 0 69.5 -31.5t23.5 -74.5q-4 -38 -35.5 -66.5t-70.5 -28.5q-45 0 -73 31t-23 74q5 40 36.5 68t72.5 28zM369 902q-14 0 -26 -10.5t-13 -26.5q-1 -11 6.5 -18.5t18.5 -7.5q14 0 26 10.5t13 25.5q1 11 -6.5 19t-18.5 8zM486 700h110l-47 -448
q-13 -124 -93.5 -195.5t-191.5 -71.5q-113 0 -181.5 73.5t-55.5 197.5l47 444h110l-47 -448q-9 -83 29 -123t101 -40q66 0 115 41.5t57 125.5z" />
    <glyph glyph-name="uring" unicode="&#x16f;" horiz-adv-x="579" 
d="M317 790q42 0 69.5 -31.5t23.5 -74.5q-4 -38 -35.5 -66.5t-70.5 -28.5q-45 0 -73 31t-23 74q5 40 36.5 68t72.5 28zM316 722q-14 0 -25.5 -10.5t-13.5 -26.5q-1 -11 6.5 -18.5t18.5 -7.5q14 0 26 10.5t13 25.5q1 11 -6.5 19t-18.5 8zM194 -8q-84 0 -137 57.5t-41 171.5
l31 299h108l-31 -297q-15 -136 95 -136q60 0 108 43.5t63 89.5l33 300h108l-55 -520h-108l13 108q-16 -36 -66.5 -76t-120.5 -40z" />
    <glyph glyph-name="Uhungarumlaut" unicode="&#x170;" horiz-adv-x="642" 
d="M437 880l-132 -129h-83l84 129h131zM622 880l-132 -129h-83l84 129h131zM486 700h110l-47 -448q-13 -124 -93.5 -195.5t-191.5 -71.5q-113 0 -181.5 73.5t-55.5 197.5l47 444h110l-47 -448q-9 -83 29 -123t101 -40q66 0 115 41.5t57 125.5z" />
    <glyph glyph-name="uhungarumlaut" unicode="&#x171;" horiz-adv-x="598" 
d="M384 700l-132 -129h-83l84 129h131zM569 700l-132 -129h-83l84 129h131zM194 -8q-84 0 -137 57.5t-41 171.5l31 299h108l-31 -297q-15 -136 95 -136q60 0 108 43.5t63 89.5l33 300h108l-55 -520h-108l13 108q-16 -36 -66.5 -76t-120.5 -40z" />
    <glyph glyph-name="Uogonek" unicode="&#x172;" horiz-adv-x="635" 
d="M486 700h110l-47 -448q-11 -100 -66 -167t-138 -91q-109 -41 -116 -100q-3 -26 22.5 -35t52.5 3l23 -51q-24 -12 -59 -14.5t-69 4.5t-56 31.5t-18 61.5q6 57 91 95q-93 13 -147 84.5t-42 182.5l47 444h110l-47 -448q-9 -83 29 -123t101 -40q66 0 115 41.5t57 125.5z" />
    <glyph glyph-name="uogonek" unicode="&#x173;" horiz-adv-x="580" 
d="M341 -107q-3 -29 22 -41t52 0l23 -51q-23 -12 -58.5 -13t-69 8.5t-55.5 35t-18 61.5q4 40 40 69t89 38l15 108q-16 -36 -66.5 -76t-120.5 -40q-84 0 -137 57.5t-41 171.5l31 299h108l-31 -297q-15 -136 95 -136q60 0 108 43.5t63 89.5l33 300h108l-53 -521
q-130 -40 -137 -106z" />
    <glyph glyph-name="Wcircumflex" unicode="&#x174;" horiz-adv-x="1008" 
d="M616 880l89 -131h-74l-92 90l-113 -90h-78l117 131h151zM1008 700l-302 -700h-76l-127 502l-233 -502h-76l-154 700h113l104 -480l224 480h82l122 -480l206 480h117z" />
    <glyph glyph-name="wcircumflex" unicode="&#x175;" horiz-adv-x="938" 
d="M556 700l89 -131h-74l-92 90l-113 -90h-78l117 131h151zM805 521h110l-250 -521h-99l-108 395l-192 -395h-99l-140 521h106l98 -386l190 386h96l110 -386z" />
    <glyph glyph-name="Ycircumflex" unicode="&#x176;" horiz-adv-x="696" 
d="M461 880l89 -131h-74l-92 90l-113 -90h-78l117 131h151zM687 700l-304 -388l-34 -312h-110l34 312l-222 388h123l162 -288l224 288h127z" />
    <glyph glyph-name="ycircumflex" unicode="&#x177;" horiz-adv-x="606" 
d="M324 659l-113 -90h-78l117 131h151l89 -131h-74zM473 521h110l-392 -711h-110l117 208l-171 503h106l130 -386z" />
    <glyph glyph-name="Ydieresis" unicode="&#x178;" horiz-adv-x="696" 
d="M322 880l-10 -92h-112l10 92h112zM564 880l-10 -92h-112l10 92h112zM687 700l-304 -388l-34 -312h-110l34 312l-222 388h123l162 -288l224 288h127z" />
    <glyph glyph-name="Zacute" unicode="&#x179;" horiz-adv-x="614" 
d="M491 880l-132 -129h-83l84 129h131zM598 700l-431 -605h370l-10 -95h-549l431 605h-345l10 95h524z" />
    <glyph glyph-name="zacute" unicode="&#x17a;" horiz-adv-x="527" 
d="M451 700l-132 -129h-83l84 129h131zM503 520l-346 -425h288l-10 -95h-466l346 425h-274l10 95h452z" />
    <glyph glyph-name="Zdotaccent" unicode="&#x17b;" horiz-adv-x="614" 
d="M388 880l-10 -92h-112l10 92h112zM598 700l-431 -605h370l-10 -95h-549l431 605h-345l10 95h524z" />
    <glyph glyph-name="zdotaccent" unicode="&#x17c;" horiz-adv-x="527" 
d="M348 700l-10 -92h-112l10 92h112zM503 520l-346 -425h288l-10 -95h-466l346 425h-274l10 95h452z" />
    <glyph glyph-name="Zcaron" unicode="&#x17d;" horiz-adv-x="614" 
d="M394 749h-151l-89 131h74l93 -90l112 90h78zM598 700l-431 -605h370l-10 -95h-549l431 605h-345l10 95h524z" />
    <glyph glyph-name="zcaron" unicode="&#x17e;" horiz-adv-x="527" 
d="M354 569h-151l-89 131h74l93 -90l112 90h78zM503 520l-346 -425h288l-10 -95h-466l346 425h-274l10 95h452z" />
    <glyph glyph-name="florin" unicode="&#x192;" horiz-adv-x="312" 
d="M296 625q-47 0 -64.5 -23.5t-23.5 -78.5v-3h75l-10 -93h-75l-47 -454q-10 -93 -55 -128t-146 -35l6 95q48 0 65 19.5t22 72.5l45 430h-74l10 93h74l3 27q10 95 55.5 134t145.5 39z" />
    <glyph glyph-name="uni01CD" unicode="&#x1cd;" horiz-adv-x="755" 
d="M479 749h-151l-89 131h74l93 -90l112 90h78zM568 0l-48 148h-358l-80 -148h-119l386 700h96l238 -700h-115zM211 239h278l-105 322z" />
    <glyph glyph-name="uni01CE" unicode="&#x1ce;" 
d="M426 569h-151l-89 131h74l93 -90l112 90h78zM294 529q65 0 109.5 -30.5t52.5 -61.5l10 83h108l-55 -520h-108l10 84q-14 -35 -63 -64.5t-113 -29.5q-93 0 -164.5 63.5t-71.5 176.5q0 124 84 211.5t201 87.5zM298 433q-77 0 -129.5 -56t-52.5 -138q0 -73 44 -113t106 -40
q71 0 125 53t54 145q0 71 -43.5 110t-103.5 39z" />
    <glyph glyph-name="uni01CF" unicode="&#x1cf;" horiz-adv-x="230" 
d="M215 749h-151l-89 131h74l93 -90l112 90h78zM189 700l-74 -700h-110l74 700h110z" />
    <glyph glyph-name="uni01D0" unicode="&#x1d0;" horiz-adv-x="218" 
d="M190 569h-151l-89 131h74l93 -90l112 90h78zM163 520l-55 -520h-108l55 520h108z" />
    <glyph glyph-name="uni01D1" unicode="&#x1d1;" horiz-adv-x="805" 
d="M501 749h-151l-89 131h74l93 -90l112 90h78zM418 710q147 0 244.5 -104t81.5 -261q-11 -101 -70 -183.5t-145 -127t-179 -44.5q-95 0 -173 45.5t-120.5 130.5t-31.5 189q11 101 69.5 183.5t144.5 127t179 44.5zM353 94q101 0 183.5 74.5t94.5 186.5q11 108 -53.5 179.5
t-162.5 71.5q-101 0 -183 -74.5t-94 -186.5q-12 -108 52.5 -179.5t162.5 -71.5z" />
    <glyph glyph-name="uni01D2" unicode="&#x1d2;" horiz-adv-x="608" 
d="M387 569h-151l-89 131h74l93 -90l112 90h78zM303 529q101 0 179 -74t65 -201q-7 -64 -37.5 -116t-73 -83.5t-90 -48t-92.5 -16.5q-47 0 -92 17.5t-82 50t-57 86.5t-13 120q9 83 58.5 146t111.5 91t123 28zM301 433q-65 0 -121.5 -48t-65.5 -131q-8 -78 36 -123t106 -45
q65 0 122 47.5t65 130.5q8 79 -36 124t-106 45z" />
    <glyph glyph-name="uni01D3" unicode="&#x1d3;" horiz-adv-x="635" 
d="M426 749h-151l-89 131h74l93 -90l112 90h78zM486 700h110l-47 -448q-13 -124 -93.5 -195.5t-191.5 -71.5q-113 0 -181.5 73.5t-55.5 197.5l47 444h110l-47 -448q-9 -83 29 -123t101 -40q66 0 115 41.5t57 125.5z" />
    <glyph glyph-name="uni01D4" unicode="&#x1d4;" horiz-adv-x="579" 
d="M373 569h-151l-89 131h74l93 -90l112 90h78zM194 -8q-84 0 -137 57.5t-41 171.5l31 299h108l-31 -297q-15 -136 95 -136q60 0 108 43.5t63 89.5l33 300h108l-55 -520h-108l13 108q-16 -36 -66.5 -76t-120.5 -40z" />
    <glyph glyph-name="uni01EA" unicode="&#x1ea;" horiz-adv-x="805" 
d="M434 -1q-147 -48 -154 -115q-3 -26 22.5 -35t52.5 3l23 -51q-24 -12 -59 -14.5t-69 4.5t-56 31.5t-18 61.5q7 70 128 110q-129 15 -211.5 115.5t-67.5 245.5q11 101 69.5 183.5t144.5 127t179 44.5q147 0 244.5 -104t81.5 -261q-14 -129 -102 -223.5t-208 -122.5z
M138 345q-12 -108 52.5 -179.5t162.5 -71.5q101 0 183.5 74.5t94.5 186.5q11 108 -53.5 179.5t-162.5 71.5q-101 0 -183 -74.5t-94 -186.5z" />
    <glyph glyph-name="uni01EB" unicode="&#x1eb;" horiz-adv-x="608" 
d="M321 -2q-144 -47 -151 -114q-3 -26 22.5 -35t52.5 3l23 -51q-24 -12 -59 -14.5t-69 4.5t-56 31.5t-18 61.5q9 74 135 112q-86 17 -144.5 87t-46.5 181q9 83 58.5 146t111.5 91t123 28q101 0 179 -74t65 -201q-10 -101 -75.5 -167.5t-150.5 -88.5zM114 254q-8 -78 36 -123
t106 -45q65 0 122 47.5t65 130.5q8 79 -36 124t-106 45q-65 0 -121.5 -48t-65.5 -131z" />
    <glyph glyph-name="Scommaaccent" unicode="&#x218;" horiz-adv-x="551" 
d="M294 712q81 0 137 -43.5t79 -104.5l-86 -43q-46 93 -137 93q-53 0 -87.5 -27t-34.5 -72q0 -34 20.5 -56t66.5 -40l47 -18q97 -37 143.5 -82.5t46.5 -113.5q0 -100 -78.5 -160t-180.5 -60q-91 0 -155.5 49t-80.5 125l89 40q14 -51 52.5 -82.5t97.5 -31.5q60 0 101.5 31.5
t41.5 86.5q0 39 -26 61.5t-85 45.5l-46 18q-78 30 -120 72.5t-42 111.5q0 89 70 144.5t167 55.5zM72 -245l80 215h145l-127 -215h-98z" />
    <glyph glyph-name="scommaaccent" unicode="&#x219;" horiz-adv-x="442" 
d="M291 383q-21 59 -77 59q-32 0 -55 -17.5t-26 -44.5q-5 -42 51 -62l55 -20q35 -13 56.5 -24t43.5 -29t30.5 -44.5t4.5 -61.5q-7 -69 -69 -109.5t-138 -40.5q-72 0 -124.5 39.5t-60.5 104.5l88 22q8 -36 33.5 -57.5t64.5 -21.5q37 0 66.5 20.5t33.5 52.5q4 41 -58 65
l-57 21q-135 50 -124 156q7 61 59.5 99.5t122.5 38.5q67 0 110.5 -34t59.5 -91zM14 -245l80 215h145l-127 -215h-98z" />
    <glyph glyph-name="uni021A" unicode="&#x21a;" horiz-adv-x="557" 
d="M62 700h476l-11 -102h-183l-63 -598h-110l63 598h-183zM74 -245l80 215h145l-127 -215h-98z" />
    <glyph glyph-name="uni021B" unicode="&#x21b;" horiz-adv-x="352" 
d="M308 430h-110l-31 -293q-5 -48 33 -48q33 0 71 15l-5 -93q-37 -17 -96 -17q-126 0 -111 143l31 293h-72l9 90h72l13 122h108l-13 -122h110zM14 -245l80 215h145l-127 -215h-98z" />
    <glyph glyph-name="uni0237" unicode="&#x237;" horiz-adv-x="236" 
d="M188 520l-61 -577q-15 -149 -152 -149q-61 0 -101 27l6 103q35 -20 74 -20q61 0 69 72l57 544h108z" />
    <glyph glyph-name="circumflex" unicode="&#x2c6;" horiz-adv-x="357" 
d="M272 700l89 -131h-74l-92 90l-113 -90h-78l117 131h151z" />
    <glyph glyph-name="caron" unicode="&#x2c7;" horiz-adv-x="357" 
d="M260 569h-151l-89 131h74l93 -90l112 90h78z" />
    <glyph glyph-name="breve" unicode="&#x2d8;" horiz-adv-x="303" 
d="M322 698q-7 -56 -49 -97t-113 -41q-69 0 -107.5 44t-33.5 98l68 -4q2 -26 20.5 -44.5t52.5 -18.5q36 0 61 20t33 47z" />
    <glyph glyph-name="dotaccent" unicode="&#x2d9;" horiz-adv-x="122" 
d="M136 700l-10 -92h-112l10 92h112z" />
    <glyph glyph-name="ring" unicode="&#x2da;" horiz-adv-x="203" 
d="M127 790q42 0 69.5 -31.5t23.5 -74.5q-4 -38 -35.5 -66.5t-70.5 -28.5q-45 0 -73 31t-23 74q5 40 36.5 68t72.5 28zM126 722q-14 0 -25.5 -10.5t-13.5 -26.5q-1 -11 6.5 -18.5t18.5 -7.5q14 0 26 10.5t13 25.5q1 11 -6.5 19t-18.5 8z" />
    <glyph glyph-name="ogonek" unicode="&#x2db;" horiz-adv-x="243" 
d="M190 -1q-146 -48 -153 -115q-3 -26 22.5 -35t52.5 3l23 -51q-24 -12 -59 -14.5t-69 4.5t-56 31.5t-18 61.5q8 77 150 117z" />
    <glyph glyph-name="tilde" unicode="&#x2dc;" horiz-adv-x="376" 
d="M129 738q41 0 92 -34.5t73 -34.5q21 0 37.5 10.5t18.5 22.5l45 -4q-5 -51 -37 -83t-79 -32q-32 0 -63 19.5t-57.5 38.5t-48.5 19q-21 0 -38 -13t-18 -28l-43 4q5 51 37 83t81 32z" />
    <glyph glyph-name="hungarumlaut" unicode="&#x2dd;" horiz-adv-x="394" 
d="M219 700l-132 -129h-83l84 129h131zM404 700l-132 -129h-83l84 129h131z" />
    <glyph glyph-name="uni0326" unicode="&#x326;" horiz-adv-x="0" 
d="M-304 -215l80 215h145l-127 -215h-98z" />
    <glyph glyph-name="uni0394" unicode="&#x394;" horiz-adv-x="733" 
d="M398 700l229 -700h-633l377 700h27zM368 520l-222 -425h353z" />
    <glyph glyph-name="uni03A9" unicode="&#x3a9;" horiz-adv-x="779" 
d="M405 707q136 0 233 -102.5t81 -253.5q-16 -144 -139 -248l11 2h77l-11 -105h-220l13 136l38 29q107 78 120 196q12 107 -50 172.5t-156 65.5q-97 0 -174.5 -68.5t-89.5 -179.5q-12 -115 74 -189l34 -26l-13 -136h-220l11 105h80l12 2q-105 108 -90 254q10 98 69 178.5
t141.5 124t168.5 43.5z" />
    <glyph glyph-name="uni03BC" unicode="&#x3bc;" horiz-adv-x="580" 
d="M424 520h108l-55 -520h-108l13 108q-16 -36 -67 -76t-121 -40q-50 0 -89 21l-24 -203h-108l75 710h108l-31 -297q-15 -136 95 -136q60 0 108 43.5t63 89.5z" />
    <glyph glyph-name="pi" unicode="&#x3c0;" horiz-adv-x="703" 
d="M541 89q32 0 72 19l-6 -97q-37 -17 -98 -17q-50 0 -85.5 25t-30.5 77l35 329h-178l-45 -425h-110l45 425h-100l10 95h597l-10 -95h-99l-30 -283q-4 -33 4 -43t29 -10z" />
    <glyph glyph-name="uni0401" unicode="&#x401;" horiz-adv-x="528" 
d="M249 880l-10 -92h-112l10 92h112zM491 880l-10 -92h-112l10 92h112zM124 102h317l-11 -102h-427l74 700h418l-11 -102h-308l-20 -196h237l-11 -100h-237z" />
    <glyph glyph-name="uni0403" unicode="&#x403;" horiz-adv-x="526" 
d="M481 880l-132 -129h-83l84 129h131zM508 700l-11 -102h-321l-63 -598h-110l74 700h431z" />
    <glyph glyph-name="uni0404" unicode="&#x404;" horiz-adv-x="671" 
d="M531 154l63 -81q-103 -83 -242 -83q-95 0 -173.5 45.5t-121.5 130.5t-32 189q11 101 70 183.5t145 127t179 44.5q136 0 227 -85l-71 -73q-65 54 -152 54q-93 0 -171.5 -59t-104.5 -151l186 2l-10 -95l-186 -2q7 -92 70.5 -149.5t154.5 -57.5t169 60z" />
    <glyph glyph-name="uni0406" unicode="&#x406;" horiz-adv-x="226" 
d="M187 700l-74 -700h-110l74 700h110z" />
    <glyph glyph-name="uni0407" unicode="&#x407;" horiz-adv-x="234" 
d="M90 880l-10 -92h-112l10 92h112zM332 880l-10 -92h-112l10 92h112zM191 700l-74 -700h-110l74 700h110z" />
    <glyph glyph-name="uni0410" unicode="&#x410;" horiz-adv-x="755" 
d="M568 0l-48 148h-358l-80 -148h-119l386 700h96l238 -700h-115zM211 239h278l-105 322z" />
    <glyph glyph-name="uni0411" unicode="&#x411;" horiz-adv-x="581" 
d="M284 456q117 0 179.5 -63t51.5 -167q-11 -101 -85 -163.5t-190 -62.5h-237l74 700h431l-11 -102h-321l-15 -142h123zM242 102q69 0 113 34t51 100q7 61 -28.5 92.5t-104.5 31.5h-122l-27 -258h118z" />
    <glyph glyph-name="uni0412" unicode="&#x412;" horiz-adv-x="602" 
d="M402 385q57 -15 93.5 -60t36.5 -107q0 -107 -74 -162.5t-200 -55.5h-255l74 700h246q94 0 144.5 -44.5t50.5 -113.5q0 -56 -31.5 -97t-84.5 -60zM308 603h-131l-20 -183h127q56 0 90 30t34 77q0 76 -100 76zM260 97q77 0 120.5 34.5t43.5 96.5q0 47 -34 74.5t-102 27.5
h-140l-24 -233h136z" />
    <glyph glyph-name="uni0413" unicode="&#x413;" horiz-adv-x="526" 
d="M508 700l-11 -102h-321l-63 -598h-110l74 700h431z" />
    <glyph glyph-name="uni0414" unicode="&#x414;" horiz-adv-x="844" 
d="M655 102h105l-18 -171h-110l7 69h-544l-7 -69h-110l18 171l89 2q31 64 48 164.5t37 293.5l15 138h533zM195 100l350 2l52 496h-313l-4 -40q-15 -140 -22 -199t-23.5 -137t-39.5 -122z" />
    <glyph glyph-name="uni0415" unicode="&#x415;" horiz-adv-x="528" 
d="M124 102h317l-11 -102h-427l74 700h418l-11 -102h-308l-20 -196h237l-11 -100h-237z" />
    <glyph glyph-name="uni0416" unicode="&#x416;" horiz-adv-x="1105" 
d="M898 0l-214 315l-107 -106l-23 -209h-113l23 209l-83 106l-282 -315h-130l349 391l-244 309h134l270 -344l37 344h113l-37 -344l342 344h138l-312 -309l265 -391h-126z" />
    <glyph glyph-name="uni0417" unicode="&#x417;" horiz-adv-x="594" 
d="M310 707q95 0 156.5 -54.5t52.5 -137.5q-5 -51 -45.5 -92t-95.5 -53q57 -3 103.5 -51t38.5 -123q-10 -96 -89.5 -151t-188.5 -55q-111 0 -178 62t-57 155l114 -4q-6 -51 33.5 -80t90.5 -29q59 0 108 29.5t55 87.5q5 51 -36.5 81.5t-124.5 31.5l5 82q78 4 113.5 36.5
t40.5 75.5q4 38 -25.5 61.5t-73.5 23.5q-49 0 -88.5 -28.5t-45.5 -81.5l-113 4q10 97 81 153.5t169 56.5z" />
    <glyph glyph-name="uni0418" unicode="&#x418;" horiz-adv-x="701" 
d="M187 700l-54 -500l443 500h86l-74 -700h-110l54 499l-444 -499h-85l74 700h110z" />
    <glyph glyph-name="uni0419" unicode="&#x419;" horiz-adv-x="701" 
d="M562 878q-7 -56 -49 -97t-113 -41q-69 0 -107.5 44t-33.5 98l68 -4q2 -26 20.5 -44.5t52.5 -18.5q36 0 61 20t33 47zM187 700l-54 -500l443 500h86l-74 -700h-110l54 499l-444 -499h-85l74 700h110z" />
    <glyph glyph-name="uni041A" unicode="&#x41a;" horiz-adv-x="667" 
d="M460 0l-214 315l-107 -106l-23 -209h-113l74 700h113l-37 -344l342 344h138l-312 -309l265 -391h-126z" />
    <glyph glyph-name="uni041B" unicode="&#x41b;" horiz-adv-x="731" 
d="M692 700l-74 -700h-110l63 598h-318l-49 -466q-8 -80 -43 -109t-92 -29q-59 0 -95 19l5 93q32 -17 65 -17q22 0 35.5 15.5t15.5 35.5l59 560h538z" />
    <glyph glyph-name="uni041C" unicode="&#x41c;" horiz-adv-x="854" 
d="M815 700l-74 -700h-113l49 450l-258 -450h-93l-161 449l-49 -449h-113l74 700h108l202 -546l318 546h110z" />
    <glyph glyph-name="uni041D" unicode="&#x41d;" horiz-adv-x="660" 
d="M511 700h110l-74 -700h-110l31 296h-324l-31 -296h-110l74 700h110l-32 -302h324z" />
    <glyph glyph-name="uni041E" unicode="&#x41e;" horiz-adv-x="805" 
d="M418 710q136 0 232 -91.5t96 -233.5q0 -162 -118.5 -278.5t-277.5 -116.5q-136 0 -231.5 91t-95.5 233q0 162 118 279t277 117zM357 94q107 0 191 82t84 202q0 99 -64.5 163.5t-156.5 64.5q-107 0 -190.5 -82.5t-83.5 -202.5q0 -99 64 -163t156 -64z" />
    <glyph glyph-name="uni041F" unicode="&#x41f;" horiz-adv-x="664" 
d="M625 700l-74 -700h-110l63 598h-328l-63 -598h-110l74 700h548z" />
    <glyph glyph-name="uni0420" unicode="&#x420;" horiz-adv-x="579" 
d="M310 700q116 0 178.5 -65.5t51.5 -170.5q-11 -100 -84 -160t-190 -60h-127l-26 -244h-110l74 700h233zM267 340q69 0 113 34t51 100q7 61 -28.5 92.5t-104.5 31.5h-122l-27 -258h118z" />
    <glyph glyph-name="uni0421" unicode="&#x421;" horiz-adv-x="671" 
d="M594 73q-104 -83 -243 -83q-137 0 -232.5 91t-95.5 233q0 162 118.5 279t277.5 117q136 0 227 -85l-75 -73q-64 54 -152 54q-113 0 -198 -83.5t-85 -206.5q0 -97 67 -159.5t163 -62.5q91 0 169 60z" />
    <glyph glyph-name="uni0422" unicode="&#x422;" horiz-adv-x="557" 
d="M538 700l-11 -102h-183l-63 -598h-110l63 598h-183l11 102h476z" />
    <glyph glyph-name="uni0423" unicode="&#x423;" horiz-adv-x="690" 
d="M558 700h123l-457 -700h-122l154 234l-205 466h119l156 -355z" />
    <glyph glyph-name="uni0424" unicode="&#x424;" horiz-adv-x="890" 
d="M509 635q154 -4 245 -85.5t78 -204.5q-13 -119 -118.5 -197.5t-260.5 -82.5l-9 -65h-110l9 65q-153 5 -243 86t-77 204q12 119 117 197.5t259 82.5l9 65h110zM349 160l44 380q-125 -4 -189 -60t-72 -135q-9 -74 42.5 -127.5t174.5 -57.5zM459 160q65 2 115.5 19t81 45.5
t47 61t20.5 69.5q4 35 -5.5 65.5t-33 57.5t-70 43.5t-111.5 18.5z" />
    <glyph glyph-name="uni0425" unicode="&#x425;" horiz-adv-x="689" 
d="M602 0h-128l-151 262l-208 -262h-132l283 357l-199 343h128l144 -248l196 248h132l-271 -343z" />
    <glyph glyph-name="uni0426" unicode="&#x426;" horiz-adv-x="741" 
d="M672 102l-18 -171h-110l7 69h-438h-110l74 700h110l-63 -598h328l63 598h110l-63 -598h110z" />
    <glyph glyph-name="uni0427" unicode="&#x427;" horiz-adv-x="623" 
d="M474 700h110l-74 -700h-110l34 309q-20 -33 -68.5 -65t-113.5 -32q-100 0 -158.5 55.5t-47.5 165.5l28 267h110l-29 -271q-6 -60 27.5 -88.5t87.5 -28.5q61 0 105 34t69 77z" />
    <glyph glyph-name="uni0428" unicode="&#x428;" horiz-adv-x="1102" 
d="M953 700h110l-74 -700h-491h-438h-57l74 700h110l-63 -598h328l63 598h110l-63 -598h328z" />
    <glyph glyph-name="uni0429" unicode="&#x429;" horiz-adv-x="1178" 
d="M1109 102l-18 -171h-109l7 69h-491h-438h-57l74 700h110l-63 -598h328l63 598h110l-63 -598h328l63 598h110l-63 -598h109z" />
    <glyph glyph-name="uni042A" unicode="&#x42a;" horiz-adv-x="686" 
d="M387 456q117 0 179.5 -63t51.5 -167q-11 -101 -85 -163.5t-190 -62.5h-237l63 598h-131l11 102h241l-26 -244h123zM345 102q69 0 113 34t51 100q7 61 -28.5 92.5t-104.5 31.5h-122l-27 -258h118z" />
    <glyph glyph-name="uni042B" unicode="&#x42b;" horiz-adv-x="826" 
d="M284 456q117 0 179.5 -63t51.5 -167q-11 -101 -85 -163.5t-190 -62.5h-237l74 700h110l-26 -244h123zM677 700h110l-74 -700h-110zM242 102q69 0 113 34t51 100q7 61 -28.5 92.5t-104.5 31.5h-122l-27 -258h118z" />
    <glyph glyph-name="uni042C" unicode="&#x42c;" horiz-adv-x="579" 
d="M284 456q117 0 179.5 -63t51.5 -167q-11 -101 -85 -163.5t-190 -62.5h-237l74 700h110l-26 -244h123zM242 102q69 0 113 34t51 100q7 61 -28.5 92.5t-104.5 31.5h-122l-27 -258h118z" />
    <glyph glyph-name="uni042D" unicode="&#x42d;" horiz-adv-x="668" 
d="M294 710q71 0 134.5 -27t108.5 -74.5t68 -116.5t15 -147q-11 -101 -70 -183.5t-145 -127t-179 -44.5q-138 0 -230 87l72 73q62 -56 154 -56q93 0 171.5 59t104.5 152l-185 -2l10 95l185 2q-7 92 -70.5 149t-153.5 57q-89 0 -166 -56l-64 79q104 81 240 81z" />
    <glyph glyph-name="uni042E" unicode="&#x42e;" horiz-adv-x="1023" 
d="M636 710q136 0 232 -91.5t96 -233.5q0 -162 -118.5 -278.5t-277.5 -116.5q-134 0 -228.5 88t-98.5 226h-96l-32 -304h-110l74 700h110l-32 -301h96q30 133 139.5 222t245.5 89zM575 94q107 0 191 82t84 202q0 99 -64.5 163.5t-156.5 64.5q-107 0 -190.5 -82.5
t-83.5 -202.5q0 -99 64 -163t156 -64z" />
    <glyph glyph-name="uni042F" unicode="&#x42f;" horiz-adv-x="623" 
d="M347 700h237l-74 -700h-110l26 244h-136l-191 -244h-120l212 264q-63 25 -94.5 80t-24.5 130q11 101 85 163.5t190 62.5zM314 340h122l27 258h-118q-69 0 -113 -34t-51 -100q-7 -61 28.5 -92.5t104.5 -31.5z" />
    <glyph glyph-name="uni0430" unicode="&#x430;" 
d="M294 529q65 0 109.5 -30.5t52.5 -61.5l10 83h108l-55 -520h-108l10 84q-14 -35 -63 -64.5t-113 -29.5q-93 0 -164.5 63.5t-71.5 176.5q0 124 84 211.5t201 87.5zM298 433q-77 0 -129.5 -56t-52.5 -138q0 -73 44 -113t106 -40q71 0 125 53t54 145q0 71 -43.5 110
t-103.5 39z" />
    <glyph glyph-name="uni0431" unicode="&#x431;" 
d="M327 529q100 0 173.5 -73.5t60.5 -200.5q-5 -52 -25.5 -96t-49 -74.5t-64 -52.5t-72 -32t-72.5 -10q-66 0 -110 31t-51 67l-11 -88h-108l55 522q10 93 59 135.5t151 42.5h91q58 0 77 22l107 -4q-29 -59 -69.5 -83.5t-113.5 -24.5h-88q-97 0 -106 -92l-9 -77
q14 31 63 59.5t112 28.5zM266 86q68 0 125.5 47.5t65.5 131.5q8 79 -36.5 123.5t-109.5 44.5q-67 0 -120.5 -47t-62.5 -131q-9 -81 32.5 -125t105.5 -44z" />
    <glyph glyph-name="uni0432" unicode="&#x432;" horiz-adv-x="570" 
d="M401 286q94 -35 94 -122q0 -83 -66.5 -123.5t-173.5 -40.5h-257l55 520h253q79 0 126 -32.5t47 -88.5q0 -79 -78 -113zM300 430h-148l-12 -112h144q43 0 64 19.5t21 45.5q0 47 -69 47zM261 90q125 0 125 77q0 67 -106 67h-149l-15 -144h145z" />
    <glyph glyph-name="uni0433" unicode="&#x433;" horiz-adv-x="489" 
d="M449 520l-10 -95h-288l-45 -425h-108l55 520h396z" />
    <glyph glyph-name="uni0434" unicode="&#x434;" horiz-adv-x="682" 
d="M544 95h65l-16 -154h-108l6 59h-405l-6 -59h-108l16 154l53 2q33 41 47.5 111t29.5 214l10 98h461zM148 93l288 2l35 330h-245l-1 -7q-10 -99 -16.5 -145.5t-21.5 -99t-39 -80.5z" />
    <glyph glyph-name="uni0435" unicode="&#x435;" horiz-adv-x="595" 
d="M304 529q89 0 161 -60t72 -171q0 -37 -9 -79h-414q4 -67 48 -102.5t110 -35.5q87 0 151 49l54 -58q-77 -82 -212 -82q-103 0 -179.5 64t-76.5 177q0 123 88 210.5t207 87.5zM302 436q-58 0 -109 -36t-69 -102h318q-1 67 -42.5 102.5t-97.5 35.5z" />
    <glyph glyph-name="uni0436" unicode="&#x436;" horiz-adv-x="909" 
d="M701 0l-180 204l-44 -39l-19 -165h-108l19 165l-34 39l-226 -204h-145l305 277l-213 243h136l190 -210l23 210h108l-23 -210l234 210h140l-267 -243l245 -277h-141z" />
    <glyph glyph-name="uni0437" unicode="&#x437;" horiz-adv-x="517" 
d="M251 529q86 0 137.5 -44t44.5 -105q-7 -75 -100 -103q40 -5 75.5 -38t29.5 -91q-8 -73 -76 -115.5t-157 -42.5q-98 0 -154 51t-47 132l102 -4q-4 -39 26.5 -64.5t75.5 -25.5q48 0 85 22.5t41 61.5q4 36 -28 55.5t-94 19.5l4 74q105 1 112 69q3 24 -18 41t-59 17
q-40 0 -69.5 -21t-32.5 -50l-103 4q8 69 63 113t142 44z" />
    <glyph glyph-name="uni0438" unicode="&#x438;" horiz-adv-x="574" 
d="M526 520l-55 -520h-108l35 322l-383 -322h-17l55 520h108l-35 -322l383 322h17z" />
    <glyph glyph-name="uni0439" unicode="&#x439;" horiz-adv-x="574" 
d="M460 698q-7 -56 -49 -97t-113 -41q-69 0 -107.5 44t-33.5 98l68 -4q2 -26 20.5 -44.5t52.5 -18.5q36 0 61 20t33 47zM526 520l-55 -520h-108l35 322l-383 -322h-17l55 520h108l-35 -322l383 322h17z" />
    <glyph glyph-name="uni043A" unicode="&#x43a;" horiz-adv-x="557" 
d="M349 0l-180 204l-44 -39l-19 -165h-108l55 520h108l-23 -210l234 210h140l-267 -243l245 -277h-141z" />
    <glyph glyph-name="uni043B" unicode="&#x43b;" horiz-adv-x="645" 
d="M597 520l-55 -520h-108l45 425h-253l-31 -293q-8 -80 -42.5 -109t-92.5 -29q-55 0 -91 19l9 86q23 -11 54 -11q51 0 56 47l40 385h469z" />
    <glyph glyph-name="uni043C" unicode="&#x43c;" horiz-adv-x="709" 
d="M661 520l-55 -520h-108l29 262l-223 -262l-169 262l-29 -262h-108l55 520h20l243 -368l323 368h22z" />
    <glyph glyph-name="uni043D" unicode="&#x43d;" horiz-adv-x="565" 
d="M409 520h108l-55 -520h-108l22 205h-248l-22 -205h-108l55 520h108l-23 -220h248z" />
    <glyph glyph-name="uni043E" unicode="&#x43e;" horiz-adv-x="609" 
d="M304 529q94 0 170 -65t76 -179q0 -124 -87 -209.5t-208 -85.5q-94 0 -170 65t-76 179q0 124 87 209.5t208 85.5zM262 86q71 0 127 53t56 143q0 71 -45 111t-103 40q-71 0 -127 -53t-56 -143q0 -71 45 -111t103 -40z" />
    <glyph glyph-name="uni043F" unicode="&#x43f;" horiz-adv-x="575" 
d="M527 520l-55 -520h-108l45 425h-258l-45 -425h-108l55 520h474z" />
    <glyph glyph-name="uni0440" unicode="&#x440;" 
d="M327 529q100 0 173.5 -73.5t60.5 -200.5q-5 -52 -25.5 -96t-49 -74.5t-64 -52.5t-72 -32t-72.5 -10q-66 0 -110 31t-51 67l-31 -278h-108l34 317l41 393h108l-9 -79q14 31 63 59.5t112 28.5zM266 86q68 0 125.5 47.5t65.5 131.5q8 79 -36.5 123.5t-109.5 44.5
q-67 0 -120.5 -47t-62.5 -131q-9 -81 32.5 -125t105.5 -44z" />
    <glyph glyph-name="uni0441" unicode="&#x441;" horiz-adv-x="558" 
d="M304 529q73 0 128 -33t83 -95l-87 -34q-41 66 -131 66q-74 0 -128.5 -56.5t-54.5 -141.5q0 -71 44 -110t103 -39q86 0 144 70l83 -42q-83 -123 -233 -123q-44 0 -86.5 15.5t-78.5 44t-58.5 76.5t-22.5 107q0 124 87 209.5t208 85.5z" />
    <glyph glyph-name="uni0442" unicode="&#x442;" horiz-adv-x="458" 
d="M428 520l-10 -95h-145l-45 -425h-108l45 425h-145l10 95h398z" />
    <glyph glyph-name="uni0443" unicode="&#x443;" horiz-adv-x="606" 
d="M473 521h110l-392 -711h-110l117 208l-171 503h106l130 -386z" />
    <glyph glyph-name="uni0444" unicode="&#x444;" horiz-adv-x="1035" 
d="M740 529q100 0 173.5 -73.5t60.5 -200.5q-5 -52 -25.5 -96t-49 -74.5t-64 -52.5t-72 -32t-72.5 -10q-66 0 -110 31t-51 67l-31 -278h-108l30 269q-15 -31 -64 -59.5t-112 -28.5q-100 0 -173.5 73.5t-60.5 200.5q5 52 25.5 96t49 74.5t64 52.5t72 32t72.5 10q66 0 110 -31
t52 -67l30 278h108l-29 -269q14 31 63 59.5t112 28.5zM261 87q56 0 104.5 33.5t68.5 93.5l10 96q-7 61 -45.5 92.5t-92.5 31.5q-68 0 -125 -47.5t-66 -131.5q-8 -79 36.5 -123.5t109.5 -44.5zM679 86q68 0 125.5 47.5t65.5 131.5q8 79 -36.5 123.5t-109.5 44.5
q-56 0 -104.5 -33.5t-67.5 -93.5l-11 -96q7 -61 45.5 -92.5t92.5 -31.5z" />
    <glyph glyph-name="uni0445" unicode="&#x445;" horiz-adv-x="584" 
d="M375 0l-116 187l-158 -187h-127l229 266l-157 254h121l105 -175l143 175h125l-213 -254l171 -266h-123z" />
    <glyph glyph-name="uni0446" unicode="&#x446;" horiz-adv-x="613" 
d="M482 95h61l-17 -164h-108l7 69h-377h-50l55 520h108l-45 -425h258l45 425h108z" />
    <glyph glyph-name="uni0447" unicode="&#x447;" horiz-adv-x="568" 
d="M412 520h108l-55 -520h-108l26 235q-9 -17 -26.5 -35t-60 -38.5t-94.5 -20.5q-80 0 -132 48t-41 152l19 179h108l-20 -184q-9 -99 87 -99q55 0 101 35t70 86z" />
    <glyph glyph-name="uni0448" unicode="&#x448;" horiz-adv-x="793" 
d="M745 520l-55 -520h-692l55 520h108l-45 -425h184l45 425h108l-45 -425h184l45 425h108z" />
    <glyph glyph-name="uni0449" unicode="&#x449;" horiz-adv-x="831" 
d="M761 95l-17 -164h-108l7 69h-645l55 520h108l-45 -425h184l45 425h108l-45 -425h184l45 425h108l-45 -425h61z" />
    <glyph glyph-name="uni044A" unicode="&#x44a;" horiz-adv-x="612" 
d="M352 318q88 0 139 -39t51 -107q0 -80 -60 -126t-160 -46h-278l45 425h-79l10 95h187l-21 -202h166zM328 95q109 0 109 76q0 52 -91 52h-170l-14 -128h166z" />
    <glyph glyph-name="uni044B" unicode="&#x44b;" horiz-adv-x="774" 
d="M306 318q88 0 139 -39t51 -107q0 -80 -60 -126t-160 -46h-278l55 520h108l-21 -202h166zM618 520h108l-55 -520h-108zM282 95q109 0 109 74q0 54 -91 54h-170l-14 -128h166z" />
    <glyph glyph-name="uni044C" unicode="&#x44c;" horiz-adv-x="566" 
d="M306 318q88 0 139 -39t51 -107q0 -80 -60 -126t-160 -46h-278l55 520h108l-21 -202h166zM282 95q109 0 109 74q0 54 -91 54h-170l-14 -128h166z" />
    <glyph glyph-name="uni044D" unicode="&#x44d;" horiz-adv-x="562" 
d="M257 529q46 0 91.5 -17.5t83 -50.5t57 -87t12.5 -120q-8 -84 -57.5 -146t-111 -89.5t-123.5 -27.5q-154 0 -213 127l87 34q40 -65 127 -65q56 0 108 35.5t71 98.5l-147 -2l8 76l148 2q-4 65 -46.5 100.5t-97.5 35.5q-89 0 -146 -70l-83 42q83 124 232 124z" />
    <glyph glyph-name="uni044E" unicode="&#x44e;" horiz-adv-x="810" 
d="M505 529q94 0 170 -65t76 -179q0 -124 -87 -209.5t-208 -85.5q-56 0 -108 23t-91.5 74.5t-45.5 120.5h-83l-22 -208h-108l55 520h108l-22 -212h80q25 97 105 159t181 62zM463 86q71 0 127 53t56 143q0 71 -45 111t-103 40q-71 0 -127 -53t-56 -143q0 -71 45 -111t103 -40
z" />
    <glyph glyph-name="uni044F" unicode="&#x44f;" horiz-adv-x="579" 
d="M531 520l-55 -520h-108l18 169h-106l-174 -169h-127l186 179q-59 15 -92.5 54.5t-33.5 96.5q0 85 65.5 137.5t166.5 52.5h260zM396 264l17 161h-148q-58 0 -89.5 -25.5t-31.5 -65.5q0 -70 100 -70h152z" />
    <glyph glyph-name="uni0451" unicode="&#x451;" horiz-adv-x="595" 
d="M254 700l-10 -92h-112l10 92h112zM496 700l-10 -92h-112l10 92h112zM304 529q89 0 161 -60t72 -171q0 -37 -9 -79h-414q4 -67 48 -102.5t110 -35.5q87 0 151 49l54 -58q-77 -82 -212 -82q-103 0 -179.5 64t-76.5 177q0 123 88 210.5t207 87.5zM302 436q-58 0 -109 -36
t-69 -102h318q-1 67 -42.5 102.5t-97.5 35.5z" />
    <glyph glyph-name="uni0453" unicode="&#x453;" horiz-adv-x="489" 
d="M431 700l-132 -129h-83l84 129h131zM449 520l-10 -95h-288l-45 -425h-108l55 520h396z" />
    <glyph glyph-name="uni0454" unicode="&#x454;" horiz-adv-x="557" 
d="M257 87q89 0 147 69l83 -42q-83 -123 -233 -123q-47 0 -92 17.5t-82 49.5t-57 86t-13 120q9 83 58.5 146t111.5 91t123 28q73 0 128 -33t83 -95l-85 -34q-42 66 -127 66q-57 0 -110 -37.5t-71 -102.5l148 2l-8 -76l-147 -2q6 -62 48 -96t95 -34z" />
    <glyph glyph-name="uni0457" unicode="&#x457;" horiz-adv-x="234" 
d="M71 700l-10 -92h-112l10 92h112zM313 700l-10 -92h-112l10 92h112zM171 520l-55 -520h-108l55 520h108z" />
    <glyph glyph-name="uni0490" unicode="&#x490;" horiz-adv-x="526" 
d="M403 747h110l-10 -98l-6 -51h-321l-63 -598h-110l74 700h321z" />
    <glyph glyph-name="uni0491" unicode="&#x491;" horiz-adv-x="489" 
d="M346 566h108l-15 -141h-288l-45 -425h-108l55 520h288z" />
    <glyph glyph-name="Wgrave" unicode="&#x1e80;" horiz-adv-x="1008" 
d="M392 880h127l56 -129h-79zM1008 700l-302 -700h-76l-127 502l-233 -502h-76l-154 700h113l104 -480l224 480h82l122 -480l206 480h117z" />
    <glyph glyph-name="wgrave" unicode="&#x1e81;" horiz-adv-x="938" 
d="M332 700h127l56 -129h-79zM805 521h110l-250 -521h-99l-108 395l-192 -395h-99l-140 521h106l98 -386l190 386h96l110 -386z" />
    <glyph glyph-name="Wacute" unicode="&#x1e82;" horiz-adv-x="1008" 
d="M701 880l-132 -129h-83l84 129h131zM1008 700l-302 -700h-76l-127 502l-233 -502h-76l-154 700h113l104 -480l224 480h82l122 -480l206 480h117z" />
    <glyph glyph-name="wacute" unicode="&#x1e83;" horiz-adv-x="938" 
d="M641 700l-132 -129h-83l84 129h131zM805 521h110l-250 -521h-99l-108 395l-192 -395h-99l-140 521h106l98 -386l190 386h96l110 -386z" />
    <glyph glyph-name="Wdieresis" unicode="&#x1e84;" horiz-adv-x="1008" 
d="M477 880l-10 -92h-112l10 92h112zM719 880l-10 -92h-112l10 92h112zM1008 700l-302 -700h-76l-127 502l-233 -502h-76l-154 700h113l104 -480l224 480h82l122 -480l206 480h117z" />
    <glyph glyph-name="wdieresis" unicode="&#x1e85;" horiz-adv-x="938" 
d="M417 700l-10 -92h-112l10 92h112zM659 700l-10 -92h-112l10 92h112zM805 521h110l-250 -521h-99l-108 395l-192 -395h-99l-140 521h106l98 -386l190 386h96l110 -386z" />
    <glyph glyph-name="Ygrave" unicode="&#x1ef2;" horiz-adv-x="696" 
d="M237 880h127l56 -129h-79zM687 700l-304 -388l-34 -312h-110l34 312l-222 388h123l162 -288l224 288h127z" />
    <glyph glyph-name="ygrave" unicode="&#x1ef3;" horiz-adv-x="606" 
d="M360 571h-79l-104 129h127zM473 521h110l-392 -711h-110l117 208l-171 503h106l130 -386z" />
    <glyph glyph-name="endash" unicode="&#x2013;" horiz-adv-x="600" 
d="M534 322l-9 -90h-510l9 90h510z" />
    <glyph glyph-name="emdash" unicode="&#x2014;" horiz-adv-x="660" 
d="M594 322l-9 -90h-570l9 90h570z" />
    <glyph glyph-name="quoteleft" unicode="&#x2018;" horiz-adv-x="220" 
d="M215 700l-111 -242h-97l114 242h94z" />
    <glyph glyph-name="quoteright" unicode="&#x2019;" horiz-adv-x="230" 
d="M17 458l111 242h97l-114 -242h-94z" />
    <glyph glyph-name="quotesinglbase" unicode="&#x201a;" horiz-adv-x="293" 
d="M-70 -132l111 242h97l-114 -242h-94z" />
    <glyph glyph-name="quotedblleft" unicode="&#x201c;" horiz-adv-x="365" 
d="M215 700l-111 -242h-97l114 242h94zM360 700l-111 -242h-97l114 242h94z" />
    <glyph glyph-name="quotedblright" unicode="&#x201d;" horiz-adv-x="375" 
d="M17 458l111 242h97l-114 -242h-94zM162 458l111 242h97l-114 -242h-94z" />
    <glyph glyph-name="quotedblbase" unicode="&#x201e;" horiz-adv-x="375" 
d="M-45 -132l111 242h97l-114 -242h-94zM100 -132l111 242h97l-114 -242h-94z" />
    <glyph glyph-name="dagger" unicode="&#x2020;" horiz-adv-x="359" 
d="M314 565l-8 -72h-94l-32 -181h-44l6 181h-95l8 72h90l5 135h98l-23 -135h89z" />
    <glyph glyph-name="daggerdbl" unicode="&#x2021;" horiz-adv-x="359" 
d="M223 565h91l-8 -72h-97l-22 -119h-44l2 119h-98l8 72h92l3 135h98zM182 326l-3 -119h97l-7 -72h-91l-4 -135h-98l26 135h-92l7 72h98l23 119h44z" />
    <glyph glyph-name="bullet" unicode="&#x2022;" horiz-adv-x="187" 
d="M87 234q-29 0 -46 17t-17 46t17 46t46 17t46 -17t17 -46t-17 -46t-46 -17z" />
    <glyph glyph-name="ellipsis" unicode="&#x2026;" horiz-adv-x="690" 
d="M47 -5q-30 0 -46.5 18.5t-13.5 49.5q3 26 20.5 42t44.5 16q30 0 46.5 -18.5t13.5 -49.5q-3 -26 -20.5 -42t-44.5 -16zM294 -5q-30 0 -46.5 18.5t-13.5 49.5q3 26 20.5 42t44.5 16q30 0 46.5 -18.5t13.5 -49.5q-3 -26 -20.5 -42t-44.5 -16zM541 -5q-30 0 -46.5 18.5
t-13.5 49.5q3 26 20.5 42t44.5 16q30 0 46.5 -18.5t13.5 -49.5q-3 -26 -20.5 -42t-44.5 -16z" />
    <glyph glyph-name="perthousand" unicode="&#x2030;" horiz-adv-x="1023" 
d="M174 705q54 0 87.5 -37t27.5 -91q-5 -50 -43.5 -84t-88.5 -34q-54 0 -87.5 37t-27.5 91q5 50 43.5 84t88.5 34zM536 702l81 -55l-501 -647l-82 55zM171 633q-23 0 -39.5 -16t-17.5 -40q-1 -19 12.5 -32.5t33.5 -13.5q23 0 39.5 16t17.5 40q1 19 -12.5 32.5t-33.5 13.5z
M505 241q54 0 87.5 -37t27.5 -91q-5 -50 -43.5 -84t-88.5 -34q-54 0 -87.5 37t-27.5 91q5 50 43.5 84t88.5 34zM830 241q54 0 87.5 -37t27.5 -91q-5 -50 -43.5 -84t-88.5 -34q-54 0 -87.5 37t-27.5 91q5 50 43.5 84t88.5 34zM502 169q-23 0 -39.5 -16t-17.5 -40
q-1 -19 12.5 -32.5t33.5 -13.5q23 0 39.5 16t17.5 40q1 19 -12.5 32.5t-33.5 13.5zM827 169q-23 0 -39.5 -16t-17.5 -40q-1 -19 12.5 -32.5t33.5 -13.5q23 0 39.5 16t17.5 40q1 19 -12.5 32.5t-33.5 13.5z" />
    <glyph glyph-name="guilsinglleft" unicode="&#x2039;" horiz-adv-x="191" 
d="M23 372l142 103l-6 -76l-101 -102l78 -103l-6 -76l-120 103z" />
    <glyph glyph-name="guilsinglright" unicode="&#x203a;" horiz-adv-x="191" 
d="M139 413l-14 -151l-142 -103l6 76l102 103l-78 102l6 76z" />
    <glyph glyph-name="fraction" unicode="&#x2044;" horiz-adv-x="108" 
d="M308 700l-504 -700h-50l510 700h44z" />
    <glyph glyph-name="Euro" unicode="&#x20ac;" horiz-adv-x="737" 
d="M597 154l63 -81q-104 -83 -243 -83q-118 0 -207.5 70t-113.5 183l-82 -2l7 74l68 2q0 23 2 38q0 9 3 19l-67 -2l8 74l77 2q44 117 149 189.5t224 72.5q136 0 227 -85l-72 -73q-64 54 -151 54q-80 0 -150.5 -44.5t-105.5 -117.5l140 2l-8 -74l-158 -2q-1 -3 -3 -25
q-2 -18 -2 -32l157 2l-7 -74l-138 -2q24 -67 81.5 -106t131.5 -39q92 0 170 60z" />
    <glyph glyph-name="trademark" unicode="&#x2122;" horiz-adv-x="565" 
d="M255 700l-4 -40h-63l-15 -140h-45l15 140h-63l4 40h171zM519 700l-19 -180h-45l12 103l-63 -103h-35l-41 103l-12 -103h-45l19 180h44l54 -131l85 131h46z" />
    <glyph glyph-name="oneeighth" unicode="&#x215b;" horiz-adv-x="556" 
d="M120 701l-27 -261h-37l23 221l-17 -11l-16 31l37 20h37zM523 700l-504 -700h-48l510 700h42zM411 263q37 0 56.5 -21t17.5 -48q-4 -34 -36 -52q41 -20 36 -67q-4 -33 -32.5 -55t-65.5 -22q-38 0 -63 23t-21 58q5 44 49 65q-27 21 -24 54q3 26 26 45.5t57 19.5zM412 232
q-20 0 -32.5 -11t-14.5 -27q-2 -14 9 -25.5t26 -11.5q18 0 31.5 12.5t15.5 28.5q2 15 -6 24.5t-29 9.5zM401 126q-23 0 -41.5 -14.5t-20.5 -36.5q-2 -20 12 -33t35 -13q25 0 42 14t20 36q2 21 -11 34t-36 13z" />
    <glyph glyph-name="threeeighths" unicode="&#x215c;" horiz-adv-x="574" 
d="M134 703q33 0 55 -21t19 -49q-3 -32 -35 -52q39 -17 35 -67q-4 -33 -33 -55.5t-66 -22.5q-41 0 -64.5 27.5t-18.5 64.5l38 -2q-2 -24 10 -41t35 -17t41 14t20 36q3 26 -14.5 36t-53.5 10l1 29q64 0 69 44q1 15 -10 25t-28 10q-22 0 -37 -14.5t-18 -41.5l-36 2
q3 38 29 61.5t62 23.5zM542 700l-503 -700h-48l509 700h42zM428 263q37 0 57 -21t17 -48q-4 -34 -35 -52q41 -21 36 -67q-4 -33 -33 -55t-66 -22q-38 0 -63 23t-21 58q5 44 50 65q-28 20 -25 54q3 26 26 45.5t57 19.5zM429 232q-21 0 -33 -11t-14 -27q-2 -14 9 -25.5
t26 -11.5q18 0 31.5 12.5t15.5 28.5q2 15 -6 24.5t-29 9.5zM418 126q-22 0 -40.5 -14.5t-20.5 -36.5q-2 -20 12 -33t35 -13q25 0 42 14t19 36q2 21 -11 34t-36 13z" />
    <glyph glyph-name="fiveeighths" unicode="&#x215d;" horiz-adv-x="576" 
d="M205 701l-3 -32h-104l-15 -58q22 10 45 10q36 0 61.5 -27.5t21.5 -66.5q-4 -38 -34.5 -64.5t-68.5 -26.5q-34 0 -57.5 19t-27.5 44l35 17q-1 -20 13 -34t37 -14q24 0 43 18t22 45q3 24 -11 41t-34 17q-35 0 -61 -30l-32 9l32 133h138zM542 700l-504 -700h-48l510 700h42z
M430 263q37 0 56.5 -21t17.5 -48q-4 -34 -36 -52q41 -20 36 -67q-4 -33 -32.5 -55t-65.5 -22q-38 0 -63 23t-21 58q5 44 49 65q-27 21 -24 54q3 26 26 45.5t57 19.5zM431 232q-21 0 -33 -11t-14 -27q-2 -14 9 -25.5t26 -11.5q18 0 31.5 12.5t15.5 28.5q2 15 -6 24.5t-29 9.5
zM420 126q-23 0 -41.5 -14.5t-20.5 -36.5q-2 -20 12 -33t35 -13q25 0 42 14t20 36q2 21 -11 34t-36 13z" />
    <glyph glyph-name="seveneighths" unicode="&#x215e;" horiz-adv-x="555" 
d="M219 701l-129 -261h-39l113 229h-121l3 32h173zM522 700l-504 -700h-48l510 700h42zM410 263q37 0 56.5 -21t17.5 -48q-4 -34 -36 -52q41 -20 36 -67q-4 -33 -32.5 -55t-65.5 -22q-38 0 -63 23t-21 58q5 44 49 65q-27 21 -24 54q3 26 26 45.5t57 19.5zM411 232
q-21 0 -33 -11t-14 -27q-2 -14 9 -25.5t26 -11.5q18 0 31.5 12.5t15.5 28.5q2 15 -6 24.5t-29 9.5zM400 126q-23 0 -41.5 -14.5t-20.5 -36.5q-2 -20 12 -33t35 -13q25 0 42 14t20 36q2 21 -11 34t-36 13z" />
    <glyph glyph-name="partialdiff" unicode="&#x2202;" horiz-adv-x="537" 
d="M131 700h112l142 -227q51 -81 64 -113q31 -75 23 -150q-9 -95 -85 -157.5t-168 -62.5q-96 0 -160 65t-54 162q10 88 83 153t160 65q39 0 61 -17zM256 340q-56 0 -99.5 -37.5t-49.5 -94.5q-6 -54 27.5 -89t86.5 -35q57 0 100 37.5t49 96.5q5 52 -25.5 87t-88.5 35z" />
    <glyph glyph-name="product" unicode="&#x220f;" horiz-adv-x="708" 
d="M74 800h618l-104 -990h-105l94 890h-408l-94 -890h-105z" />
    <glyph glyph-name="summation" unicode="&#x2211;" horiz-adv-x="678" 
d="M662 800l-10 -100h-413l178 -395l-259 -395h411l-11 -100h-589l328 495l-222 495h587z" />
    <glyph glyph-name="minus" unicode="&#x2212;" horiz-adv-x="425" 
d="M359 322l-9 -90h-335l9 90h335z" />
    <glyph glyph-name="radical" unicode="&#x221a;" horiz-adv-x="776" 
d="M761 800l-370 -990h-125l-131 442h-118l12 120h189l118 -417l315 845h110z" />
    <glyph glyph-name="infinity" unicode="&#x221e;" horiz-adv-x="813" 
d="M587 431q76 0 120 -49t36 -120q-8 -73 -62 -122.5t-130 -49.5q-93 0 -179 106q-106 -106 -200 -106q-76 0 -120.5 49t-36.5 123q8 71 62.5 120t130.5 49q92 0 177 -105q109 105 202 105zM183 177q73 0 141 85q-52 84 -123 84q-38 0 -65.5 -24.5t-31.5 -59.5
q-4 -36 18.5 -60.5t60.5 -24.5zM654 262q4 35 -18.5 59.5t-60.5 24.5q-73 0 -142 -84q52 -85 124 -85q38 0 65.5 24.5t31.5 60.5z" />
    <glyph glyph-name="integral" unicode="&#x222b;" horiz-adv-x="311" 
d="M310 800l-6 -95q-47 0 -64 -23.5t-23 -78.5l-66 -630q-10 -93 -55 -128t-146 -35l6 95q48 0 65 19.5t22 72.5l66 630q10 95 56 134t145 39z" />
    <glyph glyph-name="approxequal" unicode="&#x2248;" horiz-adv-x="479" 
d="M152 434q45 0 103.5 -35t91.5 -35q21 0 37.5 10.5t18.5 23.5l45 -4q-5 -52 -38.5 -83.5t-87.5 -31.5q-44 0 -103.5 39t-95.5 39q-21 0 -38 -13.5t-18 -28.5l-43 4q5 52 38.5 83.5t89.5 31.5zM135 270q45 0 103 -35t91 -35q21 0 38 11t19 23l45 -4q-6 -52 -39.5 -83.5
t-87.5 -31.5q-44 0 -103 39t-95 39q-21 0 -38 -13.5t-18 -28.5l-43 4q5 52 38.5 83.5t89.5 31.5z" />
    <glyph glyph-name="notequal" unicode="&#x2260;" horiz-adv-x="396" 
d="M356 312h-108l-34 -70h135l-10 -90h-170l-75 -152h-95l75 152h-70l10 90h105l34 70h-132l10 90h167l78 159h95l-78 -159h73z" />
    <glyph glyph-name="lessequal" unicode="&#x2264;" horiz-adv-x="418" 
d="M393 593l-10 -93l-230 -125l204 -124l-10 -94l-322 201l4 34zM340 91l-10 -90h-335l10 90h335z" />
    <glyph glyph-name="greaterequal" unicode="&#x2265;" horiz-adv-x="404" 
d="M51 593l322 -201l-4 -34l-364 -201l10 94l230 124l-204 125zM-2 91h335l-10 -90h-335z" />
    <glyph glyph-name="lozenge" unicode="&#x25ca;" horiz-adv-x="552" 
d="M370 700l119 -350l-191 -350h-152l-119 350l191 350h152zM229 81l148 269l-90 269l-148 -269z" />
    <glyph glyph-name="i.loclTRK" horiz-adv-x="213" 
d="M184 700l-10 -92h-112l10 92h112zM163 520l-55 -520h-108l55 520h108z" />
    <glyph glyph-name="f_t" horiz-adv-x="687" 
d="M643 430h-110l-31 -293q-5 -48 33 -48q33 0 71 15l-5 -93q-37 -17 -96 -17q-126 0 -111 143l31 293h-244l-46 -430h-108l46 430h-62l9 90h62l3 32q18 165 180 165q69 0 120 -33l-42 -73q-35 16 -69 16q-72 0 -81 -79l-3 -28h244l13 122h108l-13 -122h110z" />
    <glyph glyph-name="t_t" horiz-adv-x="698" 
d="M654 430h-110l-31 -293q-5 -48 33 -48q33 0 71 15l-5 -93q-37 -17 -96 -17q-126 0 -111 143l31 293h-238l-31 -293q-5 -48 33 -48q33 0 71 15l-5 -93q-37 -17 -96 -17q-126 0 -111 143l31 293h-72l9 90h72l13 122h108l-13 -122h238l13 122h108l-13 -122h110z" />
    <glyph glyph-name="zero.tf" horiz-adv-x="700" 
d="M391 710q111 0 180.5 -79t69.5 -222q0 -114 -36.5 -208t-109.5 -152.5t-171 -58.5q-111 0 -180.5 79t-69.5 223q0 113 37 207t110 152.5t170 58.5zM387 615q-99 0 -153 -96.5t-55 -228.5q0 -91 37.5 -148t111.5 -57q99 0 153.5 96t54.5 227q0 92 -37 149.5t-112 57.5z
" />
    <glyph glyph-name="one.tf" horiz-adv-x="700" 
d="M456 700l-74 -700h-110l64 605h-108l10 95h218z" />
    <glyph glyph-name="two.tf" horiz-adv-x="700" 
d="M388 708q96 0 153.5 -55t57.5 -137q0 -18 -2 -34t-8.5 -33t-11 -29t-18.5 -31t-21.5 -29.5t-29.5 -34.5t-33.5 -36.5t-41 -43.5t-45.5 -48l-98 -100h266l-10 -96h-459l1 18l204 216q13 14 44.5 46.5t43 45t34.5 38.5t32 40.5t21 35t16.5 38t4.5 35.5q0 49 -30.5 72.5
t-72.5 23.5q-49 0 -88.5 -32.5t-45.5 -95.5l-2 -16h-112l2 20q10 96 78 159t171 63z" />
    <glyph glyph-name="three.tf" horiz-adv-x="700" 
d="M177 188q37 -103 145 -103q70 0 116.5 44.5t46.5 112.5q0 56 -38 88.5t-104 32.5q-30 0 -70 -8l177 250h-281l10 95h442l-199 -267q72 -5 121.5 -57t49.5 -131q0 -112 -79.5 -183.5t-195.5 -71.5q-89 0 -148.5 42.5t-81.5 110.5z" />
    <glyph glyph-name="four.tf" horiz-adv-x="700" 
d="M592 266l-10 -95h-75l-18 -171h-110l18 171h-305l9 95l351 434h111l-46 -434h75zM216 266h191l31 284z" />
    <glyph glyph-name="five.tf" horiz-adv-x="700" 
d="M567 700l-10 -95h-267l-44 -169q45 40 129 40q89 0 155.5 -61t66.5 -157q0 -119 -82 -193.5t-194 -74.5q-90 0 -152 41.5t-82 105.5l89 42q13 -37 47.5 -64.5t94.5 -27.5q65 0 117.5 45t52.5 123q0 61 -39.5 95t-92.5 34q-77 0 -136 -61l-91 30l84 347h354z" />
    <glyph glyph-name="six.tf" horiz-adv-x="700" 
d="M556 700l-242 -280q22 15 60 15q85 0 145.5 -60t60.5 -146q0 -105 -74 -172t-181 -67q-89 0 -152 58t-63 148q0 41 10.5 78.5t37 78.5t41 60t51.5 64l190 223h116zM355 340q-63 0 -103 -40.5t-40 -99.5q0 -52 35.5 -84t86.5 -32q61 0 102 41t41 100q0 51 -35.5 83
t-86.5 32z" />
    <glyph glyph-name="seven.tf" horiz-adv-x="700" 
d="M634 700l-358 -700h-109l312 605h-297l10 95h442z" />
    <glyph glyph-name="eight.tf" horiz-adv-x="700" 
d="M488 394q44 -21 72 -64.5t28 -99.5q0 -107 -81 -173.5t-182 -66.5q-92 0 -158 55.5t-66 147.5q0 68 38.5 123t100.5 82q-60 44 -60 119q0 78 60 135.5t153 57.5q84 0 134 -47t50 -118q0 -46 -24 -86t-65 -65zM281 516q0 -36 23 -58.5t62 -22.5q45 0 76 30t31 70
q0 35 -23.5 57t-62.5 22q-46 0 -76 -29t-30 -69zM330 88q60 0 102.5 40t42.5 102q0 50 -33.5 79.5t-82.5 29.5q-62 0 -104 -42.5t-42 -97.5q0 -51 33 -81t84 -30z" />
    <glyph glyph-name="nine.tf" horiz-adv-x="700" 
d="M161 0l242 280q-23 -15 -60 -15q-85 0 -145.5 60t-60.5 146q0 105 74 172t181 67q89 0 152 -58t63 -148q0 -41 -11 -79.5t-35.5 -77.5t-42 -61.5t-51.5 -62.5l-190 -223h-116zM362 360q63 0 103 40.5t40 99.5q0 52 -35.5 84t-86.5 32q-61 0 -102 -41t-41 -100
q0 -51 35.5 -83t86.5 -32z" />
    <glyph glyph-name="zero.dnom" horiz-adv-x="260" 
d="M101 263q47 0 73.5 -35.5t20.5 -91.5l-2 -13q-6 -56 -38 -90.5t-78 -34.5t-72.5 35.5t-21.5 91.5l2 13q6 56 38.5 90.5t77.5 34.5zM102 232q-30 0 -53 -26t-27 -70l-2 -13q-4 -44 11.5 -69t44.5 -25q32 0 54 25.5t26 70.5l2 13q4 45 -11 69.5t-45 24.5z" />
    <glyph glyph-name="one.dnom" horiz-adv-x="122" 
d="M70 261l-28 -261h-37l25 221l-19 -11l-15 31l37 20h37z" />
    <glyph glyph-name="two.dnom" horiz-adv-x="221" 
d="M80 264q35 0 58 -23.5t20 -53.5q-3 -26 -19.5 -47t-58.5 -60l-53 -48h118l-4 -32h-168l4 32l74 70q53 50 61 65q7 11 8 24q2 18 -9.5 30t-29.5 12q-20 0 -36 -13.5t-19 -37.5l-1 -13h-37l2 15q4 35 30 57.5t60 22.5z" />
    <glyph glyph-name="three.dnom" horiz-adv-x="233" 
d="M87 263q33 0 55.5 -21t19.5 -49q-3 -32 -36 -52q17 -7 27.5 -24.5t7.5 -42.5q-4 -33 -32.5 -55.5t-65.5 -22.5q-41 0 -64.5 27.5t-18.5 64.5l37 -2q-2 -24 10 -41t35 -17t41 14t21 36q2 26 -15.5 36t-53.5 10l1 29q64 0 69 44q1 15 -9.5 25t-27.5 10q-22 0 -37 -14.5
t-18 -41.5l-37 2q3 38 29 61.5t62 23.5z" />
    <glyph glyph-name="four.dnom" horiz-adv-x="246" 
d="M167 261l-16 -154h27l-4 -31h-27l-8 -76h-37l8 76h-132l152 185h37zM124 202l-75 -95h65z" />
    <glyph glyph-name="five.dnom" horiz-adv-x="235" 
d="M159 261l-4 -32h-104l-15 -58q23 10 45 10q36 0 61.5 -27.5t21.5 -66.5q-4 -38 -34 -64.5t-68 -26.5q-34 0 -58 19t-27 44l34 17q0 -20 13.5 -34t36.5 -14q24 0 43.5 18t22.5 45q2 24 -12 41t-33 17q-35 0 -61 -30l-32 9l32 133h138z" />
    <glyph glyph-name="six.dnom" horiz-adv-x="223" 
d="M147 261l-78 -96h5q34 0 57.5 -26t20.5 -60q-4 -34 -32 -58.5t-61 -24.5q-35 0 -59.5 26t-20.5 61q1 13 5 23.5t11 22t12 17.5t16.5 19t15.5 18l66 78h42zM73 133q-23 0 -39 -15t-18 -39q-3 -22 10.5 -36.5t31.5 -14.5q19 0 37 15.5t20 39.5q2 22 -11 36t-31 14z" />
    <glyph glyph-name="seven.dnom" horiz-adv-x="223" 
d="M171 261l-130 -261h-39l113 229h-121l4 32h173z" />
    <glyph glyph-name="eight.dnom" horiz-adv-x="233" 
d="M87 263q37 0 56.5 -21t17.5 -48q-4 -34 -36 -52q41 -20 36 -67q-4 -33 -32.5 -55t-65.5 -22q-38 0 -63 23t-21 58q5 44 49 65q-27 21 -24 54q3 26 26 45.5t57 19.5zM88 232q-20 0 -32.5 -11t-14.5 -27q-2 -14 9 -25.5t26 -11.5q18 0 31.5 12.5t15.5 28.5q2 15 -6 24.5
t-29 9.5zM77 126q-23 0 -41.5 -14.5t-20.5 -36.5q-2 -20 12 -33t35 -13q25 0 42 14t20 36q2 21 -11 34t-36 13z" />
    <glyph glyph-name="nine.dnom" horiz-adv-x="224" 
d="M83 264q35 0 59.5 -25.5t20.5 -60.5q-1 -11 -4.5 -21t-7 -17t-11 -17.5t-11 -14.5t-14 -15.5t-13.5 -15.5l-65 -77h-43l78 95h-4q-34 0 -58 26t-21 61q4 34 32 58t62 24zM84 232q-20 0 -38 -15.5t-20 -38.5q-2 -22 11.5 -36.5t31.5 -14.5q23 0 38.5 15t17.5 40
q3 21 -10 35.5t-31 14.5z" />
    <glyph glyph-name="zero.numr" horiz-adv-x="259" 
d="M146 703q47 0 73.5 -35.5t20.5 -91.5l-1 -13q-6 -56 -38 -90.5t-78 -34.5t-73 35.5t-21 91.5l1 13q6 56 38.5 90.5t77.5 34.5zM147 672q-30 0 -53 -26t-27 -70l-1 -13q-5 -44 11 -69t45 -25q32 0 54 25.5t26 70.5l1 13q5 44 -10 69t-46 25z" />
    <glyph glyph-name="one.numr" horiz-adv-x="122" 
d="M116 701l-27 -261h-37l24 221l-18 -11l-16 31l37 20h37z" />
    <glyph glyph-name="two.numr" horiz-adv-x="222" 
d="M127 704q35 0 58 -23.5t20 -53.5q-3 -26 -19.5 -47t-58.5 -60l-53 -48h118l-3 -32h-168l3 32l74 70q5 4 14 12.5t12 11.5t10 9.5t9 9.5t7 8t6.5 7.5t4 7t3.5 7.5l2.5 7.5t1.5 8.5q1 18 -10.5 30t-29.5 12q-20 0 -36 -13.5t-18 -37.5l-2 -13h-37l2 15q4 35 30 57.5
t60 22.5z" />
    <glyph glyph-name="three.numr" horiz-adv-x="232" 
d="M133 703q33 0 55.5 -21t19.5 -49q-3 -32 -36 -52q17 -7 27.5 -24.5t7.5 -42.5q-3 -33 -32 -55.5t-66 -22.5q-41 0 -64.5 27.5t-18.5 64.5l38 -2q-3 -24 9.5 -41t35.5 -17t41 14t20 36q3 26 -14.5 36t-53.5 10l1 29q64 0 68 44q1 15 -9.5 25t-27.5 10q-22 0 -37 -14.5
t-18 -41.5l-37 2q4 38 29.5 61.5t61.5 23.5z" />
    <glyph glyph-name="four.numr" horiz-adv-x="245" 
d="M212 701l-16 -154h27l-3 -31h-27l-8 -76h-37l8 76h-132l151 185h37zM169 642l-75 -95h65z" />
    <glyph glyph-name="five.numr" horiz-adv-x="236" 
d="M205 701l-3 -32h-104l-15 -58q22 10 45 10q36 0 61.5 -27.5t21.5 -66.5q-4 -38 -34.5 -64.5t-68.5 -26.5q-34 0 -57.5 19t-27.5 44l35 17q-1 -20 13 -34t37 -14q24 0 43 18t22 45q3 24 -11 41t-34 17q-35 0 -61 -30l-32 9l32 133h138z" />
    <glyph glyph-name="six.numr" horiz-adv-x="224" 
d="M194 701l-78 -96h5q34 0 58 -26t20 -60t-32 -58.5t-61 -24.5q-35 0 -59.5 26t-20.5 61q1 13 5 23.5t11 22t12 17.5t16.5 19t15.5 18l66 78h42zM121 573q-23 0 -39.5 -15t-18.5 -39q-2 -22 11.5 -36.5t31.5 -14.5q19 0 36.5 15.5t19.5 39.5q3 22 -10 36t-31 14z" />
    <glyph glyph-name="seven.numr" horiz-adv-x="222" 
d="M216 701l-129 -261h-39l113 229h-121l3 32h173z" />
    <glyph glyph-name="eight.numr" horiz-adv-x="233" 
d="M133 703q37 0 57 -21t17 -48q-4 -34 -35 -52q41 -21 35 -67q-3 -33 -31.5 -55t-66.5 -22t-63 23t-21 58q5 44 50 65q-28 20 -25 54q3 26 26 45.5t57 19.5zM134 672q-20 0 -32.5 -11t-14.5 -27q-2 -14 9 -25.5t26 -11.5q18 0 31.5 12.5t15.5 28.5q2 15 -6 24.5t-29 9.5z
M123 566q-22 0 -40.5 -14.5t-21.5 -36.5q-1 -20 13 -33t35 -13q25 0 42 14t19 36q2 21 -11 34t-36 13z" />
    <glyph glyph-name="nine.numr" horiz-adv-x="222" 
d="M128 704q35 0 59.5 -25.5t20.5 -60.5q-1 -13 -4.5 -24t-11 -22t-12.5 -17.5t-16.5 -19.5t-15.5 -18l-65 -77h-43l78 95h-4q-35 0 -59 26.5t-20 60.5t31.5 58t61.5 24zM129 672q-20 0 -37.5 -15.5t-20.5 -38.5q-2 -22 11.5 -36.5t31.5 -14.5q23 0 38.5 15t18.5 40
q2 21 -11 35.5t-31 14.5z" />
    </font>
</defs>
</svg>
