<?xml version="1.0" standalone="no"?>
<!DOCTYPE svg PUBLIC "-//W3C//DTD SVG 1.1//EN" "http://www.w3.org/Graphics/SVG/1.1/DTD/svg11.dtd" >
<svg xmlns="http://www.w3.org/2000/svg" xmlns:xlink="http://www.w3.org/1999/xlink" version="1.1">
<metadata>
Created by FontForge 20170731 at Tue Apr  5 04:38:34 2016
 By Aleksey,,,
(c) 2016 Connary Fagen
</metadata>
<defs>
<font id="VisbyCF-HeavyOblique" horiz-adv-x="635" >
  <font-face 
    font-family="Visby CF Heavy"
    font-weight="900"
    font-style="oblique"
    font-stretch="normal"
    units-per-em="1000"
    panose-1="0 0 10 0 0 0 0 0 0 0"
    ascent="800"
    descent="-200"
    x-height="520"
    cap-height="700"
    bbox="-358 -442 1208 996"
    underline-thickness="50"
    underline-position="-200"
    slope="-6"
    unicode-range="U+0020-FB02"
  />
<missing-glyph horiz-adv-x="495" 
d="M406 800v-990h-314v990h314zM330 734h-164v-33h65v-37h-66v-32h165v32h-66v37h66v33zM264 606h-99v-103h165v34h-66v69zM231 572v-35h-33v35h33zM330 476h-165v-32h66v-37h-66v-33h99v70h66v32zM330 417h-33v-65h-132v-34h165v99zM330 296h-99v-55h33v22h33v-46h-99v79
h-33v-112h165v112zM330 125h-165v-112h165v112zM297 92v-46h-99v46h99zM330 -10h-165v-32h70l-70 -47v-33h165v33h-101l69 47h32v32z" />
    <glyph glyph-name="fi" unicode="fi" horiz-adv-x="637" 
d="M93 539q5 46 22 80t37.5 52.5t48 29t48 13.5t42.5 3q83 0 135 -36l-58 -107q-34 13 -62 13q-49 0 -55 -53l-1 -14h108l-12 -130h-109l-42 -390h-159l43 390h-71l12 130h71zM431 520h158l-55 -520h-158z" />
    <glyph glyph-name="fl" unicode="fl" horiz-adv-x="671" 
d="M93 539q5 46 22 80t37.5 52.5t48 29t48 13.5t42.5 3q83 0 135 -36l-58 -107q-34 13 -62 13q-49 0 -55 -53l-1 -14h108l-12 -130h-109l-42 -390h-159l43 390h-71l12 130h71zM485 707h158l-75 -707h-158z" />
    <glyph glyph-name="f_f" unicode="ff" horiz-adv-x="828" 
d="M698 587q-49 0 -55 -53l-2 -14h109l-13 -130h-108l-43 -390h-158l43 390h-193h-41l-42 -390h-159l43 390h-71l12 130h71l2 19q5 46 22 80t37.5 52.5t48 29t48 13.5t42.5 3q83 0 135 -36l-58 -107q-34 13 -62 13q-49 0 -55 -53l-1 -14h202h31l2 19q5 46 22 80t37.5 52.5
t48 29t47.5 13.5t42 3q82 0 136 -36l-58 -107q-34 13 -62 13z" />
    <glyph glyph-name=".notdef" horiz-adv-x="495" 
d="M406 800v-990h-314v990h314zM330 734h-164v-33h65v-37h-66v-32h165v32h-66v37h66v33zM264 606h-99v-103h165v34h-66v69zM231 572v-35h-33v35h33zM330 476h-165v-32h66v-37h-66v-33h99v70h66v32zM330 417h-33v-65h-132v-34h165v99zM330 296h-99v-55h33v22h33v-46h-99v79
h-33v-112h165v112zM330 125h-165v-112h165v112zM297 92v-46h-99v46h99zM330 -10h-165v-32h70l-70 -47v-33h165v33h-101l69 47h32v32z" />
    <glyph glyph-name=".null" horiz-adv-x="0" 
 />
    <glyph glyph-name="nonmarkingreturn" horiz-adv-x="333" 
 />
    <glyph glyph-name="space" unicode=" " horiz-adv-x="300" 
 />
    <glyph glyph-name="exclam" unicode="!" horiz-adv-x="293" 
d="M254 700l-49 -465h-182l50 465h181zM96 -5q-39 0 -64 29t-20 68q3 32 30 57t61 25q39 0 64.5 -29t20.5 -68q-3 -33 -30.5 -57.5t-61.5 -24.5z" />
    <glyph glyph-name="quotedbl" unicode="&#x22;" horiz-adv-x="540" 
d="M215 700l-18 -175h-161l18 175h161zM504 700l-18 -175h-161l18 175h161z" />
    <glyph glyph-name="numbersign" unicode="#" horiz-adv-x="550" 
d="M491 382h-45l-11 -64h48l-14 -138h-59l-31 -180h-161l32 180h-51l-32 -180h-162l33 180h-29l14 138h39l11 64h-42l14 138h53l31 180h162l-32 -180h50l33 180h161l-33 -180h35zM274 318l11 64h-51l-11 -64h51z" />
    <glyph glyph-name="dollar" unicode="$" horiz-adv-x="579" 
d="M326 418q101 -38 146.5 -87.5t45.5 -114.5q0 -96 -70 -156.5t-167 -72.5l-8 -77h-78l8 77q-79 10 -135 58t-74 116l128 61q32 -76 96 -89l18 168l-10 4q-81 29 -126.5 72.5t-45.5 121.5q0 91 67 147.5t158 64.5l8 80h78l-9 -84q120 -22 181 -142l-125 -66q-32 49 -71 63z
M211 505q0 -23 9 -36t31 -23l13 120q-53 -14 -53 -61zM297 138q55 19 55 76q0 34 -41 56z" />
    <glyph glyph-name="percent" unicode="%" horiz-adv-x="698" 
d="M172 705q55 0 89 -38t28 -93q-5 -48 -42.5 -81.5t-87.5 -33.5q-55 0 -89 38t-28 93q5 48 42.5 81.5t87.5 33.5zM504 703l120 -80l-482 -623l-122 80zM167 604q-11 0 -18 -8.5t-5 -21.5q4 -14 20 -14q12 0 19 9t4 21q-4 14 -20 14zM502 241q55 0 89.5 -38t27.5 -93
q-5 -48 -42 -81.5t-87 -33.5q-55 0 -89.5 38t-27.5 93q5 48 42 81.5t87 33.5zM497 140q-11 0 -17.5 -8.5t-5.5 -21.5q6 -14 21 -14q11 0 18 8.5t5 21.5q-4 14 -21 14z" />
    <glyph glyph-name="ampersand" unicode="&#x26;" horiz-adv-x="780" 
d="M602 182q-5 -32 3 -41t28 -9q34 0 68 17l-7 -133q-32 -22 -84 -22q-58 0 -85.5 32t-26.5 82q-66 -118 -226 -118q-51 0 -96 14.5t-81.5 42.5t-55 76t-12.5 110q9 78 58.5 127.5t110.5 69.5l-101 270h481l-15 -138h-272l91 -238h-52q-54 0 -95.5 -31t-46.5 -75
q-4 -44 24.5 -67t80.5 -23q144 0 157 123l20 183h238l-15 -131h-78z" />
    <glyph glyph-name="quotesingle" unicode="'" horiz-adv-x="231" 
d="M215 700l-18 -175h-161l18 175h161z" />
    <glyph glyph-name="parenleft" unicode="(" horiz-adv-x="360" 
d="M330 742q-120 -187 -148 -430q-25 -253 52 -445l-149 6q-89 194 -59 455q23 241 147 420z" />
    <glyph glyph-name="parenright" unicode=")" horiz-adv-x="361" 
d="M74 748l149 -6q91 -181 63 -430q-25 -255 -151 -445l-157 6q124 198 150 455q26 236 -54 420z" />
    <glyph glyph-name="asterisk" unicode="*" horiz-adv-x="546" 
d="M473 539l-94 -26l56 -85l-120 -69l-49 80l-66 -80l-109 69l72 85l-86 26l43 133l104 -30l8 110h128l-11 -110l104 30z" />
    <glyph glyph-name="plus" unicode="+" horiz-adv-x="419" 
d="M357 329l-10 -96h-120l-13 -119h-96l13 119h-118l10 96h118l13 119h96l-13 -119h120z" />
    <glyph glyph-name="comma" unicode="," horiz-adv-x="227" 
d="M-74 -160l128 278h135l-122 -278h-141z" />
    <glyph glyph-name="hyphen" unicode="-" horiz-adv-x="400" 
d="M336 339l-14 -132h-310l14 132h310z" />
    <glyph glyph-name="period" unicode="." horiz-adv-x="249" 
d="M75 -5q-38 0 -63.5 28.5t-21.5 68.5q4 33 31 57.5t61 24.5q38 0 63.5 -28.5t21.5 -68.5q-4 -33 -31 -57.5t-61 -24.5z" />
    <glyph glyph-name="slash" unicode="/" horiz-adv-x="586" 
d="M571 745l-432 -875h-169l432 875h169z" />
    <glyph glyph-name="zero" unicode="0" horiz-adv-x="667" 
d="M347 710q115 0 188.5 -78.5t73.5 -225.5q0 -178 -88 -297t-237 -119q-113 0 -187 79.5t-74 227.5q0 113 38 206t113 150t173 57zM340 572q-55 0 -93.5 -42.5t-54.5 -103t-17 -134.5q0 -42 8.5 -76t36 -61t71.5 -27q82 0 123.5 81.5t41.5 195.5q0 167 -116 167z" />
    <glyph glyph-name="one" unicode="1" horiz-adv-x="406" 
d="M354 700l-74 -700h-161l60 564h-123l14 136h284z" />
    <glyph glyph-name="two" unicode="2" horiz-adv-x="583" 
d="M306 707q108 0 168 -59t60 -145q0 -19 -1 -34t-6.5 -31.5l-9 -27t-16 -29t-19 -28t-27.5 -33.5t-32 -36t-41.5 -45t-47.5 -51l-47 -49h211l-14 -139h-497v21l200 216q7 7 36 37.5t38.5 41t32.5 36.5t32 40t22 35.5t18 38.5t5 33q0 27 -13.5 43t-27 19.5t-28.5 3.5
q-34 0 -62.5 -22t-32.5 -74l-3 -17h-165l2 23q10 98 80 165t185 67z" />
    <glyph glyph-name="three" unicode="3" horiz-adv-x="602" 
d="M128 215q37 -87 120 -87q54 0 88.5 34t34.5 87q0 43 -29.5 70.5t-86.5 27.5q-32 0 -87 -12l150 227h-242l14 138h474l-184 -254q65 -11 107.5 -65.5t42.5 -127.5q0 -113 -82 -188t-206 -75q-92 0 -154 42.5t-89 112.5z" />
    <glyph glyph-name="four" unicode="4" horiz-adv-x="614" 
d="M549 286l-14 -137h-75l-16 -149h-161l16 149h-298l13 137l341 414h163l-44 -414h75zM180 286h133l23 202z" />
    <glyph glyph-name="five" unicode="5" horiz-adv-x="600" 
d="M503 700l-14 -138h-243l-28 -98q-2 -3 2 -2q49 18 89 18q91 0 160 -62t69 -160q0 -122 -84 -195t-198 -73q-92 0 -160 41.5t-89 107.5l130 63q31 -72 114 -72q18 0 38 5.5t41 18t34.5 38.5t13.5 62q0 50 -30 71.5t-69 21.5q-55 0 -101 -42l-130 45l84 350h371z" />
    <glyph glyph-name="six" unicode="6" horiz-adv-x="557" 
d="M505 700l-231 -257q-3 -1 2 -2l8 -1q83 0 145 -63.5t62 -148.5q0 -109 -74.5 -173.5t-186.5 -64.5q-90 0 -157 60t-67 152q0 71 33 129.5t103 143.5l196 225h167zM253 303q-44 0 -71 -28.5t-27 -65.5q0 -38 25.5 -60.5t62.5 -22.5q49 0 73.5 28t24.5 65q0 36 -23.5 60
t-64.5 24z" />
    <glyph glyph-name="seven" unicode="7" horiz-adv-x="537" 
d="M523 700l-368 -700h-159l301 562h-262l14 138h474z" />
    <glyph glyph-name="eight" unicode="8" horiz-adv-x="598" 
d="M437 399q39 -20 64.5 -63.5t25.5 -97.5q0 -75 -43.5 -133.5t-106 -86.5t-128.5 -28q-97 0 -169 58.5t-72 157.5q0 66 36 119.5t93 79.5q-46 44 -46 107q0 78 61 138t161 60q90 0 143 -49.5t53 -123.5q0 -82 -72 -138zM238 512q0 -53 53 -53q31 0 49 18.5t18 42.5
q0 25 -16 38t-39 13q-27 0 -46 -16.5t-19 -42.5zM257 131q45 0 74.5 31t29.5 76q0 39 -24.5 60t-57.5 21q-49 0 -77.5 -34t-28.5 -70q0 -40 23 -62t61 -22z" />
    <glyph glyph-name="nine" unicode="9" horiz-adv-x="567" 
d="M31 1l231 257q3 1 -2 2q-3 1 -8 1q-83 0 -145 63.5t-62 148.5q0 109 74.5 173.5t186.5 64.5q90 0 157 -60t67 -152q0 -72 -34 -133t-102 -140l-196 -225h-167zM283 397q44 0 71 28.5t27 65.5q0 39 -25.5 61.5t-62.5 22.5q-49 0 -73.5 -28t-24.5 -65q0 -36 24 -60.5
t64 -24.5z" />
    <glyph glyph-name="colon" unicode=":" horiz-adv-x="279" 
d="M127 342q-38 0 -63.5 28.5t-21.5 68.5q2 32 30.5 57t62.5 25q38 0 63 -28.5t21 -68.5q-4 -33 -31 -57.5t-61 -24.5zM90 -5q-38 0 -63.5 28.5t-21.5 68.5q4 33 31 57.5t61 24.5q38 0 63.5 -28.5t21.5 -68.5q-4 -33 -31 -57.5t-61 -24.5z" />
    <glyph glyph-name="semicolon" unicode=";" horiz-adv-x="291" 
d="M154 342q-38 0 -63.5 28.5t-21.5 68.5q2 32 30 57t62 25q39 0 64 -28.5t21 -68.5q-4 -33 -31 -57.5t-61 -24.5zM-74 -160l128 278h135l-122 -278h-141z" />
    <glyph glyph-name="less" unicode="&#x3c;" horiz-adv-x="491" 
d="M454 481l-16 -148l-200 -93l180 -91l-15 -149l-393 216l5 49z" />
    <glyph glyph-name="equal" unicode="=" horiz-adv-x="394" 
d="M367 425l-14 -133h-335l14 133h335zM349 253l-14 -132h-335l14 132h335z" />
    <glyph glyph-name="greater" unicode="&#x3e;" horiz-adv-x="493" 
d="M29 481l395 -216l-5 -49l-441 -216l15 149l202 91l-182 93z" />
    <glyph glyph-name="question" unicode="?" horiz-adv-x="566" 
d="M304 707q101 0 169.5 -61.5t56.5 -162.5q-4 -39 -17.5 -66.5t-30.5 -41.5t-36 -28t-35.5 -26.5t-28.5 -36t-14 -56.5v2h-162l-1 3q2 50 19 84t40.5 52.5t47 34t41 39t20.5 56.5q0 7 -1.5 15t-8 22.5t-23.5 24t-43 9.5q-27 0 -47 -10.5t-30.5 -27.5t-15 -28.5t-6.5 -23.5
h-159q11 107 86 167t179 60zM276 -5q-39 0 -64 29t-20 68q4 33 31 57.5t60 24.5q39 0 64.5 -29t20.5 -68q-3 -33 -30.5 -57.5t-61.5 -24.5z" />
    <glyph glyph-name="at" unicode="@" horiz-adv-x="804" 
d="M428 710q130 0 225 -86t95 -222q0 -101 -50 -161.5t-136 -60.5q-20 0 -36.5 2.5t-27 6.5t-19 8.5t-13 9t-7 8.5t-3.5 7l-1 2q0 -3 -7.5 -12.5t-29 -20t-49.5 -10.5q-60 0 -103.5 40.5t-43.5 113.5q0 52 19 90.5t48 56.5t55 26t49 8q13 0 35 -6.5t28 -13.5l19 14h84
l-21 -189q-1 -3 -1 -6q0 -23 24 -23q27 0 38.5 37t11.5 77q0 81 -53.5 129.5t-130.5 48.5q-112 0 -188.5 -72.5t-76.5 -188.5q0 -92 59.5 -149.5t136.5 -57.5q29 0 51 3t40 10t26 11t23.5 15.5t18.5 13.5l113 -55q-45 -58 -115.5 -91t-150.5 -33q-87 0 -164 41.5t-126.5 120
t-49.5 176.5q0 107 59 196t151 137.5t194 48.5zM391 396q-47 0 -47 -59q0 -36 32 -36q19 0 34 14t15 50q0 13 -8.5 22t-25.5 9z" />
    <glyph glyph-name="A" unicode="A" horiz-adv-x="804" 
d="M565 0l-36 116h-330l-62 -116h-174l385 700h147l237 -700h-167zM268 247h216l-80 258z" />
    <glyph glyph-name="B" unicode="B" 
d="M443 388q50 -17 86 -60.5t36 -106.5q0 -108 -73.5 -164.5t-200.5 -56.5h-288l74 700h263q99 0 152 -47t53 -119q0 -104 -102 -146zM317 560h-93l-15 -125h87q43 0 65 21t22 55q0 49 -66 49zM292 140q55 0 85.5 27t30.5 70q0 69 -102 69h-110l-16 -166h112z" />
    <glyph glyph-name="C" unicode="C" horiz-adv-x="677" 
d="M603 72q-101 -82 -246 -82q-143 0 -238.5 90.5t-95.5 233.5q0 166 117.5 281t281.5 115q141 0 230 -86l-109 -105q-53 40 -121 40q-95 0 -164 -66t-70 -176q0 -78 53.5 -127t136.5 -49q76 0 140 50z" />
    <glyph glyph-name="D" unicode="D" horiz-adv-x="713" 
d="M334 700q148 0 241.5 -103.5t79.5 -248.5q-16 -146 -128.5 -247t-260.5 -101h-263l74 700h257zM275 152q92 0 150 60t67 151q9 77 -35 131t-134 54h-101l-42 -396h95z" />
    <glyph glyph-name="E" unicode="E" horiz-adv-x="550" 
d="M180 148h287l-16 -148h-448l74 700h439l-16 -148h-278l-12 -127h208l-16 -145h-209z" />
    <glyph glyph-name="F" unicode="F" horiz-adv-x="541" 
d="M511 553h-284l-15 -133h234l-14 -137h-234l-29 -283h-166l74 700h450z" />
    <glyph glyph-name="G" unicode="G" horiz-adv-x="760" 
d="M395 377h303q8 -174 -91.5 -280.5t-248.5 -106.5q-143 0 -239 90.5t-96 233.5q0 166 117.5 281t281.5 115q141 0 230 -86l-109 -105q-53 40 -121 40q-95 0 -164 -66t-70 -176q0 -76 51 -126t129 -50q134 0 169 102h-156z" />
    <glyph glyph-name="H" unicode="H" horiz-adv-x="703" 
d="M503 700h161l-74 -700h-161l28 277h-265l-28 -277h-161l74 700h161l-29 -275h264z" />
    <glyph glyph-name="I" unicode="I" horiz-adv-x="277" 
d="M238 700l-74 -700h-161l74 700h161z" />
    <glyph glyph-name="J" unicode="J" horiz-adv-x="566" 
d="M527 700l-49 -466q-7 -66 -37 -116t-72.5 -77t-84 -40t-80.5 -13q-143 0 -219 100l106 113q49 -58 108 -58q15 0 31 4.5t36 15.5t35 36.5t19 62.5l46 438h161z" />
    <glyph glyph-name="K" unicode="K" horiz-adv-x="720" 
d="M457 0l-173 294l-93 -96l-22 -198h-166l74 700h166l-32 -287l270 287h200l-288 -295l245 -405h-181z" />
    <glyph glyph-name="L" unicode="L" horiz-adv-x="518" 
d="M180 148h266l-16 -148h-427l74 700h161z" />
    <glyph glyph-name="M" unicode="M" horiz-adv-x="871" 
d="M832 700l-74 -700h-166l38 332l-180 -332h-139l-104 330l-38 -330h-166l74 700h157l169 -476l268 476h161z" />
    <glyph glyph-name="N" unicode="N" horiz-adv-x="728" 
d="M528 700h161l-74 -700h-121l-285 407l-45 -407h-161l74 700h123l283 -407z" />
    <glyph glyph-name="O" unicode="O" horiz-adv-x="813" 
d="M420 710q143 0 238.5 -91t95.5 -235q0 -109 -54.5 -200t-146 -142.5t-198.5 -51.5q-143 0 -237.5 90t-94.5 234q0 166 117 281t280 115zM367 141q84 0 151.5 62.5t67.5 167.5q0 82 -50 135t-128 53q-85 0 -151 -63t-66 -170q0 -81 49 -133t127 -52z" />
    <glyph glyph-name="P" unicode="P" horiz-adv-x="601" 
d="M323 700q118 0 184 -68t53 -181q-10 -103 -86 -162.5t-195 -59.5h-91l-24 -229h-161l74 700h246zM277 366q115 0 124 100q6 46 -20.5 66t-78.5 20h-80l-19 -186h74z" />
    <glyph glyph-name="Q" unicode="Q" horiz-adv-x="813" 
d="M754 384q0 -162 -116 -278l68 -106h-186l-13 20q-74 -30 -152 -30q-143 0 -237.5 90t-94.5 234q0 166 117 281t280 115q143 0 238.5 -91t95.5 -235zM367 141q28 0 58 8l-109 172h186l49 -77q35 54 35 127q0 82 -50 135t-128 53q-85 0 -151 -63t-66 -170q0 -81 49 -133
t127 -52z" />
    <glyph glyph-name="R" unicode="R" horiz-adv-x="653" 
d="M561 0h-166l-117 229h-90l-24 -229h-161l74 700h246q118 0 184 -68t53 -181q-14 -135 -134 -196zM203 366h74q115 0 124 100q6 46 -20.5 66t-78.5 20h-80z" />
    <glyph glyph-name="S" unicode="S" horiz-adv-x="579" 
d="M305 712q156 0 232 -147l-125 -66q-26 38 -53 54.5t-66 16.5q-34 0 -58 -17.5t-24 -47.5q0 -27 14 -41t49 -27l45 -16q105 -39 152 -89t47 -116q0 -107 -85 -169t-192 -62q-93 0 -160 50t-87 126l128 61q38 -92 124 -92q46 0 76 21t30 63q0 25 -18.5 41t-68.5 35l-39 15
q-81 29 -126.5 72.5t-45.5 121.5q0 66 38.5 116t94.5 73.5t118 23.5z" />
    <glyph glyph-name="T" unicode="T" horiz-adv-x="573" 
d="M554 700l-16 -148h-165l-58 -552h-161l58 552h-165l16 148h491z" />
    <glyph glyph-name="U" unicode="U" horiz-adv-x="661" 
d="M461 700h161l-47 -449q-13 -123 -98 -194.5t-199 -71.5q-118 0 -191.5 74.5t-60.5 197.5l47 443h161l-47 -450q-7 -64 22.5 -89t73.5 -25q48 0 86.5 27.5t44.5 92.5z" />
    <glyph glyph-name="V" unicode="V" horiz-adv-x="809" 
d="M635 700h175l-385 -700h-147l-237 700h168l161 -505z" />
    <glyph glyph-name="W" unicode="W" horiz-adv-x="1049" 
d="M1050 700l-305 -700h-118l-113 418l-199 -418h-118l-156 700h166l85 -388l186 388h127l105 -388l166 388h174z" />
    <glyph glyph-name="X" unicode="X" horiz-adv-x="726" 
d="M639 0h-186l-116 213l-162 -213h-192l272 353l-194 347h186l114 -207l157 207h192l-266 -347z" />
    <glyph glyph-name="Y" unicode="Y" horiz-adv-x="756" 
d="M747 700l-311 -408l-33 -292h-161l33 292l-224 408h178l138 -262l194 262h186z" />
    <glyph glyph-name="Z" unicode="Z" horiz-adv-x="631" 
d="M617 700l-367 -562h309l-14 -138h-567l366 562h-288l15 138h546z" />
    <glyph glyph-name="bracketleft" unicode="[" horiz-adv-x="323" 
d="M302 745l-15 -138h-71l-63 -599h72l-16 -138h-232l92 875h233z" />
    <glyph glyph-name="backslash" unicode="\" horiz-adv-x="578" 
d="M62 745h162l248 -875h-162z" />
    <glyph glyph-name="bracketright" unicode="]" horiz-adv-x="322" 
d="M68 745h233l-92 -875h-233l15 138h72l62 599h-71z" />
    <glyph glyph-name="asciicircum" unicode="^" horiz-adv-x="506" 
d="M311 700l143 -225h-103l-92 82l-111 -82h-110l191 225h82z" />
    <glyph glyph-name="underscore" unicode="_" horiz-adv-x="590" 
d="M490 0l-15 -138h-500l15 138h500z" />
    <glyph glyph-name="grave" unicode="`" horiz-adv-x="260" 
d="M27 700h185l51 -129h-117z" />
    <glyph glyph-name="a" unicode="a" 
d="M429 520h158l-55 -520h-158l6 48q-10 -19 -47.5 -38.5t-88.5 -19.5q-92 0 -163 63t-71 178q0 124 82 211t198 87q38 0 69 -13t44.5 -25t17.5 -21zM280 129q18 0 38 6.5t41.5 21.5t35.5 46t14 74q0 53 -33 83t-80 30q-57 0 -93.5 -40.5t-36.5 -104.5q0 -56 31.5 -86
t82.5 -30z" />
    <glyph glyph-name="b" unicode="b" horiz-adv-x="629" 
d="M343 529q88 0 157.5 -65t69.5 -182q0 -119 -82.5 -205.5t-198.5 -86.5q-49 0 -84 21t-45 42l-8 -53h-158l75 707h158l-27 -232q5 8 20 19t49 23t74 12zM278 129q31 0 60 12t53.5 47.5t24.5 89.5t-32 83t-78 29q-62 0 -97.5 -42.5t-35.5 -108.5q0 -52 31 -81t74 -29z" />
    <glyph glyph-name="c" unicode="c" horiz-adv-x="565" 
d="M307 529q153 0 213 -127l-124 -51q-43 39 -97 39q-55 0 -95.5 -41.5t-40.5 -109.5q0 -52 31.5 -81t76.5 -29q24 0 45.5 8t29.5 14t30 23l119 -63q-86 -119 -234 -119q-96 0 -173.5 64.5t-77.5 181.5q0 123 88 207t209 84z" />
    <glyph glyph-name="d" unicode="d" 
d="M449 707h158l-75 -707h-158l6 48q-10 -19 -47.5 -38.5t-88.5 -19.5q-92 0 -163 63t-71 178q0 124 82 211t198 87q53 0 88 -21.5t43 -37.5zM280 129q18 0 38 6.5t41.5 21.5t35.5 46t14 74q0 53 -33 83t-80 30q-57 0 -93.5 -40.5t-36.5 -104.5q0 -56 31.5 -86t82.5 -30z
" />
    <glyph glyph-name="e" unicode="e" horiz-adv-x="599" 
d="M308 529q41 0 80.5 -13.5t74 -40t56 -72.5t21.5 -105q0 -49 -11 -96h-367q24 -81 122 -81q16 0 31 1.5t23.5 3t21.5 6.5t16 6t17.5 8t15.5 8l76 -85q-82 -79 -213 -79q-103 0 -182.5 65t-79.5 179q0 122 89.5 208.5t208.5 86.5zM305 394q-89 0 -128 -81h227
q-17 81 -99 81z" />
    <glyph glyph-name="f" unicode="f" horiz-adv-x="437" 
d="M306 587q-49 0 -55 -53l-1 -14h108l-12 -130h-109l-42 -390h-159l43 390h-71l12 130h71l2 19q5 46 22 80t37.5 52.5t48 29t48 13.5t42.5 3q83 0 135 -36l-58 -107q-34 13 -62 13z" />
    <glyph glyph-name="g" unicode="g" 
d="M429 520h158l-55 -520q-6 -57 -36 -99.5t-74 -64.5t-89.5 -32t-91.5 -10q-88 0 -139 27l10 127q41 -23 131 -23q63 0 94.5 23.5t36.5 51.5l6 48q-10 -19 -47.5 -38.5t-88.5 -19.5q-92 0 -163 63t-71 178q0 124 82 211t198 87q38 0 69 -13t44.5 -25t17.5 -21zM280 129
q18 0 38 6.5t41.5 21.5t35.5 46t14 74q0 53 -33 83t-80 30q-57 0 -93.5 -40.5t-36.5 -104.5q0 -56 31.5 -86t82.5 -30z" />
    <glyph glyph-name="h" unicode="h" horiz-adv-x="613" 
d="M367 528q81 0 133.5 -58t40.5 -174l-32 -296h-158l31 289q12 102 -64 102q-49 0 -85.5 -34t-47.5 -68l-33 -289h-158l75 707h158l-30 -274q14 29 59.5 62t110.5 33z" />
    <glyph glyph-name="i" unicode="i" horiz-adv-x="255" 
d="M227 707l-14 -133h-158l14 133h158zM207 520l-55 -520h-158l55 520h158z" />
    <glyph glyph-name="j" unicode="j" horiz-adv-x="274" 
d="M246 707l-14 -133h-158l14 133h158zM226 520l-60 -569q-8 -77 -54.5 -117t-119.5 -40q-67 0 -117 27l9 151q33 -16 72 -16q49 0 59 54l53 510h158z" />
    <glyph glyph-name="k" unicode="k" horiz-adv-x="599" 
d="M356 0l-145 202l-39 -34l-20 -168h-158l20 189l55 518h158l-39 -348l164 161h193l-230 -214l217 -306h-176z" />
    <glyph glyph-name="l" unicode="l" horiz-adv-x="255" 
d="M227 707l-75 -707h-158l75 707h158z" />
    <glyph glyph-name="m" unicode="m" horiz-adv-x="1001" 
d="M740 528q92 0 146.5 -63t41.5 -188l-30 -277h-158l31 278q10 113 -85 113q-44 0 -79.5 -32t-51.5 -73l-30 -286h-158l30 278q5 50 -18 81.5t-65 31.5q-49 0 -84 -29.5t-48 -75.5l-30 -286h-158l55 520h158l-10 -92q6 27 50.5 63.5t110.5 36.5q58 0 106.5 -30.5
t74.5 -82.5q19 37 71.5 75t129.5 38z" />
    <glyph glyph-name="n" unicode="n" horiz-adv-x="613" 
d="M367 528q81 0 133.5 -58t40.5 -174l-32 -296h-158l31 289q12 102 -64 102q-49 0 -85.5 -34t-47.5 -68l-33 -289h-158l55 520h158l-10 -87q14 29 59.5 62t110.5 33z" />
    <glyph glyph-name="o" unicode="o" horiz-adv-x="620" 
d="M308 529q97 0 175 -66t78 -182q0 -124 -87.5 -207.5t-210.5 -83.5q-97 0 -175 66t-78 182q0 124 87.5 207.5t210.5 83.5zM271 129q58 0 97.5 40t39.5 107q0 54 -33 84t-75 30q-58 0 -97.5 -40t-39.5 -107q0 -54 33 -84t75 -30z" />
    <glyph glyph-name="p" unicode="p" horiz-adv-x="631" 
d="M336 529q101 0 173.5 -73.5t59.5 -202.5q-9 -85 -55 -147t-104 -89t-119 -27q-56 0 -91 22.5t-40 42.5l-28 -245h-158l32 301l43 409h158l-7 -45q13 16 49.5 35t86.5 19zM417 268q7 57 -24 89.5t-83 32.5q-53 0 -92.5 -36.5t-46.5 -100.5q-6 -59 22.5 -91.5t76.5 -32.5
q56 0 98.5 37t48.5 102z" />
    <glyph glyph-name="q" unicode="q" 
d="M429 520h158l-55 -520l-20 -190h-158l26 238q-10 -18 -47.5 -38t-88.5 -20q-94 0 -164 63t-70 179q0 123 82 210t198 87q38 0 69 -13t44.5 -25t17.5 -21zM270 129q21 0 42.5 6.5t44.5 22.5t37.5 49t14.5 79q0 50 -27.5 77t-71.5 27q-64 0 -106 -44t-42 -110q0 -51 30 -79
t78 -28z" />
    <glyph glyph-name="r" unicode="r" horiz-adv-x="447" 
d="M378 528q22 0 47 -5l-16 -149q-13 3 -34 3q-74 0 -130.5 -48t-69.5 -120l-23 -209h-158l55 520h158l-15 -122q28 61 75.5 95.5t110.5 34.5z" />
    <glyph glyph-name="s" unicode="s" horiz-adv-x="475" 
d="M283 359q-14 45 -56 45q-20 0 -33 -12t-13 -26q0 -13 6.5 -20t23.5 -14l63 -23q26 -10 39.5 -16t35 -18.5t32.5 -26t19.5 -34.5t8.5 -47q0 -83 -66.5 -130t-159.5 -47q-76 0 -133 41t-67 108l127 33q20 -58 78 -58q28 0 46 13.5t18 29.5q0 21 -27 33l-58 22
q-71 26 -105.5 63t-34.5 91q0 71 58 117t139 46q78 0 126 -38t64 -103z" />
    <glyph glyph-name="t" unicode="t" horiz-adv-x="403" 
d="M356 390h-111l-23 -210q-6 -48 35 -48q25 0 76 7l-11 -128q-40 -17 -112 -17q-78 0 -117.5 41t-28.5 151l23 204h-73l12 130h73l13 122h158l-13 -122h111z" />
    <glyph glyph-name="u" unicode="u" horiz-adv-x="610" 
d="M194 -8q-83 0 -136 58.5t-41 173.5l30 296h158l-30 -289q-6 -57 8 -79t51 -22q49 0 86.5 34.5t50.5 66.5l33 289h158l-55 -520h-158l12 87q-17 -30 -61 -62.5t-106 -32.5z" />
    <glyph glyph-name="v" unicode="v" horiz-adv-x="655" 
d="M632 522l-288 -522h-139l-178 522h154l112 -334l178 334h161z" />
    <glyph glyph-name="w" unicode="w" horiz-adv-x="954" 
d="M770 522h161l-240 -522h-153l-79 337l-149 -337h-152l-131 522h154l73 -334l153 334h137l86 -334z" />
    <glyph glyph-name="x" unicode="x" horiz-adv-x="637" 
d="M372 0l-89 152l-125 -152h-185l227 267l-148 253h175l75 -139l104 139h182l-206 -253l168 -267h-178z" />
    <glyph glyph-name="y" unicode="y" horiz-adv-x="655" 
d="M472 522h160l-393 -712h-161l120 210l-171 502h154l112 -334z" />
    <glyph glyph-name="z" unicode="z" horiz-adv-x="552" 
d="M529 520l-291 -382h232l-15 -138h-487l291 382h-226l15 138h481z" />
    <glyph glyph-name="braceleft" unicode="{" horiz-adv-x="366" 
d="M345 745l-14 -138h-32q-17 0 -29 -8.5t-13 -23.5l-19 -201l-67 -68l49 -66l-20 -206q-1 -15 6 -20.5t24 -5.5h38l-15 -138h-109q-20 0 -38.5 4.5t-37.5 16.5t-28.5 38t-5.5 63l28 243l-39 71l50 73l27 249q16 117 130 117h115z" />
    <glyph glyph-name="bar" unicode="|" horiz-adv-x="288" 
d="M242 800l-104 -990h-138l104 990h138z" />
    <glyph glyph-name="braceright" unicode="}" horiz-adv-x="366" 
d="M69 745h109q20 0 38 -4.5t36.5 -16.5t28 -38t5.5 -63l-27 -244l40 -73l-51 -71l-27 -248q-13 -117 -129 -117h-115l15 138h32q37 0 40 32l20 200l68 66l-50 68l21 207q1 15 -6 20.5t-24 5.5h-38z" />
    <glyph glyph-name="asciitilde" unicode="~" horiz-adv-x="543" 
d="M162 381q43 0 112.5 -35.5t101.5 -35.5q11 0 28 7t18 15l55 -5q-6 -59 -42.5 -98.5t-102.5 -39.5q-43 0 -111.5 42t-104.5 42q-11 0 -27 -10t-17 -22l-55 5q7 59 42.5 97t102.5 38z" />
    <glyph glyph-name="exclamdown" unicode="&#xa1;" horiz-adv-x="293" 
d="M142 525q39 0 64 -29t20 -68q-3 -32 -30 -57t-61 -25q-39 0 -64.5 29t-20.5 68q3 33 30.5 57.5t61.5 24.5zM-16 -180l49 465h182l-50 -465h-181z" />
    <glyph glyph-name="cent" unicode="&#xa2;" horiz-adv-x="567" 
d="M316 224q25 6 70 41l119 -63q-77 -107 -204 -118l-9 -84h-72l9 86q-86 14 -147.5 76.5t-61.5 166.5q0 115 77 196.5t188 92.5l9 82h72l-9 -83q122 -16 173 -124l-124 -51q-31 27 -64 36zM173 330q0 -40 19.5 -67t51.5 -37l26 249q-42 -13 -69.5 -51.5t-27.5 -93.5z" />
    <glyph glyph-name="sterling" unicode="&#xa3;" horiz-adv-x="624" 
d="M416 471q0 6 3 12q6 6 3 20t-9 28.5t-27.5 25.5t-52.5 11q-53 0 -80 -32t-27 -73q0 -43 27 -83l156 3l-13 -120l-106 -3q0 2 -1 8t-1 7q0 -39 -21 -81t-50 -57l310 1l-14 -138h-504l12 139q38 18 76 55.5t38 70.5q1 1 3 1l-104 -3l13 120l57 3q-28 46 -28 105
q0 97 80 156.5t187 59.5q105 0 168.5 -50t63.5 -135q0 -17 -3 -51h-156z" />
    <glyph glyph-name="currency" unicode="&#xa4;" horiz-adv-x="575" 
d="M505 468q-6 -48 -22 -82l40 -42l-101 -94l-36 38q-56 -36 -122 -36q-65 0 -116 36l-42 -38l-88 94l47 44q-12 50 -7 96q6 51 28 88l-40 43l101 93l37 -38q56 30 116 30q68 0 117 -34l46 42l88 -93l-55 -52q13 -44 9 -95zM185 468q-3 -6 0 -20.5t8 -29.5t24 -26.5
t48 -11.5q31 0 54.5 12t35.5 30t18 34t7 28q1 10 -1 21t-8.5 28t-25.5 28t-48 11q-31 0 -54.5 -12t-34.5 -30.5t-16.5 -33.5t-6.5 -28z" />
    <glyph glyph-name="yen" unicode="&#xa5;" horiz-adv-x="756" 
d="M747 700l-309 -405h109l-11 -102h-112l-5 -49h112l-12 -103h-112l-4 -41h-161l4 41h-112l11 103h113l5 49h-113l12 102h111l-222 405h178l138 -262l194 262h186z" />
    <glyph glyph-name="brokenbar" unicode="&#xa6;" horiz-adv-x="288" 
d="M242 800l-29 -280h-138l29 280h138zM168 90l-30 -280h-138l30 280h138z" />
    <glyph glyph-name="section" unicode="&#xa7;" horiz-adv-x="619" 
d="M361 449q210 -66 190 -240q-3 -40 -31 -88q17 -47 12 -102q-10 -96 -99 -155t-188 -59q-112 0 -185 70.5t-78 178.5l176 48q-6 -61 19 -95.5t74 -34.5q43 0 71.5 16.5t32.5 45.5q3 24 -11.5 38t-48.5 25l-81 29q-179 59 -163 215q2 24 31 95q-15 64 -10 102
q8 89 86 147.5t177 58.5q118 0 188.5 -73t70.5 -166l-184 -46q22 40 -1.5 79t-79.5 39q-36 0 -57.5 -15.5t-23.5 -38.5q-2 -17 8 -28.5t40 -21.5zM225 324v1v-1zM213 320q4 0 8 2q-6 0 -8 -2zM340 255q2 -1 33 -10q-7 30 -56 48l-84 24q-4 3 -8 4q0 -30 51 -41z" />
    <glyph glyph-name="dieresis" unicode="&#xa8;" horiz-adv-x="429" 
d="M183 700l-14 -130h-164l14 130h164zM448 700l-14 -130h-164l14 130h164z" />
    <glyph glyph-name="copyright" unicode="&#xa9;" horiz-adv-x="791" 
d="M409 707q131 0 227 -91.5t96 -234.5q0 -160 -111.5 -274t-275.5 -114q-131 0 -226.5 90t-95.5 233q0 163 111 277t275 114zM348 128q108 0 179 75t71 178q0 83 -55 137t-137 54q-101 0 -175 -67.5t-74 -185.5q0 -83 54.5 -137t136.5 -54zM378 303q22 0 44 15l69 -92
q-40 -52 -122 -52q-67 0 -113.5 44t-46.5 115q0 83 56.5 138t130.5 55q84 0 119 -58l-80 -80q-13 9 -37 9q-22 0 -39.5 -18t-17.5 -39q0 -14 10.5 -25.5t26.5 -11.5z" />
    <glyph glyph-name="ordfeminine" unicode="&#xaa;" horiz-adv-x="434" 
d="M216 718q77 0 115 -43t30 -120l-10 -96q-4 -28 0 -45t19 -43l-98 6q-10 10 -13 34q-37 -40 -90 -40q-67 0 -103.5 31.5t-31.5 85.5q6 47 49 72.5t105 29.5l67 6q3 17 -9.5 26.5t-27.5 9.5q-51 0 -106 -37l-45 65q65 58 149 58zM247 516l-63 -7q-41 -3 -48 -36
q0 -18 31 -18q47 0 78 53z" />
    <glyph glyph-name="guillemotleft" unicode="&#xab;" horiz-adv-x="392" 
d="M25 404l147 103l-8 -109l-94 -102l70 -103l-8 -108l-126 102zM221 404l147 103l-8 -109l-94 -102l70 -103l-8 -108l-126 102z" />
    <glyph glyph-name="logicalnot" unicode="&#xac;" horiz-adv-x="531" 
d="M463 302l-20 -191h-161l6 59h-279l13 132h441z" />
    <glyph glyph-name="uni00AD" unicode="&#xad;" horiz-adv-x="400" 
d="M336 339l-14 -132h-310l14 132h310z" />
    <glyph glyph-name="registered" unicode="&#xae;" horiz-adv-x="791" 
d="M409 707q131 0 227 -91.5t96 -234.5q0 -160 -111.5 -274t-275.5 -114q-131 0 -226.5 90t-95.5 233q0 163 111 277t275 114zM348 128q108 0 179 75t71 178q0 83 -55 137t-137 54q-101 0 -175 -67.5t-74 -185.5q0 -83 54.5 -137t136.5 -54zM380 521q63 0 98 -32t30 -81
q-4 -35 -18 -57.5t-48 -43.5l62 -120h-95l-55 118h-14l-11 -118h-94l35 334h110zM388 440h-37l-7 -60h32q32 0 39 38q1 12 -6.5 17t-20.5 5z" />
    <glyph glyph-name="macron" unicode="&#xaf;" horiz-adv-x="381" 
d="M400 700l-15 -130h-380l14 130h381z" />
    <glyph glyph-name="degree" unicode="&#xb0;" horiz-adv-x="288" 
d="M186 719q55 0 89.5 -38t27.5 -93q-5 -48 -42.5 -81.5t-87.5 -33.5q-55 0 -89.5 38t-27.5 93q5 48 42.5 81.5t87.5 33.5zM181 618q-11 0 -18 -8.5t-5 -21.5q4 -14 20 -14q11 0 18 8.5t5 21.5q-4 14 -20 14z" />
    <glyph glyph-name="plusminus" unicode="&#xb1;" horiz-adv-x="421" 
d="M347 225h-110l-10 -91h110l-14 -133h-335l14 133h92l11 91h-93l14 133h92l12 110h133l-12 -110h110z" />
    <glyph glyph-name="uni00B2" unicode="&#xb2;" horiz-adv-x="258" 
d="M143 704q35 0 58 -23.5t20 -53.5q-3 -26 -19.5 -47t-58.5 -60l-53 -48h118l-3 -32h-168l3 32l74 70q5 4 14 12.5t12 11.5t10 9.5t9 9.5t7 8t6.5 7.5t4 7t3.5 7.5l2.5 7.5t1.5 8.5q1 18 -10.5 30t-29.5 12q-20 0 -36 -13.5t-18 -37.5l-2 -13h-37l2 15q4 35 30 57.5
t60 22.5z" />
    <glyph glyph-name="uni00B3" unicode="&#xb3;" horiz-adv-x="262" 
d="M145 703q33 0 55.5 -21t19.5 -49q-3 -32 -36 -52q17 -7 27.5 -24.5t7.5 -42.5q-3 -33 -32 -55.5t-66 -22.5q-41 0 -64.5 27.5t-18.5 64.5l38 -2q-3 -24 9 -41t35 -17t41.5 14t20.5 36q3 26 -14.5 36t-53.5 10l1 29q64 0 68 44q1 15 -9.5 25t-27.5 10q-22 0 -37 -14.5
t-18 -41.5l-37 2q4 38 29.5 61.5t61.5 23.5z" />
    <glyph glyph-name="acute" unicode="&#xb4;" horiz-adv-x="254" 
d="M275 700l-147 -129h-125l79 129h193z" />
    <glyph glyph-name="uni00B5" unicode="&#xb5;" horiz-adv-x="611" 
d="M405 520h158l-55 -520h-158l12 87q-17 -30 -61 -62.5t-106 -32.5q-15 0 -43 -18l-21 -164h-158l75 710h158l-30 -289q-6 -57 8 -79t51 -22q49 0 86.5 34.5t50.5 66.5z" />
    <glyph glyph-name="paragraph" unicode="&#xb6;" horiz-adv-x="950" 
d="M95 466q11 106 88.5 170t195.5 64h251l-74 -700h-161l24 229h-84q-119 0 -185 63.5t-55 173.5zM738 700h161l-74 -700h-161zM453 552h-75q-112 0 -124 -101q-5 -46 21 -65.5t78 -19.5h81z" />
    <glyph glyph-name="periodcentered" unicode="&#xb7;" horiz-adv-x="286" 
d="M96 189q-39 0 -64.5 28.5t-21.5 67.5q5 33 32 57.5t60 24.5q38 0 64 -28.5t22 -68.5q-5 -33 -32 -57t-60 -24z" />
    <glyph glyph-name="cedilla" unicode="&#xb8;" horiz-adv-x="229" 
d="M71 -41q39 -11 66 -34.5t22 -58.5q-5 -59 -73.5 -81t-159.5 3l7 33q45 -10 75 10t33 50q0 16 -18.5 25t-43.5 -7l-48 44l32 57h165z" />
    <glyph glyph-name="uni00B9" unicode="&#xb9;" horiz-adv-x="194" 
d="M142 701l-27 -261h-37l24 221l-18 -11l-16 31l37 20h37z" />
    <glyph glyph-name="ordmasculine" unicode="&#xba;" horiz-adv-x="395" 
d="M215 705q63 0 109.5 -47.5t38.5 -123.5q-6 -70 -59 -113.5t-112 -43.5q-64 0 -112 47.5t-40 124.5q8 69 61.5 112.5t113.5 43.5zM215 603q-26 0 -49 -20t-27 -49q-1 -24 14 -39.5t37 -15.5q26 0 48 20t25 50q4 23 -11 38.5t-37 15.5z" />
    <glyph glyph-name="guillemotright" unicode="&#xbb;" horiz-adv-x="396" 
d="M146 404l-19 -217l-149 -102l8 108l96 103l-72 102l8 109zM342 404l-19 -217l-149 -102l8 108l96 103l-72 102l7 109z" />
    <glyph glyph-name="onequarter" unicode="&#xbc;" horiz-adv-x="570" 
d="M120 701l-27 -261h-37l23 221l-17 -11l-16 31l37 20h37zM523 700l-504 -700h-48l510 700h42zM491 261l-16 -154h27l-4 -31h-27l-8 -76h-37l8 76h-132l152 185h37zM448 202l-75 -95h65z" />
    <glyph glyph-name="onehalf" unicode="&#xbd;" horiz-adv-x="545" 
d="M120 701l-27 -261h-37l23 221l-17 -11l-16 31l37 20h37zM523 700l-504 -700h-48l510 700h42zM404 264q35 0 58 -23.5t20 -53.5q-3 -26 -19.5 -47t-58.5 -60l-53 -48h118l-4 -32h-168l4 32l74 70q53 50 61 65q7 11 8 24q2 18 -9.5 30t-29.5 12q-20 0 -36 -13.5t-19 -37.5
l-1 -13h-37l2 15q4 35 30 57.5t60 22.5z" />
    <glyph glyph-name="threequarters" unicode="&#xbe;" horiz-adv-x="587" 
d="M134 703q33 0 55 -21t19 -49q-3 -32 -35 -52q39 -17 35 -67q-4 -33 -33 -55.5t-66 -22.5q-41 0 -64.5 27.5t-18.5 64.5l38 -2q-2 -24 10 -41t35 -17t41 14t20 36q3 26 -14.5 36t-53.5 10l1 29q64 0 69 44q1 15 -10 25t-28 10q-22 0 -37 -14.5t-18 -41.5l-36 2
q3 38 29 61.5t62 23.5zM550 700l-503 -700h-48l509 700h42zM508 261l-16 -154h27l-3 -31h-27l-8 -76h-37l8 76h-132l151 185h37zM465 202l-75 -95h65z" />
    <glyph glyph-name="questiondown" unicode="&#xbf;" horiz-adv-x="566" 
d="M245 525q39 0 64 -29t20 -68q-4 -33 -31 -57.5t-60 -24.5q-39 0 -64.5 29t-20.5 68q3 33 30.5 57.5t61.5 24.5zM217 -187q-101 0 -169.5 61.5t-56.5 162.5q4 39 17.5 66.5t30.5 41.5t36 28t35.5 26.5t28.5 36t14 56.5v-2h162l1 -3q-2 -50 -19 -84t-40.5 -52.5t-47 -34
t-41 -39t-20.5 -56.5q0 -7 1.5 -15t8 -22.5t23.5 -24t43 -9.5q27 0 47 10.5t30.5 27.5t15 28.5t6.5 23.5h159q-11 -107 -86 -167t-179 -60z" />
    <glyph glyph-name="Agrave" unicode="&#xc0;" horiz-adv-x="804" 
d="M498 751h-118l-119 129h186zM565 0l-36 116h-330l-61 -116h-175l385 700h147l237 -700h-167zM269 247h215l-80 258z" />
    <glyph glyph-name="Aacute" unicode="&#xc1;" horiz-adv-x="804" 
d="M636 880l-147 -129h-125l79 129h193zM565 0l-36 116h-330l-62 -116h-174l385 700h147l237 -700h-167zM268 247h216l-80 258z" />
    <glyph glyph-name="Acircumflex" unicode="&#xc2;" horiz-adv-x="804" 
d="M439 825l-112 -83h-112l116 138h218l87 -138h-104zM565 0l-36 116h-330l-61 -116h-175l385 700h147l237 -700h-167zM269 247h215l-80 258z" />
    <glyph glyph-name="Atilde" unicode="&#xc3;" horiz-adv-x="804" 
d="M329 821q-14 0 -30 -8.5t-17 -21.5l-55 6q6 59 39.5 97.5t95.5 38.5q40 0 100 -35t81 -35q15 0 31 6t17 14l57 -6q-6 -58 -40 -98t-92 -40q-40 0 -102.5 41t-84.5 41zM565 0l-36 116h-330l-61 -116h-175l385 700h147l237 -700h-167zM269 247h215l-80 258z" />
    <glyph glyph-name="Adieresis" unicode="&#xc4;" horiz-adv-x="804" 
d="M392 880l-14 -130h-164l14 130h164zM657 880l-14 -130h-164l14 130h164zM565 0l-36 116h-330l-61 -116h-175l385 700h147l237 -700h-167zM269 247h215l-80 258z" />
    <glyph glyph-name="Aring" unicode="&#xc5;" horiz-adv-x="804" 
d="M436 759q-53 0 -86 37t-28 88q5 46 42 79t85 33q51 0 83.5 -37.5t26.5 -89.5q-4 -44 -40.5 -77t-82.5 -33zM448 902q-11 0 -20.5 -9t-10.5 -22q2 -14 17 -14q11 0 20 8.5t10 20.5q1 6 -4 11t-12 5zM565 0l-36 116h-330l-61 -116h-175l385 700h147l237 -700h-167zM269 247
h215l-80 258z" />
    <glyph glyph-name="AE" unicode="&#xc6;" horiz-adv-x="1001" 
d="M631 148h287l-16 -148h-448l18 176h-190l-137 -176h-182l553 700h179h272l-16 -148h-278l-12 -127h208l-16 -145h-208zM392 313h95l17 142z" />
    <glyph glyph-name="Ccedilla" unicode="&#xc7;" horiz-adv-x="677" 
d="M349 -41q39 -11 66 -34.5t22 -58.5q-5 -59 -73.5 -81t-159.5 3l7 33q45 -10 75 10t33 50q0 16 -18.5 25t-43.5 -7l-48 44l39 58q-112 36 -174.5 132t-48.5 225q16 153 131.5 252.5t265.5 99.5q141 0 230 -86l-103 -105q-53 40 -123 40q-93 0 -159 -61t-76 -156
q-11 -87 40 -144t140 -57q77 0 141 50l91 -119q-83 -67 -206 -80z" />
    <glyph glyph-name="Egrave" unicode="&#xc8;" horiz-adv-x="550" 
d="M381 751h-117l-120 129h186zM180 148h287l-16 -148h-448l74 700h439l-16 -148h-278l-12 -127h208l-16 -145h-209z" />
    <glyph glyph-name="Eacute" unicode="&#xc9;" horiz-adv-x="550" 
d="M520 880l-148 -129h-124l79 129h193zM180 148h287l-16 -148h-448l74 700h439l-16 -148h-278l-12 -127h208l-16 -145h-209z" />
    <glyph glyph-name="Ecircumflex" unicode="&#xca;" horiz-adv-x="550" 
d="M322 825l-112 -83h-112l117 138h217l88 -138h-105zM180 148h287l-16 -148h-448l74 700h439l-16 -148h-278l-12 -127h208l-16 -145h-209z" />
    <glyph glyph-name="Edieresis" unicode="&#xcb;" horiz-adv-x="550" 
d="M275 880l-14 -130h-164l15 130h163zM540 880l-14 -130h-164l14 130h164zM180 148h287l-16 -148h-448l74 700h439l-16 -148h-278l-12 -127h208l-16 -145h-209z" />
    <glyph glyph-name="Igrave" unicode="&#xcc;" horiz-adv-x="281" 
d="M-3 880h186l51 -129h-118zM240 700l-74 -700h-161l74 700h161z" />
    <glyph glyph-name="Iacute" unicode="&#xcd;" horiz-adv-x="281" 
d="M372 880l-147 -129h-125l79 129h193zM240 700l-74 -700h-161l74 700h161z" />
    <glyph glyph-name="Icircumflex" unicode="&#xce;" horiz-adv-x="281" 
d="M285 880l87 -138h-104l-93 83l-112 -83h-113l117 138h218zM240 700l-74 -700h-161l74 700h161z" />
    <glyph glyph-name="Idieresis" unicode="&#xcf;" horiz-adv-x="281" 
d="M128 880l-14 -130h-164l14 130h164zM393 880l-14 -130h-164l14 130h164zM240 700l-74 -700h-161l74 700h161z" />
    <glyph glyph-name="Eth" unicode="&#xd0;" horiz-adv-x="812" 
d="M433 700q148 0 241.5 -103.5t79.5 -248.5q-16 -146 -128.5 -247t-260.5 -101h-263l29 274h-58l14 133h58l31 293h257zM374 152q92 0 149.5 60t67.5 151q8 77 -35.5 131t-133.5 54h-101l-15 -141h90l-13 -133h-91l-13 -122h95z" />
    <glyph glyph-name="Ntilde" unicode="&#xd1;" horiz-adv-x="728" 
d="M322 933q40 0 100 -35t81 -35q15 0 31 6t17 14l57 -6q-6 -58 -40 -98t-92 -40q-40 0 -102.5 41t-84.5 41q-14 0 -30 -8.5t-17 -21.5l-55 6q6 59 39.5 97.5t95.5 38.5zM528 700h161l-74 -700h-121l-285 407l-45 -407h-161l74 700h123l283 -407z" />
    <glyph glyph-name="Ograve" unicode="&#xd2;" horiz-adv-x="813" 
d="M260 880h186l51 -129h-118zM420 710q154 0 251 -104t81 -264q-16 -153 -132 -252.5t-265 -99.5q-154 0 -251 104t-79 264q16 153 130.5 252.5t264.5 99.5zM360 141q87 0 151.5 61.5t74.5 155.5q8 87 -40.5 144t-130.5 57q-87 0 -150.5 -61.5t-73.5 -155.5
q-10 -87 38 -144t131 -57z" />
    <glyph glyph-name="Oacute" unicode="&#xd3;" horiz-adv-x="813" 
d="M635 880l-147 -129h-125l79 129h193zM420 710q154 0 251 -104t81 -264q-16 -153 -132 -252.5t-265 -99.5q-154 0 -251 104t-79 264q16 153 130.5 252.5t264.5 99.5zM360 141q87 0 151.5 61.5t74.5 155.5q8 87 -40.5 144t-130.5 57q-87 0 -150.5 -61.5t-73.5 -155.5
q-10 -87 38 -144t131 -57z" />
    <glyph glyph-name="Ocircumflex" unicode="&#xd4;" horiz-adv-x="813" 
d="M548 880l87 -138h-104l-93 83l-112 -83h-112l117 138h217zM420 710q154 0 251 -104t81 -264q-16 -153 -132 -252.5t-265 -99.5q-154 0 -251 104t-79 264q16 153 130.5 252.5t264.5 99.5zM360 141q87 0 151.5 61.5t74.5 155.5q8 87 -40.5 144t-130.5 57
q-87 0 -150.5 -61.5t-73.5 -155.5q-10 -87 38 -144t131 -57z" />
    <glyph glyph-name="Otilde" unicode="&#xd5;" horiz-adv-x="813" 
d="M361 933q40 0 100 -35t81 -35q14 0 30.5 6t17.5 14l57 -6q-6 -58 -40 -98t-92 -40q-40 0 -102.5 41t-84.5 41q-14 0 -30 -8.5t-17 -21.5l-55 6q6 59 39.5 97.5t95.5 38.5zM420 710q154 0 251 -104t81 -264q-16 -153 -132 -252.5t-265 -99.5q-154 0 -251 104t-79 264
q16 153 130.5 252.5t264.5 99.5zM360 141q87 0 151.5 61.5t74.5 155.5q8 87 -40.5 144t-130.5 57q-87 0 -150.5 -61.5t-73.5 -155.5q-10 -87 38 -144t131 -57z" />
    <glyph glyph-name="Odieresis" unicode="&#xd6;" horiz-adv-x="813" 
d="M391 880l-14 -130h-164l14 130h164zM656 880l-14 -130h-164l14 130h164zM420 710q154 0 251 -104t81 -264q-16 -153 -132 -252.5t-265 -99.5q-154 0 -251 104t-79 264q16 153 130.5 252.5t264.5 99.5zM360 141q87 0 151.5 61.5t74.5 155.5q8 87 -40.5 144t-130.5 57
q-87 0 -150.5 -61.5t-73.5 -155.5q-10 -87 38 -144t131 -57z" />
    <glyph glyph-name="multiply" unicode="&#xd7;" horiz-adv-x="405" 
d="M370 354l-80 -72l63 -71l-105 -94l-62 70l-78 -70l-85 92l79 72l-66 75l105 92l65 -72l79 72z" />
    <glyph glyph-name="Oslash" unicode="&#xd8;" horiz-adv-x="813" 
d="M642 634q60 -48 89.5 -123.5t20.5 -168.5q-16 -153 -132 -252.5t-265 -99.5q-37 0 -79 7l-29 -47h-185l71 114q-60 50 -89 125.5t-19 168.5q16 153 130.5 252.5t264.5 99.5q38 0 80 -7l26 42h185zM191 342q-10 -81 21 -137l214 363q-9 -9 -11 -9q-87 0 -150.5 -61.5
t-73.5 -155.5zM360 141q87 0 151.5 61.5t74.5 155.5q7 87 -23 135l-213 -360q2 1 4 3l3.5 3.5t2.5 1.5z" />
    <glyph glyph-name="Ugrave" unicode="&#xd9;" horiz-adv-x="661" 
d="M194 880h185l51 -129h-117zM461 700h161l-47 -449q-13 -123 -98 -194.5t-199 -71.5q-118 0 -191.5 74.5t-60.5 197.5l47 443h161l-47 -450q-7 -64 22.5 -89t73.5 -25q48 0 86.5 27.5t44.5 92.5z" />
    <glyph glyph-name="Uacute" unicode="&#xda;" horiz-adv-x="661" 
d="M569 880l-147 -129h-125l79 129h193zM461 700h161l-47 -449q-13 -123 -98 -194.5t-199 -71.5q-118 0 -191.5 74.5t-60.5 197.5l47 443h161l-47 -450q-7 -64 22.5 -89t73.5 -25q48 0 86.5 27.5t44.5 92.5z" />
    <glyph glyph-name="Ucircumflex" unicode="&#xdb;" horiz-adv-x="661" 
d="M481 880l88 -138h-105l-93 83l-112 -83h-112l117 138h217zM461 700h161l-47 -449q-13 -123 -98 -194.5t-199 -71.5q-118 0 -191.5 74.5t-60.5 197.5l47 443h161l-47 -450q-7 -64 22.5 -89t73.5 -25q48 0 86.5 27.5t44.5 92.5z" />
    <glyph glyph-name="Udieresis" unicode="&#xdc;" horiz-adv-x="661" 
d="M324 880l-14 -130h-164l15 130h163zM589 880l-14 -130h-164l15 130h163zM461 700h161l-47 -449q-13 -123 -98 -194.5t-199 -71.5q-118 0 -191.5 74.5t-60.5 197.5l47 443h161l-47 -450q-7 -64 22.5 -89t73.5 -25q48 0 86.5 27.5t44.5 92.5z" />
    <glyph glyph-name="Yacute" unicode="&#xdd;" horiz-adv-x="756" 
d="M610 880l-148 -129h-124l79 129h193zM747 700l-311 -408l-33 -292h-161l33 292l-224 408h178l138 -262l194 262h186z" />
    <glyph glyph-name="Thorn" unicode="&#xde;" horiz-adv-x="666" 
d="M346 565q130 0 204.5 -61.5t64.5 -159.5q-11 -97 -93.5 -151t-215.5 -54h-127l-15 -139h-161l74 700h161l-14 -135h122zM317 277q9 0 28 -1t30 -1.5t27 3.5t25 12.5t17 26t11 43.5q2 21 -2 35.5t-11 21t-21 9.5t-24.5 3t-29.5 -1t-28 -1h-129l-17 -150h124z" />
    <glyph glyph-name="germandbls" unicode="&#xdf;" horiz-adv-x="668" 
d="M342 700q75 0 131 -20t88.5 -66.5t25.5 -114.5q-4 -49 -42 -80.5t-78 -35.5q66 -5 102 -53.5t29 -124.5q-12 -106 -87.5 -155.5t-223.5 -49.5h-46l14 138h43q27 0 47 3t42 11.5t35 27.5t16 49q2 21 -5.5 36.5t-19.5 23.5t-32.5 12t-35.5 5t-37 1h-34l14 128h29
q59 0 83 17t28 55q4 55 -89 55q-65 0 -94 -22.5t-36 -85.5l-48 -454h-158l49 460q13 130 88.5 185t201.5 55z" />
    <glyph glyph-name="agrave" unicode="&#xe0;" 
d="M431 571h-117l-120 129h186zM429 520h158l-55 -520h-158l6 48q-10 -19 -47.5 -38.5t-88.5 -19.5q-92 0 -163 63t-71 178q0 124 82 211t198 87q38 0 69 -13t44.5 -25t17.5 -21zM280 129q18 0 38 6.5t41.5 21.5t35.5 46t14 74q0 53 -33 83t-80 30q-57 0 -93.5 -40.5
t-36.5 -104.5q0 -56 31.5 -86t82.5 -30z" />
    <glyph glyph-name="aacute" unicode="&#xe1;" 
d="M570 700l-148 -129h-124l79 129h193zM429 520h158l-55 -520h-158l6 48q-10 -19 -47.5 -38.5t-88.5 -19.5q-92 0 -163 63t-71 178q0 124 82 211t198 87q38 0 69 -13t44.5 -25t17.5 -21zM280 129q18 0 38 6.5t41.5 21.5t35.5 46t14 74q0 53 -33 83t-80 30
q-57 0 -93.5 -40.5t-36.5 -104.5q0 -56 31.5 -86t82.5 -30z" />
    <glyph glyph-name="acircumflex" unicode="&#xe2;" 
d="M372 645l-112 -83h-112l117 138h217l88 -138h-105zM429 520h158l-55 -520h-158l6 48q-10 -19 -47.5 -38.5t-88.5 -19.5q-92 0 -163 63t-71 178q0 124 82 211t198 87q38 0 69 -13t44.5 -25t17.5 -21zM280 129q18 0 38 6.5t41.5 21.5t35.5 46t14 74q0 53 -33 83t-80 30
q-57 0 -93.5 -40.5t-36.5 -104.5q0 -56 31.5 -86t82.5 -30z" />
    <glyph glyph-name="atilde" unicode="&#xe3;" 
d="M263 641q-14 0 -30.5 -9t-17.5 -21l-55 6q6 59 39.5 97.5t95.5 38.5q39 0 100 -35t82 -35q14 0 30 6t17 14l58 -6q-6 -58 -40.5 -98t-92.5 -40q-41 0 -102.5 41t-83.5 41zM429 520h158l-55 -520h-158l6 48q-10 -19 -47.5 -38.5t-88.5 -19.5q-92 0 -163 63t-71 178
q0 124 82 211t198 87q38 0 69 -13t44.5 -25t17.5 -21zM280 129q18 0 38 6.5t41.5 21.5t35.5 46t14 74q0 53 -33 83t-80 30q-57 0 -93.5 -40.5t-36.5 -104.5q0 -56 31.5 -86t82.5 -30z" />
    <glyph glyph-name="adieresis" unicode="&#xe4;" 
d="M325 700l-14 -130h-164l14 130h164zM590 700l-14 -130h-164l14 130h164zM421 470l8 50h158l-55 -520h-158l6 48q-10 -19 -47.5 -38.5t-88.5 -19.5q-92 0 -163 63t-71 178q0 124 82 211t198 87q38 0 69 -13t44.5 -25t17.5 -21zM280 129q18 0 38 6.5t41.5 21.5t35.5 46
t14 74q0 53 -33 83t-80 30q-57 0 -93.5 -40.5t-36.5 -104.5q0 -56 31.5 -86t82.5 -30z" />
    <glyph glyph-name="aring" unicode="&#xe5;" 
d="M369 579q-53 0 -86 37t-28 88q6 46 42.5 79t85.5 33q50 0 82.5 -37.5t27.5 -89.5q-4 -44 -41.5 -77t-82.5 -33zM382 722q-25 0 -32 -31q2 -14 17 -14q11 0 20 8t10 21q1 7 -3.5 11.5t-11.5 4.5zM429 520h158l-55 -520h-158l6 48q-10 -19 -47.5 -38.5t-88.5 -19.5
q-92 0 -163 63t-71 178q0 124 82 211t198 87q38 0 69 -13t44.5 -25t17.5 -21zM280 129q18 0 38 6.5t41.5 21.5t35.5 46t14 74q0 53 -33 83t-80 30q-57 0 -93.5 -40.5t-36.5 -104.5q0 -56 31.5 -86t82.5 -30z" />
    <glyph glyph-name="ae" unicode="&#xe6;" horiz-adv-x="997" 
d="M706 529q48 0 93 -18t83.5 -57.5t50.5 -101.5t-7 -150h-366q24 -79 117 -79q24 0 44 3.5t29 6.5t28.5 11.5t25.5 10.5l82 -90q-89 -75 -217 -75q-47 0 -137 11v-1h-158l6 48q-10 -19 -47.5 -38.5t-88.5 -19.5q-92 0 -163 63t-71 178q0 124 82 211t198 87q38 0 69 -13
t44.5 -25t17.5 -21l8 50h158v3q98 6 119 6zM574 313l227 6q-8 37 -35.5 56t-62.5 19q-82 0 -129 -81zM280 129q18 0 38 6.5t41.5 21.5t35.5 46t14 74q0 53 -33 83t-80 30q-57 0 -93.5 -40.5t-36.5 -104.5q0 -56 31.5 -86t82.5 -30z" />
    <glyph glyph-name="ccedilla" unicode="&#xe7;" horiz-adv-x="563" 
d="M264 131q27 0 48.5 7t32 14t29.5 22l119 -63q-58 -80 -154 -113l-57 -38q39 -11 65.5 -34t23.5 -58q-6 -59 -74.5 -81t-159.5 3l7 33q44 -10 74 9.5t33 50.5q1 16 -18 25.5t-43 -7.5l-48 44l37 58q-78 28 -128.5 94.5t-40.5 169.5q7 63 38 114.5t74.5 83t91 48t91.5 16.5
q153 0 213 -127l-120 -51q-18 15 -25.5 20.5t-26 12t-42.5 6.5q-51 0 -93 -37t-49 -102q-7 -56 24 -88t78 -32z" />
    <glyph glyph-name="egrave" unicode="&#xe8;" horiz-adv-x="599" 
d="M378 571h-117l-119 129h185zM308 529q41 0 80.5 -13.5t74 -40t56 -72.5t21.5 -105q0 -49 -11 -96h-367q24 -81 122 -81q16 0 31 1.5t23.5 3t21.5 6.5t16 6t17.5 8t15.5 8l76 -85q-82 -79 -213 -79q-103 0 -182.5 65t-79.5 179q0 122 89.5 208.5t208.5 86.5zM305 394
q-89 0 -128 -81h227q-17 81 -99 81z" />
    <glyph glyph-name="eacute" unicode="&#xe9;" horiz-adv-x="599" 
d="M517 700l-147 -129h-125l79 129h193zM308 529q41 0 80.5 -13.5t74 -40t56 -72.5t21.5 -105q0 -49 -11 -96h-367q24 -81 122 -81q16 0 31 1.5t23.5 3t21.5 6.5t16 6t17.5 8t15.5 8l76 -85q-82 -79 -213 -79q-103 0 -182.5 65t-79.5 179q0 122 89.5 208.5t208.5 86.5z
M305 394q-89 0 -128 -81h227q-17 81 -99 81z" />
    <glyph glyph-name="ecircumflex" unicode="&#xea;" horiz-adv-x="599" 
d="M319 645l-112 -83h-112l117 138h217l88 -138h-105zM308 529q41 0 80.5 -13.5t74 -40t56 -72.5t21.5 -105q0 -49 -11 -96h-367q24 -81 122 -81q16 0 31 1.5t23.5 3t21.5 6.5t16 6t17.5 8t15.5 8l76 -85q-82 -79 -213 -79q-103 0 -182.5 65t-79.5 179q0 122 89.5 208.5
t208.5 86.5zM305 394q-89 0 -128 -81h227q-17 81 -99 81z" />
    <glyph glyph-name="edieresis" unicode="&#xeb;" horiz-adv-x="599" 
d="M273 700l-15 -130h-164l15 130h164zM537 700l-14 -130h-164l15 130h163zM308 529q41 0 80.5 -13.5t74 -40t56 -72.5t21.5 -105q0 -49 -11 -96h-367q24 -81 122 -81q16 0 31 1.5t23.5 3t21.5 6.5t16 6t17.5 8t15.5 8l76 -85q-82 -79 -213 -79q-103 0 -182.5 65t-79.5 179
q0 122 89.5 208.5t208.5 86.5zM305 394q-89 0 -128 -81h227q-17 81 -99 81z" />
    <glyph glyph-name="igrave" unicode="&#xec;" horiz-adv-x="257" 
d="M-33 700h186l51 -129h-118zM209 520l-55 -520h-158l55 520h158z" />
    <glyph glyph-name="iacute" unicode="&#xed;" horiz-adv-x="258" 
d="M340 700l-147 -129h-125l79 129h193zM207 520l-55 -520h-158l55 520h158z" />
    <glyph glyph-name="icircumflex" unicode="&#xee;" horiz-adv-x="260" 
d="M255 700l87 -138h-105l-92 83l-113 -83h-112l117 138h218zM209 520l-55 -520h-158l55 520h158z" />
    <glyph glyph-name="idieresis" unicode="&#xef;" horiz-adv-x="260" 
d="M98 700l-14 -130h-164l14 130h164zM363 700l-14 -130h-164l14 130h164zM209 520l-55 -520h-158l55 520h158z" />
    <glyph glyph-name="eth" unicode="&#xf0;" horiz-adv-x="610" 
d="M478 574q47 -81 58.5 -162t-2.5 -168q-13 -124 -96.5 -189t-193.5 -65q-106 0 -176 70t-57 200q14 127 90.5 193.5t188.5 66.5q12 0 23 -1t14 -2t7 0l-13 34l-90 -15l8 74l40 6l-51 84h174l35 -58l102 17l-7 -73zM248 128q50 0 85 31.5t41 100.5q7 64 -20 93t-68 29
q-40 0 -74 -33t-42 -105q-6 -59 19.5 -87.5t58.5 -28.5z" />
    <glyph glyph-name="ntilde" unicode="&#xf1;" horiz-adv-x="613" 
d="M238 753q40 0 100 -35t82 -35q14 0 30 6t17 14l58 -6q-6 -58 -40.5 -98t-92.5 -40q-40 0 -102 41t-84 41q-14 0 -30.5 -9t-17.5 -21l-55 6q7 59 40 97.5t95 38.5zM367 528q81 0 133.5 -58t40.5 -174l-32 -296h-158l31 289q12 102 -64 102q-49 0 -85.5 -34t-47.5 -68
l-33 -289h-158l55 520h158l-10 -87q14 29 59.5 62t110.5 33z" />
    <glyph glyph-name="ograve" unicode="&#xf2;" horiz-adv-x="619" 
d="M149 700h185l51 -129h-117zM306 529q47 0 93 -18t84.5 -51t59.5 -87.5t14 -121.5q-9 -84 -60 -145.5t-113 -88.5t-123 -27q-47 0 -93 17t-84.5 49.5t-59.5 87.5t-14 122q9 83 60 145.5t113 90t123 27.5zM304 390q-51 0 -93 -37t-49 -102q-7 -56 24.5 -89t77.5 -33
q50 0 93 37t49 100q6 58 -25 91t-77 33z" />
    <glyph glyph-name="oacute" unicode="&#xf3;" horiz-adv-x="619" 
d="M524 700l-147 -129h-125l79 129h193zM306 529q47 0 93 -18t84.5 -51t59.5 -87.5t14 -121.5q-9 -84 -60 -145.5t-113 -88.5t-123 -27q-47 0 -93 17t-84.5 49.5t-59.5 87.5t-14 122q9 83 60 145.5t113 90t123 27.5zM304 390q-51 0 -93 -37t-49 -102q-7 -56 24.5 -89
t77.5 -33q50 0 93 37t49 100q6 58 -25 91t-77 33z" />
    <glyph glyph-name="ocircumflex" unicode="&#xf4;" horiz-adv-x="619" 
d="M436 700l88 -138h-105l-93 83l-112 -83h-112l117 138h217zM306 529q47 0 93 -18t84.5 -51t59.5 -87.5t14 -121.5q-9 -84 -60 -145.5t-113 -88.5t-123 -27q-47 0 -93 17t-84.5 49.5t-59.5 87.5t-14 122q9 83 60 145.5t113 90t123 27.5zM304 390q-51 0 -93 -37t-49 -102
q-7 -56 24.5 -89t77.5 -33q50 0 93 37t49 100q6 58 -25 91t-77 33z" />
    <glyph glyph-name="otilde" unicode="&#xf5;" horiz-adv-x="619" 
d="M250 753q39 0 99 -35t82 -35q14 0 30 6t17 14l58 -6q-6 -58 -40.5 -98t-92.5 -40q-40 0 -102 41t-84 41q-14 0 -30.5 -9t-17.5 -21l-55 6q7 60 40.5 98t95.5 38zM306 529q47 0 93 -18t84.5 -51t59.5 -87.5t14 -121.5q-9 -84 -60 -145.5t-113 -88.5t-123 -27q-47 0 -93 17
t-84.5 49.5t-59.5 87.5t-14 122q9 83 60 145.5t113 90t123 27.5zM304 390q-51 0 -93 -37t-49 -102q-7 -56 24.5 -89t77.5 -33q50 0 93 37t49 100q6 58 -25 91t-77 33z" />
    <glyph glyph-name="odieresis" unicode="&#xf6;" horiz-adv-x="619" 
d="M280 700l-15 -130h-164l15 130h164zM545 700l-15 -130h-164l15 130h164zM306 529q47 0 93 -18t84.5 -51t59.5 -87.5t14 -121.5q-9 -84 -60 -145.5t-113 -88.5t-123 -27q-47 0 -93 17t-84.5 49.5t-59.5 87.5t-14 122q9 83 60 145.5t113 90t123 27.5zM304 390
q-51 0 -93 -37t-49 -102q-7 -56 24.5 -89t77.5 -33q50 0 93 37t49 100q6 58 -25 91t-77 33z" />
    <glyph glyph-name="divide" unicode="&#xf7;" horiz-adv-x="397" 
d="M201 369q-39 0 -64.5 28.5t-21.5 67.5q5 33 32 57.5t61 24.5q39 0 64.5 -29t20.5 -68q-5 -33 -32 -57t-60 -24zM360 339l-14 -132h-335l14 132h335zM167 -1q-38 0 -63.5 28.5t-21.5 68.5q2 33 29.5 57.5t62.5 24.5q39 0 64.5 -29t20.5 -68q-4 -33 -31.5 -57.5
t-60.5 -24.5z" />
    <glyph glyph-name="oslash" unicode="&#xf8;" horiz-adv-x="619" 
d="M476 469q94 -84 81 -218q-9 -84 -60 -145.5t-113 -88.5t-123 -27q-10 0 -55 5l-29 -45h-152l64 100q-93 80 -79 216q9 83 60 145.5t113 90t123 27.5q27 0 54 -5l32 54h152zM160 182l127 207q-47 -6 -83 -42.5t-42 -95.5q-7 -39 -2 -69zM406 266q6 45 -4 74l-123 -210
q47 6 84 42t43 94z" />
    <glyph glyph-name="ugrave" unicode="&#xf9;" horiz-adv-x="610" 
d="M143 700h186l51 -129h-118zM194 -8q-83 0 -136 58.5t-41 173.5l30 296h158l-30 -289q-6 -57 8 -79t51 -22q49 0 86.5 34.5t50.5 66.5l33 289h158l-55 -520h-158l12 87q-17 -30 -61 -62.5t-106 -32.5z" />
    <glyph glyph-name="uacute" unicode="&#xfa;" horiz-adv-x="610" 
d="M518 700l-147 -129h-125l79 129h193zM194 -8q-83 0 -136 58.5t-41 173.5l30 296h158l-30 -289q-6 -57 8 -79t51 -22q49 0 86.5 34.5t50.5 66.5l33 289h158l-55 -520h-158l12 87q-17 -30 -61 -62.5t-106 -32.5z" />
    <glyph glyph-name="ucircumflex" unicode="&#xfb;" horiz-adv-x="610" 
d="M431 700l87 -138h-104l-93 83l-112 -83h-112l117 138h217zM194 -8q-83 0 -136 58.5t-41 173.5l30 296h158l-30 -289q-6 -57 8 -79t51 -22q49 0 86.5 34.5t50.5 66.5l33 289h158l-55 -520h-158l12 87q-17 -30 -61 -62.5t-106 -32.5z" />
    <glyph glyph-name="udieresis" unicode="&#xfc;" horiz-adv-x="610" 
d="M274 700l-14 -130h-164l14 130h164zM539 700l-14 -130h-164l14 130h164zM194 -8q-83 0 -136 58.5t-41 173.5l30 296h158l-30 -289q-6 -57 8 -79t51 -22q49 0 86.5 34.5t50.5 66.5l33 289h158l-55 -520h-158l12 87q-17 -30 -61 -62.5t-106 -32.5z" />
    <glyph glyph-name="yacute" unicode="&#xfd;" horiz-adv-x="655" 
d="M515 700l-147 -129h-125l79 129h193zM472 522h160l-393 -712h-161l120 210l-171 502h154l112 -334z" />
    <glyph glyph-name="thorn" unicode="&#xfe;" horiz-adv-x="631" 
d="M336 529q101 0 173.5 -73.5t59.5 -202.5q-9 -85 -55 -147t-104 -89t-119 -27q-56 0 -91 22.5t-40 42.5l-28 -245h-158l32 301l43 409l20 187h158l-27 -232q8 8 22 18.5t46.5 23t67.5 12.5zM417 268q7 57 -24 89.5t-83 32.5q-53 0 -92.5 -36.5t-46.5 -100.5
q-6 -59 22.5 -91.5t76.5 -32.5q56 0 98.5 37t48.5 102z" />
    <glyph glyph-name="ydieresis" unicode="&#xff;" horiz-adv-x="655" 
d="M299 700l-14 -130h-164l15 130h163zM564 700l-14 -130h-164l15 130h163zM472 522h160l-393 -712h-161l120 210l-171 502h154l112 -334z" />
    <glyph glyph-name="Amacron" unicode="&#x100;" horiz-adv-x="804" 
d="M633 880l-15 -130h-380l14 130h381zM565 0l-36 116h-330l-61 -116h-175l385 700h147l237 -700h-167zM269 247h215l-80 258z" />
    <glyph glyph-name="amacron" unicode="&#x101;" 
d="M566 700l-14 -130h-381l15 130h380zM429 520h158l-55 -520h-158l6 48q-10 -19 -47.5 -38.5t-88.5 -19.5q-92 0 -163 63t-71 178q0 124 82 211t198 87q38 0 69 -13t44.5 -25t17.5 -21zM280 129q18 0 38 6.5t41.5 21.5t35.5 46t14 74q0 53 -33 83t-80 30q-57 0 -93.5 -40.5
t-36.5 -104.5q0 -56 31.5 -86t82.5 -30z" />
    <glyph glyph-name="Abreve" unicode="&#x102;" horiz-adv-x="804" 
d="M432 732q-73 0 -116.5 47t-37.5 104l96 -6q2 -17 17.5 -28.5t40.5 -11.5q29 0 51 14.5t27 31.5l96 -6q-6 -60 -50 -102.5t-124 -42.5zM565 0l-36 116h-330l-61 -116h-175l385 700h147l237 -700h-167zM269 247h215l-80 258z" />
    <glyph glyph-name="abreve" unicode="&#x103;" 
d="M366 552q-74 0 -117.5 47t-37.5 104l96 -6q2 -17 18 -28.5t41 -11.5q29 0 50.5 14.5t27.5 31.5l96 -6q-6 -60 -50 -102.5t-124 -42.5zM429 520h158l-55 -520h-158l6 48q-10 -19 -47.5 -38.5t-88.5 -19.5q-92 0 -163 63t-71 178q0 124 82 211t198 87q38 0 69 -13t44.5 -25
t17.5 -21zM280 129q18 0 38 6.5t41.5 21.5t35.5 46t14 74q0 53 -33 83t-80 30q-57 0 -93.5 -40.5t-36.5 -104.5q0 -56 31.5 -86t82.5 -30z" />
    <glyph glyph-name="Aogonek" unicode="&#x104;" horiz-adv-x="809" 
d="M563 -110q-3 -23 23.5 -28t49.5 9l32 -71q-38 -21 -100.5 -23t-113 26t-44.5 85q4 40 41 67t111 47l-33 114h-330l-61 -116h-175l385 700h147l242 -702q-84 -22 -128 -51t-46 -57zM269 247h215l-80 258z" />
    <glyph glyph-name="aogonek" unicode="&#x105;" horiz-adv-x="637" 
d="M535 -2q-92 -30 -125 -50.5t-35 -54.5q-2 -23 24.5 -30t47.5 7l34 -70q-28 -15 -73 -19.5t-88 2.5t-72.5 33t-24.5 67q2 23 15.5 42t36.5 33.5t44.5 24t51.5 19.5l8 45q-12 -19 -48.5 -38t-86.5 -19q-102 0 -173.5 72.5t-58.5 205.5q9 83 55 144.5t104 89t119 27.5
q38 0 69 -13t44.5 -25t17.5 -21l8 50h158zM270 129q54 0 93.5 37t45.5 102q7 57 -21.5 89.5t-77.5 32.5q-56 0 -97.5 -36.5t-49.5 -100.5q-6 -58 25 -91t82 -33z" />
    <glyph glyph-name="Cacute" unicode="&#x106;" horiz-adv-x="677" 
d="M615 880l-147 -129h-125l79 129h193zM603 72q-101 -82 -246 -82q-143 0 -238.5 90.5t-95.5 233.5q0 166 117.5 281t281.5 115q141 0 230 -86l-109 -105q-53 40 -121 40q-95 0 -164 -66t-70 -176q0 -78 53.5 -127t136.5 -49q76 0 140 50z" />
    <glyph glyph-name="cacute" unicode="&#x107;" horiz-adv-x="563" 
d="M503 700l-147 -129h-125l79 129h193zM305 529q153 0 213 -127l-120 -51q-34 28 -52 34q-16 5 -38 5q-17 0 -35.5 -4.5t-41.5 -15.5t-41.5 -36t-26.5 -60q-15 -67 17 -105t84 -38q27 0 48.5 7t32 14t29.5 22l119 -63q-85 -119 -234 -119q-49 0 -97 19t-87 54.5t-57 95
t-6 133.5q12 65 48.5 114t82.5 73.5t87 36t75 11.5z" />
    <glyph glyph-name="Cdotaccent" unicode="&#x10a;" horiz-adv-x="677" 
d="M504 880l-15 -130h-163l14 130h164zM603 72q-101 -82 -246 -82q-143 0 -238.5 90.5t-95.5 233.5q0 166 117.5 281t281.5 115q141 0 230 -86l-109 -105q-53 40 -121 40q-95 0 -164 -66t-70 -176q0 -78 53.5 -127t136.5 -49q76 0 140 50z" />
    <glyph glyph-name="cdotaccent" unicode="&#x10b;" horiz-adv-x="565" 
d="M394 700l-15 -130h-164l15 130h164zM307 529q153 0 213 -127l-124 -51q-43 39 -97 39q-55 0 -95.5 -41.5t-40.5 -109.5q0 -52 31.5 -81t76.5 -29q24 0 45.5 8t29.5 14t30 23l119 -63q-86 -119 -234 -119q-96 0 -173.5 64.5t-77.5 181.5q0 123 88 207t209 84z" />
    <glyph glyph-name="Ccaron" unicode="&#x10c;" horiz-adv-x="677" 
d="M517 742h-218l-87 138h105l93 -83l112 83h112zM603 72q-101 -82 -246 -82q-143 0 -238.5 90.5t-95.5 233.5q0 166 117.5 281t281.5 115q141 0 230 -86l-109 -105q-53 40 -121 40q-95 0 -164 -66t-70 -176q0 -78 53.5 -127t136.5 -49q76 0 140 50z" />
    <glyph glyph-name="ccaron" unicode="&#x10d;" horiz-adv-x="565" 
d="M406 562h-217l-87 138h104l94 -83l111 83h112zM307 529q153 0 213 -127l-124 -51q-43 39 -97 39q-55 0 -95.5 -41.5t-40.5 -109.5q0 -52 31.5 -81t76.5 -29q24 0 45.5 8t29.5 14t30 23l119 -63q-86 -119 -234 -119q-96 0 -173.5 64.5t-77.5 181.5q0 123 88 207t209 84z
" />
    <glyph glyph-name="Dcaron" unicode="&#x10e;" horiz-adv-x="713" 
d="M487 742h-217l-87 138h104l94 -83l111 83h112zM334 700q148 0 241.5 -103.5t79.5 -248.5q-16 -146 -128.5 -247t-260.5 -101h-263l74 700h257zM275 152q92 0 150 60t67 151q9 77 -35 131t-134 54h-101l-42 -396h95z" />
    <glyph glyph-name="dcaron" unicode="&#x10f;" horiz-adv-x="889" 
d="M421 470l28 237h158l-75 -707h-158l6 48q-10 -19 -47.5 -38.5t-88.5 -19.5q-92 0 -163 63t-71 178q0 124 82 211t198 87q53 0 88 -21.5t43 -37.5zM716 700h193l-147 -129h-124zM280 129q18 0 38 6.5t41.5 21.5t35.5 46t14 74q0 53 -33 83t-80 30q-57 0 -93.5 -40.5
t-36.5 -104.5q0 -56 31.5 -86t82.5 -30z" />
    <glyph glyph-name="Dcroat" unicode="&#x110;" horiz-adv-x="815" 
d="M437 700q147 0 241 -103.5t79 -248.5q-16 -146 -128.5 -247t-260.5 -101h-262l29 274h-58l13 133h58l32 293h257zM378 152q91 0 149 60t68 151q8 77 -36 131t-134 54h-101l-15 -141h91l-13 -133h-91l-13 -122h95z" />
    <glyph glyph-name="dcroat" unicode="&#x111;" horiz-adv-x="674" 
d="M602 673h88l-14 -130h-87l-10 -90l-47 -453h-158l6 48q-10 -19 -47.5 -38.5t-88.5 -19.5q-102 0 -173.5 72.5t-58.5 205.5q9 83 55 144.5t104 89t119 27.5q53 0 88 -21.5t43 -37.5l10 73h-135l13 130h135l5 34h158zM409 268q7 57 -21.5 89.5t-77.5 32.5
q-56 0 -97.5 -36.5t-49.5 -100.5q-6 -58 25 -91t82 -33q54 0 93.5 37t45.5 102z" />
    <glyph glyph-name="Emacron" unicode="&#x112;" horiz-adv-x="550" 
d="M516 880l-14 -130h-381l15 130h380zM180 148h287l-16 -148h-448l74 700h439l-16 -148h-278l-12 -127h208l-16 -145h-209z" />
    <glyph glyph-name="emacron" unicode="&#x113;" horiz-adv-x="599" 
d="M513 700l-14 -130h-380l14 130h380zM308 529q41 0 80.5 -13.5t74 -40t56 -72.5t21.5 -105q0 -49 -11 -96h-367q24 -81 122 -81q16 0 31 1.5t23.5 3t21.5 6.5t16 6t17.5 8t15.5 8l76 -85q-82 -79 -213 -79q-103 0 -182.5 65t-79.5 179q0 122 89.5 208.5t208.5 86.5z
M305 394q-89 0 -128 -81h227q-17 81 -99 81z" />
    <glyph glyph-name="Edotaccent" unicode="&#x116;" horiz-adv-x="550" 
d="M408 880l-14 -130h-164l14 130h164zM180 148h287l-16 -148h-448l74 700h439l-16 -148h-278l-12 -127h208l-16 -145h-209z" />
    <glyph glyph-name="edotaccent" unicode="&#x117;" horiz-adv-x="599" 
d="M405 700l-14 -130h-164l15 130h163zM308 529q41 0 80.5 -13.5t74 -40t56 -72.5t21.5 -105q0 -49 -11 -96h-367q24 -81 122 -81q16 0 31 1.5t23.5 3t21.5 6.5t16 6t17.5 8t15.5 8l76 -85q-82 -79 -213 -79q-103 0 -182.5 65t-79.5 179q0 122 89.5 208.5t208.5 86.5z
M305 394q-89 0 -128 -81h227q-17 81 -99 81z" />
    <glyph glyph-name="Eogonek" unicode="&#x118;" horiz-adv-x="551" 
d="M454 -2q-79 -22 -117.5 -51t-41.5 -57q-3 -23 23.5 -28t49.5 9l32 -71q-38 -21 -100.5 -23t-113 26t-44.5 85q4 39 42.5 66.5t114.5 47.5l-155 -2h-141l74 700h439l-16 -148h-278l-12 -127h208l-16 -145h-209l-13 -132h287z" />
    <glyph glyph-name="eogonek" unicode="&#x119;" horiz-adv-x="597" 
d="M306 529q48 0 93.5 -18t84 -57.5t50.5 -101.5t-7 -150h-366q24 -79 117 -79q24 0 44 3.5t29 6.5t28.5 11.5t25.5 10.5l82 -90q-58 -51 -127 -66q-94 -31 -127 -51.5t-35 -54.5q-2 -23 24.5 -30t47.5 7l34 -70q-28 -15 -73 -19.5t-88 2.5t-72.5 33t-24.5 67q7 72 141 114
q-83 25 -135.5 94.5t-41.5 174.5q9 83 60 145.5t113 90t123 27.5zM304 394q-39 0 -73.5 -21t-55.5 -60l227 6q-8 37 -35.5 56t-62.5 19z" />
    <glyph glyph-name="Ecaron" unicode="&#x11a;" horiz-adv-x="550" 
d="M421 742h-217l-88 138h105l94 -83l111 83h112zM180 148h287l-16 -148h-448l74 700h439l-16 -148h-278l-12 -127h208l-16 -145h-209z" />
    <glyph glyph-name="ecaron" unicode="&#x11b;" horiz-adv-x="599" 
d="M418 562h-217l-87 138h104l94 -83l111 83h112zM308 529q41 0 80.5 -13.5t74 -40t56 -72.5t21.5 -105q0 -49 -11 -96h-367q24 -81 122 -81q16 0 31 1.5t23.5 3t21.5 6.5t16 6t17.5 8t15.5 8l76 -85q-82 -79 -213 -79q-103 0 -182.5 65t-79.5 179q0 122 89.5 208.5
t208.5 86.5zM305 394q-89 0 -128 -81h227q-17 81 -99 81z" />
    <glyph glyph-name="Gbreve" unicode="&#x11e;" horiz-adv-x="760" 
d="M437 732q-74 0 -117.5 47t-37.5 104l96 -6q2 -17 17.5 -28.5t41.5 -11.5q29 0 50.5 14.5t26.5 31.5l96 -6q-6 -60 -50 -102.5t-123 -42.5zM395 377h303q8 -174 -91.5 -280.5t-248.5 -106.5q-143 0 -239 90.5t-96 233.5q0 166 117.5 281t281.5 115q141 0 230 -86
l-109 -105q-53 40 -121 40q-95 0 -164 -66t-70 -176q0 -76 51 -126t129 -50q134 0 169 102h-156z" />
    <glyph glyph-name="gbreve" unicode="&#x11f;" 
d="M337 552q-74 0 -117 47t-37 104l96 -6q2 -17 17.5 -28.5t40.5 -11.5q29 0 51 14.5t27 31.5l96 -6q-6 -60 -50 -102.5t-124 -42.5zM429 520h158l-55 -520q-6 -57 -36 -99.5t-74 -64.5t-89.5 -32t-91.5 -10q-88 0 -139 27l10 127q41 -23 131 -23q63 0 94.5 23.5t36.5 51.5
l6 48q-10 -19 -47.5 -38.5t-88.5 -19.5q-92 0 -163 63t-71 178q0 124 82 211t198 87q38 0 69 -13t44.5 -25t17.5 -21zM280 129q18 0 38 6.5t41.5 21.5t35.5 46t14 74q0 53 -33 83t-80 30q-57 0 -93.5 -40.5t-36.5 -104.5q0 -56 31.5 -86t82.5 -30z" />
    <glyph glyph-name="Gdotaccent" unicode="&#x120;" horiz-adv-x="760" 
d="M529 880l-14 -130h-164l14 130h164zM395 377h303q8 -174 -91.5 -280.5t-248.5 -106.5q-143 0 -239 90.5t-96 233.5q0 166 117.5 281t281.5 115q141 0 230 -86l-109 -105q-53 40 -121 40q-95 0 -164 -66t-70 -176q0 -76 51 -126t129 -50q134 0 169 102h-156z" />
    <glyph glyph-name="gdotaccent" unicode="&#x121;" 
d="M430 700l-14 -130h-164l14 130h164zM429 520h158l-55 -520q-6 -57 -36 -99.5t-74 -64.5t-89.5 -32t-91.5 -10q-88 0 -139 27l10 127q41 -23 131 -23q63 0 94.5 23.5t36.5 51.5l6 48q-10 -19 -47.5 -38.5t-88.5 -19.5q-92 0 -163 63t-71 178q0 124 82 211t198 87
q38 0 69 -13t44.5 -25t17.5 -21zM280 129q18 0 38 6.5t41.5 21.5t35.5 46t14 74q0 53 -33 83t-80 30q-57 0 -93.5 -40.5t-36.5 -104.5q0 -56 31.5 -86t82.5 -30z" />
    <glyph glyph-name="Gcommaaccent" unicode="&#x122;" horiz-adv-x="760" 
d="M395 377h303q8 -174 -91.5 -280.5t-248.5 -106.5q-143 0 -239 90.5t-96 233.5q0 166 117.5 281t281.5 115q141 0 230 -86l-109 -105q-53 40 -121 40q-95 0 -164 -66t-70 -176q0 -76 51 -126t129 -50q134 0 169 102h-156zM161 -271l72 246h210l-136 -246h-146z" />
    <glyph glyph-name="gcommaaccent" unicode="&#x123;" 
d="M482 800l-74 -245h-210l138 245h146zM429 520h158l-55 -520q-6 -57 -36 -99.5t-74 -64.5t-89.5 -32t-91.5 -10q-88 0 -139 27l10 127q41 -23 131 -23q63 0 94.5 23.5t36.5 51.5l6 48q-10 -19 -47.5 -38.5t-88.5 -19.5q-92 0 -163 63t-71 178q0 124 82 211t198 87
q38 0 69 -13t44.5 -25t17.5 -21zM280 129q18 0 38 6.5t41.5 21.5t35.5 46t14 74q0 53 -33 83t-80 30q-57 0 -93.5 -40.5t-36.5 -104.5q0 -56 31.5 -86t82.5 -30z" />
    <glyph glyph-name="Hbar" unicode="&#x126;" horiz-adv-x="703" 
d="M503 700h161l-74 -700h-161l28 277h-265l-28 -277h-161l74 700h161l-8 -67h265zM209 425h264l8 60h-265z" />
    <glyph glyph-name="hbar" unicode="&#x127;" horiz-adv-x="626" 
d="M376 528q84 0 137 -58.5t41 -173.5l-32 -296h-158l31 289q6 57 -8.5 79.5t-51.5 22.5q-49 0 -86 -34.5t-51 -67.5l-33 -289h-158l59 550h-62l8 83h62l8 74h158l-8 -74h131l-8 -83h-131l-14 -117q14 29 59 62t107 33z" />
    <glyph glyph-name="Imacron" unicode="&#x12a;" horiz-adv-x="281" 
d="M369 880l-15 -130h-380l14 130h381zM240 700l-74 -700h-161l74 700h161z" />
    <glyph glyph-name="imacron" unicode="&#x12b;" horiz-adv-x="260" 
d="M339 700l-15 -130h-380l14 130h381zM209 520l-55 -520h-158l55 520h158z" />
    <glyph glyph-name="Iogonek" unicode="&#x12e;" horiz-adv-x="287" 
d="M175 -2q-83 -22 -124.5 -51t-43.5 -57q-3 -23 23.5 -28t49.5 9l32 -71q-38 -21 -100.5 -23t-113 26t-44.5 85q8 75 155 114l76 698h161z" />
    <glyph glyph-name="iogonek" unicode="&#x12f;" horiz-adv-x="260" 
d="M67 700h164l-14 -130h-164zM-7 2l58 518h158l-52 -522q-161 -39 -168 -108q-3 -23 23.5 -28t48.5 9l32 -71q-38 -21 -100.5 -23t-113 26t-44.5 85q9 76 158 114z" />
    <glyph glyph-name="Idotaccent" unicode="&#x130;" horiz-adv-x="281" 
d="M261 880l-14 -130h-164l14 130h164zM240 700l-74 -700h-161l74 700h161z" />
    <glyph glyph-name="dotlessi" unicode="&#x131;" horiz-adv-x="255" 
d="M207 520l-55 -520h-158l55 520h158z" />
    <glyph glyph-name="IJ" unicode="&#x132;" horiz-adv-x="844" 
d="M238 700l-74 -700h-161l74 700h161zM805 700l-49 -466q-7 -66 -37 -116t-72.5 -77t-84 -40t-80.5 -13q-143 0 -219 100l106 113q49 -58 108 -58q15 0 31 4.5t36 15.5t35 36.5t19 62.5l46 438h161z" />
    <glyph glyph-name="ij" unicode="&#x133;" horiz-adv-x="532" 
d="M227 707l-14 -133h-158l14 133h158zM504 707l-14 -133h-158l14 133h158zM207 520l-55 -520h-158l55 520h158zM484 520l-60 -569q-8 -77 -54.5 -117t-119.5 -40q-67 0 -117 27l9 151q33 -16 71 -16q31 0 44 17t15 37l54 510h158z" />
    <glyph glyph-name="Kcommaaccent" unicode="&#x136;" horiz-adv-x="720" 
d="M393 405l245 -405h-181l-173 294l-93 -96l-22 -198h-166l74 700h166l-32 -287l270 287h200zM158 -271l72 246h210l-137 -246h-145z" />
    <glyph glyph-name="kcommaaccent" unicode="&#x137;" horiz-adv-x="599" 
d="M315 306l217 -306h-176l-145 202l-39 -34l-20 -168h-158l20 189l55 518h158l-39 -348l164 161h193zM77 -271l73 246h209l-136 -246h-146z" />
    <glyph glyph-name="Lacute" unicode="&#x139;" horiz-adv-x="518" 
d="M373 878l-147 -129h-125l79 129h193zM180 148h266l-16 -148h-427l74 700h161z" />
    <glyph glyph-name="lacute" unicode="&#x13a;" horiz-adv-x="258" 
d="M361 887l-147 -129h-125l79 129h193zM227 707l-75 -707h-158l75 707h158z" />
    <glyph glyph-name="Lcommaaccent" unicode="&#x13b;" horiz-adv-x="518" 
d="M180 148h266l-16 -148h-427l74 700h161zM36 -271l72 246h210l-137 -246h-145z" />
    <glyph glyph-name="lcommaaccent" unicode="&#x13c;" horiz-adv-x="286" 
d="M229 707l-75 -707h-158l75 707h158zM-100 -271l72 246h210l-136 -246h-146z" />
    <glyph glyph-name="Lcaron" unicode="&#x13d;" horiz-adv-x="518" 
d="M539 701l-122 -279h-141l128 279h135zM180 148h266l-16 -148h-427l74 700h161z" />
    <glyph glyph-name="lcaron" unicode="&#x13e;" horiz-adv-x="503" 
d="M227 707l-75 -707h-158l75 707h158zM245 421l128 279h135l-122 -279h-141z" />
    <glyph glyph-name="Ldot" unicode="&#x13f;" horiz-adv-x="518" 
d="M180 148h266l-16 -148h-427l74 700h161zM412 276q-38 0 -64 28.5t-22 67.5q5 33 32 57.5t60 24.5q39 0 64.5 -28.5t21.5 -68.5q-5 -33 -32 -57t-60 -24z" />
    <glyph glyph-name="ldot" unicode="&#x140;" horiz-adv-x="474" 
d="M227 707l-75 -707h-158l75 707h158zM339 273q-38 0 -63.5 29t-21.5 68q4 33 31 57.5t61 24.5q38 0 63.5 -28.5t21.5 -68.5q-4 -33 -31.5 -57.5t-60.5 -24.5z" />
    <glyph glyph-name="Lslash" unicode="&#x141;" horiz-adv-x="576" 
d="M238 148h266l-16 -148h-427l22 189l-68 -65l13 159l68 64l39 353h161l-21 -183l77 73h3l-15 -157l-79 -75z" />
    <glyph glyph-name="lslash" unicode="&#x142;" horiz-adv-x="321" 
d="M297 576l-15 -158l-55 -53l-41 -365h-159l24 198l-59 -55l13 159l59 54l38 351h159l-21 -183l54 52h3z" />
    <glyph glyph-name="Nacute" unicode="&#x143;" horiz-adv-x="728" 
d="M596 880l-147 -129h-124l78 129h193zM528 700h161l-74 -700h-121l-285 407l-45 -407h-161l74 700h123l283 -407z" />
    <glyph glyph-name="nacute" unicode="&#x144;" horiz-adv-x="613" 
d="M513 700l-147 -129h-125l79 129h193zM367 528q81 0 133.5 -58t40.5 -174l-32 -296h-158l31 289q12 102 -64 102q-49 0 -85.5 -34t-47.5 -68l-33 -289h-158l55 520h158l-10 -87q14 29 59.5 62t110.5 33z" />
    <glyph glyph-name="Ncommaaccent" unicode="&#x145;" horiz-adv-x="728" 
d="M528 700h161l-74 -700h-121l-285 407l-45 -407h-161l74 700h123l283 -407zM135 -271l72 246h209l-136 -246h-145z" />
    <glyph glyph-name="ncommaaccent" unicode="&#x146;" horiz-adv-x="613" 
d="M367 528q81 0 133.5 -58t40.5 -174l-32 -296h-158l31 289q12 102 -64 102q-49 0 -85.5 -34t-47.5 -68l-33 -289h-158l55 520h158l-10 -87q14 29 59.5 62t110.5 33zM70 -271l72 246h210l-136 -246h-146z" />
    <glyph glyph-name="Ncaron" unicode="&#x147;" horiz-adv-x="728" 
d="M498 742h-218l-87 138h105l94 -83l111 83h112zM528 700h161l-74 -700h-121l-285 407l-45 -407h-161l74 700h123l283 -407z" />
    <glyph glyph-name="ncaron" unicode="&#x148;" horiz-adv-x="613" 
d="M414 562h-217l-87 138h104l94 -83l111 83h112zM367 528q81 0 133.5 -58t40.5 -174l-32 -296h-158l31 289q12 102 -64 102q-49 0 -85.5 -34t-47.5 -68l-33 -289h-158l55 520h158l-10 -87q14 29 59.5 62t110.5 33z" />
    <glyph glyph-name="Eng" unicode="&#x14a;" horiz-adv-x="728" 
d="M525 700h164l-67 -641l-3 -23q-7 -66 -37 -116t-72.5 -77t-84 -40t-80.5 -13q-141 0 -217 100l104 113q54 -58 109 -58q21 0 41.5 6t46 32t33.5 69l-253 356l-45 -408h-161l74 700h123l283 -408z" />
    <glyph glyph-name="eng" unicode="&#x14b;" horiz-adv-x="613" 
d="M363 528q84 0 137 -58.5t41 -173.5l-32 -296l-5 -49q-8 -77 -54.5 -117t-119.5 -40q-67 0 -117 27l9 151q33 -16 72 -16q30 0 43 17t15 37v1l30 278q6 57 -8.5 79.5t-51.5 22.5q-49 0 -86 -34.5t-51 -67.5l-33 -289h-158l55 520h158l-10 -87q14 29 59 62t107 33z" />
    <glyph glyph-name="Omacron" unicode="&#x14c;" horiz-adv-x="813" 
d="M632 880l-14 -130h-381l14 130h381zM420 710q154 0 251 -104t81 -264q-16 -153 -132 -252.5t-265 -99.5q-154 0 -251 104t-79 264q16 153 130.5 252.5t264.5 99.5zM360 141q87 0 151.5 61.5t74.5 155.5q8 87 -40.5 144t-130.5 57q-87 0 -150.5 -61.5t-73.5 -155.5
q-10 -87 38 -144t131 -57z" />
    <glyph glyph-name="omacron" unicode="&#x14d;" horiz-adv-x="619" 
d="M520 700l-14 -130h-380l14 130h380zM306 529q47 0 93 -18t84.5 -51t59.5 -87.5t14 -121.5q-9 -84 -60 -145.5t-113 -88.5t-123 -27q-47 0 -93 17t-84.5 49.5t-59.5 87.5t-14 122q9 83 60 145.5t113 90t123 27.5zM304 390q-51 0 -93 -37t-49 -102q-7 -56 24.5 -89
t77.5 -33q50 0 93 37t49 100q6 58 -25 91t-77 33z" />
    <glyph glyph-name="Ohungarumlaut" unicode="&#x150;" horiz-adv-x="813" 
d="M571 880l-148 -129h-124l79 129h193zM790 880l-148 -129h-124l79 129h193zM420 710q154 0 251 -104t81 -264q-16 -153 -132 -252.5t-265 -99.5q-154 0 -251 104t-79 264q16 153 130.5 252.5t264.5 99.5zM360 141q87 0 151.5 61.5t74.5 155.5q8 87 -40.5 144t-130.5 57
q-87 0 -150.5 -61.5t-73.5 -155.5q-10 -87 38 -144t131 -57z" />
    <glyph glyph-name="ohungarumlaut" unicode="&#x151;" horiz-adv-x="619" 
d="M459 700l-147 -129h-125l79 129h193zM678 700l-147 -129h-125l79 129h193zM306 529q47 0 93 -18t84.5 -51t59.5 -87.5t14 -121.5q-9 -84 -60 -145.5t-113 -88.5t-123 -27q-47 0 -93 17t-84.5 49.5t-59.5 87.5t-14 122q9 83 60 145.5t113 90t123 27.5zM304 390
q-51 0 -93 -37t-49 -102q-7 -56 24.5 -89t77.5 -33q50 0 93 37t49 100q6 58 -25 91t-77 33z" />
    <glyph glyph-name="OE" unicode="&#x152;" horiz-adv-x="1101" 
d="M731 148h288l-16 -148h-449l6 23q-90 -33 -205 -33q-154 0 -251 104t-79 264q16 153 130.5 252.5t264.5 99.5q106 0 201 -39l7 29h440l-16 -148h-279l-12 -127h208l-16 -145h-208zM360 141q74 0 146 63.5t82 153.5q7 82 -47.5 141.5t-125.5 59.5q-87 0 -150.5 -61.5
t-73.5 -155.5q-10 -87 38 -144t131 -57z" />
    <glyph glyph-name="oe" unicode="&#x153;" horiz-adv-x="993" 
d="M702 529q48 0 93.5 -18t84 -57.5t50.5 -101.5t-7 -150h-367q24 -79 118 -79q24 0 44 3.5t29 6.5t28.5 11.5t24.5 10.5l82 -90q-87 -75 -216 -75q-113 0 -200 67q-98 -67 -205 -67q-47 0 -93 17t-84.5 49.5t-59.5 87.5t-14 122q9 83 60 145.5t113 90t123 27.5
q105 0 193 -69q94 69 203 69zM699 394q-38 0 -72.5 -21t-56.5 -60l228 6q-9 37 -36 56t-63 19zM264 129q50 0 93 37t49 100q6 58 -25 91t-77 33q-51 0 -93 -37t-49 -102q-7 -56 24.5 -89t77.5 -33z" />
    <glyph glyph-name="Racute" unicode="&#x154;" horiz-adv-x="653" 
d="M523 880l-147 -129h-125l79 129h193zM561 0h-166l-117 229h-90l-24 -229h-161l74 700h246q118 0 184 -68t53 -181q-14 -135 -134 -196zM203 366h74q115 0 124 100q6 46 -20.5 66t-78.5 20h-80z" />
    <glyph glyph-name="racute" unicode="&#x155;" horiz-adv-x="450" 
d="M439 700l-147 -129h-125l79 129h193zM378 528q31 0 44 -3l-10 -151q-13 3 -33 3q-74 0 -132.5 -48t-71.5 -120l-23 -209h-158l55 520h158l-15 -122q28 61 75.5 95.5t110.5 34.5z" />
    <glyph glyph-name="Rcommaaccent" unicode="&#x156;" horiz-adv-x="653" 
d="M561 0h-166l-117 229h-90l-24 -229h-161l74 700h246q118 0 184 -68t53 -181q-14 -135 -134 -196zM203 366h74q115 0 124 100q6 46 -20.5 66t-78.5 20h-80zM89 -271l72 246h210l-137 -246h-145z" />
    <glyph glyph-name="rcommaaccent" unicode="&#x157;" horiz-adv-x="452" 
d="M380 528q31 0 44 -3l-10 -151q-13 3 -33 3q-74 0 -132.5 -48t-71.5 -120l-23 -209h-158l55 520h158l-15 -122q28 61 75.5 95.5t110.5 34.5zM-104 -271l72 246h210l-137 -246h-145z" />
    <glyph glyph-name="Rcaron" unicode="&#x158;" horiz-adv-x="653" 
d="M424 742h-217l-87 138h104l94 -83l111 83h112zM561 0h-166l-117 229h-90l-24 -229h-161l74 700h246q118 0 184 -68t53 -181q-14 -135 -134 -196zM203 366h74q115 0 124 100q6 46 -20.5 66t-78.5 20h-80z" />
    <glyph glyph-name="rcaron" unicode="&#x159;" horiz-adv-x="485" 
d="M371 562h-217l-87 138h104l94 -83l111 83h112zM409 528q31 0 44 -3l-10 -151q-13 3 -33 3q-74 0 -132.5 -48t-71.5 -120l-23 -209h-158l55 520h158l-15 -122q28 61 75.5 95.5t110.5 34.5z" />
    <glyph glyph-name="Sacute" unicode="&#x15a;" horiz-adv-x="579" 
d="M524 880l-148 -129h-124l79 129h193zM305 712q156 0 232 -147l-125 -66q-26 38 -53 54.5t-66 16.5q-34 0 -58 -17.5t-24 -47.5q0 -27 14 -41t49 -27l45 -16q105 -39 152 -89t47 -116q0 -107 -85 -169t-192 -62q-93 0 -160 50t-87 126l128 61q38 -92 124 -92q46 0 76 21
t30 63q0 25 -18.5 41t-68.5 35l-39 15q-81 29 -126.5 72.5t-45.5 121.5q0 66 38.5 116t94.5 73.5t118 23.5z" />
    <glyph glyph-name="sacute" unicode="&#x15b;" horiz-adv-x="475" 
d="M440 700l-147 -129h-125l79 129h193zM283 359q-14 45 -50 45q-19 0 -35 -11t-18 -28q-3 -20 30 -33l64 -23q28 -10 43 -16.5t37 -20.5t32.5 -29.5t17.5 -40.5t4 -56q-7 -72 -73.5 -115t-151.5 -43q-76 0 -133 41.5t-67 109.5l127 33q20 -59 74 -59q27 0 46.5 15t22.5 35
q-3 17 -28 27l-58 22q-151 56 -139 171q7 66 65 106t134 40t123.5 -38t63.5 -103z" />
    <glyph glyph-name="Scedilla" unicode="&#x15e;" horiz-adv-x="577" 
d="M516 192q-8 -83 -68 -133.5t-144 -67.5l-46 -32q39 -11 65.5 -34.5t21.5 -58.5q-5 -59 -73 -81t-160 3l7 33q45 -10 75 10t33 50q0 16 -18.5 25t-43.5 -7l-47 44l35 53q-60 21 -101.5 64.5t-57.5 100.5l126 60q15 -28 27.5 -44.5t38.5 -31.5t60 -15q43 0 71.5 19t32.5 56
q4 29 -14 47t-72 38l-39 15q-42 16 -70.5 32t-55 41.5t-37.5 62t-6 84.5q8 80 81 133.5t167 53.5q87 0 144.5 -43t87.5 -104l-124 -65q-26 37 -51 53.5t-60 16.5q-34 0 -59.5 -19t-28.5 -49q-2 -23 11 -37.5t49 -27.5l45 -16q115 -42 161 -97.5t37 -131.5z" />
    <glyph glyph-name="scedilla" unicode="&#x15f;" horiz-adv-x="475" 
d="M408 146q-5 -51 -42.5 -90t-95.5 -59l-53 -35q39 -11 65.5 -34t23.5 -58q-7 -60 -75 -82t-160 4l8 33q44 -10 74 9.5t33 50.5q1 16 -18 25.5t-43 -7.5l-48 43l34 53q-50 16 -85.5 53.5t-42.5 86.5l127 33q20 -59 74 -59q27 0 46.5 15t22.5 35q-3 17 -28 27l-58 22
q-151 56 -139 171q7 66 65 106t134 40t123.5 -38t63.5 -103l-131 -29q-14 45 -50 45q-19 0 -35 -11t-18 -28q-3 -20 30 -33l64 -23q28 -10 43 -16.5t37 -20.5t32.5 -29.5t17.5 -40.5t4 -56z" />
    <glyph glyph-name="Scaron" unicode="&#x160;" horiz-adv-x="579" 
d="M425 742h-217l-88 138h105l94 -83l111 83h112zM305 712q156 0 232 -147l-125 -66q-26 38 -53 54.5t-66 16.5q-34 0 -58 -17.5t-24 -47.5q0 -27 14 -41t49 -27l45 -16q105 -39 152 -89t47 -116q0 -107 -85 -169t-192 -62q-93 0 -160 50t-87 126l128 61q38 -92 124 -92
q46 0 76 21t30 63q0 25 -18.5 41t-68.5 35l-39 15q-81 29 -126.5 72.5t-45.5 121.5q0 66 38.5 116t94.5 73.5t118 23.5z" />
    <glyph glyph-name="scaron" unicode="&#x161;" horiz-adv-x="475" 
d="M342 562h-218l-87 138h105l93 -83l112 83h112zM283 359q-14 45 -50 45q-19 0 -35 -11t-18 -28q-3 -20 30 -33l64 -23q28 -10 43 -16.5t37 -20.5t32.5 -29.5t17.5 -40.5t4 -56q-7 -72 -73.5 -115t-151.5 -43q-76 0 -133 41.5t-67 109.5l127 33q20 -59 74 -59q27 0 46.5 15
t22.5 35q-3 17 -28 27l-58 22q-151 56 -139 171q7 66 65 106t134 40t123.5 -38t63.5 -103z" />
    <glyph glyph-name="uni0162" unicode="&#x162;" horiz-adv-x="573" 
d="M373 552l-56 -552l-57 -41q39 -11 66 -34.5t22 -58.5q-5 -59 -73.5 -81t-159.5 3l7 33q45 -10 75 10t33 50q0 16 -18.5 25t-43.5 -7l-48 44l32 57l60 552h-165l16 148h491l-16 -148h-165z" />
    <glyph glyph-name="uni0163" unicode="&#x163;" horiz-adv-x="414" 
d="M356 390h-111l-23 -210q-6 -48 32 -48q31 0 73 11l-7 -134q-5 -1 -15.5 -4.5l-13.5 -4.5l-61 -41q39 -11 65.5 -34.5t21.5 -58.5q-5 -59 -73 -81t-160 3l8 33q44 -10 74 10t33 50q0 16 -18.5 25t-43.5 -7l-47 44l46 62q-86 33 -72 181l23 204h-73l12 130h73l13 122h158
l-13 -122h111z" />
    <glyph glyph-name="Tcaron" unicode="&#x164;" horiz-adv-x="573" 
d="M423 742h-218l-87 138h105l94 -83l111 83h112zM554 700l-16 -148h-165l-58 -552h-161l58 552h-165l16 148h491z" />
    <glyph glyph-name="tcaron" unicode="&#x165;" horiz-adv-x="575" 
d="M658 809l-216 -239l-106 -50h32l-12 -130h-111l-23 -210q-6 -48 32 -48q31 0 73 11l-7 -133q-38 -16 -110 -16q-78 0 -117.5 41t-28.5 151l23 204h-73l12 130h73l13 122h158l-7 -67l55 124z" />
    <glyph glyph-name="Tbar" unicode="&#x166;" horiz-adv-x="573" 
d="M538 552h-165l-5 -51h110l-14 -129h-110l-39 -372h-161l39 372h-110l14 129h110l5 51h-165l16 148h491z" />
    <glyph glyph-name="tbar" unicode="&#x167;" horiz-adv-x="405" 
d="M356 390h-111l-8 -70h107l-14 -130h-107l-1 -10q-6 -48 32 -48q31 0 73 11l-7 -133q-38 -16 -110 -16q-78 0 -117.5 41t-28.5 151v4h-73l15 130h73l8 70h-73l12 130h73l13 122h158l-13 -122h111z" />
    <glyph glyph-name="Umacron" unicode="&#x16a;" horiz-adv-x="661" 
d="M565 880l-14 -130h-380l14 130h380zM461 700h161l-47 -449q-13 -123 -98 -194.5t-199 -71.5q-118 0 -191.5 74.5t-60.5 197.5l47 443h161l-47 -450q-7 -64 22.5 -89t73.5 -25q48 0 86.5 27.5t44.5 92.5z" />
    <glyph glyph-name="umacron" unicode="&#x16b;" horiz-adv-x="610" 
d="M515 700l-14 -130h-381l14 130h381zM194 -8q-83 0 -136 58.5t-41 173.5l30 296h158l-30 -289q-6 -57 8 -79t51 -22q49 0 86.5 34.5t50.5 66.5l33 289h158l-55 -520h-158l12 87q-17 -30 -61 -62.5t-106 -32.5z" />
    <glyph glyph-name="Ubreve" unicode="&#x16c;" horiz-adv-x="661" 
d="M539 877q-6 -60 -50 -102.5t-124 -42.5q-74 0 -117.5 47t-37.5 104l96 -6q2 -17 18 -28.5t41 -11.5q29 0 50.5 14.5t27.5 31.5zM461 700h161l-47 -449q-13 -123 -98 -194.5t-199 -71.5q-118 0 -191.5 74.5t-60.5 197.5l47 443h161l-47 -450q-7 -64 22.5 -89t73.5 -25
q48 0 86.5 27.5t44.5 92.5z" />
    <glyph glyph-name="ubreve" unicode="&#x16d;" horiz-adv-x="610" 
d="M488 697q-6 -60 -50 -102.5t-124 -42.5q-74 0 -117 47t-37 104l96 -6q2 -17 17.5 -28.5t40.5 -11.5q29 0 51 14.5t27 31.5zM194 -8q-83 0 -136 58.5t-41 173.5l30 296h158l-30 -289q-6 -57 8 -79t51 -22q49 0 86.5 34.5t50.5 66.5l33 289h158l-55 -520h-158l12 87
q-17 -30 -61 -62.5t-106 -32.5z" />
    <glyph glyph-name="Uring" unicode="&#x16e;" horiz-adv-x="661" 
d="M382 996q50 0 83 -37.5t27 -89.5q-4 -44 -41 -77t-82 -33q-53 0 -86.5 37t-28.5 88q6 46 43 79t85 33zM381 902q-11 0 -20.5 -9t-10.5 -22q0 -5 4.5 -9.5t11.5 -4.5q11 0 20.5 8t10.5 21q1 6 -4 11t-12 5zM461 700h161l-47 -449q-13 -123 -98 -194.5t-199 -71.5
q-118 0 -191.5 74.5t-60.5 197.5l47 443h161l-47 -450q-7 -64 22.5 -89t73.5 -25q48 0 86.5 27.5t44.5 92.5z" />
    <glyph glyph-name="uring" unicode="&#x16f;" horiz-adv-x="610" 
d="M331 816q51 0 83.5 -37.5t26.5 -89.5q-4 -44 -41 -77t-82 -33q-53 0 -86 37t-28 88q5 46 42 79t85 33zM330 722q-10 0 -19 -9t-12 -22q2 -14 17 -14q11 0 20 8.5t10 20.5q1 7 -3.5 11.5t-12.5 4.5zM194 -8q-83 0 -136 58.5t-41 173.5l30 296h158l-30 -289q-6 -57 8 -79
t51 -22q49 0 86.5 34.5t50.5 66.5l33 289h158l-55 -520h-158l12 87q-17 -30 -61 -62.5t-106 -32.5z" />
    <glyph glyph-name="Uhungarumlaut" unicode="&#x170;" horiz-adv-x="674" 
d="M504 880l-147 -129h-125l79 129h193zM723 880l-147 -129h-125l79 129h193zM461 700h161l-47 -449q-13 -123 -98 -194.5t-199 -71.5q-118 0 -191.5 74.5t-60.5 197.5l47 443h161l-47 -450q-7 -64 22.5 -89t73.5 -25q48 0 86.5 27.5t44.5 92.5z" />
    <glyph glyph-name="uhungarumlaut" unicode="&#x171;" horiz-adv-x="646" 
d="M454 700l-148 -129h-124l79 129h193zM673 700l-148 -129h-124l79 129h193zM194 -8q-83 0 -136 58.5t-41 173.5l30 296h158l-30 -289q-6 -57 8 -79t51 -22q49 0 86.5 34.5t50.5 66.5l33 289h158l-55 -520h-158l12 87q-17 -30 -61 -62.5t-106 -32.5z" />
    <glyph glyph-name="Uogonek" unicode="&#x172;" horiz-adv-x="661" 
d="M461 700h161l-47 -449q-11 -96 -65.5 -161.5t-135.5 -92.5q-100 -35 -106 -89q-3 -22 23.5 -27t48.5 8l33 -70q-27 -15 -72 -20t-88.5 2.5t-73 35t-24.5 70.5q4 51 80 85q-82 24 -130.5 94.5t-38.5 170.5l47 443h161l-47 -450q-7 -64 22.5 -89t73.5 -25q48 0 86.5 27.5
t44.5 92.5z" />
    <glyph glyph-name="uogonek" unicode="&#x173;" horiz-adv-x="612" 
d="M380 -93q-3 -27 22.5 -36.5t47.5 4.5l32 -75q-27 -15 -72 -16t-87.5 10t-72 40.5t-24.5 70.5q5 40 38.5 66t81.5 29l15 87q-17 -30 -61 -62.5t-106 -32.5q-83 0 -136 58.5t-41 173.5l30 296h158l-30 -289q-6 -57 8 -79t51 -22q49 0 86.5 34.5t50.5 66.5l33 289h158
l-52 -522q-64 -14 -95.5 -40.5t-34.5 -50.5z" />
    <glyph glyph-name="Wcircumflex" unicode="&#x174;" horiz-adv-x="1049" 
d="M669 880l87 -138h-105l-92 83l-113 -83h-112l117 138h218zM1050 700l-305 -700h-118l-113 418l-199 -418h-118l-156 700h166l85 -388l186 388h127l105 -388l166 388h174z" />
    <glyph glyph-name="wcircumflex" unicode="&#x175;" horiz-adv-x="954" 
d="M592 700l87 -138h-105l-92 83l-113 -83h-112l117 138h218zM770 522h161l-240 -522h-153l-79 337l-149 -337h-152l-131 522h154l73 -334l153 334h137l86 -334z" />
    <glyph glyph-name="Ycircumflex" unicode="&#x176;" horiz-adv-x="756" 
d="M522 880l88 -138h-105l-93 83l-112 -83h-112l117 138h217zM747 700l-311 -408l-33 -292h-161l33 292l-224 408h178l138 -262l194 262h186z" />
    <glyph glyph-name="ycircumflex" unicode="&#x177;" horiz-adv-x="655" 
d="M346 645l-112 -83h-112l117 138h217l88 -138h-105zM472 522h160l-393 -712h-161l120 210l-171 502h154l112 -334z" />
    <glyph glyph-name="Ydieresis" unicode="&#x178;" horiz-adv-x="756" 
d="M365 880l-14 -130h-164l14 130h164zM630 880l-14 -130h-164l14 130h164zM747 700l-311 -408l-33 -292h-161l33 292l-224 408h178l138 -262l194 262h186z" />
    <glyph glyph-name="Zacute" unicode="&#x179;" horiz-adv-x="631" 
d="M527 880l-148 -129h-124l79 129h193zM617 700l-367 -562h309l-14 -138h-567l366 562h-288l15 138h546z" />
    <glyph glyph-name="zacute" unicode="&#x17a;" horiz-adv-x="552" 
d="M501 700l-147 -129h-125l79 129h193zM529 520l-291 -382h232l-15 -138h-487l291 382h-226l15 138h481z" />
    <glyph glyph-name="Zdotaccent" unicode="&#x17b;" horiz-adv-x="631" 
d="M415 880l-14 -130h-164l14 130h164zM617 700l-367 -562h309l-14 -138h-567l366 562h-288l15 138h546z" />
    <glyph glyph-name="zdotaccent" unicode="&#x17c;" horiz-adv-x="552" 
d="M390 700l-15 -130h-163l14 130h164zM529 520l-291 -382h232l-15 -138h-487l291 382h-226l15 138h481z" />
    <glyph glyph-name="Zcaron" unicode="&#x17d;" horiz-adv-x="631" 
d="M428 742h-217l-88 138h105l94 -83l111 83h112zM617 700l-367 -562h309l-14 -138h-567l366 562h-288l15 138h546z" />
    <glyph glyph-name="zcaron" unicode="&#x17e;" horiz-adv-x="552" 
d="M402 562h-217l-87 138h104l94 -83l111 83h112zM529 520l-291 -382h232l-15 -138h-487l291 382h-226l15 138h481z" />
    <glyph glyph-name="florin" unicode="&#x192;" horiz-adv-x="334" 
d="M313 594q-19 0 -32.5 -6t-20 -12t-11 -22.5t-5 -24t-2.5 -30.5l3 21h58l-15 -134h-58l-42 -405q-11 -96 -61.5 -133.5t-173.5 -37.5l9 138q23 0 36 3t20 14t8.5 19t3.5 30q1 6 1 9l38 363h-65l14 134h66l3 22q9 99 61.5 144t173.5 45z" />
    <glyph glyph-name="uni01CD" unicode="&#x1cd;" horiz-adv-x="804" 
d="M538 742h-218l-87 138h105l94 -83l111 83h112zM565 0l-36 116h-330l-61 -116h-175l385 700h147l237 -700h-167zM269 247h215l-80 258z" />
    <glyph glyph-name="uni01CE" unicode="&#x1ce;" 
d="M471 562h-217l-88 138h105l94 -83l111 83h112zM421 470l8 50h158l-55 -520h-158l6 48q-10 -19 -47.5 -38.5t-88.5 -19.5q-92 0 -163 63t-71 178q0 124 82 211t198 87q38 0 69 -13t44.5 -25t17.5 -21zM280 129q18 0 38 6.5t41.5 21.5t35.5 46t14 74q0 53 -33 83t-80 30
q-57 0 -93.5 -40.5t-36.5 -104.5q0 -56 31.5 -86t82.5 -30z" />
    <glyph glyph-name="uni01CF" unicode="&#x1cf;" horiz-adv-x="281" 
d="M274 742h-218l-87 138h105l93 -83l112 83h112zM240 700l-74 -700h-161l74 700h161z" />
    <glyph glyph-name="uni01D0" unicode="&#x1d0;" horiz-adv-x="260" 
d="M244 562h-218l-87 138h105l93 -83l112 83h112zM209 520l-55 -520h-158l55 520h158z" />
    <glyph glyph-name="uni01D1" unicode="&#x1d1;" horiz-adv-x="813" 
d="M537 742h-218l-87 138h105l94 -83l111 83h112zM420 710q154 0 251 -104t81 -264q-16 -153 -132 -252.5t-265 -99.5q-154 0 -251 104t-79 264q16 153 130.5 252.5t264.5 99.5zM360 141q87 0 151.5 61.5t74.5 155.5q8 87 -40.5 144t-130.5 57q-87 0 -150.5 -61.5
t-73.5 -155.5q-10 -87 38 -144t131 -57z" />
    <glyph glyph-name="uni01D2" unicode="&#x1d2;" horiz-adv-x="619" 
d="M425 562h-217l-87 138h104l94 -83l111 83h112zM306 529q47 0 93 -18t84.5 -51t59.5 -87.5t14 -121.5q-9 -84 -60 -145.5t-113 -88.5t-123 -27q-47 0 -93 17t-84.5 49.5t-59.5 87.5t-14 122q9 83 60 145.5t113 90t123 27.5zM304 390q-51 0 -93 -37t-49 -102
q-7 -56 24.5 -89t77.5 -33q50 0 93 37t49 100q6 58 -25 91t-77 33z" />
    <glyph glyph-name="uni01D3" unicode="&#x1d3;" horiz-adv-x="661" 
d="M470 742h-217l-87 138h104l94 -83l111 83h112zM461 700h161l-47 -449q-13 -123 -98 -194.5t-199 -71.5q-118 0 -191.5 74.5t-60.5 197.5l47 443h161l-47 -450q-7 -64 22.5 -89t73.5 -25q48 0 86.5 27.5t44.5 92.5z" />
    <glyph glyph-name="uni01D4" unicode="&#x1d4;" horiz-adv-x="610" 
d="M420 562h-218l-87 138h105l94 -83l111 83h112zM194 -8q-83 0 -136 58.5t-41 173.5l30 296h158l-30 -289q-6 -57 8 -79t51 -22q49 0 86.5 34.5t50.5 66.5l33 289h158l-55 -520h-158l12 87q-17 -30 -61 -62.5t-106 -32.5z" />
    <glyph glyph-name="uni01EA" unicode="&#x1ea;" horiz-adv-x="813" 
d="M443 -1q-80 -22 -118.5 -51.5t-41.5 -57.5q-3 -23 23.5 -28t48.5 9l32 -71q-38 -21 -100.5 -23t-113 26t-44.5 85q8 71 143 109q-122 28 -192 125.5t-55 235.5q16 153 130.5 252.5t264.5 99.5q154 0 251 -104t81 -264q-14 -129 -100.5 -222.5t-208.5 -120.5zM191 342
q-10 -87 38 -144t131 -57q87 0 151.5 61.5t74.5 155.5q8 87 -40.5 144t-130.5 57q-87 0 -150.5 -61.5t-73.5 -155.5z" />
    <glyph glyph-name="uni01EB" unicode="&#x1eb;" horiz-adv-x="619" 
d="M326 -2q-78 -23 -115 -52t-40 -56q-3 -23 23.5 -28t48.5 9l33 -71q-28 -15 -72.5 -19.5t-88 2.5t-73 34.5t-24.5 70.5q9 77 152 113q-77 29 -123.5 97t-36.5 168q9 83 60 145.5t113 90t123 27.5q47 0 93 -18t84.5 -51t59.5 -87.5t14 -121.5q-11 -102 -78 -168t-153 -85z
M162 251q-7 -56 24.5 -89t77.5 -33q50 0 93 37t49 100q6 58 -25 91t-77 33q-51 0 -93 -37t-49 -102z" />
    <glyph glyph-name="Scommaaccent" unicode="&#x218;" horiz-adv-x="579" 
d="M305 712q156 0 232 -147l-125 -66q-26 38 -53 54.5t-66 16.5q-34 0 -58 -17.5t-24 -47.5q0 -27 14 -41t49 -27l45 -16q105 -39 152 -89t47 -116q0 -107 -85 -169t-192 -62q-93 0 -160 50t-87 126l128 61q38 -92 124 -92q46 0 76 21t30 63q0 25 -18.5 41t-68.5 35l-39 15
q-81 29 -126.5 72.5t-45.5 121.5q0 66 38.5 116t94.5 73.5t118 23.5zM57 -271l72 246h210l-137 -246h-145z" />
    <glyph glyph-name="scommaaccent" unicode="&#x219;" horiz-adv-x="475" 
d="M283 359q-14 45 -50 45q-19 0 -35 -11t-18 -28q-3 -20 30 -33l64 -23q28 -10 43 -16.5t37 -20.5t32.5 -29.5t17.5 -40.5t4 -56q-7 -72 -73.5 -115t-151.5 -43q-76 0 -133 41.5t-67 109.5l127 33q20 -59 74 -59q27 0 46.5 15t22.5 35q-3 17 -28 27l-58 22
q-151 56 -139 171q7 66 65 106t134 40t123.5 -38t63.5 -103zM14 -271l72 246h210l-136 -246h-146z" />
    <glyph glyph-name="uni021A" unicode="&#x21a;" horiz-adv-x="573" 
d="M63 700h491l-16 -148h-165l-58 -552h-161l58 552h-165zM61 -271l73 246h209l-136 -246h-146z" />
    <glyph glyph-name="uni021B" unicode="&#x21b;" horiz-adv-x="405" 
d="M356 390h-111l-23 -210q-6 -48 32 -48q31 0 73 11l-7 -133q-38 -16 -110 -16q-78 0 -117.5 41t-28.5 151l23 204h-73l12 130h73l13 122h158l-13 -122h111zM27 -271l72 246h210l-137 -246h-145z" />
    <glyph glyph-name="uni0237" unicode="&#x237;" horiz-adv-x="274" 
d="M226 520l-60 -569q-8 -77 -54.5 -117t-119.5 -40q-67 0 -117 27l9 151q33 -16 72 -16q49 0 59 54l53 510h158z" />
    <glyph glyph-name="circumflex" unicode="&#x2c6;" horiz-adv-x="422" 
d="M337 700l87 -138h-105l-93 83l-112 -83h-112l117 138h218z" />
    <glyph glyph-name="caron" unicode="&#x2c7;" horiz-adv-x="422" 
d="M325 562h-217l-87 138h104l94 -83l111 83h112z" />
    <glyph glyph-name="breve" unicode="&#x2d8;" horiz-adv-x="329" 
d="M348 697q-7 -60 -51 -102.5t-123 -42.5q-74 0 -117.5 47t-37.5 104l96 -6q2 -17 17.5 -28.5t41.5 -11.5q29 0 50.5 14.5t26.5 31.5z" />
    <glyph glyph-name="dotaccent" unicode="&#x2d9;" horiz-adv-x="169" 
d="M185 700l-14 -130h-164l14 130h164z" />
    <glyph glyph-name="ring" unicode="&#x2da;" horiz-adv-x="240" 
d="M147 816q50 0 82.5 -37.5t27.5 -89.5q-4 -44 -41.5 -77t-82.5 -33q-53 0 -86 37t-28 88q6 46 42.5 79t85.5 33zM146 722q-25 0 -32 -31q2 -14 17 -14q11 0 20 8.5t10 20.5q1 7 -3.5 11.5t-11.5 4.5z" />
    <glyph glyph-name="ogonek" unicode="&#x2db;" horiz-adv-x="297" 
d="M245 -2q-79 -22 -117.5 -51t-41.5 -57q-3 -23 24 -28t49 9l32 -71q-38 -21 -100.5 -23t-113 26t-44.5 85q4 39 42.5 66.5t114.5 47.5z" />
    <glyph glyph-name="tilde" unicode="&#x2dc;" horiz-adv-x="413" 
d="M146 753q40 0 100 -35t81 -35q15 0 31 6t17 14l57 -6q-6 -58 -40.5 -98t-92.5 -40q-40 0 -102 41t-84 41q-13 0 -29.5 -9t-17.5 -21l-56 6q7 59 40.5 97.5t95.5 38.5z" />
    <glyph glyph-name="hungarumlaut" unicode="&#x2dd;" horiz-adv-x="479" 
d="M275 700l-147 -129h-125l79 129h193zM494 700l-147 -129h-125l79 129h193z" />
    <glyph glyph-name="uni0326" unicode="&#x326;" horiz-adv-x="0" 
d="M-358 -215l73 246h209l-136 -246h-146z" />
    <glyph glyph-name="uni0394" unicode="&#x394;" horiz-adv-x="733" 
d="M401 700l225 -700h-633l374 700h34zM360 444l-149 -306h234z" />
    <glyph glyph-name="uni03A9" unicode="&#x3a9;" horiz-adv-x="779" 
d="M403 707q65 0 125.5 -26.5t106 -73t69 -114.5t15.5 -145q-13 -121 -82 -211l23 16h14l-16 -153h-243l15 175l31 24q37 28 63 72t32 92q10 88 -35.5 135.5t-121.5 47.5q-81 0 -139.5 -52t-67.5 -146q-4 -43 10.5 -84t43.5 -69l26 -20l-15 -175h-243l16 153h20l19 -10
q-55 101 -42 220q8 74 44.5 139t89 109.5t116.5 70t126 25.5z" />
    <glyph glyph-name="uni03BC" unicode="&#x3bc;" horiz-adv-x="611" 
d="M405 520h158l-55 -520h-158l12 87q-17 -30 -61.5 -62.5t-106.5 -32.5q-14 0 -42 -18l-21 -164h-158l75 710h158l-30 -289q-6 -57 8 -79t51 -22q49 0 86.5 34.5t50.5 66.5z" />
    <glyph glyph-name="pi" unicode="&#x3c0;" horiz-adv-x="754" 
d="M595 132q33 0 73 19l-9 -141q-35 -16 -123 -16q-54 0 -101 26t-42 77l31 285h-127l-41 -382h-161l41 382h-100l14 138h648l-14 -138h-99l-22 -198q-4 -33 3.5 -42.5t28.5 -9.5z" />
    <glyph glyph-name="uni0401" unicode="&#x401;" horiz-adv-x="550" 
d="M275 880l-14 -130h-164l15 130h163zM540 880l-14 -130h-164l14 130h164zM180 148h287l-16 -148h-448l74 700h439l-16 -148h-278l-12 -127h208l-16 -145h-209z" />
    <glyph glyph-name="uni0403" unicode="&#x403;" horiz-adv-x="552" 
d="M535 880l-147 -129h-125l79 129h193zM534 700l-17 -148h-295l-58 -552h-161l74 700h457z" />
    <glyph glyph-name="uni0404" unicode="&#x404;" horiz-adv-x="677" 
d="M512 191l91 -119q-98 -82 -244 -82q-154 0 -253 104t-81 264q16 153 131.5 252.5t265.5 99.5q141 0 230 -86l-102 -105q-55 40 -124 40q-75 0 -133 -39t-88 -104l155 3l-14 -137l-156 -3q16 -65 63.5 -101.5t119.5 -36.5q75 0 139 50z" />
    <glyph glyph-name="uni0406" unicode="&#x406;" horiz-adv-x="277" 
d="M238 700l-74 -700h-161l74 700h161z" />
    <glyph glyph-name="uni0407" unicode="&#x407;" horiz-adv-x="292" 
d="M133 880l-14 -130h-164l14 130h164zM398 880l-14 -130h-164l14 130h164zM245 700l-74 -700h-161l74 700h161z" />
    <glyph glyph-name="uni0410" unicode="&#x410;" horiz-adv-x="804" 
d="M565 0l-36 116h-330l-62 -116h-174l385 700h147l237 -700h-167zM268 247h216l-80 258z" />
    <glyph glyph-name="uni0411" unicode="&#x411;" horiz-adv-x="603" 
d="M298 471q120 0 186.5 -64t53.5 -173q-11 -106 -88.5 -170t-195.5 -64h-251l74 700h440l-17 -148h-278l-8 -81h84zM255 148q115 0 123 101q5 46 -20.5 65.5t-77.5 19.5h-81l-19 -186h75z" />
    <glyph glyph-name="uni0412" unicode="&#x412;" 
d="M443 388q50 -17 86 -60.5t36 -106.5q0 -108 -73.5 -164.5t-200.5 -56.5h-288l74 700h263q99 0 152 -47t53 -119q0 -104 -102 -146zM317 560h-93l-15 -125h87q43 0 65 21t22 55q0 49 -66 49zM292 140q55 0 85.5 27t30.5 70q0 69 -102 69h-110l-16 -166h112z" />
    <glyph glyph-name="uni0413" unicode="&#x413;" horiz-adv-x="552" 
d="M534 700l-17 -148h-295l-58 -552h-161l74 700h457z" />
    <glyph glyph-name="uni0414" unicode="&#x414;" horiz-adv-x="921" 
d="M711 148h131l-23 -217h-161l7 69h-519l-7 -69h-161l23 217l123 3q17 45 31.5 118.5t21.5 130.5t19 163l15 137h558zM550 148l42 404h-236q-10 -106 -16.5 -161t-20.5 -128t-32 -118z" />
    <glyph glyph-name="uni0415" unicode="&#x415;" horiz-adv-x="550" 
d="M180 148h287l-16 -148h-448l74 700h439l-16 -148h-278l-12 -127h208l-16 -145h-209z" />
    <glyph glyph-name="uni0416" unicode="&#x416;" horiz-adv-x="1158" 
d="M895 0l-173 294l-93 -96l-22 -198h-166l22 198l-71 96l-235 -294h-189l332 405l-220 295h193l210 -287l32 287h166l-32 -287l270 287h200l-288 -295l245 -405h-181z" />
    <glyph glyph-name="uni0417" unicode="&#x417;" horiz-adv-x="618" 
d="M415 366q40 6 88.5 -43t40.5 -125q-11 -100 -93.5 -154t-194.5 -54q-116 0 -187.5 62.5t-61.5 157.5l168 -5q-3 -25 15.5 -40.5t36.5 -19t33 -3.5q23 0 45.5 5t47 24t27.5 51q4 33 -25 56.5t-99 23.5l7 118q36 2 60 11t34 24.5t13 24.5t5 24q2 25 -16.5 38t-42.5 13
q-30 0 -59 -16t-32 -49l-166 5q11 101 85.5 156.5t175.5 55.5q99 0 165 -58.5t56 -147.5q-5 -51 -45 -89.5t-81 -45.5z" />
    <glyph glyph-name="uni0418" unicode="&#x418;" horiz-adv-x="728" 
d="M238 700l-45 -407l369 407h127l-74 -700h-161l46 407l-372 -407h-125l74 700h161z" />
    <glyph glyph-name="uni0419" unicode="&#x419;" horiz-adv-x="728" 
d="M590 877q-6 -60 -50 -102.5t-124 -42.5q-74 0 -117 47t-37 104l96 -6q2 -17 17.5 -28.5t40.5 -11.5q29 0 51 14.5t27 31.5zM238 700l-45 -407l369 407h127l-74 -700h-161l46 407l-372 -407h-125l74 700h161z" />
    <glyph glyph-name="uni041A" unicode="&#x41a;" horiz-adv-x="720" 
d="M457 0l-173 294l-93 -96l-22 -198h-166l74 700h166l-32 -287l270 287h200l-288 -295l245 -405h-181z" />
    <glyph glyph-name="uni041B" unicode="&#x41b;" horiz-adv-x="762" 
d="M723 700l-74 -700h-161l58 552h-247l-39 -370q-6 -59 -21.5 -98t-41 -57.5t-52 -25.5t-64.5 -7q-66 0 -106 20l7 134q31 -16 65 -16q23 0 38 20.5t15 34.5l54 513h569z" />
    <glyph glyph-name="uni041C" unicode="&#x41c;" horiz-adv-x="871" 
d="M832 700l-74 -700h-166l38 332l-180 -332h-139l-104 330l-38 -330h-166l74 700h157l169 -476l268 476h161z" />
    <glyph glyph-name="uni041D" unicode="&#x41d;" horiz-adv-x="703" 
d="M503 700h161l-74 -700h-161l28 277h-265l-28 -277h-161l74 700h161l-29 -275h264z" />
    <glyph glyph-name="uni041E" unicode="&#x41e;" horiz-adv-x="813" 
d="M420 710q143 0 238.5 -91t95.5 -235q0 -109 -54.5 -200t-146 -142.5t-198.5 -51.5q-143 0 -237.5 90t-94.5 234q0 166 117 281t280 115zM367 141q84 0 151.5 62.5t67.5 167.5q0 82 -50 135t-128 53q-85 0 -151 -63t-66 -170q0 -81 49 -133t127 -52z" />
    <glyph glyph-name="uni041F" unicode="&#x41f;" horiz-adv-x="711" 
d="M672 700l-74 -700h-161l58 552h-273l-58 -552h-161l74 700h595z" />
    <glyph glyph-name="uni0420" unicode="&#x420;" horiz-adv-x="601" 
d="M323 700q118 0 184 -68t53 -181q-10 -103 -86 -162.5t-195 -59.5h-91l-24 -229h-161l74 700h246zM277 366q115 0 124 100q6 46 -20.5 66t-78.5 20h-80l-19 -186h74z" />
    <glyph glyph-name="uni0421" unicode="&#x421;" horiz-adv-x="677" 
d="M603 72q-101 -82 -246 -82q-143 0 -238.5 90.5t-95.5 233.5q0 166 117.5 281t281.5 115q141 0 230 -86l-109 -105q-53 40 -121 40q-95 0 -164 -66t-70 -176q0 -78 53.5 -127t136.5 -49q76 0 140 50z" />
    <glyph glyph-name="uni0422" unicode="&#x422;" horiz-adv-x="573" 
d="M554 700l-16 -148h-165l-58 -552h-161l58 552h-165l16 148h491z" />
    <glyph glyph-name="uni0423" unicode="&#x423;" horiz-adv-x="741" 
d="M551 700h181l-454 -700h-179l154 234l-202 466h173l132 -302z" />
    <glyph glyph-name="uni0424" unicode="&#x424;" horiz-adv-x="924" 
d="M551 635q142 -7 235 -90t80 -203q-13 -113 -120 -191.5t-250 -85.5l-9 -65h-162l10 65q-142 8 -233.5 91t-77.5 202q10 112 116 190.5t250 86.5l10 65h161zM344 203l37 294q-56 -4 -97 -21.5t-61 -42.5t-29 -47t-11 -44q-3 -18 1 -37.5t18.5 -42.5t51 -39t90.5 -20z
M505 203q56 3 97 20t62 42t30.5 47.5t12.5 45.5q2 20 -2.5 39t-19 42t-51.5 39t-92 19z" />
    <glyph glyph-name="uni0425" unicode="&#x425;" horiz-adv-x="726" 
d="M639 0h-186l-116 213l-162 -213h-192l272 353l-194 347h186l114 -207l157 207h192l-266 -347z" />
    <glyph glyph-name="uni0426" unicode="&#x426;" horiz-adv-x="831" 
d="M776 148l-23 -217h-162l7 69h-434h-161l74 700h161l-58 -552h273l58 552h161l-58 -552h162z" />
    <glyph glyph-name="uni0427" unicode="&#x427;" horiz-adv-x="660" 
d="M460 700h161l-74 -700h-161l30 270q-18 -28 -60 -53t-97 -25q-105 0 -165 58.5t-49 174.5l29 275h161l-31 -280q-2 -35 13 -55t32.5 -24.5t40.5 -4.5q34 0 64.5 16.5t44 31t30.5 38.5z" />
    <glyph glyph-name="uni0428" unicode="&#x428;" horiz-adv-x="1145" 
d="M945 700h161l-74 -700h-513h-433h-83l74 700h161l-58 -552h273l58 552h161l-58 -552h273z" />
    <glyph glyph-name="uni0429" unicode="&#x429;" horiz-adv-x="1263" 
d="M1208 148l-23 -217h-160l7 69h-513h-433h-83l74 700h161l-58 -552h273l58 552h161l-58 -552h273l58 552h161l-58 -552h160z" />
    <glyph glyph-name="uni042A" unicode="&#x42a;" horiz-adv-x="717" 
d="M410 471q119 0 185.5 -63.5t53.5 -173.5q-10 -106 -87.5 -170t-195.5 -64h-251l57 552h-139l16 148h301l-25 -229h85zM366 148q115 0 123 101q6 46 -20 65.5t-78 19.5h-80l-19 -186h74z" />
    <glyph glyph-name="uni042B" unicode="&#x42b;" horiz-adv-x="904" 
d="M298 471q120 0 186.5 -64t53.5 -173q-11 -106 -88.5 -170t-195.5 -64h-251l74 700h161l-24 -229h84zM704 700h161l-74 -700h-161zM255 148q115 0 123 101q5 46 -20.5 65.5t-77.5 19.5h-81l-19 -186h75z" />
    <glyph glyph-name="uni042C" unicode="&#x42c;" horiz-adv-x="601" 
d="M298 471q120 0 186.5 -64t53.5 -173q-11 -106 -88.5 -170t-195.5 -64h-251l74 700h161l-24 -229h84zM255 148q115 0 123 101q5 46 -20.5 65.5t-77.5 19.5h-81l-19 -186h75z" />
    <glyph glyph-name="uni042D" unicode="&#x42d;" horiz-adv-x="672" 
d="M295 710q154 0 252 -104t80 -264q-16 -153 -131.5 -252.5t-265.5 -99.5q-146 0 -234 88l103 107q49 -44 126 -44q75 0 133.5 39t88.5 105l-154 -3l14 137l154 3q-16 64 -62.5 100.5t-117.5 36.5q-72 0 -135 -42l-93 113q100 80 242 80z" />
    <glyph glyph-name="uni042E" unicode="&#x42e;" horiz-adv-x="1057" 
d="M664 710q143 0 238.5 -91t95.5 -235q0 -109 -54.5 -200t-146 -142.5t-198.5 -51.5q-135 0 -228 81t-103 213h-75l-29 -284h-161l74 700h161l-30 -279l73 -1q35 128 141.5 209t241.5 81zM611 141q84 0 151.5 62.5t67.5 167.5q0 82 -50 135t-128 53q-85 0 -151 -63
t-66 -170q0 -81 49 -133t127 -52z" />
    <glyph glyph-name="uni042F" unicode="&#x42f;" horiz-adv-x="653" 
d="M362 700h252l-74 -700h-161l24 229h-85l-166 -229h-174l197 259q-109 65 -96 207q11 107 88 170.5t195 63.5zM337 366h80l20 186h-75q-112 0 -124 -101q-5 -46 21 -65.5t78 -19.5z" />
    <glyph glyph-name="uni0430" unicode="&#x430;" 
d="M429 520h158l-55 -520h-158l6 48q-10 -19 -47.5 -38.5t-88.5 -19.5q-92 0 -163 63t-71 178q0 124 82 211t198 87q38 0 69 -13t44.5 -25t17.5 -21zM280 129q18 0 38 6.5t41.5 21.5t35.5 46t14 74q0 53 -33 83t-80 30q-57 0 -93.5 -40.5t-36.5 -104.5q0 -56 31.5 -86
t82.5 -30z" />
    <glyph glyph-name="uni0431" unicode="&#x431;" horiz-adv-x="631" 
d="M336 529q101 0 173.5 -73.5t59.5 -202.5q-9 -85 -55 -147t-104 -89t-119 -27q-56 0 -91 23t-40 43l-8 -56h-158l55 523q10 92 59.5 134.5t151.5 42.5h74q55 0 78 23l157 -6q-36 -76 -91 -111.5t-139 -35.5h-69q-22 0 -42 -15.5t-21 -37.5l-7 -42q13 16 49.5 35t86.5 19z
M417 268q7 57 -24 89.5t-83 32.5q-53 0 -92.5 -36.5t-46.5 -100.5q-6 -59 22.5 -91.5t76.5 -32.5q56 0 98.5 37t48.5 102z" />
    <glyph glyph-name="uni0432" unicode="&#x432;" horiz-adv-x="604" 
d="M439 286q90 -39 90 -120q0 -84 -71 -125t-180 -41h-284l55 520h278q80 0 132 -33.5t52 -91.5q0 -23 -3.5 -38.5t-20.5 -35.5t-48 -35zM319 391h-124l-7 -61h116q41 5 45 36q0 5 -0.5 9t-8 10t-21.5 6zM287 129q82 0 82 41v4v4.5t-0.5 5.5t-3 6t-5.5 5.5t-8.5 6t-12.5 4.5
t-17 3t-23 1h-125l-8 -81h121z" />
    <glyph glyph-name="uni0433" unicode="&#x433;" horiz-adv-x="509" 
d="M469 520l-14 -138h-262l-41 -382h-158l55 520h420z" />
    <glyph glyph-name="uni0434" unicode="&#x434;" horiz-adv-x="759" 
d="M608 138h83l-20 -189h-158l5 51h-381l-5 -51h-158l19 189l71 2q22 28 36.5 76.5t20.5 88.5t14 118l10 97h504zM220 135l230 3l26 244h-187l3 35q-6 -60 -9.5 -89.5t-11.5 -72t-20.5 -71t-30.5 -49.5z" />
    <glyph glyph-name="uni0435" unicode="&#x435;" horiz-adv-x="599" 
d="M308 529q41 0 80.5 -13.5t74 -40t56 -72.5t21.5 -105q0 -49 -11 -96h-367q24 -81 122 -81q16 0 31 1.5t23.5 3t21.5 6.5t16 6t17.5 8t15.5 8l76 -85q-82 -79 -213 -79q-103 0 -182.5 65t-79.5 179q0 122 89.5 208.5t208.5 86.5zM305 394q-89 0 -128 -81h227
q-17 81 -99 81z" />
    <glyph glyph-name="uni0436" unicode="&#x436;" horiz-adv-x="963" 
d="M691 0l-146 167l-15 -13l-19 -154h-158l19 154l-11 13l-185 -167h-213l301 274l-211 246h198l139 -151l18 151h158l-18 -151l171 151h205l-268 -246l240 -274h-205z" />
    <glyph glyph-name="uni0437" unicode="&#x437;" horiz-adv-x="543" 
d="M261 529q93 0 150 -46.5t49 -110.5q-2 -20 -9 -36t-20 -26.5t-21 -15.5t-22.5 -11.5t-15.5 -6.5q7 -1 21 -6.5t32.5 -18.5t30 -39.5t8.5 -60.5q-9 -76 -80.5 -118.5t-165.5 -42.5q-105 0 -164 51.5t-49 137.5l148 -6q-2 -24 18.5 -39.5t50.5 -15.5q35 0 62 15t29 43
q3 22 -19 34.5t-71 13.5l6 102q44 1 59.5 12.5t18.5 32.5q2 11 -10 19.5t-35 8.5q-26 0 -45 -11.5t-21 -27.5l-150 6q9 74 64 118.5t151 44.5z" />
    <glyph glyph-name="uni0438" unicode="&#x438;" horiz-adv-x="602" 
d="M554 520l-55 -520h-158l27 242l-350 -242h-24l55 520h158l-27 -242l349 242h25z" />
    <glyph glyph-name="uni0439" unicode="&#x439;" horiz-adv-x="602" 
d="M485 697q-6 -60 -50 -102.5t-124 -42.5q-74 0 -117.5 47t-37.5 104l96 -6q2 -17 18 -28.5t41 -11.5q29 0 50.5 14.5t27.5 31.5zM554 520l-55 -520h-158l27 242l-350 -242h-24l55 520h158l-27 -242l349 242h25z" />
    <glyph glyph-name="uni043A" unicode="&#x43a;" horiz-adv-x="605" 
d="M332 0l-146 167l-15 -13l-19 -154h-158l55 520h158l-18 -151l171 151h206l-269 -246l241 -274h-206z" />
    <glyph glyph-name="uni043B" unicode="&#x43b;" horiz-adv-x="686" 
d="M638 520l-55 -520h-158l40 382h-196l-21 -200q-6 -59 -22 -98t-41 -57.5t-51.5 -25.5t-62.5 -7q-61 0 -103 19l13 123q14 -5 51 -5q52 0 59 47l34 342h513z" />
    <glyph glyph-name="uni043C" unicode="&#x43c;" horiz-adv-x="737" 
d="M689 520l-55 -520h-158l19 159l-178 -159l-146 159l-19 -159h-158l55 520h27l258 -304l324 304h31z" />
    <glyph glyph-name="uni043D" unicode="&#x43d;" horiz-adv-x="591" 
d="M385 520h158l-55 -520h-158l20 180h-179l-19 -180h-158l55 520h158l-21 -202h178z" />
    <glyph glyph-name="uni043E" unicode="&#x43e;" horiz-adv-x="620" 
d="M308 529q97 0 175 -66t78 -182q0 -124 -87.5 -207.5t-210.5 -83.5q-97 0 -175 66t-78 182q0 124 87.5 207.5t210.5 83.5zM271 129q58 0 97.5 40t39.5 107q0 54 -33 84t-75 30q-58 0 -97.5 -40t-39.5 -107q0 -54 33 -84t75 -30z" />
    <glyph glyph-name="uni043F" unicode="&#x43f;" horiz-adv-x="616" 
d="M568 520l-55 -520h-158l40 382h-202l-41 -382h-158l55 520h519z" />
    <glyph glyph-name="uni0440" unicode="&#x440;" horiz-adv-x="631" 
d="M336 529q101 0 173.5 -73.5t59.5 -202.5q-9 -85 -55 -147t-104 -89t-119 -27q-56 0 -91 22.5t-40 42.5l-28 -245h-158l32 301l43 409h158l-7 -45q13 16 49.5 35t86.5 19zM417 268q7 57 -24 89.5t-83 32.5q-53 0 -92.5 -36.5t-46.5 -100.5q-6 -59 22.5 -91.5t76.5 -32.5
q56 0 98.5 37t48.5 102z" />
    <glyph glyph-name="uni0441" unicode="&#x441;" horiz-adv-x="565" 
d="M307 529q153 0 213 -127l-124 -51q-43 39 -97 39q-55 0 -95.5 -41.5t-40.5 -109.5q0 -52 31.5 -81t76.5 -29q24 0 45.5 8t29.5 14t30 23l119 -63q-86 -119 -234 -119q-96 0 -173.5 64.5t-77.5 181.5q0 123 88 207t209 84z" />
    <glyph glyph-name="uni0442" unicode="&#x442;" horiz-adv-x="484" 
d="M454 520l-15 -138h-133l-41 -382h-158l41 382h-132l14 138h424z" />
    <glyph glyph-name="uni0443" unicode="&#x443;" horiz-adv-x="655" 
d="M472 522h160l-393 -712h-161l120 210l-171 502h154l112 -334z" />
    <glyph glyph-name="uni0444" unicode="&#x444;" horiz-adv-x="1010" 
d="M716 529q101 0 173.5 -73.5t59.5 -202.5q-9 -85 -55 -147t-104 -89t-119 -27q-55 0 -90 22t-41 42l-28 -244h-158l27 236q-12 -15 -49 -35t-88 -20q-101 0 -173 73.5t-59 202.5q7 65 35 116.5t68 82.5t85 47.5t90 16.5q55 0 90 -22t41 -42l28 244h158l-27 -235
q7 8 21.5 19t47 23t67.5 12zM396 203l11 118q-23 70 -97 70q-56 0 -98 -37t-49 -102q-6 -57 25 -89.5t82 -32.5q81 0 126 73zM797 268q6 57 -25 89.5t-82 32.5q-39 0 -71.5 -19.5t-52.5 -53.5l-14 -118q26 -70 98 -70q56 0 98.5 37t48.5 102z" />
    <glyph glyph-name="uni0445" unicode="&#x445;" horiz-adv-x="637" 
d="M372 0l-89 152l-125 -152h-185l227 267l-148 253h175l75 -139l104 139h182l-206 -253l168 -267h-178z" />
    <glyph glyph-name="uni0446" unicode="&#x446;" horiz-adv-x="656" 
d="M7 520l242 404l-251 -553zM608 234l11 -303l-206 -59l54 128h-127l28 520l242 404l-125 -786zM-108 138l106 233l-20 -313zM-53 -442l31 500l98 -91zM76 -33l10 33h254l-14 -266z" />
    <glyph glyph-name="uni0447" unicode="&#x447;" horiz-adv-x="618" 
d="M412 520h158l-55 -520h-158l24 204l-6 -8q-6 -7 -11.5 -12t-15.5 -14t-22.5 -15.5t-28.5 -12.5t-37.5 -9.5t-45.5 -3.5q-38 0 -72 11t-62 35t-42 67t-8 100l19 178h158l-20 -185q-5 -67 62 -67q91 0 146 106z" />
    <glyph glyph-name="uni0448" unicode="&#x448;" horiz-adv-x="837" 
d="M789 520l-55 -520h-740l55 520h158l-41 -382h133l41 382h158l-41 -382h133l41 382h158z" />
    <glyph glyph-name="uni0449" unicode="&#x449;" horiz-adv-x="877" 
d="M820 138l-22 -207h-158l7 69h-653l55 520h158l-41 -382h133l41 382h158l-41 -382h133l41 382h158l-41 -382h72z" />
    <glyph glyph-name="uni044A" unicode="&#x44a;" horiz-adv-x="655" 
d="M398 332q80 0 133.5 -43t53.5 -114q0 -79 -63 -127t-154 -48h-320l41 382h-83l14 138h241l-19 -188h156zM375 138q31 0 44.5 11.5t13.5 23.5q0 21 -45 21h-160l-7 -56h154z" />
    <glyph glyph-name="uni044B" unicode="&#x44b;" horiz-adv-x="850" 
d="M343 332q81 0 134.5 -43t53.5 -114q0 -79 -63.5 -127t-154.5 -48h-319l55 520h158l-19 -188h155zM643 520h159l-55 -520h-159zM320 138q31 0 44.5 9.5t13.5 21.5q0 25 -45 25h-160l-7 -56h154z" />
    <glyph glyph-name="uni044C" unicode="&#x44c;" horiz-adv-x="600" 
d="M343 332q81 0 134.5 -43t53.5 -114q0 -79 -63.5 -127t-154.5 -48h-319l55 520h158l-19 -188h155zM320 138q31 0 44.5 9.5t13.5 21.5q0 25 -45 25h-160l-7 -56h154z" />
    <glyph glyph-name="uni044D" unicode="&#x44d;" horiz-adv-x="568" 
d="M258 529q46 0 92 -18t84.5 -51t59 -88t12.5 -121q-8 -84 -58 -145t-112 -87.5t-123 -26.5q-153 0 -216 125l123 51q21 -20 40 -28.5t55 -8.5t71 20t57 53l-114 -3l12 108l115 2q-10 38 -38.5 58.5t-64.5 20.5q-27 0 -48.5 -7.5t-32 -14.5t-28.5 -23l-119 63
q85 121 233 121z" />
    <glyph glyph-name="uni044E" unicode="&#x44e;" horiz-adv-x="841" 
d="M529 529q97 0 175 -66t78 -182q0 -124 -87.5 -207.5t-210.5 -83.5q-84 0 -156.5 50.5t-91.5 142.5h-65l-19 -183h-158l55 520h158l-20 -190h59q29 89 107 144t176 55zM492 129q58 0 97.5 40t39.5 107q0 54 -33 84t-75 30q-58 0 -97.5 -40t-39.5 -107q0 -54 33 -84t75 -30
z" />
    <glyph glyph-name="uni044F" unicode="&#x44f;" horiz-adv-x="624" 
d="M576 520l-55 -520h-158l14 131h-74l-140 -131h-185l160 148q-97 62 -97 165q0 92 74.5 149.5t173.5 57.5h287zM391 268l13 114h-122q-36 0 -62.5 -17t-26.5 -45q0 -52 71 -52h127z" />
    <glyph glyph-name="uni0451" unicode="&#x451;" horiz-adv-x="599" 
d="M268 700l-14 -130h-164l15 130h163zM533 700l-14 -130h-164l15 130h163zM308 529q41 0 80.5 -13.5t74 -40t56 -72.5t21.5 -105q0 -49 -11 -96h-367q24 -81 122 -81q16 0 31 1.5t23.5 3t21.5 6.5t16 6t17.5 8t15.5 8l76 -85q-82 -79 -213 -79q-103 0 -182.5 65t-79.5 179
q0 122 89.5 208.5t208.5 86.5zM305 394q-89 0 -128 -81h227q-17 81 -99 81z" />
    <glyph glyph-name="uni0453" unicode="&#x453;" horiz-adv-x="509" 
d="M468 700l-148 -129h-124l78 129h194zM469 520l-14 -138h-262l-41 -382h-158l55 520h420z" />
    <glyph glyph-name="uni0454" unicode="&#x454;" horiz-adv-x="563" 
d="M264 131q27 0 48.5 7t32 14t29.5 22l119 -63q-85 -119 -234 -119q-47 0 -92.5 17t-83.5 49t-59 86.5t-14 122.5q7 63 38 114.5t74.5 83t91 48t91.5 16.5q153 0 213 -127l-120 -51q-18 15 -25.5 20.5t-26 12t-42.5 6.5q-40 0 -76 -22.5t-57 -61.5l116 3l-12 -108l-113 -3
q31 -67 102 -67z" />
    <glyph glyph-name="uni0457" unicode="&#x457;" horiz-adv-x="292" 
d="M114 700l-14 -130h-164l14 130h164zM379 700l-14 -130h-164l14 130h164zM225 520l-55 -520h-158l55 520h158z" />
    <glyph glyph-name="uni0490" unicode="&#x490;" horiz-adv-x="552" 
d="M378 747h161l-12 -119l-10 -76h-295l-58 -552h-161l74 700h296z" />
    <glyph glyph-name="uni0491" unicode="&#x491;" horiz-adv-x="509" 
d="M316 566h158l-19 -184h-262l-41 -382h-158l55 520h262z" />
    <glyph glyph-name="Wgrave" unicode="&#x1e80;" horiz-adv-x="1049" 
d="M381 880h186l51 -129h-118zM1050 700l-305 -700h-118l-113 418l-199 -418h-118l-156 700h166l85 -388l186 388h127l105 -388l166 388h174z" />
    <glyph glyph-name="wgrave" unicode="&#x1e81;" horiz-adv-x="954" 
d="M304 700h186l51 -129h-118zM770 522h161l-240 -522h-153l-79 337l-149 -337h-152l-131 522h154l73 -334l153 334h137l86 -334z" />
    <glyph glyph-name="Wacute" unicode="&#x1e82;" horiz-adv-x="1049" 
d="M756 880l-147 -129h-125l79 129h193zM1050 700l-305 -700h-118l-113 418l-199 -418h-118l-156 700h166l85 -388l186 388h127l105 -388l166 388h174z" />
    <glyph glyph-name="wacute" unicode="&#x1e83;" horiz-adv-x="954" 
d="M679 700l-147 -129h-125l79 129h193zM770 522h161l-240 -522h-153l-79 337l-149 -337h-152l-131 522h154l73 -334l153 334h137l86 -334z" />
    <glyph glyph-name="Wdieresis" unicode="&#x1e84;" horiz-adv-x="1049" 
d="M512 880l-14 -130h-164l14 130h164zM777 880l-14 -130h-164l14 130h164zM1050 700l-305 -700h-118l-113 418l-199 -418h-118l-156 700h166l85 -388l186 388h127l105 -388l166 388h174z" />
    <glyph glyph-name="wdieresis" unicode="&#x1e85;" horiz-adv-x="954" 
d="M435 700l-14 -130h-164l14 130h164zM700 700l-14 -130h-164l14 130h164zM770 522h161l-240 -522h-153l-79 337l-149 -337h-152l-131 522h154l73 -334l153 334h137l86 -334z" />
    <glyph glyph-name="Ygrave" unicode="&#x1ef2;" horiz-adv-x="756" 
d="M234 880h186l51 -129h-117zM747 700l-311 -408l-33 -292h-161l33 292l-224 408h178l138 -262l194 262h186z" />
    <glyph glyph-name="ygrave" unicode="&#x1ef3;" horiz-adv-x="655" 
d="M405 571h-117l-120 129h186zM472 522h160l-393 -712h-161l120 210l-171 502h154l112 -334z" />
    <glyph glyph-name="endash" unicode="&#x2013;" horiz-adv-x="600" 
d="M536 339l-14 -132h-510l14 132h510z" />
    <glyph glyph-name="emdash" unicode="&#x2014;" horiz-adv-x="660" 
d="M596 339l-14 -132h-570l14 132h570z" />
    <glyph glyph-name="quoteleft" unicode="&#x2018;" horiz-adv-x="257" 
d="M252 700l-128 -279h-135l123 279h140z" />
    <glyph glyph-name="quoteright" unicode="&#x2019;" horiz-adv-x="279" 
d="M12 421l128 279h135l-122 -279h-141z" />
    <glyph glyph-name="quotesinglbase" unicode="&#x201a;" horiz-adv-x="347" 
d="M-74 -160l128 278h135l-122 -278h-141z" />
    <glyph glyph-name="quotedblleft" unicode="&#x201c;" horiz-adv-x="433" 
d="M252 700l-128 -279h-135l123 279h140zM429 700l-128 -279h-135l122 279h141z" />
    <glyph glyph-name="quotedblright" unicode="&#x201d;" horiz-adv-x="456" 
d="M12 421l128 279h135l-122 -279h-141zM188 421l128 279h136l-123 -279h-141z" />
    <glyph glyph-name="quotedblbase" unicode="&#x201e;" horiz-adv-x="455" 
d="M-49 -160l128 278h135l-122 -278h-141zM127 -160l128 278h135l-122 -278h-141z" />
    <glyph glyph-name="dagger" unicode="&#x2020;" horiz-adv-x="410" 
d="M366 572l-12 -102h-106l-34 -158h-61l-1 158h-108l12 102h99l1 128h137l-25 -128h98z" />
    <glyph glyph-name="daggerdbl" unicode="&#x2021;" horiz-adv-x="409" 
d="M264 572h101l-11 -102h-111l-23 -96h-61l-4 96h-111l11 102h102l-2 128h137zM215 326l3 -96h111l-10 -102h-101v-128h-137l30 128h-102l10 102h111l24 96h61z" />
    <glyph glyph-name="bullet" unicode="&#x2022;" horiz-adv-x="240" 
d="M114 220q-36 0 -62.5 27t-26.5 63t26.5 62.5t62.5 26.5t63 -26.5t27 -62.5t-27 -63t-63 -27z" />
    <glyph glyph-name="ellipsis" unicode="&#x2026;" horiz-adv-x="743" 
d="M75 -5q-38 0 -63.5 28.5t-21.5 68.5q4 33 31 57.5t61 24.5q38 0 63.5 -28.5t21.5 -68.5q-4 -33 -31 -57.5t-61 -24.5zM322 -5q-38 0 -63.5 28.5t-21.5 68.5q4 33 31 57.5t61 24.5q38 0 63.5 -28.5t21.5 -68.5q-4 -33 -31 -57.5t-61 -24.5zM569 -5q-38 0 -63.5 28.5
t-21.5 68.5q4 33 31 57.5t61 24.5q38 0 63.5 -28.5t21.5 -68.5q-4 -33 -31 -57.5t-61 -24.5z" />
    <glyph glyph-name="perthousand" unicode="&#x2030;" horiz-adv-x="1023" 
d="M172 705q55 0 89 -38t28 -93q-5 -48 -42.5 -81.5t-87.5 -33.5q-55 0 -89 38t-28 93q5 48 42.5 81.5t87.5 33.5zM504 703l120 -80l-482 -623l-122 80zM167 604q-11 0 -18 -8.5t-5 -21.5q4 -14 20 -14q12 0 19 9t4 21q-4 14 -20 14zM502 241q55 0 89.5 -38t27.5 -93
q-5 -48 -42 -81.5t-87 -33.5q-55 0 -89.5 38t-27.5 93q5 48 42 81.5t87 33.5zM827 241q55 0 89.5 -38t27.5 -93q-5 -48 -42 -81.5t-87 -33.5q-55 0 -89.5 38t-27.5 93q5 48 42 81.5t87 33.5zM497 140q-11 0 -17.5 -8.5t-5.5 -21.5q6 -14 21 -14q11 0 18 8.5t5 21.5
q-4 14 -21 14zM822 140q-11 0 -17.5 -8.5t-5.5 -21.5q6 -14 21 -14q11 0 18 8.5t5 21.5q-4 14 -21 14z" />
    <glyph glyph-name="guilsinglleft" unicode="&#x2039;" horiz-adv-x="198" 
d="M25 403l149 102l-8 -109l-94 -102l70 -103l-8 -108l-127 102z" />
    <glyph glyph-name="guilsinglright" unicode="&#x203a;" horiz-adv-x="198" 
d="M152 478l-19 -217l-149 -102l8 108l96 103l-71 102l8 109z" />
    <glyph glyph-name="fraction" unicode="&#x2044;" horiz-adv-x="108" 
d="M309 700l-504 -700h-52l510 700h46z" />
    <glyph glyph-name="Euro" unicode="&#x20ac;" horiz-adv-x="751" 
d="M586 191l90 -119q-100 -82 -245 -82q-118 0 -205 62.5t-119 166.5l-96 -3l10 103l76 3q0 26 2 36v2q0 2 0.5 5t1.5 6l-75 -3l12 103l88 3q48 108 149.5 172t219.5 64q140 0 231 -86l-104 -105q-52 40 -122 40q-116 0 -194 -91l117 3l-11 -103l-145 -3q-1 -2 -3 -23
q-2 -10 -2 -26l145 3l-10 -103l-116 -2q61 -73 164 -73q77 0 141 50z" />
    <glyph glyph-name="trademark" unicode="&#x2122;" horiz-adv-x="580" 
d="M255 700l-5 -49h-58l-14 -131h-55l14 131h-58l5 49h171zM534 700l-19 -180h-55l11 89l-55 -89h-42l-37 89l-11 -89h-55l19 180h53l53 -122l81 122h57z" />
    <glyph glyph-name="oneeighth" unicode="&#x215b;" horiz-adv-x="556" 
d="M120 701l-27 -261h-37l23 221l-17 -11l-16 31l37 20h37zM523 700l-504 -700h-48l510 700h42zM411 263q37 0 56.5 -21t17.5 -48q-4 -34 -36 -52q41 -20 36 -67q-4 -33 -32.5 -55t-65.5 -22q-38 0 -63 23t-21 58q5 44 49 65q-27 21 -24 54q3 26 26 45.5t57 19.5zM412 232
q-20 0 -32.5 -11t-14.5 -27q-2 -14 9 -25.5t26 -11.5q18 0 31.5 12.5t15.5 28.5q2 15 -6 24.5t-29 9.5zM401 126q-23 0 -41.5 -14.5t-20.5 -36.5q-2 -20 12 -33t35 -13q25 0 42 14t20 36q2 21 -11 34t-36 13z" />
    <glyph glyph-name="threeeighths" unicode="&#x215c;" horiz-adv-x="574" 
d="M134 703q33 0 55 -21t19 -49q-3 -32 -35 -52q39 -17 35 -67q-4 -33 -33 -55.5t-66 -22.5q-41 0 -64.5 27.5t-18.5 64.5l38 -2q-2 -24 10 -41t35 -17t41 14t20 36q3 26 -14.5 36t-53.5 10l1 29q64 0 69 44q1 15 -10 25t-28 10q-22 0 -37 -14.5t-18 -41.5l-36 2
q3 38 29 61.5t62 23.5zM542 700l-503 -700h-48l509 700h42zM428 263q37 0 57 -21t17 -48q-4 -34 -35 -52q41 -21 36 -67q-4 -33 -33 -55t-66 -22q-38 0 -63 23t-21 58q5 44 50 65q-28 20 -25 54q3 26 26 45.5t57 19.5zM429 232q-21 0 -33 -11t-14 -27q-2 -14 9 -25.5
t26 -11.5q18 0 31.5 12.5t15.5 28.5q2 15 -6 24.5t-29 9.5zM418 126q-22 0 -40.5 -14.5t-20.5 -36.5q-2 -20 12 -33t35 -13q25 0 42 14t19 36q2 21 -11 34t-36 13z" />
    <glyph glyph-name="fiveeighths" unicode="&#x215d;" horiz-adv-x="576" 
d="M205 701l-3 -32h-104l-15 -58q22 10 45 10q36 0 61.5 -27.5t21.5 -66.5q-4 -38 -34.5 -64.5t-68.5 -26.5q-34 0 -57.5 19t-27.5 44l35 17q-1 -20 13 -34t37 -14q24 0 43 18t22 45q3 24 -11 41t-34 17q-35 0 -61 -30l-32 9l32 133h138zM542 700l-504 -700h-48l510 700h42z
M430 263q37 0 56.5 -21t17.5 -48q-4 -34 -36 -52q41 -20 36 -67q-4 -33 -32.5 -55t-65.5 -22q-38 0 -63 23t-21 58q5 44 49 65q-27 21 -24 54q3 26 26 45.5t57 19.5zM431 232q-21 0 -33 -11t-14 -27q-2 -14 9 -25.5t26 -11.5q18 0 31.5 12.5t15.5 28.5q2 15 -6 24.5t-29 9.5
zM420 126q-23 0 -41.5 -14.5t-20.5 -36.5q-2 -20 12 -33t35 -13q25 0 42 14t20 36q2 21 -11 34t-36 13z" />
    <glyph glyph-name="seveneighths" unicode="&#x215e;" horiz-adv-x="555" 
d="M219 701l-129 -261h-39l113 229h-121l3 32h173zM522 700l-504 -700h-48l510 700h42zM410 263q37 0 56.5 -21t17.5 -48q-4 -34 -36 -52q41 -20 36 -67q-4 -33 -32.5 -55t-65.5 -22q-38 0 -63 23t-21 58q5 44 49 65q-27 21 -24 54q3 26 26 45.5t57 19.5zM411 232
q-21 0 -33 -11t-14 -27q-2 -14 9 -25.5t26 -11.5q18 0 31.5 12.5t15.5 28.5q2 15 -6 24.5t-29 9.5zM400 126q-23 0 -41.5 -14.5t-20.5 -36.5q-2 -20 12 -33t35 -13q25 0 42 14t20 36q2 21 -11 34t-36 13z" />
    <glyph glyph-name="partialdiff" unicode="&#x2202;" horiz-adv-x="551" 
d="M93 700h159l150 -230q52 -83 67 -122q25 -67 17 -139q-9 -94 -87.5 -156.5t-170.5 -62.5q-98 0 -165.5 66t-57.5 165q10 86 83 152.5t158 66.5l16 1zM261 303q-44 0 -74 -28.5t-33 -66.5q-5 -36 16.5 -59t60.5 -23q43 0 73 27t34 70q3 28 -16.5 54t-60.5 26z" />
    <glyph glyph-name="product" unicode="&#x220f;" horiz-adv-x="759" 
d="M74 800h669l-104 -990h-156l90 847h-357l-90 -847h-156z" />
    <glyph glyph-name="summation" unicode="&#x2211;" horiz-adv-x="704" 
d="M688 800l-15 -142h-363l158 -353l-228 -353h359l-16 -142h-615l329 495l-221 495h612z" />
    <glyph glyph-name="minus" unicode="&#x2212;" horiz-adv-x="425" 
d="M361 339l-14 -132h-335l14 132h335z" />
    <glyph glyph-name="radical" unicode="&#x221a;" horiz-adv-x="878" 
d="M864 800l-385 -990h-188l-148 417h-129l18 179h231l131 -391l307 785h163z" />
    <glyph glyph-name="infinity" unicode="&#x221e;" horiz-adv-x="832" 
d="M597 437q82 0 127.5 -50.5t37.5 -124.5q-8 -76 -64 -127t-138 -51q-89 0 -181 94q-109 -94 -199 -94q-83 0 -128 51t-37 127q8 74 64 124.5t139 50.5q88 0 178 -94q111 94 201 94zM195 206q47 0 76 20q21 14 39 36q-14 21 -28.5 33.5t-30 17t-23 5.5t-20.5 1
q-28 0 -48 -17t-22 -40q-2 -24 14 -40t43 -16zM639 262q2 23 -14 40t-43 17q-70 0 -118 -57q14 -21 28.5 -34t32 -17t23 -4.5t21.5 -0.5q27 0 47 16t23 40z" />
    <glyph glyph-name="integral" unicode="&#x222b;" horiz-adv-x="332" 
d="M329 800l-10 -138q-11 0 -19.5 -1t-15 -5t-11.5 -6.5t-8.5 -10.5t-5.5 -10.5t-3.5 -14t-2 -14t-2 -16.5t-1.5 -16l-62 -587q-11 -96 -61.5 -133.5t-173.5 -37.5l9 138q23 0 36 3t20 14t8.5 19t3.5 30q1 6 1 9l62 588q11 99 63.5 144t172.5 45z" />
    <glyph glyph-name="approxequal" unicode="&#x2248;" horiz-adv-x="494" 
d="M169 453q43 0 113 -35.5t102 -35.5q12 0 28 7t17 15l57 -6q-7 -59 -43.5 -98.5t-101.5 -39.5q-43 0 -112.5 42t-105.5 42q-11 0 -27 -9.5t-17 -22.5l-55 6q7 59 42.5 97t102.5 38zM152 285q43 0 112 -35.5t101 -35.5q11 0 28 7.5t18 15.5l58 -6q-7 -59 -44.5 -98.5
t-102.5 -39.5q-43 0 -112 42t-105 42q-11 0 -26.5 -10t-16.5 -22l-55 6q6 58 41.5 96t103.5 38z" />
    <glyph glyph-name="notequal" unicode="&#x2260;" horiz-adv-x="396" 
d="M353 287h-96l-12 -28h106l-15 -133h-158l-62 -126h-139l62 126h-38l15 133h89l13 28h-100l16 132h151l69 142h139l-69 -142h45z" />
    <glyph glyph-name="lessequal" unicode="&#x2264;" horiz-adv-x="431" 
d="M393 593l-14 -134l-166 -84l148 -83l-14 -135l-323 195l6 45zM344 134l-14 -132h-335l14 132h335z" />
    <glyph glyph-name="greaterequal" unicode="&#x2265;" horiz-adv-x="404" 
d="M51 593l323 -196l-6 -45l-363 -195l14 135l166 83l-148 84zM2 134h335l-14 -132h-335z" />
    <glyph glyph-name="lozenge" unicode="&#x25ca;" horiz-adv-x="629" 
d="M446 700l120 -350l-191 -350h-228l-120 350l190 350h229zM271 110l132 240l-81 240l-132 -240z" />
    <glyph glyph-name="i.loclTRK" horiz-adv-x="261" 
d="M232 700l-14 -130h-164l15 130h163zM211 520l-55 -520h-159l55 520h159z" />
    <glyph glyph-name="f_t" horiz-adv-x="778" 
d="M729 390h-111l-22 -210q-3 -22 2.5 -35t29.5 -13q30 0 72 11l-7 -133q-38 -16 -110 -16q-78 0 -117.5 41t-28.5 151l23 204h-223l-42 -390h-159l43 390h-71l12 130h71l2 19q5 46 22 80t37.5 52.5t48 29t48 13.5t42.5 3q83 0 135 -36l-58 -107q-34 13 -62 13
q-49 0 -55 -53l-1 -14h222l13 122h158l-13 -122h111z" />
    <glyph glyph-name="t_t" horiz-adv-x="798" 
d="M749 390h-111l-22 -210q-6 -48 32 -48q31 0 73 11l-8 -133q-38 -16 -109 -16q-78 0 -118 41t-28 151l22 204h-235l-23 -210q-6 -48 32 -48q31 0 73 11l-7 -133q-38 -16 -110 -16q-78 0 -117.5 41t-28.5 151l23 204h-73l12 130h73l13 122h158l-13 -122h236l13 122h158
l-13 -122h111z" />
    <glyph glyph-name="zero.tf" horiz-adv-x="700" 
d="M389 710q115 0 188.5 -78.5t73.5 -225.5q0 -178 -88 -297t-237 -119q-113 0 -187 79.5t-74 227.5q0 113 38 206t113 150t173 57zM382 572q-55 0 -93.5 -42.5t-54.5 -103t-17 -134.5q0 -42 8.5 -76t36 -61t71.5 -27q82 0 123.5 81.5t41.5 195.5q0 167 -116 167z" />
    <glyph glyph-name="one.tf" horiz-adv-x="700" 
d="M481 700l-74 -700h-161l60 564h-123l14 136h284z" />
    <glyph glyph-name="two.tf" horiz-adv-x="700" 
d="M390 708q108 0 168 -59t60 -145q0 -19 -1 -34t-6.5 -31.5l-9 -27t-16 -29t-19 -28t-27.5 -33.5t-32 -36t-41.5 -45t-47.5 -51l-47 -49h211l-14 -139h-497v21l200 216q7 7 36 37.5t38.5 41t32.5 36.5t32 40t22 35.5t18 38.5t5 33q0 27 -13.5 43t-27 19.5t-28.5 3.5
q-34 0 -62.5 -22t-32.5 -74l-3 -17h-165l2 23q10 98 80 165t185 67z" />
    <glyph glyph-name="three.tf" horiz-adv-x="700" 
d="M218 215q37 -87 120 -87q54 0 88.5 34t34.5 87q0 43 -29.5 70.5t-86.5 27.5q-32 0 -87 -12l150 227h-242l14 138h474l-184 -254q65 -11 107.5 -65.5t42.5 -127.5q0 -113 -82 -188t-206 -75q-92 0 -154 42.5t-89 112.5z" />
    <glyph glyph-name="four.tf" horiz-adv-x="700" 
d="M638 286l-14 -137h-75l-16 -149h-161l16 149h-298l13 137l341 414h163l-44 -414h75zM269 286h133l23 202z" />
    <glyph glyph-name="five.tf" horiz-adv-x="700" 
d="M574 700l-14 -138h-243l-28 -98q-2 -3 2 -2q49 18 89 18q91 0 160 -62t69 -160q0 -122 -84 -195t-198 -73q-92 0 -160 41.5t-89 107.5l130 63q31 -72 114 -72q18 0 38 5.5t41 18t34.5 38.5t13.5 62q0 50 -30 71.5t-69 21.5q-55 0 -101 -42l-130 45l84 350h371z" />
    <glyph glyph-name="six.tf" horiz-adv-x="700" 
d="M601 700l-231 -257q-3 -1 2 -2l8 -1q83 0 145 -63.5t62 -148.5q0 -109 -74.5 -173.5t-186.5 -64.5q-90 0 -157 60t-67 152q0 71 33 129.5t103 143.5l196 225h167zM349 303q-44 0 -71 -28.5t-27 -65.5q0 -38 25.5 -60.5t62.5 -22.5q49 0 73.5 28t24.5 65q0 36 -23.5 60
t-64.5 24z" />
    <glyph glyph-name="seven.tf" horiz-adv-x="700" 
d="M666 700l-368 -700h-159l301 562h-262l14 138h474z" />
    <glyph glyph-name="eight.tf" horiz-adv-x="700" 
d="M514 399q39 -20 64.5 -63.5t25.5 -97.5q0 -75 -43.5 -133.5t-106 -86.5t-128.5 -28q-97 0 -169 58.5t-72 157.5q0 66 36 119.5t93 79.5q-46 44 -46 107q0 78 61 138t161 60q90 0 143 -49.5t53 -123.5q0 -82 -72 -138zM315 512q0 -53 53 -53q31 0 49 18.5t18 42.5
q0 25 -16 38t-39 13q-27 0 -46 -16.5t-19 -42.5zM334 131q45 0 74.5 31t29.5 76q0 39 -24.5 60t-57.5 21q-49 0 -77.5 -34t-28.5 -70q0 -40 23 -62t61 -22z" />
    <glyph glyph-name="nine.tf" horiz-adv-x="700" 
d="M124 1l231 257q3 1 -2 2l-8 1q-83 0 -145 63.5t-62 148.5q0 109 74.5 173.5t186.5 64.5q90 0 157 -60t67 -152q0 -72 -34 -133t-102 -140l-196 -225h-167zM376 397q44 0 71 28.5t27 65.5q0 39 -25.5 61.5t-62.5 22.5q-49 0 -73.5 -28t-24.5 -65q0 -36 24 -60.5t64 -24.5z
" />
    <glyph glyph-name="zero.dnom" horiz-adv-x="260" 
d="M101 263q47 0 73.5 -35.5t20.5 -91.5l-2 -13q-6 -56 -38 -90.5t-78 -34.5t-72.5 35.5t-21.5 91.5l2 13q6 56 38.5 90.5t77.5 34.5zM102 232q-30 0 -53 -26t-27 -70l-2 -13q-4 -44 11.5 -69t44.5 -25q32 0 54 25.5t26 70.5l2 13q4 45 -11 69.5t-45 24.5z" />
    <glyph glyph-name="one.dnom" horiz-adv-x="122" 
d="M70 261l-28 -261h-37l25 221l-19 -11l-15 31l37 20h37z" />
    <glyph glyph-name="two.dnom" horiz-adv-x="221" 
d="M80 264q35 0 58 -23.5t20 -53.5q-3 -26 -19.5 -47t-58.5 -60l-53 -48h118l-4 -32h-168l4 32l74 70q53 50 61 65q7 11 8 24q2 18 -9.5 30t-29.5 12q-20 0 -36 -13.5t-19 -37.5l-1 -13h-37l2 15q4 35 30 57.5t60 22.5z" />
    <glyph glyph-name="three.dnom" horiz-adv-x="233" 
d="M87 263q33 0 55.5 -21t19.5 -49q-3 -32 -36 -52q17 -7 27.5 -24.5t7.5 -42.5q-4 -33 -32.5 -55.5t-65.5 -22.5q-41 0 -64.5 27.5t-18.5 64.5l37 -2q-2 -24 10 -41t35 -17t41 14t21 36q2 26 -15.5 36t-53.5 10l1 29q64 0 69 44q1 15 -9.5 25t-27.5 10q-22 0 -37 -14.5
t-18 -41.5l-37 2q3 38 29 61.5t62 23.5z" />
    <glyph glyph-name="four.dnom" horiz-adv-x="246" 
d="M167 261l-16 -154h27l-4 -31h-27l-8 -76h-37l8 76h-132l152 185h37zM124 202l-75 -95h65z" />
    <glyph glyph-name="five.dnom" horiz-adv-x="235" 
d="M159 261l-4 -32h-104l-15 -58q23 10 45 10q36 0 61.5 -27.5t21.5 -66.5q-4 -38 -34 -64.5t-68 -26.5q-34 0 -58 19t-27 44l34 17q0 -20 13.5 -34t36.5 -14q24 0 43.5 18t22.5 45q2 24 -12 41t-33 17q-35 0 -61 -30l-32 9l32 133h138z" />
    <glyph glyph-name="six.dnom" horiz-adv-x="223" 
d="M147 261l-78 -96h5q34 0 57.5 -26t20.5 -60q-4 -34 -32 -58.5t-61 -24.5q-35 0 -59.5 26t-20.5 61q1 13 5 23.5t11 22t12 17.5t16.5 19t15.5 18l66 78h42zM73 133q-23 0 -39 -15t-18 -39q-3 -22 10.5 -36.5t31.5 -14.5q19 0 37 15.5t20 39.5q2 22 -11 36t-31 14z" />
    <glyph glyph-name="seven.dnom" horiz-adv-x="223" 
d="M171 261l-130 -261h-39l113 229h-121l4 32h173z" />
    <glyph glyph-name="eight.dnom" horiz-adv-x="233" 
d="M87 263q37 0 56.5 -21t17.5 -48q-4 -34 -36 -52q41 -20 36 -67q-4 -33 -32.5 -55t-65.5 -22q-38 0 -63 23t-21 58q5 44 49 65q-27 21 -24 54q3 26 26 45.5t57 19.5zM88 232q-20 0 -32.5 -11t-14.5 -27q-2 -14 9 -25.5t26 -11.5q18 0 31.5 12.5t15.5 28.5q2 15 -6 24.5
t-29 9.5zM77 126q-23 0 -41.5 -14.5t-20.5 -36.5q-2 -20 12 -33t35 -13q25 0 42 14t20 36q2 21 -11 34t-36 13z" />
    <glyph glyph-name="nine.dnom" horiz-adv-x="224" 
d="M83 264q35 0 59.5 -25.5t20.5 -60.5q-1 -11 -4.5 -21t-7 -17t-11 -17.5t-11 -14.5t-14 -15.5t-13.5 -15.5l-65 -77h-43l78 95h-4q-34 0 -58 26t-21 61q4 34 32 58t62 24zM84 232q-20 0 -38 -15.5t-20 -38.5q-2 -22 11.5 -36.5t31.5 -14.5q23 0 38.5 15t17.5 40
q3 21 -10 35.5t-31 14.5z" />
    <glyph glyph-name="zero.numr" horiz-adv-x="259" 
d="M146 703q47 0 73.5 -35.5t20.5 -91.5l-1 -13q-6 -56 -38 -90.5t-78 -34.5t-73 35.5t-21 91.5l1 13q6 56 38.5 90.5t77.5 34.5zM147 672q-30 0 -53 -26t-27 -70l-1 -13q-5 -44 11 -69t45 -25q32 0 54 25.5t26 70.5l1 13q5 44 -10 69t-46 25z" />
    <glyph glyph-name="one.numr" horiz-adv-x="122" 
d="M116 701l-27 -261h-37l24 221l-18 -11l-16 31l37 20h37z" />
    <glyph glyph-name="two.numr" horiz-adv-x="222" 
d="M127 704q35 0 58 -23.5t20 -53.5q-3 -26 -19.5 -47t-58.5 -60l-53 -48h118l-3 -32h-168l3 32l74 70q5 4 14 12.5t12 11.5t10 9.5t9 9.5t7 8t6.5 7.5t4 7t3.5 7.5l2.5 7.5t1.5 8.5q1 18 -10.5 30t-29.5 12q-20 0 -36 -13.5t-18 -37.5l-2 -13h-37l2 15q4 35 30 57.5
t60 22.5z" />
    <glyph glyph-name="three.numr" horiz-adv-x="232" 
d="M133 703q33 0 55.5 -21t19.5 -49q-3 -32 -36 -52q17 -7 27.5 -24.5t7.5 -42.5q-3 -33 -32 -55.5t-66 -22.5q-41 0 -64.5 27.5t-18.5 64.5l38 -2q-3 -24 9.5 -41t35.5 -17t41 14t20 36q3 26 -14.5 36t-53.5 10l1 29q64 0 68 44q1 15 -9.5 25t-27.5 10q-22 0 -37 -14.5
t-18 -41.5l-37 2q4 38 29.5 61.5t61.5 23.5z" />
    <glyph glyph-name="four.numr" horiz-adv-x="245" 
d="M212 701l-16 -154h27l-3 -31h-27l-8 -76h-37l8 76h-132l151 185h37zM169 642l-75 -95h65z" />
    <glyph glyph-name="five.numr" horiz-adv-x="236" 
d="M205 701l-3 -32h-104l-15 -58q22 10 45 10q36 0 61.5 -27.5t21.5 -66.5q-4 -38 -34.5 -64.5t-68.5 -26.5q-34 0 -57.5 19t-27.5 44l35 17q-1 -20 13 -34t37 -14q24 0 43 18t22 45q3 24 -11 41t-34 17q-35 0 -61 -30l-32 9l32 133h138z" />
    <glyph glyph-name="six.numr" horiz-adv-x="224" 
d="M194 701l-78 -96h5q34 0 58 -26t20 -60t-32 -58.5t-61 -24.5q-35 0 -59.5 26t-20.5 61q1 13 5 23.5t11 22t12 17.5t16.5 19t15.5 18l66 78h42zM121 573q-23 0 -39.5 -15t-18.5 -39q-2 -22 11.5 -36.5t31.5 -14.5q19 0 36.5 15.5t19.5 39.5q3 22 -10 36t-31 14z" />
    <glyph glyph-name="seven.numr" horiz-adv-x="222" 
d="M216 701l-129 -261h-39l113 229h-121l3 32h173z" />
    <glyph glyph-name="eight.numr" horiz-adv-x="233" 
d="M133 703q37 0 57 -21t17 -48q-4 -34 -35 -52q41 -21 35 -67q-3 -33 -31.5 -55t-66.5 -22t-63 23t-21 58q5 44 50 65q-28 20 -25 54q3 26 26 45.5t57 19.5zM134 672q-20 0 -32.5 -11t-14.5 -27q-2 -14 9 -25.5t26 -11.5q18 0 31.5 12.5t15.5 28.5q2 15 -6 24.5t-29 9.5z
M123 566q-22 0 -40.5 -14.5t-21.5 -36.5q-1 -20 13 -33t35 -13q25 0 42 14t19 36q2 21 -11 34t-36 13z" />
    <glyph glyph-name="nine.numr" horiz-adv-x="222" 
d="M128 704q35 0 59.5 -25.5t20.5 -60.5q-1 -13 -4.5 -24t-11 -22t-12.5 -17.5t-16.5 -19.5t-15.5 -18l-65 -77h-43l78 95h-4q-35 0 -59 26.5t-20 60.5t31.5 58t61.5 24zM129 672q-20 0 -37.5 -15.5t-20.5 -38.5q-2 -22 11.5 -36.5t31.5 -14.5q23 0 38.5 15t18.5 40
q2 21 -11 35.5t-31 14.5z" />
    </font>
</defs>
</svg>
