<?xml version="1.0" standalone="no"?>
<!DOCTYPE svg PUBLIC "-//W3C//DTD SVG 1.1//EN" "http://www.w3.org/Graphics/SVG/1.1/DTD/svg11.dtd" >
<svg xmlns="http://www.w3.org/2000/svg" xmlns:xlink="http://www.w3.org/1999/xlink" version="1.1">
<metadata>
Created by FontForge 20170731 at Tue Apr  5 04:38:49 2016
 By Aleksey,,,
(c) 2016 Connary Fagen
</metadata>
<defs>
<font id="VisbyCF-Thin" horiz-adv-x="614" >
  <font-face 
    font-family="Visby CF Thin"
    font-weight="250"
    font-stretch="normal"
    units-per-em="1000"
    panose-1="0 0 3 0 0 0 0 0 0 0"
    ascent="800"
    descent="-200"
    x-height="520"
    cap-height="700"
    bbox="-190 -215 1112 928"
    underline-thickness="50"
    underline-position="-200"
    unicode-range="U+0020-FB02"
  />
<missing-glyph horiz-adv-x="495" 
d="M406 800v-990h-314v990h314zM330 734h-164v-33h65v-37h-66v-32h165v32h-66v37h66v33zM264 606h-99v-103h165v34h-66v69zM231 572v-35h-33v35h33zM330 476h-165v-32h66v-37h-66v-33h99v70h66v32zM330 417h-33v-65h-132v-34h165v99zM330 296h-99v-55h33v22h33v-46h-99v79
h-33v-112h165v112zM330 125h-165v-112h165v112zM297 92v-46h-99v46h99zM330 -10h-165v-32h70l-70 -47v-33h165v33h-101l69 47h32v32z" />
    <glyph glyph-name="fi" unicode="fi" horiz-adv-x="442" 
d="M67 572q0 145 138 145q52 0 97 -28l-14 -21q-36 22 -84 22q-53 0 -80.5 -24t-27.5 -94v-52h174v-27h-174v-493h-29v493h-47v27h47v52zM352 520h28v-520h-28v520z" />
    <glyph glyph-name="fl" unicode="fl" horiz-adv-x="465" 
d="M67 572q0 145 138 145q52 0 97 -28l-14 -21q-36 22 -84 22q-53 0 -80.5 -24t-27.5 -94v-52h174v-27h-174v-493h-29v493h-47v27h47v52zM375 707h28v-707h-28v707z" />
    <glyph glyph-name="f_f" unicode="ff" horiz-adv-x="644" 
d="M521 690q-53 0 -80.5 -24t-27.5 -94v-52h174v-27h-174v-493h-29v493h-47h-110h-131v-493h-29v493h-47v27h47v52q0 145 138 145q52 0 97 -28l-14 -21q-36 22 -84 22q-53 0 -80.5 -24t-27.5 -94v-52h174h101h13v52q0 145 138 145q52 0 97 -28l-14 -21q-36 22 -84 22z" />
    <glyph glyph-name=".notdef" horiz-adv-x="495" 
d="M406 800v-990h-314v990h314zM330 734h-164v-33h65v-37h-66v-32h165v32h-66v37h66v33zM264 606h-99v-103h165v34h-66v69zM231 572v-35h-33v35h33zM330 476h-165v-32h66v-37h-66v-33h99v70h66v32zM330 417h-33v-65h-132v-34h165v99zM330 296h-99v-55h33v22h33v-46h-99v79
h-33v-112h165v112zM330 125h-165v-112h165v112zM297 92v-46h-99v46h99zM330 -10h-165v-32h70l-70 -47v-33h165v33h-101l69 47h32v32z" />
    <glyph glyph-name=".null" horiz-adv-x="0" 
 />
    <glyph glyph-name="nonmarkingreturn" horiz-adv-x="333" 
 />
    <glyph glyph-name="space" unicode=" " horiz-adv-x="300" 
 />
    <glyph glyph-name="exclam" unicode="!" horiz-adv-x="162" 
d="M96 700v-530h-30v530h30zM81 -5q-17 0 -19 2.5t-2 18.5t2 18.5t19 2.5t19 -2.5t2 -18.5t-2 -18.5t-19 -2.5z" />
    <glyph glyph-name="quotedbl" unicode="&#x22;" horiz-adv-x="195" 
d="M64 700v-175h-29v175h29zM140 700v-175h-29v175h29z" />
    <glyph glyph-name="numbersign" unicode="#" horiz-adv-x="550" 
d="M505 493h-102l-20 -285h122v-28h-124l-13 -180h-29l13 180h-183l-13 -180h-29l13 180h-95v28h97l20 285h-117v27h119l13 180h29l-13 -180h183l13 180h29l-13 -180h100v-27zM354 208l20 285h-183l-20 -285h183z" />
    <glyph glyph-name="dollar" unicode="$" horiz-adv-x="519" 
d="M484 164q0 -74 -61.5 -125.5t-148.5 -53.5v-75h-28v76q-78 6 -136.5 52.5t-74.5 117.5l28 9q18 -70 73.5 -111t130.5 -41q76 0 132 43.5t56 108.5q0 38 -12.5 66.5t-39 49t-51 33t-64.5 27.5l-60 24q-163 64 -163 181q0 68 49.5 114.5t131.5 51.5v78h28v-78
q68 -4 121 -46t71 -103l-24 -9q-22 58 -69 94t-111 36q-74 0 -121 -38.5t-47 -98.5q0 -101 142 -157l53 -20q38 -16 60 -26t51.5 -28.5t45 -37.5t27 -48.5t11.5 -65.5z" />
    <glyph glyph-name="percent" unicode="%" horiz-adv-x="698" 
d="M159 705q51 0 87.5 -36t36.5 -87t-36.5 -87t-87.5 -36t-87.5 36t-36.5 87t36.5 87t87.5 36zM569 701l20 -16l-459 -685l-21 16zM159 679q-41 0 -69.5 -27.5t-28.5 -69.5t28.5 -69.5t69.5 -27.5t69.5 27.5t28.5 69.5t-28.5 69.5t-69.5 27.5zM539 241q51 0 87.5 -36
t36.5 -87t-36.5 -87t-87.5 -36t-87.5 36t-36.5 87t36.5 87t87.5 36zM539 215q-41 0 -69.5 -27.5t-28.5 -69.5t28.5 -69.5t69.5 -27.5t69.5 27.5t28.5 69.5t-28.5 69.5t-69.5 27.5z" />
    <glyph glyph-name="ampersand" unicode="&#x26;" horiz-adv-x="692" 
d="M592 22q33 0 65 20v-25q-30 -23 -64 -23q-75 0 -75 83v49q-26 -65 -84.5 -101.5t-131.5 -36.5q-103 0 -172.5 60.5t-69.5 157.5q0 96 64 152t167 59l-182 283h419v-27h-371l180 -282h-36q-92 0 -152 -49t-60 -136t62.5 -138.5t148.5 -51.5q101 0 160.5 63.5t59.5 137.5
v171h104v-27h-78v-286q0 -53 46 -53z" />
    <glyph glyph-name="quotesingle" unicode="'" horiz-adv-x="99" 
d="M64 700v-175h-29v175h29z" />
    <glyph glyph-name="parenleft" unicode="(" horiz-adv-x="208" 
d="M176 745q-101 -183 -101 -425q0 -256 101 -450h-25q-106 189 -106 450q0 248 106 425h25z" />
    <glyph glyph-name="parenright" unicode=")" horiz-adv-x="208" 
d="M45 745h25q106 -177 106 -425q0 -261 -106 -450h-25q101 194 101 450q0 242 -101 425z" />
    <glyph glyph-name="asterisk" unicode="*" horiz-adv-x="422" 
d="M226 690l-2 -99h-25l-3 99h30zM82 606l100 -31l-6 -21l-101 27zM340 606l7 -25l-101 -27l-5 21zM182 530l18 -15l-58 -83l-22 16zM240 530l62 -82l-22 -16l-57 83z" />
    <glyph glyph-name="plus" unicode="+" horiz-adv-x="385" 
d="M355 293v-22h-152v-152h-22v152h-151v22h151v151h22v-151h152z" />
    <glyph glyph-name="comma" unicode="," horiz-adv-x="132" 
d="M0 -88l65 184h37l-82 -184h-20z" />
    <glyph glyph-name="hyphen" unicode="-" horiz-adv-x="400" 
d="M355 295v-22h-310v22h310z" />
    <glyph glyph-name="period" unicode="." horiz-adv-x="112" 
d="M56 -5q-16 0 -18.5 2.5t-2.5 18.5t2.5 18.5t18.5 2.5t18.5 -2.5t2.5 -18.5t-2.5 -18.5t-18.5 -2.5z" />
    <glyph glyph-name="slash" unicode="/" horiz-adv-x="447" 
d="M407 745l-340 -875h-27l340 875h27z" />
    <glyph glyph-name="zero" unicode="0" horiz-adv-x="620" 
d="M310 710q119 0 192 -97.5t73 -262.5t-73 -262.5t-192 -97.5q-120 0 -192.5 97.5t-72.5 262.5t72.5 262.5t192.5 97.5zM310 683q-102 0 -169 -88t-67 -245q0 -158 66.5 -245t169.5 -87t169 87t66 245q0 157 -66.5 245t-168.5 88z" />
    <glyph glyph-name="one" unicode="1" horiz-adv-x="256" 
d="M174 700v-700h-29v670h-83v30h112z" />
    <glyph glyph-name="two" unicode="2" horiz-adv-x="495" 
d="M248 707q84 0 143 -54.5t59 -139.5q0 -20 -4 -39t-16 -42t-20.5 -37.5t-32 -43.5t-34 -41.5t-43 -49t-44.5 -50.5l-159 -183h352v-27h-399v14l188 215q16 19 51 59t47.5 54.5t34.5 43.5t29.5 45.5t14.5 39t7 44.5q0 72 -49.5 118t-124.5 46q-74 0 -124.5 -48.5
t-50.5 -129.5v-16h-28v16q0 92 59.5 149t143.5 57z" />
    <glyph glyph-name="three" unicode="3" horiz-adv-x="535" 
d="M66 147q22 -57 73.5 -93t125.5 -36q84 0 142.5 50.5t58.5 136.5q0 101 -70.5 147.5t-171.5 33.5l189 287h-341v27h391l-192 -287q90 4 157 -51.5t67 -156.5q0 -97 -66.5 -156t-162.5 -59q-84 0 -144 41.5t-82 108.5z" />
    <glyph glyph-name="four" unicode="4" horiz-adv-x="496" 
d="M461 234v-28h-75v-206h-29v206h-317v28l317 466h29v-466h75zM71 234h286v419z" />
    <glyph glyph-name="five" unicode="5" horiz-adv-x="550" 
d="M440 700v-27h-304l-41 -282q71 78 183 78q93 0 162.5 -67t69.5 -172q0 -104 -69 -172t-169 -68q-86 0 -143 40t-84 102l27 14q21 -55 73 -91.5t125 -36.5q90 0 151 60t61 152q0 90 -60.5 151t-146.5 61q-107 0 -181 -90l-29 5l48 343h327z" />
    <glyph glyph-name="six" unicode="6" horiz-adv-x="515" 
d="M344 700l-225 -317q65 44 136 44q91 0 158 -62t67 -156t-64 -156.5t-158 -62.5q-95 0 -159 63t-64 159q0 24 4 48t13 47t16 40t21.5 40t21 33t23 32.5t19.5 26.5l155 221h36zM258 398q-86 0 -140 -49.5t-54 -139.5q0 -84 58 -137.5t136 -53.5q76 0 134.5 53.5t58.5 137.5
q0 87 -59 138t-134 51z" />
    <glyph glyph-name="seven" unicode="7" horiz-adv-x="451" 
d="M421 700l-268 -700h-30l259 673h-352v27h391z" />
    <glyph glyph-name="eight" unicode="8" horiz-adv-x="505" 
d="M335 387q61 -26 98 -76t37 -116q0 -90 -63.5 -147.5t-154.5 -57.5t-154 57.5t-63 147.5q0 66 37 116t98 76q-48 26 -73 66t-25 87q0 72 49 121t131 49t131.5 -49t49.5 -121q0 -46 -25 -86.5t-73 -66.5zM101 541q0 -59 44 -101.5t107 -42.5q64 0 108 42.5t44 101.5
q0 57 -41 99.5t-111 42.5t-110.5 -42.5t-40.5 -99.5zM252 19q78 0 133.5 48.5t55.5 128.5q0 76 -54 125.5t-135 49.5q-80 0 -134 -49.5t-54 -125.5q0 -79 55.5 -128t132.5 -49z" />
    <glyph glyph-name="nine" unicode="9" horiz-adv-x="529" 
d="M183 -1l225 317q-65 -44 -136 -44q-91 0 -158 62t-67 156t64 156.5t158 62.5q95 0 159 -63t64 -159q0 -24 -4 -48t-13 -47t-16 -40t-21.5 -40t-21 -33t-23 -32.5t-19.5 -26.5l-155 -221h-36zM269 301q86 0 140 49.5t54 139.5q0 84 -58 137.5t-136 53.5
q-76 0 -134.5 -53.5t-58.5 -137.5q0 -87 59 -138t134 -51z" />
    <glyph glyph-name="colon" unicode=":" horiz-adv-x="142" 
d="M71 472q-17 0 -19 2t-2 19t2 19t19 2t19 -2t2 -19t-2 -19t-19 -2zM71 -5q-17 0 -19 2.5t-2 18.5t2 18.5t19 2.5t19 -2.5t2 -18.5t-2 -18.5t-19 -2.5z" />
    <glyph glyph-name="semicolon" unicode=";" horiz-adv-x="139" 
d="M83 472q-17 0 -19 2t-2 19t2 19t19 2t19 -2t2 -19t-2 -19t-19 -2zM0 -88l65 184h37l-82 -184h-20z" />
    <glyph glyph-name="less" unicode="&#x3c;" horiz-adv-x="497" 
d="M462 481v-31l-380 -210l380 -208v-32l-417 231v19z" />
    <glyph glyph-name="equal" unicode="=" horiz-adv-x="426" 
d="M381 375v-22h-335v22h335zM381 215v-22h-335v22h335z" />
    <glyph glyph-name="greater" unicode="&#x3e;" horiz-adv-x="497" 
d="M35 481l417 -231v-19l-417 -231v32l380 208l-380 210v31z" />
    <glyph glyph-name="question" unicode="?" horiz-adv-x="482" 
d="M241 707q88 0 144.5 -52t56.5 -134q0 -39 -14.5 -71.5t-36 -53t-47 -42.5t-47 -40.5t-36 -47t-14.5 -62.5v-33h-30v33q0 42 20 76t49 58.5l58 49t49 58.5t20 75q0 78 -49 118.5t-124 40.5q-76 0 -123.5 -45t-47.5 -142h-29q0 100 54.5 157t146.5 57zM231 -5
q-17 0 -19 2.5t-2 18.5t2 18.5t19 2.5t19 -2.5t2 -18.5t-2 -18.5t-19 -2.5z" />
    <glyph glyph-name="at" unicode="@" horiz-adv-x="784" 
d="M391 710q144 0 246 -104.5t102 -277.5q0 -90 -29.5 -137t-83.5 -47q-42 0 -67.5 32t-24.5 93q-21 -67 -65.5 -97t-92.5 -30q-70 0 -124 52.5t-54 153.5q0 92 54.5 144.5t123.5 52.5q89 0 151 -92l3 81h25v-223q0 -140 73 -140q38 0 61 39t23 117q0 161 -94 258.5
t-227 97.5q-124 0 -221.5 -96t-97.5 -240q0 -93 48 -170.5t121.5 -118.5t151.5 -41q112 0 184 56l29 -9q-79 -74 -215 -74q-86 0 -165 45t-130 128t-51 184q0 104 50 188.5t129 129.5t167 45zM375 517q-57 0 -104 -43t-47 -126q0 -90 46.5 -134.5t104.5 -44.5q56 0 101 48.5
t45 130.5q0 79 -44 124t-102 45z" />
    <glyph glyph-name="A" unicode="A" horiz-adv-x="682" 
d="M631 0l-89 199h-402l-89 -199h-31l313 700h15l314 -700h-31zM152 227h378l-189 423z" />
    <glyph glyph-name="B" unicode="B" horiz-adv-x="549" 
d="M355 382q76 -15 117.5 -68.5t41.5 -118.5q0 -92 -63 -143.5t-189 -51.5h-202v700h220q94 0 144 -46.5t50 -117.5q0 -50 -28 -91.5t-91 -62.5zM280 672h-191v-276h191q72 0 119 39t47 100q0 63 -44 100t-122 37zM263 28q222 0 222 166q0 72 -54 123t-154 51h-188v-340h174
z" />
    <glyph glyph-name="C" unicode="C" horiz-adv-x="664" 
d="M629 75q-102 -85 -231 -85q-135 0 -244 104t-109 256t109 256t244 104q127 0 229 -83l-20 -23q-90 76 -206 76q-80 0 -154.5 -40.5t-123.5 -118t-49 -171.5t49 -171.5t123.5 -118t154.5 -40.5q117 0 206 75z" />
    <glyph glyph-name="D" unicode="D" horiz-adv-x="625" 
d="M232 700q155 0 254 -101t99 -252q0 -147 -99 -247t-254 -100h-172v700h172zM231 28q144 0 234.5 91.5t90.5 227.5q0 140 -90.5 232.5t-234.5 92.5h-142v-644h142z" />
    <glyph glyph-name="E" unicode="E" horiz-adv-x="498" 
d="M89 29h364v-29h-384h-9v700h29h355v-29h-355v-305h283v-29h-283v-308z" />
    <glyph glyph-name="F" unicode="F" horiz-adv-x="483" 
d="M448 674h-359v-309h297v-25h-297v-340h-29v700h388v-26z" />
    <glyph glyph-name="G" unicode="G" horiz-adv-x="771" 
d="M726 335q1 -155 -94.5 -250t-233.5 -95t-245.5 103.5t-107.5 256.5q0 152 109 256t244 104q126 0 228 -83l-20 -23q-90 76 -205 76q-80 0 -154 -40.5t-123.5 -118t-49.5 -171.5t48 -171.5t121.5 -118t154.5 -40.5q118 0 204.5 76.5t95.5 210.5h-238v28h266z" />
    <glyph glyph-name="H" unicode="H" horiz-adv-x="597" 
d="M508 700h29v-700h-29v326h-419v-326h-29v700h29v-345h419v345z" />
    <glyph glyph-name="I" unicode="I" horiz-adv-x="149" 
d="M89 700v-700h-29v700h29z" />
    <glyph glyph-name="J" unicode="J" horiz-adv-x="446" 
d="M386 700v-468q0 -130 -48 -187t-144 -57q-52 0 -97 25.5t-67 69.5l21 15q47 -82 144 -82q83 0 122.5 49.5t39.5 164.5v470h29z" />
    <glyph glyph-name="K" unicode="K" horiz-adv-x="585" 
d="M523 0l-318 349l-116 -122v-227h-29v700h29v-434l412 434h38l-315 -332l336 -368h-37z" />
    <glyph glyph-name="L" unicode="L" horiz-adv-x="476" 
d="M89 29h347v-29h-376v700h29v-671z" />
    <glyph glyph-name="M" unicode="M" horiz-adv-x="831" 
d="M771 700v-700h-29v635l-317 -635h-19l-317 636v-636h-29v700h29l327 -655l326 655h29z" />
    <glyph glyph-name="N" unicode="N" horiz-adv-x="662" 
d="M573 700h29v-700h-22l-491 645v-645h-29v700h22l491 -647v647z" />
    <glyph glyph-name="O" unicode="O" horiz-adv-x="797" 
d="M398 710q135 0 244.5 -104t109.5 -256t-109.5 -256t-244.5 -104t-244 104t-109 256t109 256t244 104zM398 20q58 0 116 24.5t104.5 66.5t75.5 105t29 134t-29 134t-75.5 105t-104.5 66.5t-116 24.5t-115.5 -24.5t-104 -66.5t-75.5 -105t-29 -134t29 -134t75.5 -105
t104 -66.5t115.5 -24.5z" />
    <glyph glyph-name="P" unicode="P" horiz-adv-x="548" 
d="M273 700q113 0 176.5 -61t63.5 -154q0 -95 -63 -156t-177 -61h-184v-268h-29v700h213zM277 298q95 0 151 51t56 136q0 87 -56 136.5t-151 49.5h-188v-373h188z" />
    <glyph glyph-name="Q" unicode="Q" horiz-adv-x="797" 
d="M752 350q0 -85 -36.5 -157t-99.5 -122l61 -71h-35l-47 55q-91 -65 -197 -65q-135 0 -244 104t-109 256t109 256t244 104t244.5 -104t109.5 -256zM398 20q95 0 178 57l-172 200h35l158 -184q58 46 92 112t34 145q0 71 -29 134t-75.5 105t-104.5 66.5t-116 24.5
t-115.5 -24.5t-104 -66.5t-75.5 -105t-29 -134t29 -134t75.5 -105t104 -66.5t115.5 -24.5z" />
    <glyph glyph-name="R" unicode="R" horiz-adv-x="573" 
d="M543 0h-36l-204 269q-10 -1 -30 -1h-184v-268h-29v700h213q113 0 176.5 -61t63.5 -154q0 -80 -46.5 -138t-131.5 -74zM89 298h188q95 0 151 51t56 136q0 87 -56 136.5t-151 49.5h-188v-373z" />
    <glyph glyph-name="S" unicode="S" horiz-adv-x="519" 
d="M262 712q72 0 128.5 -43t75.5 -106l-24 -9q-22 58 -69 94t-111 36q-74 0 -121 -38.5t-47 -98.5q0 -101 142 -157l53 -20q38 -16 60 -26t51.5 -28.5t45 -37.5t27 -48.5t11.5 -65.5q0 -76 -64 -127.5t-153 -51.5q-85 0 -150.5 47.5t-81.5 123.5l28 9q18 -70 73.5 -111
t130.5 -41q76 0 132 43.5t56 108.5q0 38 -12.5 66.5t-39 49t-51 33t-64.5 27.5l-60 24q-163 64 -163 181q0 71 54.5 118.5t142.5 47.5z" />
    <glyph glyph-name="T" unicode="T" horiz-adv-x="532" 
d="M492 700v-29h-211v-671h-29v671h-212v29h452z" />
    <glyph glyph-name="U" unicode="U" horiz-adv-x="599" 
d="M510 700h29v-446q0 -127 -66.5 -198t-173.5 -71q-106 0 -172.5 71t-66.5 198v446h29v-445q0 -114 57.5 -177t152.5 -63t153 63t58 177v445z" />
    <glyph glyph-name="V" unicode="V" horiz-adv-x="682" 
d="M631 700h31l-314 -700h-15l-313 700h31l290 -650z" />
    <glyph glyph-name="W" unicode="W" horiz-adv-x="963" 
d="M933 700l-224 -700h-10l-217 636l-218 -636h-10l-224 700h27l203 -626l217 626h9l218 -626l202 626h27z" />
    <glyph glyph-name="X" unicode="X" horiz-adv-x="631" 
d="M596 0h-36l-244 339l-245 -339h-36l263 364l-243 336h36l225 -312l225 312h36l-243 -336z" />
    <glyph glyph-name="Y" unicode="Y" horiz-adv-x="602" 
d="M572 700l-257 -356v-344h-29v344l-256 356h35l236 -328l236 328h35z" />
    <glyph glyph-name="Z" unicode="Z" horiz-adv-x="591" 
d="M552 700l-463 -672h467v-28h-521l463 673h-435v27h489z" />
    <glyph glyph-name="bracketleft" unicode="[" horiz-adv-x="213" 
d="M168 745v-27h-94v-821h94v-27h-123v875h123z" />
    <glyph glyph-name="backslash" unicode="\" horiz-adv-x="447" 
d="M40 745h27l340 -875h-27z" />
    <glyph glyph-name="bracketright" unicode="]" horiz-adv-x="213" 
d="M45 745h123v-875h-123v27h94v821h-94v27z" />
    <glyph glyph-name="asciicircum" unicode="^" horiz-adv-x="462" 
d="M250 700l167 -225h-38l-147 192l-149 -192h-38l167 225h38z" />
    <glyph glyph-name="underscore" unicode="_" horiz-adv-x="590" 
d="M545 0v-28h-500v28h500z" />
    <glyph glyph-name="grave" unicode="`" horiz-adv-x="128" 
d="M17 700h33l78 -129h-18z" />
    <glyph glyph-name="a" unicode="a" 
d="M299 529q72 0 131.5 -34.5t93.5 -105.5v131h28v-520h-28v128q-35 -69 -94.5 -103.5t-130.5 -34.5q-45 0 -90.5 17.5t-85 50t-64 85.5t-24.5 116q0 84 42.5 148t101.5 93t120 29zM299 502q-87 0 -161 -64.5t-74 -178.5q0 -59 22 -106.5t57.5 -76.5t75.5 -44t80 -15
q89 0 157.5 63t68.5 179q0 79 -35 136t-85 82t-106 25z" />
    <glyph glyph-name="b" unicode="b" 
d="M315 529q61 0 120 -29t101.5 -93t42.5 -148q0 -63 -24.5 -116t-64 -85.5t-85 -50t-90.5 -17.5q-71 0 -130.5 34.5t-94.5 103.5v-128h-28v520v187h28v-318q34 71 93.5 105.5t131.5 34.5zM315 17q40 0 80 15t75.5 44t57.5 76.5t22 106.5q0 114 -74 178.5t-161 64.5
q-56 0 -106 -25t-85 -82t-35 -136q0 -116 68.5 -179t157.5 -63z" />
    <glyph glyph-name="c" unicode="c" horiz-adv-x="548" 
d="M299 529q70 0 128.5 -33.5t90.5 -95.5l-27 -8q-28 53 -80 81.5t-113 28.5q-40 0 -80.5 -15t-75.5 -44t-56.5 -77t-21.5 -107q0 -114 73 -178t161 -64q61 0 113 28.5t80 81.5l27 -8q-32 -62 -90.5 -95.5t-128.5 -33.5q-47 0 -92.5 17.5t-84.5 50t-63 85t-24 116.5
q0 125 81.5 197.5t182.5 72.5z" />
    <glyph glyph-name="d" unicode="d" 
d="M524 707h28v-347v-360h-28v128q-35 -69 -94.5 -103.5t-130.5 -34.5q-45 0 -90.5 17.5t-85 50t-64 85.5t-24.5 116q0 84 42.5 148t101.5 93t120 29q72 0 131.5 -34.5t93.5 -105.5v318zM299 17q89 0 157.5 63t68.5 179q0 79 -35 136t-85 82t-106 25q-87 0 -161 -64.5
t-74 -178.5q0 -59 22 -106.5t57.5 -76.5t75.5 -44t80 -15z" />
    <glyph glyph-name="e" unicode="e" horiz-adv-x="590" 
d="M296 529q46 0 92 -18t85.5 -51t62 -89t18.5 -124h-490q5 -109 76.5 -169.5t165.5 -60.5q123 0 182 78l21 -16q-67 -89 -202 -89q-110 0 -191 71.5t-81 198.5q0 124 81 196.5t180 72.5zM296 502q-84 0 -155 -60.5t-77 -167.5h462q0 73 -38 126.5t-88.5 77.5t-103.5 24z
" />
    <glyph glyph-name="f" unicode="f" horiz-adv-x="327" 
d="M204 690q-53 0 -80.5 -24t-27.5 -94v-52h174v-27h-174v-493h-29v493h-47v27h47v52q0 145 138 145q52 0 97 -28l-14 -21q-36 22 -84 22z" />
    <glyph glyph-name="g" unicode="g" 
d="M524 520h28v-520q0 -56 -20 -97.5t-52.5 -64.5t-68 -33.5t-71.5 -10.5q-120 0 -168 48v30q18 -19 61 -34.5t107 -15.5q75 0 129.5 44.5t54.5 133.5v128q-35 -69 -94.5 -103.5t-130.5 -34.5q-45 0 -90.5 17.5t-85 50t-64 85.5t-24.5 116q0 84 42.5 148t101.5 93t120 29
q72 0 131.5 -34.5t93.5 -105.5v131zM299 17q89 0 157.5 63t68.5 179q0 79 -35 136t-85 82t-106 25q-87 0 -161 -64.5t-74 -178.5q0 -59 22 -106.5t57.5 -76.5t75.5 -44t80 -15z" />
    <glyph glyph-name="h" unicode="h" horiz-adv-x="541" 
d="M295 528q85 0 143 -56t58 -167v-305h-29v309q0 93 -49 142.5t-124 49.5q-77 0 -134.5 -57t-69.5 -126v-318h-28v707h28v-329q10 46 66.5 98t138.5 52z" />
    <glyph glyph-name="i" unicode="i" horiz-adv-x="152" 
d="M90 707v-32h-28v32h28zM90 520v-520h-28v520h28z" />
    <glyph glyph-name="j" unicode="j" horiz-adv-x="189" 
d="M127 707v-32h-28v32h28zM127 520v-589q0 -76 -26.5 -106.5t-77.5 -30.5q-50 0 -78 26v29q38 -27 81 -27q73 0 73 99v599h28z" />
    <glyph glyph-name="k" unicode="k" horiz-adv-x="510" 
d="M450 0l-262 253l-98 -104v-149h-28v158v549h28v-519l315 332h37l-236 -248l284 -272h-40z" />
    <glyph glyph-name="l" unicode="l" horiz-adv-x="152" 
d="M90 707v-707h-28v707h28z" />
    <glyph glyph-name="m" unicode="m" horiz-adv-x="860" 
d="M632 528q33 0 63.5 -11t58.5 -33.5t44.5 -65t16.5 -99.5v-319h-29v326q0 89 -43 132t-109 43q-75 0 -122.5 -52t-59.5 -127v-322h-28v326q0 89 -45.5 132t-110.5 43q-76 0 -121.5 -55.5t-56.5 -123.5v-322h-28v520h28v-141q3 20 14.5 43t31.5 48t55 41.5t77 16.5
q57 0 109 -35.5t69 -108.5q17 59 66.5 101.5t119.5 42.5z" />
    <glyph glyph-name="n" unicode="n" horiz-adv-x="541" 
d="M295 528q85 0 143 -56t58 -167v-305h-29v309q0 93 -49 142.5t-124 49.5q-77 0 -134.5 -57t-69.5 -126v-318h-28v520h28v-142q10 46 66.5 98t138.5 52z" />
    <glyph glyph-name="o" unicode="o" horiz-adv-x="592" 
d="M296 529q99 0 180 -72.5t81 -196.5t-81 -197t-180 -73t-180 73t-81 197t81 196.5t180 72.5zM296 502q-40 0 -79.5 -15t-74.5 -44t-56.5 -76.5t-21.5 -106.5q0 -114 72.5 -178.5t159.5 -64.5t159 64.5t72 178.5q0 59 -21.5 106.5t-56 76.5t-74 44t-79.5 15z" />
    <glyph glyph-name="p" unicode="p" 
d="M315 529q61 0 120 -29t101.5 -93t42.5 -148q0 -63 -24.5 -116t-64 -85.5t-85 -50t-90.5 -17.5q-71 0 -130.5 34.5t-94.5 103.5v-318h-28v343v367h28v-131q34 71 93.5 105.5t131.5 34.5zM315 17q40 0 80 15t75.5 44t57.5 76.5t22 106.5q0 114 -74 178.5t-161 64.5
q-56 0 -106 -25t-85 -82t-35 -136q0 -116 68.5 -179t157.5 -63z" />
    <glyph glyph-name="q" unicode="q" 
d="M524 520h28v-520v-190h-28v318q-35 -69 -94.5 -103.5t-130.5 -34.5q-45 0 -90.5 17.5t-85 50t-64 85.5t-24.5 116q0 84 42.5 148t101.5 93t120 29q72 0 131.5 -34.5t93.5 -105.5v131zM299 17q89 0 157.5 63t68.5 179q0 79 -35 136t-85 82t-106 25q-87 0 -161 -64.5
t-74 -178.5q0 -59 22 -106.5t57.5 -76.5t75.5 -44t80 -15z" />
    <glyph glyph-name="r" unicode="r" horiz-adv-x="339" 
d="M295 528q10 0 14 -1v-26q-5 1 -15 1q-78 0 -134 -54t-70 -150v-298h-28v520h28v-154q5 62 63 112t142 50z" />
    <glyph glyph-name="s" unicode="s" horiz-adv-x="395" 
d="M318 420q-41 83 -130 83q-51 0 -82.5 -28t-31.5 -70q0 -75 97 -110l42 -15q78 -27 115 -60t37 -91q0 -66 -51 -102.5t-115 -36.5q-65 0 -113.5 35.5t-60.5 97.5l25 6q14 -54 55 -83t94 -29q54 0 96 28.5t42 80.5q0 49 -30 77t-91 49l-56 20q-114 39 -114 132
q0 53 40.5 89t102.5 36q53 0 92.5 -26.5t59.5 -72.5z" />
    <glyph glyph-name="t" unicode="t" horiz-adv-x="273" 
d="M238 493h-109v-424q0 -49 41 -49q29 0 65 21v-28q-35 -19 -73 -19q-25 0 -43 17t-18 47v435h-71v27h71v122h28v-122h109v-27z" />
    <glyph glyph-name="u" unicode="u" horiz-adv-x="541" 
d="M246 -8q-85 0 -143 56t-58 167v305h29v-309q0 -93 49 -142.5t124 -49.5q77 0 134.5 57t69.5 126v318h28v-520h-28v142q-10 -46 -66.5 -98t-138.5 -52z" />
    <glyph glyph-name="v" unicode="v" horiz-adv-x="528" 
d="M503 520l-231 -520h-16l-231 520h30l209 -469l209 469h30z" />
    <glyph glyph-name="w" unicode="w" horiz-adv-x="912" 
d="M858 520h29l-209 -520h-14l-208 485l-207 -485h-14l-210 520h30l188 -469l198 469h30l199 -469z" />
    <glyph glyph-name="x" unicode="x" horiz-adv-x="500" 
d="M434 0l-184 242l-184 -242h-36l204 265l-197 255h34l179 -232l180 232h33l-197 -255l204 -265h-36z" />
    <glyph glyph-name="y" unicode="y" horiz-adv-x="528" 
d="M473 520h30l-315 -710h-29l90 206l-224 504h30l209 -469z" />
    <glyph glyph-name="z" unicode="z" horiz-adv-x="488" 
d="M463 520l-382 -492h377v-28h-433l382 493h-351v27h407z" />
    <glyph glyph-name="braceleft" unicode="{" horiz-adv-x="234" 
d="M189 745v-27h-35q-16 0 -25.5 -10.5t-9.5 -26.5v-307l-36 -68l36 -66v-306q0 -16 9.5 -26.5t25.5 -10.5h35v-27h-35q-29 0 -46.5 20t-17.5 47v298l-45 71l45 73v299q0 27 17.5 47t46.5 20h35z" />
    <glyph glyph-name="bar" unicode="|" horiz-adv-x="178" 
d="M103 800v-990h-28v990h28z" />
    <glyph glyph-name="braceright" unicode="}" horiz-adv-x="234" 
d="M45 745h35q29 0 46.5 -20t17.5 -47v-299l45 -73l-45 -71v-298q0 -27 -17.5 -47t-46.5 -20h-35v27h35q16 0 25.5 10.5t9.5 26.5v306l36 66l-36 68v307q0 16 -9.5 26.5t-25.5 10.5h-35v27z" />
    <glyph glyph-name="asciitilde" unicode="~" horiz-adv-x="447" 
d="M138 337q46 0 90.5 -34.5t80.5 -34.5t52 16t16 37h25q0 -42 -25.5 -61t-63.5 -19q-47 0 -93 34.5t-83 34.5t-53 -18.5t-15 -39.5h-24q0 42 28 63.5t65 21.5z" />
    <glyph glyph-name="exclamdown" unicode="&#xa1;" horiz-adv-x="132" 
d="M81 525q17 0 19 -2.5t2 -18.5t-2 -18.5t-19 -2.5t-19 2.5t-2 18.5t2 18.5t19 2.5zM96 -180h-30v530h30v-530z" />
    <glyph glyph-name="cent" unicode="&#xa2;" horiz-adv-x="548" 
d="M301 92q60 1 111 28.5t79 78.5l27 -7q-32 -60 -89.5 -93t-127.5 -34v-105h-25v106q-95 9 -168 79t-73 184q0 115 72.5 184.5t168.5 78.5v108h25v-107q70 -1 127.5 -33.5t89.5 -92.5l-27 -8q-28 52 -78.5 79.5t-111.5 28.5v-475zM64 329q0 -104 64 -166t148 -70v473
q-84 -8 -148 -70t-64 -167z" />
    <glyph glyph-name="sterling" unicode="&#xa3;" horiz-adv-x="531" 
d="M485 482h-26v16q0 90 -54 136t-123 46t-121.5 -40.5t-52.5 -117.5q0 -22 6 -48.5t12 -44t18.5 -49.5t17.5 -46h170v-27h-161q16 -53 16 -94q0 -106 -100 -185h390v-28h-437v28q72 53 95.5 98.5t23.5 99.5q0 33 -16 81h-85v27h74q-3 7 -14 34t-15 38.5t-11 33.5t-10 40.5
t-3 37.5q0 84 55.5 136.5t147.5 52.5q91 0 147 -56.5t56 -152.5v-16z" />
    <glyph glyph-name="currency" unicode="&#xa4;" horiz-adv-x="569" 
d="M518 476q0 -83 -52 -143l48 -48l-33 -33l-48 48q-61 -48 -139 -48q-79 0 -139 49l-49 -49l-33 33l48 48q-51 62 -51 143t51 143l-48 48l33 33l49 -49q60 49 139 49q78 0 139 -48l48 48l33 -33l-48 -48q52 -60 52 -143zM103 476q0 -80 58 -135.5t133 -55.5t133.5 55.5
t58.5 135.5t-58.5 135.5t-133.5 55.5t-133 -55.5t-58 -135.5z" />
    <glyph glyph-name="yen" unicode="&#xa5;" horiz-adv-x="602" 
d="M315 344v-86h117v-28h-117v-71h117v-28h-117v-131h-29v131h-116v28h116v71h-116v28h116v86l-256 356h35l236 -328l236 328h35z" />
    <glyph glyph-name="brokenbar" unicode="&#xa6;" horiz-adv-x="178" 
d="M103 800v-280h-28v280h28zM103 90v-280h-28v280h28z" />
    <glyph glyph-name="section" unicode="&#xa7;" horiz-adv-x="516" 
d="M259 744q74 0 130 -37t85 -96l-19 -5q-23 50 -74.5 83t-121.5 33q-76 0 -126 -39t-50 -104q0 -58 34.5 -92.5t97.5 -55.5l83 -26q86 -28 135 -74t49 -121q0 -62 -48 -110q48 -50 48 -122q0 -76 -69 -124.5t-157 -48.5q-75 0 -134 40.5t-87 109.5l19 5q25 -60 79 -96.5
t123 -36.5q80 0 142 41t62 110q0 118 -149 168l-99 33q-73 25 -112.5 64.5t-39.5 104.5q0 67 50 114q-50 44 -50 117q0 70 58.5 117.5t140.5 47.5zM127 449q-44 -41 -44 -101q0 -58 34 -92t98 -56l83 -26q74 -24 120 -60q42 40 42 96q0 114 -149 167l-99 33q-47 15 -85 39z
" />
    <glyph glyph-name="dieresis" unicode="&#xa8;" horiz-adv-x="235" 
d="M30 700v-31h-30v31h30zM235 700v-31h-29v31h29z" />
    <glyph glyph-name="copyright" unicode="&#xa9;" horiz-adv-x="784" 
d="M392 707q86 0 165 -44.5t130.5 -128t51.5 -184.5t-51.5 -184.5t-130.5 -128t-165 -44.5t-165 44.5t-130.5 128t-51.5 184.5t51.5 184.5t130.5 128t165 44.5zM392 25q76 0 147 39t119 115.5t48 170.5t-48 170.5t-119 115.5t-147 39t-147 -39t-119 -115.5t-48 -170.5
t48 -170.5t119 -115.5t147 -39zM399 151q78 0 128 56l23 -27q-68 -61 -150 -61q-89 0 -157 66.5t-68 164.5t68 164.5t157 66.5q82 0 150 -61l-23 -27q-50 56 -128 56q-73 0 -132.5 -57t-59.5 -142t59.5 -142t132.5 -57z" />
    <glyph glyph-name="ordfeminine" unicode="&#xaa;" horiz-adv-x="369" 
d="M167 703q64 0 91 -34t28 -111v-96q0 -22 3.5 -36.5t6 -18.5t11.5 -18h-38q-18 26 -14 53q-44 -56 -108 -56q-50 0 -81 24.5t-31 71.5q0 75 113 88l108 12q-3 89 -89 89q-63 0 -103 -44l-20 19q40 57 123 57zM256 553l-106 -13q-84 -10 -84 -58q0 -31 22 -47.5t59 -16.5
t68 24t41 44v67z" />
    <glyph glyph-name="guillemotleft" unicode="&#xab;" horiz-adv-x="301" 
d="M40 323l120 104v-24l-101 -102l101 -103v-25l-120 104v46zM161 323l120 104v-24l-101 -102l101 -103v-25l-120 104v46z" />
    <glyph glyph-name="logicalnot" unicode="&#xac;" horiz-adv-x="465" 
d="M420 302v-147h-29v125h-346v22h375z" />
    <glyph glyph-name="uni00AD" unicode="&#xad;" horiz-adv-x="400" 
d="M355 295v-22h-310v22h310z" />
    <glyph glyph-name="registered" unicode="&#xae;" horiz-adv-x="784" 
d="M392 707q86 0 165 -44.5t130.5 -128t51.5 -184.5t-51.5 -184.5t-130.5 -128t-165 -44.5t-165 44.5t-130.5 128t-51.5 184.5t51.5 184.5t130.5 128t165 44.5zM392 25q76 0 147 39t119 115.5t48 170.5t-48 170.5t-119 115.5t-147 39t-147 -39t-119 -115.5t-48 -170.5
t48 -170.5t119 -115.5t147 -39zM392 557q65 0 105 -36t40 -91q0 -50 -30 -83t-76 -40l126 -156h-42l-123 154h-100v-154h-32v406h132zM391 526h-98v-190h98q55 0 84 24.5t29 69.5q0 43 -29.5 69.5t-83.5 26.5z" />
    <glyph glyph-name="macron" unicode="&#xaf;" horiz-adv-x="359" 
d="M359 700v-27h-359v27h359z" />
    <glyph glyph-name="degree" unicode="&#xb0;" horiz-adv-x="381" 
d="M190 719q61 0 103.5 -42.5t42.5 -102.5q0 -61 -42.5 -103.5t-103.5 -42.5t-103 42.5t-42 103.5q0 60 42 102.5t103 42.5zM190 692q-48 0 -82.5 -32.5t-34.5 -85.5q0 -52 34.5 -85t82.5 -33t83 33t35 85q0 53 -35 85.5t-83 32.5z" />
    <glyph glyph-name="plusminus" unicode="&#xb1;" horiz-adv-x="405" 
d="M181 115v152h-151v22h151v151h22v-151h152v-22h-152v-152h-22zM45 23h335v-22h-335v22z" />
    <glyph glyph-name="uni00B2" unicode="&#xb2;" horiz-adv-x="261" 
d="M129 704q34 0 59 -22.5t25 -52.5q0 -26 -14.5 -47t-53.5 -61l-47 -49h118v-32h-168v32l68 69q28 29 36.5 38.5t15.5 22.5t7 27q0 18 -14 31t-32 13q-19 0 -33 -13t-14 -37v-14h-37v14q0 35 24.5 58t59.5 23z" />
    <glyph glyph-name="uni00B3" unicode="&#xb3;" horiz-adv-x="268" 
d="M131 703q32 0 56 -20.5t24 -47.5q0 -32 -30 -53q42 -18 42 -66q0 -34 -27.5 -57t-64.5 -23q-40 0 -66 27t-25 64h38q2 -25 15.5 -42t37.5 -17q22 0 38 13.5t16 34.5q0 27 -18.5 37t-55.5 12v28q63 0 63 42q0 16 -12.5 26.5t-30.5 10.5q-45 0 -47 -54h-37q0 38 23.5 61.5
t60.5 23.5z" />
    <glyph glyph-name="acute" unicode="&#xb4;" horiz-adv-x="111" 
d="M111 700l-93 -129h-18l78 129h33z" />
    <glyph glyph-name="uni00B5" unicode="&#xb5;" horiz-adv-x="541" 
d="M451 520h28v-520h-28v142q-10 -46 -66.5 -98t-138.5 -52q-115 0 -168 88v-270h-28v346q-5 30 -5 59v305h29h4v-357q12 -70 58.5 -107t110.5 -37q77 0 134.5 57t69.5 126v318z" />
    <glyph glyph-name="paragraph" unicode="&#xb6;" horiz-adv-x="666" 
d="M70 485q0 93 63.5 154t176.5 61h213v-700h-29v268h-184q-114 0 -177 61t-63 156zM567 700h29v-700h-29v700zM494 298v373h-188q-95 0 -151 -49.5t-56 -136.5q0 -85 56 -136t151 -51h188z" />
    <glyph glyph-name="periodcentered" unicode="&#xb7;" horiz-adv-x="132" 
d="M56 255q-16 0 -18.5 2.5t-2.5 18.5t2.5 18.5t18.5 2.5t18.5 -2.5t2.5 -18.5t-2.5 -18.5t-18.5 -2.5z" />
    <glyph glyph-name="cedilla" unicode="&#xb8;" horiz-adv-x="136" 
d="M51 -48q35 2 60 -20.5t25 -59.5q0 -44 -40.5 -67.5t-95.5 -13.5l10 22q42 -6 68.5 12.5t26.5 46.5q0 31 -24.5 47t-54.5 2l-14 17l54 62h29z" />
    <glyph glyph-name="uni00B9" unicode="&#xb9;" horiz-adv-x="216" 
d="M134 701v-261h-37v221l-17 -11l-18 31l35 20h37z" />
    <glyph glyph-name="ordmasculine" unicode="&#xba;" horiz-adv-x="375" 
d="M187 705q59 0 106 -43t47 -116t-47.5 -117t-105.5 -44t-105 44t-47 117t47 116t105 43zM187 676q-48 0 -84.5 -34t-36.5 -96t36.5 -96.5t84.5 -34.5q49 0 85.5 34.5t36.5 96.5t-36.5 96t-85.5 34z" />
    <glyph glyph-name="guillemotright" unicode="&#xbb;" horiz-adv-x="301" 
d="M140 323v-46l-120 -104v25l101 103l-101 102v24zM261 323v-46l-120 -104v25l101 103l-101 102v24z" />
    <glyph glyph-name="onequarter" unicode="&#xbc;" horiz-adv-x="569" 
d="M100 701v-261h-37v221l-17 -11l-18 31l35 20h37zM503 700l-430 -700h-48l436 700h42zM517 261v-154h27v-31h-27v-76h-37v76h-132l132 185h37zM480 202l-65 -95h65v95z" />
    <glyph glyph-name="onehalf" unicode="&#xbd;" horiz-adv-x="544" 
d="M100 701v-261h-37v221l-17 -11l-18 31l35 20h37zM503 700l-430 -700h-48l436 700h42zM432 264q34 0 59 -22.5t25 -52.5q0 -26 -14.5 -47t-53.5 -61l-47 -49h118v-32h-168v32l68 69q28 29 36.5 38.5t15.5 22.5t7 27q0 18 -14 31t-32 13q-19 0 -33 -13t-14 -37v-14h-37v14
q0 35 24.5 58t59.5 23z" />
    <glyph glyph-name="threequarters" unicode="&#xbe;" horiz-adv-x="587" 
d="M116 703q32 0 56 -20.5t24 -47.5q0 -32 -30 -53q42 -18 42 -66q0 -34 -27.5 -57t-64.5 -23q-40 0 -66 27t-25 64h38q2 -25 15.5 -42t37.5 -17q22 0 38 13.5t16 34.5q0 27 -18.5 37t-55.5 12v28q63 0 63 42q0 16 -12.5 26.5t-30.5 10.5q-46 0 -47 -54h-37q0 38 23.5 61.5
t60.5 23.5zM531 700l-430 -700h-48l436 700h42zM535 261v-154h27v-31h-27v-76h-37v76h-132l132 185h37zM498 202l-65 -95h65v95z" />
    <glyph glyph-name="questiondown" unicode="&#xbf;" horiz-adv-x="482" 
d="M251 525q17 0 19 -2.5t2 -18.5t-2 -18.5t-19 -2.5t-19 2.5t-2 18.5t2 18.5t19 2.5zM241 -187q-88 0 -144.5 52t-56.5 134q0 47 20 83t48.5 60t57.5 47t49 55t20 72v33h30v-33q0 -42 -20 -76t-49 -58.5l-58 -49t-49 -58.5t-20 -75q0 -78 49 -118.5t124 -40.5
q76 0 123.5 45t47.5 142h29q0 -100 -54.5 -157t-146.5 -57z" />
    <glyph glyph-name="Agrave" unicode="&#xc0;" horiz-adv-x="682" 
d="M353 751h-18l-93 129h33zM631 0l-89 199h-402l-89 -199h-31l313 700h15l314 -700h-31zM152 227h378l-189 423z" />
    <glyph glyph-name="Aacute" unicode="&#xc1;" horiz-adv-x="682" 
d="M445 880l-93 -129h-18l78 129h33zM631 0l-89 199h-402l-89 -199h-31l313 700h15l314 -700h-31zM152 227h378l-189 423z" />
    <glyph glyph-name="Acircumflex" unicode="&#xc2;" horiz-adv-x="682" 
d="M341 861l-103 -101h-25l104 120h46l104 -120h-24zM631 0l-89 199h-402l-89 -199h-31l313 700h15l314 -700h-31zM152 227h378l-189 423z" />
    <glyph glyph-name="Atilde" unicode="&#xc3;" horiz-adv-x="682" 
d="M270 870q-33 0 -48 -19t-14 -39h-24q0 40 27 61t56 21q35 0 60 -17t45 -33.5t41 -16.5q33 0 48 16t15 37h25q0 -41 -25 -60t-58 -19q-41 0 -79.5 34.5t-68.5 34.5zM631 0l-89 199h-402l-89 -199h-31l313 700h15l314 -700h-31zM152 227h378l-189 423z" />
    <glyph glyph-name="Adieresis" unicode="&#xc4;" horiz-adv-x="682" 
d="M253 880v-31h-30v31h30zM458 880v-31h-29v31h29zM631 0l-89 199h-402l-89 -199h-31l313 700h15l314 -700h-31zM152 227h378l-189 423z" />
    <glyph glyph-name="Aring" unicode="&#xc5;" horiz-adv-x="682" 
d="M342 785q-30 0 -51.5 21.5t-21.5 50.5t21 50t52 21q29 0 50.5 -21t21.5 -50t-21.5 -50.5t-50.5 -21.5zM342 902q-19 0 -32.5 -13.5t-13.5 -31.5q0 -19 13.5 -32.5t32.5 -13.5t32 13.5t13 32.5q0 18 -13 31.5t-32 13.5zM631 0l-89 199h-402l-89 -199h-31l313 700h15
l314 -700h-31zM152 227h378l-189 423z" />
    <glyph glyph-name="AE" unicode="&#xc6;" horiz-adv-x="937" 
d="M527 29h364v-29h-384h-9v242h-278l-165 -242h-35l478 699v1h9h26h349v-29h-355v-305h283v-29h-283v-308zM239 269h259v380z" />
    <glyph glyph-name="Ccedilla" unicode="&#xc7;" horiz-adv-x="664" 
d="M372 -48q35 2 60 -20.5t25 -59.5q0 -44 -40.5 -67.5t-95.5 -13.5l10 22q42 -6 68.5 12.5t26.5 46.5q0 31 -24.5 47t-54.5 2l-14 17l46 53q-131 8 -232.5 110.5t-101.5 248.5q0 152 109 256t244 104q127 0 229 -83l-20 -23q-90 76 -206 76q-80 0 -154.5 -40.5t-123.5 -118
t-49 -171.5t49 -171.5t123.5 -118t154.5 -40.5q117 0 206 75l22 -20q-99 -82 -222 -85z" />
    <glyph glyph-name="Egrave" unicode="&#xc8;" horiz-adv-x="498" 
d="M271 751h-18l-93 129h33zM89 29h364v-29h-384h-9v700h29h355v-29h-355v-305h283v-29h-283v-308z" />
    <glyph glyph-name="Eacute" unicode="&#xc9;" horiz-adv-x="498" 
d="M363 880l-93 -129h-18l78 129h33zM89 29h364v-29h-384h-9v700h29h355v-29h-355v-305h283v-29h-283v-308z" />
    <glyph glyph-name="Ecircumflex" unicode="&#xca;" horiz-adv-x="498" 
d="M259 861l-103 -101h-25l104 120h46l104 -120h-24zM89 29h364v-29h-384h-9v700h29h355v-29h-355v-305h283v-29h-283v-308z" />
    <glyph glyph-name="Edieresis" unicode="&#xcb;" horiz-adv-x="498" 
d="M171 880v-31h-30v31h30zM376 880v-31h-29v31h29zM89 29h364v-29h-384h-9v700h29h355v-29h-355v-305h283v-29h-283v-308z" />
    <glyph glyph-name="Igrave" unicode="&#xcc;" horiz-adv-x="149" 
d="M-24 880h33l78 -129h-18zM89 700v-700h-29v700h29z" />
    <glyph glyph-name="Iacute" unicode="&#xcd;" horiz-adv-x="149" 
d="M179 880l-93 -129h-18l78 129h33zM89 700v-700h-29v700h29z" />
    <glyph glyph-name="Icircumflex" unicode="&#xce;" horiz-adv-x="149" 
d="M97 880l104 -120h-24l-102 101l-103 -101h-25l104 120h46zM89 700v-700h-29v700h29z" />
    <glyph glyph-name="Idieresis" unicode="&#xcf;" horiz-adv-x="149" 
d="M-13 880v-31h-30v31h30zM192 880v-31h-29v31h29zM89 700v-700h-29v700h29z" />
    <glyph glyph-name="Eth" unicode="&#xd0;" horiz-adv-x="615" 
d="M223 700q155 0 254 -101t99 -252q0 -147 -99 -247t-254 -100h-172v341h-59v22h59v337h172zM222 28q144 0 234.5 91.5t90.5 227.5q0 140 -90.5 232.5t-234.5 92.5h-142v-309h222v-22h-222v-313h142z" />
    <glyph glyph-name="Ntilde" unicode="&#xd1;" horiz-adv-x="662" 
d="M257 894q35 0 60 -17t45 -33.5t41 -16.5q33 0 48 16t15 37h25q0 -41 -25 -60t-58 -19q-41 0 -79.5 34.5t-68.5 34.5q-33 0 -48 -19t-14 -39h-24q0 40 27 61t56 21zM573 700h29v-700h-22l-491 645v-645h-29v700h22l491 -647v647z" />
    <glyph glyph-name="Ograve" unicode="&#xd2;" horiz-adv-x="797" 
d="M300 880h33l78 -129h-18zM398 710q135 0 244.5 -104t109.5 -256t-109.5 -256t-244.5 -104t-244 104t-109 256t109 256t244 104zM398 20q58 0 116 24.5t104.5 66.5t75.5 105t29 134t-29 134t-75.5 105t-104.5 66.5t-116 24.5t-115.5 -24.5t-104 -66.5t-75.5 -105t-29 -134
t29 -134t75.5 -105t104 -66.5t115.5 -24.5z" />
    <glyph glyph-name="Oacute" unicode="&#xd3;" horiz-adv-x="797" 
d="M503 880l-93 -129h-18l78 129h33zM398 710q135 0 244.5 -104t109.5 -256t-109.5 -256t-244.5 -104t-244 104t-109 256t109 256t244 104zM398 20q58 0 116 24.5t104.5 66.5t75.5 105t29 134t-29 134t-75.5 105t-104.5 66.5t-116 24.5t-115.5 -24.5t-104 -66.5t-75.5 -105
t-29 -134t29 -134t75.5 -105t104 -66.5t115.5 -24.5z" />
    <glyph glyph-name="Ocircumflex" unicode="&#xd4;" horiz-adv-x="797" 
d="M421 880l104 -120h-24l-102 101l-103 -101h-25l104 120h46zM398 710q135 0 244.5 -104t109.5 -256t-109.5 -256t-244.5 -104t-244 104t-109 256t109 256t244 104zM398 20q58 0 116 24.5t104.5 66.5t75.5 105t29 134t-29 134t-75.5 105t-104.5 66.5t-116 24.5
t-115.5 -24.5t-104 -66.5t-75.5 -105t-29 -134t29 -134t75.5 -105t104 -66.5t115.5 -24.5z" />
    <glyph glyph-name="Otilde" unicode="&#xd5;" horiz-adv-x="797" 
d="M325 894q35 0 60 -17t45 -33.5t41 -16.5q33 0 48 16t15 37h25q0 -41 -25 -60t-58 -19q-41 0 -79.5 34.5t-68.5 34.5q-33 0 -48 -19t-14 -39h-24q0 40 27 61t56 21zM398 710q135 0 244.5 -104t109.5 -256t-109.5 -256t-244.5 -104t-244 104t-109 256t109 256t244 104z
M398 20q58 0 116 24.5t104.5 66.5t75.5 105t29 134t-29 134t-75.5 105t-104.5 66.5t-116 24.5t-115.5 -24.5t-104 -66.5t-75.5 -105t-29 -134t29 -134t75.5 -105t104 -66.5t115.5 -24.5z" />
    <glyph glyph-name="Odieresis" unicode="&#xd6;" horiz-adv-x="797" 
d="M311 880v-31h-30v31h30zM516 880v-31h-29v31h29zM398 710q135 0 244.5 -104t109.5 -256t-109.5 -256t-244.5 -104t-244 104t-109 256t109 256t244 104zM398 20q58 0 116 24.5t104.5 66.5t75.5 105t29 134t-29 134t-75.5 105t-104.5 66.5t-116 24.5t-115.5 -24.5
t-104 -66.5t-75.5 -105t-29 -134t29 -134t75.5 -105t104 -66.5t115.5 -24.5z" />
    <glyph glyph-name="multiply" unicode="&#xd7;" horiz-adv-x="342" 
d="M279 189l-15 -15l-108 107l-107 -107l-16 15l108 108l-107 106l15 16l107 -107l107 107l15 -16l-106 -106z" />
    <glyph glyph-name="Oslash" unicode="&#xd8;" horiz-adv-x="797" 
d="M567 663q82 -47 133.5 -129.5t51.5 -183.5q0 -152 -109.5 -256t-244.5 -104q-70 0 -138 31l-34 -71h-28l39 82q-85 46 -138.5 130t-53.5 188q0 152 109 256t244 104q75 0 147 -35l33 70h28zM74 350q0 -95 49 -171.5t127 -119.5l282 589q-66 32 -134 32
q-58 0 -115.5 -24.5t-104 -66.5t-75.5 -105t-29 -134zM398 20q58 0 116 24.5t104.5 66.5t75.5 105t29 134q0 93 -47 168t-122 118l-281 -588q62 -28 125 -28z" />
    <glyph glyph-name="Ugrave" unicode="&#xd9;" horiz-adv-x="599" 
d="M213 880h33l78 -129h-18zM510 700h29v-446q0 -127 -66.5 -198t-173.5 -71q-106 0 -172.5 71t-66.5 198v446h29v-445q0 -114 57.5 -177t152.5 -63t153 63t58 177v445z" />
    <glyph glyph-name="Uacute" unicode="&#xda;" horiz-adv-x="599" 
d="M416 880l-93 -129h-18l78 129h33zM510 700h29v-446q0 -127 -66.5 -198t-173.5 -71q-106 0 -172.5 71t-66.5 198v446h29v-445q0 -114 57.5 -177t152.5 -63t153 63t58 177v445z" />
    <glyph glyph-name="Ucircumflex" unicode="&#xdb;" horiz-adv-x="599" 
d="M334 880l104 -120h-24l-102 101l-103 -101h-25l104 120h46zM510 700h29v-446q0 -127 -66.5 -198t-173.5 -71q-106 0 -172.5 71t-66.5 198v446h29v-445q0 -114 57.5 -177t152.5 -63t153 63t58 177v445z" />
    <glyph glyph-name="Udieresis" unicode="&#xdc;" horiz-adv-x="599" 
d="M225 880v-31h-30v31h30zM430 880v-31h-29v31h29zM510 700h29v-446q0 -127 -66.5 -198t-173.5 -71q-106 0 -172.5 71t-66.5 198v446h29v-445q0 -114 57.5 -177t152.5 -63t153 63t58 177v445z" />
    <glyph glyph-name="Yacute" unicode="&#xdd;" horiz-adv-x="602" 
d="M405 880l-93 -129h-18l78 129h33zM572 700l-257 -356v-344h-29v344l-256 356h35l236 -328l236 328h35z" />
    <glyph glyph-name="Thorn" unicode="&#xde;" horiz-adv-x="560" 
d="M280 565q113 0 179 -58.5t66 -154.5q0 -101 -65 -157t-180 -56h-191v-139h-29v700h29v-135h191zM282 167q105 0 159.5 49t54.5 136q0 82 -55.5 134t-158.5 52h-193v-371h193z" />
    <glyph glyph-name="germandbls" unicode="&#xdf;" horiz-adv-x="559" 
d="M267 700q99 0 158 -45t59 -119q0 -60 -24.5 -97.5t-84.5 -54.5q76 -19 112.5 -67t36.5 -116q0 -100 -65.5 -150.5t-185.5 -50.5h-105v28h107q220 0 220 172q0 80 -57 125.5t-172 45.5h-98v27h98q93 0 141 32t48 107q0 64 -50.5 100t-137.5 36q-89 0 -134 -37.5
t-45 -103.5v-532h-28v532q0 74 53 121t154 47z" />
    <glyph glyph-name="agrave" unicode="&#xe0;" 
d="M225 700h33l78 -129h-18zM299 529q72 0 131.5 -34.5t93.5 -105.5v131h28v-520h-28v128q-35 -69 -94.5 -103.5t-130.5 -34.5q-45 0 -90.5 17.5t-85 50t-64 85.5t-24.5 116q0 84 42.5 148t101.5 93t120 29zM299 502q-87 0 -161 -64.5t-74 -178.5q0 -59 22 -106.5
t57.5 -76.5t75.5 -44t80 -15q89 0 157.5 63t68.5 179q0 79 -35 136t-85 82t-106 25z" />
    <glyph glyph-name="aacute" unicode="&#xe1;" 
d="M428 700l-93 -129h-18l78 129h33zM299 529q72 0 131.5 -34.5t93.5 -105.5v131h28v-520h-28v128q-35 -69 -94.5 -103.5t-130.5 -34.5q-45 0 -90.5 17.5t-85 50t-64 85.5t-24.5 116q0 84 42.5 148t101.5 93t120 29zM299 502q-87 0 -161 -64.5t-74 -178.5q0 -59 22 -106.5
t57.5 -76.5t75.5 -44t80 -15q89 0 157.5 63t68.5 179q0 79 -35 136t-85 82t-106 25z" />
    <glyph glyph-name="acircumflex" unicode="&#xe2;" 
d="M346 700l104 -120h-24l-102 101l-103 -101h-25l104 120h46zM299 529q72 0 131.5 -34.5t93.5 -105.5v131h28v-520h-28v128q-35 -69 -94.5 -103.5t-130.5 -34.5q-45 0 -90.5 17.5t-85 50t-64 85.5t-24.5 116q0 84 42.5 148t101.5 93t120 29zM299 502q-87 0 -161 -64.5
t-74 -178.5q0 -59 22 -106.5t57.5 -76.5t75.5 -44t80 -15q89 0 157.5 63t68.5 179q0 79 -35 136t-85 82t-106 25z" />
    <glyph glyph-name="atilde" unicode="&#xe3;" 
d="M250 714q35 0 60 -17t45 -33.5t41 -16.5q33 0 48 16t15 37h25q0 -41 -25 -60t-58 -19q-41 0 -79.5 34.5t-68.5 34.5q-33 0 -48 -19t-14 -39h-24q0 40 27 61t56 21zM299 529q72 0 131.5 -34.5t93.5 -105.5v131h28v-520h-28v128q-35 -69 -94.5 -103.5t-130.5 -34.5
q-45 0 -90.5 17.5t-85 50t-64 85.5t-24.5 116q0 84 42.5 148t101.5 93t120 29zM299 502q-87 0 -161 -64.5t-74 -178.5q0 -59 22 -106.5t57.5 -76.5t75.5 -44t80 -15q89 0 157.5 63t68.5 179q0 79 -35 136t-85 82t-106 25z" />
    <glyph glyph-name="adieresis" unicode="&#xe4;" 
d="M236 700v-31h-30v31h30zM441 700v-31h-29v31h29zM299 529q72 0 131.5 -34.5t93.5 -105.5v131h28v-520h-28v128q-35 -69 -94.5 -103.5t-130.5 -34.5q-45 0 -90.5 17.5t-85 50t-64 85.5t-24.5 116q0 84 42.5 148t101.5 93t120 29zM299 502q-87 0 -161 -64.5t-74 -178.5
q0 -59 22 -106.5t57.5 -76.5t75.5 -44t80 -15q89 0 157.5 63t68.5 179q0 79 -35 136t-85 82t-106 25z" />
    <glyph glyph-name="aring" unicode="&#xe5;" 
d="M325 748q29 0 50.5 -21t21.5 -50t-21.5 -50.5t-50.5 -21.5q-31 0 -52 21.5t-21 50.5t21 50t52 21zM325 722q-19 0 -32.5 -13.5t-13.5 -31.5q0 -19 13.5 -32.5t32.5 -13.5t32 13.5t13 32.5q0 18 -13 31.5t-32 13.5zM299 529q72 0 131.5 -34.5t93.5 -105.5v131h28v-520h-28
v128q-35 -69 -94.5 -103.5t-130.5 -34.5q-45 0 -90.5 17.5t-85 50t-64 85.5t-24.5 116q0 84 42.5 148t101.5 93t120 29zM299 502q-87 0 -161 -64.5t-74 -178.5q0 -59 22 -106.5t57.5 -76.5t75.5 -44t80 -15q89 0 157.5 63t68.5 179q0 79 -35 136t-85 82t-106 25z" />
    <glyph glyph-name="ae" unicode="&#xe6;" horiz-adv-x="1079" 
d="M786 529q46 0 92 -18t85.5 -51t62 -89t18.5 -124h-490q5 -109 76.5 -169.5t165.5 -60.5q123 0 182 78l21 -16q-67 -89 -202 -89q-77 0 -144.5 37.5t-100.5 106.5v-134h-28v128q-35 -69 -94.5 -103.5t-130.5 -34.5q-45 0 -90.5 17.5t-85 50t-64 85.5t-24.5 116
q0 84 42.5 148t101.5 93t120 29q72 0 131.5 -34.5t93.5 -105.5v131h28v-137q34 69 99.5 107.5t134.5 38.5zM299 17q89 0 157.5 63t68.5 179q0 79 -35 136t-85 82t-106 25q-87 0 -161 -64.5t-74 -178.5q0 -59 22 -106.5t57.5 -76.5t75.5 -44t80 -15zM786 502
q-84 0 -155 -60.5t-77 -167.5h462q0 73 -38 126.5t-88.5 77.5t-103.5 24z" />
    <glyph glyph-name="ccedilla" unicode="&#xe7;" horiz-adv-x="548" 
d="M298 17q61 0 113 28.5t80 81.5l27 -8q-31 -60 -87.5 -93.5t-125.5 -35.5l-35 -38q35 2 60 -20.5t25 -59.5q0 -44 -40.5 -67.5t-95.5 -13.5l10 22q42 -6 68.5 12.5t26.5 46.5q0 31 -24.5 47t-54.5 2l-14 17l46 53q-96 8 -169 79.5t-73 188.5q0 125 81.5 197.5t182.5 72.5
q70 0 128.5 -33.5t90.5 -95.5l-27 -8q-28 53 -80 81.5t-113 28.5q-40 0 -80.5 -15t-75.5 -44t-56.5 -77t-21.5 -107q0 -114 73 -178t161 -64z" />
    <glyph glyph-name="egrave" unicode="&#xe8;" horiz-adv-x="568" 
d="M285 571h-18l-93 129h33zM296 529q46 0 92 -18t85.5 -51t62 -89t18.5 -124h-490q5 -109 76.5 -169.5t165.5 -60.5q123 0 182 78l21 -16q-67 -89 -202 -89q-110 0 -191 71.5t-81 198.5q0 124 81 196.5t180 72.5zM296 502q-84 0 -155 -60.5t-77 -167.5h462q0 73 -38 126.5
t-88.5 77.5t-103.5 24z" />
    <glyph glyph-name="eacute" unicode="&#xe9;" horiz-adv-x="568" 
d="M378 700l-93 -129h-18l78 129h33zM296 529q46 0 92 -18t85.5 -51t62 -89t18.5 -124h-490q5 -109 76.5 -169.5t165.5 -60.5q123 0 182 78l21 -16q-67 -89 -202 -89q-110 0 -191 71.5t-81 198.5q0 124 81 196.5t180 72.5zM296 502q-84 0 -155 -60.5t-77 -167.5h462
q0 73 -38 126.5t-88.5 77.5t-103.5 24z" />
    <glyph glyph-name="ecircumflex" unicode="&#xea;" horiz-adv-x="568" 
d="M274 681l-103 -101h-25l104 120h46l104 -120h-24zM296 529q46 0 92 -18t85.5 -51t62 -89t18.5 -124h-490q5 -109 76.5 -169.5t165.5 -60.5q123 0 182 78l21 -16q-67 -89 -202 -89q-110 0 -191 71.5t-81 198.5q0 124 81 196.5t180 72.5zM296 502q-84 0 -155 -60.5
t-77 -167.5h462q0 73 -38 126.5t-88.5 77.5t-103.5 24z" />
    <glyph glyph-name="edieresis" unicode="&#xeb;" horiz-adv-x="568" 
d="M186 700v-31h-30v31h30zM391 700v-31h-29v31h29zM296 529q46 0 92 -18t85.5 -51t62 -89t18.5 -124h-490q5 -109 76.5 -169.5t165.5 -60.5q123 0 182 78l21 -16q-67 -89 -202 -89q-110 0 -191 71.5t-81 198.5q0 124 81 196.5t180 72.5zM296 502q-84 0 -155 -60.5
t-77 -167.5h462q0 73 -38 126.5t-88.5 77.5t-103.5 24z" />
    <glyph glyph-name="igrave" unicode="&#xec;" horiz-adv-x="152" 
d="M-22 700h33l78 -129h-18zM90 520v-520h-28v520h28z" />
    <glyph glyph-name="iacute" unicode="&#xed;" horiz-adv-x="152" 
d="M181 700l-93 -129h-18l78 129h33zM90 520v-520h-28v520h28z" />
    <glyph glyph-name="icircumflex" unicode="&#xee;" horiz-adv-x="152" 
d="M99 700l104 -120h-24l-102 101l-103 -101h-25l104 120h46zM90 520v-520h-28v520h28z" />
    <glyph glyph-name="idieresis" unicode="&#xef;" horiz-adv-x="152" 
d="M-11 700v-31h-30v31h30zM194 700v-31h-29v31h29zM90 520v-520h-28v520h28z" />
    <glyph glyph-name="eth" unicode="&#xf0;" horiz-adv-x="555" 
d="M356 590q67 -88 102.5 -167t35.5 -171q0 -123 -65 -192.5t-170 -69.5q-98 0 -161 70t-63 192q0 127 58 197.5t166 70.5q105 0 160 -59l-96 125l-108 -14v23l92 12l-71 93h33l70 -89l83 11v-23zM259 18q90 0 148 60t58 174q0 123 -51 181.5t-155 58.5q-98 0 -146.5 -58.5
t-48.5 -181.5q0 -113 55.5 -173.5t139.5 -60.5z" />
    <glyph glyph-name="ntilde" unicode="&#xf1;" horiz-adv-x="541" 
d="M199 714q35 0 60 -17t45 -33.5t41 -16.5q33 0 48 16t15 37h25q0 -41 -25 -60t-58 -19q-41 0 -79.5 34.5t-68.5 34.5q-33 0 -48 -19t-14 -39h-24q0 40 27 61t56 21zM295 528q85 0 143 -56t58 -167v-305h-29v309q0 93 -49 142.5t-124 49.5q-77 0 -134.5 -57t-69.5 -126
v-318h-28v520h28v-142q10 46 66.5 98t138.5 52z" />
    <glyph glyph-name="ograve" unicode="&#xf2;" horiz-adv-x="592" 
d="M197 700h33l78 -129h-18zM296 529q99 0 180 -72.5t81 -196.5t-81 -197t-180 -73t-180 73t-81 197t81 196.5t180 72.5zM296 502q-40 0 -79.5 -15t-74.5 -44t-56.5 -76.5t-21.5 -106.5q0 -114 72.5 -178.5t159.5 -64.5t159 64.5t72 178.5q0 59 -21.5 106.5t-56 76.5t-74 44
t-79.5 15z" />
    <glyph glyph-name="oacute" unicode="&#xf3;" horiz-adv-x="592" 
d="M400 700l-93 -129h-18l78 129h33zM296 529q99 0 180 -72.5t81 -196.5t-81 -197t-180 -73t-180 73t-81 197t81 196.5t180 72.5zM296 502q-40 0 -79.5 -15t-74.5 -44t-56.5 -76.5t-21.5 -106.5q0 -114 72.5 -178.5t159.5 -64.5t159 64.5t72 178.5q0 59 -21.5 106.5
t-56 76.5t-74 44t-79.5 15z" />
    <glyph glyph-name="ocircumflex" unicode="&#xf4;" horiz-adv-x="592" 
d="M318 700l104 -120h-24l-102 101l-103 -101h-25l104 120h46zM296 529q99 0 180 -72.5t81 -196.5t-81 -197t-180 -73t-180 73t-81 197t81 196.5t180 72.5zM296 502q-40 0 -79.5 -15t-74.5 -44t-56.5 -76.5t-21.5 -106.5q0 -114 72.5 -178.5t159.5 -64.5t159 64.5t72 178.5
q0 59 -21.5 106.5t-56 76.5t-74 44t-79.5 15z" />
    <glyph glyph-name="otilde" unicode="&#xf5;" horiz-adv-x="592" 
d="M222 714q35 0 60 -17t45 -33.5t41 -16.5q33 0 48 16t15 37h25q0 -41 -25 -60t-58 -19q-41 0 -79.5 34.5t-68.5 34.5q-33 0 -48 -19t-14 -39h-24q0 40 27 61t56 21zM296 529q99 0 180 -72.5t81 -196.5t-81 -197t-180 -73t-180 73t-81 197t81 196.5t180 72.5zM296 502
q-40 0 -79.5 -15t-74.5 -44t-56.5 -76.5t-21.5 -106.5q0 -114 72.5 -178.5t159.5 -64.5t159 64.5t72 178.5q0 59 -21.5 106.5t-56 76.5t-74 44t-79.5 15z" />
    <glyph glyph-name="odieresis" unicode="&#xf6;" horiz-adv-x="592" 
d="M208 700v-31h-30v31h30zM413 700v-31h-29v31h29zM296 529q99 0 180 -72.5t81 -196.5t-81 -197t-180 -73t-180 73t-81 197t81 196.5t180 72.5zM296 502q-40 0 -79.5 -15t-74.5 -44t-56.5 -76.5t-21.5 -106.5q0 -114 72.5 -178.5t159.5 -64.5t159 64.5t72 178.5
q0 59 -21.5 106.5t-56 76.5t-74 44t-79.5 15z" />
    <glyph glyph-name="divide" unicode="&#xf7;" horiz-adv-x="425" 
d="M198 394q-16 0 -18.5 2t-2.5 19t2.5 19t18.5 2t18.5 -2t2.5 -19t-2.5 -19t-18.5 -2zM380 295v-22h-335v22h335zM198 115q-16 0 -18.5 2.5t-2.5 18.5t2.5 18.5t18.5 2.5t18.5 -2.5t2.5 -18.5t-2.5 -18.5t-18.5 -2.5z" />
    <glyph glyph-name="oslash" unicode="&#xf8;" horiz-adv-x="592" 
d="M422 496q60 -33 97.5 -93.5t37.5 -142.5q0 -124 -81 -197t-180 -73q-52 0 -106 23l-30 -63h-29l36 75q-59 34 -95.5 94t-36.5 141q0 124 81 196.5t180 72.5q54 0 102 -22l34 71h29zM64 260q0 -74 31.5 -127t83.5 -83l207 433q-44 19 -90 19q-40 0 -79.5 -15t-74.5 -44
t-56.5 -76.5t-21.5 -106.5zM296 17q87 0 159 64.5t72 178.5q0 143 -117 211l-208 -433q46 -21 94 -21z" />
    <glyph glyph-name="ugrave" unicode="&#xf9;" horiz-adv-x="541" 
d="M169 700h33l78 -129h-18zM246 -8q-85 0 -143 56t-58 167v305h29v-309q0 -93 49 -142.5t124 -49.5q77 0 134.5 57t69.5 126v318h28v-520h-28v142q-10 -46 -66.5 -98t-138.5 -52z" />
    <glyph glyph-name="uacute" unicode="&#xfa;" horiz-adv-x="541" 
d="M372 700l-93 -129h-18l78 129h33zM246 -8q-85 0 -143 56t-58 167v305h29v-309q0 -93 49 -142.5t124 -49.5q77 0 134.5 57t69.5 126v318h28v-520h-28v142q-10 -46 -66.5 -98t-138.5 -52z" />
    <glyph glyph-name="ucircumflex" unicode="&#xfb;" horiz-adv-x="541" 
d="M290 700l104 -120h-24l-102 101l-103 -101h-25l104 120h46zM246 -8q-85 0 -143 56t-58 167v305h29v-309q0 -93 49 -142.5t124 -49.5q77 0 134.5 57t69.5 126v318h28v-520h-28v142q-10 -46 -66.5 -98t-138.5 -52z" />
    <glyph glyph-name="udieresis" unicode="&#xfc;" horiz-adv-x="541" 
d="M180 700v-31h-30v31h30zM385 700v-31h-29v31h29zM246 -8q-85 0 -143 56t-58 167v305h29v-309q0 -93 49 -142.5t124 -49.5q77 0 134.5 57t69.5 126v318h28v-520h-28v142q-10 -46 -66.5 -98t-138.5 -52z" />
    <glyph glyph-name="yacute" unicode="&#xfd;" horiz-adv-x="528" 
d="M368 700l-93 -129h-18l78 129h33zM473 520h30l-315 -710h-29l90 206l-224 504h30l209 -469z" />
    <glyph glyph-name="thorn" unicode="&#xfe;" 
d="M315 529q61 0 120 -29t101.5 -93t42.5 -148q0 -63 -24.5 -116t-64 -85.5t-85 -50t-90.5 -17.5q-71 0 -130.5 34.5t-94.5 103.5v-318h-28v343v367v187h28v-318q34 71 93.5 105.5t131.5 34.5zM315 17q40 0 80 15t75.5 44t57.5 76.5t22 106.5q0 114 -74 178.5t-161 64.5
q-56 0 -106 -25t-85 -82t-35 -136q0 -116 68.5 -179t157.5 -63z" />
    <glyph glyph-name="ydieresis" unicode="&#xff;" horiz-adv-x="528" 
d="M176 700v-31h-30v31h30zM381 700v-31h-29v31h29zM473 520h30l-315 -710h-29l90 206l-224 504h30l209 -469z" />
    <glyph glyph-name="Amacron" unicode="&#x100;" horiz-adv-x="682" 
d="M521 880v-27h-359v27h359zM631 0l-89 199h-402l-89 -199h-31l313 700h15l314 -700h-31zM152 227h378l-189 423z" />
    <glyph glyph-name="amacron" unicode="&#x101;" 
d="M504 700v-27h-359v27h359zM299 529q72 0 131.5 -34.5t93.5 -105.5v131h28v-520h-28v128q-35 -69 -94.5 -103.5t-130.5 -34.5q-45 0 -90.5 17.5t-85 50t-64 85.5t-24.5 116q0 84 42.5 148t101.5 93t120 29zM299 502q-87 0 -161 -64.5t-74 -178.5q0 -59 22 -106.5
t57.5 -76.5t75.5 -44t80 -15q89 0 157.5 63t68.5 179q0 79 -35 136t-85 82t-106 25z" />
    <glyph glyph-name="Abreve" unicode="&#x102;" horiz-adv-x="682" 
d="M341 752q-60 0 -95 39t-37 89h23q7 -42 34 -71t75 -29t74.5 29t32.5 71h24q-2 -49 -38.5 -88.5t-92.5 -39.5zM631 0l-89 199h-402l-89 -199h-31l313 700h15l314 -700h-31zM152 227h378l-189 423z" />
    <glyph glyph-name="abreve" unicode="&#x103;" 
d="M455 700q-2 -49 -38.5 -88.5t-92.5 -39.5q-60 0 -95 39t-37 89h23q7 -42 34 -71t75 -29t74.5 29t32.5 71h24zM299 529q72 0 131.5 -34.5t93.5 -105.5v131h28v-520h-28v128q-35 -69 -94.5 -103.5t-130.5 -34.5q-45 0 -90.5 17.5t-85 50t-64 85.5t-24.5 116q0 84 42.5 148
t101.5 93t120 29zM299 502q-87 0 -161 -64.5t-74 -178.5q0 -59 22 -106.5t57.5 -76.5t75.5 -44t80 -15q89 0 157.5 63t68.5 179q0 79 -35 136t-85 82t-106 25z" />
    <glyph glyph-name="Aogonek" unicode="&#x104;" horiz-adv-x="682" 
d="M533 -125q0 -31 25 -46t60 -6l7 -21q-37 -16 -78 2.5t-41 71.5q0 42 36.5 74t88.5 50l-89 199h-402l-89 -199h-31l313 700h15l314 -700q-70 -30 -99.5 -58.5t-29.5 -66.5zM152 227h378l-189 423z" />
    <glyph glyph-name="aogonek" unicode="&#x105;" 
d="M552 0q-71 -27 -97.5 -55t-26.5 -64q0 -34 23.5 -49.5t58.5 -7.5l8 -22q-23 -7 -49.5 -6.5t-48.5 22.5t-22 59q0 42 34.5 76.5t91.5 46.5v128q-35 -69 -94.5 -103.5t-130.5 -34.5q-45 0 -90.5 17.5t-85 50t-64 85.5t-24.5 116q0 84 42.5 148t101.5 93t120 29
q72 0 131.5 -34.5t93.5 -105.5v131h28v-520zM299 17q89 0 157.5 63t68.5 179q0 79 -35 136t-85 82t-106 25q-87 0 -161 -64.5t-74 -178.5q0 -59 22 -106.5t57.5 -76.5t75.5 -44t80 -15z" />
    <glyph glyph-name="Cacute" unicode="&#x106;" horiz-adv-x="664" 
d="M465 880l-93 -129h-18l78 129h33zM629 75q-102 -85 -231 -85q-135 0 -244 104t-109 256t109 256t244 104q127 0 229 -83l-20 -23q-90 76 -206 76q-80 0 -154.5 -40.5t-123.5 -118t-49 -171.5t49 -171.5t123.5 -118t154.5 -40.5q117 0 206 75z" />
    <glyph glyph-name="cacute" unicode="&#x107;" horiz-adv-x="548" 
d="M397 700l-93 -129h-18l78 129h33zM299 529q70 0 128.5 -33.5t90.5 -95.5l-27 -8q-28 53 -80 81.5t-113 28.5q-40 0 -80.5 -15t-75.5 -44t-56.5 -77t-21.5 -107q0 -114 73 -178t161 -64q61 0 113 28.5t80 81.5l27 -8q-32 -62 -90.5 -95.5t-128.5 -33.5q-47 0 -92.5 17.5
t-84.5 50t-63 85t-24 116.5q0 125 81.5 197.5t182.5 72.5z" />
    <glyph glyph-name="Cdotaccent" unicode="&#x10a;" horiz-adv-x="664" 
d="M375 880v-31h-30v31h30zM629 75q-102 -85 -231 -85q-135 0 -244 104t-109 256t109 256t244 104q127 0 229 -83l-20 -23q-90 76 -206 76q-80 0 -154.5 -40.5t-123.5 -118t-49 -171.5t49 -171.5t123.5 -118t154.5 -40.5q117 0 206 75z" />
    <glyph glyph-name="cdotaccent" unicode="&#x10b;" horiz-adv-x="548" 
d="M307 700v-31h-30v31h30zM299 529q70 0 128.5 -33.5t90.5 -95.5l-27 -8q-28 53 -80 81.5t-113 28.5q-40 0 -80.5 -15t-75.5 -44t-56.5 -77t-21.5 -107q0 -114 73 -178t161 -64q61 0 113 28.5t80 81.5l27 -8q-32 -62 -90.5 -95.5t-128.5 -33.5q-47 0 -92.5 17.5t-84.5 50
t-63 85t-24 116.5q0 125 81.5 197.5t182.5 72.5z" />
    <glyph glyph-name="Ccaron" unicode="&#x10c;" horiz-adv-x="664" 
d="M383 760h-46l-104 120h25l103 -101l102 101h24zM629 75q-102 -85 -231 -85q-135 0 -244 104t-109 256t109 256t244 104q127 0 229 -83l-20 -23q-90 76 -206 76q-80 0 -154.5 -40.5t-123.5 -118t-49 -171.5t49 -171.5t123.5 -118t154.5 -40.5q117 0 206 75z" />
    <glyph glyph-name="ccaron" unicode="&#x10d;" horiz-adv-x="548" 
d="M315 580h-46l-104 120h25l103 -101l102 101h24zM299 529q70 0 128.5 -33.5t90.5 -95.5l-27 -8q-28 53 -80 81.5t-113 28.5q-40 0 -80.5 -15t-75.5 -44t-56.5 -77t-21.5 -107q0 -114 73 -178t161 -64q61 0 113 28.5t80 81.5l27 -8q-32 -62 -90.5 -95.5t-128.5 -33.5
q-47 0 -92.5 17.5t-84.5 50t-63 85t-24 116.5q0 125 81.5 197.5t182.5 72.5z" />
    <glyph glyph-name="Dcaron" unicode="&#x10e;" horiz-adv-x="625" 
d="M339 760h-46l-104 120h25l103 -101l102 101h24zM232 700q155 0 254 -101t99 -252q0 -147 -99 -247t-254 -100h-172v700h172zM231 28q144 0 234.5 91.5t90.5 227.5q0 140 -90.5 232.5t-234.5 92.5h-142v-644h142z" />
    <glyph glyph-name="dcaron" unicode="&#x10f;" horiz-adv-x="676" 
d="M524 707h28v-347v-360h-28v128q-35 -69 -94.5 -103.5t-130.5 -34.5q-45 0 -90.5 17.5t-85 50t-64 85.5t-24.5 116q0 84 42.5 148t101.5 93t120 29q72 0 131.5 -34.5t93.5 -105.5v318zM643 700h33l-93 -129h-18zM299 17q89 0 157.5 63t68.5 179q0 79 -35 136t-85 82
t-106 25q-87 0 -161 -64.5t-74 -178.5q0 -59 22 -106.5t57.5 -76.5t75.5 -44t80 -15z" />
    <glyph glyph-name="Dcroat" unicode="&#x110;" horiz-adv-x="615" 
d="M223 700q155 0 254 -101t99 -252q0 -147 -99 -247t-254 -100h-172v341h-59v22h59v337h172zM222 28q144 0 234.5 91.5t90.5 227.5q0 140 -90.5 232.5t-234.5 92.5h-142v-309h222v-22h-222v-313h142z" />
    <glyph glyph-name="dcroat" unicode="&#x111;" horiz-adv-x="611" 
d="M611 629v-27h-59v-242v-360h-28v128q-35 -69 -94.5 -103.5t-130.5 -34.5q-45 0 -90.5 17.5t-85 50t-64 85.5t-24.5 116q0 84 42.5 148t101.5 93t120 29q72 0 131.5 -34.5t93.5 -105.5v213h-272v27h272v78h28v-78h59zM299 17q89 0 157.5 63t68.5 179q0 79 -35 136t-85 82
t-106 25q-87 0 -161 -64.5t-74 -178.5q0 -59 22 -106.5t57.5 -76.5t75.5 -44t80 -15z" />
    <glyph glyph-name="Emacron" unicode="&#x112;" horiz-adv-x="498" 
d="M439 880v-27h-359v27h359zM89 29h364v-29h-384h-9v700h29h355v-29h-355v-305h283v-29h-283v-308z" />
    <glyph glyph-name="emacron" unicode="&#x113;" horiz-adv-x="568" 
d="M454 700v-27h-359v27h359zM296 529q46 0 92 -18t85.5 -51t62 -89t18.5 -124h-490q5 -109 76.5 -169.5t165.5 -60.5q123 0 182 78l21 -16q-67 -89 -202 -89q-110 0 -191 71.5t-81 198.5q0 124 81 196.5t180 72.5zM296 502q-84 0 -155 -60.5t-77 -167.5h462q0 73 -38 126.5
t-88.5 77.5t-103.5 24z" />
    <glyph glyph-name="Edotaccent" unicode="&#x116;" horiz-adv-x="498" 
d="M273 880v-31h-30v31h30zM89 29h364v-29h-384h-9v700h29h355v-29h-355v-305h283v-29h-283v-308z" />
    <glyph glyph-name="edotaccent" unicode="&#x117;" horiz-adv-x="568" 
d="M288 700v-31h-30v31h30zM296 529q46 0 92 -18t85.5 -51t62 -89t18.5 -124h-490q5 -109 76.5 -169.5t165.5 -60.5q123 0 182 78l21 -16q-67 -89 -202 -89q-110 0 -191 71.5t-81 198.5q0 124 81 196.5t180 72.5zM296 502q-84 0 -155 -60.5t-77 -167.5h462q0 73 -38 126.5
t-88.5 77.5t-103.5 24z" />
    <glyph glyph-name="Eogonek" unicode="&#x118;" horiz-adv-x="498" 
d="M324 -125q0 -31 25 -46t60 -6l8 -21q-37 -16 -78.5 2.5t-41.5 71.5q0 42 37.5 74t90.5 50h-356h-9v700h29h355v-29h-355v-305h283v-29h-283v-308h364v-29h1q-70 -30 -100 -58.5t-30 -66.5z" />
    <glyph glyph-name="eogonek" unicode="&#x119;" horiz-adv-x="590" 
d="M296 529q46 0 92 -18t85.5 -51t62 -89t18.5 -124h-490q5 -109 76.5 -169.5t165.5 -60.5q123 0 182 78l21 -16q-46 -60 -119 -79q-71 -27 -97.5 -55t-26.5 -64q0 -34 23.5 -49.5t58.5 -7.5l8 -22q-23 -7 -49.5 -6.5t-48.5 22.5t-22 59q0 35 25.5 66.5t68.5 47.5
q-8 -1 -23 -1q-110 0 -191 71.5t-81 198.5q0 124 81 196.5t180 72.5zM296 502q-84 0 -155 -60.5t-77 -167.5h462q0 73 -38 126.5t-88.5 77.5t-103.5 24z" />
    <glyph glyph-name="Ecaron" unicode="&#x11a;" horiz-adv-x="498" 
d="M281 760h-46l-104 120h25l103 -101l102 101h24zM89 29h364v-29h-384h-9v700h29h355v-29h-355v-305h283v-29h-283v-308z" />
    <glyph glyph-name="ecaron" unicode="&#x11b;" horiz-adv-x="568" 
d="M296 580h-46l-104 120h25l103 -101l102 101h24zM296 529q46 0 92 -18t85.5 -51t62 -89t18.5 -124h-490q5 -109 76.5 -169.5t165.5 -60.5q123 0 182 78l21 -16q-67 -89 -202 -89q-110 0 -191 71.5t-81 198.5q0 124 81 196.5t180 72.5zM296 502q-84 0 -155 -60.5
t-77 -167.5h462q0 73 -38 126.5t-88.5 77.5t-103.5 24z" />
    <glyph glyph-name="Gbreve" unicode="&#x11e;" horiz-adv-x="771" 
d="M406 752q-60 0 -95 39t-37 89h23q7 -42 34 -71t75 -29t74.5 29t32.5 71h24q-2 -49 -38.5 -88.5t-92.5 -39.5zM726 335q1 -155 -94.5 -250t-233.5 -95t-245.5 103.5t-107.5 256.5q0 152 109 256t244 104q126 0 228 -83l-20 -23q-90 76 -205 76q-80 0 -154 -40.5
t-123.5 -118t-49.5 -171.5t48 -171.5t121.5 -118t154.5 -40.5q118 0 204.5 76.5t95.5 210.5h-238v28h266z" />
    <glyph glyph-name="gbreve" unicode="&#x11f;" 
d="M320 572q-60 0 -95 39t-37 89h23q7 -42 34 -71t75 -29t74.5 29t32.5 71h24q-2 -49 -38.5 -88.5t-92.5 -39.5zM524 520h28v-520q0 -56 -20 -97.5t-52.5 -64.5t-68 -33.5t-71.5 -10.5q-120 0 -168 48v30q18 -19 61 -34.5t107 -15.5q75 0 129.5 44.5t54.5 133.5v128
q-35 -69 -94.5 -103.5t-130.5 -34.5q-45 0 -90.5 17.5t-85 50t-64 85.5t-24.5 116q0 84 42.5 148t101.5 93t120 29q72 0 131.5 -34.5t93.5 -105.5v131zM299 17q89 0 157.5 63t68.5 179q0 79 -35 136t-85 82t-106 25q-87 0 -161 -64.5t-74 -178.5q0 -59 22 -106.5t57.5 -76.5
t75.5 -44t80 -15z" />
    <glyph glyph-name="Gdotaccent" unicode="&#x120;" horiz-adv-x="771" 
d="M420 880v-31h-30v31h30zM726 335q1 -155 -94.5 -250t-233.5 -95t-245.5 103.5t-107.5 256.5q0 152 109 256t244 104q126 0 228 -83l-20 -23q-90 76 -205 76q-80 0 -154 -40.5t-123.5 -118t-49.5 -171.5t48 -171.5t121.5 -118t154.5 -40.5q118 0 204.5 76.5t95.5 210.5
h-238v28h266z" />
    <glyph glyph-name="gdotaccent" unicode="&#x121;" 
d="M334 700v-31h-30v31h30zM524 520h28v-520q0 -56 -20 -97.5t-52.5 -64.5t-68 -33.5t-71.5 -10.5q-120 0 -168 48v30q18 -19 61 -34.5t107 -15.5q75 0 129.5 44.5t54.5 133.5v128q-35 -69 -94.5 -103.5t-130.5 -34.5q-45 0 -90.5 17.5t-85 50t-64 85.5t-24.5 116
q0 84 42.5 148t101.5 93t120 29q72 0 131.5 -34.5t93.5 -105.5v131zM299 17q89 0 157.5 63t68.5 179q0 79 -35 136t-85 82t-106 25q-87 0 -161 -64.5t-74 -178.5q0 -59 22 -106.5t57.5 -76.5t75.5 -44t80 -15z" />
    <glyph glyph-name="Gcommaaccent" unicode="&#x122;" horiz-adv-x="771" 
d="M726 335q1 -155 -94.5 -250t-233.5 -95t-245.5 103.5t-107.5 256.5q0 152 109 256t244 104q126 0 228 -83l-20 -23q-90 76 -205 76q-80 0 -154 -40.5t-123.5 -118t-49.5 -171.5t48 -171.5t121.5 -118t154.5 -40.5q118 0 204.5 76.5t95.5 210.5h-238v28h266zM298 -204
l74 166h43l-94 -166h-23z" />
    <glyph glyph-name="gcommaaccent" unicode="&#x123;" 
d="M376 802l-74 -166h-43l94 166h23zM524 520h28v-520q0 -56 -20 -97.5t-52.5 -64.5t-68 -33.5t-71.5 -10.5q-120 0 -168 48v30q18 -19 61 -34.5t107 -15.5q75 0 129.5 44.5t54.5 133.5v128q-35 -69 -94.5 -103.5t-130.5 -34.5q-45 0 -90.5 17.5t-85 50t-64 85.5t-24.5 116
q0 84 42.5 148t101.5 93t120 29q72 0 131.5 -34.5t93.5 -105.5v131zM299 17q89 0 157.5 63t68.5 179q0 79 -35 136t-85 82t-106 25q-87 0 -161 -64.5t-74 -178.5q0 -59 22 -106.5t57.5 -76.5t75.5 -44t80 -15z" />
    <glyph glyph-name="Hbar" unicode="&#x126;" horiz-adv-x="597" 
d="M508 700h29v-700h-29v326h-419v-326h-29v700h29v-177h419v177zM89 355h419v138h-419v-138z" />
    <glyph glyph-name="hbar" unicode="&#x127;" horiz-adv-x="552" 
d="M306 528q85 0 143 -56t58 -167v-305h-29v309q0 93 -49 142.5t-124 49.5q-77 0 -134.5 -57t-69.5 -126v-318h-28v586h-73v25h73v96h28v-96h118v-25h-118v-208q10 46 66.5 98t138.5 52z" />
    <glyph glyph-name="Imacron" unicode="&#x12a;" horiz-adv-x="149" 
d="M255 880v-27h-359v27h359zM89 700v-700h-29v700h29z" />
    <glyph glyph-name="imacron" unicode="&#x12b;" horiz-adv-x="152" 
d="M257 700v-27h-359v27h359zM90 520v-520h-28v520h28z" />
    <glyph glyph-name="Iogonek" unicode="&#x12e;" horiz-adv-x="147" 
d="M87 0q-70 -30 -99 -58.5t-29 -66.5q0 -31 25 -46t60 -6l8 -21q-37 -16 -78.5 2.5t-41.5 71.5q0 42 36.5 74t89.5 50v700h29v-700z" />
    <glyph glyph-name="iogonek" unicode="&#x12f;" horiz-adv-x="153" 
d="M91 700v-31h-30v31h30zM-38 -125q0 -31 25 -46t60 -6l8 -21q-37 -16 -78.5 2.5t-41.5 71.5q0 42 37.5 74t90.5 50h-1v520h28v-520h2q-70 -30 -100 -58.5t-30 -66.5z" />
    <glyph glyph-name="Idotaccent" unicode="&#x130;" horiz-adv-x="149" 
d="M89 880v-31h-30v31h30zM89 700v-700h-29v700h29z" />
    <glyph glyph-name="dotlessi" unicode="&#x131;" horiz-adv-x="152" 
d="M90 520v-520h-28v520h28z" />
    <glyph glyph-name="IJ" unicode="&#x132;" horiz-adv-x="595" 
d="M89 700v-700h-29v700h29zM535 700v-468q0 -130 -48 -187t-144 -57q-52 0 -97 25.5t-67 69.5l21 15q47 -82 144 -82q83 0 122.5 49.5t39.5 164.5v470h29z" />
    <glyph glyph-name="ij" unicode="&#x133;" horiz-adv-x="341" 
d="M90 707v-32h-28v32h28zM279 707v-32h-28v32h28zM90 520v-520h-28v520h28zM279 520v-589q0 -76 -26.5 -106.5t-77.5 -30.5q-50 0 -78 26v29q38 -27 81 -27q73 0 73 99v599h28z" />
    <glyph glyph-name="Kcommaaccent" unicode="&#x136;" horiz-adv-x="585" 
d="M224 368l336 -368h-37l-318 349l-116 -122v-227h-29v700h29v-434l412 434h38zM216 -204l74 166h43l-94 -166h-23z" />
    <glyph glyph-name="kcommaaccent" unicode="&#x137;" horiz-adv-x="510" 
d="M206 272l284 -272h-40l-262 253l-98 -104v-149h-28v158v549h28v-519l315 332h37zM157 -204l74 166h43l-94 -166h-23z" />
    <glyph glyph-name="Lacute" unicode="&#x139;" horiz-adv-x="476" 
d="M194 878l-93 -129h-18l78 129h33zM89 29h347v-29h-376v700h29v-671z" />
    <glyph glyph-name="lacute" unicode="&#x13a;" horiz-adv-x="152" 
d="M179 887l-93 -129h-18l78 129h33zM90 707v-707h-28v707h28z" />
    <glyph glyph-name="Lcommaaccent" unicode="&#x13b;" horiz-adv-x="476" 
d="M89 29h347v-29h-376v700h29v-671zM153 -204l74 166h43l-94 -166h-23z" />
    <glyph glyph-name="lcommaaccent" unicode="&#x13c;" horiz-adv-x="152" 
d="M90 707v-707h-28v707h28zM-22 -204l74 166h43l-94 -166h-23z" />
    <glyph glyph-name="Lcaron" unicode="&#x13d;" horiz-adv-x="476" 
d="M285 742l-82 -184h-20l65 184h37zM89 29h347v-29h-376v700h29v-671z" />
    <glyph glyph-name="lcaron" unicode="&#x13e;" horiz-adv-x="309" 
d="M90 707v-707h-28v707h28zM172 516l65 184h37l-82 -184h-20z" />
    <glyph glyph-name="Ldot" unicode="&#x13f;" horiz-adv-x="476" 
d="M89 29h347v-29h-376v700h29v-671zM266 342q-16 0 -18.5 2t-2.5 19t2.5 19t18.5 2t18.5 -2t2.5 -19t-2.5 -19t-18.5 -2z" />
    <glyph glyph-name="ldot" unicode="&#x140;" horiz-adv-x="232" 
d="M90 707v-707h-28v707h28zM183 340q-17 0 -19 2t-2 19t2 19t19 2t19 -2t2 -19t-2 -19t-19 -2z" />
    <glyph glyph-name="Lslash" unicode="&#x141;" horiz-adv-x="532" 
d="M145 29h347v-29h-376v255l-61 -64v48l61 64v397h29v-366l164 173h1v-48l-165 -173v-257z" />
    <glyph glyph-name="lslash" unicode="&#x142;" horiz-adv-x="321" 
d="M291 510v-48l-117 -123v-339h-28v309l-116 -122v49l116 122v349h28v-319l116 122h1z" />
    <glyph glyph-name="Nacute" unicode="&#x143;" horiz-adv-x="662" 
d="M435 880l-93 -129h-18l78 129h33zM573 700h29v-700h-22l-491 645v-645h-29v700h22l491 -647v647z" />
    <glyph glyph-name="nacute" unicode="&#x144;" horiz-adv-x="541" 
d="M377 700l-93 -129h-18l78 129h33zM295 528q85 0 143 -56t58 -167v-305h-29v309q0 93 -49 142.5t-124 49.5q-77 0 -134.5 -57t-69.5 -126v-318h-28v520h28v-142q10 46 66.5 98t138.5 52z" />
    <glyph glyph-name="Ncommaaccent" unicode="&#x145;" horiz-adv-x="662" 
d="M573 700h29v-700h-22l-491 645v-645h-29v700h22l491 -647v647zM234 -204l74 166h43l-94 -166h-23z" />
    <glyph glyph-name="ncommaaccent" unicode="&#x146;" horiz-adv-x="541" 
d="M295 528q85 0 143 -56t58 -167v-305h-29v309q0 93 -49 142.5t-124 49.5q-77 0 -134.5 -57t-69.5 -126v-318h-28v520h28v-142q10 46 66.5 98t138.5 52zM176 -204l74 166h43l-94 -166h-23z" />
    <glyph glyph-name="Ncaron" unicode="&#x147;" horiz-adv-x="662" 
d="M353 760h-46l-104 120h25l103 -101l102 101h24zM573 700h29v-700h-22l-491 645v-645h-29v700h22l491 -647v647z" />
    <glyph glyph-name="ncaron" unicode="&#x148;" horiz-adv-x="541" 
d="M295 580h-46l-104 120h25l103 -101l102 101h24zM295 528q85 0 143 -56t58 -167v-305h-29v309q0 93 -49 142.5t-124 49.5q-77 0 -134.5 -57t-69.5 -126v-318h-28v520h28v-142q10 46 66.5 98t138.5 52z" />
    <glyph glyph-name="Eng" unicode="&#x14a;" horiz-adv-x="662" 
d="M574 700h28v-663v-3q0 -130 -48 -187t-144 -57q-52 0 -97 25.5t-67 69.5l21 15q47 -82 144 -82q78 0 118 44.5t44 147.5l-484 633v-643h-29v700h22l491 -646v448h1v198z" />
    <glyph glyph-name="eng" unicode="&#x14b;" horiz-adv-x="541" 
d="M295 528q85 0 143 -56t58 -167v-305v-69q0 -76 -26.5 -106.5t-78.5 -30.5q-49 0 -77 26v29q38 -27 80 -27q73 0 73 99v132v256q0 93 -49 142.5t-124 49.5q-77 0 -134.5 -57t-69.5 -126v-318h-28v520h28v-142q10 46 66.5 98t138.5 52z" />
    <glyph glyph-name="Omacron" unicode="&#x14c;" horiz-adv-x="797" 
d="M579 880v-27h-359v27h359zM398 710q135 0 244.5 -104t109.5 -256t-109.5 -256t-244.5 -104t-244 104t-109 256t109 256t244 104zM398 20q58 0 116 24.5t104.5 66.5t75.5 105t29 134t-29 134t-75.5 105t-104.5 66.5t-116 24.5t-115.5 -24.5t-104 -66.5t-75.5 -105
t-29 -134t29 -134t75.5 -105t104 -66.5t115.5 -24.5z" />
    <glyph glyph-name="omacron" unicode="&#x14d;" horiz-adv-x="592" 
d="M476 700v-27h-359v27h359zM296 529q99 0 180 -72.5t81 -196.5t-81 -197t-180 -73t-180 73t-81 197t81 196.5t180 72.5zM296 502q-40 0 -79.5 -15t-74.5 -44t-56.5 -76.5t-21.5 -106.5q0 -114 72.5 -178.5t159.5 -64.5t159 64.5t72 178.5q0 59 -21.5 106.5t-56 76.5
t-74 44t-79.5 15z" />
    <glyph glyph-name="Ohungarumlaut" unicode="&#x150;" horiz-adv-x="797" 
d="M383 880l-93 -129h-18l78 129h33zM514 880l-93 -129h-18l78 129h33zM398 710q135 0 244.5 -104t109.5 -256t-109.5 -256t-244.5 -104t-244 104t-109 256t109 256t244 104zM398 20q58 0 116 24.5t104.5 66.5t75.5 105t29 134t-29 134t-75.5 105t-104.5 66.5t-116 24.5
t-115.5 -24.5t-104 -66.5t-75.5 -105t-29 -134t29 -134t75.5 -105t104 -66.5t115.5 -24.5z" />
    <glyph glyph-name="ohungarumlaut" unicode="&#x151;" horiz-adv-x="592" 
d="M280 700l-93 -129h-18l78 129h33zM411 700l-93 -129h-18l78 129h33zM296 529q99 0 180 -72.5t81 -196.5t-81 -197t-180 -73t-180 73t-81 197t81 196.5t180 72.5zM296 502q-40 0 -79.5 -15t-74.5 -44t-56.5 -76.5t-21.5 -106.5q0 -114 72.5 -178.5t159.5 -64.5t159 64.5
t72 178.5q0 59 -21.5 106.5t-56 76.5t-74 44t-79.5 15z" />
    <glyph glyph-name="OE" unicode="&#x152;" horiz-adv-x="1157" 
d="M748 29h364v-29h-384h-9v201q-44 -95 -134 -153t-187 -58q-135 0 -244 104t-109 256t109 256t244 104q97 0 187 -58t134 -153v201h29h355v-29h-355v-267q2 -14 4 -38h279v-29h-279q-2 -26 -4 -41v-267zM398 20q110 0 206 78.5t115 200.5v102q-19 122 -115 200.5
t-206 78.5q-58 0 -115.5 -24.5t-104 -66.5t-75.5 -105t-29 -134t29 -134t75.5 -105t104 -66.5t115.5 -24.5z" />
    <glyph glyph-name="oe" unicode="&#x153;" horiz-adv-x="1082" 
d="M1046 247h-489v-5q6 -107 77 -166t164 -59q123 0 182 78l21 -16q-67 -89 -202 -89q-86 0 -158 46t-99 129q-28 -83 -99 -129t-147 -46q-99 0 -180 73t-81 197t81 196.5t180 72.5q76 0 147 -46t99 -129q28 83 99 129t147 46q46 0 92 -18t85.5 -51t62 -89t18.5 -124z
M296 17q87 0 159 64.5t72 178.5q0 59 -21.5 106.5t-56 76.5t-74 44t-79.5 15t-79.5 -15t-74.5 -44t-56.5 -76.5t-21.5 -106.5q0 -114 72.5 -178.5t159.5 -64.5zM788 502q-52 0 -101.5 -23.5t-87.5 -76.5t-42 -124v-4h461q0 73 -38 126.5t-88.5 77.5t-103.5 24z" />
    <glyph glyph-name="Racute" unicode="&#x154;" horiz-adv-x="573" 
d="M397 880l-93 -129h-18l78 129h33zM543 0h-36l-204 269q-10 -1 -30 -1h-184v-268h-29v700h213q113 0 176.5 -61t63.5 -154q0 -80 -46.5 -138t-131.5 -74zM89 298h188q95 0 151 51t56 136q0 87 -56 136.5t-151 49.5h-188v-373z" />
    <glyph glyph-name="racute" unicode="&#x155;" horiz-adv-x="339" 
d="M275 700l-93 -129h-18l78 129h33zM295 528q10 0 14 -1v-26q-5 1 -15 1q-78 0 -134 -54t-70 -150v-298h-28v520h28v-154q5 62 63 112t142 50z" />
    <glyph glyph-name="Rcommaaccent" unicode="&#x156;" horiz-adv-x="573" 
d="M335 273l208 -273h-36l-204 269q-10 -1 -30 -1h-184v-268h-29v700h213q113 0 176.5 -61t63.5 -154q0 -80 -46.5 -138t-131.5 -74zM89 298h188q95 0 151 51t56 136q0 87 -56 136.5t-151 49.5h-188v-373zM191 -204l74 166h43l-94 -166h-23z" />
    <glyph glyph-name="rcommaaccent" unicode="&#x157;" horiz-adv-x="339" 
d="M295 528q10 0 14 -1v-26q-5 1 -15 1q-78 0 -134 -54t-70 -150v-298h-28v520h28v-154q5 62 63 112t142 50zM-20 -204l74 166h43l-94 -166h-23z" />
    <glyph glyph-name="Rcaron" unicode="&#x158;" horiz-adv-x="573" 
d="M315 760h-46l-104 120h25l103 -101l102 101h24zM543 0h-36l-204 269q-10 -1 -30 -1h-184v-268h-29v700h213q113 0 176.5 -61t63.5 -154q0 -80 -46.5 -138t-131.5 -74zM89 298h188q95 0 151 51t56 136q0 87 -56 136.5t-151 49.5h-188v-373z" />
    <glyph glyph-name="rcaron" unicode="&#x159;" horiz-adv-x="339" 
d="M193 580h-46l-104 120h25l103 -101l102 101h24zM295 528q10 0 14 -1v-26q-5 1 -15 1q-78 0 -134 -54t-70 -150v-298h-28v520h28v-154q5 62 63 112t142 50z" />
    <glyph glyph-name="Sacute" unicode="&#x15a;" horiz-adv-x="519" 
d="M366 880l-93 -129h-18l78 129h33zM262 712q72 0 128.5 -43t75.5 -106l-24 -9q-22 58 -69 94t-111 36q-74 0 -121 -38.5t-47 -98.5q0 -101 142 -157l53 -20q38 -16 60 -26t51.5 -28.5t45 -37.5t27 -48.5t11.5 -65.5q0 -76 -64 -127.5t-153 -51.5q-85 0 -150.5 47.5
t-81.5 123.5l28 9q18 -70 73.5 -111t130.5 -41q76 0 132 43.5t56 108.5q0 38 -12.5 66.5t-39 49t-51 33t-64.5 27.5l-60 24q-163 64 -163 181q0 71 54.5 118.5t142.5 47.5z" />
    <glyph glyph-name="sacute" unicode="&#x15b;" horiz-adv-x="395" 
d="M297 700l-93 -129h-18l78 129h33zM318 420q-41 83 -130 83q-51 0 -82.5 -28t-31.5 -70q0 -75 97 -110l42 -15q78 -27 115 -60t37 -91q0 -66 -51 -102.5t-115 -36.5q-65 0 -113.5 35.5t-60.5 97.5l25 6q14 -54 55 -83t94 -29q54 0 96 28.5t42 80.5q0 49 -30 77t-91 49
l-56 20q-114 39 -114 132q0 53 40.5 89t102.5 36q53 0 92.5 -26.5t59.5 -72.5z" />
    <glyph glyph-name="Scedilla" unicode="&#x15e;" horiz-adv-x="519" 
d="M484 164q0 -74 -61.5 -125.5t-148.5 -53.5l-30 -33q35 2 60 -20.5t25 -59.5q0 -44 -40.5 -67.5t-95.5 -13.5l10 22q42 -6 68.5 12.5t26.5 46.5q0 31 -24.5 47t-54.5 2l-14 17l42 48q-79 6 -137.5 52.5t-74.5 117.5l28 9q18 -70 73.5 -111t130.5 -41q76 0 132 43.5
t56 108.5q0 38 -12.5 66.5t-39 49t-51 33t-64.5 27.5l-60 24q-163 64 -163 181q0 71 54.5 118.5t142.5 47.5q72 0 128.5 -43t75.5 -106l-24 -9q-22 58 -69 94t-111 36q-74 0 -121 -38.5t-47 -98.5q0 -101 142 -157l53 -20q38 -16 60 -26t51.5 -28.5t45 -37.5t27 -48.5
t11.5 -65.5z" />
    <glyph glyph-name="scedilla" unicode="&#x15f;" horiz-adv-x="395" 
d="M365 129q0 -65 -50.5 -101.5t-113.5 -37.5l-36 -39q35 2 60 -20.5t25 -59.5q0 -44 -40.5 -67.5t-95.5 -13.5l10 22q42 -6 68.5 12.5t26.5 46.5q0 31 -24.5 47t-54.5 2l-14 17l47 54q-56 7 -96.5 41.5t-51.5 90.5l25 6q14 -54 55 -83t94 -29q54 0 96 28.5t42 80.5
q0 49 -30 77t-91 49l-56 20q-114 39 -114 132q0 53 40.5 89t102.5 36q53 0 92.5 -26.5t59.5 -72.5l-23 -10q-41 83 -130 83q-51 0 -82.5 -28t-31.5 -70q0 -75 97 -110l42 -15q78 -27 115 -60t37 -91z" />
    <glyph glyph-name="Scaron" unicode="&#x160;" horiz-adv-x="519" 
d="M284 760h-46l-104 120h25l103 -101l102 101h24zM262 712q72 0 128.5 -43t75.5 -106l-24 -9q-22 58 -69 94t-111 36q-74 0 -121 -38.5t-47 -98.5q0 -101 142 -157l53 -20q38 -16 60 -26t51.5 -28.5t45 -37.5t27 -48.5t11.5 -65.5q0 -76 -64 -127.5t-153 -51.5
q-85 0 -150.5 47.5t-81.5 123.5l28 9q18 -70 73.5 -111t130.5 -41q76 0 132 43.5t56 108.5q0 38 -12.5 66.5t-39 49t-51 33t-64.5 27.5l-60 24q-163 64 -163 181q0 71 54.5 118.5t142.5 47.5z" />
    <glyph glyph-name="scaron" unicode="&#x161;" horiz-adv-x="395" 
d="M215 580h-46l-104 120h25l103 -101l102 101h24zM318 420q-41 83 -130 83q-51 0 -82.5 -28t-31.5 -70q0 -75 97 -110l42 -15q78 -27 115 -60t37 -91q0 -66 -51 -102.5t-115 -36.5q-65 0 -113.5 35.5t-60.5 97.5l25 6q14 -54 55 -83t94 -29q54 0 96 28.5t42 80.5
q0 49 -30 77t-91 49l-56 20q-114 39 -114 132q0 53 40.5 89t102.5 36q53 0 92.5 -26.5t59.5 -72.5z" />
    <glyph glyph-name="uni0162" unicode="&#x162;" horiz-adv-x="532" 
d="M281 0h-1l-44 -48q35 2 60 -20.5t25 -59.5q0 -44 -40.5 -67.5t-95.5 -13.5l10 22q42 -6 68.5 12.5t26.5 46.5q0 31 -24.5 47t-54.5 2l-14 17l54 62h1v671h-212v29h452v-29h-211v-671z" />
    <glyph glyph-name="uni0163" unicode="&#x163;" horiz-adv-x="273" 
d="M238 493h-109v-424q0 -49 41 -49q29 0 65 21v-28q-30 -16 -54 -18l-39 -43q35 2 60 -20.5t25 -59.5q0 -44 -40.5 -67.5t-95.5 -13.5l10 22q42 -6 68.5 12.5t26.5 46.5q0 31 -24.5 47t-54.5 2l-14 17l49 57q-21 3 -36 19.5t-15 43.5v435h-71v27h71v122h28v-122h109v-27z
" />
    <glyph glyph-name="Tcaron" unicode="&#x164;" horiz-adv-x="532" 
d="M288 760h-46l-104 120h25l103 -101l102 101h24zM492 700v-29h-211v-671h-29v671h-212v29h452z" />
    <glyph glyph-name="tcaron" unicode="&#x165;" horiz-adv-x="323" 
d="M291 701l-93 -129h-18l78 129h33zM129 642v-122h109v-27h-109v-424q0 -49 41 -49q29 0 65 21v-28q-35 -19 -73 -19q-25 0 -43 17t-18 47v435h-71v27h71v122h28z" />
    <glyph glyph-name="Tbar" unicode="&#x166;" horiz-adv-x="532" 
d="M492 671h-211v-148h165v-27h-165v-496h-29v496h-165v27h165v148h-212v29h452v-29z" />
    <glyph glyph-name="tbar" unicode="&#x167;" horiz-adv-x="273" 
d="M238 493h-109v-85h109v-27h-109v-312q0 -49 41 -49q29 0 65 21v-28q-35 -19 -73 -19q-25 0 -43 17t-18 47v323h-71v27h71v85h-71v27h71v122h28v-122h109v-27z" />
    <glyph glyph-name="Umacron" unicode="&#x16a;" horiz-adv-x="599" 
d="M492 880v-27h-359v27h359zM510 700h29v-446q0 -127 -66.5 -198t-173.5 -71q-106 0 -172.5 71t-66.5 198v446h29v-445q0 -114 57.5 -177t152.5 -63t153 63t58 177v445z" />
    <glyph glyph-name="umacron" unicode="&#x16b;" horiz-adv-x="541" 
d="M448 700v-27h-359v27h359zM246 -8q-85 0 -143 56t-58 167v305h29v-309q0 -93 49 -142.5t124 -49.5q77 0 134.5 57t69.5 126v318h28v-520h-28v142q-10 -46 -66.5 -98t-138.5 -52z" />
    <glyph glyph-name="Ubreve" unicode="&#x16c;" horiz-adv-x="599" 
d="M443 880q-2 -49 -38.5 -88.5t-92.5 -39.5q-60 0 -95 39t-37 89h23q7 -42 34 -71t75 -29t74.5 29t32.5 71h24zM510 700h29v-446q0 -127 -66.5 -198t-173.5 -71q-106 0 -172.5 71t-66.5 198v446h29v-445q0 -114 57.5 -177t152.5 -63t153 63t58 177v445z" />
    <glyph glyph-name="ubreve" unicode="&#x16d;" horiz-adv-x="541" 
d="M399 700q-2 -49 -38.5 -88.5t-92.5 -39.5q-60 0 -95 39t-37 89h23q7 -42 34 -71t75 -29t74.5 29t32.5 71h24zM246 -8q-85 0 -143 56t-58 167v305h29v-309q0 -93 49 -142.5t124 -49.5q77 0 134.5 57t69.5 126v318h28v-520h-28v142q-10 -46 -66.5 -98t-138.5 -52z" />
    <glyph glyph-name="Uring" unicode="&#x16e;" horiz-adv-x="599" 
d="M313 928q29 0 50.5 -21t21.5 -50t-21.5 -50.5t-50.5 -21.5q-31 0 -52 21.5t-21 50.5t21 50t52 21zM313 902q-19 0 -32.5 -13.5t-13.5 -31.5q0 -19 13.5 -32.5t32.5 -13.5t32 13.5t13 32.5q0 18 -13 31.5t-32 13.5zM510 700h29v-446q0 -127 -66.5 -198t-173.5 -71
q-106 0 -172.5 71t-66.5 198v446h29v-445q0 -114 57.5 -177t152.5 -63t153 63t58 177v445z" />
    <glyph glyph-name="uring" unicode="&#x16f;" horiz-adv-x="541" 
d="M269 748q29 0 50.5 -21t21.5 -50t-21.5 -50.5t-50.5 -21.5q-31 0 -52 21.5t-21 50.5t21 50t52 21zM269 722q-19 0 -32.5 -13.5t-13.5 -31.5q0 -19 13.5 -32.5t32.5 -13.5t32 13.5t13 32.5q0 18 -13 31.5t-32 13.5zM246 -8q-85 0 -143 56t-58 167v305h29v-309
q0 -93 49 -142.5t124 -49.5q77 0 134.5 57t69.5 126v318h28v-520h-28v142q-10 -46 -66.5 -98t-138.5 -52z" />
    <glyph glyph-name="Uhungarumlaut" unicode="&#x170;" horiz-adv-x="597" 
d="M296 880l-93 -129h-18l78 129h33zM427 880l-93 -129h-18l78 129h33zM510 700h29v-446q0 -127 -66.5 -198t-173.5 -71q-106 0 -172.5 71t-66.5 198v446h29v-445q0 -114 57.5 -177t152.5 -63t153 63t58 177v445z" />
    <glyph glyph-name="uhungarumlaut" unicode="&#x171;" horiz-adv-x="541" 
d="M252 700l-93 -129h-18l78 129h33zM383 700l-93 -129h-18l78 129h33zM246 -8q-85 0 -143 56t-58 167v305h29v-309q0 -93 49 -142.5t124 -49.5q77 0 134.5 57t69.5 126v318h28v-520h-28v142q-10 -46 -66.5 -98t-138.5 -52z" />
    <glyph glyph-name="Uogonek" unicode="&#x172;" horiz-adv-x="599" 
d="M510 700h29v-446q0 -108 -49 -176t-132 -87q-64 -28 -91.5 -56t-27.5 -64q0 -31 25 -46t60 -6l8 -21q-37 -16 -78.5 2.5t-41.5 71.5q0 36 28 65t72 48h-13q-106 0 -172.5 71t-66.5 198v446h29v-445q0 -114 57.5 -177t152.5 -63t153 63t58 177v445z" />
    <glyph glyph-name="uogonek" unicode="&#x173;" horiz-adv-x="557" 
d="M351 -129q0 -33 25.5 -48t60.5 -7l8 -14q-23 -7 -49.5 -7.5t-48.5 20.5t-22 58q0 40 34.5 73.5t92.5 53.5h-1v142q-10 -46 -66.5 -98t-138.5 -52q-85 0 -143 56t-58 167v305h29v-309q0 -93 49 -142.5t124 -49.5q77 0 134.5 57t69.5 126v318h28v-520h2q-74 -32 -102 -61
t-28 -68z" />
    <glyph glyph-name="Wcircumflex" unicode="&#x174;" horiz-adv-x="963" 
d="M504 880l104 -120h-24l-102 101l-103 -101h-25l104 120h46zM933 700l-224 -700h-10l-217 636l-218 -636h-10l-224 700h27l203 -626l217 626h9l218 -626l202 626h27z" />
    <glyph glyph-name="wcircumflex" unicode="&#x175;" horiz-adv-x="912" 
d="M457 681l-103 -101h-25l104 120h46l104 -120h-24zM858 520h29l-209 -520h-14l-208 485l-207 -485h-14l-210 520h30l188 -469l198 469h30l199 -469z" />
    <glyph glyph-name="Ycircumflex" unicode="&#x176;" horiz-adv-x="602" 
d="M323 880l104 -120h-24l-102 101l-103 -101h-25l104 120h46zM572 700l-257 -356v-344h-29v344l-256 356h35l236 -328l236 328h35z" />
    <glyph glyph-name="ycircumflex" unicode="&#x177;" horiz-adv-x="528" 
d="M264 681l-103 -101h-25l104 120h46l104 -120h-24zM473 520h30l-315 -710h-29l90 206l-224 504h30l209 -469z" />
    <glyph glyph-name="Ydieresis" unicode="&#x178;" horiz-adv-x="602" 
d="M213 880v-31h-30v31h30zM418 880v-31h-29v31h29zM572 700l-257 -356v-344h-29v344l-256 356h35l236 -328l236 328h35z" />
    <glyph glyph-name="Zacute" unicode="&#x179;" horiz-adv-x="591" 
d="M399 880l-93 -129h-18l78 129h33zM552 700l-463 -672h467v-28h-521l463 673h-435v27h489z" />
    <glyph glyph-name="zacute" unicode="&#x17a;" horiz-adv-x="488" 
d="M353 700l-93 -129h-18l78 129h33zM463 520l-382 -492h377v-28h-433l382 493h-351v27h407z" />
    <glyph glyph-name="Zdotaccent" unicode="&#x17b;" horiz-adv-x="591" 
d="M309 880v-31h-30v31h30zM552 700l-463 -672h467v-28h-521l463 673h-435v27h489z" />
    <glyph glyph-name="zdotaccent" unicode="&#x17c;" horiz-adv-x="488" 
d="M263 700v-31h-30v31h30zM463 520l-382 -492h377v-28h-433l382 493h-351v27h407z" />
    <glyph glyph-name="Zcaron" unicode="&#x17d;" horiz-adv-x="591" 
d="M317 760h-46l-104 120h25l103 -101l102 101h24zM552 700l-463 -672h467v-28h-521l463 673h-435v27h489z" />
    <glyph glyph-name="zcaron" unicode="&#x17e;" horiz-adv-x="488" 
d="M271 580h-46l-104 120h25l103 -101l102 101h24zM463 520l-382 -492h377v-28h-433l382 493h-351v27h407z" />
    <glyph glyph-name="florin" unicode="&#x192;" horiz-adv-x="278" 
d="M253 675q-54 0 -78 -23.5t-24 -90.5v-41h102v-28h-102v-531q0 -89 -33 -120t-98 -31v27q53 0 77.5 24.5t24.5 92.5v538h-87v28h87v34q0 88 32.5 118t98.5 30v-27z" />
    <glyph glyph-name="uni01CD" unicode="&#x1cd;" horiz-adv-x="682" 
d="M363 760h-46l-104 120h25l103 -101l102 101h24zM631 0l-89 199h-402l-89 -199h-31l313 700h15l314 -700h-31zM152 227h378l-189 423z" />
    <glyph glyph-name="uni01CE" unicode="&#x1ce;" 
d="M346 580h-46l-104 120h25l103 -101l102 101h24zM299 529q72 0 131.5 -34.5t93.5 -105.5v131h28v-520h-28v128q-35 -69 -94.5 -103.5t-130.5 -34.5q-45 0 -90.5 17.5t-85 50t-64 85.5t-24.5 116q0 84 42.5 148t101.5 93t120 29zM299 502q-87 0 -161 -64.5t-74 -178.5
q0 -59 22 -106.5t57.5 -76.5t75.5 -44t80 -15q89 0 157.5 63t68.5 179q0 79 -35 136t-85 82t-106 25z" />
    <glyph glyph-name="uni01CF" unicode="&#x1cf;" horiz-adv-x="149" 
d="M97 760h-46l-104 120h25l103 -101l102 101h24zM89 700v-700h-29v700h29z" />
    <glyph glyph-name="uni01D0" unicode="&#x1d0;" horiz-adv-x="152" 
d="M99 580h-46l-104 120h25l103 -101l102 101h24zM90 520v-520h-28v520h28z" />
    <glyph glyph-name="uni01D1" unicode="&#x1d1;" horiz-adv-x="797" 
d="M421 760h-46l-104 120h25l103 -101l102 101h24zM398 710q135 0 244.5 -104t109.5 -256t-109.5 -256t-244.5 -104t-244 104t-109 256t109 256t244 104zM398 20q58 0 116 24.5t104.5 66.5t75.5 105t29 134t-29 134t-75.5 105t-104.5 66.5t-116 24.5t-115.5 -24.5
t-104 -66.5t-75.5 -105t-29 -134t29 -134t75.5 -105t104 -66.5t115.5 -24.5z" />
    <glyph glyph-name="uni01D2" unicode="&#x1d2;" horiz-adv-x="592" 
d="M318 580h-46l-104 120h25l103 -101l102 101h24zM296 529q99 0 180 -72.5t81 -196.5t-81 -197t-180 -73t-180 73t-81 197t81 196.5t180 72.5zM296 502q-40 0 -79.5 -15t-74.5 -44t-56.5 -76.5t-21.5 -106.5q0 -114 72.5 -178.5t159.5 -64.5t159 64.5t72 178.5
q0 59 -21.5 106.5t-56 76.5t-74 44t-79.5 15z" />
    <glyph glyph-name="uni01D3" unicode="&#x1d3;" horiz-adv-x="599" 
d="M334 760h-46l-104 120h25l103 -101l102 101h24zM510 700h29v-446q0 -127 -66.5 -198t-173.5 -71q-106 0 -172.5 71t-66.5 198v446h29v-445q0 -114 57.5 -177t152.5 -63t153 63t58 177v445z" />
    <glyph glyph-name="uni01D4" unicode="&#x1d4;" horiz-adv-x="541" 
d="M290 580h-46l-104 120h25l103 -101l102 101h24zM246 -8q-85 0 -143 56t-58 167v305h29v-309q0 -93 49 -142.5t124 -49.5q77 0 134.5 57t69.5 126v318h28v-520h-28v142q-10 -46 -66.5 -98t-138.5 -52z" />
    <glyph glyph-name="uni01EA" unicode="&#x1ea;" horiz-adv-x="797" 
d="M475 0q-70 -30 -99.5 -58.5t-29.5 -66.5q0 -31 25 -46t60 -6l8 -21q-37 -16 -78.5 2.5t-41.5 71.5q0 36 29.5 66t74.5 49q-8 -1 -25 -1q-135 0 -244 104t-109 256t109 256t244 104t244.5 -104t109.5 -256q0 -129 -81 -225.5t-196 -124.5zM74 350q0 -71 29 -134t75.5 -105
t104 -66.5t115.5 -24.5t116 24.5t104.5 66.5t75.5 105t29 134t-29 134t-75.5 105t-104.5 66.5t-116 24.5t-115.5 -24.5t-104 -66.5t-75.5 -105t-29 -134z" />
    <glyph glyph-name="uni01EB" unicode="&#x1eb;" horiz-adv-x="592" 
d="M365 0q-70 -30 -100 -58.5t-30 -66.5q0 -31 25 -46t60 -6l8 -21q-37 -16 -78.5 2.5t-41.5 71.5q0 70 103 114h-15q-99 0 -180 73t-81 197t81 196.5t180 72.5t180 -72.5t81 -196.5q0 -101 -55.5 -169t-136.5 -91zM64 260q0 -114 72.5 -178.5t159.5 -64.5t159 64.5
t72 178.5q0 59 -21.5 106.5t-56 76.5t-74 44t-79.5 15t-79.5 -15t-74.5 -44t-56.5 -76.5t-21.5 -106.5z" />
    <glyph glyph-name="Scommaaccent" unicode="&#x218;" horiz-adv-x="519" 
d="M262 712q72 0 128.5 -43t75.5 -106l-24 -9q-22 58 -69 94t-111 36q-74 0 -121 -38.5t-47 -98.5q0 -101 142 -157l53 -20q38 -16 60 -26t51.5 -28.5t45 -37.5t27 -48.5t11.5 -65.5q0 -76 -64 -127.5t-153 -51.5q-85 0 -150.5 47.5t-81.5 123.5l28 9q18 -70 73.5 -111
t130.5 -41q76 0 132 43.5t56 108.5q0 38 -12.5 66.5t-39 49t-51 33t-64.5 27.5l-60 24q-163 64 -163 181q0 71 54.5 118.5t142.5 47.5zM173 -204l74 166h43l-94 -166h-23z" />
    <glyph glyph-name="scommaaccent" unicode="&#x219;" horiz-adv-x="395" 
d="M318 420q-41 83 -130 83q-51 0 -82.5 -28t-31.5 -70q0 -75 97 -110l42 -15q78 -27 115 -60t37 -91q0 -66 -51 -102.5t-115 -36.5q-65 0 -113.5 35.5t-60.5 97.5l25 6q14 -54 55 -83t94 -29q54 0 96 28.5t42 80.5q0 49 -30 77t-91 49l-56 20q-114 39 -114 132
q0 53 40.5 89t102.5 36q53 0 92.5 -26.5t59.5 -72.5zM93 -204l74 166h43l-94 -166h-23z" />
    <glyph glyph-name="uni021A" unicode="&#x21a;" horiz-adv-x="532" 
d="M40 700h452v-29h-211v-671h-29v671h-212v29zM169 -204l74 166h43l-94 -166h-23z" />
    <glyph glyph-name="uni021B" unicode="&#x21b;" horiz-adv-x="273" 
d="M238 493h-109v-424q0 -49 41 -49q29 0 65 21v-28q-35 -19 -73 -19q-25 0 -43 17t-18 47v435h-71v27h71v122h28v-122h109v-27zM71 -204l74 166h43l-94 -166h-23z" />
    <glyph glyph-name="uni0237" unicode="&#x237;" horiz-adv-x="189" 
d="M127 520v-589q0 -76 -26.5 -106.5t-77.5 -30.5q-50 0 -78 26v29q38 -27 81 -27q73 0 73 99v599h28z" />
    <glyph glyph-name="circumflex" unicode="&#x2c6;" horiz-adv-x="254" 
d="M150 700l104 -120h-24l-102 101l-103 -101h-25l104 120h46z" />
    <glyph glyph-name="caron" unicode="&#x2c7;" horiz-adv-x="254" 
d="M150 580h-46l-104 120h25l103 -101l102 101h24z" />
    <glyph glyph-name="breve" unicode="&#x2d8;" horiz-adv-x="263" 
d="M263 700q-2 -49 -38.5 -88.5t-92.5 -39.5q-60 0 -95 39t-37 89h23q7 -42 34 -71t75 -29t74.5 29t32.5 71h24z" />
    <glyph glyph-name="dotaccent" unicode="&#x2d9;" horiz-adv-x="48" 
d="M39 700v-31h-30v31h30z" />
    <glyph glyph-name="ring" unicode="&#x2da;" horiz-adv-x="145" 
d="M73 748q29 0 50.5 -21t21.5 -50t-21.5 -50.5t-50.5 -21.5q-31 0 -52 21.5t-21 50.5t21 50t52 21zM73 722q-19 0 -32.5 -13.5t-13.5 -31.5q0 -19 13.5 -32.5t32.5 -13.5t32 13.5t13 32.5q0 18 -13 31.5t-32 13.5z" />
    <glyph glyph-name="ogonek" unicode="&#x2db;" horiz-adv-x="157" 
d="M157 0q-70 -30 -100 -58.5t-30 -66.5q0 -31 25 -46t60 -6l8 -21q-37 -16 -78.5 2.5t-41.5 71.5q0 42 37.5 74t90.5 50h29z" />
    <glyph glyph-name="tilde" unicode="&#x2dc;" horiz-adv-x="317" 
d="M83 714q35 0 60 -17t45 -33.5t41 -16.5q33 0 48 16t15 37h25q0 -41 -25 -60t-58 -19q-41 0 -79.5 34.5t-68.5 34.5q-33 0 -48 -19t-14 -39h-24q0 40 27 61t56 21z" />
    <glyph glyph-name="hungarumlaut" unicode="&#x2dd;" horiz-adv-x="259" 
d="M111 700l-93 -129h-18l78 129h33zM242 700l-93 -129h-18l78 129h33z" />
    <glyph glyph-name="uni0326" unicode="&#x326;" horiz-adv-x="0" 
d="M-142 -215l74 166h43l-94 -166h-23z" />
    <glyph glyph-name="uni0394" unicode="&#x394;" horiz-adv-x="733" 
d="M375 700l308 -700h-633l308 700h17zM367 642l-271 -614h541z" />
    <glyph glyph-name="uni03A9" unicode="&#x3a9;" horiz-adv-x="784" 
d="M392 707q88 0 167.5 -44t129.5 -125.5t50 -180.5q0 -174 -177 -292v-37h152v-28h-184v74l49 36q132 100 132 247q0 137 -98.5 231.5t-220.5 94.5t-220.5 -94.5t-98.5 -231.5q0 -147 132 -247l49 -36v-74h-184v28h152v37q-177 118 -177 292q0 99 50 180.5t129.5 125.5
t167.5 44z" />
    <glyph glyph-name="uni03BC" unicode="&#x3bc;" horiz-adv-x="541" 
d="M451 520h28v-520h-28v142q-10 -46 -66.5 -98t-138.5 -52q-115 0 -168 88v-270h-28v346q-5 30 -5 59v305h29h4v-357q12 -70 58.5 -107t110.5 -37q77 0 134.5 57t69.5 126v318z" />
    <glyph glyph-name="pi" unicode="&#x3c0;" horiz-adv-x="622" 
d="M509 22q32 0 68 18v-28q-36 -18 -57 -18q-42 0 -62 22.5t-20 77.5v399h-259v-493h-29v493h-100v27h516v-27h-99v-416q0 -33 9.5 -44t32.5 -11z" />
    <glyph glyph-name="uni0401" unicode="&#x401;" horiz-adv-x="498" 
d="M171 880v-31h-30v31h30zM376 880v-31h-29v31h29zM89 29h364v-29h-384h-9v700h29h355v-29h-355v-305h283v-29h-283v-308z" />
    <glyph glyph-name="uni0403" unicode="&#x403;" horiz-adv-x="486" 
d="M359 880l-93 -129h-18l78 129h33zM451 700v-29h-362v-671h-29v700h29h362z" />
    <glyph glyph-name="uni0404" unicode="&#x404;" horiz-adv-x="664" 
d="M607 95l22 -20q-102 -85 -231 -85q-135 0 -244 104t-109 256t109 256t244 104q127 0 229 -83l-20 -23q-90 76 -206 76q-121 0 -221 -90t-106 -226h234v-27h-234q6 -136 106 -226.5t221 -90.5q117 0 206 75z" />
    <glyph glyph-name="uni0406" unicode="&#x406;" horiz-adv-x="149" 
d="M89 700v-700h-29v700h29z" />
    <glyph glyph-name="uni0407" unicode="&#x407;" horiz-adv-x="149" 
d="M-13 880v-31h-30v31h30zM192 880v-31h-29v31h29zM89 700v-700h-29v700h29z" />
    <glyph glyph-name="uni0410" unicode="&#x410;" horiz-adv-x="682" 
d="M631 0l-89 199h-402l-89 -199h-31l313 700h15l314 -700h-31zM152 227h378l-189 423z" />
    <glyph glyph-name="uni0411" unicode="&#x411;" horiz-adv-x="548" 
d="M273 432q114 0 177 -61t63 -156q0 -93 -63.5 -154t-176.5 -61h-213v700h29h389v-29h-389v-239h184zM277 29q95 0 151 49.5t56 136.5q0 85 -56 136t-151 51h-188v-373h188z" />
    <glyph glyph-name="uni0412" unicode="&#x412;" horiz-adv-x="549" 
d="M355 382q76 -15 117.5 -68.5t41.5 -118.5q0 -92 -63 -143.5t-189 -51.5h-202v700h220q94 0 144 -46.5t50 -117.5q0 -50 -28 -91.5t-91 -62.5zM280 672h-191v-276h191q72 0 119 39t47 100q0 63 -44 100t-122 37zM263 28q222 0 222 166q0 72 -54 123t-154 51h-188v-340h174
z" />
    <glyph glyph-name="uni0413" unicode="&#x413;" horiz-adv-x="486" 
d="M451 700v-29h-362v-671h-29v700h29h362z" />
    <glyph glyph-name="uni0414" unicode="&#x414;" horiz-adv-x="723" 
d="M618 29h65v-98h-29v69h-65h-520v-69h-29v98h34q36 60 44 169t8 362v140h492v-671zM101 29h488v642h-434v-111q0 -176 -2 -253t-14 -156.5t-38 -121.5z" />
    <glyph glyph-name="uni0415" unicode="&#x415;" horiz-adv-x="498" 
d="M89 29h364v-29h-384h-9v700h29h355v-29h-355v-305h283v-29h-283v-308z" />
    <glyph glyph-name="uni0416" unicode="&#x416;" horiz-adv-x="1021" 
d="M959 0l-318 349l-116 -122v-227h-29v227l-116 122l-318 -349h-37l336 368l-315 332h38l412 -434v434h29v-434l412 434h38l-315 -332l336 -368h-37z" />
    <glyph glyph-name="uni0417" unicode="&#x417;" horiz-adv-x="556" 
d="M275 707q88 0 147.5 -48.5t59.5 -120.5q0 -52 -35.5 -96.5t-110.5 -65.5q84 -16 132 -63.5t48 -118.5q0 -90 -69 -147t-172 -57q-104 0 -169.5 61t-65.5 150h29q0 -77 57.5 -130t148.5 -53q92 0 152 47t60 128t-66.5 122.5t-170.5 43.5v25q94 4 148.5 48t54.5 108
q0 60 -50.5 99.5t-127.5 39.5q-81 0 -132 -47.5t-51 -132.5h-29q0 93 60 150.5t152 57.5z" />
    <glyph glyph-name="uni0418" unicode="&#x418;" horiz-adv-x="662" 
d="M89 700v-647l491 647h22v-700h-29v645l-491 -645h-22v700h29z" />
    <glyph glyph-name="uni0419" unicode="&#x419;" horiz-adv-x="662" 
d="M482 880q-2 -49 -38.5 -88.5t-92.5 -39.5q-60 0 -95 39t-37 89h23q7 -42 34 -71t75 -29t74.5 29t32.5 71h24zM89 700v-647l491 647h22v-700h-29v645l-491 -645h-22v700h29z" />
    <glyph glyph-name="uni041A" unicode="&#x41a;" horiz-adv-x="585" 
d="M523 0l-318 349l-116 -122v-227h-29v700h29v-434l412 434h38l-315 -332l336 -368h-37z" />
    <glyph glyph-name="uni041B" unicode="&#x41b;" horiz-adv-x="684" 
d="M624 700v-700h-29v671h-431v-618q0 -29 -19 -44t-41 -15q-43 0 -79 18v28q40 -20 68 -20q23 0 32.5 8t9.5 37v635h489z" />
    <glyph glyph-name="uni041C" unicode="&#x41c;" horiz-adv-x="831" 
d="M771 700v-700h-29v635l-317 -635h-19l-317 636v-636h-29v700h29l327 -655l326 655h29z" />
    <glyph glyph-name="uni041D" unicode="&#x41d;" horiz-adv-x="597" 
d="M508 700h29v-700h-29v326h-419v-326h-29v700h29v-345h419v345z" />
    <glyph glyph-name="uni041E" unicode="&#x41e;" horiz-adv-x="797" 
d="M398 710q135 0 244.5 -104t109.5 -256t-109.5 -256t-244.5 -104t-244 104t-109 256t109 256t244 104zM398 20q58 0 116 24.5t104.5 66.5t75.5 105t29 134t-29 134t-75.5 105t-104.5 66.5t-116 24.5t-115.5 -24.5t-104 -66.5t-75.5 -105t-29 -134t29 -134t75.5 -105
t104 -66.5t115.5 -24.5z" />
    <glyph glyph-name="uni041F" unicode="&#x41f;" horiz-adv-x="594" 
d="M534 700v-700h-29v671h-416v-671h-29v700h29h445z" />
    <glyph glyph-name="uni0420" unicode="&#x420;" horiz-adv-x="548" 
d="M273 700q113 0 176.5 -61t63.5 -154q0 -95 -63 -156t-177 -61h-184v-268h-29v700h213zM277 298q95 0 151 51t56 136q0 87 -56 136.5t-151 49.5h-188v-373h188z" />
    <glyph glyph-name="uni0421" unicode="&#x421;" horiz-adv-x="664" 
d="M629 75q-102 -85 -231 -85q-135 0 -244 104t-109 256t109 256t244 104q127 0 229 -83l-20 -23q-90 76 -206 76q-80 0 -154.5 -40.5t-123.5 -118t-49 -171.5t49 -171.5t123.5 -118t154.5 -40.5q117 0 206 75z" />
    <glyph glyph-name="uni0422" unicode="&#x422;" horiz-adv-x="532" 
d="M492 700v-29h-211v-671h-29v671h-212v29h452z" />
    <glyph glyph-name="uni0423" unicode="&#x423;" horiz-adv-x="609" 
d="M547 700h32l-387 -700h-32l129 233l-259 467h32l243 -438z" />
    <glyph glyph-name="uni0424" unicode="&#x424;" horiz-adv-x="836" 
d="M458 635q157 0 247.5 -79.5t90.5 -205.5t-90.5 -205.5t-247.5 -79.5h-26v-65h-29v65h-25q-157 0 -247.5 79.5t-90.5 205.5t90.5 205.5t247.5 79.5h25v65h29v-65h26zM378 93h25v515h-25q-144 0 -226.5 -69t-82.5 -189t83 -188.5t226 -68.5zM458 93q143 0 226 68.5
t83 188.5t-82.5 189t-226.5 69h-26v-515h26z" />
    <glyph glyph-name="uni0425" unicode="&#x425;" horiz-adv-x="631" 
d="M596 0h-36l-244 339l-245 -339h-36l263 364l-243 336h36l225 -312l225 312h36l-243 -336z" />
    <glyph glyph-name="uni0426" unicode="&#x426;" horiz-adv-x="600" 
d="M561 29v-98h-27v69h-29h-416h-29v700h29v-671h416v671h29v-671h27z" />
    <glyph glyph-name="uni0427" unicode="&#x427;" horiz-adv-x="567" 
d="M478 700h29v-700h-29v371q-16 -40 -72 -84t-137 -44q-92 0 -153 50.5t-61 151.5v255h29v-255q0 -77 49 -124t132 -47q81 0 138 47.5t75 102.5v276z" />
    <glyph glyph-name="uni0428" unicode="&#x428;" horiz-adv-x="1039" 
d="M950 700h29v-700h-29h-428h-17h-428h-17v700h29v-671h416v671h29v-671h416v671z" />
    <glyph glyph-name="uni0429" unicode="&#x429;" horiz-adv-x="1045" 
d="M1007 29v-98h-28v69h-29h-428h-17h-428h-17v700h29v-671h416v671h29v-671h416v671h29v-671h28z" />
    <glyph glyph-name="uni042A" unicode="&#x42a;" horiz-adv-x="635" 
d="M361 432q114 0 177 -61t63 -156q0 -93 -63.5 -154t-176.5 -61h-213v671h-118v29h131h16v-268h184zM365 29q95 0 151 49.5t56 136.5q0 85 -56 136t-151 51h-188v-373h188z" />
    <glyph glyph-name="uni042B" unicode="&#x42b;" horiz-adv-x="706" 
d="M273 432q114 0 177 -61t63 -156q0 -93 -63.5 -154t-176.5 -61h-213v700h29v-268h184zM617 700h29v-700h-29v700zM277 29q95 0 151 49.5t56 136.5q0 85 -56 136t-151 51h-188v-373h188z" />
    <glyph glyph-name="uni042C" unicode="&#x42c;" horiz-adv-x="548" 
d="M273 432q114 0 177 -61t63 -156q0 -93 -63.5 -154t-176.5 -61h-213v700h29v-268h184zM277 29q95 0 151 49.5t56 136.5q0 85 -56 136t-151 51h-188v-373h188z" />
    <glyph glyph-name="uni042D" unicode="&#x42d;" horiz-adv-x="664" 
d="M276 710q135 0 244 -104t109 -256t-109 -256t-244 -104q-129 0 -231 85l22 20q89 -75 206 -75q121 0 221 90.5t106 226.5h-234v27h234q-6 136 -106 226t-221 90q-116 0 -206 -76l-20 23q102 83 229 83z" />
    <glyph glyph-name="uni042E" unicode="&#x42e;" horiz-adv-x="972" 
d="M574 710q135 0 244.5 -104t109.5 -256t-109.5 -256t-244.5 -104q-85 0 -164 43.5t-132.5 124.5t-56.5 179h-132v-337h-29v700h29v-336h132q4 98 57 179t132 124t164 43zM574 20q58 0 116 24.5t104.5 66.5t75.5 105t29 134t-29 134t-75.5 105t-104.5 66.5t-116 24.5
t-115.5 -24.5t-104 -66.5t-75.5 -105t-29 -134t29 -134t75.5 -105t104 -66.5t115.5 -24.5z" />
    <glyph glyph-name="uni042F" unicode="&#x42f;" horiz-adv-x="573" 
d="M300 700h213v-700h-29v268h-184q-20 0 -30 1l-204 -269h-36l208 273q-85 16 -131.5 74t-46.5 138q0 93 63.5 154t176.5 61zM296 298h188v373h-188q-95 0 -151 -49.5t-56 -136.5q0 -85 56 -136t151 -51z" />
    <glyph glyph-name="uni0430" unicode="&#x430;" 
d="M299 529q72 0 131.5 -34.5t93.5 -105.5v131h28v-520h-28v128q-35 -69 -94.5 -103.5t-130.5 -34.5q-45 0 -90.5 17.5t-85 50t-64 85.5t-24.5 116q0 84 42.5 148t101.5 93t120 29zM299 502q-87 0 -161 -64.5t-74 -178.5q0 -59 22 -106.5t57.5 -76.5t75.5 -44t80 -15
q89 0 157.5 63t68.5 179q0 79 -35 136t-85 82t-106 25z" />
    <glyph glyph-name="uni0431" unicode="&#x431;" 
d="M315 529q61 0 120 -29t101.5 -93t42.5 -148q0 -63 -24.5 -116t-64 -85.5t-85 -50t-90.5 -17.5q-71 0 -130.5 34.5t-94.5 103.5v-128h-28v520q0 94 43 137t146 43h118q27 0 36.5 0.5t20.5 5t17 14.5h28q-15 -30 -32.5 -38.5t-72.5 -8.5h-119q-87 0 -122 -34t-35 -119v-131
q34 71 93.5 105.5t131.5 34.5zM315 17q40 0 80 15t75.5 44t57.5 76.5t22 106.5q0 114 -74 178.5t-161 64.5q-56 0 -106 -25t-85 -82t-35 -136q0 -116 68.5 -179t157.5 -63z" />
    <glyph glyph-name="uni0432" unicode="&#x432;" horiz-adv-x="516" 
d="M367 287q58 -16 86 -54t28 -87q0 -146 -206 -146h-195h-18v520h28h185q84 0 125.5 -34.5t41.5 -95.5q0 -32 -19.5 -61t-55.5 -42zM275 492h-185v-193h188q137 0 137 97q0 45 -35.5 70.5t-104.5 25.5zM275 28q97 0 137.5 30t40.5 86q0 57 -41 92.5t-134 35.5h-188v-244
h185z" />
    <glyph glyph-name="uni0433" unicode="&#x433;" horiz-adv-x="459" 
d="M419 520v-27h-329v-493h-28v520h28h329z" />
    <glyph glyph-name="uni0434" unicode="&#x434;" horiz-adv-x="560" 
d="M493 28h37v-101h-29v73h-36h-407v-73h-28v101h26q29 42 36 123t7 269v100h29h365v-492zM82 28h383v465h-337v-73q0 -188 -7.5 -269t-38.5 -123z" />
    <glyph glyph-name="uni0435" unicode="&#x435;" horiz-adv-x="590" 
d="M296 529q46 0 92 -18t85.5 -51t62 -89t18.5 -124h-490q5 -109 76.5 -169.5t165.5 -60.5q123 0 182 78l21 -16q-67 -89 -202 -89q-110 0 -191 71.5t-81 198.5q0 124 81 196.5t180 72.5zM296 502q-84 0 -155 -60.5t-77 -167.5h462q0 73 -38 126.5t-88.5 77.5t-103.5 24z
" />
    <glyph glyph-name="uni0436" unicode="&#x436;" horiz-adv-x="830" 
d="M772 0l-261 264l-82 -81v-183h-28v183l-82 81l-261 -264h-38l282 282l-240 238h36l303 -303v303h28v-303l303 303h36l-240 -238l282 -282h-38z" />
    <glyph glyph-name="uni0437" unicode="&#x437;" horiz-adv-x="477" 
d="M235 529q75 0 121.5 -40t46.5 -96q0 -89 -107 -115q65 -8 103 -45.5t38 -88.5q0 -67 -58 -110.5t-140 -43.5q-85 0 -142 50t-57 123h29q0 -62 50 -104t120 -42q68 0 118 34t50 91q0 59 -52 89.5t-134 29.5v28q75 1 114 30.5t39 76.5q0 46 -38.5 76t-101.5 30
q-60 0 -102.5 -35t-42.5 -86h-28q0 62 50.5 105t123.5 43z" />
    <glyph glyph-name="uni0438" unicode="&#x438;" horiz-adv-x="545" 
d="M483 520v-520h-28v449l-388 -449h-5v520h28v-449l388 449h5z" />
    <glyph glyph-name="uni0439" unicode="&#x439;" horiz-adv-x="545" 
d="M404 700q-2 -49 -38.5 -88.5t-92.5 -39.5q-60 0 -95 39t-37 89h23q7 -42 34 -71t75 -29t74.5 29t32.5 71h24zM483 520v-520h-28v449l-388 -449h-5v520h28v-449l388 449h5z" />
    <glyph glyph-name="uni043A" unicode="&#x43a;" horiz-adv-x="491" 
d="M433 0l-261 264l-82 -81v-183h-28v520h28v-303l303 303h36l-240 -238l282 -282h-38z" />
    <glyph glyph-name="uni043B" unicode="&#x43b;" horiz-adv-x="595" 
d="M533 520v-520h-28v493h-344v-440q0 -30 -18 -44.5t-47 -14.5q-38 0 -71 18v27q42 -19 64 -19q24 0 34 9.5t10 37.5v453h400z" />
    <glyph glyph-name="uni043C" unicode="&#x43c;" horiz-adv-x="680" 
d="M618 520v-520h-28v425l-250 -425l-250 425v-425h-28v520h7l271 -469l271 469h7z" />
    <glyph glyph-name="uni043D" unicode="&#x43d;" horiz-adv-x="539" 
d="M449 520h28v-520h-28v244h-359v-244h-28v520h28v-248h359v248z" />
    <glyph glyph-name="uni043E" unicode="&#x43e;" horiz-adv-x="592" 
d="M296 529q99 0 180 -72.5t81 -196.5t-81 -197t-180 -73t-180 73t-81 197t81 196.5t180 72.5zM296 502q-40 0 -79.5 -15t-74.5 -44t-56.5 -76.5t-21.5 -106.5q0 -114 72.5 -178.5t159.5 -64.5t159 64.5t72 178.5q0 59 -21.5 106.5t-56 76.5t-74 44t-79.5 15z" />
    <glyph glyph-name="uni043F" unicode="&#x43f;" horiz-adv-x="526" 
d="M464 520v-520h-28v493h-346v-493h-28v520h28h374z" />
    <glyph glyph-name="uni0440" unicode="&#x440;" 
d="M315 529q61 0 120 -29t101.5 -93t42.5 -148q0 -63 -24.5 -116t-64 -85.5t-85 -50t-90.5 -17.5q-71 0 -130.5 34.5t-94.5 103.5v-318h-28v343v367h28v-131q34 71 93.5 105.5t131.5 34.5zM315 17q40 0 80 15t75.5 44t57.5 76.5t22 106.5q0 114 -74 178.5t-161 64.5
q-56 0 -106 -25t-85 -82t-35 -136q0 -116 68.5 -179t157.5 -63z" />
    <glyph glyph-name="uni0441" unicode="&#x441;" horiz-adv-x="548" 
d="M299 529q70 0 128.5 -33.5t90.5 -95.5l-27 -8q-28 53 -80 81.5t-113 28.5q-40 0 -80.5 -15t-75.5 -44t-56.5 -77t-21.5 -107q0 -114 73 -178t161 -64q61 0 113 28.5t80 81.5l27 -8q-32 -62 -90.5 -95.5t-128.5 -33.5q-47 0 -92.5 17.5t-84.5 50t-63 85t-24 116.5
q0 125 81.5 197.5t182.5 72.5z" />
    <glyph glyph-name="uni0442" unicode="&#x442;" horiz-adv-x="418" 
d="M388 520v-27h-164v-493h-29v493h-165v27h194h164z" />
    <glyph glyph-name="uni0443" unicode="&#x443;" horiz-adv-x="525" 
d="M473 520h30l-315 -710h-29l90 206l-224 504h30l209 -469z" />
    <glyph glyph-name="uni0444" unicode="&#x444;" horiz-adv-x="1076" 
d="M777 529q61 0 120 -29t101.5 -93t42.5 -148q0 -63 -24.5 -116t-64 -85.5t-85 -50t-90.5 -17.5q-71 0 -130.5 34.5t-94.5 103.5v-318h-28v321q-34 -71 -93.5 -105.5t-131.5 -34.5q-61 0 -120 29t-101.5 93t-42.5 148q0 63 24.5 116t64 85.5t85 50t90.5 17.5
q71 0 130.5 -34.5t94.5 -103.5v318h28v-321q34 71 93.5 105.5t131.5 34.5zM299 18q83 0 150 56.5t75 160.5v52q-4 53 -26 95.5t-54 68t-69 39t-76 13.5q-40 0 -80 -15t-75.5 -44t-57.5 -76.5t-22 -106.5q0 -114 74 -178.5t161 -64.5zM777 17q40 0 80 15t75.5 44t57.5 76.5
t22 106.5q0 114 -74 178.5t-161 64.5q-83 0 -150 -56.5t-75 -160.5v-52q4 -53 26 -95.5t54 -68t69 -39t76 -13.5z" />
    <glyph glyph-name="uni0445" unicode="&#x445;" horiz-adv-x="500" 
d="M434 0l-184 242l-184 -242h-36l204 265l-197 255h34l179 -232l180 232h33l-197 -255l204 -265h-36z" />
    <glyph glyph-name="uni0446" unicode="&#x446;" horiz-adv-x="548" 
d="M509 28v-97h-28v69h-26h-365h-28v520h28v-493h346v493h28v-492h45z" />
    <glyph glyph-name="uni0447" unicode="&#x447;" horiz-adv-x="500" 
d="M410 520h29v-520h-29v284q-10 -37 -64 -80.5t-127 -43.5q-74 0 -124 42t-50 137v181h28v-182q0 -75 38.5 -113t106.5 -38q74 0 125.5 47.5t66.5 97.5v188z" />
    <glyph glyph-name="uni0448" unicode="&#x448;" horiz-adv-x="739" 
d="M677 520v-520h-615v520h28v-492h265v492h28v-492h265v492h29z" />
    <glyph glyph-name="uni0449" unicode="&#x449;" horiz-adv-x="760" 
d="M722 28v-97h-29v69h-45h-586v520h28v-492h265v492h28v-492h265v492h29v-492h45z" />
    <glyph glyph-name="uni044A" unicode="&#x44a;" horiz-adv-x="547" 
d="M304 296q208 0 208 -148t-208 -148h-211v493h-73v27h101v-224h183zM307 28q176 0 176 120q0 121 -176 121h-186v-241h186z" />
    <glyph glyph-name="uni044B" unicode="&#x44b;" horiz-adv-x="670" 
d="M273 296q208 0 208 -148t-208 -148h-211v520h28v-224h183zM580 520h28v-520h-28v520zM276 28q176 0 176 120q0 121 -176 121h-186v-241h186z" />
    <glyph glyph-name="uni044C" unicode="&#x44c;" horiz-adv-x="516" 
d="M273 296q208 0 208 -148t-208 -148h-211v520h28v-224h183zM276 28q176 0 176 120q0 121 -176 121h-186v-241h186z" />
    <glyph glyph-name="uni044D" unicode="&#x44d;" horiz-adv-x="553" 
d="M254 529q101 0 182.5 -72.5t81.5 -197.5q0 -64 -24 -116.5t-63 -85t-84.5 -50t-92.5 -17.5q-70 0 -128.5 33.5t-90.5 95.5l27 8q28 -53 80 -81.5t113 -28.5q86 0 158 61t76 169h-200v26h200q-5 108 -77 168.5t-157 60.5q-61 0 -113 -28.5t-80 -81.5l-27 8
q32 62 90.5 95.5t128.5 33.5z" />
    <glyph glyph-name="uni044E" unicode="&#x44e;" horiz-adv-x="762" 
d="M470 529q99 0 180 -72.5t81 -196.5t-81 -197t-180 -73q-60 0 -117 28t-99 88.5t-45 141.5h-119v-248h-28v520h28v-247h119q5 118 85 187t176 69zM470 17q87 0 159 64.5t72 178.5q0 59 -21.5 106.5t-56 76.5t-74 44t-79.5 15t-79.5 -15t-74.5 -44t-56.5 -76.5
t-21.5 -106.5q0 -114 72.5 -178.5t159.5 -64.5z" />
    <glyph glyph-name="uni044F" unicode="&#x44f;" horiz-adv-x="521" 
d="M459 520v-520h-28v230h-157l-203 -230h-36l205 230q-97 1 -142 40t-45 105q0 67 46 106t144 39h216zM431 257v236h-190q-159 0 -159 -118t159 -118h190z" />
    <glyph glyph-name="uni0451" unicode="&#x451;" horiz-adv-x="590" 
d="M210 700v-31h-30v31h30zM415 700v-31h-29v31h29zM296 529q46 0 92 -18t85.5 -51t62 -89t18.5 -124h-490q5 -109 76.5 -169.5t165.5 -60.5q123 0 182 78l21 -16q-67 -89 -202 -89q-110 0 -191 71.5t-81 198.5q0 124 81 196.5t180 72.5zM296 502q-84 0 -155 -60.5
t-77 -167.5h462q0 73 -38 126.5t-88.5 77.5t-103.5 24z" />
    <glyph glyph-name="uni0453" unicode="&#x453;" horiz-adv-x="459" 
d="M356 700l-93 -129h-18l78 129h33zM419 520v-27h-329v-493h-28v520h28h329z" />
    <glyph glyph-name="uni0454" unicode="&#x454;" horiz-adv-x="548" 
d="M298 17q61 0 113 28.5t80 81.5l27 -8q-32 -62 -90.5 -95.5t-128.5 -33.5q-47 0 -92.5 17.5t-84.5 50t-63 85t-24 116.5q0 125 81.5 197.5t182.5 72.5q70 0 128.5 -33.5t90.5 -95.5l-27 -8q-28 53 -80 81.5t-113 28.5q-85 0 -157 -60.5t-77 -168.5h200v-26h-200
q4 -108 76 -169t158 -61z" />
    <glyph glyph-name="uni0457" unicode="&#x457;" horiz-adv-x="152" 
d="M-11 700v-31h-30v31h30zM194 700v-31h-29v31h29zM90 520v-520h-28v520h28z" />
    <glyph glyph-name="uni0490" unicode="&#x490;" horiz-adv-x="486" 
d="M422 747h29v-64v-12h-362v-671h-29v700h29h333v47z" />
    <glyph glyph-name="uni0491" unicode="&#x491;" horiz-adv-x="459" 
d="M390 566h29v-73h-329v-493h-28v520h28h300v46z" />
    <glyph glyph-name="Wgrave" unicode="&#x1e80;" horiz-adv-x="963" 
d="M383 880h33l78 -129h-18zM933 700l-224 -700h-10l-217 636l-218 -636h-10l-224 700h27l203 -626l217 626h9l218 -626l202 626h27z" />
    <glyph glyph-name="wgrave" unicode="&#x1e81;" horiz-adv-x="912" 
d="M469 571h-18l-93 129h33zM858 520h29l-209 -520h-14l-208 485l-207 -485h-14l-210 520h30l188 -469l198 469h30l199 -469z" />
    <glyph glyph-name="Wacute" unicode="&#x1e82;" horiz-adv-x="963" 
d="M586 880l-93 -129h-18l78 129h33zM933 700l-224 -700h-10l-217 636l-218 -636h-10l-224 700h27l203 -626l217 626h9l218 -626l202 626h27z" />
    <glyph glyph-name="wacute" unicode="&#x1e83;" horiz-adv-x="912" 
d="M561 700l-93 -129h-18l78 129h33zM858 520h29l-209 -520h-14l-208 485l-207 -485h-14l-210 520h30l188 -469l198 469h30l199 -469z" />
    <glyph glyph-name="Wdieresis" unicode="&#x1e84;" horiz-adv-x="963" 
d="M394 880v-31h-30v31h30zM599 880v-31h-29v31h29zM933 700l-224 -700h-10l-217 636l-218 -636h-10l-224 700h27l203 -626l217 626h9l218 -626l202 626h27z" />
    <glyph glyph-name="wdieresis" unicode="&#x1e85;" horiz-adv-x="912" 
d="M369 700v-31h-30v31h30zM574 700v-31h-29v31h29zM858 520h29l-209 -520h-14l-208 485l-207 -485h-14l-210 520h30l188 -469l198 469h30l199 -469z" />
    <glyph glyph-name="Ygrave" unicode="&#x1ef2;" horiz-adv-x="602" 
d="M202 880h33l78 -129h-18zM572 700l-257 -356v-344h-29v344l-256 356h35l236 -328l236 328h35z" />
    <glyph glyph-name="ygrave" unicode="&#x1ef3;" horiz-adv-x="528" 
d="M276 571h-18l-93 129h33zM473 520h30l-315 -710h-29l90 206l-224 504h30l209 -469z" />
    <glyph glyph-name="endash" unicode="&#x2013;" horiz-adv-x="600" 
d="M555 295v-22h-510v22h510z" />
    <glyph glyph-name="emdash" unicode="&#x2014;" horiz-adv-x="660" 
d="M615 295v-22h-570v22h570z" />
    <glyph glyph-name="quoteleft" unicode="&#x2018;" horiz-adv-x="162" 
d="M137 700l-65 -184h-37l82 184h20z" />
    <glyph glyph-name="quoteright" unicode="&#x2019;" horiz-adv-x="152" 
d="M25 516l65 184h37l-82 -184h-20z" />
    <glyph glyph-name="quotesinglbase" unicode="&#x201a;" horiz-adv-x="207" 
d="M0 -88l65 184h37l-82 -184h-20z" />
    <glyph glyph-name="quotedblleft" unicode="&#x201c;" horiz-adv-x="257" 
d="M137 700l-65 -184h-37l82 184h20zM232 700l-65 -184h-37l82 184h20z" />
    <glyph glyph-name="quotedblright" unicode="&#x201d;" horiz-adv-x="247" 
d="M25 516l65 184h37l-82 -184h-20zM120 516l65 184h37l-82 -184h-20z" />
    <glyph glyph-name="quotedblbase" unicode="&#x201e;" horiz-adv-x="248" 
d="M25 -88l65 184h37l-82 -184h-20zM120 -88l65 184h37l-82 -184h-20z" />
    <glyph glyph-name="dagger" unicode="&#x2020;" horiz-adv-x="278" 
d="M228 554v-25h-75l-5 -217h-17l-5 217h-76v25h75l-3 146h35l-3 -146h74z" />
    <glyph glyph-name="daggerdbl" unicode="&#x2021;" horiz-adv-x="278" 
d="M153 554h75v-25h-76l-4 -155h-17l-4 155h-77v25h76l-4 146h35zM148 326l4 -155h76v-25h-75l4 -146h-35l4 146h-76v25h77l4 155h17z" />
    <glyph glyph-name="bullet" unicode="&#x2022;" horiz-adv-x="142" 
d="M71 256q-17 0 -19 2t-2 19t2 19t19 2t19 -2t2 -19t-2 -19t-19 -2z" />
    <glyph glyph-name="ellipsis" unicode="&#x2026;" horiz-adv-x="606" 
d="M56 -5q-16 0 -18.5 2.5t-2.5 18.5t2.5 18.5t18.5 2.5t18.5 -2.5t2.5 -18.5t-2.5 -18.5t-18.5 -2.5zM303 -5q-17 0 -19 2.5t-2 18.5t2 18.5t19 2.5t19 -2.5t2 -18.5t-2 -18.5t-19 -2.5zM550 -5q-16 0 -18.5 2.5t-2.5 18.5t2.5 18.5t18.5 2.5t18.5 -2.5t2.5 -18.5
t-2.5 -18.5t-18.5 -2.5z" />
    <glyph glyph-name="perthousand" unicode="&#x2030;" horiz-adv-x="1023" 
d="M159 705q51 0 87.5 -36t36.5 -87t-36.5 -87t-87.5 -36t-87.5 36t-36.5 87t36.5 87t87.5 36zM569 701l20 -16l-459 -685l-21 16zM159 679q-41 0 -69.5 -27.5t-28.5 -69.5t28.5 -69.5t69.5 -27.5t69.5 27.5t28.5 69.5t-28.5 69.5t-69.5 27.5zM539 241q51 0 87.5 -36
t36.5 -87t-36.5 -87t-87.5 -36t-87.5 36t-36.5 87t36.5 87t87.5 36zM864 241q51 0 87.5 -36t36.5 -87t-36.5 -87t-87.5 -36t-87.5 36t-36.5 87t36.5 87t87.5 36zM539 215q-41 0 -69.5 -27.5t-28.5 -69.5t28.5 -69.5t69.5 -27.5t69.5 27.5t28.5 69.5t-28.5 69.5t-69.5 27.5z
M864 215q-41 0 -69.5 -27.5t-28.5 -69.5t28.5 -69.5t69.5 -27.5t69.5 27.5t28.5 69.5t-28.5 69.5t-69.5 27.5z" />
    <glyph glyph-name="guilsinglleft" unicode="&#x2039;" horiz-adv-x="180" 
d="M40 323l120 104v-24l-101 -102l101 -103v-25l-120 104v46z" />
    <glyph glyph-name="guilsinglright" unicode="&#x203a;" horiz-adv-x="180" 
d="M140 309v-46l-120 -104v25l101 103l-101 102v24z" />
    <glyph glyph-name="fraction" unicode="&#x2044;" horiz-adv-x="108" 
d="M288 700l-430 -700h-48l436 700h42z" />
    <glyph glyph-name="Euro" unicode="&#x20ac;" horiz-adv-x="708" 
d="M651 95l22 -20q-102 -85 -231 -85q-118 0 -219.5 82t-126.5 208h-61v28h56q-2 28 -2 42q0 19 1 29h-55v28h59q20 131 123.5 217t224.5 86q127 0 229 -83l-20 -23q-90 76 -206 76q-111 0 -206 -76.5t-116 -196.5h174v-28h-178q-1 -10 -1 -29q0 -21 3 -42h176v-28h-172
q25 -114 119 -187t201 -73q117 0 206 75z" />
    <glyph glyph-name="trademark" unicode="&#x2122;" horiz-adv-x="541" 
d="M236 700v-26h-71v-154h-29v154h-71v26h171zM476 700v-180h-29v125l-62 -125h-24l-61 125v-125h-29v180h29l73 -144l74 144h29z" />
    <glyph glyph-name="oneeighth" unicode="&#x215b;" horiz-adv-x="556" 
d="M100 701v-261h-37v221l-17 -11l-18 31l35 20h37zM503 700l-430 -700h-48l436 700h42zM439 263q36 0 57.5 -20t21.5 -47q0 -34 -30 -53q43 -21 43 -66q0 -34 -27 -56.5t-65 -22.5q-37 0 -64 22.5t-27 56.5q0 45 43 66q-30 19 -30 53q0 26 21.5 46.5t56.5 20.5zM439 232
q-20 0 -30.5 -10.5t-10.5 -25.5t12.5 -27t28.5 -12q17 0 29 11.5t12 27.5q0 36 -41 36zM439 126q-22 0 -38 -14t-16 -35q0 -20 16 -34t38 -14q24 0 39 13t15 35t-15 35.5t-39 13.5z" />
    <glyph glyph-name="threeeighths" unicode="&#x215c;" horiz-adv-x="574" 
d="M116 703q32 0 56 -20.5t24 -47.5q0 -32 -30 -53q42 -18 42 -66q0 -34 -27.5 -57t-64.5 -23q-40 0 -66 27t-25 64h38q2 -25 15.5 -42t37.5 -17q22 0 38 13.5t16 34.5q0 27 -18.5 37t-55.5 12v28q63 0 63 42q0 16 -12.5 26.5t-30.5 10.5q-46 0 -47 -54h-37q0 38 23.5 61.5
t60.5 23.5zM523 700l-430 -700h-48l436 700h42zM457 263q36 0 57.5 -20t21.5 -47q0 -34 -30 -53q43 -21 43 -66q0 -34 -27 -56.5t-65 -22.5q-37 0 -64 22.5t-27 56.5q0 45 43 66q-30 19 -30 53q0 26 21.5 46.5t56.5 20.5zM457 232q-20 0 -30.5 -10.5t-10.5 -25.5t12.5 -27
t28.5 -12q17 0 29 11.5t12 27.5q0 36 -41 36zM457 126q-22 0 -38 -14t-16 -35q0 -20 16 -34t38 -14q24 0 39 13t15 35t-15 35.5t-39 13.5z" />
    <glyph glyph-name="fiveeighths" unicode="&#x215d;" horiz-adv-x="576" 
d="M186 701v-32h-104l-8 -58q22 10 45 10q35 0 63 -26.5t28 -65.5t-28 -66t-67 -27q-33 0 -58.5 18.5t-31.5 43.5l33 19q2 -20 17.5 -34.5t39.5 -14.5q23 0 40 17.5t17 43.5q0 25 -16.5 42.5t-36.5 17.5q-35 0 -57 -29l-32 8l18 133h138zM523 700l-430 -700h-48l436 700h42z
M459 263q36 0 57.5 -20t21.5 -47q0 -34 -30 -53q43 -21 43 -66q0 -34 -27 -56.5t-65 -22.5q-37 0 -64 22.5t-27 56.5q0 45 43 66q-30 19 -30 53q0 26 21.5 46.5t56.5 20.5zM459 232q-20 0 -30.5 -10.5t-10.5 -25.5t12.5 -27t28.5 -12q17 0 29 11.5t12 27.5q0 36 -41 36z
M459 126q-22 0 -38 -14t-16 -35q0 -20 16 -34t38 -14q24 0 39 13t15 35t-15 35.5t-39 13.5z" />
    <glyph glyph-name="seveneighths" unicode="&#x215e;" horiz-adv-x="556" 
d="M200 701l-102 -261h-39l89 229h-121v32h173zM503 700l-430 -700h-48l436 700h42zM439 263q36 0 57.5 -20t21.5 -47q0 -34 -30 -53q43 -21 43 -66q0 -34 -27 -56.5t-65 -22.5q-37 0 -64 22.5t-27 56.5q0 45 43 66q-30 19 -30 53q0 26 21.5 46.5t56.5 20.5zM439 232
q-20 0 -30.5 -10.5t-10.5 -25.5t12.5 -27t28.5 -12q17 0 29 11.5t12 27.5q0 36 -41 36zM439 126q-22 0 -38 -14t-16 -35q0 -20 16 -34t38 -14q24 0 39 13t15 35t-15 35.5t-39 13.5z" />
    <glyph glyph-name="partialdiff" unicode="&#x2202;" horiz-adv-x="515" 
d="M171 700h36l155 -221q3 -4 19.5 -26.5t23 -32.5t21 -33t21.5 -40t16 -40t13 -47t4 -48q0 -96 -64 -159t-159 -63q-94 0 -158 62.5t-64 156.5t67 156t158 62q71 0 136 -44zM257 398q-75 0 -134 -51t-59 -138q0 -84 58.5 -137.5t134.5 -53.5q78 0 136 53.5t58 137.5
q0 90 -54 139.5t-140 49.5z" />
    <glyph glyph-name="product" unicode="&#x220f;" horiz-adv-x="627" 
d="M45 800h537v-990h-24v958h-489v-958h-24v990z" />
    <glyph glyph-name="summation" unicode="&#x2211;" horiz-adv-x="638" 
d="M593 800v-34h-493l259 -461l-259 -461h493v-34h-548l275 495l-275 495h548z" />
    <glyph glyph-name="minus" unicode="&#x2212;" horiz-adv-x="425" 
d="M380 295v-22h-335v22h335z" />
    <glyph glyph-name="radical" unicode="&#x221a;" 
d="M569 800l-242 -990h-25l-155 483h-102v25h123l146 -459l228 941h27z" />
    <glyph glyph-name="infinity" unicode="&#x221e;" horiz-adv-x="788" 
d="M584 422q65 0 112 -46.5t47 -113.5q0 -70 -46.5 -116.5t-112.5 -46.5q-56 0 -100.5 34.5t-88.5 101.5q-45 -67 -89.5 -101.5t-100.5 -34.5q-66 0 -113 46.5t-47 116.5q0 68 47 114t113 46q55 0 99.5 -34t90.5 -100q45 65 89.5 99.5t99.5 34.5zM207 131q82 0 169 131
q-85 127 -169 127q-54 0 -90.5 -36.5t-36.5 -90.5q0 -55 36.5 -93t90.5 -38zM581 131q54 0 90.5 38t36.5 93q0 54 -36 90.5t-91 36.5q-85 0 -168 -127q85 -131 168 -131z" />
    <glyph glyph-name="integral" unicode="&#x222b;" horiz-adv-x="278" 
d="M253 800v-27q-54 0 -78 -23.5t-24 -90.5v-698q0 -89 -33 -120t-98 -31v27q53 0 77.5 24.5t24.5 92.5v698q0 88 32.5 118t98.5 30z" />
    <glyph glyph-name="approxequal" unicode="&#x2248;" horiz-adv-x="447" 
d="M138 404q46 0 90.5 -34.5t80.5 -34.5t52 16t16 37h25q0 -42 -25.5 -61t-63.5 -19q-47 0 -93 34.5t-83 34.5t-53 -18.5t-15 -39.5h-24q0 42 28 63.5t65 21.5zM138 246q46 0 90.5 -34.5t80.5 -34.5t52 16t16 37h25q0 -42 -25.5 -61t-63.5 -19q-47 0 -93 34.5t-83 34.5
t-53 -18.5t-15 -39.5h-24q0 42 28 63.5t65 21.5z" />
    <glyph glyph-name="notequal" unicode="&#x2260;" horiz-adv-x="425" 
d="M380 353h-127l-53 -138h180v-22h-189l-75 -193h-25l75 193h-121v22h130l53 138h-183v22h192l72 186h25l-72 -186h118v-22z" />
    <glyph glyph-name="lessequal" unicode="&#x2264;" horiz-adv-x="438" 
d="M389 593v-28l-313 -190l313 -189v-29l-343 210v17zM389 22v-22h-335v22h335z" />
    <glyph glyph-name="greaterequal" unicode="&#x2265;" horiz-adv-x="434" 
d="M46 593l343 -209v-17l-343 -210v29l313 189l-313 190v28zM46 22h335v-22h-335v22z" />
    <glyph glyph-name="lozenge" unicode="&#x25ca;" horiz-adv-x="431" 
d="M231 700l155 -350l-155 -350h-31l-155 350l155 350h31zM216 35l139 315l-139 315l-140 -315z" />
    <glyph glyph-name="i.loclTRK" horiz-adv-x="153" 
d="M92 700v-31h-30v31h30zM91 520v-520h-28v520h28z" />
    <glyph glyph-name="f_t" horiz-adv-x="545" 
d="M511 493h-109v-424q0 -49 41 -49q29 0 65 21v-28q-35 -19 -73 -19q-25 0 -43 17t-18 47v435h-104h-174v-493h-29v493h-47v27h47v52q0 145 138 145q52 0 97 -28l-14 -21q-36 22 -84 22q-53 0 -80.5 -24t-27.5 -94v-52h174h104v122h28v-122h109v-27z" />
    <glyph glyph-name="t_t" horiz-adv-x="543" 
d="M508 493h-109v-424q0 -49 41 -49q29 0 65 21v-28q-35 -19 -73 -19q-25 0 -43 17t-18 47v435h-71h-134h-37v-424q0 -49 41 -49q29 0 65 21v-28q-35 -19 -73 -19q-25 0 -43 17t-18 47v435h-71v27h71v122h28v-122h109h114h19v122h28v-122h109v-27z" />
    <glyph glyph-name="zero.tf" horiz-adv-x="700" 
d="M350 710q119 0 192 -97.5t73 -262.5t-73 -262.5t-192 -97.5q-120 0 -192.5 97.5t-72.5 262.5t72.5 262.5t192.5 97.5zM350 683q-102 0 -169 -88t-67 -245q0 -158 66.5 -245t169.5 -87t169 87t66 245q0 157 -66.5 245t-168.5 88z" />
    <glyph glyph-name="one.tf" horiz-adv-x="700" 
d="M372 700v-700h-29v670h-83v30h112z" />
    <glyph glyph-name="two.tf" horiz-adv-x="700" 
d="M341 707q84 0 143 -54.5t59 -139.5q0 -20 -4 -39t-16 -42t-20.5 -37.5t-32 -43.5t-34 -41.5t-43 -49t-44.5 -50.5l-159 -183h352v-27h-399v14l188 215q16 19 51 59t47.5 54.5t34.5 43.5t29.5 45.5t14.5 39t7 44.5q0 72 -49.5 118t-124.5 46q-74 0 -124.5 -48.5
t-50.5 -129.5v-16h-28v16q0 92 59.5 149t143.5 57z" />
    <glyph glyph-name="three.tf" horiz-adv-x="700" 
d="M144 147q22 -57 73.5 -93t125.5 -36q84 0 142.5 50.5t58.5 136.5q0 101 -70.5 147.5t-171.5 33.5l189 287h-341v27h391l-192 -287q90 4 157 -51.5t67 -156.5q0 -97 -66.5 -156t-162.5 -59q-84 0 -144 41.5t-82 108.5z" />
    <glyph glyph-name="four.tf" horiz-adv-x="700" 
d="M548 234v-28h-75v-206h-29v206h-317v28l317 466h29v-466h75zM158 234h286v419z" />
    <glyph glyph-name="five.tf" horiz-adv-x="700" 
d="M511 700v-27h-304l-41 -282q72 78 183 78q93 0 162.5 -67t69.5 -172q0 -104 -69 -172t-169 -68q-86 0 -143 40t-84 102l27 14q21 -55 73 -91.5t125 -36.5q90 0 151 60t61 152q0 90 -60.5 151t-146.5 61q-107 0 -181 -90l-29 5l48 343h327z" />
    <glyph glyph-name="six.tf" horiz-adv-x="700" 
d="M434 700l-225 -317q65 44 136 44q91 0 158 -62t67 -156t-64 -156.5t-158 -62.5q-95 0 -159 63t-64 159q0 24 4 48t13 47t16 40t21.5 40t21 33t23 32.5t19.5 26.5l155 221h36zM348 398q-86 0 -140 -49.5t-54 -139.5q0 -84 58 -137.5t136 -53.5q76 0 134.5 53.5t58.5 137.5
q0 87 -59 138t-134 51z" />
    <glyph glyph-name="seven.tf" horiz-adv-x="700" 
d="M541 700l-268 -700h-30l259 673h-352v27h391z" />
    <glyph glyph-name="eight.tf" horiz-adv-x="700" 
d="M428 387q61 -26 98 -76t37 -116q0 -90 -63.5 -147.5t-154.5 -57.5t-154 57.5t-63 147.5q0 66 37 116t98 76q-48 26 -73 66t-25 87q0 72 49.5 121t130.5 49q82 0 131.5 -49t49.5 -121q0 -46 -25 -86.5t-73 -66.5zM194 541q0 -59 44 -101.5t107 -42.5q64 0 108 42.5
t44 101.5q0 57 -41 99.5t-111 42.5t-110.5 -42.5t-40.5 -99.5zM345 19q78 0 133.5 48.5t55.5 128.5q0 76 -54 125.5t-135 49.5q-80 0 -134 -49.5t-54 -125.5q0 -79 55.5 -128t132.5 -49z" />
    <glyph glyph-name="nine.tf" horiz-adv-x="700" 
d="M263 -1l225 317q-65 -44 -136 -44q-91 0 -158 62t-67 156t64 156.5t158 62.5q95 0 159 -63t64 -159q0 -24 -4 -48t-13 -47t-16 -40t-21.5 -40t-21 -33t-23 -32.5t-19.5 -26.5l-155 -221h-36zM349 301q86 0 140 49.5t54 139.5q0 84 -58 137.5t-136 53.5
q-76 0 -134.5 -53.5t-58.5 -137.5q0 -87 59 -138t134 -51z" />
    <glyph glyph-name="zero.dnom" horiz-adv-x="260" 
d="M130 263q47 0 76 -35t29 -91v-13q0 -56 -29 -91t-76 -35q-45 0 -75 35t-30 91v13q0 56 30 91t75 35zM130 232q-29 0 -48.5 -25.5t-19.5 -69.5v-13q0 -44 19.5 -69.5t48.5 -25.5q31 0 49.5 25t18.5 70v13q0 45 -18.5 70t-49.5 25z" />
    <glyph glyph-name="one.dnom" horiz-adv-x="122" 
d="M97 261v-261h-37v221l-17 -11l-18 31l35 20h37z" />
    <glyph glyph-name="two.dnom" horiz-adv-x="221" 
d="M109 264q34 0 59 -22.5t25 -52.5q0 -26 -14.5 -47t-53.5 -61l-47 -49h118v-32h-168v32l68 69q28 29 36.5 38.5t15.5 22.5t7 27q0 18 -14 31t-32 13q-19 0 -33 -13t-14 -37v-14h-37v14q0 35 24.5 58t59.5 23z" />
    <glyph glyph-name="three.dnom" horiz-adv-x="233" 
d="M116 263q32 0 56 -20.5t24 -47.5q0 -32 -30 -53q42 -18 42 -66q0 -34 -27.5 -57t-64.5 -23q-40 0 -66 27t-25 64h38q2 -25 15.5 -42t37.5 -17q22 0 38 13.5t16 34.5q0 27 -18.5 37t-55.5 12v28q63 0 63 42q0 16 -12.5 26.5t-30.5 10.5q-46 0 -47 -54h-37q0 38 23.5 61.5
t60.5 23.5z" />
    <glyph glyph-name="four.dnom" horiz-adv-x="246" 
d="M194 261v-154h27v-31h-27v-76h-37v76h-132l132 185h37zM157 202l-65 -95h65v95z" />
    <glyph glyph-name="five.dnom" horiz-adv-x="235" 
d="M186 261v-32h-104l-8 -58q22 10 45 10q35 0 63 -26.5t28 -65.5t-28 -66t-67 -27q-33 0 -58.5 18.5t-31.5 43.5l33 19q2 -20 17.5 -34.5t39.5 -14.5q23 0 40 17.5t17 43.5q0 25 -16.5 42.5t-36.5 17.5q-35 0 -57 -29l-32 8l18 133h138z" />
    <glyph glyph-name="six.dnom" horiz-adv-x="223" 
d="M174 261l-68 -96h6q34 0 60 -25t26 -59q0 -35 -26 -60t-60 -25t-60.5 25t-26.5 60q0 16 5.5 31.5t10 23t18 25t16.5 21.5l57 79h42zM112 133q-22 0 -36 -14t-14 -38q0 -23 15.5 -38t34.5 -15q18 0 33.5 15t15.5 38t-15 37.5t-34 14.5z" />
    <glyph glyph-name="seven.dnom" horiz-adv-x="223" 
d="M198 261l-102 -261h-39l89 229h-121v32h173z" />
    <glyph glyph-name="eight.dnom" horiz-adv-x="233" 
d="M116 263q36 0 57.5 -20t21.5 -47q0 -34 -30 -53q43 -21 43 -66q0 -34 -27 -56.5t-65 -22.5q-37 0 -64 22.5t-27 56.5q0 45 43 66q-30 19 -30 53q0 26 21.5 46.5t56.5 20.5zM116 232q-20 0 -30.5 -10.5t-10.5 -25.5t12.5 -27t28.5 -12q18 0 29.5 11.5t11.5 27.5
q0 36 -41 36zM116 126q-22 0 -38 -14t-16 -35q0 -20 16 -34t38 -14q24 0 39 13t15 35t-15 35.5t-39 13.5z" />
    <glyph glyph-name="nine.dnom" horiz-adv-x="224" 
d="M112 264q34 0 60.5 -24.5t26.5 -59.5q0 -13 -2.5 -24t-9 -22.5t-10.5 -18t-14.5 -19.5t-14.5 -18l-56 -78h-43l68 95h-5q-35 0 -61 25.5t-26 59.5q0 35 26.5 59.5t60.5 24.5zM112 232q-19 0 -34.5 -15t-15.5 -37q0 -23 15.5 -38t34.5 -15q22 0 35.5 14.5t13.5 38.5
q0 22 -15.5 37t-33.5 15z" />
    <glyph glyph-name="zero.numr" horiz-adv-x="260" 
d="M130 703q47 0 76 -35t29 -91v-13q0 -56 -29 -91t-76 -35q-45 0 -75 35t-30 91v13q0 56 30 91t75 35zM130 672q-29 0 -48.5 -25.5t-19.5 -69.5v-13q0 -44 19.5 -69.5t48.5 -25.5q31 0 49.5 25t18.5 70v13q0 45 -18.5 70t-49.5 25z" />
    <glyph glyph-name="one.numr" horiz-adv-x="122" 
d="M97 701v-261h-37v221l-17 -11l-18 31l35 20h37z" />
    <glyph glyph-name="two.numr" horiz-adv-x="221" 
d="M109 704q34 0 59 -22.5t25 -52.5q0 -26 -14.5 -47t-53.5 -61l-47 -49h118v-32h-168v32l68 69q28 29 36.5 38.5t15.5 22.5t7 27q0 18 -14 31t-32 13q-19 0 -33 -13t-14 -37v-14h-37v14q0 35 24.5 58t59.5 23z" />
    <glyph glyph-name="three.numr" horiz-adv-x="233" 
d="M116 703q32 0 56 -20.5t24 -47.5q0 -32 -30 -53q42 -18 42 -66q0 -34 -27.5 -57t-64.5 -23q-40 0 -66 27t-25 64h38q2 -25 15.5 -42t37.5 -17q22 0 38 13.5t16 34.5q0 27 -18.5 37t-55.5 12v28q63 0 63 42q0 16 -12.5 26.5t-30.5 10.5q-46 0 -47 -54h-37q0 38 23.5 61.5
t60.5 23.5z" />
    <glyph glyph-name="four.numr" horiz-adv-x="246" 
d="M194 701v-154h27v-31h-27v-76h-37v76h-132l132 185h37zM157 642l-65 -95h65v95z" />
    <glyph glyph-name="five.numr" horiz-adv-x="235" 
d="M186 701v-32h-104l-8 -58q22 10 45 10q35 0 63 -26.5t28 -65.5t-28 -66t-67 -27q-33 0 -58.5 18.5t-31.5 43.5l33 19q2 -20 17.5 -34.5t39.5 -14.5q23 0 40 17.5t17 43.5q0 25 -16.5 42.5t-36.5 17.5q-35 0 -57 -29l-32 8l18 133h138z" />
    <glyph glyph-name="six.numr" horiz-adv-x="223" 
d="M174 701l-68 -96h6q34 0 60 -25t26 -59q0 -35 -26 -60t-60 -25t-60.5 25t-26.5 60q0 16 5.5 31.5t10 23t18 25t16.5 21.5l57 79h42zM112 573q-22 0 -36 -14t-14 -38q0 -23 15.5 -38t34.5 -15q18 0 33.5 15t15.5 38t-15 37.5t-34 14.5z" />
    <glyph glyph-name="seven.numr" horiz-adv-x="223" 
d="M198 701l-102 -261h-39l89 229h-121v32h173z" />
    <glyph glyph-name="eight.numr" horiz-adv-x="233" 
d="M116 703q36 0 57.5 -20t21.5 -47q0 -34 -30 -53q43 -21 43 -66q0 -34 -27 -56.5t-65 -22.5q-37 0 -64 22.5t-27 56.5q0 45 43 66q-30 19 -30 53q0 26 21.5 46.5t56.5 20.5zM116 672q-20 0 -30.5 -10.5t-10.5 -25.5t12.5 -27t28.5 -12q18 0 29.5 11.5t11.5 27.5
q0 36 -41 36zM116 566q-22 0 -38 -14t-16 -35q0 -20 16 -34t38 -14q24 0 39 13t15 35t-15 35.5t-39 13.5z" />
    <glyph glyph-name="nine.numr" horiz-adv-x="224" 
d="M112 704q34 0 60.5 -24.5t26.5 -59.5q0 -13 -2.5 -24t-9 -22.5t-10.5 -18t-14.5 -19.5t-14.5 -18l-56 -78h-43l68 95h-5q-35 0 -61 25.5t-26 59.5q0 35 26.5 59.5t60.5 24.5zM112 672q-19 0 -34.5 -15t-15.5 -37q0 -23 15.5 -38t34.5 -15q22 0 35.5 14.5t13.5 38.5
q0 22 -15.5 37t-33.5 15z" />
    </font>
</defs>
</svg>
