<?xml version="1.0" standalone="no"?>
<!DOCTYPE svg PUBLIC "-//W3C//DTD SVG 1.1//EN" "http://www.w3.org/Graphics/SVG/1.1/DTD/svg11.dtd" >
<svg xmlns="http://www.w3.org/2000/svg" xmlns:xlink="http://www.w3.org/1999/xlink" version="1.1">
<metadata>
Created by FontForge 20170731 at Tue Apr  5 04:38:34 2016
 By Aleksey,,,
(c) 2016 Connary Fagen
</metadata>
<defs>
<font id="VisbyCF-LightOblique" horiz-adv-x="606" >
  <font-face 
    font-family="Visby CF Light"
    font-weight="300"
    font-style="oblique"
    font-stretch="normal"
    units-per-em="1000"
    panose-1="0 0 4 0 0 0 0 0 0 0"
    ascent="800"
    descent="-200"
    x-height="520"
    cap-height="700"
    bbox="-245 -215 1113 937"
    underline-thickness="50"
    underline-position="-200"
    slope="-6"
    unicode-range="U+0020-FB02"
  />
<missing-glyph horiz-adv-x="495" 
d="M406 800v-990h-314v990h314zM330 734h-164v-33h65v-37h-66v-32h165v32h-66v37h66v33zM264 606h-99v-103h165v34h-66v69zM231 572v-35h-33v35h33zM330 476h-165v-32h66v-37h-66v-33h99v70h66v32zM330 417h-33v-65h-132v-34h165v99zM330 296h-99v-55h33v22h33v-46h-99v79
h-33v-112h165v112zM330 125h-165v-112h165v112zM297 92v-46h-99v46h99zM330 -10h-165v-32h70l-70 -47v-33h165v33h-101l69 47h32v32z" />
    <glyph glyph-name="fi" unicode="fi" horiz-adv-x="456" 
d="M76 568q14 149 158 149q52 0 101 -30l-22 -31q-35 20 -79 20q-49 0 -77.5 -24t-34.5 -86l-5 -46h165l-5 -41h-165l-50 -479h-47l51 479h-51l5 41h50zM362 520h46l-55 -520h-46z" />
    <glyph glyph-name="fl" unicode="fl" horiz-adv-x="481" 
d="M76 568q14 149 158 149q52 0 101 -30l-22 -31q-35 20 -79 20q-49 0 -77.5 -24t-34.5 -86l-5 -46h165l-5 -41h-165l-50 -479h-47l51 479h-51l5 41h50zM407 707h46l-75 -707h-46z" />
    <glyph glyph-name="f_f" unicode="ff" horiz-adv-x="669" 
d="M561 676q-49 0 -77.5 -24t-34.5 -86l-5 -46h165l-4 -41h-166l-50 -479h-46l50 479h-162h-119l-50 -479h-47l51 479h-51l5 41h50l6 48q14 149 158 149q52 0 101 -30l-22 -31q-35 20 -79 20q-49 0 -77.5 -24t-34.5 -86l-5 -46h265h16l5 48q15 149 158 149q52 0 101 -30
l-22 -31q-35 20 -79 20z" />
    <glyph glyph-name=".notdef" horiz-adv-x="495" 
d="M406 800v-990h-314v990h314zM330 734h-164v-33h65v-37h-66v-32h165v32h-66v37h66v33zM264 606h-99v-103h165v34h-66v69zM231 572v-35h-33v35h33zM330 476h-165v-32h66v-37h-66v-33h99v70h66v32zM330 417h-33v-65h-132v-34h165v99zM330 296h-99v-55h33v22h33v-46h-99v79
h-33v-112h165v112zM330 125h-165v-112h165v112zM297 92v-46h-99v46h99zM330 -10h-165v-32h70l-70 -47v-33h165v33h-101l69 47h32v32z" />
    <glyph glyph-name=".null" horiz-adv-x="0" 
 />
    <glyph glyph-name="nonmarkingreturn" horiz-adv-x="333" 
 />
    <glyph glyph-name="space" unicode=" " horiz-adv-x="300" 
 />
    <glyph glyph-name="exclam" unicode="!" horiz-adv-x="177" 
d="M133 700l-55 -521h-51l55 521h51zM35 -5q-20 0 -25.5 6.5t-3.5 25.5t8 24t24 5q20 0 25.5 -6t3.5 -26q-2 -19 -7.5 -24t-24.5 -5z" />
    <glyph glyph-name="quotedbl" unicode="&#x22;" horiz-adv-x="242" 
d="M101 700l-18 -175h-47l18 175h47zM206 700l-18 -175h-47l18 175h47z" />
    <glyph glyph-name="numbersign" unicode="#" horiz-adv-x="550" 
d="M500 478h-94l-45 -255h113l-5 -43h-115l-32 -180h-47l32 180h-165l-32 -180h-47l32 180h-86l5 43h88l45 255h-107l5 42h110l32 180h47l-32 -180h165l32 180h47l-32 -180h91zM314 223l45 255h-165l-45 -255h165z" />
    <glyph glyph-name="dollar" unicode="$" horiz-adv-x="516" 
d="M275 377q43 -17 70.5 -32t54.5 -37t40 -51t13 -66q0 -88 -65.5 -144.5t-157.5 -61.5l-8 -75h-36l8 76q-80 6 -134.5 53t-65.5 118l41 14q11 -61 54 -99t109 -42l34 318l-21 8q-150 61 -150 172q0 76 58.5 128.5t150.5 55.5l8 79h36l-8 -80q65 -8 111.5 -50t58.5 -98
l-37 -15q-36 109 -138 120l-30 -289zM225 397l11 -5l29 277q-71 -5 -114 -43t-43 -98q0 -84 117 -131zM234 30q71 5 121 49t50 110q0 56 -34.5 86.5t-104.5 58.5z" />
    <glyph glyph-name="percent" unicode="%" horiz-adv-x="698" 
d="M176 705q52 0 85.5 -36.5t27.5 -88.5q-5 -51 -44.5 -86t-89.5 -35q-52 0 -85.5 36.5t-27.5 88.5q5 51 44.5 86t89.5 35zM576 701l33 -25l-524 -676l-34 25zM176 669q-37 0 -65.5 -25.5t-33.5 -63.5q-4 -36 19 -60.5t59 -24.5q37 0 66 25.5t33 63.5q4 36 -19 60.5
t-59 24.5zM508 241q52 0 85 -36.5t28 -88.5q-6 -51 -45.5 -86t-89.5 -35q-52 0 -85 36.5t-28 88.5q5 51 44.5 86t90.5 35zM508 205q-37 0 -66 -25.5t-33 -63.5q-4 -36 18.5 -60.5t58.5 -24.5q37 0 66 25.5t33 63.5q4 36 -18.5 60.5t-58.5 24.5z" />
    <glyph glyph-name="ampersand" unicode="&#x26;" horiz-adv-x="698" 
d="M546 37q32 0 68 21l-2 -42q-32 -22 -69 -22q-83 0 -73 90l4 39q-33 -64 -93 -98.5t-136 -34.5q-104 0 -167.5 60t-52.5 160q9 94 74.5 149t161.5 60l-145 281h429l-3 -42h-358l143 -276h-39q-87 0 -147.5 -46.5t-68.5 -128.5q-9 -82 42.5 -128t132.5 -46q95 0 159 58
t71 131l18 172h122l-4 -40h-78l-28 -265q-4 -52 39 -52z" />
    <glyph glyph-name="quotesingle" unicode="'" horiz-adv-x="117" 
d="M101 700l-18 -175h-47l18 175h47z" />
    <glyph glyph-name="parenleft" unicode="(" horiz-adv-x="229" 
d="M218 744q-120 -182 -146 -426q-27 -254 54 -449l-43 2q-86 190 -59 451q26 248 151 424z" />
    <glyph glyph-name="parenright" unicode=")" horiz-adv-x="228" 
d="M68 746l43 -2q87 -178 61 -426q-28 -260 -153 -449l-43 2q121 194 148 451q26 242 -56 424z" />
    <glyph glyph-name="asterisk" unicode="*" horiz-adv-x="439" 
d="M370 575l-120 -31l64 -99l-37 -23l-56 97l-78 -97l-33 23l84 99l-113 31l14 40l112 -36l10 120h42l-15 -120l120 36z" />
    <glyph glyph-name="plus" unicode="+" horiz-adv-x="419" 
d="M353 300l-4 -38h-148l-16 -148h-38l16 148h-148l4 38h148l16 148h38l-16 -148h148z" />
    <glyph glyph-name="comma" unicode="," horiz-adv-x="145" 
d="M-65 -97l90 197h50l-104 -197h-36z" />
    <glyph glyph-name="hyphen" unicode="-" horiz-adv-x="400" 
d="M332 301l-4 -37h-310l4 37h310z" />
    <glyph glyph-name="period" unicode="." horiz-adv-x="131" 
d="M12 -5q-19 0 -25 6t-4 26q2 19 8 24t24 5q20 0 25.5 -6t3.5 -26q-2 -19 -7.5 -24t-24.5 -5z" />
    <glyph glyph-name="slash" unicode="/" horiz-adv-x="466" 
d="M450 745l-432 -875h-46l432 875h46z" />
    <glyph glyph-name="zero" unicode="0" horiz-adv-x="622" 
d="M329 710q108 0 172 -79.5t64 -217.5q0 -111 -34.5 -205.5t-106 -156t-167.5 -61.5q-108 0 -172 79t-64 217q0 113 35.5 208t107 155.5t165.5 60.5zM329 668q-82 0 -143 -56.5t-90 -141.5t-29 -182q0 -122 51 -188.5t139 -66.5q82 0 143 56t90 140.5t29 181.5
q0 120 -51.5 188.5t-138.5 68.5z" />
    <glyph glyph-name="one" unicode="1" horiz-adv-x="277" 
d="M215 700l-74 -700h-47l70 655h-89l4 45h136z" />
    <glyph glyph-name="two" unicode="2" horiz-adv-x="507" 
d="M272 707q82 0 136 -49.5t54 -127.5q0 -16 -3 -31.5t-6.5 -28.5t-13.5 -30.5t-16 -28.5t-22 -30.5t-24 -29.5t-30 -33t-32 -33t-37 -38t-39 -40l-161 -165h333l-5 -42h-412l2 15l208 216q18 18 55 56t49.5 51t37 40.5t32 40.5t19 34.5t15 39t3.5 38.5q0 60 -40.5 96.5
t-103.5 36.5q-68 0 -120.5 -45.5t-61.5 -122.5l-1 -15h-47l2 17q10 93 75.5 151t153.5 58z" />
    <glyph glyph-name="three" unicode="3" horiz-adv-x="543" 
d="M37 154q15 -55 60.5 -88t114.5 -33q89 0 150.5 56.5t61.5 144.5q0 73 -48 111t-125 38q-26 0 -49 -4l209 279h-328l5 42h402l-218 -283q81 2 139 -47t58 -135q0 -110 -76.5 -177.5t-181.5 -67.5q-84 0 -141 42t-73 109z" />
    <glyph glyph-name="four" unicode="4" horiz-adv-x="506" 
d="M444 241l-4 -43h-75l-22 -198h-47l22 198h-315l5 43l362 459h47l-48 -459h75zM59 241h263l41 386z" />
    <glyph glyph-name="five" unicode="5" horiz-adv-x="553" 
d="M467 700l-5 -42h-296l-64 -257q71 70 176 70q87 0 150 -59.5t63 -153.5q0 -116 -79.5 -192t-189.5 -76q-86 0 -140.5 40.5t-74.5 104.5l39 16q16 -51 60.5 -84.5t115.5 -33.5q93 0 158 65.5t65 157.5q0 76 -50 124.5t-122 48.5q-102 0 -180 -84l-43 11l84 344h333z" />
    <glyph glyph-name="six" unicode="6" horiz-adv-x="519" 
d="M384 700l-256 -308q58 37 122 37q86 0 145.5 -56.5t59.5 -142.5q0 -101 -73.5 -170.5t-174.5 -69.5q-88 0 -145.5 55.5t-57.5 143.5q0 23 4.5 47.5t9.5 42.5t18.5 42.5t19.5 36.5t24.5 36.5t22.5 30t25 29.5l20 25l183 221h53zM246 385q-87 0 -142.5 -55t-55.5 -142
q0 -69 47 -112t116 -43q77 0 138.5 56t61.5 143q0 70 -49.5 111.5t-115.5 41.5z" />
    <glyph glyph-name="seven" unicode="7" horiz-adv-x="467" 
d="M451 700l-345 -700h-47l325 658h-340l5 42h402z" />
    <glyph glyph-name="eight" unicode="8" horiz-adv-x="526" 
d="M340 388q52 -22 82.5 -65.5t30.5 -101.5q0 -101 -73 -166t-171 -65q-86 0 -144.5 51.5t-58.5 135.5q0 73 42 129t110 84q-78 47 -78 133q0 80 58.5 133.5t142.5 53.5q78 0 123.5 -44t45.5 -110q0 -51 -28 -95.5t-82 -72.5zM124 521q0 -49 35.5 -82t89.5 -33
q63 0 109.5 44t46.5 104q0 48 -33 81t-92 33q-69 0 -112.5 -45t-43.5 -102zM210 34q78 0 137 51.5t59 134.5q0 64 -44.5 104t-113.5 40q-80 0 -137.5 -52.5t-57.5 -132.5q0 -65 45.5 -105t111.5 -40z" />
    <glyph glyph-name="nine" unicode="9" horiz-adv-x="529" 
d="M114 -1l256 308q-58 -37 -122 -37q-86 0 -145.5 56.5t-59.5 142.5q0 101 73.5 170.5t174.5 69.5q88 0 145.5 -55.5t57.5 -143.5q0 -23 -4.5 -47.5t-9.5 -42.5t-18.5 -42.5t-19.5 -36.5t-24.5 -36.5t-22.5 -30t-25 -30.5l-20 -24l-183 -221h-53zM252 314q87 0 142.5 55
t55.5 142q0 69 -47 112t-116 43q-77 0 -138.5 -56t-61.5 -143q0 -70 50 -111.5t115 -41.5z" />
    <glyph glyph-name="colon" unicode=":" horiz-adv-x="161" 
d="M76 454q-20 0 -26 6.5t-4 25.5t7.5 24t24.5 5q20 0 25.5 -6.5t3.5 -25.5t-7.5 -24t-23.5 -5zM27 -5q-19 0 -25 6t-4 26q2 19 8 24t24 5q20 0 25.5 -6t3.5 -26q-2 -19 -7.5 -24t-24.5 -5z" />
    <glyph glyph-name="semicolon" unicode=";" horiz-adv-x="160" 
d="M89 454q-20 0 -25.5 6.5t-3.5 25.5t7.5 24t23.5 5q20 0 26 -6.5t4 -25.5t-7.5 -24t-24.5 -5zM-65 -97l90 197h50l-104 -197h-36z" />
    <glyph glyph-name="less" unicode="&#x3c;" horiz-adv-x="493" 
d="M456 481l-5 -47l-374 -194l334 -192l-6 -48l-393 229l3 23z" />
    <glyph glyph-name="equal" unicode="=" horiz-adv-x="396" 
d="M363 381l-4 -38h-335l4 38h335zM347 221l-5 -37h-335l5 37h335z" />
    <glyph glyph-name="greater" unicode="&#x3e;" horiz-adv-x="493" 
d="M29 481l393 -229l-3 -23l-441 -229l6 48l374 192l-334 194z" />
    <glyph glyph-name="question" unicode="?" horiz-adv-x="490" 
d="M266 707q92 0 145.5 -54t44.5 -141q-4 -38 -26.5 -70.5t-52.5 -57.5t-59.5 -49.5t-52 -56.5t-26.5 -69l-3 -30h-47l3 29q4 43 27 79.5t52.5 61.5t59.5 49t52 53.5t26 62.5q8 72 -32.5 111.5t-111.5 39.5q-70 0 -120.5 -44t-58.5 -130h-47q10 100 73 158t154 58zM204 -5
q-20 0 -25.5 6.5t-3.5 25.5t8 24t24 5q19 0 25 -6t4 -26q-2 -19 -7.5 -24t-24.5 -5z" />
    <glyph glyph-name="at" unicode="@" horiz-adv-x="783" 
d="M411 710q132 0 222 -89t90 -238q0 -97 -34.5 -165.5t-105.5 -68.5q-42 0 -65 27.5t-21 83.5q-24 -58 -67 -85.5t-90 -27.5q-64 0 -111 44t-47 129q0 91 56 156t140 65q47 0 83 -24.5t44 -69.5l17 84h33l-23 -219q-2 -30 -2 -39q0 -86 54 -86q33 0 56 31t32 73t9 90
q0 132 -78 210t-193 78q-140 0 -241.5 -100.5t-101.5 -247.5q0 -128 82 -209t191 -81t186 56l41 -17q-86 -80 -228 -80q-127 0 -221 93t-94 238q0 163 116 276t271 113zM378 501q-58 0 -106.5 -47.5t-48.5 -133.5q0 -66 35 -99.5t82 -33.5q65 0 108.5 55.5t43.5 128.5
q0 61 -33.5 95.5t-80.5 34.5z" />
    <glyph glyph-name="A" unicode="A" horiz-adv-x="694" 
d="M572 0l-62 188h-393l-103 -188h-51l387 700h33l239 -700h-50zM141 230h354l-135 400z" />
    <glyph glyph-name="B" unicode="B" horiz-adv-x="561" 
d="M352 382q65 -13 102 -60t37 -107q0 -105 -74.5 -160t-199.5 -55h-214l74 700h225q89 0 135.5 -41.5t46.5 -105.5q0 -56 -32 -102t-100 -69zM298 657h-179l-26 -256h176q73 0 121 41t48 105q0 51 -36.5 80.5t-103.5 29.5zM220 43q105 0 164.5 44t59.5 131q0 61 -45.5 101
t-132.5 40h-178l-33 -316h165z" />
    <glyph glyph-name="C" unicode="C" horiz-adv-x="664" 
d="M584 74q-110 -84 -240 -84q-129 0 -225 92t-96 232q0 103 55.5 195.5t146.5 146.5t191 54q129 0 223 -84l-33 -33q-77 71 -190 71q-89 0 -169 -48t-127.5 -129t-47.5 -172q0 -121 83.5 -200t195.5 -79q110 0 205 73z" />
    <glyph glyph-name="D" unicode="D" horiz-adv-x="635" 
d="M260 700q154 0 243.5 -101.5t73.5 -252.5q-16 -147 -126 -246.5t-263 -99.5h-185l74 700h183zM190 45q136 0 231 87.5t109 217.5q14 131 -61.5 218t-212.5 87h-137l-64 -610h135z" />
    <glyph glyph-name="E" unicode="E" horiz-adv-x="501" 
d="M55 45h353l-4 -45h-401l74 700h392l-5 -45h-345l-29 -281h273l-5 -45h-273z" />
    <glyph glyph-name="F" unicode="F" horiz-adv-x="488" 
d="M469 658h-349l-29 -285h288l-4 -41h-289l-35 -332h-48l74 700h397z" />
    <glyph glyph-name="G" unicode="G" horiz-adv-x="766" 
d="M433 341h271q-12 -158 -116 -254.5t-243 -96.5q-130 0 -226 92t-96 232q0 103 55.5 195.5t146.5 146.5t191 54q129 0 223 -84l-33 -33q-77 71 -190 71q-89 0 -169 -48t-127.5 -129t-47.5 -172q0 -121 83.5 -200t194.5 -79t196 69t109 193h-227z" />
    <glyph glyph-name="H" unicode="H" horiz-adv-x="608" 
d="M522 700h47l-74 -700h-47l34 319h-398l-34 -319h-47l74 700h47l-35 -336h397z" />
    <glyph glyph-name="I" unicode="I" horiz-adv-x="163" 
d="M124 700l-74 -700h-47l74 700h47z" />
    <glyph glyph-name="J" unicode="J" horiz-adv-x="461" 
d="M422 700l-49 -468q-26 -244 -224 -244q-56 0 -100 26t-64 70l34 28q39 -79 131 -79q76 0 120 47t56 155l49 465h47z" />
    <glyph glyph-name="K" unicode="K" horiz-adv-x="602" 
d="M464 0l-265 341l-124 -118l-24 -223h-48l74 700h48l-43 -414l431 414h60l-341 -327l290 -373h-58z" />
    <glyph glyph-name="L" unicode="L" horiz-adv-x="473" 
d="M55 45h336l-5 -45h-383l74 700h47z" />
    <glyph glyph-name="M" unicode="M" horiz-adv-x="833" 
d="M794 700l-74 -700h-48l63 596l-355 -596h-35l-231 596l-63 -596h-48l74 700h47l243 -632l380 632h47z" />
    <glyph glyph-name="N" unicode="N" horiz-adv-x="667" 
d="M581 700h47l-74 -700h-35l-404 612l-65 -612h-47l74 700h36l404 -614z" />
    <glyph glyph-name="O" unicode="O" horiz-adv-x="796" 
d="M416 710q128 0 224.5 -92t96.5 -232q0 -103 -56 -195.5t-146.5 -146.5t-190.5 -54q-129 0 -225 92t-96 232q0 103 55.5 195.5t146.5 146.5t191 54zM344 36q135 0 240 106.5t105 243.5q0 121 -82.5 199.5t-191.5 78.5q-135 0 -239.5 -106t-104.5 -243q0 -121 82.5 -200
t190.5 -79z" />
    <glyph glyph-name="P" unicode="P" horiz-adv-x="552" 
d="M294 700q114 0 172.5 -62.5t48.5 -157.5q-10 -96 -80.5 -156.5t-184.5 -60.5h-172l-28 -263h-47l74 700h217zM254 307q89 0 147.5 47.5t66.5 128.5t-39 126.5t-136 45.5h-174l-36 -348h171z" />
    <glyph glyph-name="Q" unicode="Q" horiz-adv-x="796" 
d="M737 386q0 -91 -43.5 -173t-116.5 -139l55 -74h-57l-35 48q-92 -58 -196 -58q-129 0 -225 92t-96 232q0 103 55.5 195.5t146.5 146.5t191 54q128 0 224.5 -92t96.5 -232zM344 36q87 0 168 49l-145 198h57l126 -171q64 51 101.5 123t37.5 151q0 121 -82.5 199.5
t-191.5 78.5q-135 0 -239.5 -106t-104.5 -243q0 -121 82.5 -200t190.5 -79z" />
    <glyph glyph-name="R" unicode="R" horiz-adv-x="586" 
d="M496 0h-54l-166 263h-198l-28 -263h-47l74 700h217q114 0 172.5 -62.5t48.5 -157.5q-8 -78 -58 -134.5t-132 -75.5zM83 307h171q89 0 147.5 47.5t66.5 128.5t-39 126.5t-136 45.5h-174z" />
    <glyph glyph-name="S" unicode="S" horiz-adv-x="516" 
d="M280 712q74 0 128 -43.5t68 -105.5l-37 -15q-18 55 -58.5 88t-100.5 33q-77 0 -124.5 -39t-47.5 -102q0 -84 117 -131l50 -20q43 -17 70.5 -32t54.5 -37t40 -51t13 -66q0 -91 -70.5 -148.5t-166.5 -57.5q-88 0 -149.5 48t-72.5 124l41 14q12 -65 60.5 -103.5t121.5 -38.5
q77 0 132.5 45t55.5 115q0 56 -35 86.5t-105 58.5l-54 22q-150 61 -150 172q0 78 61.5 131t157.5 53z" />
    <glyph glyph-name="T" unicode="T" horiz-adv-x="537" 
d="M518 700l-5 -45h-205l-69 -655h-47l69 655h-205l5 45h457z" />
    <glyph glyph-name="U" unicode="U" horiz-adv-x="602" 
d="M516 700h47l-47 -447q-13 -126 -88 -197t-182 -71q-108 0 -169.5 72t-48.5 198l47 445h47l-47 -446q-11 -107 36.5 -165t135.5 -58q89 0 150 59t72 166z" />
    <glyph glyph-name="V" unicode="V" horiz-adv-x="699" 
d="M648 700h50l-387 -700h-33l-239 700h50l212 -630z" />
    <glyph glyph-name="W" unicode="W" horiz-adv-x="958" 
d="M957 700l-299 -700h-25l-144 606l-275 -606h-24l-151 700h47l128 -593l271 593h26l144 -593l255 593h47z" />
    <glyph glyph-name="X" unicode="X" horiz-adv-x="644" 
d="M557 0h-57l-195 323l-265 -323h-57l297 362l-206 338h57l181 -298l244 298h57l-277 -338z" />
    <glyph glyph-name="Y" unicode="Y" horiz-adv-x="623" 
d="M614 700l-296 -363l-36 -337h-47l36 337l-220 363h55l191 -319l262 319h55z" />
    <glyph glyph-name="Z" unicode="Z" horiz-adv-x="593" 
d="M575 700l-511 -657h446l-5 -43h-527l511 658h-416l5 42h497z" />
    <glyph glyph-name="bracketleft" unicode="[" horiz-adv-x="228" 
d="M207 745l-5 -42h-91l-83 -791h90l-3 -42h-138l92 875h138z" />
    <glyph glyph-name="backslash" unicode="\" horiz-adv-x="466" 
d="M64 745h46l248 -875h-46z" />
    <glyph glyph-name="bracketright" unicode="]" horiz-adv-x="229" 
d="M70 745h138l-92 -875h-138l4 42h90l84 791h-91z" />
    <glyph glyph-name="asciicircum" unicode="^" horiz-adv-x="468" 
d="M275 700l143 -225h-47l-121 177l-163 -177h-47l191 225h44z" />
    <glyph glyph-name="underscore" unicode="_" horiz-adv-x="590" 
d="M490 0l-4 -43h-500l4 43h500z" />
    <glyph glyph-name="grave" unicode="`" horiz-adv-x="146" 
d="M34 700h55l62 -129h-32z" />
    <glyph glyph-name="a" unicode="a" 
d="M299 529q70 0 123.5 -33.5t76.5 -96.5l13 121h46l-55 -520h-46l13 118q-36 -62 -95.5 -95t-128.5 -33q-93 0 -165.5 64t-72.5 175q0 123 86.5 211.5t204.5 88.5zM300 487q-102 0 -174 -75t-72 -180q0 -95 60 -147.5t135 -52.5q103 0 171.5 76t68.5 184q0 94 -56 144.5
t-133 50.5z" />
    <glyph glyph-name="b" unicode="b" horiz-adv-x="614" 
d="M316 529q92 0 165.5 -64.5t73.5 -176.5q0 -124 -85.5 -211t-205.5 -87q-70 0 -124 34t-78 96l-13 -120h-46l75 707h46l-32 -306q32 57 94 92.5t130 35.5zM269 32q98 0 169 74.5t71 180.5q0 95 -60 147.5t-136 52.5q-102 0 -171.5 -76t-69.5 -185q0 -94 57 -144t140 -50z
" />
    <glyph glyph-name="c" unicode="c" horiz-adv-x="550" 
d="M301 529q72 0 127 -33.5t81 -95.5l-41 -13q-21 49 -67 74.5t-106 25.5q-98 0 -170 -75.5t-72 -181.5q0 -94 60 -146t135 -52q59 0 110 26.5t83 75.5l39 -17q-39 -62 -100 -94.5t-132 -32.5q-93 0 -166.5 64t-73.5 175q0 125 86 212.5t207 87.5z" />
    <glyph glyph-name="d" unicode="d" 
d="M532 707h46l-75 -707h-46l13 118q-36 -62 -95.5 -95t-128.5 -33q-93 0 -165.5 64t-72.5 175q0 123 86.5 211.5t204.5 88.5q70 0 123.5 -33.5t76.5 -96.5zM300 487q-102 0 -174 -75t-72 -180q0 -95 60 -147.5t135 -52.5q103 0 171.5 76t68.5 184q0 94 -56 144.5t-133 50.5
z" />
    <glyph glyph-name="e" unicode="e" horiz-adv-x="590" 
d="M299 529q90 0 162 -61t72 -170q0 -26 -6 -58h-473q-4 -99 56 -153.5t147 -54.5q115 0 183 69l28 -26q-75 -85 -211 -85q-102 0 -175.5 63t-73.5 175q0 125 86 213t205 88zM298 487q-78 0 -150 -55.5t-89 -152.5h430q5 66 -25 115.5t-74 71t-92 21.5z" />
    <glyph glyph-name="f" unicode="f" horiz-adv-x="342" 
d="M234 676q-49 0 -77.5 -24t-34.5 -86l-5 -46h165l-5 -41h-165l-50 -479h-47l51 479h-51l5 41h50l6 48q14 149 158 149q52 0 101 -30l-22 -31q-35 20 -79 20z" />
    <glyph glyph-name="g" unicode="g" 
d="M512 520h46l-55 -520q-6 -56 -31 -98t-61 -64.5t-73 -33t-74 -10.5q-114 0 -160 46l2 41q45 -45 158 -45q73 0 129 42t64 122l13 118q-36 -62 -95.5 -95t-128.5 -33q-93 0 -165.5 64t-72.5 175q0 123 86.5 211.5t204.5 88.5q70 0 123.5 -33.5t76.5 -96.5zM300 487
q-102 0 -174 -75t-72 -180q0 -95 60 -147.5t135 -52.5q103 0 171.5 76t68.5 184q0 94 -56 144.5t-133 50.5z" />
    <glyph glyph-name="h" unicode="h" horiz-adv-x="550" 
d="M302 528q86 0 138 -55.5t40 -167.5l-32 -305h-46l33 306q10 89 -29.5 134.5t-110.5 45.5q-72 0 -133 -54t-80 -118l-33 -314h-46l75 707h46l-34 -321q15 43 74 92.5t138 49.5z" />
    <glyph glyph-name="i" unicode="i" horiz-adv-x="152" 
d="M124 707l-4 -46h-46l4 46h46zM104 520l-55 -520h-46l55 520h46z" />
    <glyph glyph-name="j" unicode="j" horiz-adv-x="189" 
d="M161 707l-5 -46h-46l5 46h46zM141 520l-62 -586q-8 -76 -39.5 -108t-85.5 -32q-52 0 -81 27l2 44q35 -25 77 -25q71 0 82 94l61 586h46z" />
    <glyph glyph-name="k" unicode="k" horiz-adv-x="514" 
d="M388 0l-222 246l-101 -93l-16 -153h-46l17 162l58 545h46l-52 -496l324 309h58l-255 -243l248 -277h-59z" />
    <glyph glyph-name="l" unicode="l" horiz-adv-x="152" 
d="M124 707l-75 -707h-46l75 707h46z" />
    <glyph glyph-name="m" unicode="m" horiz-adv-x="880" 
d="M645 528q35 0 65.5 -11.5t56 -35.5t37.5 -67t6 -101l-33 -313h-46l34 320q9 84 -27 125t-99 41q-72 0 -123 -49.5t-69 -119.5l-34 -317h-46l34 320q8 83 -30 124.5t-99 41.5q-73 0 -122.5 -52t-66.5 -117l-34 -317h-46l55 520h46l-14 -134q12 46 61.5 94t126.5 48
q58 0 106.5 -35t59.5 -105q24 56 77.5 98t123.5 42z" />
    <glyph glyph-name="n" unicode="n" horiz-adv-x="550" 
d="M302 528q86 0 138 -55.5t40 -167.5l-32 -305h-46l33 306q10 89 -29.5 134.5t-110.5 45.5q-72 0 -133 -54t-80 -118l-33 -314h-46l55 520h46l-14 -134q15 43 74 92.5t138 49.5z" />
    <glyph glyph-name="o" unicode="o" horiz-adv-x="595" 
d="M299 529q92 0 164.5 -64t72.5 -175q0 -124 -85.5 -212t-204.5 -88q-92 0 -165 64t-73 175q0 125 86 212.5t205 87.5zM252 32q39 0 80 16.5t77 47t59 81.5t23 112q0 94 -60 146t-138 52q-39 0 -80 -16.5t-77.5 -47t-59.5 -81.5t-23 -112q0 -94 60 -146t139 -52z" />
    <glyph glyph-name="p" unicode="p" horiz-adv-x="612" 
d="M315 529q99 0 174.5 -73.5t62.5 -198.5q-13 -123 -102.5 -195t-187.5 -72q-70 0 -123 34t-77 96l-33 -310h-46l36 337l39 373h46l-12 -119q36 62 95 95t128 33zM261 32q82 0 158 61t87 168q8 72 -21.5 125.5t-75.5 77t-97 23.5q-85 0 -155 -60t-83 -170
q-11 -108 46.5 -166.5t140.5 -58.5z" />
    <glyph glyph-name="q" unicode="q" 
d="M512 520h46l-55 -520l-20 -190h-46l33 308q-36 -62 -95.5 -95t-128.5 -33q-92 0 -165 64t-73 174q0 124 86.5 212.5t204.5 88.5q70 0 123.5 -33.5t76.5 -96.5zM249 32q103 0 171.5 76t68.5 184q0 94 -55.5 144.5t-132.5 50.5q-102 0 -174.5 -76t-72.5 -181
q0 -93 60 -145.5t135 -52.5z" />
    <glyph glyph-name="r" unicode="r" horiz-adv-x="348" 
d="M304 528q17 0 22 -1l-4 -43q-8 1 -19 1q-78 0 -139.5 -53.5t-83.5 -146.5l-31 -285h-46l55 520h46l-15 -143q18 61 77.5 106t137.5 45z" />
    <glyph glyph-name="s" unicode="s" horiz-adv-x="401" 
d="M302 412q-32 77 -113 77q-51 0 -83.5 -28t-32.5 -72q0 -62 77 -89l46 -16q69 -24 103 -54.5t34 -81.5q0 -74 -56 -116t-125 -42q-71 0 -117.5 36t-53.5 100l40 8q7 -50 43 -76.5t88 -26.5q53 0 94.5 30t41.5 85q0 36 -24 58t-73 39l-55 20q-107 40 -107 126
q0 59 46.5 99.5t114.5 40.5q57 0 95.5 -28.5t54.5 -76.5z" />
    <glyph glyph-name="t" unicode="t" horiz-adv-x="287" 
d="M249 479h-109l-41 -396q-4 -46 35 -46q32 0 68 19l-7 -43q-28 -19 -74 -19q-33 0 -53 20.5t-15 61.5l41 403h-71l5 41h71l13 122h46l-13 -122h109z" />
    <glyph glyph-name="u" unicode="u" horiz-adv-x="540" 
d="M194 -8q-86 0 -138.5 56.5t-40.5 168.5l32 303h46l-32 -306q-9 -89 30 -134t109 -45q74 0 134.5 53.5t78.5 117.5l33 314h46l-55 -520h-46l14 134q-15 -43 -73.5 -92.5t-137.5 -49.5z" />
    <glyph glyph-name="v" unicode="v" horiz-adv-x="545" 
d="M522 520l-286 -520h-33l-176 520h47l152 -450l249 450h47z" />
    <glyph glyph-name="w" unicode="w" horiz-adv-x="918" 
d="M848 520h47l-261 -520h-33l-144 466l-246 -466h-32l-152 520h47l129 -450l236 450h44l140 -450z" />
    <glyph glyph-name="x" unicode="x" horiz-adv-x="519" 
d="M378 0l-148 230l-199 -230h-56l231 265l-167 255h53l143 -219l192 219h53l-221 -255l175 -265h-56z" />
    <glyph glyph-name="y" unicode="y" horiz-adv-x="545" 
d="M474 520h48l-390 -710h-48l113 207l-170 503h46l153 -450z" />
    <glyph glyph-name="z" unicode="z" horiz-adv-x="497" 
d="M472 520l-415 -477h358l-5 -43h-440l414 478h-334l5 42h417z" />
    <glyph glyph-name="braceleft" unicode="{" horiz-adv-x="252" 
d="M231 745l-5 -42h-34q-16 0 -27 -10.5t-13 -26.5l-30 -292l-46 -68l32 -66l-31 -293q-3 -35 30 -35h36l-4 -42h-44q-32 0 -50.5 21.5t-14.5 53.5l30 290l-37 71l52 73l31 293q3 32 25 52.5t54 20.5h46z" />
    <glyph glyph-name="bar" unicode="|" horiz-adv-x="193" 
d="M147 800l-104 -990h-43l104 990h43z" />
    <glyph glyph-name="braceright" unicode="}" horiz-adv-x="252" 
d="M69 745h44q31 0 49.5 -21.5t15.5 -53.5l-31 -291l38 -73l-53 -71l-31 -292q-3 -32 -25 -52.5t-53 -20.5h-46l4 42h34q16 0 27 10.5t13 26.5l31 291l47 66l-33 68l30 294q2 16 -6 25.5t-24 9.5h-36z" />
    <glyph glyph-name="asciitilde" unicode="~" horiz-adv-x="460" 
d="M124 343q38 0 65 -17.5t51 -34.5t54 -17q33 0 51 15t20 34l29 -2q-4 -44 -32.5 -65.5t-69.5 -21.5q-38 0 -66 18t-53.5 35.5t-56.5 17.5q-34 0 -52 -18t-19 -37l-28 2q4 44 35 67.5t72 23.5z" />
    <glyph glyph-name="exclamdown" unicode="&#xa1;" horiz-adv-x="177" 
d="M87 525q20 0 25.5 -6.5t3.5 -25.5t-8 -24t-24 -5q-20 0 -25.5 6t-3.5 26q2 19 7.5 24t24.5 5zM-11 -180l55 521h51l-55 -521h-51z" />
    <glyph glyph-name="cent" unicode="&#xa2;" horiz-adv-x="550" 
d="M269 123q120 7 182 102l39 -17q-38 -60 -97.5 -92.5t-127.5 -34.5l-9 -81h-34l9 83q-86 9 -149.5 72t-63.5 165q0 118 78 204t191 95l9 81h34l-8 -80q68 -2 120 -35.5t77 -93.5l-41 -13q-42 94 -161 100zM63 321q0 -86 51 -137.5t121 -59.5l48 453q-91 -9 -155.5 -82.5
t-64.5 -173.5z" />
    <glyph glyph-name="sterling" unicode="&#xa3;" horiz-adv-x="546" 
d="M494 480h-44q3 32 3 41q0 70 -44 107t-105 37q-72 0 -126.5 -46.5t-54.5 -124.5q0 -15 2 -30.5t6 -33t7.5 -28.5t10 -32.5t9.5 -29.5l168 1l-4 -40l-153 -1q5 -32 5 -65q0 -53 -32 -104.5t-83 -88.5l381 1l-5 -43h-447l4 44q139 93 139 206q0 28 -7 52l-88 -1l4 40l73 1
q-35 103 -35 151q0 93 65 153.5t164 60.5q87 0 138.5 -49.5t51.5 -133.5q0 -20 -3 -44z" />
    <glyph glyph-name="currency" unicode="&#xa4;" horiz-adv-x="522" 
d="M482 474q-8 -76 -60 -135l42 -46l-44 -41l-41 45q-64 -45 -142 -45q-76 0 -133 47l-51 -47l-39 41l53 48q-40 64 -32 137q8 76 60 136l-42 46l45 41l42 -46q64 45 141 45q75 0 132 -47l52 48l39 -41l-53 -48q41 -64 31 -138zM80 474q-7 -72 40 -124t118 -52
q73 0 132.5 53t68.5 127q7 72 -40.5 124t-118.5 52q-73 0 -133 -53.5t-67 -126.5z" />
    <glyph glyph-name="yen" unicode="&#xa5;" horiz-adv-x="623" 
d="M318 337l-8 -74h116l-4 -38h-116l-7 -68h116l-4 -38h-116l-13 -119h-47l13 119h-116l4 38h116l7 68h-116l4 38h116l8 74l-220 363h55l191 -319l262 319h55z" />
    <glyph glyph-name="brokenbar" unicode="&#xa6;" horiz-adv-x="193" 
d="M147 800l-29 -280h-43l29 280h43zM73 90l-30 -280h-43l30 280h43z" />
    <glyph glyph-name="section" unicode="&#xa7;" horiz-adv-x="522" 
d="M288 744q80 0 135 -42.5t74 -105.5l-42 -10q-12 49 -56.5 82.5t-111.5 33.5q-71 0 -121 -36t-57 -96q-6 -52 22 -83t85 -50l78 -26q183 -61 168 -202q-6 -60 -56 -107q40 -52 33 -119q-9 -78 -85 -128t-164 -50q-81 0 -138.5 44.5t-76.5 119.5l40 10q16 -60 62.5 -96
t112.5 -36q76 0 137.5 38t67.5 102q11 106 -121 152l-94 32q-151 52 -138 177q6 65 57 111q-41 46 -33 115q7 73 72.5 121.5t149.5 48.5zM131 432q-41 -39 -45 -87q-6 -53 21.5 -83.5t85.5 -50.5l77 -26q66 -21 106 -54q37 37 43 82q11 105 -121 152l-94 32q-36 12 -73 35z
" />
    <glyph glyph-name="dieresis" unicode="&#xa8;" horiz-adv-x="262" 
d="M67 700l-5 -45h-48l5 45h48zM281 700l-5 -45h-48l5 45h48z" />
    <glyph glyph-name="copyright" unicode="&#xa9;" horiz-adv-x="782" 
d="M409 707q126 0 220 -90.5t94 -229.5q0 -159 -114 -276.5t-271 -117.5q-126 0 -220.5 91t-94.5 230q0 158 114.5 275.5t271.5 117.5zM339 39q140 0 238.5 104t98.5 244q0 120 -81 197t-187 77q-140 0 -239 -104.5t-99 -243.5q0 -120 81.5 -197t187.5 -77zM361 172
q71 0 122 51l28 -37q-69 -59 -151 -59t-140 57t-58 145q0 103 74.5 173.5t165.5 70.5q83 0 142 -61l-33 -33q-37 49 -109 49q-71 0 -132.5 -57.5t-61.5 -141.5q0 -69 46 -113t107 -44z" />
    <glyph glyph-name="ordfeminine" unicode="&#xaa;" horiz-adv-x="367" 
d="M191 705q66 0 92 -35.5t19 -112.5l-10 -96q-4 -18 -1 -35t5 -22t9 -18l-44 2q-14 26 -11 50q-44 -54 -108 -54q-53 0 -83 25.5t-25 74.5q8 76 125 89l105 12q6 81 -73 81q-60 0 -108 -44l-23 27q48 56 131 56zM260 548l-101 -12q-80 -10 -84 -56q-3 -27 15 -42t52 -15
q37 0 68.5 23t43.5 44z" />
    <glyph glyph-name="guillemotleft" unicode="&#xab;" horiz-adv-x="314" 
d="M21 334l134 104l-4 -36l-110 -102l88 -103l-4 -36l-112 104zM152 334l134 104l-4 -36l-109 -102l87 -103l-4 -36l-111 104z" />
    <glyph glyph-name="logicalnot" unicode="&#xac;" horiz-adv-x="474" 
d="M406 302l-16 -153h-47l12 116h-337l4 37h384z" />
    <glyph glyph-name="uni00AD" unicode="&#xad;" horiz-adv-x="400" 
d="M332 301l-4 -37h-310l4 37h310z" />
    <glyph glyph-name="registered" unicode="&#xae;" horiz-adv-x="782" 
d="M409 707q126 0 220 -90.5t94 -229.5q0 -159 -114 -276.5t-271 -117.5q-126 0 -220.5 91t-94.5 230q0 158 114.5 275.5t271.5 117.5zM339 39q140 0 238.5 104t98.5 244q0 120 -81 197t-187 77q-140 0 -239 -104.5t-99 -243.5q0 -120 81.5 -197t187.5 -77zM391 552
q65 0 101.5 -35.5t30.5 -89.5q-5 -48 -35 -79.5t-75 -40.5l102 -151h-49l-101 149h-88l-15 -149h-40l41 396h128zM390 514h-90l-19 -172h89q49 0 78.5 23t33.5 64q5 38 -19.5 61.5t-72.5 23.5z" />
    <glyph glyph-name="macron" unicode="&#xaf;" horiz-adv-x="362" 
d="M381 700l-5 -41h-362l5 41h362z" />
    <glyph glyph-name="degree" unicode="&#xb0;" horiz-adv-x="288" 
d="M190 719q52 0 85 -36.5t28 -88.5q-5 -51 -44.5 -86t-89.5 -35q-52 0 -85 36.5t-28 88.5q5 51 44.5 86t89.5 35zM190 683q-37 0 -66 -25.5t-33 -63.5q-4 -36 19 -60.5t59 -24.5q37 0 66 25.5t33 63.5q4 36 -19 60.5t-59 24.5z" />
    <glyph glyph-name="plusminus" unicode="&#xb1;" horiz-adv-x="421" 
d="M207 301h148l-4 -38h-148l-16 -149h-38l17 149h-150l4 38h149l16 148h38zM-12 1l5 38h335l-5 -38h-335z" />
    <glyph glyph-name="uni00B2" unicode="&#xb2;" horiz-adv-x="262" 
d="M147 704q35 0 58 -23.5t20 -53.5q-3 -26 -19.5 -47t-58.5 -60l-53 -48h118l-3 -32h-168l3 32l74 70q5 4 14 12.5t12 11.5t10 9.5t9 9.5t7 8t6.5 7.5t4 7t3.5 7.5l2.5 7.5t1.5 8.5q1 18 -10.5 30t-29.5 12q-20 0 -36 -13.5t-18 -37.5l-2 -13h-37l2 15q4 35 30 57.5
t60 22.5z" />
    <glyph glyph-name="uni00B3" unicode="&#xb3;" horiz-adv-x="262" 
d="M145 703q33 0 55.5 -21t19.5 -49q-3 -32 -36 -52q17 -7 27.5 -24.5t7.5 -42.5q-3 -33 -32 -55.5t-66 -22.5q-41 0 -64.5 27.5t-18.5 64.5l38 -2q-3 -24 9 -41t35 -17t41.5 14t20.5 36q3 26 -14.5 36t-53.5 10l1 29q64 0 68 44q1 15 -9.5 25t-27.5 10q-22 0 -37 -14.5
t-18 -41.5l-37 2q4 38 29.5 61.5t61.5 23.5z" />
    <glyph glyph-name="acute" unicode="&#xb4;" horiz-adv-x="131" 
d="M150 700l-113 -129h-32l90 129h55z" />
    <glyph glyph-name="uni00B5" unicode="&#xb5;" horiz-adv-x="541" 
d="M447 520h46l-55 -520h-46l14 134q-15 -43 -73.5 -92.5t-137.5 -49.5q-98 0 -148 69l-28 -251h-46l75 710h46l-32 -306q-9 -89 30 -134t109 -45q74 0 134.5 53.5t78.5 117.5z" />
    <glyph glyph-name="paragraph" unicode="&#xb6;" horiz-adv-x="705" 
d="M70 483q10 94 80.5 155.5t184.5 61.5h219l-74 -700h-47l28 263h-170q-115 0 -173 61.5t-48 158.5zM607 700h47l-74 -700h-47zM502 655h-171q-90 0 -148 -46.5t-66 -128.5q-8 -80 39 -126.5t136 -46.5h174z" />
    <glyph glyph-name="periodcentered" unicode="&#xb7;" horiz-adv-x="153" 
d="M39 246q-20 0 -25.5 6t-3.5 26q1 18 7 23t24 5q20 0 25.5 -6t3.5 -26q-1 -18 -7 -23t-24 -5z" />
    <glyph glyph-name="cedilla" unicode="&#xb8;" horiz-adv-x="149" 
d="M1 -47q36 1 60 -22t20 -61q-5 -46 -51 -69t-106 -11l11 24q41 -6 70 13t32 47q3 29 -18.5 44t-52.5 0l-18 21l57 61h47z" />
    <glyph glyph-name="uni00B9" unicode="&#xb9;" horiz-adv-x="213" 
d="M151 701l-27 -261h-37l24 221l-18 -11l-16 31l37 20h37z" />
    <glyph glyph-name="ordmasculine" unicode="&#xba;" horiz-adv-x="378" 
d="M209 705q59 0 103 -44t36 -118q-8 -72 -59.5 -115.5t-109.5 -43.5q-59 0 -103 44.5t-36 118.5q8 72 59.5 115t109.5 43zM208 666q-46 0 -84 -32.5t-44 -90.5q-6 -56 24 -87.5t75 -31.5t83.5 32.5t44.5 90.5q6 56 -24.5 87.5t-74.5 31.5z" />
    <glyph glyph-name="guillemotright" unicode="&#xbb;" horiz-adv-x="314" 
d="M123 334l-7 -69l-134 -104l4 36l109 103l-87 102l4 36zM255 334l-8 -69l-134 -104l4 36l110 103l-88 102l4 36z" />
    <glyph glyph-name="onequarter" unicode="&#xbc;" horiz-adv-x="570" 
d="M120 701l-27 -261h-37l23 221l-17 -11l-16 31l37 20h37zM523 700l-504 -700h-48l510 700h42zM491 261l-16 -154h27l-4 -31h-27l-8 -76h-37l8 76h-132l152 185h37zM448 202l-75 -95h65z" />
    <glyph glyph-name="onehalf" unicode="&#xbd;" horiz-adv-x="545" 
d="M120 701l-27 -261h-37l23 221l-17 -11l-16 31l37 20h37zM523 700l-504 -700h-48l510 700h42zM404 264q35 0 58 -23.5t20 -53.5q-3 -26 -19.5 -47t-58.5 -60l-53 -48h118l-4 -32h-168l4 32l74 70q53 50 61 65q7 11 8 24q2 18 -9.5 30t-29.5 12q-20 0 -36 -13.5t-19 -37.5
l-1 -13h-37l2 15q4 35 30 57.5t60 22.5z" />
    <glyph glyph-name="threequarters" unicode="&#xbe;" horiz-adv-x="587" 
d="M134 703q33 0 55 -21t19 -49q-3 -32 -35 -52q39 -17 35 -67q-4 -33 -33 -55.5t-66 -22.5q-41 0 -64.5 27.5t-18.5 64.5l38 -2q-2 -24 10 -41t35 -17t41 14t20 36q3 26 -14.5 36t-53.5 10l1 29q64 0 69 44q1 15 -10 25t-28 10q-22 0 -37 -14.5t-18 -41.5l-36 2
q3 38 29 61.5t62 23.5zM550 700l-503 -700h-48l509 700h42zM508 261l-16 -154h27l-3 -31h-27l-8 -76h-37l8 76h-132l151 185h37zM465 202l-75 -95h65z" />
    <glyph glyph-name="questiondown" unicode="&#xbf;" horiz-adv-x="490" 
d="M241 525q20 0 25.5 -6.5t3.5 -25.5t-8 -24t-24 -5q-19 0 -25 6t-4 26q2 19 7.5 24t24.5 5zM179 -187q-92 0 -145.5 54t-44.5 141q4 38 26.5 70.5t52.5 57.5t59.5 49.5t52 56.5t26.5 69l3 30h47l-3 -29q-4 -43 -27 -79.5t-52.5 -61.5t-59.5 -49t-52 -53.5t-26 -62.5
q-8 -72 32.5 -111.5t111.5 -39.5q70 0 120.5 44t58.5 130h47q-10 -100 -73 -158t-154 -58z" />
    <glyph glyph-name="Agrave" unicode="&#xc0;" horiz-adv-x="694" 
d="M391 751h-32l-85 129h55zM572 0l-62 188h-394l-103 -188h-50l387 700h33l239 -700h-50zM140 230h355l-135 400z" />
    <glyph glyph-name="Aacute" unicode="&#xc1;" horiz-adv-x="694" 
d="M501 880l-113 -129h-31l90 129h54zM572 0l-62 188h-393l-103 -188h-51l387 700h33l239 -700h-50zM141 230h354l-135 400z" />
    <glyph glyph-name="Acircumflex" unicode="&#xc2;" horiz-adv-x="694" 
d="M384 856l-114 -99h-36l117 123h69l91 -123h-36zM572 0l-62 188h-394l-103 -188h-50l387 700h33l239 -700h-50zM140 230h355l-135 400z" />
    <glyph glyph-name="Atilde" unicode="&#xc3;" horiz-adv-x="694" 
d="M308 863q-31 0 -48 -18t-18 -37l-28 2q5 42 34.5 65.5t62.5 23.5q27 0 49 -10.5t34 -23t28.5 -23t33.5 -10.5q30 0 47 15.5t19 33.5l29 -2q-5 -43 -32.5 -65t-63.5 -22q-26 0 -47 11t-32.5 24.5t-29.5 24.5t-38 11zM572 0l-62 188h-394l-103 -188h-50l387 700h33
l239 -700h-50zM140 230h355l-135 400z" />
    <glyph glyph-name="Adieresis" unicode="&#xc4;" horiz-adv-x="694" 
d="M303 880l-5 -45h-48l5 45h48zM516 880l-4 -45h-48l4 45h48zM572 0l-62 188h-394l-103 -188h-50l387 700h33l239 -700h-50zM140 230h355l-135 400z" />
    <glyph glyph-name="Aring" unicode="&#xc5;" horiz-adv-x="694" 
d="M377 782q-34 0 -55 23t-17 56q2 32 27 54t58 22t54 -23.5t18 -55.5q-4 -32 -29 -54t-56 -22zM389 902q-18 0 -32.5 -13t-15.5 -31q-2 -17 8.5 -29t27.5 -12q18 0 32.5 13t16.5 31q2 17 -9 29t-28 12zM572 0l-62 188h-394l-103 -188h-50l387 700h33l239 -700h-50zM140 230
h355l-135 400z" />
    <glyph glyph-name="AE" unicode="&#xc6;" horiz-adv-x="940" 
d="M494 45h354l-5 -45h-400l25 233h-266l-184 -233h-55l553 700h54h338l-4 -45h-345l-29 -281h272l-4 -45h-273zM234 275h238l36 347z" />
    <glyph glyph-name="Ccedilla" unicode="&#xc7;" horiz-adv-x="664" 
d="M315 -47q36 1 60 -22t20 -61q-5 -46 -51 -69t-106 -11l11 24q41 -6 70 13t32 47q3 29 -18.5 44t-52.5 0l-18 21l51 53q-129 13 -216 114t-72 246q16 152 135 255t256 103q129 0 223 -84l-33 -33q-77 71 -187 71q-121 0 -226.5 -90.5t-119.5 -225.5q-7 -67 13.5 -126.5
t60 -99.5t92 -63t109.5 -23q111 0 206 73l30 -35q-101 -78 -227 -84z" />
    <glyph glyph-name="Egrave" unicode="&#xc8;" horiz-adv-x="501" 
d="M305 751h-32l-85 129h55zM55 45h353l-4 -45h-401l74 700h392l-5 -45h-345l-29 -281h273l-5 -45h-273z" />
    <glyph glyph-name="Eacute" unicode="&#xc9;" horiz-adv-x="501" 
d="M415 880l-113 -129h-31l90 129h54zM55 45h353l-4 -45h-401l74 700h392l-5 -45h-345l-29 -281h273l-5 -45h-273z" />
    <glyph glyph-name="Ecircumflex" unicode="&#xca;" horiz-adv-x="501" 
d="M297 856l-114 -99h-36l117 123h69l92 -123h-37zM55 45h353l-4 -45h-401l74 700h392l-5 -45h-345l-29 -281h273l-5 -45h-273z" />
    <glyph glyph-name="Edieresis" unicode="&#xcb;" horiz-adv-x="501" 
d="M216 880l-4 -45h-48l5 45h47zM430 880l-5 -45h-48l5 45h48zM55 45h353l-4 -45h-401l74 700h392l-5 -45h-345l-29 -281h273l-5 -45h-273z" />
    <glyph glyph-name="Igrave" unicode="&#xcc;" horiz-adv-x="167" 
d="M10 880h55l62 -129h-32zM126 700l-74 -700h-47l74 700h47z" />
    <glyph glyph-name="Iacute" unicode="&#xcd;" horiz-adv-x="167" 
d="M237 880l-113 -129h-31l90 129h54zM126 700l-74 -700h-47l74 700h47z" />
    <glyph glyph-name="Icircumflex" unicode="&#xce;" horiz-adv-x="167" 
d="M156 880l91 -123h-36l-91 99l-114 -99h-37l118 123h69zM126 700l-74 -700h-47l74 700h47z" />
    <glyph glyph-name="Idieresis" unicode="&#xcf;" horiz-adv-x="167" 
d="M39 880l-5 -45h-48l5 45h48zM252 880l-4 -45h-48l4 45h48zM126 700l-74 -700h-47l74 700h47z" />
    <glyph glyph-name="Eth" unicode="&#xd0;" horiz-adv-x="643" 
d="M268 700q154 0 243.5 -101.5t73.5 -252.5q-16 -147 -126 -246.5t-263 -99.5h-185l35 332h-58l3 37h59l35 331h183zM197 45q137 0 231.5 87.5t109.5 217.5q14 131 -61.5 218t-212.5 87h-137l-30 -286h205l-4 -37h-205l-31 -287h135z" />
    <glyph glyph-name="Ntilde" unicode="&#xd1;" horiz-adv-x="667" 
d="M297 899q27 0 49.5 -10.5t34 -23t28 -23t33.5 -10.5q30 0 47.5 15.5t19.5 33.5l29 -2q-5 -43 -32.5 -65t-63.5 -22q-33 0 -57 18t-44.5 35.5t-45.5 17.5q-31 0 -48 -18t-18 -37l-29 2q5 42 34.5 65.5t62.5 23.5zM581 700h47l-74 -700h-35l-404 612l-65 -612h-47l74 700
h36l404 -614z" />
    <glyph glyph-name="Ograve" unicode="&#xd2;" horiz-adv-x="796" 
d="M325 880h54l63 -129h-32zM416 710q66 0 127 -27t106.5 -74t69.5 -115.5t16 -145.5q-16 -152 -135.5 -255t-255.5 -103q-89 0 -165.5 45.5t-120.5 130t-33 186.5q16 152 135 255t256 103zM345 36q118 0 223 90.5t119 225.5q14 133 -70.5 222.5t-201.5 89.5
q-118 0 -223 -90.5t-119 -225.5q-7 -67 13.5 -126.5t59.5 -99.5t91.5 -63t107.5 -23z" />
    <glyph glyph-name="Oacute" unicode="&#xd3;" horiz-adv-x="796" 
d="M552 880l-113 -129h-32l90 129h55zM416 710q66 0 127 -27t106.5 -74t69.5 -115.5t16 -145.5q-16 -152 -135.5 -255t-255.5 -103q-89 0 -165.5 45.5t-120.5 130t-33 186.5q16 152 135 255t256 103zM345 36q118 0 223 90.5t119 225.5q14 133 -70.5 222.5t-201.5 89.5
q-118 0 -223 -90.5t-119 -225.5q-7 -67 13.5 -126.5t59.5 -99.5t91.5 -63t107.5 -23z" />
    <glyph glyph-name="Ocircumflex" unicode="&#xd4;" horiz-adv-x="796" 
d="M470 880l91 -123h-36l-91 99l-114 -99h-36l117 123h69zM416 710q66 0 127 -27t106.5 -74t69.5 -115.5t16 -145.5q-16 -152 -135.5 -255t-255.5 -103q-89 0 -165.5 45.5t-120.5 130t-33 186.5q16 152 135 255t256 103zM345 36q118 0 223 90.5t119 225.5
q14 133 -70.5 222.5t-201.5 89.5q-118 0 -223 -90.5t-119 -225.5q-7 -67 13.5 -126.5t59.5 -99.5t91.5 -63t107.5 -23z" />
    <glyph glyph-name="Otilde" unicode="&#xd5;" horiz-adv-x="796" 
d="M361 899q27 0 49 -10.5t34 -23t28.5 -23t33.5 -10.5q30 0 47.5 15.5t19.5 33.5l29 -2q-5 -43 -32.5 -65t-63.5 -22q-33 0 -57 18t-44.5 35.5t-45.5 17.5q-31 0 -48.5 -18t-18.5 -37l-28 2q5 42 34.5 65.5t62.5 23.5zM416 710q66 0 127 -27t106.5 -74t69.5 -115.5
t16 -145.5q-16 -152 -135.5 -255t-255.5 -103q-89 0 -165.5 45.5t-120.5 130t-33 186.5q16 152 135 255t256 103zM345 36q118 0 223 90.5t119 225.5q14 133 -70.5 222.5t-201.5 89.5q-118 0 -223 -90.5t-119 -225.5q-7 -67 13.5 -126.5t59.5 -99.5t91.5 -63t107.5 -23z" />
    <glyph glyph-name="Odieresis" unicode="&#xd6;" horiz-adv-x="796" 
d="M353 880l-5 -45h-48l5 45h48zM567 880l-5 -45h-48l5 45h48zM416 710q66 0 127 -27t106.5 -74t69.5 -115.5t16 -145.5q-16 -152 -135.5 -255t-255.5 -103q-89 0 -165.5 45.5t-120.5 130t-33 186.5q16 152 135 255t256 103zM345 36q118 0 223 90.5t119 225.5
q14 133 -70.5 222.5t-201.5 89.5q-118 0 -223 -90.5t-119 -225.5q-7 -67 13.5 -126.5t59.5 -99.5t91.5 -63t107.5 -23z" />
    <glyph glyph-name="multiply" unicode="&#xd7;" horiz-adv-x="333" 
d="M301 388l-116 -105l94 -106l-29 -26l-94 106l-117 -106l-23 26l116 105l-94 106l29 26l94 -105l117 105z" />
    <glyph glyph-name="Oslash" unicode="&#xd8;" horiz-adv-x="796" 
d="M589 659q74 -48 115 -130t31 -181q-16 -152 -135.5 -255t-255.5 -103q-69 0 -129 27l-40 -67h-48l51 87q-77 47 -120 130t-33 185q16 152 135 255t256 103q73 0 135 -30l40 65h48zM73 348q-9 -87 26.5 -158t101.5 -112l328 560q-59 26 -114 26q-118 0 -223 -90.5
t-119 -225.5zM345 36q118 0 223 90.5t119 225.5q9 85 -24.5 154.5t-97.5 111.5l-327 -559q56 -23 107 -23z" />
    <glyph glyph-name="Ugrave" unicode="&#xd9;" horiz-adv-x="602" 
d="M239 880h55l62 -129h-32zM516 700h47l-47 -447q-13 -126 -88 -197t-182 -71q-108 0 -169.5 72t-48.5 198l47 445h47l-47 -446q-11 -107 36.5 -165t135.5 -58q89 0 150 59t72 166z" />
    <glyph glyph-name="Uacute" unicode="&#xda;" horiz-adv-x="602" 
d="M466 880l-113 -129h-31l90 129h54zM516 700h47l-47 -447q-13 -126 -88 -197t-182 -71q-108 0 -169.5 72t-48.5 198l47 445h47l-47 -446q-11 -107 36.5 -165t135.5 -58q89 0 150 59t72 166z" />
    <glyph glyph-name="Ucircumflex" unicode="&#xdb;" horiz-adv-x="602" 
d="M384 880l92 -123h-37l-91 99l-114 -99h-36l117 123h69zM516 700h47l-47 -447q-13 -126 -88 -197t-182 -71q-108 0 -169.5 72t-48.5 198l47 445h47l-47 -446q-11 -107 36.5 -165t135.5 -58q89 0 150 59t72 166z" />
    <glyph glyph-name="Udieresis" unicode="&#xdc;" horiz-adv-x="602" 
d="M268 880l-5 -45h-48l5 45h48zM481 880l-5 -45h-48l5 45h48zM516 700h47l-47 -447q-13 -126 -88 -197t-182 -71q-108 0 -169.5 72t-48.5 198l47 445h47l-47 -446q-11 -107 36.5 -165t135.5 -58q89 0 150 59t72 166z" />
    <glyph glyph-name="Yacute" unicode="&#xdd;" horiz-adv-x="623" 
d="M467 880l-113 -129h-31l90 129h54zM614 700l-296 -363l-36 -337h-47l36 337l-220 363h55l191 -319l262 319h55z" />
    <glyph glyph-name="Thorn" unicode="&#xde;" horiz-adv-x="571" 
d="M291 565q115 0 177 -59.5t52 -155.5q-10 -101 -82.5 -156t-190.5 -55h-182l-15 -139h-47l74 700h47l-14 -135h181zM252 182q99 0 156 44t66 128q8 77 -40 123t-144 46h-185l-35 -341h182z" />
    <glyph glyph-name="germandbls" unicode="&#xdf;" horiz-adv-x="573" 
d="M291 700q102 0 158.5 -46t48.5 -124q-13 -117 -124 -147q72 -17 104.5 -65.5t24.5 -116.5q-21 -201 -277 -201h-97l5 43h97q207 0 226 161q8 76 -42.5 117t-157.5 41h-90l5 41h88q88 0 135.5 30t55.5 101q7 59 -36.5 91.5t-124.5 32.5q-172 0 -186 -137l-55 -521h-46
l55 523q9 81 69 129t164 48z" />
    <glyph glyph-name="agrave" unicode="&#xe0;" 
d="M238 700h55l62 -129h-32zM299 529q70 0 123.5 -33.5t76.5 -96.5l13 121h46l-55 -520h-46l13 118q-36 -62 -95.5 -95t-128.5 -33q-93 0 -165.5 64t-72.5 175q0 123 86.5 211.5t204.5 88.5zM300 487q-102 0 -174 -75t-72 -180q0 -95 60 -147.5t135 -52.5q103 0 171.5 76
t68.5 184q0 94 -56 144.5t-133 50.5z" />
    <glyph glyph-name="aacute" unicode="&#xe1;" 
d="M465 700l-113 -129h-31l90 129h54zM299 529q70 0 123.5 -33.5t76.5 -96.5l13 121h46l-55 -520h-46l13 118q-36 -62 -95.5 -95t-128.5 -33q-93 0 -165.5 64t-72.5 175q0 123 86.5 211.5t204.5 88.5zM300 487q-102 0 -174 -75t-72 -180q0 -95 60 -147.5t135 -52.5
q103 0 171.5 76t68.5 184q0 94 -56 144.5t-133 50.5z" />
    <glyph glyph-name="acircumflex" unicode="&#xe2;" 
d="M383 700l92 -123h-37l-91 99l-114 -99h-36l117 123h69zM299 529q70 0 123.5 -33.5t76.5 -96.5l13 121h46l-55 -520h-46l13 118q-36 -62 -95.5 -95t-128.5 -33q-93 0 -165.5 64t-72.5 175q0 123 86.5 211.5t204.5 88.5zM300 487q-102 0 -174 -75t-72 -180q0 -95 60 -147.5
t135 -52.5q103 0 171.5 76t68.5 184q0 94 -56 144.5t-133 50.5z" />
    <glyph glyph-name="atilde" unicode="&#xe3;" 
d="M274 719q27 0 49.5 -10.5t34.5 -23t28.5 -23t33.5 -10.5q30 0 47 15.5t19 33.5l29 -2q-5 -43 -32.5 -65t-62.5 -22q-33 0 -57 18t-45 35.5t-46 17.5q-31 0 -48 -18t-18 -37l-27 2q3 42 32.5 65.5t62.5 23.5zM299 529q70 0 123.5 -33.5t76.5 -96.5l13 121h46l-55 -520h-46
l13 118q-36 -62 -95.5 -95t-128.5 -33q-93 0 -165.5 64t-72.5 175q0 123 86.5 211.5t204.5 88.5zM300 487q-102 0 -174 -75t-72 -180q0 -95 60 -147.5t135 -52.5q103 0 171.5 76t68.5 184q0 94 -56 144.5t-133 50.5z" />
    <glyph glyph-name="adieresis" unicode="&#xe4;" 
d="M266 700l-4 -45h-48l5 45h47zM480 700l-5 -45h-48l5 45h48zM299 529q70 0 123.5 -33.5t76.5 -96.5l13 121h46l-55 -520h-46l13 118q-36 -62 -95.5 -95t-128.5 -33q-93 0 -165.5 64t-72.5 175q0 123 86.5 211.5t204.5 88.5zM300 487q-102 0 -174 -75t-72 -180
q0 -95 60 -147.5t135 -52.5q103 0 171.5 76t68.5 184q0 94 -56 144.5t-133 50.5z" />
    <glyph glyph-name="aring" unicode="&#xe5;" 
d="M354 757q33 0 54 -23.5t18 -55.5q-4 -32 -28.5 -54t-55.5 -22q-34 0 -56 23.5t-18 55.5q3 32 28 54t58 22zM353 722q-18 0 -32.5 -13t-15.5 -31q-2 -17 8 -29t27 -12q19 0 34 13t16 31q2 17 -9 29t-28 12zM299 529q70 0 123.5 -33.5t76.5 -96.5l13 121h46l-55 -520h-46
l13 118q-36 -62 -95.5 -95t-128.5 -33q-93 0 -165.5 64t-72.5 175q0 123 86.5 211.5t204.5 88.5zM300 487q-102 0 -174 -75t-72 -180q0 -95 60 -147.5t135 -52.5q103 0 171.5 76t68.5 184q0 94 -56 144.5t-133 50.5z" />
    <glyph glyph-name="ae" unicode="&#xe6;" horiz-adv-x="1067" 
d="M776 529q46 0 90.5 -18t81 -52t53 -91.5t3.5 -127.5h-473q-4 -99 56.5 -153.5t147.5 -54.5q115 0 181 72l29 -28q-75 -86 -211 -86q-70 0 -129 30t-90 86l-12 -106h-46l13 118q-36 -62 -95.5 -95t-128.5 -33q-93 0 -165.5 64t-72.5 175q0 123 86.5 211.5t204.5 88.5
q70 0 123.5 -33.5t76.5 -96.5l13 121h46l-11 -104q43 54 106 83.5t123 29.5zM249 32q103 0 171.5 76t68.5 184q0 94 -56 144.5t-133 50.5q-102 0 -174 -75t-72 -180q0 -95 60 -147.5t135 -52.5zM775 487q-77 0 -149.5 -55.5t-89.5 -152.5l430 2q7 96 -53.5 151t-137.5 55z
" />
    <glyph glyph-name="ccedilla" unicode="&#xe7;" horiz-adv-x="550" 
d="M249 32q58 0 109 26.5t83 75.5l39 -17q-77 -120 -217 -126l-42 -38q37 1 60.5 -22t19.5 -61q-5 -46 -51 -69t-106 -11l11 24q41 -6 70 13t32 47q3 29 -18.5 44t-52.5 0l-17 21l50 53q-93 10 -157.5 81.5t-51.5 187.5q13 124 102 196t189 72q72 0 127 -33.5t81 -95.5
l-41 -13q-21 49 -65.5 74.5t-102.5 25.5q-38 0 -78 -14.5t-75.5 -42t-60.5 -72.5t-31 -101q-10 -106 51 -165.5t143 -59.5z" />
    <glyph glyph-name="egrave" unicode="&#xe8;" horiz-adv-x="590" 
d="M304 571h-32l-85 129h55zM299 529q90 0 162 -61t72 -170q0 -26 -6 -58h-473q-4 -99 56 -153.5t147 -54.5q115 0 183 69l28 -26q-75 -85 -211 -85q-102 0 -175.5 63t-73.5 175q0 125 86 213t205 88zM298 487q-78 0 -150 -55.5t-89 -152.5h430q5 66 -25 115.5t-74 71
t-92 21.5z" />
    <glyph glyph-name="eacute" unicode="&#xe9;" horiz-adv-x="590" 
d="M414 700l-113 -129h-31l90 129h54zM299 529q90 0 162 -61t72 -170q0 -26 -6 -58h-473q-4 -99 56 -153.5t147 -54.5q115 0 183 69l28 -26q-75 -85 -211 -85q-102 0 -175.5 63t-73.5 175q0 125 86 213t205 88zM298 487q-78 0 -150 -55.5t-89 -152.5h430q5 66 -25 115.5
t-74 71t-92 21.5z" />
    <glyph glyph-name="ecircumflex" unicode="&#xea;" horiz-adv-x="590" 
d="M296 676l-114 -99h-36l117 123h69l92 -123h-37zM299 529q90 0 162 -61t72 -170q0 -26 -6 -58h-473q-4 -99 56 -153.5t147 -54.5q115 0 183 69l28 -26q-75 -85 -211 -85q-102 0 -175.5 63t-73.5 175q0 125 86 213t205 88zM298 487q-78 0 -150 -55.5t-89 -152.5h430
q5 66 -25 115.5t-74 71t-92 21.5z" />
    <glyph glyph-name="edieresis" unicode="&#xeb;" horiz-adv-x="590" 
d="M216 700l-5 -45h-48l5 45h48zM429 700l-5 -45h-48l5 45h48zM299 529q90 0 162 -61t72 -170q0 -26 -6 -58h-473q-4 -99 56 -153.5t147 -54.5q115 0 183 69l28 -26q-75 -85 -211 -85q-102 0 -175.5 63t-73.5 175q0 125 86 213t205 88zM298 487q-78 0 -150 -55.5t-89 -152.5
h430q5 66 -25 115.5t-74 71t-92 21.5z" />
    <glyph glyph-name="igrave" unicode="&#xec;" horiz-adv-x="154" 
d="M-8 700h54l63 -129h-32zM106 520l-55 -520h-46l55 520h46z" />
    <glyph glyph-name="iacute" unicode="&#xed;" horiz-adv-x="165" 
d="M217 700l-113 -129h-32l90 129h55zM104 520l-55 -520h-46l55 520h46z" />
    <glyph glyph-name="icircumflex" unicode="&#xee;" horiz-adv-x="167" 
d="M137 700l91 -123h-36l-91 99l-114 -99h-36l117 123h69zM106 520l-55 -520h-46l55 520h46z" />
    <glyph glyph-name="idieresis" unicode="&#xef;" horiz-adv-x="167" 
d="M20 700l-5 -45h-48l5 45h48zM234 700l-5 -45h-48l5 45h48zM106 520l-55 -520h-46l55 520h46z" />
    <glyph glyph-name="eth" unicode="&#xf0;" horiz-adv-x="553" 
d="M379 587q57 -87 82.5 -165.5t15.5 -171.5q-13 -123 -86.5 -191.5t-178.5 -68.5q-99 0 -157 70.5t-46 193.5q14 127 80 196.5t174 69.5q96 0 141 -52l-74 114l-106 -15l4 30l85 12l-60 91h52l58 -85l87 12l-3 -30zM212 33q85 0 145.5 56.5t71.5 164.5q26 223 -166 223
q-184 0 -207 -227q-11 -105 34.5 -161t121.5 -56z" />
    <glyph glyph-name="ntilde" unicode="&#xf1;" horiz-adv-x="550" 
d="M220 719q27 0 49 -10.5t34 -23t28.5 -23t33.5 -10.5q30 0 47 15.5t19 33.5l29 -2q-5 -43 -32.5 -65t-62.5 -22q-33 0 -57 18t-45 35.5t-46 17.5q-31 0 -48 -18t-18 -37l-27 2q4 42 33.5 65.5t62.5 23.5zM302 528q86 0 138 -55.5t40 -167.5l-32 -305h-46l33 306
q10 89 -29.5 134.5t-110.5 45.5q-72 0 -133 -54t-80 -118l-33 -314h-46l55 520h46l-14 -134q15 43 74 92.5t138 49.5z" />
    <glyph glyph-name="ograve" unicode="&#xf2;" horiz-adv-x="594" 
d="M208 700h54l62 -129h-31zM299 529q100 0 174 -73t61 -198q-13 -124 -101.5 -196t-186.5 -72q-46 0 -90 17.5t-79.5 50.5t-54.5 86t-12 118q13 123 102 195t187 72zM298 487q-82 0 -157 -61t-86 -168q-10 -106 50.5 -166t141.5 -60q51 0 102 24t91.5 78.5t48.5 127.5
q6 54 -9.5 98.5t-44.5 71.5t-64.5 41t-72.5 14z" />
    <glyph glyph-name="oacute" unicode="&#xf3;" horiz-adv-x="594" 
d="M435 700l-113 -129h-32l90 129h55zM299 529q100 0 174 -73t61 -198q-13 -124 -101.5 -196t-186.5 -72q-46 0 -90 17.5t-79.5 50.5t-54.5 86t-12 118q13 123 102 195t187 72zM298 487q-82 0 -157 -61t-86 -168q-10 -106 50.5 -166t141.5 -60q51 0 102 24t91.5 78.5
t48.5 127.5q6 54 -9.5 98.5t-44.5 71.5t-64.5 41t-72.5 14z" />
    <glyph glyph-name="ocircumflex" unicode="&#xf4;" horiz-adv-x="594" 
d="M353 700l91 -123h-36l-91 99l-114 -99h-36l117 123h69zM299 529q100 0 174 -73t61 -198q-13 -124 -101.5 -196t-186.5 -72q-46 0 -90 17.5t-79.5 50.5t-54.5 86t-12 118q13 123 102 195t187 72zM298 487q-82 0 -157 -61t-86 -168q-10 -106 50.5 -166t141.5 -60
q51 0 102 24t91.5 78.5t48.5 127.5q6 54 -9.5 98.5t-44.5 71.5t-64.5 41t-72.5 14z" />
    <glyph glyph-name="otilde" unicode="&#xf5;" horiz-adv-x="594" 
d="M244 719q27 0 49 -10.5t34 -23t28.5 -23t33.5 -10.5q30 0 47 15t19 34l30 -2q-5 -43 -32.5 -65t-62.5 -22q-26 0 -47.5 11t-33 24.5t-29.5 24.5t-38 11q-31 0 -48.5 -18t-18.5 -37l-27 2q4 42 33.5 65.5t62.5 23.5zM299 529q100 0 174 -73t61 -198q-13 -124 -101.5 -196
t-186.5 -72q-46 0 -90 17.5t-79.5 50.5t-54.5 86t-12 118q13 123 102 195t187 72zM298 487q-82 0 -157 -61t-86 -168q-10 -106 50.5 -166t141.5 -60q51 0 102 24t91.5 78.5t48.5 127.5q6 54 -9.5 98.5t-44.5 71.5t-64.5 41t-72.5 14z" />
    <glyph glyph-name="odieresis" unicode="&#xf6;" horiz-adv-x="594" 
d="M236 700l-5 -45h-48l5 45h48zM450 700l-5 -45h-48l5 45h48zM299 529q100 0 174 -73t61 -198q-13 -124 -101.5 -196t-186.5 -72q-46 0 -90 17.5t-79.5 50.5t-54.5 86t-12 118q13 123 102 195t187 72zM298 487q-82 0 -157 -61t-86 -168q-10 -106 50.5 -166t141.5 -60
q51 0 102 24t91.5 78.5t48.5 127.5q6 54 -9.5 98.5t-44.5 71.5t-64.5 41t-72.5 14z" />
    <glyph glyph-name="divide" unicode="&#xf7;" horiz-adv-x="395" 
d="M186 388q-20 0 -25.5 6t-3.5 26q1 18 7 23t25 5t24.5 -6t3.5 -26q-1 -18 -7 -23t-24 -5zM354 301l-4 -37h-335l4 37h335zM156 104q-20 0 -25.5 6t-3.5 26q1 19 7 24t25 5t24.5 -6.5t3.5 -26.5q-2 -18 -7.5 -23t-23.5 -5z" />
    <glyph glyph-name="oslash" unicode="&#xf8;" horiz-adv-x="594" 
d="M429 492q55 -34 84.5 -93.5t20.5 -140.5q-13 -124 -101.5 -196t-186.5 -72q-49 0 -97 20l-37 -60h-45l47 79q-54 34 -83.5 93.5t-20.5 139.5q13 123 102 195t187 72q49 0 95 -18l40 67h45zM55 258q-13 -129 80 -192l238 406q-42 15 -75 15q-82 0 -157 -61t-86 -168z
M247 32q51 0 102 24t91.5 78.5t48.5 127.5q13 130 -81 192l-239 -406q42 -16 78 -16z" />
    <glyph glyph-name="ugrave" unicode="&#xf9;" horiz-adv-x="540" 
d="M183 700h55l62 -129h-32zM194 -8q-86 0 -138.5 56.5t-40.5 168.5l32 303h46l-32 -306q-9 -89 30 -134t109 -45q74 0 134.5 53.5t78.5 117.5l33 314h46l-55 -520h-46l14 134q-15 -43 -73.5 -92.5t-137.5 -49.5z" />
    <glyph glyph-name="uacute" unicode="&#xfa;" horiz-adv-x="540" 
d="M410 700l-113 -129h-31l90 129h54zM194 -8q-86 0 -138.5 56.5t-40.5 168.5l32 303h46l-32 -306q-9 -89 30 -134t109 -45q74 0 134.5 53.5t78.5 117.5l33 314h46l-55 -520h-46l14 134q-15 -43 -73.5 -92.5t-137.5 -49.5z" />
    <glyph glyph-name="ucircumflex" unicode="&#xfb;" horiz-adv-x="540" 
d="M328 700l91 -123h-36l-91 99l-114 -99h-36l117 123h69zM194 -8q-86 0 -138.5 56.5t-40.5 168.5l32 303h46l-32 -306q-9 -89 30 -134t109 -45q74 0 134.5 53.5t78.5 117.5l33 314h46l-55 -520h-46l14 134q-15 -43 -73.5 -92.5t-137.5 -49.5z" />
    <glyph glyph-name="udieresis" unicode="&#xfc;" horiz-adv-x="540" 
d="M211 700l-4 -45h-48l4 45h48zM425 700l-5 -45h-48l5 45h48zM194 -8q-86 0 -138.5 56.5t-40.5 168.5l32 303h46l-32 -306q-9 -89 30 -134t109 -45q74 0 134.5 53.5t78.5 117.5l33 314h46l-55 -520h-46l14 134q-15 -43 -73.5 -92.5t-137.5 -49.5z" />
    <glyph glyph-name="yacute" unicode="&#xfd;" horiz-adv-x="545" 
d="M405 700l-113 -129h-32l91 129h54zM474 520h48l-390 -710h-48l113 207l-170 503h46l153 -450z" />
    <glyph glyph-name="thorn" unicode="&#xfe;" horiz-adv-x="612" 
d="M315 529q99 0 174.5 -73.5t62.5 -198.5q-13 -123 -102.5 -195t-187.5 -72q-70 0 -123 34t-77 96l-33 -310h-46l36 337l39 373l20 187h46l-32 -306q36 62 95 95t128 33zM261 32q82 0 158 61t87 168q8 72 -21.5 125.5t-75.5 77t-97 23.5q-85 0 -155 -60t-83 -170
q-11 -108 46.5 -166.5t140.5 -58.5z" />
    <glyph glyph-name="ydieresis" unicode="&#xff;" horiz-adv-x="545" 
d="M216 700l-5 -45h-48l5 45h48zM429 700l-4 -45h-48l5 45h47zM474 520h48l-390 -710h-48l113 207l-170 503h46l153 -450z" />
    <glyph glyph-name="Amacron" unicode="&#x100;" horiz-adv-x="694" 
d="M566 880l-4 -41h-362l5 41h361zM572 0l-62 188h-394l-103 -188h-50l387 700h33l239 -700h-50zM140 230h355l-135 400z" />
    <glyph glyph-name="amacron" unicode="&#x101;" 
d="M530 700l-5 -41h-361l5 41h361zM299 529q70 0 123.5 -33.5t76.5 -96.5l13 121h46l-55 -520h-46l13 118q-36 -62 -95.5 -95t-128.5 -33q-93 0 -165.5 64t-72.5 175q0 123 86.5 211.5t204.5 88.5zM300 487q-102 0 -174 -75t-72 -180q0 -95 60 -147.5t135 -52.5
q103 0 171.5 76t68.5 184q0 94 -56 144.5t-133 50.5z" />
    <glyph glyph-name="Abreve" unicode="&#x102;" horiz-adv-x="694" 
d="M373 749q-62 0 -95 40.5t-29 91.5l34 -2q2 -39 24 -65t66 -26q46 0 75 27t39 66l34 -2q-7 -51 -47.5 -90.5t-100.5 -39.5zM572 0l-62 188h-394l-103 -188h-50l387 700h33l239 -700h-50zM140 230h355l-135 400z" />
    <glyph glyph-name="abreve" unicode="&#x103;" 
d="M485 699q-7 -51 -48 -90.5t-100 -39.5q-62 0 -94.5 40.5t-29.5 91.5l33 -2q2 -38 24.5 -64.5t66.5 -26.5q46 0 75 27t39 66zM299 529q70 0 123.5 -33.5t76.5 -96.5l13 121h46l-55 -520h-46l13 118q-36 -62 -95.5 -95t-128.5 -33q-93 0 -165.5 64t-72.5 175
q0 123 86.5 211.5t204.5 88.5zM300 487q-102 0 -174 -75t-72 -180q0 -95 60 -147.5t135 -52.5q103 0 171.5 76t68.5 184q0 94 -56 144.5t-133 50.5z" />
    <glyph glyph-name="Aogonek" unicode="&#x104;" horiz-adv-x="695" 
d="M476 -123q-3 -30 20 -43.5t58 -4.5l11 -27q-26 -8 -57.5 -8t-55 23t-19.5 62q4 41 43 72t95 49l-61 188h-394l-103 -188h-50l387 700h33l240 -700q-140 -54 -147 -123zM140 230h355l-135 400z" />
    <glyph glyph-name="aogonek" unicode="&#x105;" 
d="M504 0q-76 -27 -106 -54.5t-34 -63.5q-4 -32 18.5 -46t57.5 -6l10 -28q-26 -8 -57.5 -8t-55 23t-19.5 62q4 42 42.5 75t95.5 46l14 118q-36 -62 -95.5 -95t-128.5 -33q-99 0 -174 73t-62 198q13 124 102 196t187 72q70 0 123.5 -33.5t76.5 -96.5l13 121h46zM249 32
q85 0 156 60t82 169t-46 167.5t-140 58.5q-38 0 -78 -14.5t-75.5 -42t-61 -72.5t-31.5 -101q-10 -105 51.5 -165t142.5 -60z" />
    <glyph glyph-name="Cacute" unicode="&#x106;" horiz-adv-x="664" 
d="M516 880l-113 -129h-31l90 129h54zM584 74q-110 -84 -240 -84q-129 0 -225 92t-96 232q0 103 55.5 195.5t146.5 146.5t191 54q129 0 223 -84l-33 -33q-77 71 -190 71q-89 0 -169 -48t-127.5 -129t-47.5 -172q0 -121 83.5 -200t195.5 -79q110 0 205 73z" />
    <glyph glyph-name="cacute" unicode="&#x107;" horiz-adv-x="550" 
d="M429 700l-113 -129h-32l91 129h54zM301 529q72 0 127 -33.5t81 -95.5l-41 -13q-21 49 -67 74.5t-106 25.5q-99 0 -171 -75.5t-71 -182.5q1 -93 60.5 -145t135.5 -52q58 0 109 26.5t83 75.5l39 -17q-39 -62 -100 -94.5t-132 -32.5q-93 0 -166 63.5t-74 173.5
q-1 125 85 213.5t208 88.5z" />
    <glyph glyph-name="Cdotaccent" unicode="&#x10a;" horiz-adv-x="664" 
d="M424 880l-5 -45h-48l5 45h48zM584 74q-110 -84 -240 -84q-129 0 -225 92t-96 232q0 103 55.5 195.5t146.5 146.5t191 54q129 0 223 -84l-33 -33q-77 71 -190 71q-89 0 -169 -48t-127.5 -129t-47.5 -172q0 -121 83.5 -200t195.5 -79q110 0 205 73z" />
    <glyph glyph-name="cdotaccent" unicode="&#x10b;" horiz-adv-x="550" 
d="M337 700l-5 -45h-48l5 45h48zM301 529q72 0 127 -33.5t81 -95.5l-41 -13q-21 49 -67 74.5t-106 25.5q-98 0 -170 -75.5t-72 -181.5q0 -94 60 -146t135 -52q59 0 110 26.5t83 75.5l39 -17q-39 -62 -100 -94.5t-132 -32.5q-93 0 -166.5 64t-73.5 175q0 125 86 212.5
t207 87.5z" />
    <glyph glyph-name="Ccaron" unicode="&#x10c;" horiz-adv-x="664" 
d="M422 757h-70l-91 123h37l91 -98l114 98h36zM584 74q-110 -84 -240 -84q-129 0 -225 92t-96 232q0 103 55.5 195.5t146.5 146.5t191 54q129 0 223 -84l-33 -33q-77 71 -190 71q-89 0 -169 -48t-127.5 -129t-47.5 -172q0 -121 83.5 -200t195.5 -79q110 0 205 73z" />
    <glyph glyph-name="ccaron" unicode="&#x10d;" horiz-adv-x="550" 
d="M334 577h-69l-91 123h36l92 -98l113 98h36zM301 529q72 0 127 -33.5t81 -95.5l-41 -13q-21 49 -67 74.5t-106 25.5q-98 0 -170 -75.5t-72 -181.5q0 -94 60 -146t135 -52q59 0 110 26.5t83 75.5l39 -17q-39 -62 -100 -94.5t-132 -32.5q-93 0 -166.5 64t-73.5 175
q0 125 86 212.5t207 87.5z" />
    <glyph glyph-name="Dcaron" unicode="&#x10e;" horiz-adv-x="635" 
d="M379 757h-69l-91 123h36l92 -98l113 98h36zM260 700q154 0 243.5 -101.5t73.5 -252.5q-16 -147 -126 -246.5t-263 -99.5h-185l74 700h183zM190 45q136 0 231 87.5t109 217.5q14 131 -61.5 218t-212.5 87h-137l-64 -610h135z" />
    <glyph glyph-name="dcaron" unicode="&#x10f;" horiz-adv-x="706" 
d="M532 707h46l-75 -707h-46l13 118q-36 -62 -95.5 -95t-128.5 -33q-93 0 -165.5 64t-72.5 175q0 123 86.5 211.5t204.5 88.5q70 0 123.5 -33.5t76.5 -96.5zM671 700h54l-113 -129h-31zM300 487q-102 0 -174 -75t-72 -180q0 -95 60 -147.5t135 -52.5q103 0 171.5 76
t68.5 184q0 94 -56 144.5t-133 50.5z" />
    <glyph glyph-name="Dcroat" unicode="&#x110;" horiz-adv-x="642" 
d="M268 700q154 0 243.5 -101.5t72.5 -252.5q-16 -147 -125.5 -246.5t-263.5 -99.5h-184l35 332h-58l3 37h58l36 331h183zM197 45q137 0 231.5 87.5t109.5 217.5q14 131 -61.5 218t-212.5 87h-137l-31 -286h205l-3 -37h-205l-31 -287h135z" />
    <glyph glyph-name="dcroat" unicode="&#x111;" horiz-adv-x="621" 
d="M633 635l-4 -41h-63l-23 -221l-40 -373h-46l13 118q-36 -62 -95.5 -95t-128.5 -33q-99 0 -174 73t-62 198q13 124 102 196t187 72q70 0 123.5 -33.5t76.5 -96.5l21 195h-253l4 41h253l8 72h46l-8 -72h63zM249 32q85 0 156 60t82 169t-46 167.5t-140 58.5q-38 0 -78 -14.5
t-75.5 -42t-61 -72.5t-31.5 -101q-10 -105 51.5 -165t142.5 -60z" />
    <glyph glyph-name="Emacron" unicode="&#x112;" horiz-adv-x="501" 
d="M480 880l-5 -41h-361l5 41h361zM55 45h353l-4 -45h-401l74 700h392l-5 -45h-345l-29 -281h273l-5 -45h-273z" />
    <glyph glyph-name="emacron" unicode="&#x113;" horiz-adv-x="590" 
d="M479 700l-5 -41h-361l5 41h361zM299 529q90 0 162 -61t72 -170q0 -26 -6 -58h-473q-4 -99 56 -153.5t147 -54.5q115 0 183 69l28 -26q-75 -85 -211 -85q-102 0 -175.5 63t-73.5 175q0 125 86 213t205 88zM298 487q-78 0 -150 -55.5t-89 -152.5h430q5 66 -25 115.5t-74 71
t-92 21.5z" />
    <glyph glyph-name="Edotaccent" unicode="&#x116;" horiz-adv-x="501" 
d="M323 880l-5 -45h-48l5 45h48zM55 45h353l-4 -45h-401l74 700h392l-5 -45h-345l-29 -281h273l-5 -45h-273z" />
    <glyph glyph-name="edotaccent" unicode="&#x117;" horiz-adv-x="590" 
d="M322 700l-5 -45h-48l5 45h48zM299 529q90 0 162 -61t72 -170q0 -26 -6 -58h-473q-4 -99 56 -153.5t147 -54.5q115 0 183 69l28 -26q-75 -85 -211 -85q-102 0 -175.5 63t-73.5 175q0 125 86 213t205 88zM298 487q-78 0 -150 -55.5t-89 -152.5h430q5 66 -25 115.5t-74 71
t-92 21.5z" />
    <glyph glyph-name="Eogonek" unicode="&#x118;" horiz-adv-x="502" 
d="M405 0q-74 -29 -108 -58t-38 -65q-3 -30 20.5 -43.5t57.5 -4.5l12 -27q-27 -8 -58.5 -8t-55 23t-19.5 62q4 41 44 72t98 49h-355l74 700h392l-5 -45h-345l-29 -281h273l-5 -45h-273l-30 -284h353z" />
    <glyph glyph-name="eogonek" unicode="&#x119;" horiz-adv-x="590" 
d="M299 529q46 0 90.5 -18t81 -52t53 -91.5t3.5 -127.5h-473q-4 -99 56 -153.5t147 -54.5q116 0 182 72l29 -28q-49 -56 -127 -77q-76 -26 -106.5 -53.5t-34.5 -63.5q-4 -32 18.5 -46.5t57.5 -5.5l11 -28q-27 -8 -58.5 -8t-55 23t-19.5 62q4 35 32.5 65.5t70.5 45.5
q-110 -1 -185 71.5t-62 200.5q13 123 102 195t187 72zM298 487q-77 0 -149.5 -55.5t-89.5 -152.5l430 2q7 96 -53.5 151t-137.5 55z" />
    <glyph glyph-name="Ecaron" unicode="&#x11a;" horiz-adv-x="501" 
d="M320 757h-69l-91 123h36l92 -98l113 98h36zM55 45h353l-4 -45h-401l74 700h392l-5 -45h-345l-29 -281h273l-5 -45h-273z" />
    <glyph glyph-name="ecaron" unicode="&#x11b;" horiz-adv-x="590" 
d="M319 577h-69l-91 123h36l92 -98l113 98h36zM299 529q90 0 162 -61t72 -170q0 -26 -6 -58h-473q-4 -99 56 -153.5t147 -54.5q115 0 183 69l28 -26q-75 -85 -211 -85q-102 0 -175.5 63t-73.5 175q0 125 86 213t205 88zM298 487q-78 0 -150 -55.5t-89 -152.5h430
q5 66 -25 115.5t-74 71t-92 21.5z" />
    <glyph glyph-name="Gbreve" unicode="&#x11e;" horiz-adv-x="766" 
d="M431 749q-63 0 -95.5 40.5t-28.5 91.5l33 -2q2 -39 24 -65t67 -26q46 0 75 27t39 66l33 -2q-7 -51 -47.5 -90.5t-99.5 -39.5zM433 341h271q-12 -158 -116 -254.5t-243 -96.5q-130 0 -226 92t-96 232q0 103 55.5 195.5t146.5 146.5t191 54q129 0 223 -84l-33 -33
q-77 71 -190 71q-89 0 -169 -48t-127.5 -129t-47.5 -172q0 -121 83.5 -200t194.5 -79t196 69t109 193h-227z" />
    <glyph glyph-name="gbreve" unicode="&#x11f;" 
d="M330 569q-62 0 -94.5 40t-29.5 92l33 -2q2 -39 24 -65t67 -26t74.5 27t39.5 66l33 -2q-7 -51 -47.5 -90.5t-99.5 -39.5zM512 520h46l-55 -520q-6 -56 -31 -98t-61 -64.5t-73 -33t-74 -10.5q-114 0 -160 46l2 41q45 -45 158 -45q73 0 129 42t64 122l13 118
q-36 -62 -95.5 -95t-128.5 -33q-93 0 -165.5 64t-72.5 175q0 123 86.5 211.5t204.5 88.5q70 0 123.5 -33.5t76.5 -96.5zM300 487q-102 0 -174 -75t-72 -180q0 -95 60 -147.5t135 -52.5q103 0 171.5 76t68.5 184q0 94 -56 144.5t-133 50.5z" />
    <glyph glyph-name="Gdotaccent" unicode="&#x120;" horiz-adv-x="766" 
d="M466 880l-4 -45h-48l4 45h48zM433 341h271q-12 -158 -116 -254.5t-243 -96.5q-130 0 -226 92t-96 232q0 103 55.5 195.5t146.5 146.5t191 54q129 0 223 -84l-33 -33q-77 71 -190 71q-89 0 -169 -48t-127.5 -129t-47.5 -172q0 -121 83.5 -200t194.5 -79t196 69t109 193
h-227z" />
    <glyph glyph-name="gdotaccent" unicode="&#x121;" 
d="M365 700l-4 -45h-48l4 45h48zM512 520h46l-55 -520q-6 -56 -31 -98t-61 -64.5t-73 -33t-74 -10.5q-114 0 -160 46l2 41q45 -45 158 -45q73 0 129 42t64 122l13 118q-36 -62 -95.5 -95t-128.5 -33q-93 0 -165.5 64t-72.5 175q0 123 86.5 211.5t204.5 88.5
q70 0 123.5 -33.5t76.5 -96.5zM300 487q-102 0 -174 -75t-72 -180q0 -95 60 -147.5t135 -52.5q103 0 171.5 76t68.5 184q0 94 -56 144.5t-133 50.5z" />
    <glyph glyph-name="Gcommaaccent" unicode="&#x122;" horiz-adv-x="766" 
d="M433 341h271q-12 -158 -116 -254.5t-243 -96.5q-130 0 -226 92t-96 232q0 103 55.5 195.5t146.5 146.5t191 54q129 0 223 -84l-33 -33q-77 71 -190 71q-89 0 -169 -48t-127.5 -129t-47.5 -172q0 -121 83.5 -200t194.5 -79t196 69t109 193h-227zM212 -214l90 178h65
l-115 -178h-40z" />
    <glyph glyph-name="gcommaaccent" unicode="&#x123;" 
d="M417 802l-89 -177h-65l115 177h39zM512 520h46l-55 -520q-6 -56 -31 -98t-61 -64.5t-73 -33t-74 -10.5q-114 0 -160 46l2 41q45 -45 158 -45q73 0 129 42t64 122l13 118q-36 -62 -95.5 -95t-128.5 -33q-93 0 -165.5 64t-72.5 175q0 123 86.5 211.5t204.5 88.5
q70 0 123.5 -33.5t76.5 -96.5zM300 487q-102 0 -174 -75t-72 -180q0 -95 60 -147.5t135 -52.5q103 0 171.5 76t68.5 184q0 94 -56 144.5t-133 50.5z" />
    <glyph glyph-name="Hbar" unicode="&#x126;" horiz-adv-x="608" 
d="M522 700h47l-74 -700h-47l34 319h-398l-34 -319h-47l74 700h47l-17 -162h397zM89 364h397l14 128h-398z" />
    <glyph glyph-name="hbar" unicode="&#x127;" horiz-adv-x="563" 
d="M315 528q86 0 138 -56.5t40 -168.5l-32 -303h-46l33 306q9 89 -30.5 134.5t-109.5 45.5q-73 0 -133.5 -54t-79.5 -118l-33 -314h-46l61 581h-71l4 33h71l10 93h46l-10 -93h120l-4 -33h-120l-20 -195q15 43 74 92.5t138 49.5z" />
    <glyph glyph-name="Imacron" unicode="&#x12a;" horiz-adv-x="167" 
d="M302 880l-4 -41h-362l5 41h361zM126 700l-74 -700h-47l74 700h47z" />
    <glyph glyph-name="imacron" unicode="&#x12b;" horiz-adv-x="167" 
d="M284 700l-5 -41h-362l5 41h362zM106 520l-55 -520h-46l55 520h46z" />
    <glyph glyph-name="Iogonek" unicode="&#x12e;" horiz-adv-x="164" 
d="M52 0q-74 -29 -108 -58t-38 -65q-3 -30 20.5 -43.5t57.5 -4.5l12 -27q-26 -8 -57.5 -8t-55.5 23t-20 62q4 41 43.5 72t96.5 49l75 700h47z" />
    <glyph glyph-name="iogonek" unicode="&#x12f;" horiz-adv-x="155" 
d="M78 700h48l-4 -45h-48zM4 0l56 520h46l-54 -520q-74 -29 -107.5 -58t-37.5 -65q-3 -30 20.5 -43.5t57.5 -4.5l11 -27q-26 -8 -57.5 -8t-55 23t-19.5 62q4 41 43.5 72t96.5 49z" />
    <glyph glyph-name="Idotaccent" unicode="&#x130;" horiz-adv-x="167" 
d="M145 880l-5 -45h-48l5 45h48zM126 700l-74 -700h-47l74 700h47z" />
    <glyph glyph-name="dotlessi" unicode="&#x131;" horiz-adv-x="152" 
d="M104 520l-55 -520h-46l55 520h46z" />
    <glyph glyph-name="IJ" unicode="&#x132;" horiz-adv-x="625" 
d="M124 700l-74 -700h-47l74 700h47zM586 700l-49 -468q-26 -244 -224 -244q-56 0 -100 26t-64 70l34 28q39 -79 131 -79q76 0 120 47t56 155l49 465h47z" />
    <glyph glyph-name="ij" unicode="&#x133;" horiz-adv-x="353" 
d="M124 707l-4 -46h-46l4 46h46zM325 707l-4 -46h-46l4 46h46zM104 520l-55 -520h-46l55 520h46zM305 520l-62 -586q-8 -76 -39 -108t-85 -32t-81 27l1 44q35 -25 77 -25q72 0 82 94l61 586h46z" />
    <glyph glyph-name="Kcommaaccent" unicode="&#x136;" horiz-adv-x="602" 
d="M232 373l290 -373h-58l-265 341l-124 -118l-24 -223h-48l74 700h48l-43 -414l431 414h60zM141 -214l89 178h65l-115 -178h-39z" />
    <glyph glyph-name="kcommaaccent" unicode="&#x137;" horiz-adv-x="514" 
d="M199 277l248 -277h-59l-222 246l-101 -93l-16 -153h-46l17 162l58 545h46l-52 -496l324 309h58zM79 -214l90 178h65l-116 -178h-39z" />
    <glyph glyph-name="Lacute" unicode="&#x139;" horiz-adv-x="473" 
d="M250 878l-113 -129h-32l90 129h55zM55 45h336l-5 -45h-383l74 700h47z" />
    <glyph glyph-name="lacute" unicode="&#x13a;" horiz-adv-x="165" 
d="M236 887l-113 -129h-32l90 129h55zM124 707l-75 -707h-46l75 707h46z" />
    <glyph glyph-name="Lcommaaccent" unicode="&#x13b;" horiz-adv-x="473" 
d="M55 45h336l-5 -45h-383l74 700h47zM70 -214l89 178h66l-116 -178h-39z" />
    <glyph glyph-name="lcommaaccent" unicode="&#x13c;" horiz-adv-x="163" 
d="M126 707l-75 -707h-46l75 707h46zM-98 -214l89 178h66l-116 -178h-39z" />
    <glyph glyph-name="Lcaron" unicode="&#x13d;" horiz-adv-x="473" 
d="M338 737l-104 -197h-36l90 197h50zM55 45h336l-5 -45h-383l74 700h47z" />
    <glyph glyph-name="lcaron" unicode="&#x13e;" horiz-adv-x="334" 
d="M124 707l-75 -707h-46l75 707h46zM180 503l90 197h50l-103 -197h-37z" />
    <glyph glyph-name="Ldot" unicode="&#x13f;" horiz-adv-x="473" 
d="M55 45h336l-5 -45h-383l74 700h47zM269 333q-19 0 -24.5 6t-3.5 26q1 18 7 23t24 5q20 0 25.5 -6t3.5 -26q-1 -18 -7 -23t-25 -5z" />
    <glyph glyph-name="ldot" unicode="&#x140;" horiz-adv-x="263" 
d="M124 707l-75 -707h-46l75 707h46zM187 331q-19 0 -25 6t-5 26q2 18 8 23t25 5t24.5 -6t3.5 -26q-2 -18 -7.5 -23t-23.5 -5z" />
    <glyph glyph-name="Lslash" unicode="&#x141;" horiz-adv-x="531" 
d="M113 45h336l-5 -45h-383l26 246l-68 -64l7 63l68 64l41 391h47l-36 -341l168 159h1l-7 -62l-168 -161z" />
    <glyph glyph-name="lslash" unicode="&#x142;" horiz-adv-x="321" 
d="M291 519l-7 -63l-120 -114l-35 -342h-47l32 295l-120 -114l7 64l120 113l36 349h47l-33 -301l119 113h1z" />
    <glyph glyph-name="Nacute" unicode="&#x143;" horiz-adv-x="667" 
d="M488 880l-113 -129h-31l90 129h54zM581 700h47l-74 -700h-35l-404 612l-65 -612h-47l74 700h36l404 -614z" />
    <glyph glyph-name="nacute" unicode="&#x144;" horiz-adv-x="550" 
d="M410 700l-113 -129h-31l90 129h54zM302 528q86 0 138 -55.5t40 -167.5l-32 -305h-46l33 306q10 89 -29.5 134.5t-110.5 45.5q-72 0 -133 -54t-80 -118l-33 -314h-46l55 520h46l-14 -134q15 43 74 92.5t138 49.5z" />
    <glyph glyph-name="Ncommaaccent" unicode="&#x145;" horiz-adv-x="667" 
d="M581 700h47l-74 -700h-35l-404 612l-65 -612h-47l74 700h36l404 -614zM154 -214l89 178h65l-115 -178h-39z" />
    <glyph glyph-name="ncommaaccent" unicode="&#x146;" horiz-adv-x="550" 
d="M302 528q86 0 138 -55.5t40 -167.5l-32 -305h-46l33 306q10 89 -29.5 134.5t-110.5 45.5q-72 0 -133 -54t-80 -118l-33 -314h-46l55 520h46l-14 -134q15 43 74 92.5t138 49.5zM95 -214l89 178h65l-115 -178h-39z" />
    <glyph glyph-name="Ncaron" unicode="&#x147;" horiz-adv-x="667" 
d="M393 757h-69l-91 123h36l92 -98l113 98h36zM581 700h47l-74 -700h-35l-404 612l-65 -612h-47l74 700h36l404 -614z" />
    <glyph glyph-name="ncaron" unicode="&#x148;" horiz-adv-x="550" 
d="M315 577h-69l-91 123h36l92 -98l113 98h36zM302 528q86 0 138 -55.5t40 -167.5l-32 -305h-46l33 306q10 89 -29.5 134.5t-110.5 45.5q-72 0 -133 -54t-80 -118l-33 -314h-46l55 520h46l-14 -134q15 43 74 92.5t138 49.5z" />
    <glyph glyph-name="Eng" unicode="&#x14a;" horiz-adv-x="667" 
d="M582 700h46l-69 -660l-1 -6q-26 -244 -224 -244q-56 0 -100 26t-64 70l35 28q37 -79 130 -79q72 0 116 42t58 139l-394 595l-65 -611h-47l74 700h36l404 -613z" />
    <glyph glyph-name="eng" unicode="&#x14b;" horiz-adv-x="550" 
d="M302 528q86 0 138 -56.5t40 -168.5l-32 -303l-7 -66q-8 -76 -39 -108t-85 -32t-81 27l1 44q35 -25 78 -25q71 0 81 94l11 113l28 259q9 89 -30.5 134.5t-109.5 45.5q-73 0 -133.5 -54t-79.5 -118l-33 -314h-46l55 520h46l-14 -134q15 43 74 92.5t138 49.5z" />
    <glyph glyph-name="Omacron" unicode="&#x14c;" horiz-adv-x="796" 
d="M617 880l-5 -41h-362l5 41h362zM416 710q66 0 127 -27t106.5 -74t69.5 -115.5t16 -145.5q-16 -152 -135.5 -255t-255.5 -103q-89 0 -165.5 45.5t-120.5 130t-33 186.5q16 152 135 255t256 103zM345 36q118 0 223 90.5t119 225.5q14 133 -70.5 222.5t-201.5 89.5
q-118 0 -223 -90.5t-119 -225.5q-7 -67 13.5 -126.5t59.5 -99.5t91.5 -63t107.5 -23z" />
    <glyph glyph-name="omacron" unicode="&#x14d;" horiz-adv-x="594" 
d="M499 700l-4 -41h-362l5 41h361zM299 529q100 0 174 -73t61 -198q-13 -124 -101.5 -196t-186.5 -72q-46 0 -90 17.5t-79.5 50.5t-54.5 86t-12 118q13 123 102 195t187 72zM298 487q-82 0 -157 -61t-86 -168q-10 -106 50.5 -166t141.5 -60q51 0 102 24t91.5 78.5
t48.5 127.5q6 54 -9.5 98.5t-44.5 71.5t-64.5 41t-72.5 14z" />
    <glyph glyph-name="Ohungarumlaut" unicode="&#x150;" horiz-adv-x="796" 
d="M440 880l-114 -129h-31l90 129h55zM583 880l-114 -129h-31l90 129h55zM416 710q66 0 127 -27t106.5 -74t69.5 -115.5t16 -145.5q-16 -152 -135.5 -255t-255.5 -103q-89 0 -165.5 45.5t-120.5 130t-33 186.5q16 152 135 255t256 103zM345 36q118 0 223 90.5t119 225.5
q14 133 -70.5 222.5t-201.5 89.5q-118 0 -223 -90.5t-119 -225.5q-7 -67 13.5 -126.5t59.5 -99.5t91.5 -63t107.5 -23z" />
    <glyph glyph-name="ohungarumlaut" unicode="&#x151;" horiz-adv-x="594" 
d="M322 700l-113 -129h-31l90 129h54zM465 700l-113 -129h-31l90 129h54zM299 529q100 0 174 -73t61 -198q-13 -124 -101.5 -196t-186.5 -72q-46 0 -90 17.5t-79.5 50.5t-54.5 86t-12 118q13 123 102 195t187 72zM298 487q-82 0 -157 -61t-86 -168q-10 -106 50.5 -166
t141.5 -60q51 0 102 24t91.5 78.5t48.5 127.5q6 54 -9.5 98.5t-44.5 71.5t-64.5 41t-72.5 14z" />
    <glyph glyph-name="OE" unicode="&#x152;" horiz-adv-x="1145" 
d="M699 45h354l-5 -45h-401l18 166q-57 -81 -144.5 -128.5t-176.5 -47.5t-165.5 45.5t-120.5 130t-33 186.5q16 152 135 255t256 103q90 0 168.5 -48t119.5 -130l17 168h392l-4 -45h-345l-30 -281h273l-5 -45h-272zM345 36q134 0 229.5 88t110.5 228q15 139 -62 225.5
t-208 86.5q-118 0 -223 -90.5t-119 -225.5q-7 -67 13.5 -126.5t59.5 -99.5t91.5 -63t107.5 -23z" />
    <glyph glyph-name="oe" unicode="&#x153;" horiz-adv-x="1069" 
d="M778 529q47 0 91.5 -18t80.5 -52t52.5 -91.5t3.5 -127.5h-473q-4 -99 56.5 -153.5t147.5 -54.5q115 0 181 72l29 -28q-75 -86 -211 -86q-81 0 -146 40.5t-90 113.5q-41 -73 -112.5 -113.5t-141.5 -40.5q-46 0 -90 17.5t-79.5 50.5t-54.5 86t-12 118q13 123 102 195
t187 72q72 0 135.5 -40.5t89.5 -113.5q41 73 112 113.5t142 40.5zM247 32q51 0 102 24t91.5 78.5t48.5 127.5q6 54 -9.5 98.5t-44.5 71.5t-64.5 41t-72.5 14q-82 0 -157 -61t-86 -168q-10 -106 50.5 -166t141.5 -60zM777 487q-77 0 -149.5 -55.5t-89.5 -152.5l431 2
q6 96 -54.5 151t-137.5 55z" />
    <glyph glyph-name="Racute" unicode="&#x154;" horiz-adv-x="586" 
d="M445 880l-113 -129h-32l91 129h54zM496 0h-54l-166 263h-198l-28 -263h-47l74 700h217q114 0 172.5 -62.5t48.5 -157.5q-8 -78 -58 -134.5t-132 -75.5zM83 307h171q89 0 147.5 47.5t66.5 128.5t-39 126.5t-136 45.5h-174z" />
    <glyph glyph-name="racute" unicode="&#x155;" horiz-adv-x="347" 
d="M312 700l-113 -129h-32l90 129h55zM304 528q14 0 19 -1l-2 -43q-7 1 -18 1q-78 0 -139.5 -53.5t-83.5 -146.5l-31 -285h-46l55 520h46l-15 -143q18 61 77.5 106t137.5 45z" />
    <glyph glyph-name="Rcommaaccent" unicode="&#x156;" horiz-adv-x="586" 
d="M496 0h-54l-166 263h-198l-28 -263h-47l74 700h217q114 0 172.5 -62.5t48.5 -157.5q-8 -78 -58 -134.5t-132 -75.5zM83 307h171q89 0 147.5 47.5t66.5 128.5t-39 126.5t-136 45.5h-174zM110 -214l89 178h65l-115 -178h-39z" />
    <glyph glyph-name="rcommaaccent" unicode="&#x157;" horiz-adv-x="349" 
d="M306 528q14 0 19 -1l-2 -43q-7 1 -18 1q-78 0 -139.5 -53.5t-83.5 -146.5l-31 -285h-46l55 520h46l-15 -143q18 61 77.5 106t137.5 45zM-97 -214l90 178h65l-116 -178h-39z" />
    <glyph glyph-name="Rcaron" unicode="&#x158;" horiz-adv-x="586" 
d="M350 757h-69l-91 123h36l92 -98l113 98h36zM496 0h-54l-166 263h-198l-28 -263h-47l74 700h217q114 0 172.5 -62.5t48.5 -157.5q-8 -78 -58 -134.5t-132 -75.5zM83 307h171q89 0 147.5 47.5t66.5 128.5t-39 126.5t-136 45.5h-174z" />
    <glyph glyph-name="rcaron" unicode="&#x159;" horiz-adv-x="367" 
d="M236 577h-69l-91 123h36l92 -98l113 98h36zM324 528q13 0 19 -1l-3 -43q-7 1 -17 1q-78 0 -139.5 -53.5t-84.5 -146.5l-30 -285h-46l55 520h46l-15 -143q18 61 77.5 106t137.5 45z" />
    <glyph glyph-name="Sacute" unicode="&#x15a;" horiz-adv-x="516" 
d="M419 880l-113 -129h-31l90 129h54zM280 712q74 0 128 -43.5t68 -105.5l-37 -15q-18 55 -58.5 88t-100.5 33q-77 0 -124.5 -39t-47.5 -102q0 -84 117 -131l50 -20q43 -17 70.5 -32t54.5 -37t40 -51t13 -66q0 -91 -70.5 -148.5t-166.5 -57.5q-88 0 -149.5 48t-72.5 124
l41 14q12 -65 60.5 -103.5t121.5 -38.5q77 0 132.5 45t55.5 115q0 56 -35 86.5t-105 58.5l-54 22q-150 61 -150 172q0 78 61.5 131t157.5 53z" />
    <glyph glyph-name="sacute" unicode="&#x15b;" horiz-adv-x="401" 
d="M330 700l-113 -129h-32l91 129h54zM302 412q-32 77 -111 77q-47 0 -79.5 -25.5t-36.5 -64.5q-3 -34 14 -58t64 -41l43 -16q74 -27 108 -60.5t28 -92.5q-7 -66 -63 -103.5t-122 -37.5q-67 0 -113 36.5t-53 99.5l40 8q7 -50 42.5 -77t84.5 -27q51 0 92.5 27t46.5 75
q5 43 -19 67.5t-77 43.5l-55 20q-116 42 -106 139q6 55 51.5 91t109.5 36q56 0 95 -28.5t54 -76.5z" />
    <glyph glyph-name="Scedilla" unicode="&#x15e;" horiz-adv-x="518" 
d="M453 167q-8 -75 -73.5 -126t-151.5 -56l-37 -32q36 1 60 -22t20 -61q-5 -46 -51 -69t-106 -11l11 24q41 -6 70 13t32 47q3 29 -18.5 44t-52.5 0l-17 21l45 48q-76 8 -128.5 54.5t-61.5 115.5l43 15q11 -65 59 -104t119 -39q72 0 128 40.5t62 101.5q7 65 -28 99t-111 64
l-54 22q-162 67 -149 188q8 72 69 120t149 48q74 0 128 -43.5t68 -105.5l-38 -16q-18 56 -58.5 89t-100.5 33q-69 0 -116.5 -36.5t-53.5 -92.5q-10 -92 116 -143l50 -20q46 -19 75 -35t57 -40t39 -57.5t6 -77.5z" />
    <glyph glyph-name="scedilla" unicode="&#x15f;" horiz-adv-x="401" 
d="M332 131q-6 -64 -57.5 -101t-116.5 -40l-42 -37q36 1 60 -22t20 -61q-5 -46 -51 -69t-106 -11l11 24q41 -6 70 13t32 47q3 29 -18.5 44t-52.5 0l-17 21l51 53q-56 8 -92 43t-42 91l40 8q7 -50 42.5 -77t84.5 -27q51 0 92.5 27t46.5 75q5 43 -19 67.5t-77 43.5l-55 20
q-116 42 -106 139q6 55 51.5 91t109.5 36q56 0 95 -28.5t54 -76.5l-38 -12q-32 77 -111 77q-47 0 -79.5 -25.5t-36.5 -64.5q-3 -34 14 -58t64 -41l43 -16q74 -27 108 -60.5t28 -92.5z" />
    <glyph glyph-name="Scaron" unicode="&#x160;" horiz-adv-x="516" 
d="M324 757h-69l-91 123h36l92 -98l113 98h36zM280 712q74 0 128 -43.5t68 -105.5l-37 -15q-18 55 -58.5 88t-100.5 33q-77 0 -124.5 -39t-47.5 -102q0 -84 117 -131l50 -20q43 -17 70.5 -32t54.5 -37t40 -51t13 -66q0 -91 -70.5 -148.5t-166.5 -57.5q-88 0 -149.5 48
t-72.5 124l41 14q12 -65 60.5 -103.5t121.5 -38.5q77 0 132.5 45t55.5 115q0 56 -35 86.5t-105 58.5l-54 22q-150 61 -150 172q0 78 61.5 131t157.5 53z" />
    <glyph glyph-name="scaron" unicode="&#x161;" horiz-adv-x="401" 
d="M235 577h-69l-91 123h36l92 -98l113 98h36zM302 412q-32 77 -111 77q-47 0 -79.5 -25.5t-36.5 -64.5q-3 -34 14 -58t64 -41l43 -16q74 -27 108 -60.5t28 -92.5q-7 -66 -63 -103.5t-122 -37.5q-67 0 -113 36.5t-53 99.5l40 8q7 -50 42.5 -77t84.5 -27q51 0 92.5 27
t46.5 75q5 43 -19 67.5t-77 43.5l-55 20q-116 42 -106 139q6 55 51.5 91t109.5 36q56 0 95 -28.5t54 -76.5z" />
    <glyph glyph-name="uni0162" unicode="&#x162;" horiz-adv-x="537" 
d="M308 655l-69 -655l-51 -47q36 1 60 -22t20 -61q-5 -46 -51 -69t-106 -11l11 24q41 -6 70 13t32 47q3 29 -18.5 44t-52.5 0l-18 21l57 61l69 655h-205l5 45h457l-5 -45h-205z" />
    <glyph glyph-name="uni0163" unicode="&#x163;" horiz-adv-x="287" 
d="M249 479h-109l-41 -396q-4 -48 34 -48q29 0 69 21l-2 -43q-26 -13 -52 -17l-47 -43q36 1 59.5 -22t19.5 -61q-5 -46 -51 -69t-106 -11l12 24q41 -6 69.5 13t31.5 47q3 29 -18.5 44t-52.5 0l-17 21l54 57q-25 4 -39 24.5t-10 55.5l41 403h-71l5 41h71l13 122h46l-13 -122
h109z" />
    <glyph glyph-name="Tcaron" unicode="&#x164;" horiz-adv-x="537" 
d="M330 757h-70l-91 123h37l92 -98l113 98h36zM518 700l-5 -45h-205l-69 -655h-47l69 655h-205l5 45h457z" />
    <glyph glyph-name="tcaron" unicode="&#x165;" horiz-adv-x="356" 
d="M349 701l-126 -135l-30 6l99 136zM158 642l-13 -122h109l-5 -41h-109l-41 -396q-4 -48 34 -48q29 0 69 21l-2 -44q-36 -18 -79 -18q-33 0 -53 20.5t-15 61.5l41 403h-71l5 41h71l13 122h46z" />
    <glyph glyph-name="Tbar" unicode="&#x166;" horiz-adv-x="537" 
d="M513 655h-205l-14 -134h157l-4 -41h-158l-50 -480h-47l50 480h-157l5 41h157l14 134h-205l5 45h457z" />
    <glyph glyph-name="tbar" unicode="&#x167;" horiz-adv-x="287" 
d="M249 479h-109l-8 -83h109l-4 -41h-109l-29 -272q-4 -48 34 -48q29 0 69 21l-2 -44q-36 -18 -79 -18q-33 0 -53 20.5t-15 61.5l28 279h-70l4 41h71l8 83h-71l5 41h71l13 122h46l-13 -122h109z" />
    <glyph glyph-name="Umacron" unicode="&#x16a;" horiz-adv-x="602" 
d="M531 880l-5 -41h-361l5 41h361zM516 700h47l-47 -447q-13 -126 -88 -197t-182 -71q-108 0 -169.5 72t-48.5 198l47 445h47l-47 -446q-11 -107 36.5 -165t135.5 -58q89 0 150 59t72 166z" />
    <glyph glyph-name="umacron" unicode="&#x16b;" horiz-adv-x="540" 
d="M475 700l-5 -41h-361l4 41h362zM194 -8q-86 0 -138.5 56.5t-40.5 168.5l32 303h46l-32 -306q-9 -89 30 -134t109 -45q74 0 134.5 53.5t78.5 117.5l33 314h46l-55 -520h-46l14 134q-15 -43 -73.5 -92.5t-137.5 -49.5z" />
    <glyph glyph-name="Ubreve" unicode="&#x16c;" horiz-adv-x="602" 
d="M486 879q-7 -51 -47.5 -90.5t-100.5 -39.5q-62 0 -95 40.5t-29 91.5l33 -2q2 -38 24.5 -64.5t66.5 -26.5q46 0 75 27t39 66zM516 700h47l-47 -447q-13 -126 -88 -197t-182 -71q-108 0 -169.5 72t-48.5 198l47 445h47l-47 -446q-11 -107 36.5 -165t135.5 -58q89 0 150 59
t72 166z" />
    <glyph glyph-name="ubreve" unicode="&#x16d;" horiz-adv-x="540" 
d="M429 699q-7 -51 -47.5 -90.5t-99.5 -39.5q-62 0 -94.5 40.5t-29.5 91.5l33 -2q2 -39 24 -65t67 -26q46 0 75 27t39 66zM194 -8q-86 0 -138.5 56.5t-40.5 168.5l32 303h46l-32 -306q-9 -89 30 -134t109 -45q74 0 134.5 53.5t78.5 117.5l33 314h46l-55 -520h-46l14 134
q-15 -43 -73.5 -92.5t-137.5 -49.5z" />
    <glyph glyph-name="Uring" unicode="&#x16e;" horiz-adv-x="602" 
d="M355 937q33 0 54 -23.5t18 -55.5q-4 -32 -29 -54t-56 -22q-34 0 -55.5 23.5t-17.5 55.5q3 32 28 54t58 22zM354 902q-18 0 -32.5 -13t-15.5 -31q-2 -17 8 -29t27 -12q19 0 33.5 13t16.5 31q2 17 -9 29t-28 12zM516 700h47l-47 -447q-13 -126 -88 -197t-182 -71
q-108 0 -169.5 72t-48.5 198l47 445h47l-47 -446q-11 -107 36.5 -165t135.5 -58q89 0 150 59t72 166z" />
    <glyph glyph-name="uring" unicode="&#x16f;" horiz-adv-x="540" 
d="M299 757q33 0 54 -23.5t18 -55.5q-4 -32 -28.5 -54t-55.5 -22q-34 0 -56 23.5t-18 55.5q3 32 28 54t58 22zM298 722q-18 0 -32.5 -13t-15.5 -31q-2 -17 8 -29t27 -12q18 0 33.5 13t16.5 31q2 17 -9 29t-28 12zM194 -8q-86 0 -138.5 56.5t-40.5 168.5l32 303h46l-32 -306
q-9 -89 30 -134t109 -45q74 0 134.5 53.5t78.5 117.5l33 314h46l-55 -520h-46l14 134q-15 -43 -73.5 -92.5t-137.5 -49.5z" />
    <glyph glyph-name="Uhungarumlaut" unicode="&#x170;" horiz-adv-x="602" 
d="M354 880l-113 -129h-32l91 129h54zM497 880l-113 -129h-32l91 129h54zM516 700h47l-47 -447q-13 -126 -88 -197t-182 -71q-108 0 -169.5 72t-48.5 198l47 445h47l-47 -446q-11 -107 36.5 -165t135.5 -58q89 0 150 59t72 166z" />
    <glyph glyph-name="uhungarumlaut" unicode="&#x171;" horiz-adv-x="539" 
d="M298 700l-113 -129h-32l91 129h54zM441 700l-113 -129h-32l91 129h54zM194 -8q-86 0 -138.5 56.5t-40.5 168.5l32 303h46l-32 -306q-9 -89 30 -134t109 -45q74 0 134.5 53.5t78.5 117.5l33 314h46l-55 -520h-46l14 134q-15 -43 -73.5 -92.5t-137.5 -49.5z" />
    <glyph glyph-name="Uogonek" unicode="&#x172;" horiz-adv-x="602" 
d="M516 700h47l-47 -447q-11 -106 -67 -174t-140 -88q-64 -26 -94 -53.5t-34 -61.5q-3 -30 20.5 -43.5t58.5 -4.5l10 -26q-26 -8 -57.5 -8.5t-55 22.5t-19.5 62q7 65 104 107q-106 1 -166.5 73t-47.5 197l47 445h47l-47 -446q-11 -107 36.5 -165t135.5 -58q89 0 150 59
t72 166z" />
    <glyph glyph-name="uogonek" unicode="&#x173;" horiz-adv-x="540" 
d="M293 -125q-3 -32 21 -46t58 -5l11 -22q-26 -8 -57.5 -8t-55 22.5t-19.5 61.5q4 40 41.5 72t97.5 50l15 134q-15 -43 -73.5 -92.5t-137.5 -49.5q-86 0 -138.5 56.5t-40.5 168.5l32 303h46l-32 -306q-9 -89 30 -134t109 -45q74 0 134.5 53.5t78.5 117.5l33 314h46l-54 -520
q-79 -32 -110 -59.5t-35 -65.5z" />
    <glyph glyph-name="Wcircumflex" unicode="&#x174;" horiz-adv-x="958" 
d="M551 880l91 -123h-36l-91 99l-114 -99h-36l117 123h69zM957 700l-299 -700h-25l-144 606l-275 -606h-24l-151 700h47l128 -593l271 593h26l144 -593l255 593h47z" />
    <glyph glyph-name="wcircumflex" unicode="&#x175;" horiz-adv-x="918" 
d="M512 700l91 -123h-36l-91 99l-114 -99h-36l117 123h69zM848 520h47l-261 -520h-33l-144 466l-246 -466h-32l-152 520h47l129 -450l236 450h44l140 -450z" />
    <glyph glyph-name="Ycircumflex" unicode="&#x176;" horiz-adv-x="623" 
d="M385 880l92 -123h-37l-91 99l-114 -99h-36l117 123h69zM614 700l-296 -363l-36 -337h-47l36 337l-220 363h55l191 -319l262 319h55z" />
    <glyph glyph-name="ycircumflex" unicode="&#x177;" horiz-adv-x="545" 
d="M297 676l-114 -99h-36l117 123h69l91 -123h-36zM474 520h48l-390 -710h-48l113 207l-170 503h46l153 -450z" />
    <glyph glyph-name="Ydieresis" unicode="&#x178;" horiz-adv-x="623" 
d="M268 880l-4 -45h-48l5 45h47zM482 880l-5 -45h-48l5 45h48zM614 700l-296 -363l-36 -337h-47l36 337l-220 363h55l191 -319l262 319h55z" />
    <glyph glyph-name="Zacute" unicode="&#x179;" horiz-adv-x="593" 
d="M447 880l-113 -129h-32l91 129h54zM575 700l-511 -657h446l-5 -43h-527l511 658h-416l5 42h497z" />
    <glyph glyph-name="zacute" unicode="&#x17a;" horiz-adv-x="497" 
d="M389 700l-113 -129h-32l91 129h54zM472 520l-415 -477h358l-5 -43h-440l414 478h-334l5 42h417z" />
    <glyph glyph-name="Zdotaccent" unicode="&#x17b;" horiz-adv-x="593" 
d="M354 880l-4 -45h-48l4 45h48zM575 700l-511 -657h446l-5 -43h-527l511 658h-416l5 42h497z" />
    <glyph glyph-name="zdotaccent" unicode="&#x17c;" horiz-adv-x="497" 
d="M297 700l-5 -45h-48l5 45h48zM472 520l-415 -477h358l-5 -43h-440l414 478h-334l5 42h417z" />
    <glyph glyph-name="Zcaron" unicode="&#x17d;" horiz-adv-x="593" 
d="M352 757h-69l-91 123h36l92 -98l113 98h36zM575 700l-511 -657h446l-5 -43h-527l511 658h-416l5 42h497z" />
    <glyph glyph-name="zcaron" unicode="&#x17e;" horiz-adv-x="497" 
d="M294 577h-69l-91 123h36l92 -98l113 98h36zM472 520l-415 -477h358l-5 -43h-440l414 478h-334l5 42h417z" />
    <glyph glyph-name="florin" unicode="&#x192;" horiz-adv-x="285" 
d="M275 664q-52 0 -77 -24t-32 -88l-3 -32h96l-5 -43h-96l-53 -513q-10 -90 -48 -122t-111 -32l3 42q52 0 77.5 24t31.5 88l53 513h-84l4 43h85l3 33q10 90 48 121.5t111 31.5z" />
    <glyph glyph-name="uni01CD" unicode="&#x1cd;" horiz-adv-x="694" 
d="M407 757h-70l-91 123h37l92 -98l113 98h36zM572 0l-62 188h-394l-103 -188h-50l387 700h33l239 -700h-50zM140 230h355l-135 400z" />
    <glyph glyph-name="uni01CE" unicode="&#x1ce;" 
d="M370 577h-69l-91 123h36l92 -98l113 98h36zM299 529q70 0 123.5 -33.5t76.5 -96.5l13 121h46l-55 -520h-46l13 118q-36 -62 -95.5 -95t-128.5 -33q-93 0 -165.5 64t-72.5 175q0 123 86.5 211.5t204.5 88.5zM300 487q-102 0 -174 -75t-72 -180q0 -95 60 -147.5t135 -52.5
q103 0 171.5 76t68.5 184q0 94 -56 144.5t-133 50.5z" />
    <glyph glyph-name="uni01CF" unicode="&#x1cf;" horiz-adv-x="167" 
d="M143 757h-70l-91 123h37l92 -98l113 98h36zM126 700l-74 -700h-47l74 700h47z" />
    <glyph glyph-name="uni01D0" unicode="&#x1d0;" horiz-adv-x="167" 
d="M124 577h-69l-91 123h36l92 -98l113 98h36zM106 520l-55 -520h-46l55 520h46z" />
    <glyph glyph-name="uni01D1" unicode="&#x1d1;" horiz-adv-x="796" 
d="M457 757h-69l-91 123h36l92 -98l113 98h36zM416 710q66 0 127 -27t106.5 -74t69.5 -115.5t16 -145.5q-16 -152 -135.5 -255t-255.5 -103q-89 0 -165.5 45.5t-120.5 130t-33 186.5q16 152 135 255t256 103zM345 36q118 0 223 90.5t119 225.5q14 133 -70.5 222.5
t-201.5 89.5q-118 0 -223 -90.5t-119 -225.5q-7 -67 13.5 -126.5t59.5 -99.5t91.5 -63t107.5 -23z" />
    <glyph glyph-name="uni01D2" unicode="&#x1d2;" horiz-adv-x="594" 
d="M340 577h-69l-91 123h36l92 -98l113 98h36zM299 529q100 0 174 -73t61 -198q-13 -124 -101.5 -196t-186.5 -72q-46 0 -90 17.5t-79.5 50.5t-54.5 86t-12 118q13 123 102 195t187 72zM298 487q-82 0 -157 -61t-86 -168q-10 -106 50.5 -166t141.5 -60q51 0 102 24
t91.5 78.5t48.5 127.5q6 54 -9.5 98.5t-44.5 71.5t-64.5 41t-72.5 14z" />
    <glyph glyph-name="uni01D3" unicode="&#x1d3;" horiz-adv-x="602" 
d="M371 757h-69l-91 123h36l92 -98l113 98h36zM516 700h47l-47 -447q-13 -126 -88 -197t-182 -71q-108 0 -169.5 72t-48.5 198l47 445h47l-47 -446q-11 -107 36.5 -165t135.5 -58q89 0 150 59t72 166z" />
    <glyph glyph-name="uni01D4" unicode="&#x1d4;" horiz-adv-x="540" 
d="M315 577h-69l-91 123h36l92 -98l113 98h36zM194 -8q-86 0 -138.5 56.5t-40.5 168.5l32 303h46l-32 -306q-9 -89 30 -134t109 -45q74 0 134.5 53.5t78.5 117.5l33 314h46l-55 -520h-46l14 134q-15 -43 -73.5 -92.5t-137.5 -49.5z" />
    <glyph glyph-name="uni01EA" unicode="&#x1ea;" horiz-adv-x="796" 
d="M422 -1q-73 -28 -107 -57t-38 -65q-3 -30 20.5 -43.5t57.5 -4.5l11 -27q-26 -8 -57.5 -8t-55 23t-19.5 62q3 33 32.5 62t77.5 49q-66 0 -127 27t-106.5 73.5t-69.5 115.5t-16 146q16 152 135 255t256 103q66 0 127 -27t106.5 -74t69.5 -115.5t16 -145.5
q-14 -129 -104.5 -224.5t-208.5 -124.5zM73 348q-7 -67 13.5 -126.5t59.5 -99.5t91.5 -63t107.5 -23q118 0 223 90.5t119 225.5q14 133 -70.5 222.5t-201.5 89.5q-118 0 -223 -90.5t-119 -225.5z" />
    <glyph glyph-name="uni01EB" unicode="&#x1eb;" horiz-adv-x="594" 
d="M315 -2q-139 -51 -146 -121q-3 -30 20.5 -43.5t57.5 -4.5l12 -27q-27 -8 -58.5 -8t-55 23t-19.5 62q7 67 114 111q-97 2 -170 75t-60 197q13 123 102 195t187 72q100 0 174 -73t61 -198q-11 -102 -73 -169t-146 -91zM55 258q-10 -106 50.5 -166t141.5 -60q51 0 102 24
t91.5 78.5t48.5 127.5q6 54 -9.5 98.5t-44.5 71.5t-64.5 41t-72.5 14q-82 0 -157 -61t-86 -168z" />
    <glyph glyph-name="Scommaaccent" unicode="&#x218;" horiz-adv-x="516" 
d="M280 712q74 0 128 -43.5t68 -105.5l-37 -15q-18 55 -58.5 88t-100.5 33q-77 0 -124.5 -39t-47.5 -102q0 -84 117 -131l50 -20q43 -17 70.5 -32t54.5 -37t40 -51t13 -66q0 -91 -70.5 -148.5t-166.5 -57.5q-88 0 -149.5 48t-72.5 124l41 14q12 -65 60.5 -103.5t121.5 -38.5
q77 0 132.5 45t55.5 115q0 56 -35 86.5t-105 58.5l-54 22q-150 61 -150 172q0 78 61.5 131t157.5 53zM91 -214l89 178h66l-116 -178h-39z" />
    <glyph glyph-name="scommaaccent" unicode="&#x219;" horiz-adv-x="401" 
d="M302 412q-32 77 -111 77q-47 0 -79.5 -25.5t-36.5 -64.5q-3 -34 14 -58t64 -41l43 -16q74 -27 108 -60.5t28 -92.5q-7 -66 -63 -103.5t-122 -37.5q-67 0 -113 36.5t-53 99.5l40 8q7 -50 42.5 -77t84.5 -27q51 0 92.5 27t46.5 75q5 43 -19 67.5t-77 43.5l-55 20
q-116 42 -106 139q6 55 51.5 91t109.5 36q56 0 95 -28.5t54 -76.5zM14 -214l89 178h66l-116 -178h-39z" />
    <glyph glyph-name="uni021A" unicode="&#x21a;" horiz-adv-x="537" 
d="M61 700h457l-5 -45h-205l-69 -655h-47l69 655h-205zM90 -214l89 178h65l-115 -178h-39z" />
    <glyph glyph-name="uni021B" unicode="&#x21b;" horiz-adv-x="287" 
d="M249 479h-109l-41 -396q-4 -48 34 -48q29 0 69 21l-2 -44q-36 -18 -79 -18q-33 0 -53 20.5t-15 61.5l41 403h-71l5 41h71l13 122h46l-13 -122h109zM-2 -214l90 178h65l-116 -178h-39z" />
    <glyph glyph-name="uni0237" unicode="&#x237;" horiz-adv-x="189" 
d="M141 520l-62 -586q-8 -76 -39.5 -108t-85.5 -32q-52 0 -81 27l2 44q35 -25 77 -25q71 0 82 94l61 586h46z" />
    <glyph glyph-name="circumflex" unicode="&#x2c6;" horiz-adv-x="277" 
d="M192 700l91 -123h-36l-91 99l-114 -99h-36l117 123h69z" />
    <glyph glyph-name="caron" unicode="&#x2c7;" horiz-adv-x="277" 
d="M179 577h-69l-91 123h36l92 -98l113 98h36z" />
    <glyph glyph-name="breve" unicode="&#x2d8;" horiz-adv-x="272" 
d="M291 699q-8 -51 -48.5 -90.5t-99.5 -39.5q-62 0 -94.5 40.5t-29.5 91.5l33 -2q2 -39 24 -65t67 -26q46 0 75 27t39 66z" />
    <glyph glyph-name="dotaccent" unicode="&#x2d9;" horiz-adv-x="64" 
d="M75 700l-5 -45h-48l5 45h48z" />
    <glyph glyph-name="ring" unicode="&#x2da;" horiz-adv-x="158" 
d="M103 757q32 0 53.5 -23.5t18.5 -55.5q-4 -31 -28.5 -53.5t-55.5 -22.5q-34 0 -56 23.5t-18 55.5q3 32 28 54t58 22zM102 722q-18 0 -33 -13t-16 -31q-2 -17 8.5 -29t27.5 -12q18 0 33 13t16 31q1 17 -9 29t-27 12z" />
    <glyph glyph-name="ogonek" unicode="&#x2db;" horiz-adv-x="176" 
d="M122 0q-74 -29 -108 -58t-38 -65q-3 -30 20.5 -43.5t57.5 -4.5l12 -27q-27 -8 -58.5 -8t-55 23t-19.5 62q4 41 44 72t98 49h47z" />
    <glyph glyph-name="tilde" unicode="&#x2dc;" horiz-adv-x="330" 
d="M108 719q27 0 49 -10.5t34 -23t28.5 -23t33.5 -10.5q30 0 47.5 15.5t19.5 33.5l29 -2q-5 -43 -32.5 -65t-62.5 -22q-26 0 -47.5 11t-33 24.5t-29.5 24.5t-38 11q-31 0 -48.5 -18t-18.5 -37l-27 2q4 42 33.5 65.5t62.5 23.5z" />
    <glyph glyph-name="hungarumlaut" unicode="&#x2dd;" horiz-adv-x="289" 
d="M150 700l-113 -129h-32l90 129h55zM293 700l-113 -129h-32l90 129h55z" />
    <glyph glyph-name="uni0326" unicode="&#x326;" horiz-adv-x="0" 
d="M-238 -215l90 177h65l-116 -177h-39z" />
    <glyph glyph-name="uni0394" unicode="&#x394;" horiz-adv-x="733" 
d="M395 700l233 -700h-633l381 700h19zM377 615l-311 -572h500z" />
    <glyph glyph-name="uni03A9" unicode="&#x3a9;" horiz-adv-x="779" 
d="M407 707q137 0 232 -101.5t80 -250.5q-19 -177 -209 -294l-4 -16h155l-5 -45h-192l10 88l48 35q136 97 150 236q7 65 -13 123t-57.5 97t-89 62t-106.5 23q-117 0 -218.5 -88.5t-115.5 -220.5q-16 -140 98 -234l43 -33l-9 -88h-192l5 45h154l3 18q-168 117 -149 296
q10 98 69 179t142.5 125t170.5 44z" />
    <glyph glyph-name="uni03BC" unicode="&#x3bc;" horiz-adv-x="541" 
d="M447 520h46l-55 -520h-46l14 134q-15 -43 -74 -92.5t-138 -49.5q-97 0 -147 69l-28 -251h-46l75 710h46l-32 -306q-9 -89 30 -134t109 -45q74 0 134.5 53.5t78.5 117.5z" />
    <glyph glyph-name="pi" unicode="&#x3c0;" horiz-adv-x="640" 
d="M474 37q35 0 71 17l-2 -42q-39 -18 -68 -18q-93 0 -82 101l40 383h-241l-50 -478h-47l50 478h-100l5 42h534l-5 -42h-99l-40 -387q-4 -33 4 -43.5t30 -10.5z" />
    <glyph glyph-name="uni0401" unicode="&#x401;" horiz-adv-x="501" 
d="M216 880l-4 -45h-48l5 45h47zM430 880l-5 -45h-48l5 45h48zM55 45h353l-4 -45h-401l74 700h392l-5 -45h-345l-29 -281h273l-5 -45h-273z" />
    <glyph glyph-name="uni0403" unicode="&#x403;" horiz-adv-x="495" 
d="M414 880l-113 -129h-32l90 129h55zM477 700l-5 -45h-353l-69 -655h-47l74 700h400z" />
    <glyph glyph-name="uni0404" unicode="&#x404;" horiz-adv-x="664" 
d="M554 109l30 -35q-110 -84 -240 -84q-89 0 -165.5 45.5t-120.5 130t-33 186.5q16 152 135 255t256 103q129 0 223 -84l-34 -33q-76 71 -186 71q-116 0 -219 -84t-124 -209l223 1l-4 -43l-223 -1q-5 -126 78.5 -209t197.5 -83q111 0 206 73z" />
    <glyph glyph-name="uni0406" unicode="&#x406;" horiz-adv-x="163" 
d="M124 700l-74 -700h-47l74 700h47z" />
    <glyph glyph-name="uni0407" unicode="&#x407;" horiz-adv-x="163" 
d="M36 880l-4 -45h-48l4 45h48zM250 880l-5 -45h-48l5 45h48zM124 700l-74 -700h-47l74 700h47z" />
    <glyph glyph-name="uni0410" unicode="&#x410;" horiz-adv-x="694" 
d="M572 0l-62 188h-393l-103 -188h-51l387 700h33l239 -700h-50zM141 230h354l-135 400z" />
    <glyph glyph-name="uni0411" unicode="&#x411;" horiz-adv-x="554" 
d="M266 437q115 0 173 -61.5t48 -158.5q-10 -94 -80.5 -155.5t-184.5 -61.5h-219l74 700h421l-5 -45h-374l-23 -218h170zM226 45q90 0 148 46.5t67 128.5q8 80 -39.5 126.5t-136.5 46.5h-174l-36 -348h171z" />
    <glyph glyph-name="uni0412" unicode="&#x412;" horiz-adv-x="561" 
d="M352 382q65 -13 102 -60t37 -107q0 -105 -74.5 -160t-199.5 -55h-214l74 700h225q89 0 135.5 -41.5t46.5 -105.5q0 -56 -32 -102t-100 -69zM298 657h-179l-26 -256h176q73 0 121 41t48 105q0 51 -36.5 80.5t-103.5 29.5zM220 43q105 0 164.5 44t59.5 131q0 61 -45.5 101
t-132.5 40h-178l-33 -316h165z" />
    <glyph glyph-name="uni0413" unicode="&#x413;" horiz-adv-x="495" 
d="M477 700l-5 -45h-353l-69 -655h-47l74 700h400z" />
    <glyph glyph-name="uni0414" unicode="&#x414;" horiz-adv-x="750" 
d="M586 45h73l-11 -114h-47l7 69h-576l-7 -69h-47l12 114l47 1q39 61 58 169t44 346l15 139h501zM82 44l457 1l64 610h-407l-10 -96q-15 -133 -21 -185.5t-19 -132t-28 -122t-36 -75.5z" />
    <glyph glyph-name="uni0415" unicode="&#x415;" horiz-adv-x="501" 
d="M55 45h353l-4 -45h-401l74 700h392l-5 -45h-345l-29 -281h273l-5 -45h-273z" />
    <glyph glyph-name="uni0416" unicode="&#x416;" horiz-adv-x="1040" 
d="M902 0l-265 341l-124 -118l-24 -223h-48l24 223l-98 118l-339 -341h-58l370 373l-273 327h60l345 -414l43 414h48l-43 -414l431 414h60l-341 -327l290 -373h-58z" />
    <glyph glyph-name="uni0417" unicode="&#x417;" horiz-adv-x="565" 
d="M297 707q90 0 146.5 -50t48.5 -125q-6 -52 -46 -95t-112 -62q76 -13 120 -61t37 -120q-10 -92 -85.5 -148t-180.5 -56q-106 0 -167 61t-51 152l47 -2q-7 -71 42 -118.5t130 -47.5q85 0 147 43t70 119q8 74 -49.5 113t-156.5 41l1 38q91 4 146 46t61 101q5 55 -37 90.5
t-111 35.5q-74 0 -127 -43.5t-61 -121.5l-48 2q10 94 76.5 151t159.5 57z" />
    <glyph glyph-name="uni0418" unicode="&#x418;" horiz-adv-x="667" 
d="M124 700l-64 -614l533 614h35l-74 -700h-47l65 612l-533 -612h-36l74 700h47z" />
    <glyph glyph-name="uni0419" unicode="&#x419;" horiz-adv-x="667" 
d="M527 879q-7 -51 -47.5 -90.5t-99.5 -39.5q-63 0 -95.5 40.5t-28.5 91.5l33 -2q2 -39 24 -65t67 -26q46 0 75 27t39 66zM124 700l-64 -614l533 614h35l-74 -700h-47l65 612l-533 -612h-36l74 700h47z" />
    <glyph glyph-name="uni041A" unicode="&#x41a;" horiz-adv-x="602" 
d="M464 0l-265 341l-124 -118l-24 -223h-48l74 700h48l-43 -414l431 414h60l-341 -327l290 -373h-58z" />
    <glyph glyph-name="uni041B" unicode="&#x41b;" horiz-adv-x="693" 
d="M654 700l-74 -700h-47l70 655h-407l-61 -585q-4 -40 -27.5 -58t-53.5 -18q-48 0 -81 18l2 43q38 -20 65 -20q23 0 34.5 10t14.5 37l65 618h500z" />
    <glyph glyph-name="uni041C" unicode="&#x41c;" horiz-adv-x="833" 
d="M794 700l-74 -700h-48l63 596l-355 -596h-35l-231 596l-63 -596h-48l74 700h47l243 -632l380 632h47z" />
    <glyph glyph-name="uni041D" unicode="&#x41d;" horiz-adv-x="608" 
d="M522 700h47l-74 -700h-47l34 319h-398l-34 -319h-47l74 700h47l-35 -336h397z" />
    <glyph glyph-name="uni041E" unicode="&#x41e;" horiz-adv-x="796" 
d="M416 710q128 0 224.5 -92t96.5 -232q0 -103 -56 -195.5t-146.5 -146.5t-190.5 -54q-129 0 -225 92t-96 232q0 103 55.5 195.5t146.5 146.5t191 54zM344 36q135 0 240 106.5t105 243.5q0 121 -82.5 199.5t-191.5 78.5q-135 0 -239.5 -106t-104.5 -243q0 -121 82.5 -200
t190.5 -79z" />
    <glyph glyph-name="uni041F" unicode="&#x41f;" 
d="M567 700l-74 -700h-47l70 655h-397l-69 -655h-47l74 700h490z" />
    <glyph glyph-name="uni0420" unicode="&#x420;" horiz-adv-x="552" 
d="M294 700q114 0 172.5 -62.5t48.5 -157.5q-10 -96 -80.5 -156.5t-184.5 -60.5h-172l-28 -263h-47l74 700h217zM254 307q89 0 147.5 47.5t66.5 128.5t-39 126.5t-136 45.5h-174l-36 -348h171z" />
    <glyph glyph-name="uni0421" unicode="&#x421;" horiz-adv-x="664" 
d="M584 74q-110 -84 -240 -84q-129 0 -225 92t-96 232q0 103 55.5 195.5t146.5 146.5t191 54q129 0 223 -84l-33 -33q-77 71 -190 71q-89 0 -169 -48t-127.5 -129t-47.5 -172q0 -121 83.5 -200t195.5 -79q110 0 205 73z" />
    <glyph glyph-name="uni0422" unicode="&#x422;" horiz-adv-x="537" 
d="M518 700l-5 -45h-205l-69 -655h-47l69 655h-205l5 45h457z" />
    <glyph glyph-name="uni0423" unicode="&#x423;" horiz-adv-x="627" 
d="M566 700h52l-460 -700h-52l154 234l-209 466h52l186 -420z" />
    <glyph glyph-name="uni0424" unicode="&#x424;" horiz-adv-x="848" 
d="M458 635q169 0 257 -79.5t75 -207.5q-13 -126 -117.5 -204.5t-273.5 -78.5l-7 -65h-47l7 65q-167 0 -255 80t-75 207q14 126 118 204.5t271 78.5l8 65h47zM355 108l53 485q-152 0 -239.5 -66t-99.5 -179q-12 -112 61.5 -176.5t224.5 -63.5zM402 108q153 -1 241 65
t100 179q12 112 -62 176.5t-226 64.5z" />
    <glyph glyph-name="uni0425" unicode="&#x425;" horiz-adv-x="644" 
d="M557 0h-57l-195 323l-265 -323h-57l297 362l-206 338h57l181 -298l244 298h57l-277 -338z" />
    <glyph glyph-name="uni0426" unicode="&#x426;" horiz-adv-x="630" 
d="M544 45l-12 -114h-46l7 69h-443h-47l74 700h47l-69 -655h396l69 655h47l-69 -655h46z" />
    <glyph glyph-name="uni0427" unicode="&#x427;" horiz-adv-x="578" 
d="M492 700h47l-74 -700h-47l38 357q-21 -39 -78 -80t-134 -41q-94 0 -151 51.5t-46 154.5l27 258h47l-27 -259q-8 -73 33.5 -115.5t117.5 -42.5q77 0 135.5 44.5t82.5 96.5z" />
    <glyph glyph-name="uni0428" unicode="&#x428;" horiz-adv-x="1050" 
d="M964 700h47l-74 -700h-465h-443h-26l74 700h47l-69 -655h396l69 655h47l-69 -655h396z" />
    <glyph glyph-name="uni0429" unicode="&#x429;" horiz-adv-x="1073" 
d="M987 45l-11 -114h-46l7 69h-465h-443h-26l74 700h47l-69 -655h396l69 655h47l-69 -655h396l70 655h47l-70 -655h46z" />
    <glyph glyph-name="uni042A" unicode="&#x42a;" horiz-adv-x="648" 
d="M359 437q114 0 172 -61.5t48 -158.5q-10 -95 -80 -156t-184 -61h-219l69 655h-121l5 45h168l-29 -263h171zM319 45q89 0 147 46.5t67 128.5q8 80 -39.5 126.5t-136.5 46.5h-173l-37 -348h172z" />
    <glyph glyph-name="uni042B" unicode="&#x42b;" horiz-adv-x="729" 
d="M266 437q115 0 173 -61.5t48 -158.5q-10 -94 -80.5 -155.5t-184.5 -61.5h-219l74 700h47l-28 -263h170zM643 700h47l-74 -700h-47zM226 45q90 0 148 46.5t67 128.5q8 80 -39.5 126.5t-136.5 46.5h-174l-36 -348h171z" />
    <glyph glyph-name="uni042C" unicode="&#x42c;" horiz-adv-x="552" 
d="M266 437q115 0 173 -61.5t48 -158.5q-10 -94 -80.5 -155.5t-184.5 -61.5h-219l74 700h47l-28 -263h170zM226 45q90 0 148 46.5t67 128.5q8 80 -39.5 126.5t-136.5 46.5h-174l-36 -348h171z" />
    <glyph glyph-name="uni042D" unicode="&#x42d;" horiz-adv-x="663" 
d="M293 710q66 0 127 -27t106.5 -74t69.5 -115.5t16 -145.5q-16 -152 -135.5 -255t-255.5 -103q-129 0 -225 86l34 31q77 -71 188 -71q115 0 218 84t125 210l-223 -1l5 43l223 1q5 125 -79 208t-199 83q-110 0 -205 -73l-28 37q108 82 238 82z" />
    <glyph glyph-name="uni042E" unicode="&#x42e;" horiz-adv-x="981" 
d="M601 710q128 0 224.5 -92t96.5 -232q0 -103 -56 -195.5t-146.5 -146.5t-190.5 -54q-129 0 -225 92t-96 232v16l-123 -1l-35 -329h-47l74 700h47l-34 -328l123 1q23 140 136.5 238.5t251.5 98.5zM529 36q135 0 240 106.5t105 243.5q0 121 -82.5 199.5t-191.5 78.5
q-135 0 -239.5 -106t-104.5 -243q0 -121 82.5 -200t190.5 -79z" />
    <glyph glyph-name="uni042F" unicode="&#x42f;" horiz-adv-x="586" 
d="M328 700h219l-74 -700h-47l28 263h-199l-221 -263h-54l231 270q-79 19 -117 76.5t-30 136.5q10 95 80 156t184 61zM286 307h173l37 348h-172q-89 0 -147 -46.5t-66 -128.5q-8 -80 39 -126.5t136 -46.5z" />
    <glyph glyph-name="uni0430" unicode="&#x430;" 
d="M299 529q70 0 123.5 -33.5t76.5 -96.5l13 121h46l-55 -520h-46l13 118q-36 -62 -95.5 -95t-128.5 -33q-93 0 -165.5 64t-72.5 175q0 123 86.5 211.5t204.5 88.5zM300 487q-102 0 -174 -75t-72 -180q0 -95 60 -147.5t135 -52.5q103 0 171.5 76t68.5 184q0 94 -56 144.5
t-133 50.5z" />
    <glyph glyph-name="uni0431" unicode="&#x431;" horiz-adv-x="612" 
d="M315 529q99 0 174.5 -73.5t62.5 -198.5q-13 -123 -102.5 -195t-187.5 -72q-70 0 -123 34t-77 96l-13 -120h-46l55 521q10 94 57.5 136.5t150.5 42.5h112q36 0 50.5 3.5t25.5 17.5l46 -2q-21 -36 -43.5 -48t-81.5 -12h-112q-78 0 -114 -31.5t-45 -108.5l-12 -118
q36 62 95 95t128 33zM261 32q82 0 158 61t87 168q8 72 -21.5 125.5t-75.5 77t-97 23.5q-85 0 -155 -60t-83 -170q-11 -108 46.5 -166.5t140.5 -58.5z" />
    <glyph glyph-name="uni0432" unicode="&#x432;" horiz-adv-x="528" 
d="M354 286q50 -15 74.5 -48t24.5 -76q0 -83 -60.5 -122.5t-165.5 -39.5h-224l55 520h222q78 0 118.5 -31t40.5 -85q0 -41 -22.5 -72t-62.5 -46zM277 478h-177l-19 -175h178q62 0 98 25t36 76q0 74 -116 74zM230 42q177 0 177 122q0 44 -35 71.5t-115 27.5h-180l-23 -221
h176z" />
    <glyph glyph-name="uni0433" unicode="&#x433;" horiz-adv-x="464" 
d="M424 520l-5 -42h-319l-51 -478h-46l55 520h366z" />
    <glyph glyph-name="uni0434" unicode="&#x434;" horiz-adv-x="586" 
d="M465 43h43l-12 -113h-46l7 70h-434l-7 -70h-46l12 113h31q34 43 49.5 121.5t34.5 256.5l10 99h409zM59 42l360 1l46 435h-317l-6 -59q-19 -180 -34 -257.5t-49 -119.5z" />
    <glyph glyph-name="uni0435" unicode="&#x435;" horiz-adv-x="590" 
d="M299 529q90 0 162 -61t72 -170q0 -26 -6 -58h-473q-4 -99 56 -153.5t147 -54.5q115 0 183 69l28 -26q-75 -85 -211 -85q-102 0 -175.5 63t-73.5 175q0 125 86 213t205 88zM298 487q-78 0 -150 -55.5t-89 -152.5h430q5 66 -25 115.5t-74 71t-92 21.5z" />
    <glyph glyph-name="uni0436" unicode="&#x436;" horiz-adv-x="842" 
d="M714 0l-222 250l-80 -71l-19 -179h-46l19 179l-64 71l-276 -250h-61l310 280l-215 240h60l253 -282l29 282h46l-29 -282l311 282h59l-264 -240l250 -280h-61z" />
    <glyph glyph-name="uni0437" unicode="&#x437;" horiz-adv-x="486" 
d="M238 529q78 0 122.5 -41.5t38.5 -98.5q-9 -85 -114 -111q58 -8 92 -44.5t28 -89.5q-6 -68 -69.5 -111t-146.5 -43q-88 0 -141 50.5t-45 125.5l45 -2q-6 -57 36 -95t106 -38t114 31.5t56 84.5q6 54 -39.5 82t-122.5 27l2 38q72 1 110.5 28.5t43.5 71.5q4 41 -28 67.5
t-89 26.5t-99.5 -32t-46.5 -79l-45 2q7 63 62 106.5t130 43.5z" />
    <glyph glyph-name="uni0438" unicode="&#x438;" horiz-adv-x="539" 
d="M491 520l-55 -520h-46l45 421l-424 -421h-8l55 520h46l-44 -421l424 421h7z" />
    <glyph glyph-name="uni0439" unicode="&#x439;" horiz-adv-x="539" 
d="M430 699q-7 -51 -48 -90.5t-100 -39.5q-62 0 -94.5 40.5t-29.5 91.5l33 -2q2 -38 24.5 -64.5t66.5 -26.5q46 0 75 27t39 66zM491 520l-55 -520h-46l45 421l-424 -421h-8l55 520h46l-44 -421l424 421h7z" />
    <glyph glyph-name="uni043A" unicode="&#x43a;" horiz-adv-x="498" 
d="M370 0l-222 250l-80 -71l-19 -179h-46l55 520h46l-29 -282l312 282h59l-265 -240l250 -280h-61z" />
    <glyph glyph-name="uni043B" unicode="&#x43b;" horiz-adv-x="595" 
d="M547 520l-55 -520h-46l50 478h-324l-42 -408q-8 -76 -84 -76q-44 0 -76 19l5 40q31 -17 57 -17t38 10t15 37l46 437h416z" />
    <glyph glyph-name="uni043C" unicode="&#x43c;" horiz-adv-x="674" 
d="M626 520l-55 -520h-46l42 389l-279 -389l-197 389l-42 -389h-46l55 520h11l225 -447l322 447h10z" />
    <glyph glyph-name="uni043D" unicode="&#x43d;" horiz-adv-x="532" 
d="M438 520h46l-55 -520h-46l26 235h-335l-25 -235h-46l55 520h46l-25 -242h334z" />
    <glyph glyph-name="uni043E" unicode="&#x43e;" horiz-adv-x="595" 
d="M299 529q92 0 164.5 -64t72.5 -175q0 -124 -85.5 -212t-204.5 -88q-92 0 -165 64t-73 175q0 125 86 212.5t205 87.5zM252 32q39 0 80 16.5t77 47t59 81.5t23 112q0 94 -60 146t-138 52q-39 0 -80 -16.5t-77.5 -47t-59.5 -81.5t-23 -112q0 -94 60 -146t139 -52z" />
    <glyph glyph-name="uni043F" unicode="&#x43f;" horiz-adv-x="525" 
d="M477 520l-55 -520h-46l50 478h-326l-51 -478h-46l55 520h419z" />
    <glyph glyph-name="uni0440" unicode="&#x440;" horiz-adv-x="612" 
d="M315 529q99 0 174.5 -73.5t62.5 -198.5q-13 -123 -102.5 -195t-187.5 -72q-70 0 -123 34t-77 96l-33 -310h-46l36 337l39 373h46l-12 -119q36 62 95 95t128 33zM261 32q82 0 158 61t87 168q8 72 -21.5 125.5t-75.5 77t-97 23.5q-85 0 -155 -60t-83 -170
q-11 -108 46.5 -166.5t140.5 -58.5z" />
    <glyph glyph-name="uni0441" unicode="&#x441;" horiz-adv-x="550" 
d="M301 529q72 0 127 -33.5t81 -95.5l-41 -13q-21 49 -67 74.5t-106 25.5q-98 0 -170 -75.5t-72 -181.5q0 -94 60 -146t135 -52q59 0 110 26.5t83 75.5l39 -17q-39 -62 -100 -94.5t-132 -32.5q-93 0 -166.5 64t-73.5 175q0 125 86 212.5t207 87.5z" />
    <glyph glyph-name="uni0442" unicode="&#x442;" horiz-adv-x="427" 
d="M397 520l-5 -42h-160l-50 -478h-46l50 478h-161l5 42h367z" />
    <glyph glyph-name="uni0443" unicode="&#x443;" horiz-adv-x="545" 
d="M474 520h48l-390 -710h-48l113 207l-170 503h46l153 -450z" />
    <glyph glyph-name="uni0444" unicode="&#x444;" horiz-adv-x="1065" 
d="M769 529q99 0 174.5 -73.5t62.5 -198.5q-13 -123 -102.5 -195t-187.5 -72q-70 0 -123.5 34t-76.5 96l-33 -310h-46l33 309q-36 -62 -95.5 -95t-128.5 -33q-46 0 -89.5 17.5t-79.5 50.5t-55 86t-12 118q9 84 57.5 147t109.5 91.5t122 28.5q70 0 123.5 -33.5t77.5 -95.5
l32 309h46l-32 -309q36 62 95 95t128 33zM249 33q78 0 145 50.5t87 144.5l8 68q-1 93 -56.5 142.5t-131.5 49.5q-83 0 -158.5 -61t-86.5 -168q-11 -106 50.5 -166t142.5 -60zM715 32q82 0 158 61t87 168q8 72 -21.5 125.5t-75.5 77t-97 23.5q-77 0 -144.5 -50.5
t-87.5 -144.5l-7 -68q1 -93 56.5 -142.5t131.5 -49.5z" />
    <glyph glyph-name="uni0445" unicode="&#x445;" horiz-adv-x="519" 
d="M378 0l-148 230l-199 -230h-56l231 265l-167 255h53l143 -219l192 219h53l-221 -255l175 -265h-56z" />
    <glyph glyph-name="uni0446" unicode="&#x446;" horiz-adv-x="561" 
d="M478 43l-16 -120l-50 8l12 72l-51 -3h-372l60 546l49 -26l-58 -499l341 22l40 498l49 -21l-58 -499z" />
    <glyph glyph-name="uni0447" unicode="&#x447;" horiz-adv-x="506" 
d="M412 520h46l-55 -520h-46l28 273q-13 -35 -69 -76t-129 -41q-75 0 -122 43.5t-37 140.5l19 180h46l-20 -183q-7 -68 24.5 -103.5t94.5 -35.5q70 0 124.5 45t76.5 95z" />
    <glyph glyph-name="uni0448" unicode="&#x448;" horiz-adv-x="738" 
d="M690 520l-55 -520h-632l55 520h46l-50 -477h247l50 477h46l-50 -477h247l50 477h46z" />
    <glyph glyph-name="uni0449" unicode="&#x449;" horiz-adv-x="774" 
d="M689 43l-12 -112h-46l7 69h-635l55 520h46l-50 -477h247l50 477h46l-50 -477h247l50 477h46l-50 -477h49z" />
    <glyph glyph-name="uni044A" unicode="&#x44a;" horiz-adv-x="560" 
d="M295 301q193 0 193 -132q0 -81 -55.5 -125t-167.5 -44h-226l50 478h-74l5 42h120l-23 -219h178zM270 43q95 0 133.5 33.5t38.5 92.5q0 90 -147 90h-183l-22 -216h180z" />
    <glyph glyph-name="uni044B" unicode="&#x44b;" horiz-adv-x="681" 
d="M260 301q193 0 193 -132q0 -81 -55.5 -125t-167.5 -44h-227l55 520h46l-23 -219h179zM587 520h46l-55 -520h-46zM235 43q172 0 172 126q0 90 -148 90h-183l-22 -216h181z" />
    <glyph glyph-name="uni044C" unicode="&#x44c;" horiz-adv-x="524" 
d="M260 301q193 0 193 -132q0 -81 -55.5 -125t-167.5 -44h-227l55 520h46l-23 -219h179zM235 43q172 0 172 126q0 90 -148 90h-183l-22 -216h181z" />
    <glyph glyph-name="uni044D" unicode="&#x44d;" horiz-adv-x="555" 
d="M256 529q47 0 91.5 -17.5t80 -50.5t54.5 -86t13 -118q-9 -84 -57.5 -147t-110 -91.5t-123.5 -28.5q-72 0 -127.5 33.5t-81.5 95.5l42 13q21 -49 65.5 -74.5t101.5 -25.5q79 0 152 56t90 154l-188 -1l4 37l187 1q3 98 -56.5 153t-137.5 55q-58 0 -109 -26.5t-82 -75.5
l-39 17q39 62 100 94.5t131 32.5z" />
    <glyph glyph-name="uni044E" unicode="&#x44e;" horiz-adv-x="772" 
d="M476 529q92 0 164.5 -64t72.5 -175q0 -124 -85.5 -212t-204.5 -88q-92 0 -165 64t-73 175v9h-111l-25 -238h-46l55 520h46l-25 -239h110q19 107 100.5 177.5t186.5 70.5zM429 32q39 0 80 16.5t77 47t59 81.5t23 112q0 94 -60 146t-138 52q-39 0 -80 -16.5t-77.5 -47
t-59.5 -81.5t-23 -112q0 -94 60 -146t139 -52z" />
    <glyph glyph-name="uni044F" unicode="&#x44f;" horiz-adv-x="523" 
d="M475 520l-55 -520h-46l24 216h-146l-216 -216h-56l219 217q-81 4 -121.5 40t-40.5 94q0 76 53.5 122.5t158.5 46.5h226zM402 259l23 219h-181q-86 0 -123.5 -36t-37.5 -90q0 -93 137 -93h182z" />
    <glyph glyph-name="uni0451" unicode="&#x451;" horiz-adv-x="590" 
d="M236 700l-5 -45h-48l5 45h48zM450 700l-5 -45h-48l5 45h48zM299 529q90 0 162 -61t72 -170q0 -26 -6 -58h-473q-4 -99 56 -153.5t147 -54.5q115 0 183 69l28 -26q-75 -85 -211 -85q-102 0 -175.5 63t-73.5 175q0 125 86 213t205 88zM298 487q-78 0 -150 -55.5t-89 -152.5
h430q5 66 -25 115.5t-74 71t-92 21.5z" />
    <glyph glyph-name="uni0453" unicode="&#x453;" horiz-adv-x="464" 
d="M386 700l-113 -129h-32l91 129h54zM424 520l-5 -42h-319l-51 -478h-46l55 520h366z" />
    <glyph glyph-name="uni0454" unicode="&#x454;" horiz-adv-x="550" 
d="M249 32q58 0 109 26.5t83 75.5l39 -17q-39 -62 -100 -94.5t-132 -32.5q-101 0 -176 73t-62 198q13 124 102 196t189 72q72 0 127 -33.5t81 -95.5l-41 -13q-21 49 -65.5 74.5t-102.5 25.5q-79 0 -151.5 -55.5t-89.5 -154.5l188 1l-4 -37l-189 -1q-4 -98 56 -153t139 -55z
" />
    <glyph glyph-name="uni0457" unicode="&#x457;" horiz-adv-x="163" 
d="M17 700l-4 -45h-48l4 45h48zM231 700l-5 -45h-48l5 45h48zM104 520l-55 -520h-46l55 520h46z" />
    <glyph glyph-name="uni0490" unicode="&#x490;" horiz-adv-x="495" 
d="M435 747h47l-8 -72l-2 -20h-353l-69 -655h-47l74 700h353z" />
    <glyph glyph-name="uni0491" unicode="&#x491;" horiz-adv-x="464" 
d="M383 566h46l-10 -88h-319l-51 -478h-46l55 520h320z" />
    <glyph glyph-name="Wgrave" unicode="&#x1e80;" horiz-adv-x="958" 
d="M406 880h54l63 -129h-32zM957 700l-299 -700h-25l-144 606l-275 -606h-24l-151 700h47l128 -593l271 593h26l144 -593l255 593h47z" />
    <glyph glyph-name="wgrave" unicode="&#x1e81;" horiz-adv-x="918" 
d="M367 700h54l63 -129h-32zM848 520h47l-261 -520h-33l-144 466l-246 -466h-32l-152 520h47l129 -450l236 450h44l140 -450z" />
    <glyph glyph-name="Wacute" unicode="&#x1e82;" horiz-adv-x="958" 
d="M633 880l-113 -129h-32l90 129h55zM957 700l-299 -700h-25l-144 606l-275 -606h-24l-151 700h47l128 -593l271 593h26l144 -593l255 593h47z" />
    <glyph glyph-name="wacute" unicode="&#x1e83;" horiz-adv-x="918" 
d="M594 700l-113 -129h-32l90 129h55zM848 520h47l-261 -520h-33l-144 466l-246 -466h-32l-152 520h47l129 -450l236 450h44l140 -450z" />
    <glyph glyph-name="Wdieresis" unicode="&#x1e84;" horiz-adv-x="958" 
d="M434 880l-5 -45h-48l5 45h48zM648 880l-5 -45h-48l5 45h48zM957 700l-299 -700h-25l-144 606l-275 -606h-24l-151 700h47l128 -593l271 593h26l144 -593l255 593h47z" />
    <glyph glyph-name="wdieresis" unicode="&#x1e85;" horiz-adv-x="918" 
d="M395 700l-5 -45h-48l5 45h48zM609 700l-5 -45h-48l5 45h48zM848 520h47l-261 -520h-33l-144 466l-246 -466h-32l-152 520h47l129 -450l236 450h44l140 -450z" />
    <glyph glyph-name="Ygrave" unicode="&#x1ef2;" horiz-adv-x="623" 
d="M240 880h55l62 -129h-32zM614 700l-296 -363l-36 -337h-47l36 337l-220 363h55l191 -319l262 319h55z" />
    <glyph glyph-name="ygrave" unicode="&#x1ef3;" horiz-adv-x="545" 
d="M304 571h-31l-85 129h54zM474 520h48l-390 -710h-48l113 207l-170 503h46l153 -450z" />
    <glyph glyph-name="endash" unicode="&#x2013;" horiz-adv-x="600" 
d="M532 301l-4 -37h-510l4 37h510z" />
    <glyph glyph-name="emdash" unicode="&#x2014;" horiz-adv-x="660" 
d="M592 301l-4 -37h-570l4 37h570z" />
    <glyph glyph-name="quoteleft" unicode="&#x2018;" horiz-adv-x="175" 
d="M169 700l-90 -197h-50l104 197h36z" />
    <glyph glyph-name="quoteright" unicode="&#x2019;" horiz-adv-x="169" 
d="M23 503l90 197h50l-103 -197h-37z" />
    <glyph glyph-name="quotesinglbase" unicode="&#x201a;" horiz-adv-x="226" 
d="M-65 -97l90 197h50l-104 -197h-36z" />
    <glyph glyph-name="quotedblleft" unicode="&#x201c;" horiz-adv-x="281" 
d="M169 700l-90 -197h-50l104 197h36zM275 700l-90 -197h-50l104 197h36z" />
    <glyph glyph-name="quotedblright" unicode="&#x201d;" horiz-adv-x="275" 
d="M23 503l90 197h50l-103 -197h-37zM129 503l90 197h50l-103 -197h-37z" />
    <glyph glyph-name="quotedblbase" unicode="&#x201e;" horiz-adv-x="276" 
d="M-40 -97l90 197h50l-104 -197h-36zM66 -97l90 197h50l-103 -197h-37z" />
    <glyph glyph-name="dagger" unicode="&#x2020;" horiz-adv-x="296" 
d="M250 557l-4 -36h-78l-30 -209h-23l14 209h-79l4 36h78l11 143h49l-19 -143h77z" />
    <glyph glyph-name="daggerdbl" unicode="&#x2021;" horiz-adv-x="297" 
d="M173 557h78l-4 -36h-80l-21 -147h-23l9 147h-81l4 36h79l10 143h49zM141 326l-10 -147h80l-4 -36h-78l-10 -143h-49l20 143h-79l4 36h81l22 147h23z" />
    <glyph glyph-name="bullet" unicode="&#x2022;" horiz-adv-x="122" 
d="M53 251q-19 0 -24.5 5.5t-5.5 24.5t5.5 25t24.5 6t25 -6t6 -25t-6 -24.5t-25 -5.5z" />
    <glyph glyph-name="ellipsis" unicode="&#x2026;" horiz-adv-x="625" 
d="M12 -5q-19 0 -25 6t-4 26q2 19 8 24t24 5q20 0 25.5 -6t3.5 -26q-2 -19 -7.5 -24t-24.5 -5zM259 -5q-19 0 -25 6t-4 26q2 19 8 24t24 5q20 0 25.5 -6t3.5 -26q-2 -19 -7.5 -24t-24.5 -5zM506 -5q-19 0 -25 6t-4 26q2 19 8 24t24 5q20 0 25.5 -6t3.5 -26q-2 -19 -7.5 -24
t-24.5 -5z" />
    <glyph glyph-name="perthousand" unicode="&#x2030;" horiz-adv-x="1023" 
d="M176 705q52 0 85.5 -36.5t27.5 -88.5q-5 -51 -44.5 -86t-89.5 -35q-52 0 -85.5 36.5t-27.5 88.5q5 51 44.5 86t89.5 35zM576 701l33 -25l-524 -676l-34 25zM176 669q-37 0 -65.5 -25.5t-33.5 -63.5q-4 -36 19 -60.5t59 -24.5q37 0 66 25.5t33 63.5q4 36 -19 60.5
t-59 24.5zM508 241q52 0 85 -36.5t28 -88.5q-6 -51 -45.5 -86t-89.5 -35q-52 0 -85 36.5t-28 88.5q5 51 44.5 86t90.5 35zM833 241q52 0 85 -36.5t28 -88.5q-6 -51 -45.5 -86t-89.5 -35q-52 0 -85 36.5t-28 88.5q5 51 44.5 86t90.5 35zM508 205q-37 0 -66 -25.5t-33 -63.5
q-4 -36 18.5 -60.5t58.5 -24.5q37 0 66 25.5t33 63.5q4 36 -18.5 60.5t-58.5 24.5zM833 205q-37 0 -66 -25.5t-33 -63.5q-4 -36 18.5 -60.5t58.5 -24.5q37 0 66 25.5t33 63.5q4 36 -18.5 60.5t-58.5 24.5z" />
    <glyph glyph-name="guilsinglleft" unicode="&#x2039;" horiz-adv-x="183" 
d="M21 334l134 104l-4 -36l-110 -102l88 -103l-4 -36l-112 104z" />
    <glyph glyph-name="guilsinglright" unicode="&#x203a;" horiz-adv-x="183" 
d="M123 332l-7 -69l-134 -104l4 36l109 103l-87 102l4 36z" />
    <glyph glyph-name="fraction" unicode="&#x2044;" horiz-adv-x="108" 
d="M307 700l-504 -700h-48l510 700h42z" />
    <glyph glyph-name="Euro" unicode="&#x20ac;" horiz-adv-x="720" 
d="M611 109l29 -35q-109 -84 -240 -84q-118 0 -210.5 79.5t-107.5 202.5l-65 -1l4 39l59 1q0 11 2 41q2 18 4 26l-58 -1l4 39l62 1q38 128 148 210.5t230 82.5q129 0 223 -84l-33 -33q-76 71 -187 71q-104 0 -200.5 -70t-131.5 -179l168 1l-4 -39l-173 -1q-4 -18 -5 -28
q-2 -26 0 -39l171 1l-4 -39h-165q17 -105 95.5 -170t178.5 -65q111 0 206 73z" />
    <glyph glyph-name="trademark" unicode="&#x2122;" horiz-adv-x="546" 
d="M255 700l-3 -29h-69l-16 -151h-33l16 151h-69l3 29h171zM500 700l-19 -180h-32l13 120l-73 -120h-26l-47 120l-13 -120h-32l19 180h32l57 -141l89 141h32z" />
    <glyph glyph-name="oneeighth" unicode="&#x215b;" horiz-adv-x="556" 
d="M120 701l-27 -261h-37l23 221l-17 -11l-16 31l37 20h37zM523 700l-504 -700h-48l510 700h42zM411 263q37 0 56.5 -21t17.5 -48q-4 -34 -36 -52q41 -20 36 -67q-4 -33 -32.5 -55t-65.5 -22q-38 0 -63 23t-21 58q5 44 49 65q-27 21 -24 54q3 26 26 45.5t57 19.5zM412 232
q-20 0 -32.5 -11t-14.5 -27q-2 -14 9 -25.5t26 -11.5q18 0 31.5 12.5t15.5 28.5q2 15 -6 24.5t-29 9.5zM401 126q-23 0 -41.5 -14.5t-20.5 -36.5q-2 -20 12 -33t35 -13q25 0 42 14t20 36q2 21 -11 34t-36 13z" />
    <glyph glyph-name="threeeighths" unicode="&#x215c;" horiz-adv-x="574" 
d="M134 703q33 0 55 -21t19 -49q-3 -32 -35 -52q39 -17 35 -67q-4 -33 -33 -55.5t-66 -22.5q-41 0 -64.5 27.5t-18.5 64.5l38 -2q-2 -24 10 -41t35 -17t41 14t20 36q3 26 -14.5 36t-53.5 10l1 29q64 0 69 44q1 15 -10 25t-28 10q-22 0 -37 -14.5t-18 -41.5l-36 2
q3 38 29 61.5t62 23.5zM542 700l-503 -700h-48l509 700h42zM428 263q37 0 57 -21t17 -48q-4 -34 -35 -52q41 -21 36 -67q-4 -33 -33 -55t-66 -22q-38 0 -63 23t-21 58q5 44 50 65q-28 20 -25 54q3 26 26 45.5t57 19.5zM429 232q-21 0 -33 -11t-14 -27q-2 -14 9 -25.5
t26 -11.5q18 0 31.5 12.5t15.5 28.5q2 15 -6 24.5t-29 9.5zM418 126q-22 0 -40.5 -14.5t-20.5 -36.5q-2 -20 12 -33t35 -13q25 0 42 14t19 36q2 21 -11 34t-36 13z" />
    <glyph glyph-name="fiveeighths" unicode="&#x215d;" horiz-adv-x="576" 
d="M205 701l-3 -32h-104l-15 -58q22 10 45 10q36 0 61.5 -27.5t21.5 -66.5q-4 -38 -34.5 -64.5t-68.5 -26.5q-34 0 -57.5 19t-27.5 44l35 17q-1 -20 13 -34t37 -14q24 0 43 18t22 45q3 24 -11 41t-34 17q-35 0 -61 -30l-32 9l32 133h138zM542 700l-504 -700h-48l510 700h42z
M430 263q37 0 56.5 -21t17.5 -48q-4 -34 -36 -52q41 -20 36 -67q-4 -33 -32.5 -55t-65.5 -22q-38 0 -63 23t-21 58q5 44 49 65q-27 21 -24 54q3 26 26 45.5t57 19.5zM431 232q-21 0 -33 -11t-14 -27q-2 -14 9 -25.5t26 -11.5q18 0 31.5 12.5t15.5 28.5q2 15 -6 24.5t-29 9.5
zM420 126q-23 0 -41.5 -14.5t-20.5 -36.5q-2 -20 12 -33t35 -13q25 0 42 14t20 36q2 21 -11 34t-36 13z" />
    <glyph glyph-name="seveneighths" unicode="&#x215e;" horiz-adv-x="555" 
d="M219 701l-129 -261h-39l113 229h-121l3 32h173zM522 700l-504 -700h-48l510 700h42zM410 263q37 0 56.5 -21t17.5 -48q-4 -34 -36 -52q41 -20 36 -67q-4 -33 -32.5 -55t-65.5 -22q-38 0 -63 23t-21 58q5 44 49 65q-27 21 -24 54q3 26 26 45.5t57 19.5zM411 232
q-21 0 -33 -11t-14 -27q-2 -14 9 -25.5t26 -11.5q18 0 31.5 12.5t15.5 28.5q2 15 -6 24.5t-29 9.5zM400 126q-23 0 -41.5 -14.5t-20.5 -36.5q-2 -20 12 -33t35 -13q25 0 42 14t20 36q2 21 -11 34t-36 13z" />
    <glyph glyph-name="partialdiff" unicode="&#x2202;" horiz-adv-x="520" 
d="M178 700h53l133 -223q4 -6 13.5 -21t14.5 -23t15 -25t14.5 -27.5t13 -29.5t10.5 -31.5t7.5 -34t4 -36t-1.5 -38.5q-10 -96 -82 -158.5t-166 -62.5q-95 0 -153.5 63.5t-48.5 158.5q10 92 82.5 154.5t162.5 62.5q65 0 117 -39zM250 385q-71 0 -131.5 -48.5t-69.5 -128.5
q-8 -77 40.5 -126t118.5 -49q74 0 133.5 50t68.5 129q8 81 -36.5 127t-123.5 46z" />
    <glyph glyph-name="product" unicode="&#x220f;" horiz-adv-x="645" 
d="M74 800h555l-104 -990h-42l99 943h-471l-99 -943h-42z" />
    <glyph glyph-name="summation" unicode="&#x2211;" horiz-adv-x="647" 
d="M631 800l-5 -49h-475l203 -446l-297 -446h475l-5 -49h-557l327 495l-223 495h557z" />
    <glyph glyph-name="minus" unicode="&#x2212;" horiz-adv-x="425" 
d="M357 301l-4 -37h-335l4 37h335z" />
    <glyph glyph-name="radical" unicode="&#x221a;" horiz-adv-x="650" 
d="M634 800l-351 -990h-47l-110 474h-106l5 46h137l103 -450l324 920h45z" />
    <glyph glyph-name="infinity" unicode="&#x221e;" horiz-adv-x="790" 
d="M574 424q68 0 110.5 -46.5t35.5 -115.5q-7 -71 -59.5 -118t-119.5 -47q-98 0 -178 128q-104 -128 -201 -128q-69 0 -111.5 47t-35.5 118q7 69 59.5 115.5t120.5 46.5q97 0 177 -125q104 125 202 125zM168 141q81 0 173 121q-66 118 -148 118q-51 0 -88.5 -34t-42.5 -84
t25.5 -85.5t80.5 -35.5zM673 262q5 50 -25.5 84t-80.5 34q-80 0 -173 -118q68 -121 148 -121q51 0 88.5 35t42.5 86z" />
    <glyph glyph-name="integral" unicode="&#x222b;" horiz-adv-x="285" 
d="M287 800l-2 -42q-52 0 -77.5 -24t-31.5 -88l-71 -682q-10 -90 -48 -122t-111 -32l3 42q52 0 77.5 24t31.5 88l71 683q10 90 47.5 121.5t110.5 31.5z" />
    <glyph glyph-name="approxequal" unicode="&#x2248;" horiz-adv-x="460" 
d="M131 411q47 0 91 -34.5t79 -34.5q33 0 51 15t20 34l29 -2q-4 -44 -32.5 -65.5t-69.5 -21.5q-38 0 -66 18t-53.5 35.5t-56.5 17.5q-34 0 -52 -18t-19 -37l-28 2q4 44 35 67.5t72 23.5zM114 251q46 0 91 -34.5t80 -34.5q33 0 50.5 15t20.5 34l28 -2q-4 -44 -32.5 -65.5
t-69.5 -21.5q-38 0 -66 18t-53 35.5t-56 17.5q-34 0 -52.5 -18t-19.5 -37l-28 2q5 44 35.5 67.5t71.5 23.5z" />
    <glyph glyph-name="notequal" unicode="&#x2260;" horiz-adv-x="396" 
d="M359 344h-123l-60 -123h171l-5 -37h-185l-90 -184h-41l91 184h-110l5 37h124l60 123h-172l4 37h186l89 180h41l-90 -180h109z" />
    <glyph glyph-name="lessequal" unicode="&#x2264;" horiz-adv-x="402" 
d="M393 593l-5 -43l-310 -175l274 -174l-5 -44l-321 208l2 21zM335 37l-5 -37h-335l5 37h335z" />
    <glyph glyph-name="greaterequal" unicode="&#x2265;" horiz-adv-x="404" 
d="M51 593l321 -207l-2 -21l-365 -208l5 44l310 174l-274 175zM-7 37h335l-5 -37h-335z" />
    <glyph glyph-name="lozenge" unicode="&#x25ca;" horiz-adv-x="458" 
d="M277 700l118 -350l-193 -350h-57l-118 350l192 350h58zM178 45l168 305l-102 305l-168 -305z" />
    <glyph glyph-name="i.loclTRK" horiz-adv-x="153" 
d="M124 700l-5 -45h-48l5 45h48zM104 520l-55 -520h-46l55 520h46z" />
    <glyph glyph-name="f_t" horiz-adv-x="575" 
d="M537 479h-109l-41 -396q-4 -48 34 -48q28 0 68 21l-1 -44q-36 -18 -80 -18q-32 0 -52 20.5t-16 61.5l42 403h-270l-50 -479h-47l51 479h-51l5 41h50l6 48q14 149 158 149q52 0 101 -30l-22 -31q-35 20 -79 20q-49 0 -77.5 -24t-34.5 -86l-5 -46h270l13 122h46l-13 -122
h109z" />
    <glyph glyph-name="t_t" horiz-adv-x="574" 
d="M536 479h-109l-41 -396q-4 -48 34 -48q29 0 69 21l-2 -44q-36 -18 -79 -18q-33 0 -53 20.5t-15 61.5l41 403h-241l-41 -396q-4 -48 34 -48q29 0 69 21l-2 -44q-36 -18 -79 -18q-33 0 -53 20.5t-15 61.5l41 403h-71l5 41h71l13 122h46l-13 -122h241l13 122h46l-13 -122
h109z" />
    <glyph glyph-name="zero.tf" horiz-adv-x="700" 
d="M394 710q108 0 172 -79.5t64 -217.5q0 -111 -34.5 -205.5t-106 -156t-167.5 -61.5q-108 0 -172 79t-64 217q0 113 35.5 208t107 155.5t165.5 60.5zM394 668q-82 0 -143 -56.5t-90 -141.5t-29 -182q0 -122 51 -188.5t139 -66.5q82 0 143 56t90 140.5t29 181.5
q0 120 -51.5 188.5t-138.5 68.5z" />
    <glyph glyph-name="one.tf" horiz-adv-x="700" 
d="M424 700l-74 -700h-47l70 655h-89l4 45h136z" />
    <glyph glyph-name="two.tf" horiz-adv-x="700" 
d="M385 708q82 0 136 -49.5t54 -127.5q0 -16 -3 -31.5t-6.5 -28.5t-13.5 -30.5t-16 -28.5t-22 -30.5t-24 -29.5t-30 -33t-32 -33t-37 -38t-39 -40l-161 -165h333l-5 -42h-412l2 15l208 216q18 18 55 56t49.5 51t37 40.5t32 40.5t19 34.5t15 39t3.5 38.5q0 60 -40.5 96.5
t-103.5 36.5q-68 0 -120.5 -45.5t-61.5 -122.5l-1 -15h-47l2 17q10 93 75.5 151t153.5 58z" />
    <glyph glyph-name="three.tf" horiz-adv-x="700" 
d="M127 154q15 -55 60.5 -88t114.5 -33q89 0 150.5 56.5t61.5 144.5q0 73 -48 111t-125 38q-26 0 -49 -4l209 279h-328l5 42h402l-218 -283q81 2 139 -47t58 -135q0 -110 -76.5 -177.5t-181.5 -67.5q-84 0 -141 42t-73 109z" />
    <glyph glyph-name="four.tf" horiz-adv-x="700" 
d="M535 241l-4 -43h-75l-22 -198h-47l22 198h-315l5 43l362 459h47l-48 -459h75zM150 241h263l41 386z" />
    <glyph glyph-name="five.tf" horiz-adv-x="700" 
d="M559 700l-5 -42h-296l-64 -257q71 70 176 70q87 0 150 -59.5t63 -153.5q0 -116 -79.5 -192t-189.5 -76q-86 0 -140.5 40.5t-74.5 104.5l39 16q16 -51 60.5 -84.5t115.5 -33.5q93 0 158 65.5t65 157.5q0 76 -50 124.5t-122 48.5q-102 0 -180 -84l-43 11l84 344h333z" />
    <glyph glyph-name="six.tf" horiz-adv-x="700" 
d="M500 700l-256 -308q58 37 122 37q86 0 145.5 -56.5t59.5 -142.5q0 -101 -73.5 -170.5t-174.5 -69.5q-88 0 -145.5 55.5t-57.5 143.5q0 23 4.5 47.5t9.5 42.5t18.5 42.5t19.5 36.5t24.5 36.5t22.5 30t25 29.5l20 25l183 221h53zM362 385q-87 0 -142.5 -55t-55.5 -142
q0 -69 47 -112t116 -43q77 0 138.5 56t61.5 143q0 70 -49.5 111.5t-115.5 41.5z" />
    <glyph glyph-name="seven.tf" horiz-adv-x="700" 
d="M594 700l-345 -700h-47l325 658h-340l5 42h402z" />
    <glyph glyph-name="eight.tf" horiz-adv-x="700" 
d="M455 388q52 -22 82.5 -65.5t30.5 -101.5q0 -101 -73 -166t-171 -65q-86 0 -144.5 51.5t-58.5 135.5q0 73 42 129t110 84q-78 47 -78 133q0 80 58.5 133.5t142.5 53.5q78 0 123.5 -44t45.5 -110q0 -51 -28 -95.5t-82 -72.5zM239 521q0 -49 35.5 -82t89.5 -33
q63 0 109.5 44t46.5 104q0 48 -33 81t-92 33q-69 0 -112.5 -45t-43.5 -102zM325 34q78 0 137 51.5t59 134.5q0 64 -44.5 104t-113.5 40q-80 0 -137.5 -52.5t-57.5 -132.5q0 -65 45.5 -105t111.5 -40z" />
    <glyph glyph-name="nine.tf" horiz-adv-x="700" 
d="M207 -1l256 308q-58 -37 -122 -37q-86 0 -145.5 56.5t-59.5 142.5q0 101 73.5 170.5t174.5 69.5q88 0 145.5 -55.5t57.5 -143.5q0 -23 -4.5 -47.5t-9.5 -42.5t-18.5 -42.5t-19.5 -36.5t-24.5 -36.5t-22.5 -30t-24 -30.5l-21 -24l-183 -221h-53zM345 314q87 0 142.5 55
t55.5 142q0 69 -47 112t-116 43q-77 0 -138.5 -56t-61.5 -143q0 -70 50 -111.5t115 -41.5z" />
    <glyph glyph-name="zero.dnom" horiz-adv-x="260" 
d="M101 263q47 0 73.5 -35.5t20.5 -91.5l-2 -13q-6 -56 -38 -90.5t-78 -34.5t-72.5 35.5t-21.5 91.5l2 13q6 56 38.5 90.5t77.5 34.5zM102 232q-30 0 -53 -26t-27 -70l-2 -13q-4 -44 11.5 -69t44.5 -25q32 0 54 25.5t26 70.5l2 13q4 45 -11 69.5t-45 24.5z" />
    <glyph glyph-name="one.dnom" horiz-adv-x="122" 
d="M70 261l-28 -261h-37l25 221l-19 -11l-15 31l37 20h37z" />
    <glyph glyph-name="two.dnom" horiz-adv-x="221" 
d="M80 264q35 0 58 -23.5t20 -53.5q-3 -26 -19.5 -47t-58.5 -60l-53 -48h118l-4 -32h-168l4 32l74 70q53 50 61 65q7 11 8 24q2 18 -9.5 30t-29.5 12q-20 0 -36 -13.5t-19 -37.5l-1 -13h-37l2 15q4 35 30 57.5t60 22.5z" />
    <glyph glyph-name="three.dnom" horiz-adv-x="233" 
d="M87 263q33 0 55.5 -21t19.5 -49q-3 -32 -36 -52q17 -7 27.5 -24.5t7.5 -42.5q-4 -33 -32.5 -55.5t-65.5 -22.5q-41 0 -64.5 27.5t-18.5 64.5l37 -2q-2 -24 10 -41t35 -17t41 14t21 36q2 26 -15.5 36t-53.5 10l1 29q64 0 69 44q1 15 -9.5 25t-27.5 10q-22 0 -37 -14.5
t-18 -41.5l-37 2q3 38 29 61.5t62 23.5z" />
    <glyph glyph-name="four.dnom" horiz-adv-x="246" 
d="M167 261l-16 -154h27l-4 -31h-27l-8 -76h-37l8 76h-132l152 185h37zM124 202l-75 -95h65z" />
    <glyph glyph-name="five.dnom" horiz-adv-x="235" 
d="M159 261l-4 -32h-104l-15 -58q23 10 45 10q36 0 61.5 -27.5t21.5 -66.5q-4 -38 -34 -64.5t-68 -26.5q-34 0 -58 19t-27 44l34 17q0 -20 13.5 -34t36.5 -14q24 0 43.5 18t22.5 45q2 24 -12 41t-33 17q-35 0 -61 -30l-32 9l32 133h138z" />
    <glyph glyph-name="six.dnom" horiz-adv-x="223" 
d="M147 261l-78 -96h5q34 0 57.5 -26t20.5 -60q-4 -34 -32 -58.5t-61 -24.5q-35 0 -59.5 26t-20.5 61q1 13 5 23.5t11 22t12 17.5t16.5 19t15.5 18l66 78h42zM73 133q-23 0 -39 -15t-18 -39q-3 -22 10.5 -36.5t31.5 -14.5q19 0 37 15.5t20 39.5q2 22 -11 36t-31 14z" />
    <glyph glyph-name="seven.dnom" horiz-adv-x="223" 
d="M171 261l-130 -261h-39l113 229h-121l4 32h173z" />
    <glyph glyph-name="eight.dnom" horiz-adv-x="233" 
d="M87 263q37 0 56.5 -21t17.5 -48q-4 -34 -36 -52q41 -20 36 -67q-4 -33 -32.5 -55t-65.5 -22q-38 0 -63 23t-21 58q5 44 49 65q-27 21 -24 54q3 26 26 45.5t57 19.5zM88 232q-20 0 -32.5 -11t-14.5 -27q-2 -14 9 -25.5t26 -11.5q18 0 31.5 12.5t15.5 28.5q2 15 -6 24.5
t-29 9.5zM77 126q-23 0 -41.5 -14.5t-20.5 -36.5q-2 -20 12 -33t35 -13q25 0 42 14t20 36q2 21 -11 34t-36 13z" />
    <glyph glyph-name="nine.dnom" horiz-adv-x="224" 
d="M83 264q35 0 59.5 -25.5t20.5 -60.5q-1 -11 -4.5 -21t-7 -17t-11 -17.5t-11 -14.5t-14 -15.5t-13.5 -15.5l-65 -77h-43l78 95h-4q-34 0 -58 26t-21 61q4 34 32 58t62 24zM84 232q-20 0 -38 -15.5t-20 -38.5q-2 -22 11.5 -36.5t31.5 -14.5q23 0 38.5 15t17.5 40
q3 21 -10 35.5t-31 14.5z" />
    <glyph glyph-name="zero.numr" horiz-adv-x="259" 
d="M146 703q47 0 73.5 -35.5t20.5 -91.5l-1 -13q-6 -56 -38 -90.5t-78 -34.5t-73 35.5t-21 91.5l1 13q6 56 38.5 90.5t77.5 34.5zM147 672q-30 0 -53 -26t-27 -70l-1 -13q-5 -44 11 -69t45 -25q32 0 54 25.5t26 70.5l1 13q5 44 -10 69t-46 25z" />
    <glyph glyph-name="one.numr" horiz-adv-x="122" 
d="M116 701l-27 -261h-37l24 221l-18 -11l-16 31l37 20h37z" />
    <glyph glyph-name="two.numr" horiz-adv-x="222" 
d="M127 704q35 0 58 -23.5t20 -53.5q-3 -26 -19.5 -47t-58.5 -60l-53 -48h118l-3 -32h-168l3 32l74 70q5 4 14 12.5t12 11.5t10 9.5t9 9.5t7 8t6.5 7.5t4 7t3.5 7.5l2.5 7.5t1.5 8.5q1 18 -10.5 30t-29.5 12q-20 0 -36 -13.5t-18 -37.5l-2 -13h-37l2 15q4 35 30 57.5
t60 22.5z" />
    <glyph glyph-name="three.numr" horiz-adv-x="232" 
d="M133 703q33 0 55.5 -21t19.5 -49q-3 -32 -36 -52q17 -7 27.5 -24.5t7.5 -42.5q-3 -33 -32 -55.5t-66 -22.5q-41 0 -64.5 27.5t-18.5 64.5l38 -2q-3 -24 9.5 -41t35.5 -17t41 14t20 36q3 26 -14.5 36t-53.5 10l1 29q64 0 68 44q1 15 -9.5 25t-27.5 10q-22 0 -37 -14.5
t-18 -41.5l-37 2q4 38 29.5 61.5t61.5 23.5z" />
    <glyph glyph-name="four.numr" horiz-adv-x="245" 
d="M212 701l-16 -154h27l-3 -31h-27l-8 -76h-37l8 76h-132l151 185h37zM169 642l-75 -95h65z" />
    <glyph glyph-name="five.numr" horiz-adv-x="236" 
d="M205 701l-3 -32h-104l-15 -58q22 10 45 10q36 0 61.5 -27.5t21.5 -66.5q-4 -38 -34.5 -64.5t-68.5 -26.5q-34 0 -57.5 19t-27.5 44l35 17q-1 -20 13 -34t37 -14q24 0 43 18t22 45q3 24 -11 41t-34 17q-35 0 -61 -30l-32 9l32 133h138z" />
    <glyph glyph-name="six.numr" horiz-adv-x="224" 
d="M194 701l-78 -96h5q34 0 58 -26t20 -60t-32 -58.5t-61 -24.5q-35 0 -59.5 26t-20.5 61q1 13 5 23.5t11 22t12 17.5t16.5 19t15.5 18l66 78h42zM121 573q-23 0 -39.5 -15t-18.5 -39q-2 -22 11.5 -36.5t31.5 -14.5q19 0 36.5 15.5t19.5 39.5q3 22 -10 36t-31 14z" />
    <glyph glyph-name="seven.numr" horiz-adv-x="222" 
d="M216 701l-129 -261h-39l113 229h-121l3 32h173z" />
    <glyph glyph-name="eight.numr" horiz-adv-x="233" 
d="M133 703q37 0 57 -21t17 -48q-4 -34 -35 -52q41 -21 35 -67q-3 -33 -31.5 -55t-66.5 -22t-63 23t-21 58q5 44 50 65q-28 20 -25 54q3 26 26 45.5t57 19.5zM134 672q-20 0 -32.5 -11t-14.5 -27q-2 -14 9 -25.5t26 -11.5q18 0 31.5 12.5t15.5 28.5q2 15 -6 24.5t-29 9.5z
M123 566q-22 0 -40.5 -14.5t-21.5 -36.5q-1 -20 13 -33t35 -13q25 0 42 14t19 36q2 21 -11 34t-36 13z" />
    <glyph glyph-name="nine.numr" horiz-adv-x="222" 
d="M128 704q35 0 59.5 -25.5t20.5 -60.5q-1 -13 -4.5 -24t-11 -22t-12.5 -17.5t-16.5 -19.5t-15.5 -18l-65 -77h-43l78 95h-4q-35 0 -59 26.5t-20 60.5t31.5 58t61.5 24zM129 672q-20 0 -37.5 -15.5t-20.5 -38.5q-2 -22 11.5 -36.5t31.5 -14.5q23 0 38.5 15t18.5 40
q2 21 -11 35.5t-31 14.5z" />
    </font>
</defs>
</svg>
